<?xml version="1.0" encoding="utf-8"?>
<!-- Generator: Adobe Illustrator 24.0.2, SVG Export Plug-In . SVG Version: 6.00 Build 0)  -->
<svg version="1.1" id="Layer_1" xmlns="http://www.w3.org/2000/svg" xmlns:xlink="http://www.w3.org/1999/xlink" x="0px" y="0px"
	 viewBox="0 0 240.9 141.7" style="enable-background:new 0 0 240.9 141.7;" xml:space="preserve">
<style type="text/css">
	.st0{fill-rule:evenodd;clip-rule:evenodd;fill:#006398;}
	.st1{fill-rule:evenodd;clip-rule:evenodd;fill:#FFFFFF;}
</style>
<rect class="st0" width="240.9" height="141.7"/>
<path class="st1" d="M144.9,89.3l16.3,0.1c5.9,0,10.9-2.3,10.9-8.3c0-4.6,0.7-9.3-5.3-10.8c3.8-3.2,4-1.5,4-9.4
	c0-5.7-3.3-7.8-8.8-8.1c-4.3-0.3-12.9-0.4-17.1,0V89.3z M152.4,58.6c9.4,0,10.8-1.1,10.8,4.9c0,5.8-2.9,4.7-10.9,4.7L152.4,58.6z
	 M152.4,73.7c8.2,0,12.3-1.2,12.3,4.2c0,6.8-1,5.7-12.3,5.7L152.4,73.7z"/>
<path class="st1" d="M39.1,56c0.5,1.2,12.4,12.4,13.1,13.4c1.6,2.4-1.7,4.7-2.7,5.7c-3,3-6,5.8-9,8.7c-1.1,1.1-1.4,0.9-1.3,3
	c0,2.9-0.2,11.6,0.1,13.3l25.2-24.8c1.1-1,2.8-2.1,3-4.4c0.1-2.7-3.7-5.1-6.4-8c-4.4-4.8-10-9.7-14.6-14.3c-1.2-1.2-2.3-2.4-3.5-3.6
	c-0.8-0.8-3.1-3.1-3.8-3.5L39.1,56z"/>
<path class="st1" d="M34.1,100.2c0.3-2.3,0.1-11.4,0.1-14.4c0-1.2-9-9.3-10.5-10.8c-0.9-0.9-3.1-2.5-3-4.2c0.1-1.6,4.8-5.6,6.7-7.7
	c1.2-1.3,2.3-2.3,3.5-3.6c1.9-1.9,3.3-2.7,3.3-4.1l0-13.9c-1.3,0.8-15.1,15-18.1,17.6c-2.8,2.4-4.4,4.6-7.2,7.2
	c-5.4,4.9-3,6.3,3.5,12.3c4.9,4.6,9.7,10,14.6,14.4c1.4,1.2,2.3,2.3,3.6,3.5C31.6,97.7,33.3,99.1,34.1,100.2z"/>
<path class="st1" d="M106.6,89.3l7.9,0.1l2.5-7.6l14.2,0c0.9,0.8,2.4,6.1,2.7,7.5l7.9,0l-12.3-36.6c-12.4-0.6-10.3-0.8-15.3,14.3
	C112.4,72.3,107.7,85.3,106.6,89.3z M124.2,58.9l5.3,16.9l-10.6-0.1L124.2,58.9z"/>
<path class="st1" d="M173.7,89.4l7.4,0c0.8-0.2,1.3-2.5,1.6-3.6c0.4-1.3,1-2.7,1.2-4h14.7l2.4,7.6l7.8,0l-9.3-27.5
	c-0.6-1.6-1.1-3.1-1.6-4.7c-0.4-1.2-0.8-3.8-1.9-4.4c-5.2,0-9.4-0.7-11.2,3.5L173.7,89.4z M191.4,58.9l5.3,16.9l-10.7,0L191.4,58.9z
	"/>
<path class="st1" d="M79.5,62.1v16.7c0,7.8,5.8,10.6,13.4,10.6l10.5-0.1c0-6.7-1.5-6.3-7.8-6.2C85.1,83,87,81.2,87,63.4
	c0-3.9,2-5.4,5.9-5.4h10.8c0.5-7.5-1.8-6.3-11.3-6.3C85.2,51.7,79.5,54.7,79.5,62.1z"/>
<path class="st1" d="M211.4,89.4c3.8,0,21.4,0.5,23.6-0.2c0-1.1,0.2-4.5,0-5.3c-0.2-1.2-1.7-0.7-4.8-0.7c-3.8,0-7.6,0-11.3,0V52.4
	c-9.7-2.1-7.5,6.6-7.5,14.6C211.4,74.5,211.4,81.9,211.4,89.4z"/>
</svg>
