<?xml version="1.0" encoding="UTF-8" standalone="no"?>
<svg
   xmlns:dc="http://purl.org/dc/elements/1.1/"
   xmlns:cc="http://creativecommons.org/ns#"
   xmlns:rdf="http://www.w3.org/1999/02/22-rdf-syntax-ns#"
   xmlns:svg="http://www.w3.org/2000/svg"
   xmlns="http://www.w3.org/2000/svg"
   xmlns:sodipodi="http://sodipodi.sourceforge.net/DTD/sodipodi-0.dtd"
   xmlns:inkscape="http://www.inkscape.org/namespaces/inkscape"
   width="48"
   height="32"
   viewBox="0 0 48 32"
   fill="none"
   version="1.1"
   id="svg5"
   sodipodi:docname="HUILEN.svg"
   inkscape:version="1.0 (4035a4fb49, 2020-05-01)">
  <metadata
     id="metadata11">
    <rdf:RDF>
      <cc:Work
         rdf:about="">
        <dc:format>image/svg+xml</dc:format>
        <dc:type
           rdf:resource="http://purl.org/dc/dcmitype/StillImage" />
        <dc:title></dc:title>
      </cc:Work>
    </rdf:RDF>
  </metadata>
  <defs
     id="defs9" />
  <sodipodi:namedview
     inkscape:document-rotation="0"
     pagecolor="#ffffff"
     bordercolor="#666666"
     borderopacity="1"
     objecttolerance="10"
     gridtolerance="10"
     guidetolerance="10"
     inkscape:pageopacity="0"
     inkscape:pageshadow="2"
     inkscape:window-width="2560"
     inkscape:window-height="1054"
     id="namedview7"
     showgrid="false"
     inkscape:zoom="22.627417"
     inkscape:cx="15.564133"
     inkscape:cy="17.449591"
     inkscape:window-x="0"
     inkscape:window-y="0"
     inkscape:window-maximized="1"
     inkscape:current-layer="svg5" />
  <g
     id="g266"
     transform="matrix(0.53759517,0,0,0.53759517,-35.85133,-38.563528)">
    <path
       style="fill:#f9c905;stroke-width:0.264583"
       d="m 107.21162,100.05603 c 0,-0.730753 0.0735,-0.79375 0.92604,-0.79375 0.85255,0 0.92605,0.063 0.92605,0.79375 0,0.73075 -0.0735,0.79375 -0.92605,0.79375 -0.85254,0 -0.92604,-0.063 -0.92604,-0.79375 z"
       id="path274" />
    <path
       style="fill:#8b90a9;stroke-width:0.264583"
       d="m 89.534568,105.94301 -0.05003,-1.65365 2.315104,0.0539 2.315104,0.0538 -2.169921,0.0889 -2.169922,0.0889 -0.09515,1.51086 -0.09515,1.51086 z m 8.945805,1.38906 c 0,-0.0728 0.05953,-0.13229 0.132292,-0.13229 0.07276,0 0.132292,0.0595 0.132292,0.13229 0,0.0728 -0.05953,0.13229 -0.132292,0.13229 -0.07276,0 -0.132292,-0.0595 -0.132292,-0.13229 z m 5.556247,0 c 0,-0.0728 0.0595,-0.13229 0.13229,-0.13229 0.0728,0 0.1323,0.0595 0.1323,0.13229 0,0.0728 -0.0595,0.13229 -0.1323,0.13229 -0.0728,0 -0.13229,-0.0595 -0.13229,-0.13229 z m 3.01048,-2.77812 c 0,-1.67349 0.043,-2.3581 0.0955,-1.52136 0.0525,0.83675 0.0525,2.20597 0,3.04271 -0.0525,0.83675 -0.0955,0.15214 -0.0955,-1.52135 z m 4.66244,2.77812 c 0,-0.0728 0.0595,-0.13229 0.13229,-0.13229 0.0728,0 0.13229,0.0595 0.13229,0.13229 0,0.0728 -0.0595,0.13229 -0.13229,0.13229 -0.0728,0 -0.13229,-0.0595 -0.13229,-0.13229 z m 8.73125,0 c 0,-0.0728 0.0595,-0.13229 0.13229,-0.13229 0.0728,0 0.13229,0.0595 0.13229,0.13229 0,0.0728 -0.0595,0.13229 -0.13229,0.13229 -0.0728,0 -0.13229,-0.0595 -0.13229,-0.13229 z m 14.02292,0 c 0,-0.0728 0.0595,-0.13229 0.13229,-0.13229 0.0728,0 0.13229,0.0595 0.13229,0.13229 0,0.0728 -0.0595,0.13229 -0.13229,0.13229 -0.0728,0 -0.13229,-0.0595 -0.13229,-0.13229 z m -46.710327,-3.96875 0.01136,-3.968749 h 0.926042 0.926042 l 0.02175,1.522679 0.02175,1.52268 -0.101099,-1.45653 c -0.0979,-1.410444 -0.125573,-1.456537 -0.87457,-1.456537 h -0.773473 l -0.08458,3.902607 -0.08458,3.9026 0.01136,-3.96875 z m 16.812407,3.70417 c 0,-0.0728 0.0595,-0.13229 0.13229,-0.13229 0.0728,0 0.13229,0.0595 0.13229,0.13229 0,0.0728 -0.0595,0.13229 -0.13229,0.13229 -0.0728,0 -0.13229,-0.0595 -0.13229,-0.13229 z m 6.35,-0.26459 c 0,-0.0728 0.0595,-0.13229 0.13229,-0.13229 0.0728,0 0.13229,0.0595 0.13229,0.13229 0,0.0728 -0.0595,0.1323 -0.13229,0.1323 -0.0728,0 -0.13229,-0.0595 -0.13229,-0.1323 z m -5.55625,-0.52916 c 0,-0.0728 0.0595,-0.13229 0.13229,-0.13229 0.0728,0 0.13229,0.0595 0.13229,0.13229 0,0.0728 -0.0595,0.13229 -0.13229,0.13229 -0.0728,0 -0.13229,-0.0595 -0.13229,-0.13229 z m -8.202083,-0.26459 c 0,-0.0728 0.05953,-0.13229 0.132291,-0.13229 0.07276,0 0.132292,0.0595 0.132292,0.13229 0,0.0728 -0.05953,0.1323 -0.132292,0.1323 -0.07276,0 -0.132291,-0.0595 -0.132291,-0.1323 z m 13.229163,0 c 0,-0.0728 0.0595,-0.13229 0.13229,-0.13229 0.0728,0 0.1323,0.0595 0.1323,0.13229 0,0.0728 -0.0595,0.1323 -0.1323,0.1323 -0.0728,0 -0.13229,-0.0595 -0.13229,-0.1323 z m 8.73125,0 c 0,-0.0728 0.0595,-0.13229 0.13229,-0.13229 0.0728,0 0.1323,0.0595 0.1323,0.13229 0,0.0728 -0.0595,0.1323 -0.1323,0.1323 -0.0728,0 -0.13229,-0.0595 -0.13229,-0.1323 z m -13.49375,-0.52916 c 0,-0.0728 0.0595,-0.13229 0.1323,-0.13229 0.0728,0 0.13229,0.0595 0.13229,0.13229 0,0.0728 -0.0595,0.13229 -0.13229,0.13229 -0.0728,0 -0.1323,-0.0595 -0.1323,-0.13229 z m 6.61459,0 c 0,-0.0728 0.0595,-0.13229 0.13229,-0.13229 0.0728,0 0.13229,0.0595 0.13229,0.13229 0,0.0728 -0.0595,0.13229 -0.13229,0.13229 -0.0728,0 -0.13229,-0.0595 -0.13229,-0.13229 z m -8.34737,-3.175 0.013,-2.910419 0.99448,-0.02774 0.99448,-0.02774 -0.91982,0.10935 -0.91981,0.109349 -0.0876,2.82881 -0.0877,2.8288 0.013,-2.91041 z m 18.34426,2.05359 c 0.76886,-0.0536 1.95948,-0.0531 2.64583,10e-4 0.68634,0.0543 0.0573,0.0982 -1.39793,0.0975 -1.45521,-7.9e-4 -2.01677,-0.0451 -1.2479,-0.0987 z m 12.22811,-2.58276 c 0,-0.0728 0.0595,-0.13229 0.13229,-0.13229 0.0728,0 0.13229,0.0595 0.13229,0.13229 0,0.0728 -0.0595,0.13229 -0.13229,0.13229 -0.0728,0 -0.13229,-0.0595 -0.13229,-0.13229 z m -13.49375,-0.26458 c 0,-0.0728 0.0595,-0.13229 0.13229,-0.13229 0.0728,0 0.13229,0.0595 0.13229,0.13229 0,0.0728 -0.0595,0.13229 -0.13229,0.13229 -0.0728,0 -0.13229,-0.0595 -0.13229,-0.13229 z m 8.73125,0 c 0,-0.0728 0.0595,-0.13229 0.13229,-0.13229 0.0728,0 0.13229,0.0595 0.13229,0.13229 0,0.0728 -0.0595,0.13229 -0.13229,0.13229 -0.0728,0 -0.13229,-0.0595 -0.13229,-0.13229 z m 6.61458,-0.13229 c 0,-0.19403 0.0794,-0.27341 0.17639,-0.17639 0.097,0.097 0.097,0.25576 0,0.35278 -0.097,0.097 -0.17639,0.0176 -0.17639,-0.17639 z m -10.01452,-0.85032 -0.0397,-0.982606 -2.57968,-0.0865 -2.57969,-0.0865 2.58799,-0.05537 c 2.0255,-0.04334 2.61923,0.02603 2.73171,0.319151 0.079,0.205989 0.0932,0.712005 0.0313,1.124475 -0.0954,0.63687 -0.11836,0.60179 -0.15202,-0.23265 z m -7.1834,0.45344 c 0,-0.0728 0.0595,-0.13229 0.13229,-0.13229 0.0728,0 0.1323,0.0595 0.1323,0.13229 0,0.0728 -0.0595,0.13229 -0.1323,0.13229 -0.0728,0 -0.13229,-0.0595 -0.13229,-0.13229 z m 8.73125,0 c 0,-0.0728 0.0595,-0.13229 0.13229,-0.13229 0.0728,0 0.1323,0.0595 0.1323,0.13229 0,0.0728 -0.0595,0.13229 -0.1323,0.13229 -0.0728,0 -0.13229,-0.0595 -0.13229,-0.13229 z m 8.20209,-0.26458 c 0,-0.0728 0.0595,-0.13229 0.13229,-0.13229 0.0728,0 0.13229,0.0595 0.13229,0.13229 0,0.0728 -0.0595,0.13229 -0.13229,0.13229 -0.0728,0 -0.13229,-0.0595 -0.13229,-0.13229 z m -16.66875,-0.23219 c 0,-0.0549 0.20836,-0.2633 0.46302,-0.46302 0.41964,-0.329108 0.429,-0.31975 0.0999,0.0999 -0.19972,0.25466 -0.40808,0.46302 -0.46302,0.46302 -0.0549,0 -0.0999,-0.045 -0.0999,-0.0999 z m 8.99583,-0.29698 c 0,-0.0728 0.0595,-0.13229 0.13229,-0.13229 0.0728,0 0.13229,0.0595 0.13229,0.13229 0,0.0728 -0.0595,0.13229 -0.13229,0.13229 -0.0728,0 -0.13229,-0.0595 -0.13229,-0.13229 z m -7.9375,-0.529165 c 0,-0.07276 0.0595,-0.132292 0.13229,-0.132292 0.0728,0 0.13229,0.05953 0.13229,0.132292 0,0.07276 -0.0595,0.132291 -0.13229,0.132291 -0.0728,0 -0.13229,-0.05953 -0.13229,-0.132291 z m 8.73125,0 c 0,-0.07276 0.0595,-0.132292 0.13229,-0.132292 0.0728,0 0.13229,0.05953 0.13229,0.132292 0,0.07276 -0.0595,0.132291 -0.13229,0.132291 -0.0728,0 -0.13229,-0.05953 -0.13229,-0.132291 z m 5.82083,0 c 0,-0.07276 0.0595,-0.132292 0.13229,-0.132292 0.0728,0 0.1323,0.05953 0.1323,0.132292 0,0.07276 -0.0595,0.132291 -0.1323,0.132291 -0.0728,0 -0.13229,-0.05953 -0.13229,-0.132291 z M 94.448562,99.339734 c 0.329119,-0.06329 0.805369,-0.06088 1.058334,0.0053 0.252965,0.06622 -0.01631,0.118005 -0.598398,0.115068 -0.582083,-0.0029 -0.789054,-0.05712 -0.459936,-0.120407 z m 3.175,0 c 0.329119,-0.06329 0.805369,-0.06088 1.058334,0.0053 0.252965,0.06622 -0.01631,0.118005 -0.598398,0.115068 -0.582083,-0.0029 -0.789054,-0.05712 -0.459936,-0.120407 z m 13.229168,0 c 0.32912,-0.06329 0.80537,-0.06088 1.05833,0.0053 0.25297,0.06622 -0.0163,0.118005 -0.5984,0.115068 -0.58208,-0.0029 -0.78905,-0.05712 -0.45993,-0.120407 z m 20.36983,-0.0066 c 0.61846,-0.0557 1.6305,-0.0557 2.24896,0 0.61846,0.05571 0.11245,0.101282 -1.12448,0.101282 -1.23693,0 -1.74294,-0.04558 -1.12448,-0.101282 z m -19.42483,-1.570159 c 0.097,-0.09701 0.25577,-0.09701 0.35278,0 0.097,0.097 0.0176,0.176376 -0.17639,0.176376 -0.19402,0 -0.2734,-0.07937 -0.17639,-0.176389 z M 96.892873,97.542488 c 0,-0.07276 0.05953,-0.132292 0.132292,-0.132292 0.07276,0 0.132292,0.05953 0.132292,0.132292 0,0.07276 -0.05953,0.132292 -0.132292,0.132292 -0.07276,0 -0.132292,-0.05953 -0.132292,-0.132292 z m 6.879167,-0.147907 c 0,-0.154109 0.11906,-0.206613 0.26458,-0.116676 0.14552,0.08994 0.26459,0.216026 0.26459,0.280198 0,0.06417 -0.11907,0.116677 -0.26459,0.116677 -0.14552,0 -0.26458,-0.12609 -0.26458,-0.280199 z m 8.82045,-0.05053 c -0.11364,-0.181902 -0.22927,-0.480125 -0.25697,-0.662719 -0.0277,-0.182594 0.0602,-0.263664 0.19531,-0.180155 0.13512,0.08351 0.1817,0.255352 0.1035,0.381874 -0.0782,0.126521 0.0687,0.352799 0.32642,0.502838 0.25772,0.15004 0.32678,0.27642 0.15347,0.280845 -0.17331,0.0044 -0.40809,-0.140782 -0.52173,-0.322683 z m -20.991283,-0.06615 c 0,-0.07276 0.05953,-0.132292 0.132291,-0.132292 0.07276,0 0.132292,0.05953 0.132292,0.132292 0,0.07276 -0.05953,0.132291 -0.132292,0.132291 -0.07276,0 -0.132291,-0.05953 -0.132291,-0.132291 z m 4.630208,-0.132292 c -0.08994,-0.145521 -0.03743,-0.264583 0.116677,-0.264583 0.154109,0 0.280198,0.119062 0.280198,0.264583 0,0.145521 -0.0525,0.264583 -0.116677,0.264583 -0.06417,0 -0.190261,-0.119062 -0.280198,-0.264583 z m 0.661458,-0.132292 c 0,-0.07276 0.05953,-0.132291 0.132292,-0.132291 0.07276,0 0.132292,0.05953 0.132292,0.132291 0,0.07276 -0.05953,0.132292 -0.132292,0.132292 -0.07276,0 -0.132292,-0.05953 -0.132292,-0.132292 z m 7.151417,-0.121957 c -0.21407,-0.13538 -0.33313,-0.292176 -0.26459,-0.348436 0.0685,-0.05626 0.42229,0.05457 0.78609,0.246296 0.36458,0.192134 0.48333,0.34852 0.26458,0.348437 -0.21828,-8.3e-5 -0.57202,-0.110917 -0.78608,-0.246297 z M 92.218568,96.704641 c 0.09701,-0.09701 0.255764,-0.09701 0.352778,0 0.09701,0.09701 0.01764,0.176389 -0.176389,0.176389 -0.194028,0 -0.273403,-0.07937 -0.176389,-0.176389 z m -4.586111,-0.220486 c 0,-0.07276 0.05953,-0.132292 0.132291,-0.132292 0.07276,0 0.132292,0.05953 0.132292,0.132292 0,0.07276 -0.05953,0.132291 -0.132292,0.132291 -0.07276,0 -0.132291,-0.05953 -0.132291,-0.132291 z m 9.260416,0 c 0,-0.07276 0.05953,-0.132292 0.132292,-0.132292 0.07276,0 0.132292,0.05953 0.132292,0.132292 0,0.07276 -0.05953,0.132291 -0.132292,0.132291 -0.07276,0 -0.132292,-0.05953 -0.132292,-0.132291 z m 12.170837,0 c 0,-0.07276 0.0595,-0.132292 0.13229,-0.132292 0.0728,0 0.13229,0.05953 0.13229,0.132292 0,0.07276 -0.0595,0.132291 -0.13229,0.132291 -0.0728,0 -0.13229,-0.05953 -0.13229,-0.132291 z"
       id="path272" />
    <path
       style="fill:#696f91;stroke-width:0.264583"
       d="m 93.79986,106.00915 c 0.0015,-0.87312 0.05088,-1.19841 0.109765,-0.72286 0.05889,0.47555 0.05767,1.18992 -0.0027,1.5875 -0.06037,0.39758 -0.10855,0.008 -0.107065,-0.86464 z m 17.38051,1.05834 c 0,-0.0728 0.0595,-0.13229 0.13229,-0.13229 0.0728,0 0.1323,0.0595 0.1323,0.13229 0,0.0728 -0.0595,0.13229 -0.1323,0.13229 -0.0728,0 -0.13229,-0.0595 -0.13229,-0.13229 z m 8.43292,-0.33073 c -0.32911,-0.41965 -0.31975,-0.429 0.0999,-0.0999 0.25466,0.19972 0.46302,0.40808 0.46302,0.46302 0,0.055 -0.045,0.0999 -0.0999,0.0999 -0.0549,0 -0.2633,-0.20836 -0.46302,-0.46302 z m 14.9483,-2.18281 c 0,-1.52797 0.0437,-2.15305 0.0972,-1.38907 0.0534,0.76399 0.0534,2.01414 0,2.77813 -0.0534,0.76398 -0.0972,0.13891 -0.0972,-1.38906 z m -37.032524,2.07578 c -0.116967,-0.18925 -0.07258,-0.23364 0.116677,-0.11667 0.168005,0.10383 0.305464,0.24129 0.305464,0.30546 0,0.0642 -0.0525,0.11668 -0.116677,0.11668 -0.06417,0 -0.201631,-0.13746 -0.305464,-0.30547 z m 13.122144,-0.0914 c 0,-0.0728 0.0595,-0.13229 0.13229,-0.13229 0.0728,0 0.13229,0.0595 0.13229,0.13229 0,0.0728 -0.0595,0.13229 -0.13229,0.13229 -0.0728,0 -0.13229,-0.0595 -0.13229,-0.13229 z m -5.02709,-0.79375 c 0,-0.0728 0.0595,-0.13229 0.1323,-0.13229 0.0728,0 0.13229,0.0595 0.13229,0.13229 0,0.0728 -0.0595,0.13229 -0.13229,0.13229 -0.0728,0 -0.1323,-0.0595 -0.1323,-0.13229 z M 103.50746,105.48 c 0,-0.0728 0.0595,-0.13229 0.13229,-0.13229 0.0728,0 0.13229,0.0595 0.13229,0.13229 0,0.0728 -0.0595,0.13229 -0.13229,0.13229 -0.0728,0 -0.13229,-0.0595 -0.13229,-0.13229 z m 6.71559,-3.175 c 5.3e-4,-1.74625 0.0433,-2.426197 0.0952,-1.51099 0.0518,0.91521 0.0514,2.34396 -0.001,3.175 -0.0523,0.83104 -0.0947,0.0822 -0.0942,-1.66401 z m 8.71706,1.05833 c 10e-4,-1.01864 0.049,-1.40294 0.10627,-0.85399 0.0573,0.54895 0.0563,1.38238 -0.002,1.85208 -0.0584,0.4697 -0.10532,0.0206 -0.10414,-0.99809 z m 7.05693,1.05833 c 0,-0.0728 0.0595,-0.13229 0.13229,-0.13229 0.0728,0 0.13229,0.0595 0.13229,0.13229 0,0.0728 -0.0595,0.1323 -0.13229,0.1323 -0.0728,0 -0.13229,-0.0595 -0.13229,-0.1323 z m -32.19718,-3.43958 c 0.0015,-0.87312 0.05088,-1.198413 0.109765,-0.72286 0.05889,0.47554 0.05767,1.18992 -0.0027,1.5875 -0.06037,0.39757 -0.10855,0.008 -0.107065,-0.86464 z m 13.25024,-0.24534 c -0.0797,-0.2077 -0.0922,-0.65418 -0.0277,-0.992186 0.0909,-0.476766 0.12526,-0.425339 0.15321,0.229367 0.033,0.772379 0.12015,0.852719 1.02822,0.947709 l 0.99219,0.10379 -1.00049,0.0445 c -0.65495,0.0291 -1.05054,-0.0859 -1.14541,-0.33316 z m 21.06361,-0.28383 c 0,-0.0728 0.0595,-0.13229 0.13229,-0.13229 0.0728,0 0.13229,0.0595 0.13229,0.13229 0,0.0728 -0.0595,0.1323 -0.13229,0.1323 -0.0728,0 -0.13229,-0.0595 -0.13229,-0.1323 z m 7.67291,-0.26458 c 0,-0.0728 0.0595,-0.13229 0.13229,-0.13229 0.0728,0 0.1323,0.0595 0.1323,0.13229 0,0.0728 -0.0595,0.13229 -0.1323,0.13229 -0.0728,0 -0.13229,-0.0595 -0.13229,-0.13229 z m -7.14375,-0.264582 c 0,-0.07276 0.0595,-0.132292 0.1323,-0.132292 0.0728,0 0.13229,0.05953 0.13229,0.132292 0,0.07276 -0.0595,0.132292 -0.13229,0.132292 -0.0728,0 -0.1323,-0.05953 -0.1323,-0.132292 z M 87.632457,99.394571 c 0,-0.07276 0.05953,-0.132291 0.132291,-0.132291 0.07276,0 0.132292,0.05953 0.132292,0.132291 0,0.07276 -0.05953,0.132292 -0.132292,0.132292 -0.07276,0 -0.132291,-0.05953 -0.132291,-0.132292 z m 1.852083,0 c 0,-0.07276 0.05953,-0.132291 0.132292,-0.132291 0.07276,0 0.132291,0.05953 0.132291,0.132291 0,0.07276 -0.05953,0.132292 -0.132291,0.132292 -0.07276,0 -0.132292,-0.05953 -0.132292,-0.132292 z m 14.2875,0 c 0,-0.07276 0.0595,-0.132291 0.13229,-0.132291 0.0728,0 0.13229,0.05953 0.13229,0.132291 0,0.07276 -0.0595,0.132292 -0.13229,0.132292 -0.0728,0 -0.13229,-0.05953 -0.13229,-0.132292 z m 17.19792,0 c 0,-0.07276 0.0595,-0.132291 0.13229,-0.132291 0.0728,0 0.13229,0.05953 0.13229,0.132291 0,0.07276 -0.0595,0.132292 -0.13229,0.132292 -0.0728,0 -0.13229,-0.05953 -0.13229,-0.132292 z m 5.29166,0 c 0,-0.07276 0.0595,-0.132291 0.13229,-0.132291 0.0728,0 0.1323,0.05953 0.1323,0.132291 0,0.07276 -0.0595,0.132292 -0.1323,0.132292 -0.0728,0 -0.13229,-0.05953 -0.13229,-0.132292 z m 3.52778,-0.0441 c 0.097,-0.09701 0.25576,-0.09701 0.35278,0 0.097,0.09702 0.0176,0.17639 -0.17639,0.17639 -0.19403,0 -0.2734,-0.07937 -0.17639,-0.17639 z m -38.452777,-1.5434 c 0,-0.07276 0.05953,-0.132291 0.132292,-0.132291 0.07276,0 0.132292,0.05953 0.132292,0.132291 0,0.07276 -0.05953,0.132292 -0.132292,0.132292 -0.07276,0 -0.132292,-0.05953 -0.132292,-0.132292 z m 12.435417,0 c 0,-0.07276 0.0595,-0.132291 0.13229,-0.132291 0.0728,0 0.13229,0.05953 0.13229,0.132291 0,0.07276 -0.0595,0.132292 -0.13229,0.132292 -0.0728,0 -0.13229,-0.05953 -0.13229,-0.132292 z M 92.527248,97.410196 c 0.08994,-0.14552 0.223053,-0.264583 0.295813,-0.264583 0.07276,0 0.05871,0.119063 -0.03123,0.264583 -0.08994,0.145521 -0.223053,0.264584 -0.295813,0.264584 -0.07276,0 -0.05871,-0.119063 0.03123,-0.264584 z m 3.571875,-0.132291 c 0,-0.07276 0.05953,-0.132292 0.132292,-0.132292 0.07276,0 0.132292,0.05953 0.132292,0.132292 0,0.07276 -0.05953,0.132291 -0.132292,0.132291 -0.07276,0 -0.132292,-0.05953 -0.132292,-0.132291 z M 100.9034,96.88103 c 0,-0.363802 0.06,-0.512631 0.13345,-0.330729 0.0734,0.181901 0.0734,0.479557 0,0.661458 -0.0734,0.181901 -0.13345,0.03307 -0.13345,-0.330729 z m 3.61278,0.348426 c 0.191,-0.07643 0.4192,-0.06703 0.50712,0.02089 0.0879,0.08792 -0.0684,0.150453 -0.34727,0.138964 -0.30822,-0.01269 -0.37092,-0.07539 -0.15985,-0.159852 z m -0.74414,-0.216135 c 0,-0.07276 0.0595,-0.132291 0.13229,-0.132291 0.0728,0 0.13229,0.05953 0.13229,0.132291 0,0.07276 -0.0595,0.132292 -0.13229,0.132292 -0.0728,0 -0.13229,-0.05953 -0.13229,-0.132292 z m 8.20208,0 c 0,-0.07276 0.0595,-0.132291 0.13229,-0.132291 0.0728,0 0.1323,0.05953 0.1323,0.132291 0,0.07276 -0.0595,0.132292 -0.1323,0.132292 -0.0728,0 -0.13229,-0.05953 -0.13229,-0.132292 z m 0.79375,-0.264583 c 0,-0.07276 0.0595,-0.132292 0.1323,-0.132292 0.0728,0 0.13229,0.05953 0.13229,0.132292 0,0.07276 -0.0595,0.132292 -0.13229,0.132292 -0.0728,0 -0.1323,-0.05953 -0.1323,-0.132292 z M 91.86579,96.484155 c 0,-0.07276 0.05953,-0.132292 0.132292,-0.132292 0.07276,0 0.132291,0.05953 0.132291,0.132292 0,0.07276 -0.05953,0.132291 -0.132291,0.132291 -0.07276,0 -0.132292,-0.05953 -0.132292,-0.132291 z"
       id="path270" />
    <path
       style="fill:#253269;stroke-width:0.264583"
       d="M 82.34079,101.51124 V 71.745613 h 29.76562 29.76563 v 29.765627 29.76562 H 112.10641 82.34079 Z m 7.408333,4.49791 v -1.4552 h 1.984375 1.984375 v 1.4552 1.45521 h 1.058334 1.058333 v -4.11701 -4.117013 l -0.992187,0.08212 -0.992188,0.08212 -0.07935,1.521363 -0.07935,1.52135 h -1.971171 -1.971172 v -1.5875 -1.587504 H 88.69079 87.632457 v 4.101044 4.10104 h 1.058333 1.058333 z m 15.366187,0.68181 c 0.77282,-0.77281 0.7734,-0.77589 0.7734,-4.10104 v -3.32764 h -1.04994 -1.04994 l -0.0745,3.10885 -0.0745,3.10886 h -2.24896 -2.248958 l -0.07454,-3.10886 -0.07454,-3.10885 h -0.917645 -0.917645 v 3.45222 c 0,3.3933 0.01195,3.46328 0.700093,4.10104 0.654361,0.60644 0.889017,0.64882 3.592225,0.64882 2.84379,0 2.90506,-0.0129 3.66553,-0.7734 z m 3.9484,-2.13701 v -2.91042 h -1.05834 -1.05833 v 2.91042 2.91041 h 1.05833 1.05834 z m 8.73125,1.99363 v -0.91679 l -2.71198,-0.0754 -2.71198,-0.0754 -0.0746,-3.10886 -0.0745,-3.10885 h -1.04993 -1.04994 v 2.91891 c 0,1.90961 0.12866,3.22684 0.37208,3.80944 0.20465,0.48979 0.5916,1.01813 0.8599,1.17408 0.2683,0.15596 1.82726,0.28718 3.46437,0.29161 l 2.97657,0.008 z m 8.73125,0 v -0.91679 l -2.70888,-0.0754 c -2.33419,-0.065 -2.72114,-0.13945 -2.79753,-0.53842 -0.0797,-0.4162 0.18089,-0.46302 2.57659,-0.46302 h 2.66523 v -1.05834 -1.05833 h -2.66523 c -2.3957,0 -2.65627,-0.0468 -2.57659,-0.46302 0.0764,-0.39898 0.46334,-0.47345 2.79753,-0.53842 l 2.70888,-0.0754 v -1.04907 -1.04908 h -2.65898 c -1.89615,0 -2.88889,0.118898 -3.46042,0.414448 -0.4456,0.230426 -0.96842,0.814052 -1.17749,1.314422 -0.20682,0.49498 -0.37537,1.52887 -0.37455,2.29753 7.9e-4,0.76866 0.1245,1.84053 0.27486,2.38195 0.15037,0.54141 0.53338,1.16649 0.85115,1.38906 0.43559,0.3051 1.31195,0.40467 3.56159,0.40467 h 2.98384 z m 3.23248,-2.05978 0.0748,-2.97656 2.3151,-0.0764 2.31511,-0.0765 v 3.05301 3.05301 h 1.05833 1.05833 v -3.03026 c 0,-1.7025 -0.13199,-3.31995 -0.30124,-3.69141 -0.16568,-0.36364 -0.68969,-0.84549 -1.16447,-1.070785 -0.55979,-0.265642 -1.62104,-0.409625 -3.01918,-0.409625 -1.4055,0 -2.42496,0.139102 -2.92874,0.399613 -0.42502,0.219787 -0.89535,0.628677 -1.04519,0.908647 -0.14983,0.27997 -0.27243,1.94561 -0.27243,3.70143 v 3.19239 h 0.91738 0.91738 z m -20.69498,-4.29948 c 0,-0.903993 -0.0252,-0.92604 -1.05834,-0.92604 -0.9857,0 -1.05833,0.05145 -1.05833,0.74965 0,0.41231 0.0794,0.82903 0.17639,0.92604 0.097,0.097 0.57326,0.17639 1.05833,0.17639 0.83155,0 0.88195,-0.0529 0.88195,-0.92604 z m -20.2801,-3.633968 c 0.16723,-0.106912 -0.05313,-0.18681 -0.489695,-0.177549 -0.436562,0.0093 -0.644922,0.07689 -0.463021,0.150289 0.181901,0.0734 0.346944,0.450952 0.366761,0.839007 l 0.03603,0.705556 0.122934,-0.661459 c 0.06761,-0.363802 0.25976,-0.748932 0.426991,-0.855844 z m 3.149396,1.054282 c 0.08678,-0.257839 0.208264,-0.250699 0.551216,0.0324 0.312362,0.257846 0.439901,0.27198 0.439901,0.04875 0,-0.172905 -0.123251,-0.544671 -0.273892,-0.826146 -0.150641,-0.281475 -0.362663,-0.511773 -0.47116,-0.511773 -0.108497,0 -0.332091,0.357188 -0.496875,0.79375 -0.164784,0.436563 -0.200809,0.79375 -0.08006,0.79375 0.120753,0 0.269643,-0.148828 0.330865,-0.330729 z m 0.197367,-0.595313 c 0,-0.07276 0.05953,-0.132291 0.132292,-0.132291 0.07276,0 0.132292,0.05953 0.132292,0.132291 0,0.07276 -0.05953,0.132292 -0.132292,0.132292 -0.07276,0 -0.132292,-0.05953 -0.132292,-0.132292 z m 4.569807,0.61133 c 0.311254,0.258317 0.380726,0.174808 0.399345,-0.480034 0.01904,-0.66958 -0.07748,-0.792754 -0.621223,-0.792754 -0.550738,0 -0.643176,0.124256 -0.63971,0.859896 0.0029,0.61883 0.07144,0.753404 0.244417,0.480034 0.187583,-0.296445 0.323112,-0.31119 0.617171,-0.06714 z m -0.386083,-0.924362 c 0.190996,-0.07643 0.4192,-0.06703 0.507118,0.02089 0.08792,0.08792 -0.06835,0.150453 -0.347265,0.138964 -0.308225,-0.01269 -0.37092,-0.07539 -0.159853,-0.159852 z m 4.651513,0.82056 c 0.0883,-0.230184 0.1606,-0.587371 0.1606,-0.79375 0,-0.20638 -0.11907,-0.375236 -0.26459,-0.375236 -0.14552,0 -0.26458,0.304683 -0.26458,0.677073 0,0.384008 -0.11452,0.606295 -0.26458,0.513552 -0.14552,-0.08994 -0.26459,-0.03743 -0.26459,0.116677 0,0.154109 0.16586,0.280198 0.36857,0.280198 0.20271,0 0.44084,-0.188331 0.52917,-0.418514 z m 3.73247,0.153931 c -0.45249,-0.194444 -0.46208,-0.230085 -0.0661,-0.245987 0.25466,-0.01023 0.46302,-0.137659 0.46302,-0.28318 0,-0.145521 -0.20836,-0.272952 -0.46302,-0.28318 -0.39594,-0.0159 -0.38635,-0.05154 0.0661,-0.245987 0.46891,-0.201496 0.44631,-0.229508 -0.19844,-0.245987 -0.63619,-0.01626 -0.7276,0.08113 -0.7276,0.775154 0,0.694028 0.0914,0.791414 0.7276,0.775154 0.64475,-0.01648 0.66735,-0.04449 0.19844,-0.245987 z m 4.45845,-1.120428 c 0.16723,-0.106912 -0.0531,-0.18681 -0.4897,-0.177549 -0.43656,0.0093 -0.64492,0.07689 -0.46302,0.150289 0.1819,0.0734 0.34694,0.450952 0.36676,0.839007 l 0.036,0.705556 0.12294,-0.661459 c 0.0676,-0.363802 0.25976,-0.748932 0.42699,-0.855844 z m 3.14939,1.054282 c 0.0868,-0.257839 0.20827,-0.250699 0.55122,0.0324 0.24194,0.199719 0.4399,0.296767 0.4399,0.215661 0,-0.0811 -0.11612,-0.452871 -0.25803,-0.826146 -0.14192,-0.373276 -0.3684,-0.678683 -0.50329,-0.678683 -0.13488,0 -0.36976,0.357188 -0.52195,0.79375 -0.15219,0.436563 -0.17376,0.79375 -0.0479,0.79375 0.12582,0 0.27886,-0.148828 0.34008,-0.330729 z m 0.19737,-0.595313 c 0,-0.07276 0.0595,-0.132291 0.13229,-0.132291 0.0728,0 0.13229,0.05953 0.13229,0.132291 0,0.07276 -0.0595,0.132292 -0.13229,0.132292 -0.0728,0 -0.13229,-0.05953 -0.13229,-0.132292 z"
       id="path268" />
  </g>
</svg>
