<svg width="40" height="24" viewBox="0 0 40 24" fill="none" xmlns="http://www.w3.org/2000/svg">
<g clip-path="url(#clip0)">
<path d="M8.20267 6.68921V9.42749L6.6686 7.05791L7.47727 9.69566L5.30113 7.75842L6.8595 10.1046L4.19393 8.74716L6.37007 10.681L3.4061 9.96042L6.0716 11.3212L3 11.3011L5.96404 12.0217L3 12.6985H6.0716L3.4061 14.0598L6.37007 13.3393L4.19393 15.2729L6.8595 13.9154L5.30113 16.2616L7.47727 14.3281L6.6686 16.9625L8.20267 14.5928V17.311L8.96967 14.7604C8.54393 12.9512 8.54393 11.0728 8.96967 9.26366L8.20267 6.68921Z" fill="#F1B800"/>
<path d="M9.99342 6.8736L9.84419 7.22553C9.5624 7.88495 9.34059 8.5668 9.18128 9.26337C8.78332 11.0755 8.78332 12.948 9.18128 14.7601C9.34109 15.4565 9.56288 16.1384 9.84419 16.7979L9.99342 17.1467C10.2889 17.7909 10.6383 18.4107 11.0381 19.0001C10.6087 18.1251 10.2592 17.2155 9.99342 16.2818C9.19748 13.4859 9.19748 10.5343 9.99342 7.73834C10.2613 6.79883 10.6108 5.8828 11.0381 5C10.6451 5.60024 10.296 6.2263 9.99342 6.8736Z" fill="#003772"/>
<path d="M13.6378 9.19971H12.8916V14.8004H13.6378V11.2811C13.6378 10.7044 13.7801 10.2656 14.0647 9.96051C14.185 9.83845 14.3307 9.74246 14.4922 9.67887C14.6538 9.61529 14.8275 9.58557 15.0018 9.59167C15.7827 9.59167 16.1738 10.024 16.1749 10.8888V14.8002H16.9212V10.8487C16.9212 10.3391 16.8274 9.94716 16.6434 9.67228C16.3727 9.27349 15.8891 9.07455 15.1927 9.07544C14.5955 9.07544 14.0841 9.33698 13.6585 9.86005H13.6377V9.19977L13.6378 9.19971Z" fill="#003772"/>
<path d="M18.6253 11.6296C18.5385 11.6564 18.4553 11.6832 18.3719 11.7134C17.7021 11.9849 17.3689 12.5011 17.3689 13.2552C17.3689 13.7479 17.5112 14.1468 17.7958 14.4484C17.9596 14.6042 18.1561 14.7242 18.3721 14.8003C18.6053 14.8731 18.8493 14.9082 19.0944 14.9042C19.8892 14.9042 20.4861 14.636 20.8853 14.0995H20.9095V14.8001H21.6974L21.6106 10.5602C21.6106 9.94008 21.3619 9.51443 20.8645 9.28321C20.5797 9.14573 20.1738 9.07532 19.6497 9.07532C19.1395 9.07532 18.7126 9.16578 18.3724 9.34356C18.3199 9.36654 18.2699 9.3946 18.2232 9.42732C17.7963 9.67202 17.5672 10.0577 17.5394 10.5804H18.3482C18.3469 10.5037 18.3551 10.4272 18.3724 10.3523C18.3903 10.2491 18.4297 10.1504 18.4882 10.0623C18.5467 9.97415 18.623 9.89837 18.7127 9.83954C18.9244 9.67531 19.2159 9.59142 19.5877 9.59142C20.0702 9.59142 20.4034 9.71541 20.5873 9.96025C20.7712 10.1681 20.8651 10.49 20.8651 10.9289V11.4015L18.6264 11.6295L18.6253 11.6296ZM20.864 12.9466C20.8651 13.1345 20.8238 13.3202 20.7428 13.491C20.6619 13.6618 20.5433 13.8134 20.3954 13.9354C20.2497 14.0747 20.0768 14.1846 19.8868 14.2589C19.6967 14.3331 19.4932 14.3701 19.2882 14.3677C18.9169 14.3677 18.6323 14.2571 18.4341 14.0391C18.4096 14.014 18.3886 13.9858 18.3716 13.9554C18.2293 13.7642 18.1563 13.5163 18.1563 13.2146C18.1466 12.9709 18.2225 12.7312 18.3716 12.5343C18.5278 12.3163 18.7744 12.1655 19.1178 12.0817L20.8636 11.9377V12.9466H20.864Z" fill="#003772"/>
<path d="M23.7203 7.98633H22.9741V9.19965H21.9502V9.71602H22.9741V13.728C22.9741 14.0866 23.0677 14.3547 23.2518 14.5327C23.4497 14.7103 23.8004 14.8009 24.2965 14.8009L25.0011 14.7808V14.2041L24.4039 14.2443C24.1192 14.2443 23.9353 14.184 23.8484 14.06C23.7614 13.936 23.72 13.6879 23.72 13.3193V9.71581H25.0007V9.19945H23.7203V7.98633Z" fill="#003772"/>
<path d="M26.4484 9.17957H25.6189V14.8003H26.4484V9.17957Z" fill="#003772"/>
<path d="M25.6189 7.98633V8.80748H26.4484V7.98633H25.6189Z" fill="#003772"/>
<path d="M27.7915 9.19958H26.9619L28.8604 14.8003H29.7108L31.5885 9.19958H30.8839L29.329 13.9355H29.3047L27.7914 9.19958H27.7915Z" fill="#003772"/>
<path d="M34.9137 9.96036C35.0838 10.1682 35.1707 10.4901 35.1707 10.929V11.4016L32.932 11.6296C32.0921 11.8609 31.6722 12.4028 31.6721 13.2552C31.6721 13.7479 31.8214 14.1468 32.1198 14.4484C32.4184 14.7534 32.8522 14.9045 33.4213 14.9045C34.2161 14.9045 34.8061 14.6362 35.1914 14.0997H35.2331V14.8003H36.0001C35.9584 14.3612 35.9376 13.8853 35.9376 13.3792V10.5603C35.9376 9.57161 35.2758 9.07668 33.9523 9.07556C33.3588 9.07556 32.8764 9.19285 32.505 9.42743C32.092 9.67213 31.8731 10.0578 31.8421 10.5805H32.6543C32.6543 10.2486 32.7757 10.0037 33.0154 9.83971C33.227 9.67548 33.5256 9.59159 33.9112 9.59159C34.3797 9.59159 34.7164 9.71559 34.9142 9.96042L34.9137 9.96036ZM33.6121 14.3678C33.2441 14.3678 32.9524 14.2573 32.7372 14.0392C32.5533 13.8314 32.463 13.5564 32.463 13.2147C32.463 12.6246 32.7823 12.247 33.4209 12.0818L35.1702 11.9378V12.9466C35.1722 13.1326 35.1333 13.3168 35.0561 13.4873C34.9789 13.6577 34.8652 13.8104 34.7225 13.9353C34.5759 14.0744 34.4024 14.1842 34.2118 14.2584C34.0212 14.3326 33.8173 14.3697 33.6118 14.3676L33.6121 14.3678Z" fill="#003772"/>
<path d="M26.9619 16.4259H27.2397L27.3681 15.7053L28.1143 16.5502L28.3261 15.2732H28.0899L27.9407 15.9938L27.1945 15.1489L26.9619 16.4259Z" fill="#F1B800"/>
<path d="M30.7557 15.6014C30.7945 15.563 30.841 15.5325 30.8923 15.5118C30.9436 15.491 30.9987 15.4804 31.0543 15.4807C31.1074 15.4764 31.1607 15.4852 31.2093 15.5063C31.2579 15.5275 31.3001 15.5602 31.332 15.6014L31.4188 15.6851L31.4605 15.3968V15.3767L31.0752 15.2728C30.8972 15.2702 30.7239 15.3284 30.5859 15.437C30.5139 15.4828 30.4534 15.5436 30.409 15.615C30.3645 15.6863 30.3372 15.7664 30.3289 15.8492L30.3081 15.9331C30.3082 15.9948 30.3215 16.0559 30.3472 16.1124C30.3729 16.169 30.4104 16.2198 30.4574 16.2617C30.5116 16.3178 30.5779 16.3617 30.6517 16.3901C30.7256 16.4185 30.805 16.4307 30.8843 16.4259L31.2904 16.3219L31.3112 16.3018L31.3737 15.9933L31.2453 16.0972L30.905 16.2212L30.6481 16.1173C30.6134 16.082 30.5878 16.0393 30.5734 15.9927C30.5589 15.9461 30.5559 15.8969 30.5648 15.849L30.7556 15.6009L30.7557 15.6014Z" fill="#F1B800"/>
<path d="M29.0514 16.1175H29.4542L29.541 16.426H29.8188L29.4127 15.149L28.5828 16.4259H28.8605L29.0514 16.1175V16.1175ZM29.3292 15.6852L29.3917 15.9098H29.2008L29.3292 15.6852Z" fill="#F1B800"/>
<path d="M34.039 15.4371C33.9523 15.3265 33.8099 15.2729 33.6121 15.2729C33.434 15.2704 33.2607 15.3285 33.1227 15.4371C32.9801 15.5273 32.8803 15.6682 32.8449 15.8292C32.8297 15.906 32.8334 15.9851 32.8557 16.0603C32.878 16.1354 32.9183 16.2044 32.9733 16.2616C33.0324 16.317 33.1026 16.3602 33.1796 16.3884C33.2566 16.4167 33.3388 16.4294 33.421 16.4259L33.9105 16.2817L34.1882 15.8695C34.203 15.7911 34.1971 15.7104 34.171 15.6348C34.1449 15.5593 34.0995 15.4913 34.039 15.4371ZM33.8482 15.5813C33.8882 15.6082 33.918 15.647 33.933 15.6918C33.948 15.7366 33.9475 15.7849 33.9315 15.8294L33.7614 16.0976C33.72 16.1385 33.6702 16.1706 33.6152 16.192C33.5602 16.2133 33.5012 16.2234 33.442 16.2217C33.3937 16.2251 33.3453 16.2175 33.3006 16.1995C33.256 16.1814 33.2164 16.1534 33.1851 16.1177C33.1504 16.0824 33.1248 16.0398 33.1103 15.9932C33.0959 15.9466 33.0929 15.8974 33.1017 15.8495L33.2718 15.6014C33.3597 15.5252 33.4732 15.4823 33.5912 15.4807C33.6392 15.4774 33.6872 15.4848 33.7318 15.5022C33.7763 15.5197 33.8161 15.5467 33.8482 15.5813Z" fill="#F1B800"/>
<path d="M32.1647 15.2729L31.9495 16.4259H32.2064L32.3972 15.2729H32.1647Z" fill="#F1B800"/>
<path d="M35.9791 15.2729H35.7221L35.5937 15.9936L34.8267 15.1489L34.615 16.4259H34.8719L34.9969 15.7053L35.7432 16.5502L35.9793 15.2732L35.9791 15.2729Z" fill="#F1B800"/>
</g>
<defs>
<clipPath id="clip0">
<rect width="33" height="14" fill="white" transform="translate(3 5)"/>
</clipPath>
</defs>
</svg>
