<svg width="45" height="45" viewBox="0 0 45 45" fill="none" xmlns="http://www.w3.org/2000/svg">
<path d="M22.5 0C10.0781 0 0 10.0781 0 22.5C0 34.9219 10.0781 45 22.5 45C34.9219 45 45 34.9219 45 22.5C44.8828 10.0781 34.8047 0 22.5 0ZM22.5 42.8906C11.25 42.8906 2.10938 33.75 2.10938 22.5C2.10938 11.25 11.1328 1.99219 22.5 1.99219C33.8672 1.99219 42.8906 11.1328 42.8906 22.3828C42.8906 33.75 33.75 42.8906 22.5 42.8906Z" fill="#0033A0"/>
<path d="M22.5005 5.15625C12.8911 5.15625 5.15674 12.8906 5.15674 22.5C5.15674 32.1094 12.8911 39.8438 22.5005 39.8438C32.1099 39.8438 39.8442 31.9922 39.8442 22.5C39.7271 12.8906 31.9927 5.15625 22.5005 5.15625ZM35.6255 14.6484C36.7974 16.6406 37.5005 18.8672 37.7349 21.0938L31.2896 20.625C30.7036 20.625 30.3521 20.0391 30.3521 19.5703C30.3521 19.3359 30.4692 19.1016 30.7036 18.8672L35.6255 14.6484ZM25.8989 7.5L23.438 13.4766C23.2036 13.9453 22.6177 14.2969 22.1489 14.0625C21.9146 13.9453 21.6802 13.7109 21.563 13.4766L19.1021 7.5C21.3286 7.03125 23.6724 7.03125 25.8989 7.5ZM9.37549 14.6484L14.1802 18.8672C14.6489 19.2188 14.6489 19.9219 14.2974 20.2734C14.1802 20.5078 13.8286 20.625 13.5942 20.625L7.26611 21.0938C7.3833 18.75 8.08643 16.5234 9.37549 14.6484ZM17.9302 30.2344L16.4067 36.5625C14.2974 35.625 12.4224 34.3359 10.8989 32.5781L16.4067 29.2969C16.8755 28.9453 17.4614 29.1797 17.813 29.6484C17.9302 29.7656 17.9302 30 17.9302 30.2344ZM28.4771 36.5625L26.9536 30.2344C26.8364 29.6484 27.188 29.1797 27.6567 29.0625C27.8911 28.9453 28.2427 29.0625 28.4771 29.1797L33.9849 32.4609C32.4614 34.2188 30.5864 35.625 28.4771 36.5625ZM29.5317 27.4219C28.1255 26.4844 26.2505 26.9531 25.313 28.4766C24.8442 29.1797 24.7271 30 24.9614 30.8203L26.4849 37.2656C23.7896 37.9688 20.977 37.9688 18.3989 37.2656L19.9224 30.8203C20.2739 29.1797 19.3364 27.5391 17.6958 27.1875C16.8755 26.9531 16.0552 27.1875 15.3521 27.5391L9.72705 30.9375C8.20361 28.5938 7.3833 25.8984 7.26611 23.2031L13.8286 22.6172C15.4692 22.5 16.7583 20.9766 16.6411 19.3359C16.5239 18.5156 16.1724 17.8125 15.5864 17.2266L10.5474 12.8906C12.3052 10.7812 14.5317 9.02344 17.1099 8.08594L19.688 14.1797C20.3911 15.7031 22.1489 16.5234 23.6724 15.8203C24.3755 15.4688 24.9614 14.8828 25.313 14.1797L27.8911 8.08594C30.4692 9.02344 32.6958 10.6641 34.4536 12.8906L29.4146 17.2266C28.1255 18.2812 28.0083 20.2734 29.063 21.5625C29.5317 22.1484 30.3521 22.5 31.1724 22.6172L37.7349 23.2031C37.6177 26.0156 36.7974 28.5938 35.2739 30.9375L29.5317 27.4219Z" fill="#0033A0"/>
<path d="M22.5005 18.3984C20.2739 18.3984 18.3989 20.2734 18.3989 22.5C18.3989 24.7266 20.2739 26.6016 22.5005 26.6016C24.7271 26.6016 26.6021 24.7266 26.6021 22.5C26.6021 20.2734 24.7271 18.3984 22.5005 18.3984ZM22.5005 24.4922C21.3286 24.4922 20.5083 23.5547 20.5083 22.5C20.5083 21.4453 21.4458 20.5078 22.5005 20.5078C23.5552 20.5078 24.4927 21.4453 24.4927 22.5C24.4927 23.5547 23.5552 24.4922 22.5005 24.4922Z" fill="#0033A0"/>
</svg>
