<svg width="126" height="113" viewBox="0 0 126 113" fill="none" xmlns="http://www.w3.org/2000/svg">
<path d="M44.1785 44.1303C44.1785 49.8592 39.5343 54.5034 33.8054 54.5034C28.077 54.5034 23.4316 49.8592 23.4316 44.1303C23.4316 38.4007 28.077 33.7565 33.8054 33.7565C39.5343 33.7565 44.1785 38.4007 44.1785 44.1303Z" stroke="#0033A0" stroke-width="2.5" stroke-miterlimit="10"/>
<path d="M6.77794 26.2639L12.8694 20.1304C14.4095 18.5786 16.8353 18.4887 18.3835 20.0259L21.5338 23.1598L27.4198 20.6827V12.4252H36.0643C38.2512 12.4252 40.0231 14.0821 40.0231 16.2644L39.946 20.6161C42.1511 21.1906 44.2353 22.0669 46.1496 23.1989L52.035 17.4904L58.0681 23.6805C59.5948 25.2469 59.645 27.6726 58.0827 29.1958L54.9605 32.1721C55.9459 33.9112 56.7224 35.7835 57.2572 37.7556L65.4148 37.727L65.4451 46.3715C65.4521 48.5585 63.8023 50.3368 61.62 50.3444L57.2899 50.3811C56.737 52.4613 55.9162 54.4322 54.8647 56.2537L60.6666 62.0153L54.5752 68.1489C53.0345 69.7006 50.6093 69.7911 49.0611 68.2534L45.9307 65.1878C44.0998 66.2445 42.1178 67.07 40.0254 67.6223L40.0242 75.854H31.3803C29.1934 75.854 27.4209 74.1971 27.4209 72.0149L27.4408 67.5972C25.3186 67.0169 23.2513 66.1242 21.4042 65.0255L15.4096 70.7894L9.37648 64.5987C7.84982 63.0323 7.79961 60.6072 9.36189 59.0834L12.64 56.0651C11.6528 54.319 10.8763 52.4385 10.3421 50.4582L2.0298 50.5528L2.00003 41.9083C1.99244 39.7213 3.64345 37.943 5.82457 37.9355L10.3164 37.9028C10.8454 35.9015 11.623 34.0017 12.6149 32.238L6.77794 26.2639Z" stroke="#0033A0" stroke-width="2.5" stroke-miterlimit="10"/>
<path d="M102.179 79.4525C102.179 85.1815 97.5343 89.8257 91.8054 89.8257C86.077 89.8257 81.4316 85.1815 81.4316 79.4525C81.4316 73.723 86.077 69.0788 91.8054 69.0788C97.5343 69.0788 102.179 73.723 102.179 79.4525Z" stroke="#0033A0" stroke-width="2.5" stroke-miterlimit="10"/>
<path d="M64.7779 61.5862L70.8694 55.4526C72.4095 53.9009 74.8353 53.811 76.3835 55.3481L79.5338 58.482L85.4198 56.0049V47.7475H94.0643C96.2512 47.7475 98.0231 49.4044 98.0231 51.5866L97.946 55.9384C100.151 56.5128 102.235 57.3891 104.15 58.5212L110.035 52.8127L116.068 59.0028C117.595 60.5692 117.645 62.9949 116.083 64.5181L112.96 67.4943C113.946 69.2335 114.722 71.1058 115.257 73.0779L123.415 73.0493L123.445 81.6938C123.452 83.8808 121.802 85.659 119.62 85.6666L115.29 85.7034C114.737 87.7835 113.916 89.7545 112.865 91.576L118.667 97.3376L112.575 103.471C111.034 105.023 108.609 105.113 107.061 103.576L103.931 100.51C102.1 101.567 100.118 102.392 98.0254 102.945L98.0242 111.176H89.3803C87.1934 111.176 85.4209 109.519 85.4209 107.337L85.4408 102.919C83.3186 102.339 81.2513 101.446 79.4042 100.348L73.4096 106.112L67.3765 99.921C65.8498 98.3546 65.7996 95.9295 67.3619 94.4057L70.64 91.3874C69.6528 89.6412 68.8763 87.7608 68.3421 85.7805L60.0298 85.8751L60 77.2306C59.9924 75.0436 61.6435 73.2653 63.8246 73.2577L68.3164 73.225C68.8454 71.2237 69.623 69.324 70.6149 67.5603L64.7779 61.5862Z" stroke="#0033A0" stroke-width="2.5" stroke-miterlimit="10"/>
<path d="M82.7535 1.00015L77 19.0434L89.8129 17.7363L83.4056 35.2559" stroke="#0033A0" stroke-width="2.5" stroke-miterlimit="22.926"/>
</svg>
