<svg width="32" height="14" viewBox="0 0 32 14" fill="none" xmlns="http://www.w3.org/2000/svg"><path d="M31.6144 8.1655C31.6086 8.13905 31.6037 8.1133 31.5926 8.0892 31.4698 7.64829 31.312 7.24922 31.1038 6.95689 29.9544 5.34283 27.1871 4.60371 25.0353 4.26715 24.3478 3.82516 19.1742.540998 16.7615.219365 14.2734-.112407 8.30175-.128809 4.60619.600716 4.40178.64108 4.26871.83959 4.30907 1.04418 4.34925 1.24841 4.54647 1.38277 4.75253 1.3413 5.72393 1.14963 6.87529 1.01278 8.08172.919122 6.65042 2.17299 5.75997 3.6445 5.71578 3.71862 5.6509 3.82719 5.64481 3.96081 5.69919 4.07472 5.75356 4.18882 5.86139 4.26789 5.98635 4.28576 7.35631 4.48153 23.8909 4.97557 24.8629 5.00444 25.8786 5.16072 27.0427 5.40773 28.0774 5.79498 28.0681 6.15087 28.1151 6.98937 28.6911 7.67517 29.2636 8.35676 30.3995 8.54741 30.9469 8.60072 31.1569 9.53406 31.2294 10.6791 31.2428 11.3989 30.6924 11.399 29.6218 11.399 28.2228 11.3992 28.2601 11.2161 28.2799 11.0267 28.2799 10.8327 28.2799 9.27154 27.0099 8.0016 25.4488 8.0016 23.8876 8.0016 22.6177 9.27154 22.6177 10.8327 22.6177 11.0271 22.6374 11.217 22.6749 11.4005 16.9258 11.4025 10.088 11.4066 7.55175 11.4158 7.59134 11.2275 7.61276 11.0326 7.61276 10.8327 7.61276 9.27154 6.34281 8.00159 4.78165 8.00159 3.22048 8.00159 1.95054 9.27154 1.95054 10.8327 1.95054 10.8807 1.95538 10.9275 1.95775 10.975 1.39217 10.8582.96937 10.7257.851638 10.5844.799636 10.3901.579307 9.37448 1.09245 7.83999 1.11157 7.84066 1.13102 7.84289 1.15005 7.84289 2.69315 7.84271 3.80661 5.68638 3.93232 5.43221 3.98595 5.32402 3.98448 5.19665 3.92845 5.08975 3.87241 4.98266 3.76864 4.90894 3.64902 4.89142 3.40414 4.8553 3.08669 4.83912 2.8014 4.83177 3.41573 4.06405 4.20635 3.24623 5.22807 2.39319 5.38806 2.25956 5.40944 2.02161 5.27581 1.86144 5.14236 1.70145 4.90441 1.68007 4.74405 1.8137-1.15059 6.73534.0898686 10.6923.145532 10.8583.150692 10.8736.156777 10.8887.163964 10.9033.359987 11.307 1.15117 11.5834 2.11429 11.7726 2.50307 12.8724 3.55031 13.6638 4.78166 13.6638 5.85867 13.6638 6.79666 13.0592 7.27513 12.1717 9.55573 12.1618 16.9107 12.1574 22.9475 12.1554 23.4232 13.0516 24.3654 13.6638 25.4488 13.6638 26.5327 13.6638 27.4751 13.051 27.9506 12.1542 30.1179 12.1539 31.5634 12.1539 31.6221 12.1539 31.8287 12.1539 31.997 11.9878 31.9996 11.781 32.0009 11.6719 32.0179 9.68264 31.6144 8.1655zM2.97185 5.59239C2.60838 6.16076 2.02225 6.88298 1.40543 7.05014 1.61484 6.59301 1.88965 6.10148 2.24506 5.58173 2.40326 5.58048 2.68521 5.58062 2.97185 5.59239zM4.78166 12.9089C3.63687 12.9089 2.70551 11.9775 2.70551 10.8327 2.70551 9.68792 3.63687 8.75656 4.78166 8.75656 5.92645 8.75656 6.85781 9.68792 6.85781 10.8327 6.85781 11.9775 5.92645 12.9089 4.78166 12.9089zm20.66714.0C24.304 12.9089 23.3726 11.9775 23.3726 10.8327 23.3726 9.68792 24.304 8.75656 25.4488 8.75656 26.5936 8.75656 27.5249 9.68792 27.5249 10.8327 27.5249 11.9775 26.5936 12.9089 25.4488 12.9089zM16.6616.967692C18.3575 1.19385 21.722 3.12194 23.5106 4.20815 20.9725 4.13034 15.4889 3.95815 11.3298 3.79933 11.4088 3.25795 11.6398 1.96312 11.8649.762293 13.8228.745982 15.5997.826205 16.6616.967692zM9.42171.832542C9.98062.804435 10.5417.785036 11.0946.773353 10.944 1.58034 10.6613 3.12008 10.5734 3.77001 8.89384 3.70384 7.49513 3.64119 6.70722 3.59034 7.19301 2.90433 8.1642 1.67952 9.42171.832542zM29.2691 7.18968C28.9773 6.84218 28.8793 6.42733 28.8474 6.12442 29.5366 6.46085 30.1204 6.87724 30.4889 7.39483 30.5695 7.50805 30.6411 7.64827 30.7061 7.80533 30.2032 7.72271 29.5672 7.5444 29.2691 7.18968z" fill="#06369e"/></svg>