<svg width="36" height="19" viewBox="0 0 36 19" fill="none" xmlns="http://www.w3.org/2000/svg"><path d="M32.9609 11.1579C32.9558 11.1478 32.9532 11.1367 32.9472 11.127 32.8833 11.0238 31.3291 8.6236 24.9942 7.94795 24.7063 6.63154 23.2369 1.04148 19.0589 1.01323 14.7131.983931 14.1271 1.01218 14.1042 1.01393 13.9105 1.02439 13.7591 1.18066 13.7591 1.37041V12.8575L10.5353 12.8435C10.5351 12.8435 10.535 12.8436 10.5349 12.8436 10.5345 12.8436 10.5341 12.8435 10.5337 12.8435H4.85026C4.83508 12.8435 4.82214 12.8502 4.80745 12.852 4.75085 12.8484 4.69459 12.8435 4.63709 12.8435 3.18306 12.8435 2 14.0002 2 15.4219 2 16.8433 3.18306 18 4.63709 18 5.967 18 7.06713 17.0317 7.24599 15.7791H7.92493C8.10378 17.0317 9.20391 18 10.5336 18 11.8634 18 12.9635 17.0317 13.1424 15.7791H25.4373C25.6162 17.0317 26.7163 18 28.0462 18 29.3759 18 30.4761 17.0317 30.6549 15.7791H32.6347C32.8364 15.7791 33 15.6194 33 15.4219V11.3119C33 11.2694 32.9896 11.2286 32.9747 11.1892 32.9706 11.1783 32.966 11.1683 32.9609 11.1579zM31.7865 10.9537 26.8127 10.9474C26.8125 10.9474 26.8123 10.9474 26.8121 10.9474 26.7138 10.9474 26.6196 10.9861 26.5508 11.0548L24.7011 12.9049 20.3046 12.8859V8.63302h4.3643C28.9018 9.0457 30.9313 10.2446 31.7865 10.9537zM24.2359 7.91865H20.3046V5.68626H23.5022C23.8867 6.59735 24.1195 7.43751 24.2359 7.91865zM14.4897 1.72027C15.0024 1.71365 16.2276 1.70806 19.0539 1.7276 20.3994 1.73667 21.4318 2.47139 22.2125 3.44654H14.4897V1.72027zm0 2.44064h8.2288C22.8847 4.42583 23.0361 4.69834 23.1733 4.97189H19.9393 16.7426C16.5408 4.97189 16.3772 5.13165 16.3772 5.32908V8.27584C16.3772 8.47326 16.5408 8.63302 16.7426 8.63302H19.5739V12.8827L14.4897 12.8607V4.16091zM19.5739 5.68626V7.91865H17.1079V5.68626H19.5739zM4.63709 17.2856C3.58586 17.2856 2.73067 16.4495 2.73067 15.4219 2.73067 14.394 3.58586 13.5579 4.63709 13.5579 5.68832 13.5579 6.54368 14.394 6.54368 15.4219 6.54368 16.4495 5.68832 17.2856 4.63709 17.2856zM7.92491 15.0648H7.24601C7.16188 14.4754 6.87472 13.95 6.45415 13.5579H8.71674C8.29619 13.95 8.00904 14.4754 7.92491 15.0648zM10.5337 17.2856C9.48242 17.2856 8.62724 16.4495 8.62724 15.4219 8.62724 14.394 9.48238 13.5579 10.5336 13.5579H10.5337C11.5849 13.5579 12.4401 14.394 12.4401 15.4219 12.4401 16.4495 11.5849 17.2856 10.5337 17.2856zm17.5125.0C27.0151 17.2856 26.1775 16.48 26.1456 15.4795 26.1489 15.46 26.1575 15.4423 26.1575 15.4219 26.1575 15.4015 26.1489 15.3838 26.1456 15.3644 26.1775 14.3636 27.0151 13.5579 28.0462 13.5579 29.0974 13.5579 29.9526 14.394 29.9526 15.4219 29.9526 16.4495 29.0974 17.2856 28.0462 17.2856zM32.2693 12.4877H31.4473C31.2456 12.4877 31.082 12.6475 31.082 12.8449 31.082 13.0423 31.2456 13.2021 31.4473 13.2021H32.2693V15.0648H30.655C30.4761 13.8119 29.376 12.8435 28.0462 12.8435 26.7163 12.8435 25.6161 13.8119 25.4373 15.0648H13.1424C13.0588 14.4795 12.7753 13.957 12.3595 13.5658L24.8526 13.62C24.8531 13.62 24.8536 13.62 24.8542 13.62 24.9524 13.62 25.0466 13.5813 25.1153 13.5125L26.9657 11.6621 32.2693 11.6686V12.4877z" fill="#06369e"/></svg>