<svg width="36" height="21" viewBox="0 0 36 21" fill="none" xmlns="http://www.w3.org/2000/svg"><path d="M34.6425 11.8915 28.2959 11.0923 24.6444 7.94766C24.5702 7.88362 24.4756 7.84861 24.3775 7.84861H19.8151C19.5893 7.84861 19.4066 8.03081 19.4066 8.25597V11.0736H18.5129L19.0052 7.46234C19.0303 7.27577 18.9242 7.09596 18.7479 7.02753 18.5731 6.95951 18.372 7.02077 18.2643 7.17552L15.4616 11.2149C15.4522 11.2286 15.4477 11.2445 15.4401 11.2591 15.4324 11.2735 15.4249 11.2869 15.419 11.3022 15.4038 11.3417 15.3947 11.3826 15.3923 11.4251 15.392 11.4305 15.3891 11.435 15.389 11.4404 15.389 11.4414 15.3896 11.4423 15.3896 11.4433 15.3896 11.4445 15.389 11.4456 15.389 11.4468V12.3132H14.382L14.7483 10.7685C14.7732 10.6631 14.7553 10.5521 14.698 10.4602 14.6407 10.3679 14.5494 10.3027 14.4436 10.278L.884638 7.12101C.711479 7.08163.535329 7.15562.443363 7.3048.351397 7.45438.365962 7.64612.479471 7.78018L1.85835 9.40961C1.90942 9.47008 1.97725 9.51463 2.05346 9.53731L3.18951 9.87644.0697124 14.4952C-.0563644 14.6818-.006692 14.9348.180431 15.0605.250454 15.1078.329849 15.1301.408251 15.1301.539717 15.1301.668589 15.0673.747587 14.9503L4.00944 10.1212 9.51754 11.7654 8.91712 12.3132H6.12093C6.13068 12.2474 6.14123 12.1816 6.14123 12.1131 6.14123 11.3549 5.5226 10.7383 4.76234 10.7383 4.00208 10.7383 3.38346 11.3549 3.38346 12.1131 3.38346 12.4548 3.51368 12.7638 3.7213 13.0046L2.40216 13.3988C2.22921 13.4506 2.11091 13.6093 2.11091 13.7891V16.3351C2.11091 16.5602 2.29384 16.7424 2.51946 16.7424H4.60584C4.70204 18.0031 5.75912 19 7.04771 19 8.3363 19 9.39337 18.0031 9.48958 16.7424H28.0381C28.1343 18.0031 29.1913 19 30.4799 19 31.7685 19 32.8256 18.0031 32.9218 16.7424H34.5914C34.8173 16.7424 35 16.5602 35 16.3351V12.2957C35 12.0905 34.8468 11.9174 34.6425 11.8915zM17.9655 9.03806 17.6887 11.0681 16.569 11.0511 17.9655 9.03806zM13.8587 10.9786 13.5423 12.3132H10.1273L12.0513 10.5577 13.8587 10.9786zM2.40436 8.79182 1.89825 8.19351 11.0872 10.3332 10.2198 11.1246 2.40436 8.79182zM4.76234 11.553C5.07215 11.553 5.32411 11.8044 5.32411 12.1131 5.32411 12.343 5.18424 12.5406 4.98507 12.6268L4.86416 12.663C4.83104 12.6691 4.7972 12.6732 4.76234 12.6732 4.45253 12.6732 4.20057 12.4218 4.20057 12.1131 4.20057 11.8044 4.45253 11.553 4.76234 11.553zM7.04771 18.1853C6.14661 18.1853 5.41348 17.4545 5.41348 16.5559 5.41348 15.6572 6.14661 14.9264 7.04771 14.9264 7.94881 14.9264 8.68194 15.6572 8.68194 16.5559 8.68194 17.4545 7.94881 18.1853 7.04771 18.1853zM19.4066 15.9277H9.41397C9.13488 14.8839 8.18134 14.1117 7.04771 14.1117 5.91408 14.1117 4.96054 14.8839 4.68145 15.9277H2.92802V14.0922L6.15419 13.1279H15.7976C16.0232 13.1279 16.2061 12.9457 16.2061 12.7206V11.8605L18.0385 11.8884C18.0409 11.8884 18.0429 11.8884 18.0448 11.8884H19.4066V15.9277zM20.2237 8.66332H24.2255L27.0244 11.0736H20.2237V8.66332zM30.4799 18.1853C29.5786 18.1853 28.8457 17.4545 28.8457 16.5559 28.8457 15.6572 29.5786 14.9264 30.4799 14.9264 31.3812 14.9264 32.1142 15.6572 32.1142 16.5559 32.1142 17.4545 31.3812 18.1853 30.4799 18.1853zM34.1829 15.9277H32.8462C32.5671 14.8839 31.6136 14.1117 30.4799 14.1117 29.3463 14.1117 28.3928 14.8839 28.1137 15.9277H20.2237V13.2799H21.2279C21.4538 13.2799 21.6365 13.0977 21.6365 12.8725 21.6365 12.6474 21.4538 12.4652 21.2279 12.4652H20.2237V11.8884H28.0965L34.1829 12.6549v3.2728h0z" fill="#06369e"/></svg>