<svg width="36" height="19" viewBox="0 0 36 19" fill="none" xmlns="http://www.w3.org/2000/svg"><path d="M10.6667 10.6001C9.94149 10.6001 9.23257 10.8151 8.62959 11.218 8.0266 11.6209 7.55664 12.1936 7.27911 12.8636 7.00159 13.5336 6.92898 14.2709 7.07046 14.9821 7.21194 15.6934 7.56116 16.3467 8.07395 16.8595 8.58675 17.3723 9.24009 17.7215 9.95136 17.863 10.6626 18.0045 11.3999 17.9319 12.0699 17.6544 12.7399 17.3769 13.3125 16.9069 13.7154 16.3039 14.1183 15.7009 14.3334 14.992 14.3334 14.2668 14.3323 13.2947 13.9457 12.3626 13.2583 11.6752 12.5709 10.9878 11.6388 10.6012 10.6667 10.6001zm0 6.6C10.0865 17.2001 9.5194 17.0281 9.03701 16.7058 8.55462 16.3835 8.17865 15.9253 7.95663 15.3893 7.73461 14.8533 7.67652 14.2635 7.7897 13.6945 7.90289 13.1255 8.18226 12.6028 8.5925 12.1926 9.00274 11.7824 9.52541 11.503 10.0944 11.3898 10.6634 11.2766 11.2532 11.3347 11.7892 11.5567 12.3252 11.7787 12.7834 12.1547 13.1057 12.6371 13.428 13.1195 13.6 13.6866 13.6 14.2668 13.5992 15.0445 13.2898 15.7901 12.7399 16.34 12.19 16.8899 11.4444 17.1993 10.6667 17.2001z" fill="#06369e"/><path d="M10.6666 12.8003C10.3765 12.8003 10.093 12.8863 9.85179 13.0475 9.61059 13.2086 9.42261 13.4377 9.3116 13.7057 9.20059 13.9737 9.17154 14.2686 9.22813 14.5531 9.28473 14.8376 9.42441 15.0989 9.62953 15.3041 9.83465 15.5092 10.096 15.6489 10.3805 15.7055 10.665 15.7621 10.9599 15.733 11.2279 15.622 11.4959 15.511 11.725 15.323 11.8861 15.0818 12.0473 14.8406 12.1333 14.5571 12.1333 14.267 12.1333 13.878 11.9788 13.5049 11.7037 13.2299 11.4287 12.9548 11.0556 12.8003 10.6666 12.8003zM10.6666 15.0003C10.5216 15.0003 10.3798 14.9573 10.2592 14.8767 10.1386 14.7961 10.0446 14.6816 9.98911 14.5476 9.93361 14.4136 9.91909 14.2662 9.94738 14.1239 9.97568 13.9816 10.0455 13.851 10.1481 13.7484 10.2506 13.6459 10.3813 13.576 10.5236 13.5477 10.6658 13.5194 10.8133 13.5339 10.9473 13.5895 11.0813 13.645 11.1958 13.739 11.2764 13.8595 11.357 13.9801 11.4 14.1219 11.4 14.267 11.4 14.4615 11.3227 14.648 11.1852 14.7855 11.0477 14.923 10.8611 15.0003 10.6666 15.0003z" fill="#06369e"/><path d="M25.3331 10.6C24.9034 10.6009 24.4772 10.6779 24.0743 10.8274L23.7568 10.1674C24.2153 9.99077 24.7001 9.89164 25.1912 9.87404 25.2256 9.87404 25.2594 9.86891 25.2942 9.86854 26.0221 9.86064 26.7404 10.0343 27.3842 10.3738 27.4702 10.418 27.5701 10.4265 27.6623 10.3974 27.7545 10.3683 27.8314 10.304 27.8764 10.2184 27.9214 10.1329 27.9308 10.033 27.9026 9.94058 27.8743 9.84814 27.8107 9.77059 27.7256 9.72481 26.9939 9.33964 26.1794 9.13829 25.3525 9.13814 25.3455 9.13814 25.34 9.1341 25.3331 9.1341 25.3202 9.1341 25.3081 9.1341 25.2964 9.1341 25.2311 9.1341 25.1662 9.14107 25.101 9.144 24.5304 9.16864 23.9681 9.289 23.4374 9.50004L22.8375 8.2508C23.1712 8.35106 23.518 8.40135 23.8664 8.40003 23.9636 8.40003 24.0569 8.3614 24.1257 8.29264 24.1944 8.22387 24.2331 8.13061 24.2331 8.03336V5.10001C24.2331 5.00276 24.1944 4.9095 24.1257 4.84073 24.0569 4.77197 23.9636 4.73334 23.8664 4.73334 23.4421 4.71145 23.0184 4.78584 22.6269 4.95094 22.2354 5.11604 21.8864 5.36756 21.6059 5.68668L20.8964 4.2079C20.8665 4.14571 20.8197 4.09321 20.7613 4.05643 20.7029 4.01966 20.6354 4.0001 20.5664 4H18.3664C18.2691 4 18.1759 4.03863 18.1071 4.1074 18.0383 4.17616 17.9997 4.26942 17.9997 4.36667 17.9997 4.46392 18.0383 4.55718 18.1071 4.62594 18.1759 4.69471 18.2691 4.73334 18.3664 4.73334H20.3357L20.8637 5.83335H17.8706C17.3905 5.83393 16.9212 5.97605 16.5214 6.24194 16.1216 6.50783 15.8091 6.88569 15.6229 7.32826 15.5612 7.31044 15.4973 7.30095 15.433 7.30002H9.5663C9.17731 7.30002 8.80426 7.45455 8.5292 7.7296 8.25415 8.00466 8.09962 8.37771 8.09962 8.7667 8.10049 8.95197 8.17145 9.13004 8.29824 9.26513 8.42503 9.40022 8.59826 9.48231 8.7831 9.49491 8.32501 9.67387 7.89523 9.91816 7.50709 10.2202 7.43046 10.2801 7.38076 10.368 7.36893 10.4645 7.35711 10.5611 7.38412 10.6584 7.44402 10.735 7.50392 10.8116 7.59182 10.8613 7.68836 10.8731 7.7849 10.885 7.88219 10.858 7.95882 10.798 8.60866 10.2908 9.38793 9.97627 10.2078 9.89037 11.0277 9.80447 11.8552 9.95063 12.5961 10.3122 13.337 10.6738 13.9614 11.2362 14.3981 11.9354 14.8349 12.6345 15.0664 13.4424 15.0663 14.2667V14.7496C15.0448 14.888 15.0517 15.0293 15.0868 15.1649 15.1218 15.3005 15.1843 15.4274 15.2702 15.538 15.3406 15.6047 15.4238 15.6565 15.5149 15.6901 15.6059 15.7237 15.7028 15.7384 15.7997 15.7334H19.833C19.9784 15.7367 20.1229 15.7104 20.2578 15.6563 20.3927 15.6022 20.5153 15.5213 20.6181 15.4185 20.7209 15.3157 20.8018 15.1931 20.8559 15.0582 20.9101 14.9233 20.9363 14.7788 20.933 14.6334V14.2667C20.9324 13.5405 21.1126 12.8255 21.4574 12.1863 21.4816 12.1412 21.5095 12.0994 21.5351 12.0554 21.8585 11.5014 22.2982 11.0243 22.824 10.6569 22.8427 10.644 22.8606 10.6294 22.8782 10.6169 22.9211 10.5879 22.967 10.5637 23.0106 10.5366 23.0388 10.519 23.0678 10.5021 23.0964 10.4849L23.4147 11.1479C22.6636 11.6127 22.106 12.3336 21.8449 13.1774 21.5837 14.0212 21.6365 14.9309 21.9936 15.7388 22.3507 16.5467 22.988 17.1982 23.7878 17.573 24.5876 17.9478 25.496 18.0206 26.3454 17.7781 27.1947 17.5356 27.9277 16.994 28.409 16.2534 28.8903 15.5128 29.0874 14.623 28.9641 13.7484 28.8407 12.8738 28.4052 12.0733 27.7379 11.4946 27.0705 10.916 26.2164 10.5982 25.3331 10.6zM22.0331 6.56669C22.0331 6.04528 22.6744 5.59501 23.4997 5.48978V7.64359C23.0533 7.60253 22.6316 7.42013 22.296 7.12292L22.0349 6.57915C22.0349 6.57475 22.0331 6.57072 22.0331 6.56669zM17.8706 6.56669H21.0731L22.1731 8.7667H16.6621C16.5306 8.7666 16.4046 8.71434 16.3117 8.6214 16.2187 8.52845 16.1664 8.40241 16.1663 8.27096 16.1668 7.81911 16.3465 7.3859 16.6661 7.06639 16.9856 6.74688 17.4188 6.56717 17.8706 6.56669zM9.5663 8.03336H15.433V8.7667H8.83296C8.83296 8.57221 8.91022 8.38568 9.04775 8.24815 9.18528 8.11062 9.37181 8.03336 9.5663 8.03336zM20.1997 14.6334C20.2025 14.6823 20.195 14.7312 20.1776 14.777 20.1601 14.8228 20.1332 14.8643 20.0986 14.899 20.064 14.9336 20.0224 14.9605 19.9766 14.9779 19.9309 14.9954 19.8819 15.0029 19.833 15.0001H15.8026C15.7964 14.9359 15.7978 14.8369 15.7986 14.7588L15.7997 14.2667C15.8013 13.2396 15.4939 12.2357 14.9174 11.3856 14.3409 10.5355 13.522 9.87852 12.5671 9.50004H15.433C15.5312 9.49994 15.6284 9.48005 15.7187 9.44156 15.8091 9.40307 15.8907 9.34676 15.9588 9.276 16.1645 9.42151 16.4102 9.49977 16.6621 9.50004h5.9617L22.7778 9.82088C22.7455 9.83958 22.714 9.85974 22.6821 9.87918 22.6087 9.92281 22.5354 9.96388 22.4654 10.0108L22.4584 10.0163C22.3484 10.0896 22.2413 10.171 22.1365 10.2543 22.1032 10.2423 22.0684 10.2352 22.0331 10.2334H17.2664C17.1197 10.2336 16.9745 10.2631 16.8393 10.3201 16.7042 10.3772 16.5818 10.4607 16.4793 10.5656 16.3769 10.6706 16.2964 10.795 16.2427 10.9315 16.1889 11.068 16.163 11.2139 16.1663 11.3605V11.6729C16.163 11.8196 16.1889 11.9654 16.2427 12.1019 16.2964 12.2384 16.3769 12.3628 16.4793 12.4678 16.5818 12.5728 16.7042 12.6562 16.8393 12.7133 16.9745 12.7704 17.1197 12.7999 17.2664 12.8001H20.416C20.3454 13.0403 20.2927 13.2854 20.2584 13.5334H17.9997C17.9024 13.5334 17.8092 13.572 17.7404 13.6408 17.6717 13.7096 17.633 13.8028 17.633 13.9001 17.633 13.9973 17.6717 14.0906 17.7404 14.1593 17.8092 14.2281 17.9024 14.2667 17.9997 14.2667H20.1997V14.6334zM20.8113 11.8405C20.8051 11.8519 20.7974 11.8625 20.7911 11.8742 20.7878 11.8805 20.7882 11.8874 20.7853 11.894 20.7559 11.9505 20.7295 12.0092 20.702 12.0667H17.2664C17.2161 12.066 17.1665 12.0551 17.1205 12.0347 17.0746 12.0144 17.0332 11.9849 16.999 11.9481 16.9647 11.9113 16.9382 11.8679 16.9212 11.8207 16.9041 11.7734 16.8968 11.7231 16.8997 11.6729V11.3605C16.8968 11.3103 16.9041 11.2601 16.9212 11.2128 16.9382 11.1655 16.9647 11.1221 16.999 11.0854 17.0332 11.0486 17.0746 11.0191 17.1205 10.9987 17.1665 10.9783 17.2161 10.9674 17.2664 10.9667h4.1371C21.2173 11.1908 21.0505 11.4302 20.9048 11.6825 20.874 11.7367 20.8403 11.7862 20.8113 11.8405zM25.3331 17.2001C24.7005 17.201 24.0846 16.9973 23.5774 16.6193 23.0701 16.2413 22.6988 15.7094 22.5188 15.103 22.3388 14.4965 22.3598 13.8481 22.5787 13.2546 22.7976 12.6611 23.2026 12.1544 23.7333 11.8101L24.3808 13.1594C24.1219 13.3896 23.9555 13.7061 23.9128 14.0499 23.87 14.3937 23.9538 14.7413 24.1484 15.0279 24.3431 15.3145 24.6354 15.5205 24.9708 15.6074 25.3062 15.6944 25.6617 15.6564 25.9711 15.5004 26.2805 15.3445 26.5226 15.0814 26.6523 14.7601 26.7819 14.4388 26.7903 14.0813 26.6758 13.7543 26.5613 13.4274 26.3317 13.1532 26.0299 12.983 25.7282 12.8128 25.3748 12.7582 25.0357 12.8294L24.3926 11.4896C24.7958 11.3525 25.224 11.3048 25.6475 11.3499 26.071 11.3949 26.4795 11.5317 26.8449 11.7506 27.2102 11.9695 27.5234 12.2653 27.7629 12.6175 28.0023 12.9697 28.1622 13.3698 28.2314 13.79 28.3006 14.2103 28.2775 14.6405 28.1636 15.0509 28.0498 15.4613 27.8479 15.8419 27.5721 16.1664 27.2963 16.4909 26.9532 16.7515 26.5665 16.93 26.1798 17.1085 25.759 17.2007 25.3331 17.2001zM25.3331 13.5334C25.4781 13.5334 25.6199 13.5764 25.7405 13.657 25.8611 13.7376 25.9551 13.8521 26.0106 13.9861 26.0661 14.1201 26.0806 14.2676 26.0523 14.4098 26.024 14.5521 25.9542 14.6827 25.8516 14.7853 25.7491 14.8878 25.6184 14.9577 25.4761 14.986 25.3339 15.0143 25.1864 14.9998 25.0524 14.9443 24.9184 14.8888 24.8039 14.7948 24.7233 14.6742 24.6427 14.5536 24.5997 14.4118 24.5997 14.2667 24.6003 14.1075 24.6534 13.9528 24.7508 13.8267 24.8131 13.8734 24.8886 13.8991 24.9664 13.9001 25.0144 13.9001 25.0619 13.8906 25.1062 13.8721 25.1505 13.8536 25.1907 13.8266 25.2245 13.7925 25.2583 13.7584 25.285 13.7179 25.3031 13.6735 25.3211 13.629 25.3302 13.5814 25.3298 13.5334H25.3331z" fill="#06369e"/></svg>