<svg width="36" height="19" viewBox="0 0 36 19" fill="none" xmlns="http://www.w3.org/2000/svg"><path d="M31.771 10.8779 29.2078 9.70557 27.3667 3.28332C27.3187 3.11595 27.1592 3 26.9769 3H4.40393C4.18086 3 4 3.17187 4 3.38427V15.5184C4 15.7308 4.18086 15.9027 4.40393 15.9027H7.42505C7.44471 17.0623 8.44075 18 9.66434 18 10.8877 18 11.8838 17.0623 11.9034 15.9027H25.7027C25.7223 17.0623 26.7184 18 27.942 18 29.1656 18 30.1616 17.0623 30.1813 15.9027H31.5961C31.8191 15.9027 32 15.7308 32 15.5184V11.2243C32 11.0764 31.9111 10.9421 31.771 10.8779zM27.3287 6.07152 28.3521 9.6414H26.0888V6.07152H27.3287zM9.66434 17.2315C8.87404 17.2315 8.23107 16.6198 8.23107 15.8681 8.23107 15.1161 8.87404 14.5044 9.66434 14.5044 10.4544 14.5044 11.0974 15.1161 11.0974 15.8681 11.0974 16.6198 10.4544 17.2315 9.66434 17.2315zm18.27766.0C27.1517 17.2315 26.5087 16.6198 26.5087 15.8681 26.5087 15.1161 27.1517 14.5044 27.942 14.5044 28.7323 14.5044 29.3752 15.1161 29.3752 15.8681 29.3752 16.6198 28.7323 17.2315 27.942 17.2315zM31.1921 15.1341H30.0434C29.728 14.3195 28.9064 13.7359 27.942 13.7359 26.9776 13.7359 26.156 14.3195 25.8406 15.1341H11.7656C11.4501 14.3195 10.6286 13.7359 9.66434 13.7359 8.69993 13.7359 7.87836 14.3195 7.56292 15.1341H4.80786V12.657H31.1921v2.4771zM31.1921 11.8885H4.80786V3.76853H26.6685L27.1084 5.30298H22.0168C21.7937 5.30298 21.6128 5.47485 21.6128 5.68725V10.0257C21.6128 10.2381 21.7937 10.4099 22.0168 10.4099H28.8666C28.8709 10.4099 28.8744 10.4078 28.8786 10.4076L31.1921 11.4659V11.8885zM25.2809 6.07152V9.6414H22.4207V6.07152H25.2809z" fill="#06369e"/></svg>