<svg width="36" height="19" viewBox="0 0 36 19" fill="none" xmlns="http://www.w3.org/2000/svg"><path d="M29.183 12.8C30.0574 12.8 30.7798 13.5622 30.7798 14.4849 30.7798 15.4075 30.0574 16.1697 29.183 16.1697 28.3086 16.1697 27.5862 15.4075 27.5862 14.4849 27.5862 13.5622 28.3086 12.8 29.183 12.8zm0 2.6075C29.6392 15.4075 30.0194 15.0064 30.0194 14.525 30.0194 14.0436 29.6392 13.6425 29.183 13.6425 28.7268 13.6425 28.3466 14.0436 28.3466 14.525 28.3466 15.0064 28.7268 15.4075 29.183 15.4075z" fill="#06369e"/><path d="M8.8815 12.8C9.75592 12.8 10.4783 13.5622 10.4783 14.4849 10.4783 15.4075 9.75592 16.1697 8.8815 16.1697 8.00708 16.1697 7.28473 15.4075 7.28473 14.4849 7.28473 13.5622 8.00708 12.8 8.8815 12.8zm0 2.6075C9.33772 15.4075 9.7179 15.0064 9.7179 14.525 9.7179 14.0436 9.33772 13.6425 8.8815 13.6425 8.42528 13.6425 8.04509 14.0436 8.04509 14.525 8.04509 15.0064 8.42528 15.4075 8.8815 15.4075z" fill="#06369e"/><path d="M24.8871 8.73337H16.1048C15.9907 8.73337 15.8767 8.69325 15.8007 8.57291 15.7246 8.49268 15.6866 8.37234 15.7246 8.25199L16.1048 6.32649C16.2189 5.805 16.6371 5.44397 17.1313 5.44397H21.1232C21.8836 5.44397 22.644 5.72477 23.2142 6.24626L25.1532 8.0113C25.2672 8.13165 25.3053 8.29211 25.2672 8.45257 25.1912 8.61302 25.0771 8.73337 24.8871 8.73337zM22.682 6.84798C22.2258 6.44684 21.6935 6.24626 21.0852 6.24626H17.1313C16.9792 6.24626 16.8652 6.36661 16.8652 6.48695L16.561 7.93108H23.8606L22.682 6.84798z" fill="#06369e"/><path d="M2.95046 7.63118H14.356L14.8882 4.94351C15.0403 4.22144 15.6486 3.69995 16.3329 3.69995H21.2373C22.2258 3.69995 23.1763 4.06098 23.8986 4.74293L27.0922 7.63118H28.2327C29.9055 7.63118 31.6164 7.83176 33.2512 8.2329L34.6959 8.59393C34.8859 8.63405 35 8.79451 35 8.99508V13.4478C35 14.2501 34.3537 14.932 33.5933 14.932H32.1486C31.9585 16.4965 30.7039 17.7 29.1832 17.7 27.6624 17.7 26.4078 16.4965 26.2177 14.932H11.8848C11.6947 16.4965 10.4401 17.7 8.91936 17.7 7.39862 17.7 6.14401 16.4965 5.95392 14.932H3.14055C2.49424 14.932 2 14.4106 2 13.7286V8.63405C2 8.07244 2.4182 7.63118 2.95046 7.63118zM2.76037 11.0008h.98848L3.36866 9.83749H2.76037V11.0008zM2.76037 8.63405V9.0352H3.67281C3.82488 9.0352 3.97696 9.15554 4.01498 9.316L4.62327 11.2816C4.66129 11.402 4.62327 11.5223 4.58525 11.6426 4.54724 11.763 4.39516 11.8031 4.28111 11.8031H2.76037V12.3647H6.67627C7.20853 11.7229 8.00691 11.3217 8.88134 11.3217 9.75576 11.3217 10.5541 11.7229 11.0864 12.3647H14.28V8.39336H2.95046C2.83641 8.43348 2.76037 8.51371 2.76037 8.63405zM11.8848 14.1298H14.318V13.2071H11.6567C11.7327 13.4879 11.8468 13.7687 11.8848 14.1298zM26.4459 13.167H15.0403V14.0896H26.2177C26.2558 13.7687 26.3318 13.4879 26.4459 13.167zM33.0991 8.99508C31.5023 8.59393 29.8675 8.39336 28.2327 8.39336H26.9781C26.9021 8.39336 26.788 8.35325 26.712 8.31313L23.4044 5.34465C22.7961 4.78305 22.0357 4.50224 21.2373 4.50224H16.3329C15.9908 4.50224 15.6866 4.74293 15.6106 5.10396L15.0023 8.07244V12.4048H26.9781C27.5104 11.763 28.3088 11.3618 29.1832 11.3618 30.0576 11.3618 30.856 11.763 31.3882 12.4048H34.2396V11.8833H32.1106C31.9965 11.8833 31.8445 11.8031 31.8065 11.6828 31.7304 11.5624 31.7304 11.4421 31.7684 11.2816L32.3387 9.95783C32.4147 9.79737 32.5288 9.71714 32.6809 9.71714H34.2396V9.23577L33.0991 8.99508zM34.2396 10.5596H32.909L32.6809 11.081H34.2396V10.5596zM34.2396 13.4478V13.2071H31.8825C31.9965 13.4879 32.1106 13.8088 32.1486 14.1298H33.5933C33.9735 14.1298 34.2396 13.8088 34.2396 13.4478zM29.1832 16.8575C30.3998 16.8575 31.4263 15.8146 31.4263 14.4908 31.4263 13.2071 30.4378 12.124 29.1832 12.124 27.9286 12.124 26.9401 13.167 26.9401 14.4908 26.9401 15.8146 27.9666 16.8575 29.1832 16.8575zM8.88134 16.8575C10.0979 16.8575 11.1244 15.8146 11.1244 14.4908 11.1244 13.2071 10.1359 12.124 8.88134 12.124 7.62673 12.124 6.63825 13.167 6.63825 14.4908 6.67627 15.8146 7.66475 16.8575 8.88134 16.8575zM3.14055 14.1298H5.95392C5.99194 13.8088 6.06797 13.4879 6.22005 13.2071H2.79839V13.7286C2.76037 13.9292 2.91244 14.1298 3.14055 14.1298z" fill="#06369e"/></svg>