<svg width="30" height="30" viewBox="0 0 30 30" fill="none" xmlns="http://www.w3.org/2000/svg">
<path d="M18.0093 24.6404L15.561 20.3881L18.0093 16.1357H22.9059L25.3543 20.3881L22.9059 24.6404H18.0093Z" stroke="#0033A0" stroke-miterlimit="10"/>
<path d="M21.8322 20.3882C21.8322 21.1614 21.2309 21.7627 20.4577 21.7627C19.6846 21.7627 19.0833 21.1614 19.0833 20.3882C19.0833 19.6151 19.6846 19.0137 20.4577 19.0137C21.1879 19.0137 21.8322 19.6151 21.8322 20.3882Z" stroke="#0033A0" stroke-miterlimit="10"/>
<path d="M18.2242 8.3192L15.9048 11.5407L12.7692 9.26414L15.0887 6.04268C13.6283 5.82792 12.082 6.42932 11.137 7.7179C10.0203 9.22125 10.1062 11.24 11.18 12.6575L5.55318 20.4748C5.0807 21.1621 5.1666 22.0641 5.76794 22.4936C6.36928 22.9231 7.27129 22.7514 7.74377 22.1071L13.4565 14.2467C15.0457 14.6333 16.8068 14.0749 17.8377 12.6575C18.8256 11.283 18.8685 9.65073 18.2242 8.3192Z" stroke="#0033A0" stroke-miterlimit="10"/>
</svg>
