<svg width="30" height="30" viewBox="0 0 30 30" fill="none" xmlns="http://www.w3.org/2000/svg">
<path d="M15.15 24.2006C15.15 24.2006 20.9529 20.2239 22.3326 17.8297C23.5094 15.8007 23.55 11.8644 23.55 11.8644V7.07609L15.15 5.25L6.75 7.07609V11.8644C6.75 11.8644 6.75 15.8007 7.96739 17.8297C9.38768 20.2239 15.15 24.2006 15.15 24.2006Z" stroke="#0033A0" stroke-miterlimit="10"/>
<path d="M13.6487 12.9189C12.9183 12.9189 12.3096 13.5276 12.3096 14.258V18.4378H18.0313C18.0313 18.4378 18.0313 15.3537 18.0313 14.258C18.0313 13.1623 17.3009 12.9189 16.6922 12.9189C16.0835 12.9189 14.3791 12.9189 13.6487 12.9189Z" stroke="#0033A0" stroke-miterlimit="10"/>
<path d="M15.1501 11.578C16.1646 11.578 16.9761 10.7664 16.9761 9.75187C16.9761 8.73738 16.1646 7.92578 15.1501 7.92578C14.1356 7.92578 13.324 8.73738 13.324 9.75187C13.324 10.7664 14.1761 11.578 15.1501 11.578Z" stroke="#0033A0" stroke-miterlimit="10"/>
</svg>
