<svg width="40" height="24" viewBox="0 0 40 24" fill="none" xmlns="http://www.w3.org/2000/svg">
<g clip-path="url(#clip0)">
<path d="M15.9089 5.20093L11.4577 16.2073H8.55342L6.36275 7.42327C6.2301 6.88349 6.11461 6.68481 5.71039 6.45666C5.04978 6.08473 3.95889 5.73688 3 5.52043L3.06469 5.20093H7.74019C8.33524 5.20093 8.87102 5.61155 9.00714 6.32256L10.1647 12.6921L13.0222 5.20093H15.9089ZM19.835 5.20093L17.5634 16.2073H14.8159L17.0875 5.20093H19.835ZM27.2878 12.6138C27.2993 9.70951 23.4131 9.54841 23.4385 8.2506C23.4478 7.85617 23.8104 7.43609 24.6041 7.32877C24.9972 7.27612 26.0833 7.23404 27.3136 7.82152L27.7949 5.48623C27.1338 5.2385 26.2833 5 25.2252 5C22.5091 5 20.5985 6.49514 20.5833 8.63783C20.5655 10.2227 21.948 11.1061 22.9876 11.634C24.0585 12.1731 24.4176 12.5196 24.4126 13.0013C24.405 13.7397 23.5575 14.0667 22.7694 14.0788C21.3876 14.1015 20.5866 13.6918 19.9477 13.3833L19.449 15.796C20.0918 16.1014 21.2765 16.3666 22.5035 16.3801C25.3908 16.3801 27.2793 14.9021 27.2878 12.6138ZM34.4598 16.2073H37L34.7807 5.20093H32.437C31.9083 5.20093 31.4642 5.51885 31.267 6.00778L27.1445 16.2073H30.0296L30.6019 14.5632H34.1268L34.4598 16.2073ZM31.393 12.3078L32.8397 8.17455L33.6707 12.3078H31.393ZM23.3512 19.2369H22.2349V20.3138H23.4836V20.6376H21.8587V17.65H23.4196V17.9738H22.2349V18.9177H23.3512V19.2369ZM24.0603 17.4906H24.4365V20.6375H24.0603V17.4906ZM25.3856 19.6357C25.3941 20.1633 25.7149 20.3805 26.0953 20.3805C26.3649 20.3805 26.5316 20.3316 26.6686 20.2698L26.737 20.549C26.6043 20.6109 26.3736 20.6862 26.044 20.6862C25.4071 20.6862 25.0265 20.2475 25.0265 19.6004C25.0265 18.9533 25.3941 18.4479 25.9971 18.4479C26.6771 18.4479 26.8525 19.0597 26.8525 19.4541C26.8525 19.5338 26.8481 19.5914 26.8394 19.6357H25.3856ZM26.4888 19.3565C26.4932 19.1128 26.3905 18.7272 25.9672 18.7272C25.5823 18.7272 25.4197 19.0863 25.3897 19.3565H26.4888ZM28.8999 20.5621C28.8016 20.611 28.5834 20.6863 28.3056 20.6863C27.6812 20.6863 27.275 20.2476 27.275 19.5915C27.275 18.9311 27.7109 18.448 28.3867 18.448C28.609 18.448 28.8057 18.5054 28.9084 18.5632L28.8231 18.8602C28.733 18.8114 28.5919 18.7581 28.3867 18.7581C27.912 18.7581 27.6556 19.1259 27.6556 19.5694C27.6556 20.0658 27.9634 20.3716 28.3739 20.3716C28.5878 20.3716 28.7289 20.3185 28.8357 20.2696L28.8999 20.5621ZM29.9555 17.9781V18.4923H30.4941V18.789H29.9555V19.946C29.9555 20.2122 30.0282 20.3627 30.2377 20.3627C30.3402 20.3627 30.4003 20.3539 30.4559 20.3359L30.4731 20.6331C30.4003 20.6597 30.2848 20.6862 30.1394 20.6862C29.964 20.6862 29.8229 20.6241 29.7332 20.5224C29.6305 20.4025 29.5878 20.2122 29.5878 19.9595V18.789H29.2669V18.4923H29.5878V18.0933L29.9555 17.9781ZM31.0198 19.1616C31.0198 18.9089 31.0152 18.6918 31.0026 18.4922H31.332L31.3491 18.9177H31.3617C31.4559 18.6297 31.6867 18.4479 31.9389 18.4479C31.9776 18.4479 32.0075 18.4524 32.0418 18.4567V18.8248C32.0032 18.8158 31.965 18.8158 31.9133 18.8158C31.6485 18.8158 31.46 19.0196 31.4088 19.3123C31.4003 19.3654 31.396 19.4318 31.396 19.4941V20.6376H31.0198V19.1616ZM34.3548 19.5471C34.3548 20.3405 33.8201 20.6863 33.3241 20.6863C32.7681 20.6863 32.3322 20.2606 32.3322 19.5827C32.3322 18.869 32.7896 18.448 33.3584 18.448C33.9528 18.448 34.3548 18.8955 34.3548 19.5471ZM32.7169 19.5694C32.7169 20.0392 32.9735 20.3938 33.3412 20.3938C33.7005 20.3938 33.9697 20.0435 33.9697 19.5604C33.9697 19.197 33.7945 18.7403 33.3497 18.7403C32.9094 18.7403 32.7169 19.166 32.7169 19.5694ZM34.9314 19.0728C34.9314 18.8469 34.9269 18.6696 34.9143 18.4923H35.2477L35.2692 18.8469H35.2777C35.3804 18.6473 35.6198 18.448 35.962 18.448C36.2483 18.448 36.6931 18.6253 36.6931 19.3608V20.6375H36.3169V19.4009C36.3169 19.0553 36.193 18.767 35.838 18.767C35.5942 18.767 35.4017 18.9488 35.3335 19.166C35.3161 19.2148 35.3077 19.2812 35.3077 19.3478V20.6375H34.9314V19.0728Z" fill="#1A1F71"/>
</g>
<defs>
<clipPath id="clip0">
<rect width="34" height="15.6923" fill="white" transform="translate(3 5)"/>
</clipPath>
</defs>
</svg>
