<svg width="28" height="24" viewBox="0 0 28 24" fill="none" xmlns="http://www.w3.org/2000/svg">
<path d="M26.1 0.199997H1.1C0.5 0.199997 0 0.699997 0 1.3V4.8H27.1V1.3C27.2 0.699997 26.7 0.199997 26.1 0.199997Z" fill="#768692"/>
<path d="M26.2 24H1.3C0.6 24 0 23.3872 0 22.6723V1.22553C0 0.612766 0.6 0 1.3 0H26.2C26.9 0 27.5 0.612766 27.5 1.32766V22.7745C27.5 23.3872 26.9 24 26.2 24ZM1.3 0.408511C0.8 0.408511 0.4 0.817021 0.4 1.32766V22.7745C0.4 23.2851 0.8 23.6936 1.3 23.6936H26.2C26.7 23.6936 27.1 23.2851 27.1 22.7745V1.32766C27.1 0.817021 26.7 0.408511 26.2 0.408511H1.3Z" fill="#393B3D"/>
<path d="M11.3333 13C11.2853 13 11.2533 12.9787 11.2373 12.936L10.9493 12C10.944 11.984 10.9333 11.976 10.9173 11.976H8.66934C8.65334 11.976 8.64268 11.984 8.63734 12L8.34934 12.936C8.33334 12.9787 8.30134 13 8.25334 13H7.60534C7.54668 13 7.52534 12.9707 7.54134 12.912L9.29334 7.464C9.30934 7.42133 9.34134 7.4 9.38934 7.4H10.1893C10.2373 7.4 10.2693 7.42133 10.2853 7.464L12.0533 12.912L12.0613 12.944C12.0613 12.9813 12.0373 13 11.9893 13H11.3333ZM8.83734 11.328C8.83201 11.3387 8.83201 11.3493 8.83734 11.36C8.84801 11.3653 8.85868 11.368 8.86934 11.368H10.7093C10.72 11.368 10.728 11.3653 10.7333 11.36C10.744 11.3493 10.7467 11.3387 10.7413 11.328L9.81334 8.36C9.80801 8.34933 9.80001 8.344 9.78934 8.344C9.77868 8.344 9.77068 8.34933 9.76534 8.36L8.83734 11.328ZM15.9404 8.384C16.0204 8.608 16.0604 8.86667 16.0604 9.16V11.624C16.0604 12.0613 15.9084 12.4107 15.6044 12.672C15.3004 12.9333 14.9031 13.064 14.4124 13.064C14.0977 13.064 13.8177 13.0053 13.5724 12.888C13.3324 12.7707 13.1457 12.608 13.0124 12.4C12.8791 12.1867 12.8124 11.944 12.8124 11.672V11.512C12.8124 11.4587 12.8391 11.432 12.8924 11.432H13.5004C13.5537 11.432 13.5804 11.4587 13.5804 11.512V11.584C13.5804 11.824 13.6577 12.0187 13.8124 12.168C13.9671 12.3173 14.1671 12.392 14.4124 12.392C14.6684 12.392 14.8791 12.3147 15.0444 12.16C15.2097 12.0053 15.2924 11.8 15.2924 11.544V10.536C15.2924 10.5253 15.2871 10.5173 15.2764 10.512C15.2711 10.5067 15.2631 10.5093 15.2524 10.52C15.0231 10.7813 14.6897 10.912 14.2524 10.912C13.9377 10.912 13.6657 10.848 13.4364 10.72C13.2124 10.592 13.0364 10.4053 12.9084 10.16C12.7591 9.87733 12.6844 9.53867 12.6844 9.144C12.6844 8.824 12.7351 8.53867 12.8364 8.288C12.9591 7.984 13.1511 7.752 13.4124 7.592C13.6737 7.42667 13.9884 7.344 14.3564 7.344C14.7511 7.344 15.0844 7.43467 15.3564 7.616C15.6284 7.79733 15.8231 8.05333 15.9404 8.384ZM15.1644 9.784C15.2497 9.608 15.2924 9.38133 15.2924 9.104C15.2924 8.88 15.2577 8.69067 15.1884 8.536C15.1191 8.36533 15.0151 8.23733 14.8764 8.152C14.7377 8.06133 14.5697 8.016 14.3724 8.016C14.1751 8.016 14.0071 8.06133 13.8684 8.152C13.7351 8.23733 13.6364 8.36267 13.5724 8.528C13.4924 8.69333 13.4524 8.89867 13.4524 9.144C13.4524 9.41067 13.4977 9.62933 13.5884 9.8C13.7537 10.1093 14.0151 10.264 14.3724 10.264C14.7511 10.264 15.0151 10.104 15.1644 9.784ZM20.1435 8.384C20.2235 8.608 20.2635 8.86667 20.2635 9.16V11.624C20.2635 12.0613 20.1115 12.4107 19.8075 12.672C19.5035 12.9333 19.1062 13.064 18.6155 13.064C18.3009 13.064 18.0209 13.0053 17.7755 12.888C17.5355 12.7707 17.3489 12.608 17.2155 12.4C17.0822 12.1867 17.0155 11.944 17.0155 11.672V11.512C17.0155 11.4587 17.0422 11.432 17.0955 11.432H17.7035C17.7569 11.432 17.7835 11.4587 17.7835 11.512V11.584C17.7835 11.824 17.8609 12.0187 18.0155 12.168C18.1702 12.3173 18.3702 12.392 18.6155 12.392C18.8715 12.392 19.0822 12.3147 19.2475 12.16C19.4129 12.0053 19.4955 11.8 19.4955 11.544V10.536C19.4955 10.5253 19.4902 10.5173 19.4795 10.512C19.4742 10.5067 19.4662 10.5093 19.4555 10.52C19.2262 10.7813 18.8929 10.912 18.4555 10.912C18.1409 10.912 17.8689 10.848 17.6395 10.72C17.4155 10.592 17.2395 10.4053 17.1115 10.16C16.9622 9.87733 16.8875 9.53867 16.8875 9.144C16.8875 8.824 16.9382 8.53867 17.0395 8.288C17.1622 7.984 17.3542 7.752 17.6155 7.592C17.8769 7.42667 18.1915 7.344 18.5595 7.344C18.9542 7.344 19.2875 7.43467 19.5595 7.616C19.8315 7.79733 20.0262 8.05333 20.1435 8.384ZM19.3675 9.784C19.4529 9.608 19.4955 9.38133 19.4955 9.104C19.4955 8.88 19.4609 8.69067 19.3915 8.536C19.3222 8.36533 19.2182 8.23733 19.0795 8.152C18.9409 8.06133 18.7729 8.016 18.5755 8.016C18.3782 8.016 18.2102 8.06133 18.0715 8.152C17.9382 8.23733 17.8395 8.36267 17.7755 8.528C17.6955 8.69333 17.6555 8.89867 17.6555 9.144C17.6555 9.41067 17.7009 9.62933 17.7915 9.8C17.9569 10.1093 18.2182 10.264 18.5755 10.264C18.9542 10.264 19.2182 10.104 19.3675 9.784ZM7.96384 15.384C8.04384 15.608 8.08384 15.8667 8.08384 16.16V18.624C8.08384 19.0613 7.93184 19.4107 7.62784 19.672C7.32384 19.9333 6.92651 20.064 6.43584 20.064C6.12118 20.064 5.84118 20.0053 5.59584 19.888C5.35584 19.7707 5.16918 19.608 5.03584 19.4C4.90251 19.1867 4.83584 18.944 4.83584 18.672V18.512C4.83584 18.4587 4.86251 18.432 4.91584 18.432H5.52384C5.57718 18.432 5.60384 18.4587 5.60384 18.512V18.584C5.60384 18.824 5.68118 19.0187 5.83584 19.168C5.99051 19.3173 6.19051 19.392 6.43584 19.392C6.69184 19.392 6.90251 19.3147 7.06784 19.16C7.23318 19.0053 7.31584 18.8 7.31584 18.544V17.536C7.31584 17.5253 7.31051 17.5173 7.29984 17.512C7.29451 17.5067 7.28651 17.5093 7.27584 17.52C7.04651 17.7813 6.71318 17.912 6.27584 17.912C5.96118 17.912 5.68918 17.848 5.45984 17.72C5.23584 17.592 5.05984 17.4053 4.93184 17.16C4.78251 16.8773 4.70784 16.5387 4.70784 16.144C4.70784 15.824 4.75851 15.5387 4.85984 15.288C4.98251 14.984 5.17451 14.752 5.43584 14.592C5.69718 14.4267 6.01184 14.344 6.37984 14.344C6.77451 14.344 7.10784 14.4347 7.37984 14.616C7.65184 14.7973 7.84651 15.0533 7.96384 15.384ZM7.18784 16.784C7.27318 16.608 7.31584 16.3813 7.31584 16.104C7.31584 15.88 7.28118 15.6907 7.21184 15.536C7.14251 15.3653 7.03851 15.2373 6.89984 15.152C6.76118 15.0613 6.59318 15.016 6.39584 15.016C6.19851 15.016 6.03051 15.0613 5.89184 15.152C5.75851 15.2373 5.65984 15.3627 5.59584 15.528C5.51584 15.6933 5.47584 15.8987 5.47584 16.144C5.47584 16.4107 5.52118 16.6293 5.61184 16.8C5.77718 17.1093 6.03851 17.264 6.39584 17.264C6.77451 17.264 7.03851 17.104 7.18784 16.784ZM12.599 20C12.551 20 12.519 19.9787 12.503 19.936L12.215 19C12.2096 18.984 12.199 18.976 12.183 18.976H9.93497C9.91897 18.976 9.9083 18.984 9.90297 19L9.61497 19.936C9.59897 19.9787 9.56697 20 9.51897 20H8.87097C8.8123 20 8.79097 19.9707 8.80697 19.912L10.559 14.464C10.575 14.4213 10.607 14.4 10.655 14.4H11.455C11.503 14.4 11.535 14.4213 11.551 14.464L13.319 19.912L13.327 19.944C13.327 19.9813 13.303 20 13.255 20H12.599ZM10.103 18.328C10.0976 18.3387 10.0976 18.3493 10.103 18.36C10.1136 18.3653 10.1243 18.368 10.135 18.368H11.975C11.9856 18.368 11.9936 18.3653 11.999 18.36C12.0096 18.3493 12.0123 18.3387 12.007 18.328L11.079 15.36C11.0736 15.3493 11.0656 15.344 11.055 15.344C11.0443 15.344 11.0363 15.3493 11.031 15.36L10.103 18.328ZM17.638 20C17.59 20 17.558 19.9787 17.542 19.936L17.254 19C17.2487 18.984 17.238 18.976 17.222 18.976H14.974C14.958 18.976 14.9474 18.984 14.942 19L14.654 19.936C14.638 19.9787 14.606 20 14.558 20H13.91C13.8514 20 13.83 19.9707 13.846 19.912L15.598 14.464C15.614 14.4213 15.646 14.4 15.694 14.4H16.494C16.542 14.4 16.574 14.4213 16.59 14.464L18.358 19.912L18.366 19.944C18.366 19.9813 18.342 20 18.294 20H17.638ZM15.142 18.328C15.1367 18.3387 15.1367 18.3493 15.142 18.36C15.1527 18.3653 15.1634 18.368 15.174 18.368H17.014C17.0247 18.368 17.0327 18.3653 17.038 18.36C17.0487 18.3493 17.0514 18.3387 17.046 18.328L16.118 15.36C16.1127 15.3493 16.1047 15.344 16.094 15.344C16.0834 15.344 16.0754 15.3493 16.07 15.36L15.142 18.328ZM22.6771 20C22.6291 20 22.5971 19.9787 22.5811 19.936L22.2931 19C22.2878 18.984 22.2771 18.976 22.2611 18.976H20.0131C19.9971 18.976 19.9864 18.984 19.9811 19L19.6931 19.936C19.6771 19.9787 19.6451 20 19.5971 20H18.9491C18.8904 20 18.8691 19.9707 18.8851 19.912L20.6371 14.464C20.6531 14.4213 20.6851 14.4 20.7331 14.4H21.5331C21.5811 14.4 21.6131 14.4213 21.6291 14.464L23.3971 19.912L23.4051 19.944C23.4051 19.9813 23.3811 20 23.3331 20H22.6771ZM20.1811 18.328C20.1758 18.3387 20.1758 18.3493 20.1811 18.36C20.1918 18.3653 20.2024 18.368 20.2131 18.368H22.0531C22.0638 18.368 22.0718 18.3653 22.0771 18.36C22.0878 18.3493 22.0904 18.3387 22.0851 18.328L21.1571 15.36C21.1518 15.3493 21.1438 15.344 21.1331 15.344C21.1224 15.344 21.1144 15.3493 21.1091 15.36L20.1811 18.328Z" fill="#393B3D"/>
</svg>