<svg width="38" height="16" viewBox="0 0 38 16" fill="none" xmlns="http://www.w3.org/2000/svg">
<path d="M36.6456 0.129333H1.35432C0.960005 0.129333 0.631409 0.452662 0.631409 0.840656V3.10395H37.3685V0.840656C37.3685 0.452662 37.0399 0.129333 36.6456 0.129333Z" fill="#768692"/>
<path d="M36.6456 16H1.35435C0.894316 16 0.5 15.5915 0.5 15.1149V0.817021C0.5 0.408511 0.894316 0 1.35435 0H36.6456C37.1057 0 37.5 0.408511 37.5 0.885106V15.183C37.5 15.5915 37.1057 16 36.6456 16ZM1.35435 0.27234C1.02575 0.27234 0.762877 0.544681 0.762877 0.885106V15.183C0.762877 15.5234 1.02575 15.7957 1.35435 15.7957H36.6456C36.9742 15.7957 37.2371 15.5234 37.2371 15.183V0.885106C37.2371 0.544681 36.9742 0.27234 36.6456 0.27234H1.35435Z" fill="#393B3D"/>
<path d="M7.32201 12.2857C7.27401 12.2857 7.24201 12.2644 7.22601 12.2217L6.93801 11.2857C6.93268 11.2697 6.92201 11.2617 6.90601 11.2617H4.65801C4.64201 11.2617 4.63134 11.2697 4.62601 11.2857L4.33801 12.2217C4.32201 12.2644 4.29001 12.2857 4.24201 12.2857H3.59401C3.53534 12.2857 3.51401 12.2564 3.53001 12.1977L5.28201 6.74972C5.29801 6.70705 5.33001 6.68572 5.37801 6.68572H6.17801C6.22601 6.68572 6.25801 6.70705 6.27401 6.74972L8.04201 12.1977L8.05001 12.2297C8.05001 12.2671 8.02601 12.2857 7.97801 12.2857H7.32201ZM4.82601 10.6137C4.82068 10.6244 4.82068 10.6351 4.82601 10.6457C4.83668 10.6511 4.84734 10.6537 4.85801 10.6537H6.69801C6.70868 10.6537 6.71668 10.6511 6.72201 10.6457C6.73268 10.6351 6.73534 10.6244 6.73001 10.6137L5.80201 7.64572C5.79668 7.63505 5.78868 7.62972 5.77801 7.62972C5.76734 7.62972 5.75934 7.63505 5.75401 7.64572L4.82601 10.6137ZM11.8811 12.2857C11.8331 12.2857 11.8011 12.2644 11.7851 12.2217L11.4971 11.2857C11.4917 11.2697 11.4811 11.2617 11.4651 11.2617H9.21707C9.20107 11.2617 9.1904 11.2697 9.18507 11.2857L8.89707 12.2217C8.88107 12.2644 8.84907 12.2857 8.80107 12.2857H8.15307C8.0944 12.2857 8.07307 12.2564 8.08907 12.1977L9.84107 6.74972C9.85707 6.70705 9.88907 6.68572 9.93707 6.68572H10.7371C10.7851 6.68572 10.8171 6.70705 10.8331 6.74972L12.6011 12.1977L12.6091 12.2297C12.6091 12.2671 12.5851 12.2857 12.5371 12.2857H11.8811ZM9.38507 10.6137C9.37974 10.6244 9.37974 10.6351 9.38507 10.6457C9.39574 10.6511 9.4064 10.6537 9.41707 10.6537H11.2571C11.2677 10.6537 11.2757 10.6511 11.2811 10.6457C11.2917 10.6351 11.2944 10.6244 11.2891 10.6137L10.3611 7.64572C10.3557 7.63505 10.3477 7.62972 10.3371 7.62972C10.3264 7.62972 10.3184 7.63505 10.3131 7.64572L9.38507 10.6137ZM17.1297 7.66972C17.2097 7.89372 17.2497 8.15239 17.2497 8.44572V10.9097C17.2497 11.3471 17.0977 11.6964 16.7937 11.9577C16.4897 12.2191 16.0924 12.3497 15.6017 12.3497C15.287 12.3497 15.007 12.2911 14.7617 12.1737C14.5217 12.0564 14.335 11.8937 14.2017 11.6857C14.0684 11.4724 14.0017 11.2297 14.0017 10.9577V10.7977C14.0017 10.7444 14.0284 10.7177 14.0817 10.7177H14.6897C14.743 10.7177 14.7697 10.7444 14.7697 10.7977V10.8697C14.7697 11.1097 14.847 11.3044 15.0017 11.4537C15.1564 11.6031 15.3564 11.6777 15.6017 11.6777C15.8577 11.6777 16.0684 11.6004 16.2337 11.4457C16.399 11.2911 16.4817 11.0857 16.4817 10.8297V9.82172C16.4817 9.81105 16.4764 9.80305 16.4657 9.79772C16.4604 9.79239 16.4524 9.79505 16.4417 9.80572C16.2124 10.0671 15.879 10.1977 15.4417 10.1977C15.127 10.1977 14.855 10.1337 14.6257 10.0057C14.4017 9.87772 14.2257 9.69105 14.0977 9.44572C13.9484 9.16305 13.8737 8.82439 13.8737 8.42972C13.8737 8.10972 13.9244 7.82439 14.0257 7.57372C14.1484 7.26972 14.3404 7.03772 14.6017 6.87772C14.863 6.71239 15.1777 6.62972 15.5457 6.62972C15.9404 6.62972 16.2737 6.72039 16.5457 6.90172C16.8177 7.08305 17.0124 7.33905 17.1297 7.66972ZM16.3537 9.06972C16.439 8.89372 16.4817 8.66705 16.4817 8.38972C16.4817 8.16572 16.447 7.97639 16.3777 7.82172C16.3084 7.65105 16.2044 7.52305 16.0657 7.43772C15.927 7.34705 15.759 7.30172 15.5617 7.30172C15.3644 7.30172 15.1964 7.34705 15.0577 7.43772C14.9244 7.52305 14.8257 7.64839 14.7617 7.81372C14.6817 7.97905 14.6417 8.18439 14.6417 8.42972C14.6417 8.69639 14.687 8.91505 14.7777 9.08572C14.943 9.39505 15.2044 9.54972 15.5617 9.54972C15.9404 9.54972 16.2044 9.38972 16.3537 9.06972ZM20.8528 7.66972C20.9328 7.89372 20.9728 8.15239 20.9728 8.44572V10.9097C20.9728 11.3471 20.8208 11.6964 20.5168 11.9577C20.2128 12.2191 19.8155 12.3497 19.3248 12.3497C19.0102 12.3497 18.7302 12.2911 18.4848 12.1737C18.2448 12.0564 18.0582 11.8937 17.9248 11.6857C17.7915 11.4724 17.7248 11.2297 17.7248 10.9577V10.7977C17.7248 10.7444 17.7515 10.7177 17.8048 10.7177H18.4128C18.4662 10.7177 18.4928 10.7444 18.4928 10.7977V10.8697C18.4928 11.1097 18.5702 11.3044 18.7248 11.4537C18.8795 11.6031 19.0795 11.6777 19.3248 11.6777C19.5808 11.6777 19.7915 11.6004 19.9568 11.4457C20.1222 11.2911 20.2048 11.0857 20.2048 10.8297V9.82172C20.2048 9.81105 20.1995 9.80305 20.1888 9.79772C20.1835 9.79239 20.1755 9.79505 20.1648 9.80572C19.9355 10.0671 19.6022 10.1977 19.1648 10.1977C18.8502 10.1977 18.5782 10.1337 18.3488 10.0057C18.1248 9.87772 17.9488 9.69105 17.8208 9.44572C17.6715 9.16305 17.5968 8.82439 17.5968 8.42972C17.5968 8.10972 17.6475 7.82439 17.7488 7.57372C17.8715 7.26972 18.0635 7.03772 18.3248 6.87772C18.5862 6.71239 18.9008 6.62972 19.2688 6.62972C19.6635 6.62972 19.9968 6.72039 20.2688 6.90172C20.5408 7.08305 20.7355 7.33905 20.8528 7.66972ZM20.0768 9.06972C20.1622 8.89372 20.2048 8.66705 20.2048 8.38972C20.2048 8.16572 20.1702 7.97639 20.1008 7.82172C20.0315 7.65105 19.9275 7.52305 19.7888 7.43772C19.6502 7.34705 19.4822 7.30172 19.2848 7.30172C19.0875 7.30172 18.9195 7.34705 18.7808 7.43772C18.6475 7.52305 18.5488 7.64839 18.4848 7.81372C18.4048 7.97905 18.3648 8.18439 18.3648 8.42972C18.3648 8.69639 18.4102 8.91505 18.5008 9.08572C18.6662 9.39505 18.9275 9.54972 19.2848 9.54972C19.6635 9.54972 19.9275 9.38972 20.0768 9.06972ZM24.5759 7.66972C24.6559 7.89372 24.6959 8.15239 24.6959 8.44572V10.9097C24.6959 11.3471 24.5439 11.6964 24.2399 11.9577C23.9359 12.2191 23.5386 12.3497 23.0479 12.3497C22.7333 12.3497 22.4533 12.2911 22.2079 12.1737C21.9679 12.0564 21.7813 11.8937 21.6479 11.6857C21.5146 11.4724 21.4479 11.2297 21.4479 10.9577V10.7977C21.4479 10.7444 21.4746 10.7177 21.5279 10.7177H22.1359C22.1893 10.7177 22.2159 10.7444 22.2159 10.7977V10.8697C22.2159 11.1097 22.2933 11.3044 22.4479 11.4537C22.6026 11.6031 22.8026 11.6777 23.0479 11.6777C23.3039 11.6777 23.5146 11.6004 23.6799 11.4457C23.8453 11.2911 23.9279 11.0857 23.9279 10.8297V9.82172C23.9279 9.81105 23.9226 9.80305 23.9119 9.79772C23.9066 9.79239 23.8986 9.79505 23.8879 9.80572C23.6586 10.0671 23.3253 10.1977 22.8879 10.1977C22.5733 10.1977 22.3013 10.1337 22.0719 10.0057C21.8479 9.87772 21.6719 9.69105 21.5439 9.44572C21.3946 9.16305 21.3199 8.82439 21.3199 8.42972C21.3199 8.10972 21.3706 7.82439 21.4719 7.57372C21.5946 7.26972 21.7866 7.03772 22.0479 6.87772C22.3093 6.71239 22.6239 6.62972 22.9919 6.62972C23.3866 6.62972 23.7199 6.72039 23.9919 6.90172C24.2639 7.08305 24.4586 7.33905 24.5759 7.66972ZM23.7999 9.06972C23.8853 8.89372 23.9279 8.66705 23.9279 8.38972C23.9279 8.16572 23.8933 7.97639 23.8239 7.82172C23.7546 7.65105 23.6506 7.52305 23.5119 7.43772C23.3733 7.34705 23.2053 7.30172 23.0079 7.30172C22.8106 7.30172 22.6426 7.34705 22.5039 7.43772C22.3706 7.52305 22.2719 7.64839 22.2079 7.81372C22.1279 7.97905 22.0879 8.18439 22.0879 8.42972C22.0879 8.69639 22.1333 8.91505 22.2239 9.08572C22.3893 9.39505 22.6506 9.54972 23.0079 9.54972C23.3866 9.54972 23.6506 9.38972 23.7999 9.06972ZM29.8526 12.2857C29.8046 12.2857 29.7726 12.2644 29.7566 12.2217L29.4686 11.2857C29.4633 11.2697 29.4526 11.2617 29.4366 11.2617H27.1886C27.1726 11.2617 27.162 11.2697 27.1566 11.2857L26.8686 12.2217C26.8526 12.2644 26.8206 12.2857 26.7726 12.2857H26.1246C26.066 12.2857 26.0446 12.2564 26.0606 12.1977L27.8126 6.74972C27.8286 6.70705 27.8606 6.68572 27.9086 6.68572H28.7086C28.7566 6.68572 28.7886 6.70705 28.8046 6.74972L30.5726 12.1977L30.5806 12.2297C30.5806 12.2671 30.5566 12.2857 30.5086 12.2857H29.8526ZM27.3566 10.6137C27.3513 10.6244 27.3513 10.6351 27.3566 10.6457C27.3673 10.6511 27.378 10.6537 27.3886 10.6537H29.2286C29.2393 10.6537 29.2473 10.6511 29.2526 10.6457C29.2633 10.6351 29.266 10.6244 29.2606 10.6137L28.3326 7.64572C28.3273 7.63505 28.3193 7.62972 28.3086 7.62972C28.298 7.62972 28.29 7.63505 28.2846 7.64572L27.3566 10.6137ZM34.4117 12.2857C34.3637 12.2857 34.3317 12.2644 34.3157 12.2217L34.0277 11.2857C34.0224 11.2697 34.0117 11.2617 33.9957 11.2617H31.7477C31.7317 11.2617 31.721 11.2697 31.7157 11.2857L31.4277 12.2217C31.4117 12.2644 31.3797 12.2857 31.3317 12.2857H30.6837C30.625 12.2857 30.6037 12.2564 30.6197 12.1977L32.3717 6.74972C32.3877 6.70705 32.4197 6.68572 32.4677 6.68572H33.2677C33.3157 6.68572 33.3477 6.70705 33.3637 6.74972L35.1317 12.1977L35.1397 12.2297C35.1397 12.2671 35.1157 12.2857 35.0677 12.2857H34.4117ZM31.9157 10.6137C31.9104 10.6244 31.9104 10.6351 31.9157 10.6457C31.9264 10.6511 31.937 10.6537 31.9477 10.6537H33.7877C33.7984 10.6537 33.8064 10.6511 33.8117 10.6457C33.8224 10.6351 33.825 10.6244 33.8197 10.6137L32.8917 7.64572C32.8864 7.63505 32.8784 7.62972 32.8677 7.62972C32.857 7.62972 32.849 7.63505 32.8437 7.64572L31.9157 10.6137Z" fill="#393B3D"/>
</svg>