<svg width="38" height="16" viewBox="0 0 38 16" fill="none" xmlns="http://www.w3.org/2000/svg">
<path d="M36.6456 0.130499H1.35432C0.960005 0.130499 0.631409 0.45674 0.631409 0.848229V3.13192H37.3685V0.848229C37.3685 0.45674 37.0399 0.130499 36.6456 0.130499Z" fill="#C4C4C4"/>
<path d="M36.6456 16H1.35435C0.894316 16 0.5 15.5915 0.5 15.1149V0.817021C0.5 0.408511 0.894316 0 1.35435 0H36.6456C37.1057 0 37.5 0.408511 37.5 0.885106V15.183C37.5 15.5915 37.1057 16 36.6456 16ZM1.35435 0.27234C1.02575 0.27234 0.762877 0.544681 0.762877 0.885106V15.183C0.762877 15.5234 1.02575 15.7957 1.35435 15.7957H36.6456C36.9742 15.7957 37.2371 15.5234 37.2371 15.183V0.885106C37.2371 0.544681 36.9742 0.27234 36.6456 0.27234H1.35435Z" fill="#393B3D"/>
<path d="M7.32201 12.3333C7.27401 12.3333 7.24201 12.312 7.22601 12.2693L6.93801 11.3333C6.93268 11.3173 6.92201 11.3093 6.90601 11.3093H4.65801C4.64201 11.3093 4.63134 11.3173 4.62601 11.3333L4.33801 12.2693C4.32201 12.312 4.29001 12.3333 4.24201 12.3333H3.59401C3.53534 12.3333 3.51401 12.304 3.53001 12.2453L5.28201 6.79734C5.29801 6.75467 5.33001 6.73334 5.37801 6.73334H6.17801C6.22601 6.73334 6.25801 6.75467 6.27401 6.79734L8.04201 12.2453L8.05001 12.2773C8.05001 12.3147 8.02601 12.3333 7.97801 12.3333H7.32201ZM4.82601 10.6613C4.82068 10.672 4.82068 10.6827 4.82601 10.6933C4.83668 10.6987 4.84734 10.7013 4.85801 10.7013H6.69801C6.70868 10.7013 6.71668 10.6987 6.72201 10.6933C6.73268 10.6827 6.73534 10.672 6.73001 10.6613L5.80201 7.69334C5.79668 7.68267 5.78868 7.67734 5.77801 7.67734C5.76734 7.67734 5.75934 7.68267 5.75401 7.69334L4.82601 10.6613ZM11.8811 12.3333C11.8331 12.3333 11.8011 12.312 11.7851 12.2693L11.4971 11.3333C11.4917 11.3173 11.4811 11.3093 11.4651 11.3093H9.21707C9.20107 11.3093 9.1904 11.3173 9.18507 11.3333L8.89707 12.2693C8.88107 12.312 8.84907 12.3333 8.80107 12.3333H8.15307C8.0944 12.3333 8.07307 12.304 8.08907 12.2453L9.84107 6.79734C9.85707 6.75467 9.88907 6.73334 9.93707 6.73334H10.7371C10.7851 6.73334 10.8171 6.75467 10.8331 6.79734L12.6011 12.2453L12.6091 12.2773C12.6091 12.3147 12.5851 12.3333 12.5371 12.3333H11.8811ZM9.38507 10.6613C9.37974 10.672 9.37974 10.6827 9.38507 10.6933C9.39574 10.6987 9.4064 10.7013 9.41707 10.7013H11.2571C11.2677 10.7013 11.2757 10.6987 11.2811 10.6933C11.2917 10.6827 11.2944 10.672 11.2891 10.6613L10.3611 7.69334C10.3557 7.68267 10.3477 7.67734 10.3371 7.67734C10.3264 7.67734 10.3184 7.68267 10.3131 7.69334L9.38507 10.6613ZM17.1297 7.71734C17.2097 7.94134 17.2497 8.20001 17.2497 8.49334V10.9573C17.2497 11.3947 17.0977 11.744 16.7937 12.0053C16.4897 12.2667 16.0924 12.3973 15.6017 12.3973C15.287 12.3973 15.007 12.3387 14.7617 12.2213C14.5217 12.104 14.335 11.9413 14.2017 11.7333C14.0684 11.52 14.0017 11.2773 14.0017 11.0053V10.8453C14.0017 10.792 14.0284 10.7653 14.0817 10.7653H14.6897C14.743 10.7653 14.7697 10.792 14.7697 10.8453V10.9173C14.7697 11.1573 14.847 11.352 15.0017 11.5013C15.1564 11.6507 15.3564 11.7253 15.6017 11.7253C15.8577 11.7253 16.0684 11.648 16.2337 11.4933C16.399 11.3387 16.4817 11.1333 16.4817 10.8773V9.86934C16.4817 9.85867 16.4764 9.85067 16.4657 9.84534C16.4604 9.84001 16.4524 9.84267 16.4417 9.85334C16.2124 10.1147 15.879 10.2453 15.4417 10.2453C15.127 10.2453 14.855 10.1813 14.6257 10.0533C14.4017 9.92534 14.2257 9.73867 14.0977 9.49334C13.9484 9.21067 13.8737 8.87201 13.8737 8.47734C13.8737 8.15734 13.9244 7.87201 14.0257 7.62134C14.1484 7.31734 14.3404 7.08534 14.6017 6.92534C14.863 6.76001 15.1777 6.67734 15.5457 6.67734C15.9404 6.67734 16.2737 6.76801 16.5457 6.94934C16.8177 7.13067 17.0124 7.38667 17.1297 7.71734ZM16.3537 9.11734C16.439 8.94134 16.4817 8.71467 16.4817 8.43734C16.4817 8.21334 16.447 8.02401 16.3777 7.86934C16.3084 7.69867 16.2044 7.57067 16.0657 7.48534C15.927 7.39467 15.759 7.34934 15.5617 7.34934C15.3644 7.34934 15.1964 7.39467 15.0577 7.48534C14.9244 7.57067 14.8257 7.69601 14.7617 7.86134C14.6817 8.02667 14.6417 8.23201 14.6417 8.47734C14.6417 8.74401 14.687 8.96267 14.7777 9.13334C14.943 9.44267 15.2044 9.59734 15.5617 9.59734C15.9404 9.59734 16.2044 9.43734 16.3537 9.11734ZM20.8528 7.71734C20.9328 7.94134 20.9728 8.20001 20.9728 8.49334V10.9573C20.9728 11.3947 20.8208 11.744 20.5168 12.0053C20.2128 12.2667 19.8155 12.3973 19.3248 12.3973C19.0102 12.3973 18.7302 12.3387 18.4848 12.2213C18.2448 12.104 18.0582 11.9413 17.9248 11.7333C17.7915 11.52 17.7248 11.2773 17.7248 11.0053V10.8453C17.7248 10.792 17.7515 10.7653 17.8048 10.7653H18.4128C18.4662 10.7653 18.4928 10.792 18.4928 10.8453V10.9173C18.4928 11.1573 18.5702 11.352 18.7248 11.5013C18.8795 11.6507 19.0795 11.7253 19.3248 11.7253C19.5808 11.7253 19.7915 11.648 19.9568 11.4933C20.1222 11.3387 20.2048 11.1333 20.2048 10.8773V9.86934C20.2048 9.85867 20.1995 9.85067 20.1888 9.84534C20.1835 9.84001 20.1755 9.84267 20.1648 9.85334C19.9355 10.1147 19.6022 10.2453 19.1648 10.2453C18.8502 10.2453 18.5782 10.1813 18.3488 10.0533C18.1248 9.92534 17.9488 9.73867 17.8208 9.49334C17.6715 9.21067 17.5968 8.87201 17.5968 8.47734C17.5968 8.15734 17.6475 7.87201 17.7488 7.62134C17.8715 7.31734 18.0635 7.08534 18.3248 6.92534C18.5862 6.76001 18.9008 6.67734 19.2688 6.67734C19.6635 6.67734 19.9968 6.76801 20.2688 6.94934C20.5408 7.13067 20.7355 7.38667 20.8528 7.71734ZM20.0768 9.11734C20.1622 8.94134 20.2048 8.71467 20.2048 8.43734C20.2048 8.21334 20.1702 8.02401 20.1008 7.86934C20.0315 7.69867 19.9275 7.57067 19.7888 7.48534C19.6502 7.39467 19.4822 7.34934 19.2848 7.34934C19.0875 7.34934 18.9195 7.39467 18.7808 7.48534C18.6475 7.57067 18.5488 7.69601 18.4848 7.86134C18.4048 8.02667 18.3648 8.23201 18.3648 8.47734C18.3648 8.74401 18.4102 8.96267 18.5008 9.13334C18.6662 9.44267 18.9275 9.59734 19.2848 9.59734C19.6635 9.59734 19.9275 9.43734 20.0768 9.11734ZM24.5759 7.71734C24.6559 7.94134 24.6959 8.20001 24.6959 8.49334V10.9573C24.6959 11.3947 24.5439 11.744 24.2399 12.0053C23.9359 12.2667 23.5386 12.3973 23.0479 12.3973C22.7333 12.3973 22.4533 12.3387 22.2079 12.2213C21.9679 12.104 21.7813 11.9413 21.6479 11.7333C21.5146 11.52 21.4479 11.2773 21.4479 11.0053V10.8453C21.4479 10.792 21.4746 10.7653 21.5279 10.7653H22.1359C22.1893 10.7653 22.2159 10.792 22.2159 10.8453V10.9173C22.2159 11.1573 22.2933 11.352 22.4479 11.5013C22.6026 11.6507 22.8026 11.7253 23.0479 11.7253C23.3039 11.7253 23.5146 11.648 23.6799 11.4933C23.8453 11.3387 23.9279 11.1333 23.9279 10.8773V9.86934C23.9279 9.85867 23.9226 9.85067 23.9119 9.84534C23.9066 9.84001 23.8986 9.84267 23.8879 9.85334C23.6586 10.1147 23.3253 10.2453 22.8879 10.2453C22.5733 10.2453 22.3013 10.1813 22.0719 10.0533C21.8479 9.92534 21.6719 9.73867 21.5439 9.49334C21.3946 9.21067 21.3199 8.87201 21.3199 8.47734C21.3199 8.15734 21.3706 7.87201 21.4719 7.62134C21.5946 7.31734 21.7866 7.08534 22.0479 6.92534C22.3093 6.76001 22.6239 6.67734 22.9919 6.67734C23.3866 6.67734 23.7199 6.76801 23.9919 6.94934C24.2639 7.13067 24.4586 7.38667 24.5759 7.71734ZM23.7999 9.11734C23.8853 8.94134 23.9279 8.71467 23.9279 8.43734C23.9279 8.21334 23.8933 8.02401 23.8239 7.86934C23.7546 7.69867 23.6506 7.57067 23.5119 7.48534C23.3733 7.39467 23.2053 7.34934 23.0079 7.34934C22.8106 7.34934 22.6426 7.39467 22.5039 7.48534C22.3706 7.57067 22.2719 7.69601 22.2079 7.86134C22.1279 8.02667 22.0879 8.23201 22.0879 8.47734C22.0879 8.74401 22.1333 8.96267 22.2239 9.13334C22.3893 9.44267 22.6506 9.59734 23.0079 9.59734C23.3866 9.59734 23.6506 9.43734 23.7999 9.11734ZM29.8526 12.3333C29.8046 12.3333 29.7726 12.312 29.7566 12.2693L29.4686 11.3333C29.4633 11.3173 29.4526 11.3093 29.4366 11.3093H27.1886C27.1726 11.3093 27.162 11.3173 27.1566 11.3333L26.8686 12.2693C26.8526 12.312 26.8206 12.3333 26.7726 12.3333H26.1246C26.066 12.3333 26.0446 12.304 26.0606 12.2453L27.8126 6.79734C27.8286 6.75467 27.8606 6.73334 27.9086 6.73334H28.7086C28.7566 6.73334 28.7886 6.75467 28.8046 6.79734L30.5726 12.2453L30.5806 12.2773C30.5806 12.3147 30.5566 12.3333 30.5086 12.3333H29.8526ZM27.3566 10.6613C27.3513 10.672 27.3513 10.6827 27.3566 10.6933C27.3673 10.6987 27.378 10.7013 27.3886 10.7013H29.2286C29.2393 10.7013 29.2473 10.6987 29.2526 10.6933C29.2633 10.6827 29.266 10.672 29.2606 10.6613L28.3326 7.69334C28.3273 7.68267 28.3193 7.67734 28.3086 7.67734C28.298 7.67734 28.29 7.68267 28.2846 7.69334L27.3566 10.6613ZM34.4117 12.3333C34.3637 12.3333 34.3317 12.312 34.3157 12.2693L34.0277 11.3333C34.0224 11.3173 34.0117 11.3093 33.9957 11.3093H31.7477C31.7317 11.3093 31.721 11.3173 31.7157 11.3333L31.4277 12.2693C31.4117 12.312 31.3797 12.3333 31.3317 12.3333H30.6837C30.625 12.3333 30.6037 12.304 30.6197 12.2453L32.3717 6.79734C32.3877 6.75467 32.4197 6.73334 32.4677 6.73334H33.2677C33.3157 6.73334 33.3477 6.75467 33.3637 6.79734L35.1317 12.2453L35.1397 12.2773C35.1397 12.3147 35.1157 12.3333 35.0677 12.3333H34.4117ZM31.9157 10.6613C31.9104 10.672 31.9104 10.6827 31.9157 10.6933C31.9264 10.6987 31.937 10.7013 31.9477 10.7013H33.7877C33.7984 10.7013 33.8064 10.6987 33.8117 10.6933C33.8224 10.6827 33.825 10.672 33.8197 10.6613L32.8917 7.69334C32.8864 7.68267 32.8784 7.67734 32.8677 7.67734C32.857 7.67734 32.849 7.68267 32.8437 7.69334L31.9157 10.6613Z" fill="#393B3D"/>
</svg>