<svg width="38" height="16" viewBox="0 0 38 16" fill="none" xmlns="http://www.w3.org/2000/svg">
<path d="M35.7514 14.0936H2.24855C1.689 14.0936 1.1994 13.617 1.1994 13.0724V4.01703C1.1994 3.47235 1.689 2.99575 2.24855 2.99575H35.7514C36.3109 2.99575 36.8005 3.47235 36.8005 4.01703V13.0724C36.8005 13.617 36.3109 14.0936 35.7514 14.0936Z" fill="#393B3D"/>
<path d="M36.5907 16H1.40926C0.91966 16 0.5 15.5915 0.5 15.1149V0.817021C0.5 0.408511 0.91966 0 1.40926 0H36.5907C37.0803 0 37.5 0.408511 37.5 0.885106V15.183C37.5 15.5915 37.0803 16 36.5907 16ZM1.40926 0.27234C1.05955 0.27234 0.779773 0.544681 0.779773 0.885106V15.183C0.779773 15.5234 1.05955 15.7957 1.40926 15.7957H36.5907C36.9404 15.7957 37.2202 15.5234 37.2202 15.183V0.885106C37.2202 0.544681 36.9404 0.27234 36.5907 0.27234H1.40926Z" fill="#393B3D"/>
<path d="M13.1344 11.766C13.0864 11.766 13.0544 11.7446 13.0384 11.702L12.7504 10.766C12.745 10.75 12.7344 10.742 12.7184 10.742H10.4704C10.4544 10.742 10.4437 10.75 10.4384 10.766L10.1504 11.702C10.1344 11.7446 10.1024 11.766 10.0544 11.766H9.40638C9.34771 11.766 9.32638 11.7366 9.34238 11.678L11.0944 6.22995C11.1104 6.18729 11.1424 6.16595 11.1904 6.16595H11.9904C12.0384 6.16595 12.0704 6.18729 12.0864 6.22995L13.8544 11.678L13.8624 11.71C13.8624 11.7473 13.8384 11.766 13.7904 11.766H13.1344ZM10.6384 10.094C10.633 10.1046 10.633 10.1153 10.6384 10.126C10.649 10.1313 10.6597 10.134 10.6704 10.134H12.5104C12.521 10.134 12.529 10.1313 12.5344 10.126C12.545 10.1153 12.5477 10.1046 12.5424 10.094L11.6144 7.12595C11.609 7.11529 11.601 7.10995 11.5904 7.10995C11.5797 7.10995 11.5717 7.11529 11.5664 7.12595L10.6384 10.094ZM17.6534 11.766C17.6054 11.766 17.5734 11.7446 17.5574 11.702L17.2694 10.766C17.2641 10.75 17.2534 10.742 17.2374 10.742H14.9894C14.9734 10.742 14.9628 10.75 14.9574 10.766L14.6694 11.702C14.6534 11.7446 14.6214 11.766 14.5734 11.766H13.9254C13.8668 11.766 13.8454 11.7366 13.8614 11.678L15.6134 6.22995C15.6294 6.18729 15.6614 6.16595 15.7094 6.16595H16.5094C16.5574 6.16595 16.5894 6.18729 16.6054 6.22995L18.3734 11.678L18.3814 11.71C18.3814 11.7473 18.3574 11.766 18.3094 11.766H17.6534ZM15.1574 10.094C15.1521 10.1046 15.1521 10.1153 15.1574 10.126C15.1681 10.1313 15.1788 10.134 15.1894 10.134H17.0294C17.0401 10.134 17.0481 10.1313 17.0534 10.126C17.0641 10.1153 17.0668 10.1046 17.0614 10.094L16.1334 7.12595C16.1281 7.11529 16.1201 7.10995 16.1094 7.10995C16.0988 7.10995 16.0908 7.11529 16.0854 7.12595L15.1574 10.094ZM22.1725 11.766C22.1245 11.766 22.0925 11.7446 22.0765 11.702L21.7885 10.766C21.7832 10.75 21.7725 10.742 21.7565 10.742H19.5085C19.4925 10.742 19.4818 10.75 19.4765 10.766L19.1885 11.702C19.1725 11.7446 19.1405 11.766 19.0925 11.766H18.4445C18.3858 11.766 18.3645 11.7366 18.3805 11.678L20.1325 6.22995C20.1485 6.18729 20.1805 6.16595 20.2285 6.16595H21.0285C21.0765 6.16595 21.1085 6.18729 21.1245 6.22995L22.8925 11.678L22.9005 11.71C22.9005 11.7473 22.8765 11.766 22.8285 11.766H22.1725ZM19.6765 10.094C19.6712 10.1046 19.6712 10.1153 19.6765 10.126C19.6872 10.1313 19.6978 10.134 19.7085 10.134H21.5485C21.5592 10.134 21.5672 10.1313 21.5725 10.126C21.5832 10.1153 21.5858 10.1046 21.5805 10.094L20.6525 7.12595C20.6472 7.11529 20.6392 7.10995 20.6285 7.10995C20.6178 7.10995 20.6098 7.11529 20.6045 7.12595L19.6765 10.094ZM27.3411 7.14995C27.4211 7.37395 27.4611 7.63262 27.4611 7.92595V10.39C27.4611 10.8273 27.3091 11.1766 27.0051 11.438C26.7011 11.6993 26.3038 11.83 25.8131 11.83C25.4985 11.83 25.2185 11.7713 24.9731 11.654C24.7331 11.5366 24.5465 11.374 24.4131 11.166C24.2798 10.9526 24.2131 10.71 24.2131 10.438V10.278C24.2131 10.2246 24.2398 10.198 24.2931 10.198H24.9011C24.9545 10.198 24.9811 10.2246 24.9811 10.278V10.35C24.9811 10.59 25.0585 10.7846 25.2131 10.934C25.3678 11.0833 25.5678 11.158 25.8131 11.158C26.0691 11.158 26.2798 11.0806 26.4451 10.926C26.6105 10.7713 26.6931 10.566 26.6931 10.31V9.30195C26.6931 9.29129 26.6878 9.28329 26.6771 9.27795C26.6718 9.27262 26.6638 9.27529 26.6531 9.28595C26.4238 9.54729 26.0905 9.67795 25.6531 9.67795C25.3385 9.67795 25.0665 9.61395 24.8371 9.48595C24.6131 9.35795 24.4371 9.17129 24.3091 8.92595C24.1598 8.64329 24.0851 8.30462 24.0851 7.90995C24.0851 7.58995 24.1358 7.30462 24.2371 7.05395C24.3598 6.74995 24.5518 6.51795 24.8131 6.35795C25.0745 6.19262 25.3891 6.10995 25.7571 6.10995C26.1518 6.10995 26.4851 6.20062 26.7571 6.38195C27.0291 6.56329 27.2238 6.81929 27.3411 7.14995ZM26.5651 8.54995C26.6505 8.37395 26.6931 8.14729 26.6931 7.86995C26.6931 7.64595 26.6585 7.45662 26.5891 7.30195C26.5198 7.13129 26.4158 7.00329 26.2771 6.91795C26.1385 6.82729 25.9705 6.78195 25.7731 6.78195C25.5758 6.78195 25.4078 6.82729 25.2691 6.91795C25.1358 7.00329 25.0371 7.12862 24.9731 7.29395C24.8931 7.45929 24.8531 7.66462 24.8531 7.90995C24.8531 8.17662 24.8985 8.39529 24.9891 8.56595C25.1545 8.87529 25.4158 9.02995 25.7731 9.02995C26.1518 9.02995 26.4158 8.86995 26.5651 8.54995ZM31.0243 7.14995C31.1043 7.37395 31.1443 7.63262 31.1443 7.92595V10.39C31.1443 10.8273 30.9923 11.1766 30.6883 11.438C30.3843 11.6993 29.9869 11.83 29.4963 11.83C29.1816 11.83 28.9016 11.7713 28.6563 11.654C28.4163 11.5366 28.2296 11.374 28.0963 11.166C27.9629 10.9526 27.8963 10.71 27.8963 10.438V10.278C27.8963 10.2246 27.9229 10.198 27.9763 10.198H28.5843C28.6376 10.198 28.6643 10.2246 28.6643 10.278V10.35C28.6643 10.59 28.7416 10.7846 28.8963 10.934C29.0509 11.0833 29.2509 11.158 29.4963 11.158C29.7523 11.158 29.9629 11.0806 30.1283 10.926C30.2936 10.7713 30.3763 10.566 30.3763 10.31V9.30195C30.3763 9.29129 30.3709 9.28329 30.3603 9.27795C30.3549 9.27262 30.3469 9.27529 30.3363 9.28595C30.1069 9.54729 29.7736 9.67795 29.3363 9.67795C29.0216 9.67795 28.7496 9.61395 28.5203 9.48595C28.2963 9.35795 28.1203 9.17129 27.9923 8.92595C27.8429 8.64329 27.7683 8.30462 27.7683 7.90995C27.7683 7.58995 27.8189 7.30462 27.9203 7.05395C28.0429 6.74995 28.2349 6.51795 28.4963 6.35795C28.7576 6.19262 29.0723 6.10995 29.4403 6.10995C29.8349 6.10995 30.1683 6.20062 30.4403 6.38195C30.7123 6.56329 30.9069 6.81929 31.0243 7.14995ZM30.2483 8.54995C30.3336 8.37395 30.3763 8.14729 30.3763 7.86995C30.3763 7.64595 30.3416 7.45662 30.2723 7.30195C30.2029 7.13129 30.0989 7.00329 29.9603 6.91795C29.8216 6.82729 29.6536 6.78195 29.4563 6.78195C29.2589 6.78195 29.0909 6.82729 28.9523 6.91795C28.8189 7.00329 28.7203 7.12862 28.6563 7.29395C28.5763 7.45929 28.5363 7.66462 28.5363 7.90995C28.5363 8.17662 28.5816 8.39529 28.6723 8.56595C28.8376 8.87529 29.0989 9.02995 29.4563 9.02995C29.8349 9.02995 30.0989 8.86995 30.2483 8.54995ZM34.7074 7.14995C34.7874 7.37395 34.8274 7.63262 34.8274 7.92595V10.39C34.8274 10.8273 34.6754 11.1766 34.3714 11.438C34.0674 11.6993 33.67 11.83 33.1794 11.83C32.8647 11.83 32.5847 11.7713 32.3394 11.654C32.0994 11.5366 31.9127 11.374 31.7794 11.166C31.646 10.9526 31.5794 10.71 31.5794 10.438V10.278C31.5794 10.2246 31.606 10.198 31.6594 10.198H32.2674C32.3207 10.198 32.3474 10.2246 32.3474 10.278V10.35C32.3474 10.59 32.4247 10.7846 32.5794 10.934C32.734 11.0833 32.934 11.158 33.1794 11.158C33.4354 11.158 33.646 11.0806 33.8114 10.926C33.9767 10.7713 34.0594 10.566 34.0594 10.31V9.30195C34.0594 9.29129 34.054 9.28329 34.0434 9.27795C34.038 9.27262 34.03 9.27529 34.0194 9.28595C33.79 9.54729 33.4567 9.67795 33.0194 9.67795C32.7047 9.67795 32.4327 9.61395 32.2034 9.48595C31.9794 9.35795 31.8034 9.17129 31.6754 8.92595C31.526 8.64329 31.4514 8.30462 31.4514 7.90995C31.4514 7.58995 31.502 7.30462 31.6034 7.05395C31.726 6.74995 31.918 6.51795 32.1794 6.35795C32.4407 6.19262 32.7554 6.10995 33.1234 6.10995C33.518 6.10995 33.8514 6.20062 34.1234 6.38195C34.3954 6.56329 34.59 6.81929 34.7074 7.14995ZM33.9314 8.54995C34.0167 8.37395 34.0594 8.14729 34.0594 7.86995C34.0594 7.64595 34.0247 7.45662 33.9554 7.30195C33.886 7.13129 33.782 7.00329 33.6434 6.91795C33.5047 6.82729 33.3367 6.78195 33.1394 6.78195C32.942 6.78195 32.774 6.82729 32.6354 6.91795C32.502 7.00329 32.4034 7.12862 32.3394 7.29395C32.2594 7.45929 32.2194 7.66462 32.2194 7.90995C32.2194 8.17662 32.2647 8.39529 32.3554 8.56595C32.5207 8.87529 32.782 9.02995 33.1394 9.02995C33.518 9.02995 33.782 8.86995 33.9314 8.54995Z" fill="white"/>
<path d="M3.1037 7.61609C3.1237 7.60609 3.14536 7.60109 3.1687 7.60109H3.5637C3.59703 7.60109 3.6137 7.61776 3.6137 7.65109V11.0511C3.6137 11.0844 3.59703 11.1011 3.5637 11.1011H3.1837C3.15036 11.1011 3.1337 11.0844 3.1337 11.0511V8.11609C3.1337 8.10942 3.13036 8.10442 3.1237 8.10109C3.12036 8.09776 3.11536 8.09776 3.1087 8.10109L2.5837 8.28109C2.57703 8.28442 2.5687 8.28609 2.5587 8.28609C2.5387 8.28609 2.52703 8.27276 2.5237 8.24609L2.5037 7.96109C2.5037 7.92776 2.5137 7.90776 2.5337 7.90109L3.1037 7.61609ZM5.09651 11.1511C4.75984 11.1511 4.49151 11.0561 4.29151 10.8661C4.09484 10.6728 3.99651 10.4144 3.99651 10.0911V8.61109C3.99651 8.28776 4.09484 8.03109 4.29151 7.84109C4.49151 7.65109 4.75984 7.55609 5.09651 7.55609C5.43318 7.55609 5.70151 7.65109 5.90151 7.84109C6.10484 8.03109 6.20651 8.28776 6.20651 8.61109V10.0911C6.20651 10.4144 6.10484 10.6728 5.90151 10.8661C5.70151 11.0561 5.43318 11.1511 5.09651 11.1511ZM5.09651 10.7361C5.28984 10.7361 5.44318 10.6811 5.55651 10.5711C5.66984 10.4578 5.72651 10.3078 5.72651 10.1211V8.59109C5.72651 8.40442 5.66984 8.25609 5.55651 8.14609C5.44318 8.03276 5.28984 7.97609 5.09651 7.97609C4.90984 7.97609 4.75984 8.03276 4.64651 8.14609C4.53318 8.25609 4.47651 8.40442 4.47651 8.59109V10.1211C4.47651 10.3078 4.53318 10.4578 4.64651 10.5711C4.75984 10.6811 4.90984 10.7361 5.09651 10.7361ZM6.93124 7.61609C6.95124 7.60609 6.9729 7.60109 6.99624 7.60109H7.39124C7.42457 7.60109 7.44124 7.61776 7.44124 7.65109V11.0511C7.44124 11.0844 7.42457 11.1011 7.39124 11.1011H7.01124C6.9779 11.1011 6.96124 11.0844 6.96124 11.0511V8.11609C6.96124 8.10942 6.9579 8.10442 6.95124 8.10109C6.9479 8.09776 6.9429 8.09776 6.93624 8.10109L6.41124 8.28109C6.40457 8.28442 6.39624 8.28609 6.38624 8.28609C6.36624 8.28609 6.35457 8.27276 6.35124 8.24609L6.33124 7.96109C6.33124 7.92776 6.34124 7.90776 6.36124 7.90109L6.93124 7.61609Z" fill="white"/>
</svg>