<svg width="30" height="30" viewBox="0 0 30 30" fill="none" xmlns="http://www.w3.org/2000/svg">
<g clip-path="url(#clip0)">
<path d="M26.2746 19.8545C26.1981 19.8545 26.1293 19.8545 26.0528 19.8466C23.0008 19.6096 21.3487 18.6616 20.4614 18.1481L15.8644 15.5016C15.7649 15.4463 15.6961 15.3436 15.6731 15.2251L15.2907 12.9184C15.2754 12.7999 15.306 12.6814 15.3825 12.5945C15.459 12.5076 15.5584 12.4523 15.6808 12.4602L18.6256 12.5471L17.8837 10.4141C17.8301 10.2561 17.876 10.0823 17.9984 9.97959C18.1208 9.86899 18.2967 9.85319 18.4344 9.93219L23.2609 12.713C24.0105 13.1317 24.7983 13.582 26.4964 13.7084C28.1333 13.8348 29.3648 15.312 29.2424 17.0026C29.1276 18.6221 27.812 19.8545 26.2746 19.8545ZM20.8285 17.4608C21.6623 17.9427 23.2227 18.8433 26.1063 19.0645C27.3225 19.1593 28.3857 18.2113 28.4775 16.9552C28.5693 15.6991 27.6514 14.601 26.4352 14.5062C24.5689 14.3641 23.6663 13.8506 22.9396 13.4477L18.9469 11.1488L19.5359 12.8236C19.5818 12.95 19.5588 13.0843 19.49 13.187C19.4135 13.2897 19.2911 13.345 19.1687 13.3529L16.1244 13.2581L16.3921 14.9091L20.8285 17.4608Z" fill="#0033A0"/>
<path d="M19.1303 20.6048C19.8696 20.6048 20.4689 19.9859 20.4689 19.2223C20.4689 18.4588 19.8696 17.8398 19.1303 17.8398C18.391 17.8398 17.7917 18.4588 17.7917 19.2223C17.7917 19.9859 18.391 20.6048 19.1303 20.6048Z" stroke="#0033A0" stroke-miterlimit="10"/>
<path d="M19.1304 19.5852C19.3247 19.5852 19.4823 19.4225 19.4823 19.2218C19.4823 19.0211 19.3247 18.8584 19.1304 18.8584C18.9361 18.8584 18.7786 19.0211 18.7786 19.2218C18.7786 19.4225 18.9361 19.5852 19.1304 19.5852Z" fill="#0033A0"/>
<path d="M6.16568 16.6208C5.31664 16.6208 4.29933 16.526 3.09844 16.2574C2.31825 16.0836 1.66044 15.6017 1.22445 14.9144C0.79611 14.2192 0.650779 13.3976 0.819056 12.5997C1.17091 10.9408 2.76189 9.89007 4.36052 10.2535C6.03564 10.6248 6.90762 10.4352 7.68782 10.2614L13.1415 9.00528C13.2257 8.98158 13.3174 8.99738 13.4016 9.03688L15.8493 10.3404C15.964 10.4036 16.0405 10.5142 16.0558 10.6485C16.0711 10.7828 16.0175 10.9092 15.9257 10.9961L13.501 13.1369L14.6331 14.3535C14.7325 14.4562 14.7631 14.6063 14.7249 14.7406C14.6866 14.8749 14.5795 14.9776 14.4418 15.0092L8.9346 16.2811C8.33033 16.4154 7.42775 16.6208 6.16568 16.6208ZM3.72566 10.9724C2.70835 10.9724 1.79047 11.6992 1.56101 12.7656C1.43862 13.3581 1.54571 13.9743 1.86696 14.4878C2.18822 15.0013 2.67775 15.3568 3.25907 15.4832C6.08154 16.1231 7.8255 15.7202 8.75867 15.5069L13.6005 14.393L12.6596 13.3818C12.5831 13.3028 12.5449 13.2001 12.5526 13.0895C12.5602 12.9789 12.6061 12.8762 12.6826 12.8051L14.9849 10.7749L13.1645 9.80317L7.90964 11.0198C7.03766 11.2173 6.028 11.4306 4.19989 11.0198C4.03927 10.9882 3.88629 10.9724 3.72566 10.9724Z" fill="#0033A0"/>
<path d="M8.26117 15.9521C8.42944 16.2049 8.51358 16.5209 8.48299 16.8527C8.41415 17.6111 7.75634 18.172 7.02204 18.093C6.28774 18.0219 5.74466 17.3425 5.82115 16.5841C5.8441 16.3787 5.90529 16.1891 5.99708 16.0232" stroke="#0033A0" stroke-miterlimit="10"/>
<path d="M7.15215 17.0823C7.34647 17.0823 7.504 16.9196 7.504 16.7189C7.504 16.5182 7.34647 16.3555 7.15215 16.3555C6.95782 16.3555 6.80029 16.5182 6.80029 16.7189C6.80029 16.9196 6.95782 17.0823 7.15215 17.0823Z" fill="#0033A0"/>
</g>
<defs>
<clipPath id="clip0">
<rect x="0.75" y="9" width="28.5" height="12" fill="white"/>
</clipPath>
</defs>
</svg>
