<svg id="Layer_1" xmlns="http://www.w3.org/2000/svg" xmlns:xlink="http://www.w3.org/1999/xlink" viewBox="0 0 150 150" style="enable-background:new 0 0 150 150"><style>.st0{fill:#fff}</style><path d="M102.6 58.9C97 49.3 86.5 43.3 75.3 43.3s-21.7 6-27.3 15.6H1l.4.6c.1.2 14.8 20.6 37.9 35.6l.1.1h12.2c6 6.7 14.6 10.5 23.6 10.5s17.6-3.8 23.6-10.5h12.1l.1-.1c23.1-15 37.8-35.4 37.9-35.6l.4-.6L102.6 58.9v0z"/><path class="st0" d="M144.1 64.4h-39.4c.6 1.7 1.1 3.6 1.4 5.4h1c-.3-1.4-.6-2.8-1.1-4.1C106 65.7 139.3 64.9 144.1 64.4c-3 3.5-6 6.8-9.1 10h-28.5v.1c0 1.8-.2 3.6-.5 5.3h1.5c.2-1.3.3-2.7.3-4v-.1c0 0 23-.7 27.1-1.2-3.5 3.5-7.2 6.9-11 10.1h-19.2c-.7 1.9-1.5 3.7-2.5 5.4h2c.7-1.3 1.3-2.7 1.8-4.1.0.0 14.2-.7 17.7-1.2-4.2 3.5-8.5 6.7-13.1 9.7H98.5l-.1.1c-11.4 12.8-31 13.9-43.8 2.6-.9-.8-1.8-1.7-2.6-2.6L52 94.4H39.7c-4.5-3-8.9-6.2-13.1-9.7 3.7.5 19.1 1.2 19.1 1.2.7 1.4 1.7 2.8 2.5 4.1h.1c-1-1.7-1.9-3.5-2.5-5.4H26.4c-3.8-3.2-7.5-6.5-11-10.1 4.2.5 28.2 1.3 28.2 1.3.0 1.3.5 2.6.9 3.8-.3-1.7-.5-3.4-.5-5.1v-.1H15.4c-3.2-3.2-6.2-6.5-9.1-10L45 65.7c-.2 1.3-.3 2.7-.5 4.1h0c.3-1.9.7-3.7 1.4-5.4H6.2c-1.3-1.5-2.6-3.1-3.8-4.7h45.9l.1-.2c5.5-9.5 15.8-15.4 26.8-15.4s21.3 5.9 26.8 15.4l.1.2h45.7C146.7 61.3 145.4 62.9 144.1 64.4z"/><path d="M75.3 47.6c-15 0-27.2 12-27.2 26.9.0 14.8 12.2 26.9 27.2 26.9s27.2-12 27.2-26.9C102.5 59.7 90.3 47.6 75.3 47.6z"/><path class="st0" d="M75.3 99.7c-14.1.0-25.5-11.3-25.5-25.2s11.4-25.2 25.5-25.2 25.5 11.3 25.5 25.2S89.4 99.7 75.3 99.7z"/><path d="M99.3 74.5c0 13.1-10.8 23.7-24 23.7s-24-10.6-24-23.7 10.8-23.7 24-23.7S99.3 61.4 99.3 74.5z"/><path class="st0" d="M92.7 68h3.2v13.4h-3.2V68v0zM72 68h3.2v13.4H72V68v0zM86.9 68v8.1L81.1 68h-3v13.4h3v-8.1l5.9 8.1h3V68H86.9v0zM65.1 68l-3.5 8.3L58.1 68h-3.7v13.4h3v-7.6l3.1 7.6v0h1.9v0l3.4-8.3v8.3h3V68H65.1v0z"/></svg>