<svg xmlns:dc="http://purl.org/dc/elements/1.1/" xmlns:cc="http://creativecommons.org/ns#" xmlns:rdf="http://www.w3.org/1999/02/22-rdf-syntax-ns#" xmlns:svg="http://www.w3.org/2000/svg" xmlns="http://www.w3.org/2000/svg" viewBox="0 0 5760 3840" height="3840" width="5760" id="svg2"><defs id="defs6"><clipPath id="clipPath18" clipPathUnits="userSpaceOnUse"><path id="path16" d="M0 2880H4320V0H0z" /></clipPath><clipPath id="clipPath46" clipPathUnits="userSpaceOnUse"><path id="path44" d="m1055.285 1276.993 269.218 89.718 807.597 958.545-126.419 81.579z" /></clipPath><linearGradient id="linearGradient56" spreadMethod="pad" gradientTransform="matrix(-263.09192,165.19727,165.19727,263.09192,1616.4219,1787.9526)" gradientUnits="userSpaceOnUse" y2="0" x2="1" y1="0" x1="0"><stop id="stop52" offset="0" style="stop-opacity:1;stop-color:#e9e9ea" /><stop id="stop54" offset="1" style="stop-opacity:1;stop-color:#495153" /></linearGradient><clipPath id="clipPath66" clipPathUnits="userSpaceOnUse"><path id="path64" d="m2132.1 2325.256 807.649-958.545 269.218-89.718-950.369 1129.842z" /></clipPath><linearGradient id="linearGradient82" spreadMethod="pad" gradientTransform="matrix(-67.301605,-975.86945,-975.86945,67.301605,2710.001,2373.4038)" gradientUnits="userSpaceOnUse" y2="0" x2="1" y1="0" x1="0"><stop id="stop72" offset="0" style="stop-opacity:1;stop-color:#e9e9ea" /><stop id="stop74" offset=".0329742" style="stop-opacity:1;stop-color:#e9e9ea" /><stop id="stop76" offset=".60385628" style="stop-opacity:1;stop-color:#495153" /><stop id="stop78" offset=".928574" style="stop-opacity:1;stop-color:#495153" /><stop id="stop80" offset="1" style="stop-opacity:1;stop-color:#495153" /></linearGradient><clipPath id="clipPath92" clipPathUnits="userSpaceOnUse"><path id="path90" d="m2005.681 2406.835 126.419-81.579 126.498 81.579z" /></clipPath><linearGradient id="linearGradient104" spreadMethod="pad" gradientTransform="matrix(0,132.55544,132.55544,0,2132.1401,2317.0942)" gradientUnits="userSpaceOnUse" y2="0" x2="1" y1="0" x1="0"><stop id="stop98" offset="0" style="stop-opacity:1;stop-color:#e9e9ea" /><stop id="stop100" offset=".60090376" style="stop-opacity:1;stop-color:#495153" /><stop id="stop102" offset="1" style="stop-opacity:1;stop-color:#495153" /></linearGradient><clipPath id="clipPath114" clipPathUnits="userSpaceOnUse"><path id="path112" d="m1544.106 2296.953-.37-84.875 128.873 186.581z" /></clipPath><linearGradient id="linearGradient124" spreadMethod="pad" gradientTransform="matrix(-143.77878,-64.241562,-64.241562,143.77878,1705.7432,2348.9629)" gradientUnits="userSpaceOnUse" y2="0" x2="1" y1="0" x1="0"><stop id="stop120" offset="0" style="stop-opacity:1;stop-color:#fff" /><stop id="stop122" offset="1" style="stop-opacity:1;stop-color:#495153" /></linearGradient><clipPath id="clipPath134" clipPathUnits="userSpaceOnUse"><path id="path132" d="m374.081 1915.325c0 0-63.169-295.726 852.515-434.407v0l191.697 69.341c0 0-873.378 140.213-903.999 366.594v0c-30.543 226.384 1030.498 379.837 1030.498 379.837v0l128.474 101.969c0 0-1301.215-101.969-1299.185-483.334" /></clipPath><linearGradient id="linearGradient150" spreadMethod="pad" gradientTransform="matrix(-645.47253,1076.8079,1076.8079,645.47253,1250.7861,1751.2295)" gradientUnits="userSpaceOnUse" y2="0" x2="1" y1="0" x1="0"><stop id="stop140" offset="0" style="stop-opacity:1;stop-color:#495153" /><stop id="stop142" offset=".357147" style="stop-opacity:1;stop-color:#e9e9ea" /><stop id="stop144" offset=".47487421" style="stop-opacity:1;stop-color:#e9e9ea" /><stop id="stop146" offset=".895599" style="stop-opacity:1;stop-color:#495153" /><stop id="stop148" offset="1" style="stop-opacity:1;stop-color:#495153" /></linearGradient><clipPath id="clipPath160" clipPathUnits="userSpaceOnUse"><path id="path158" d="m512.791 1917.356c0-256.979 905.502-367.097 905.502-367.097v0l-57.076 89.731c0 0-705.629 57.102-705.629 281.453v0c0 224.352 889.204 290.635 889.204 290.635v0 84.612c0 0-1032.001-122.356-1032.001-379.334" /></clipPath><linearGradient id="linearGradient172" spreadMethod="pad" gradientTransform="matrix(-258.99396,605.69659,605.69659,258.99396,1193.0752,1711.4604)" gradientUnits="userSpaceOnUse" y2="0" x2="1" y1="0" x1="0"><stop id="stop166" offset="0" style="stop-opacity:1;stop-color:#e9e9ea" /><stop id="stop168" offset=".60090376" style="stop-opacity:1;stop-color:#495153" /><stop id="stop170" offset="1" style="stop-opacity:1;stop-color:#495153" /></linearGradient><clipPath id="clipPath182" clipPathUnits="userSpaceOnUse"><path id="path180" d="m1055.285 1276.993h361.11l-91.892 89.718z" /></clipPath><linearGradient id="linearGradient194" spreadMethod="pad" gradientTransform="matrix(405.83105,-4.0867462,-4.0867462,-405.83105,1059.8618,1323.1611)" gradientUnits="userSpaceOnUse" y2="0" x2="1" y1="0" x1="0"><stop id="stop188" offset="0" style="stop-opacity:1;stop-color:#e9e9ea" /><stop id="stop190" offset=".60090376" style="stop-opacity:1;stop-color:#495153" /><stop id="stop192" offset="1" style="stop-opacity:1;stop-color:#495153" /></linearGradient><clipPath id="clipPath204" clipPathUnits="userSpaceOnUse"><path id="path202" d="m1324.503 1366.711 91.497-89.257 716.1 871.903v175.899z" /></clipPath><linearGradient id="linearGradient220" spreadMethod="pad" gradientTransform="matrix(-956.50543,-1068.6818,-1068.6818,956.50543,2204.5449,2282.3379)" gradientUnits="userSpaceOnUse" y2="0" x2="1" y1="0" x1="0"><stop id="stop210" offset="0" style="stop-opacity:1;stop-color:#495153" /><stop id="stop212" offset=".13929972" style="stop-opacity:1;stop-color:#d5d7d8" /><stop id="stop214" offset=".296707" style="stop-opacity:1;stop-color:#d5d7d8" /><stop id="stop216" offset=".89878987" style="stop-opacity:1;stop-color:#495153" /><stop id="stop218" offset="1" style="stop-opacity:1;stop-color:#495153" /></linearGradient><clipPath id="clipPath230" clipPathUnits="userSpaceOnUse"><path id="path228" d="m2132.336 2149.357 716.101-871.903 91.524 89.257-807.625 958.545z" /></clipPath><linearGradient id="linearGradient246" spreadMethod="pad" gradientTransform="matrix(956.50592,-1068.6824,1068.6824,956.50592,2059.8906,2282.3379)" gradientUnits="userSpaceOnUse" y2="0" x2="1" y1="0" x1="0"><stop id="stop236" offset="0" style="stop-opacity:1;stop-color:#231f20" /><stop id="stop238" offset=".13929972" style="stop-opacity:1;stop-color:#dcddde" /><stop id="stop240" offset=".296707" style="stop-opacity:1;stop-color:#dcddde" /><stop id="stop242" offset=".89878987" style="stop-opacity:1;stop-color:#495153" /><stop id="stop244" offset="1" style="stop-opacity:1;stop-color:#495153" /></linearGradient><clipPath id="clipPath256" clipPathUnits="userSpaceOnUse"><path id="path254" d="m2848.066 1276.993h361.138l-269.243 89.718z" /></clipPath><linearGradient id="linearGradient270" spreadMethod="pad" gradientTransform="matrix(-405.86288,-4.0870667,4.0870667,-405.86288,3204.627,1323.1611)" gradientUnits="userSpaceOnUse" y2="0" x2="1" y1="0" x1="0"><stop id="stop262" offset="0" style="stop-opacity:1;stop-color:#e9e9ea" /><stop id="stop264" offset=".27182589" style="stop-opacity:1;stop-color:#495153" /><stop id="stop266" offset=".730774" style="stop-opacity:1;stop-color:#495153" /><stop id="stop268" offset="1" style="stop-opacity:1;stop-color:#495153" /></linearGradient><clipPath id="clipPath280" clipPathUnits="userSpaceOnUse"><path id="path278" d="m2720.989 2212.078-.37 84.875-128.502 101.706z" /></clipPath><linearGradient id="linearGradient290" spreadMethod="pad" gradientTransform="matrix(143.77805,-64.241242,64.241257,143.77805,2558.9824,2348.9619)" gradientUnits="userSpaceOnUse" y2="0" x2="1" y1="0" x1="0"><stop id="stop286" offset="0" style="stop-opacity:1;stop-color:#fff" /><stop id="stop288" offset="1" style="stop-opacity:1;stop-color:#495153" /></linearGradient><clipPath id="clipPath300" clipPathUnits="userSpaceOnUse"><path id="path298" d="m2719.933 2296.69c0 0 1061.044-153.453 1030.498-379.837v0c-30.62-226.381-903.998-366.594-903.998-366.594v0l191.696-69.341c915.685 138.681 852.517 434.407 852.517 434.407v0c2.03 381.365-1299.188 483.334-1299.188 483.334v0z" /></clipPath><linearGradient id="linearGradient316" spreadMethod="pad" gradientTransform="matrix(645.47253,1076.8079,-1076.8079,645.47253,3013.9395,1751.2285)" gradientUnits="userSpaceOnUse" y2="0" x2="1" y1="0" x1="0"><stop id="stop306" offset="0" style="stop-opacity:1;stop-color:#495153" /><stop id="stop308" offset=".357147" style="stop-opacity:1;stop-color:#e9e9ea" /><stop id="stop310" offset=".47487421" style="stop-opacity:1;stop-color:#e9e9ea" /><stop id="stop312" offset=".895599" style="stop-opacity:1;stop-color:#495153" /><stop id="stop314" offset="1" style="stop-opacity:1;stop-color:#495153" /></linearGradient><clipPath id="clipPath326" clipPathUnits="userSpaceOnUse"><path id="path324" d="m2719.933 2212.078c0 0 889.204-66.283 889.204-290.635v0c0-224.351-705.627-281.453-705.627-281.453v0l-57.077-89.731c0 0 905.529 110.118 905.529 367.097v0c0 256.978-1032.029 379.334-1032.029 379.334v0z" /></clipPath><linearGradient id="linearGradient340" spreadMethod="pad" gradientTransform="matrix(258.99689,605.70343,-605.70343,258.99689,3071.6641,1711.4585)" gradientUnits="userSpaceOnUse" y2="0" x2="1" y1="0" x1="0"><stop id="stop332" offset="0" style="stop-opacity:1;stop-color:#e9e9ea" /><stop id="stop334" offset=".3773026" style="stop-opacity:1;stop-color:#495153" /><stop id="stop336" offset=".653839" style="stop-opacity:1;stop-color:#495153" /><stop id="stop338" offset="1" style="stop-opacity:1;stop-color:#495153" /></linearGradient><clipPath id="clipPath350" clipPathUnits="userSpaceOnUse"><path id="path348" d="m2436.184 1514.598 105.055-89.124-123.411 168.686z" /></clipPath><linearGradient id="linearGradient364" spreadMethod="pad" gradientTransform="matrix(-55.100128,-30.611191,-30.611191,55.100128,2513.249,1528.5479)" gradientUnits="userSpaceOnUse" y2="0" x2="1" y1="0" x1="0"><stop id="stop356" offset="0" style="stop-opacity:1;stop-color:#e9e9ea" /><stop id="stop358" offset=".59190082" style="stop-opacity:1;stop-color:#495153" /><stop id="stop360" offset=".928574" style="stop-opacity:1;stop-color:#495153" /><stop id="stop362" offset="1" style="stop-opacity:1;stop-color:#495153" /></linearGradient><clipPath id="clipPath374" clipPathUnits="userSpaceOnUse"><path id="path372" d="m1520.474 1537.059c659.761-70.386 915.71-22.461 915.71-22.461v0l-18.356 79.562c-122.358-16.312-734.194 9.166-734.194 9.166v0z" /></clipPath><linearGradient id="linearGradient386" spreadMethod="pad" gradientTransform="matrix(-18.357788,192.7578,192.7578,18.357788,1977.4785,1534.7603)" gradientUnits="userSpaceOnUse" y2="0" x2="1" y1="0" x1="0"><stop id="stop380" offset="0" style="stop-opacity:1;stop-color:#e9e9ea" /><stop id="stop382" offset=".60090376" style="stop-opacity:1;stop-color:#495153" /><stop id="stop384" offset="1" style="stop-opacity:1;stop-color:#495153" /></linearGradient><clipPath id="clipPath396" clipPathUnits="userSpaceOnUse"><path id="path394" d="m1549.54 1439.664c416.05-53.027 991.699-14.19 991.699-14.19v0l-105.055 89.124c-349.793-29.566-915.71 22.461-915.71 22.461v0z" /></clipPath><linearGradient id="linearGradient410" spreadMethod="pad" gradientTransform="matrix(9.1766357,-220.24329,-220.24329,-9.1766357,2020.5356,1728.9844)" gradientUnits="userSpaceOnUse" y2="0" x2="1" y1="0" x1="0"><stop id="stop402" offset="0" style="stop-opacity:1;stop-color:#e9e9ea" /><stop id="stop404" offset=".59190082" style="stop-opacity:1;stop-color:#495153" /><stop id="stop406" offset=".928574" style="stop-opacity:1;stop-color:#495153" /><stop id="stop408" offset="1" style="stop-opacity:1;stop-color:#495153" /></linearGradient></defs><g transform="matrix(1.3333333,0,0,-1.3333333,0,3840)" id="g10"><g id="g12"><g clip-path="url(#clipPath18)" id="g14"><g transform="translate(923.6445,893.2666)" id="g20"><path id="path22" style="fill:#bc1822;fill-opacity:1;fill-rule:nonzero;stroke:none" d="m0 0v-112.546h-560.431c0 0-20.809 5.078-20.809-20.809v-225.646c0 0-2.875-21.1 21.1-21.1H-1.134v-102.68h-579.554c0 0-111.963 9.576-111.963 111.965v254.894c0 0-12.977 114.498 114.496 114.498z" /></g><g transform="translate(1940.9551,701.251)" id="g24"><path id="path26" style="fill:#bc1822;fill-opacity:1;fill-rule:nonzero;stroke:none" d="M0 0H508.945V-105.08H-21.207v-61.905c0 0-2.954-21.1 21.787-21.1H577.257V-290.766H-20.627c0 0-115.525 9.577-115.525 111.965V76.094c0 0-13.373 114.498 118.136 114.498l596.462 1.424V90.312c0 0-532.62-.203-577.735-.21.0.0-22.176-1.928-22.176-22.176V47.678.089z" /></g><g transform="translate(1009.1548,896.6426)" id="g28"><path id="path30" style="fill:#bc1822;fill-opacity:1;fill-rule:nonzero;stroke:none" d="m0 0h111.411v-197.501h474.34V-1.688h116.475v-489.533h-113.1V-302.16H111.411V-487.845H-1.688z" /></g><g transform="translate(2722.5195,704.2061)" id="g32"><path id="path34" style="fill:#bc1822;fill-opacity:1;fill-rule:nonzero;stroke:none" d="m0 0h474.34c0 0 24.476 3.376 24.476 24.476v32.918c0 0 5.065 23.21-23.211 23.21H-1.688zm-114.787 190.748h611.071 23.633c0 0 77.65-28.684 77.65-77.649V-1.688c0 0 6.752-81.871-81.87-81.871H418.635L621.2-298.784H474.34L286.967-82.714H1.688V-297.097H-113.1z" /></g><g transform="translate(3345.4072,896.6426)" id="g36"><path id="path38" style="fill:#bc1822;fill-opacity:1;fill-rule:nonzero;stroke:none" d="M0 0H172.181L432.14-227.886 692.099.0H849.086L496.285-322.416V-487.845H366.306v167.116z" /></g></g></g><g id="g40"><g clip-path="url(#clipPath46)" id="g42"><g id="g48"><g id="g50"><path id="path58" style="fill:url(#linearGradient56);stroke:none" d="m1055.285 1276.993 269.218 89.718 807.597 958.545-126.419 81.579z" /></g></g></g></g><g id="g60"><g clip-path="url(#clipPath66)" id="g62"><g id="g68"><g id="g70"><path id="path84" style="fill:url(#linearGradient82);stroke:none" d="m2132.1 2325.256 807.649-958.545 269.218-89.718-950.369 1129.842z" /></g></g></g></g><g id="g86"><g clip-path="url(#clipPath92)" id="g88"><g id="g94"><g id="g96"><path id="path106" style="fill:url(#linearGradient104);stroke:none" d="m2005.681 2406.835 126.419-81.579 126.498 81.579z" /></g></g></g></g><g id="g108"><g clip-path="url(#clipPath114)" id="g110"><g id="g116"><g id="g118"><path id="path126" style="fill:url(#linearGradient124);stroke:none" d="m1544.106 2296.953-.37-84.875 128.873 186.581z" /></g></g></g></g><g id="g128"><g clip-path="url(#clipPath134)" id="g130"><g id="g136"><g id="g138"><path id="path152" style="fill:url(#linearGradient150);stroke:none" d="m374.081 1915.325c0 0-63.169-295.726 852.515-434.407v0l191.697 69.341c0 0-873.378 140.213-903.999 366.594v0c-30.543 226.384 1030.498 379.837 1030.498 379.837v0l128.474 101.969c0 0-1301.215-101.969-1299.185-483.334" /></g></g></g></g><g id="g154"><g clip-path="url(#clipPath160)" id="g156"><g id="g162"><g id="g164"><path id="path174" style="fill:url(#linearGradient172);stroke:none" d="m512.791 1917.356c0-256.979 905.502-367.097 905.502-367.097v0l-57.076 89.731c0 0-705.629 57.102-705.629 281.453v0c0 224.352 889.204 290.635 889.204 290.635v0 84.612c0 0-1032.001-122.356-1032.001-379.334" /></g></g></g></g><g id="g176"><g clip-path="url(#clipPath182)" id="g178"><g id="g184"><g id="g186"><path id="path196" style="fill:url(#linearGradient194);stroke:none" d="m1055.285 1276.993h361.11l-91.892 89.718z" /></g></g></g></g><g id="g198"><g clip-path="url(#clipPath204)" id="g200"><g id="g206"><g id="g208"><path id="path222" style="fill:url(#linearGradient220);stroke:none" d="m1324.503 1366.711 91.497-89.257 716.1 871.903v175.899z" /></g></g></g></g><g id="g224"><g clip-path="url(#clipPath230)" id="g226"><g id="g232"><g id="g234"><path id="path248" style="fill:url(#linearGradient246);stroke:none" d="m2132.336 2149.357 716.101-871.903 91.524 89.257-807.625 958.545z" /></g></g></g></g><g id="g250"><g clip-path="url(#clipPath256)" id="g252"><g id="g258"><g id="g260"><path id="path272" style="fill:url(#linearGradient270);stroke:none" d="m2848.066 1276.993h361.138l-269.243 89.718z" /></g></g></g></g><g id="g274"><g clip-path="url(#clipPath280)" id="g276"><g id="g282"><g id="g284"><path id="path292" style="fill:url(#linearGradient290);stroke:none" d="m2720.989 2212.078-.37 84.875-128.502 101.706z" /></g></g></g></g><g id="g294"><g clip-path="url(#clipPath300)" id="g296"><g id="g302"><g id="g304"><path id="path318" style="fill:url(#linearGradient316);stroke:none" d="m2719.933 2296.69c0 0 1061.044-153.453 1030.498-379.837v0c-30.62-226.381-903.998-366.594-903.998-366.594v0l191.696-69.341c915.685 138.681 852.517 434.407 852.517 434.407v0c2.03 381.365-1299.188 483.334-1299.188 483.334v0z" /></g></g></g></g><g id="g320"><g clip-path="url(#clipPath326)" id="g322"><g id="g328"><g id="g330"><path id="path342" style="fill:url(#linearGradient340);stroke:none" d="m2719.933 2212.078c0 0 889.204-66.283 889.204-290.635v0c0-224.351-705.627-281.453-705.627-281.453v0l-57.077-89.731c0 0 905.529 110.118 905.529 367.097v0c0 256.978-1032.029 379.334-1032.029 379.334v0z" /></g></g></g></g><g id="g344"><g clip-path="url(#clipPath350)" id="g346"><g id="g352"><g id="g354"><path id="path366" style="fill:url(#linearGradient364);stroke:none" d="m2436.184 1514.598 105.055-89.124-123.411 168.686z" /></g></g></g></g><g id="g368"><g clip-path="url(#clipPath374)" id="g370"><g id="g376"><g id="g378"><path id="path388" style="fill:url(#linearGradient386);stroke:none" d="m1520.474 1537.059c659.761-70.386 915.71-22.461 915.71-22.461v0l-18.356 79.562c-122.358-16.312-734.194 9.166-734.194 9.166v0z" /></g></g></g></g><g id="g390"><g clip-path="url(#clipPath396)" id="g392"><g id="g398"><g id="g400"><path id="path412" style="fill:url(#linearGradient410);stroke:none" d="m1549.54 1439.664c416.05-53.027 991.699-14.19 991.699-14.19v0l-105.055 89.124c-349.793-29.566-915.71 22.461-915.71 22.461v0z" /></g></g></g></g></g></svg>