<?xml version="1.0" encoding="UTF-8" standalone="no"?>
<svg
   xmlns:dc="http://purl.org/dc/elements/1.1/"
   xmlns:cc="http://creativecommons.org/ns#"
   xmlns:rdf="http://www.w3.org/1999/02/22-rdf-syntax-ns#"
   xmlns:svg="http://www.w3.org/2000/svg"
   xmlns="http://www.w3.org/2000/svg"
   viewBox="0 0 329.33334 297.33334"
   height="297.33334"
   width="329.33334"
   xml:space="preserve"
   id="svg2"
   version="1.1"><metadata
     id="metadata8"><rdf:RDF><cc:Work
         rdf:about=""><dc:format>image/svg+xml</dc:format><dc:type
           rdf:resource="http://purl.org/dc/dcmitype/StillImage" /></cc:Work></rdf:RDF></metadata><defs
     id="defs6" /><g
     transform="matrix(1.3333333,0,0,-1.3333333,0,297.33333)"
     id="g10"><g
       transform="scale(0.1)"
       id="g12"><path
         id="path14"
         style="fill:#ffffff;fill-opacity:1;fill-rule:nonzero;stroke:none"
         d="M 2470,0 H 0 V 2230 H 2470 V 0" /><path
         id="path16"
         style="fill:#ffffff;fill-opacity:1;fill-rule:nonzero;stroke:none"
         d="m 1210,958.309 c -278.469,0 -505.02,226.551 -505.02,505.021 0,278.47 226.551,505.02 505.02,505.02 278.47,0 505.02,-226.55 505.02,-505.02 0,-278.47 -226.55,-505.021 -505.02,-505.021 v 0" /><path
         id="path18"
         style="fill:#ea1d27;fill-opacity:1;fill-rule:nonzero;stroke:none"
         d="m 1210,2003.35 c -298.246,0 -540.02,-241.77 -540.02,-540.02 0,-298.25 241.774,-540.021 540.02,-540.021 298.24,0 540.02,241.771 540.02,540.021 0,298.25 -241.78,540.02 -540.02,540.02 z m 0,-70 c 259.17,0 470.02,-210.85 470.02,-470.02 0,-259.17 -210.85,-470.021 -470.02,-470.021 -259.172,0 -470.02,210.851 -470.02,470.021 0,259.17 210.848,470.02 470.02,470.02" /><path
         id="path20"
         style="fill:#e91e29;fill-opacity:1;fill-rule:nonzero;stroke:none"
         d="m 1289.12,1178.49 c 50.66,70.44 113.05,195.53 83.74,360.1 -0.4,2.34 -35.08,192.13 -189.72,309.34 123.74,-36.04 264.08,-133.53 286.98,-387.29 l 4.41,-48.87 41.49,26.19 c 5.52,3.49 44.88,30.34 96.31,116.2 -3.48,-67.55 -20.55,-155.92 -76.59,-230.78 -54.69,-73.05 -137.45,-121.62 -246.62,-144.89 v 0" /><path
         id="path22"
         style="fill:#ea1d27;fill-opacity:1;fill-rule:nonzero;stroke:none"
         d="m 1038.75,1897.9 c -20.16,0 -32.09,-1.24 -32.09,-1.24 285.06,-63.63 336.67,-363.33 336.67,-363.33 43.33,-243.33 -129.99,-396.66 -129.99,-396.66 516.66,50 423.33,529.99 423.33,529.99 C 1563.34,1503.33 1500,1463.33 1500,1463.33 1463.72,1865.2 1142.4,1897.9 1038.75,1897.9 Z m 292.63,-171.76 c 54.79,-56.75 97.44,-141.65 108.86,-268.21 l 8.82,-97.73 82.98,52.4 c 4.27,2.7 14.51,9.82 29.03,24.12 -10.83,-32.28 -26.54,-64.81 -49.08,-95 -37.63,-50.43 -90.3,-88.28 -157.36,-113.25 39.82,77.28 71.06,184.59 47.83,315.04 -1.19,6.89 -16.55,91 -71.08,182.63" /><path
         id="path24"
         style="fill:#e91e29;fill-opacity:1;fill-rule:nonzero;stroke:none"
         d="m 1240.11,1076.63 c -123.74,36.05 -264.075,133.54 -286.985,387.3 l -4.414,48.87 -41.484,-26.2 c -5.516,-3.49 -44.887,-30.35 -96.325,-116.19 3.489,67.54 20.563,155.92 76.598,230.78 54.688,73.05 137.45,121.61 246.62,144.9 -50.64,-70.45 -113.05,-195.55 -83.75,-360.11 0.41,-2.34 35.09,-192.13 189.74,-309.35 v 0" /><path
         id="path26"
         style="fill:#ea1d27;fill-opacity:1;fill-rule:nonzero;stroke:none"
         d="M 1209.9,1787.91 C 693.246,1737.89 786.566,1257.9 786.566,1257.9 c 73.34,163.33 136.68,203.33 136.68,203.33 36.274,-401.88 357.634,-434.57 461.264,-434.57 20.14,0 32.07,1.24 32.07,1.24 -285.06,63.64 -336.67,363.33 -336.67,363.33 -43.33,243.34 129.99,396.68 129.99,396.68 z m -141.29,-91.82 c -39.83,-77.27 -71.059,-184.57 -47.83,-315.04 1.19,-6.89 16.54,-90.98 71.09,-182.62 -54.8,56.75 -97.436,141.65 -108.862,268.2 l -8.828,97.73 -82.969,-52.39 c -4.246,-2.68 -14.375,-9.73 -28.731,-23.82 10.864,32.54 26.645,65.25 49.317,95.44 37.598,50.06 90.083,87.66 156.813,112.5" /><path
         id="path28"
         style="fill:#231f20;fill-opacity:1;fill-rule:nonzero;stroke:none"
         d="m 403.336,756.66 h 420 c 0,0 80.004,-33.34 83.336,-100 V 423.328 c 0,0 -13.344,-63.328 -76.672,-70 H 403.336 V 606.66 H 546.672 V 450 h 226.664 c 0,0 17.914,8.75 17.914,31.25 v 135 c 0,0 -8.75,35 -50,35 H 403.336 v 105.41" /><path
         id="path30"
         style="fill:none;stroke:#231f20;stroke-width:10;stroke-linecap:butt;stroke-linejoin:miter;stroke-miterlimit:4;stroke-dasharray:none;stroke-opacity:1"
         d="m 403.336,756.66 h 420 c 0,0 80.004,-33.34 83.336,-100 V 423.328 c 0,0 -13.344,-63.328 -76.672,-70 H 403.336 V 606.66 H 546.672 V 450 h 226.664 c 0,0 17.914,8.75 17.914,31.25 v 135 c 0,0 -8.75,35 -50,35 H 403.336 Z" /><path
         id="path32"
         style="fill:#231f20;fill-opacity:1;fill-rule:nonzero;stroke:none"
         d="M 1083.75,756.66 H 1435 V 653.75 H 995 c 0,0 25,85.82 88.75,102.91" /><path
         id="path34"
         style="fill:none;stroke:#231f20;stroke-width:10;stroke-linecap:butt;stroke-linejoin:miter;stroke-miterlimit:4;stroke-dasharray:none;stroke-opacity:1"
         d="M 1083.75,756.66 H 1435 V 653.75 H 995 c 0,0 25,85.82 88.75,102.91 z" /><path
         id="path36"
         style="fill:#231f20;fill-opacity:1;fill-rule:nonzero;stroke:none"
         d="m 995,615 h 440 V 505 H 1135 V 353.328 H 995 V 615" /><path
         id="path38"
         style="fill:none;stroke:#231f20;stroke-width:10;stroke-linecap:butt;stroke-linejoin:miter;stroke-miterlimit:4;stroke-dasharray:none;stroke-opacity:1"
         d="m 995,615 h 440 V 505 H 1135 V 353.328 H 995 Z" /><path
         id="path40"
         style="fill:#231f20;fill-opacity:1;fill-rule:nonzero;stroke:none"
         d="m 1515,756.66 h 131.25 L 1775,606.25 1905,756.66 h 108.75 V 353.328 h -137.5 V 573.75 l -117.5,-110 L 1515,756.66" /><path
         id="path42"
         style="fill:none;stroke:#231f20;stroke-width:10;stroke-linecap:butt;stroke-linejoin:miter;stroke-miterlimit:4;stroke-dasharray:none;stroke-opacity:1"
         d="m 1515,756.66 h 131.25 L 1775,606.25 1905,756.66 h 108.75 V 353.328 h -137.5 V 573.75 l -117.5,-110 z" /><path
         id="path44"
         style="fill:#e91e29;fill-opacity:1;fill-rule:nonzero;stroke:none"
         d="m 1663.75,780 h 220.63 L 1777.5,653.75 Z" /></g></g></svg>