<?xml version="1.0" encoding="utf-8"?>
<!-- Generator: Adobe Illustrator 24.0.1, SVG Export Plug-In . SVG Version: 6.00 Build 0)  -->
<svg version="1.1" id="Layer_1" xmlns="http://www.w3.org/2000/svg" xmlns:xlink="http://www.w3.org/1999/xlink" x="0px" y="0px"
	 viewBox="0 0 1312.4 841.9" style="enable-background:new 0 0 1312.4 841.9;" xml:space="preserve">
<style type="text/css">
	.st0{fill-rule:evenodd;clip-rule:evenodd;}
</style>
<g>
	<path class="st0" d="M835.8,672.9c0-19.1,7.6-14.1,53.8-13.9c65.8,0.3,63-6.5,62.9,25.4c0,10.5,3.9,32-3.9,37.9
		c-5.7,4.6-100.7,3.7-111.7,0.6L835.8,672.9L835.8,672.9z M999.4,737.9c2.4-8.4,2.6-76.6,1-87.7c-3.9-26.1-28.7-35.6-57.1-35.5
		c-31.1,0-62.3,0-93.4,0c-29.5,0-53.9,5.3-60.8,30.3c-3,10.9-2.9,77.2-0.9,89.3c4.6,27.4,26.9,35,57.7,35.1
		c31.1,0.1,62.3-0.1,93.4,0C970,769.6,992.4,762.7,999.4,737.9L999.4,737.9z"/>
	<path class="st0" d="M336.5,672.9c0-19.9,19.2-14.1,38.4-14.1c91.9,0,78.6-11.8,78.5,52.3c0,19-9.4,13.3-52.7,13.7
		c-15.4,0.1-50.2,1.3-63-1.8L336.5,672.9L336.5,672.9z M501.1,732.2c1.4-9.5,1.2-78.1-0.9-86c-6.8-25.3-29.9-31.5-61.8-31.3
		c-31.1,0.2-62.3,0-93.4,0c-29.8,0-52.3,9.1-56.6,35.8c-1.8,11.3-1.3,78.1,1.2,87.2c7.2,26.2,28.5,31.6,61.3,31.5
		c31.1-0.1,62.3-0.2,93.4,0.1C472.3,769.6,496.6,762.2,501.1,732.2L501.1,732.2z"/>
	<path class="st0" d="M1091.5,658.8c18.8,0,87-1.9,98.8,1.9c4.3,16.8,1.8,85.8,1.3,108.6l47.8,0c0.2-164.7,12.1-154.1-109.3-154.4
		c-23.9-0.1-65.1-2.3-87.1,0.7c0.3,24.1-2.9,140.6,1.3,153.7h47.4L1091.5,658.8L1091.5,658.8z"/>
	<path class="st0" d="M96.6,672.9c0-12.1,0.9-13.9,13.7-14.1l134.6-0.4l1.6-43.3l-44.6-0.3c-104.1,0.4-153-17.4-153,58L49,769
		l47.6,0.5l0.8-42.3l110.8,0.4l-0.6-42.9l-111-0.3L96.6,672.9L96.6,672.9z"/>
	<path class="st0" d="M537,658.8l84.3,0.3l0,109.9l47.6-0.6l0.1-109.6l84.5-0.3c1.6-13.9-2.1-29.8,1.6-43.8l-218.9,0.7L537,658.8
		L537,658.8z"/>
	<path class="st0" d="M630.1,510.2c21.6,0,23.6-13.4,34.7-31.6c22.1-36.4,46.3-82.6,68.6-119.9c5.3-8.9,10.3-17.9,15.3-26.6
		c5.2-9,10-17.6,15.2-26.6l38.3-66.4c20.8-36.4,47.5-84.8,68.6-119.9c4.5-7.5,14-21.6,14-30.2c0-8.9-8.4-14-17.5-14H729
		c-4.9,0-15.2,22-17.4,25.7c-5.6,9.2-11,18.7-16.3,27.9c-5.4,9.3-10.1,17.8-15.7,27.4l-16.2,28c-5.2,9.5-10.7,18.3-15.8,27.2
		l-95.9,165.9c-3.9,7-5.8,6.8-1.2,14.7l56.3,97.3c2.7,4.5,4.9,9.2,8.5,13.6C618,505.9,625.3,510.2,630.1,510.2L630.1,510.2z"/>
	<path class="st0" d="M468.4,254.2c0,1.8,13,23.8,14.9,27l38.2,66.5c6.1,10.1,17.4,11.5,24.6,5.1c2.8-2.5,49.4-85,54.6-94.4
		l79-137.4c2.9-4.8,19.1-30.6,19.1-35.6c0-6.8-0.4-5.9-3.5-10.5l-123.3-1.2c-3.4,0-2.9,1.4-4.4,3.8c-1.4,2.2-2.1,3.6-3.4,5.9
		c-2.4,4.4-4.1,7.1-6.2,11.2c-9.8,19-27.7,48.3-38.8,68.3L468.4,254.2L468.4,254.2z"/>
	<path class="st0" d="M376.5,87.9c0,7.4,3.3,11.1,8.4,19.6l58,100.2c0.8,1.3,1.4,2.4,2.2,3.6c2,3.2,0.4,1.6,3.1,3.9
		c9.2,7.8,19.3,5.1,25.7-7.9l28.4-49.6c3.5-6.1,37.2-61.5,37.2-67.5c0-5.4-1.4-10-5.5-13.1c-2.9-2.1-8.2-3.2-13.1-3.2H393.9
		C383.7,73.9,376.5,79,376.5,87.9L376.5,87.9z"/>
</g>
</svg>
