<svg id="Layer_1" xmlns="http://www.w3.org/2000/svg" xmlns:xlink="http://www.w3.org/1999/xlink" viewBox="0 0 150 150" style="enable-background:new 0 0 150 150"><style>.st0{fill:url(#SVGID_1_)}.st1{fill:url(#SVGID_2_)}.st2{fill:url(#SVGID_3_)}.st3{fill:url(#SVGID_4_)}.st4{fill:url(#SVGID_5_)}.st5{fill:url(#SVGID_6_)}.st6{fill:url(#SVGID_7_)}.st7{fill:url(#SVGID_8_)}.st8{fill:url(#SVGID_9_)}.st9{fill:url(#SVGID_10_)}</style><g><path d="M4.5 118.9c3.2.0 4.8 1.7 4.8 4.7.0 2.8-1.6 4.7-4.9 4.7H1.6v-9.4H4.5zM7.9 123.5c0-2.5-1.3-3.6-3.7-3.6H2.7v7.3H4C6.8 127.3 7.9 126.1 7.9 123.5zM18.5 120.4c-.4-.4-1.2-.6-2-.6-1.4.0-2.1.6-2.1 1.4s.5 1.1 1.8 1.7c2.2 1 3.1 1.4 3.1 2.9.0 1.3-1 2.6-3.4 2.6-1.3.0-2.5-.4-3.3-1l.6-1c.7.5 1.8.9 2.8.9 1.5.0 2.2-.7 2.2-1.6.0-.8-.7-1.1-2.2-1.8-2-.8-2.7-1.4-2.7-2.8.0-1.4 1-2.5 3.3-2.5.9.0 1.9.3 2.4.8L18.5 120.4zM36 128.3h-1.2l-.9-2.6h-4.4l-.9 2.6h-1.3c1-3.1 2.2-6.5 3.7-9.5h1.1C33.3 120.9 35.1 125.4 36 128.3zM33.5 124.6c-.5-1.4-1.2-3.1-1.9-4.4-.6 1-1.4 3.1-1.9 4.4H33.5zM45.9 118.9h1.3v5.8c0 2-.6 3.7-3.5 3.7-1.3.0-2.3-.4-2.9-1.2s-.7-1.7-.7-2.6v-5.8h1.3v5.6c0 1.7.3 2.9 2.2 2.9s2.3-1.3 2.3-2.9v-5.5zM55.4 128.3h-1.2V120h-2.8v-1h6.9v1.1h-2.9V128.3zM61.7 123.5c0-2.8 1.9-4.8 4.6-4.8 2.7.0 4.6 2 4.6 4.8.0 2.6-1.6 4.9-4.6 4.9C63.6 128.4 61.7 126.5 61.7 123.5M63 123.5c0 2.1 1.2 3.8 3.3 3.8 2.2.0 3.3-1.9 3.3-3.8.0-2.1-1.3-3.7-3.3-3.7C64.3 119.8 63 121.3 63 123.5M85.6 118.9v9.4h-1.3v-8.1c-.4.6-1.3 2.1-1.7 2.7-.4.7-.9 1.9-1.3 2.6H80c-.8-1.8-1.9-3.7-2.9-5.4v8.1h-1.3v-9.4h1.8c1.1 1.5 1.5 2.1 2 2.9.6 1 .8 1.4 1.2 2.3.8-1.8 2-3.7 3.1-5.3H85.6zM90.3 123.5c0-2.8 1.9-4.8 4.6-4.8 2.7.0 4.6 2 4.6 4.8.0 2.6-1.6 4.9-4.6 4.9C92.2 128.4 90.3 126.5 90.3 123.5M91.7 123.5c0 2.1 1.2 3.8 3.3 3.8 2.2.0 3.3-1.9 3.3-3.8.0-2.1-1.3-3.7-3.3-3.7S91.7 121.3 91.7 123.5M110.9 125.7c0 .9-.4 1.6-1.1 2.1-.7.5-1.5.6-2.5.6h-2.8V119h2.7c1.9.0 2.8 1 2.8 2.4.0.9-.4 1.6-1.3 2C110.1 123.5 110.9 124.5 110.9 125.7zM105.7 123.1h1.3c1.2.0 1.9-.4 1.9-1.6.0-1.1-.7-1.6-1.9-1.6h-1.3V123.1zM109.6 125.6c0-1.3-1-1.7-2.4-1.7h-1.5v3.4h1.6C108.9 127.4 109.6 126.8 109.6 125.6zM116.1 118.9h1.3v9.4h-1.3V118.9zM124.6 127.3h4.1v1.1h-5.4v-9.5h1.3V127.3zM134.2 120v2.7h3.3v1.1h-3.3v3.4h4.4v1.1H133v-9.5h5.4v1.2H134.2zM148.6 120.4c-.4-.4-1.2-.6-2-.6-1.4.0-2.1.6-2.1 1.4s.5 1.1 1.8 1.7c2.2 1 3.1 1.4 3.1 2.9.0 1.3-1 2.6-3.4 2.6-1.3.0-2.5-.4-3.3-1l.6-1c.7.5 1.8.9 2.8.9 1.5.0 2.2-.7 2.2-1.6.0-.8-.7-1.1-2.2-1.8-2-.8-2.7-1.4-2.7-2.8.0-1.4 1-2.5 3.3-2.5.9.0 1.9.3 2.4.8L148.6 120.4z"/><linearGradient id="SVGID_1_" gradientUnits="userSpaceOnUse" x1="-941.7776" y1="-163.0933" x2="-941.7776" y2="-163.1481" gradientTransform="matrix(658.8911 0 0 -1028.03 620622.9375 -167616.0938)"><stop offset=".04" style="stop-color:#8c8c8c"/><stop offset=".194" style="stop-color:#b6b6b6"/><stop offset=".403" style="stop-color:#ebebeb"/><stop offset=".506" style="stop-color:#fff"/><stop offset=".564" style="stop-color:#fafafa"/><stop offset=".633" style="stop-color:#ebebeb"/><stop offset=".707" style="stop-color:#d3d3d3"/><stop offset=".786" style="stop-color:#b2b2b2"/><stop offset=".868" style="stop-color:#878787"/><stop offset=".952" style="stop-color:#535353"/><stop offset=".96" style="stop-color:#4d4d4d"/></linearGradient><path class="st0" d="M111.2 74.6c-.3-.3-1.9-1.7-1.9-1.7L78.3 48.8C83.7 54 91.6 62.6 94 70.3c.7 2.1 1 4 1 5.8.0 1.6-.4 3.3-1 5.1-1.3 3.2-3.9 6.9-7.9 11.1-1.4 1.5-7.3 7.3-9.3 9.3-.4.4-.7 1-.8 1.7v1.8l34.9-27.2c.4-.3 1.2-.9 1.2-1.9C112 75.4 111.4 74.8 111.2 74.6v0z"/><linearGradient id="SVGID_2_" gradientUnits="userSpaceOnUse" x1="-931.5551" y1="-175.2134" x2="-931.5517" y2="-175.2624" gradientTransform="matrix(398.6914 0 0 -317.7239 371501.875 -55592.2383)"><stop offset="0" style="stop-color:#bfbfbf"/><stop offset=".212" style="stop-color:#666"/><stop offset=".274" style="stop-color:#595959"/><stop offset=".516" style="stop-color:#292929"/><stop offset=".701" style="stop-color:#0b0b0b"/><stop offset=".806" style="stop-color:#000"/></linearGradient><path class="st1" d="M88.7 93.8c-.2-.2 6.6-5.1 10.5-13.4 1.1-2.3 1.6-3.3 3.8-3.5 2.3-.2 5.2-.4 6.6-.5.6.0.8.1.9.4.1.2-.1.5-.6.8-3.6 2.5-9 6.9-16.3 12.7C93.2 90.7 88.8 93.9 88.7 93.8v0z"/><linearGradient id="SVGID_3_" gradientUnits="userSpaceOnUse" x1="-941.7702" y1="-163.6525" x2="-941.7702" y2="-163.7072" gradientTransform="matrix(658.6648 0 0 -1024.8883 620404.8125 -167708.7969)"><stop offset=".04" style="stop-color:#8c8c8c"/><stop offset=".194" style="stop-color:#b6b6b6"/><stop offset=".403" style="stop-color:#ebebeb"/><stop offset=".506" style="stop-color:#fff"/><stop offset=".564" style="stop-color:#fafafa"/><stop offset=".633" style="stop-color:#ebebeb"/><stop offset=".707" style="stop-color:#d3d3d3"/><stop offset=".786" style="stop-color:#b2b2b2"/><stop offset=".868" style="stop-color:#878787"/><stop offset=".952" style="stop-color:#535353"/><stop offset=".96" style="stop-color:#4d4d4d"/></linearGradient><path class="st2" d="M93.8 51.5c-.7-2.1-1-4-1-5.8.0-1.6.4-3.3 1-5.1 1.3-3.2 3.9-6.9 7.9-11.1 1.3-1.4 6.6-6.6 9.3-9.3.5-.5.7-1 .9-1.7.1-.6.1-1.1.1-1.3v-.6L77 43.9c-.2.2-.8.7-1.1 1.3-.1.2-.1.7.0 1.1.2.5.5.8.7 1 .3.2 1.8 1.5 1.8 1.5L109.5 73C104 67.5 96.3 58.9 93.8 51.5v0z"/><path d="M92.1 51c-.6-1.8-1-3.6-1-5.4.0-1.7.5-3.2 1.1-4.9 2.8-6.9 16.2-18.8 19-21-2.2 1.8-12.1 10.2-14.7 12.8-4.2 4.1-7.4 8.7-7.4 13.2.0 4.9 3.4 9.9 7.3 14.5 2.4 2.9 4.8 5.5 7.1 7.5 2.4 2.2 4.1 3.7 5.9 5.1C107.4 71 95.3 60.2 92.1 51v0z"/><linearGradient id="SVGID_4_" gradientUnits="userSpaceOnUse" x1="-929.3246" y1="-164.0406" x2="-929.3246" y2="-163.9858" gradientTransform="matrix(366.575 0 0 -968.3348 340768.4688 -158773.4375)"><stop offset=".04" style="stop-color:#4d4d4d"/><stop offset=".048" style="stop-color:#5a5a5a"/><stop offset=".077" style="stop-color:gray"/><stop offset=".109" style="stop-color:#a3a3a3"/><stop offset=".144" style="stop-color:silver"/><stop offset=".182" style="stop-color:#d7d7d7"/><stop offset=".226" style="stop-color:#e9e9e9"/><stop offset=".279" style="stop-color:#f6f6f6"/><stop offset=".348" style="stop-color:#fdfdfd"/><stop offset=".506" style="stop-color:#fff"/><stop offset=".631" style="stop-color:#fdfdfd"/><stop offset=".701" style="stop-color:#f5f5f5"/><stop offset=".756" style="stop-color:#e7e7e7"/><stop offset=".805" style="stop-color:#d3d3d3"/><stop offset=".848" style="stop-color:#bababa"/><stop offset=".888" style="stop-color:#9b9b9b"/><stop offset=".925" style="stop-color:#777"/><stop offset=".96" style="stop-color:#4d4d4d"/></linearGradient><path class="st3" d="M93.8 51.5c-.7-2.1-1-4-1-5.8.0-1.6.4-3.3 1-5.1 1.3-3.2 3.9-6.9 7.9-11.1 1.3-1.4 6.6-6.6 9.3-9.3.1-.1.2-.2.3-.4-2.7 2.2-16.1 14.1-19 21-.7 1.7-1.1 3.2-1.1 4.9.0 1.8.3 3.6 1 5.4 3.2 9.2 15.2 19.8 17.2 21.8C103.9 67.4 96.3 58.9 93.8 51.5v0z"/><linearGradient id="SVGID_5_" gradientUnits="userSpaceOnUse" x1="-928.6369" y1="-163.5004" x2="-928.6369" y2="-163.4456" gradientTransform="matrix(366.575 0 0 -971.79 340501.625 -158786.0938)"><stop offset=".04" style="stop-color:#4d4d4d"/><stop offset=".048" style="stop-color:#5a5a5a"/><stop offset=".077" style="stop-color:gray"/><stop offset=".109" style="stop-color:#a3a3a3"/><stop offset=".144" style="stop-color:silver"/><stop offset=".182" style="stop-color:#d7d7d7"/><stop offset=".226" style="stop-color:#e9e9e9"/><stop offset=".279" style="stop-color:#f6f6f6"/><stop offset=".348" style="stop-color:#fdfdfd"/><stop offset=".506" style="stop-color:#fff"/><stop offset=".631" style="stop-color:#fdfdfd"/><stop offset=".701" style="stop-color:#f5f5f5"/><stop offset=".756" style="stop-color:#e7e7e7"/><stop offset=".805" style="stop-color:#d3d3d3"/><stop offset=".848" style="stop-color:#bababa"/><stop offset=".888" style="stop-color:#9b9b9b"/><stop offset=".925" style="stop-color:#777"/><stop offset=".96" style="stop-color:#4d4d4d"/></linearGradient><path class="st4" d="M95.7 70.7c-3.2-9.2-15.4-20.1-17.4-21.9C83.7 54 91.6 62.6 94 70.3c.7 2.1 1 4 1 5.8.0 1.6-.4 3.3-1 5.1-1.3 3.2-3.9 6.9-7.9 11.1-1.4 1.5-7.3 7.3-9.3 9.3-.1.1-.2.2-.3.4 2.7-2.2 16-14.1 19-21 .7-1.7 1.1-3.2 1.1-4.9C96.7 74.3 96.4 72.5 95.7 70.7z"/><path d="M91.5 61.6c-2.4-2.9-4.8-5.5-7.1-7.5-2.4-2.2-4.3-3.9-6.1-5.3 2.1 1.8 14.3 12.8 17.4 21.9.6 1.8 1 3.6 1 5.4.0 1.7-.5 3.2-1.1 4.9-2.9 6.9-16.2 18.8-19.1 21v.1c2.3-1.8 12.2-10.2 14.8-12.8 4.2-4.1 7.4-8.7 7.4-13.2C98.7 71.1 95.3 66.2 91.5 61.6v0zM62.7 45.6c0 4.9-3.3 9.8-7.7 14.3-2.8 2.8-5.7 5.4-8.3 7.4-2.7 2.2-4.9 3.7-6.8 5.1 2.2-1.8 16-12.4 19.7-21.5.7-1.8 1.1-3.5 1.1-5.3s-.4-3.5-1.1-5.3c-3.6-9.1-17.4-19.8-19.7-21.5 2 1.4 4.1 2.8 6.8 5.1 2.6 2.1 5.5 4.6 8.3 7.4C59.4 35.8 62.7 40.8 62.7 45.6v0z"/><linearGradient id="SVGID_6_" gradientUnits="userSpaceOnUse" x1="-926.4127" y1="-163.835" x2="-926.3472" y2="-163.8761" gradientTransform="matrix(360.5972 0 0 -993.7839 334091.75 -162792.7813)"><stop offset=".018" style="stop-color:#f5f5f5"/><stop offset=".327" style="stop-color:#f0f0f0"/><stop offset=".687" style="stop-color:#e2e2e2"/><stop offset=".727" style="stop-color:#e0e0e0"/><stop offset=".96" style="stop-color:#b3b3b3"/></linearGradient><path class="st5" d="M39.9 72.4l-.6.4V18.4l.6.4c2.1 1.8 14.9 12.4 18.2 21.5.7 1.8 1.1 3.5 1.1 5.3.0 1.8-.4 3.5-1.1 5.3C54.6 60 41.9 70.7 39.9 72.4"/><linearGradient id="SVGID_7_" gradientUnits="userSpaceOnUse" x1="-927.9983" y1="-163.9842" x2="-927.9983" y2="-163.9294" gradientTransform="matrix(379.7903 0 0 -978.3885 352494.9688 -160367.8438)"><stop offset=".04" style="stop-color:#4d4d4d"/><stop offset=".048" style="stop-color:#5a5a5a"/><stop offset=".077" style="stop-color:gray"/><stop offset=".109" style="stop-color:#a3a3a3"/><stop offset=".144" style="stop-color:silver"/><stop offset=".182" style="stop-color:#d7d7d7"/><stop offset=".226" style="stop-color:#e9e9e9"/><stop offset=".279" style="stop-color:#f6f6f6"/><stop offset=".348" style="stop-color:#fdfdfd"/><stop offset=".506" style="stop-color:#fff"/><stop offset=".631" style="stop-color:#fdfdfd"/><stop offset=".701" style="stop-color:#f5f5f5"/><stop offset=".756" style="stop-color:#e7e7e7"/><stop offset=".805" style="stop-color:#d3d3d3"/><stop offset=".848" style="stop-color:#bababa"/><stop offset=".888" style="stop-color:#9b9b9b"/><stop offset=".925" style="stop-color:#777"/><stop offset=".96" style="stop-color:#4d4d4d"/></linearGradient><path class="st6" d="M39.9 72.4c2.2-1.8 16-12.4 19.7-21.5.7-1.8 1.1-3.5 1.1-5.3s-.4-3.5-1.1-5.3c-3.6-9.1-17.4-19.8-19.7-21.5 2.1 1.8 14.9 12.4 18.2 21.5.7 1.8 1.1 3.5 1.1 5.3.0 1.8-.4 3.5-1.1 5.3C54.6 60 41.9 70.7 39.9 72.4z"/><path d="M111.4 74.4c-2.5-2.4-14.2-13.5-17.3-23-.7-2-1-3.8-1-5.7.0-1.7.4-3.2 1-4.9 1.5-3.7 4.6-7.7 7.8-11 1.4-1.5 7.3-7.3 9.3-9.4.5-.5.8-1.1.9-1.7.1-.6.2-1.2.2-1.6v-1.1L76.8 43.6c-.4.3-1 .8-1.2 1.6-.2-.7-.8-1.3-1.2-1.6L39 16v59.4l35.5-27.6c.4-.3 1-.8 1.2-1.6.2.6.6 1.1.8 1.2 2.5 2.4 14.3 13.5 17.4 23 .7 2 1 3.8 1 5.7.0 1.7-.4 3.2-1 4.9-1.5 3.7-4.6 7.7-7.8 11-1.4 1.5-7.3 7.4-9.3 9.4-.4.4-.8 1.1-.9 1.7-.1.5-.2 1-.2 1.6v1.1l35.5-27.6c.5-.4 1.3-1.1 1.3-2.1C112.3 75.2 111.6 74.6 111.4 74.4v0zM74.3 47.5l-35 27.2v-58l34.9 27.2c.4.3 1.2 1 1.2 1.9C75.3 46.5 74.7 47.2 74.3 47.5zM75.9 46.2c-.1-.4-.1-.8.0-1.1.2-.6.8-1.1 1.1-1.3l34.9-27.2v.5c0 .2.0.7-.1 1.3-.1.7-.4 1.3-.9 1.7-2.6 2.6-8 7.9-9.3 9.3-4 4.2-6.6 7.9-7.9 11.1-.7 1.8-1 3.4-1 5.1.0 1.9.4 3.8 1 5.8 2.4 7.5 10.2 16 15.5 21.3L78.4 48.7c0 0-1.5-1.3-1.8-1.5C76.4 47 76.1 46.6 75.9 46.2v0zM110.8 77.9l-34.9 27.2v-.5c0-.5.1-.9.1-1.3.1-.7.4-1.3.9-1.7l9.3-9.3c4-4.2 6.6-7.9 7.9-11.1.7-1.8 1-3.4 1-5.1.0-1.9-.4-3.8-1-5.8-2.5-7.6-10.4-16.2-15.7-21.5l31.2 24.2c0 0 1.6 1.4 1.9 1.7.2.2.8.8.8 1.5C112 76.9 111.2 77.6 110.8 77.9v0z"/><linearGradient id="SVGID_8_" gradientUnits="userSpaceOnUse" x1="-930.273" y1="-176.8855" x2="-930.2766" y2="-176.9348" gradientTransform="matrix(387.6088 0 0 -317.3753 360670.5313 -56092.3047)"><stop offset="0" style="stop-color:#bfbfbf"/><stop offset=".212" style="stop-color:#666"/><stop offset=".274" style="stop-color:#595959"/><stop offset=".516" style="stop-color:#292929"/><stop offset=".701" style="stop-color:#0b0b0b"/><stop offset=".806" style="stop-color:#000"/></linearGradient><path class="st7" d="M98.4 63.4c.1-.1-3.5-3.6-4-4-4-3.7-7.2-9.5-7.2-9.5-1.2-2.3-1.6-3.3-3.8-3.5-2.3-.2-3.9-.3-5.3-.3-.6.0-.8.1-.9.4-.1.2.1.5.6.8 3.6 2.5 9 6.8 16.3 12.7C94.6 60.3 98.3 63.5 98.4 63.4v0z"/><linearGradient id="SVGID_9_" gradientUnits="userSpaceOnUse" x1="-940.8256" y1="-163.4371" x2="-940.8256" y2="-163.4919" gradientTransform="matrix(659.2061 0 0 -1059.1357 620255.1875 -173085.4375)"><stop offset=".04" style="stop-color:#8c8c8c"/><stop offset=".194" style="stop-color:#b6b6b6"/><stop offset=".403" style="stop-color:#ebebeb"/><stop offset=".506" style="stop-color:#fff"/><stop offset=".564" style="stop-color:#fafafa"/><stop offset=".633" style="stop-color:#ebebeb"/><stop offset=".707" style="stop-color:#d3d3d3"/><stop offset=".786" style="stop-color:#b2b2b2"/><stop offset=".868" style="stop-color:#878787"/><stop offset=".952" style="stop-color:#535353"/><stop offset=".96" style="stop-color:#4d4d4d"/></linearGradient><path class="st8" d="M39.3 72.9l.6-.4c2-1.4 4.1-2.8 6.8-5.1 2.6-2.1 5.5-4.6 8.3-7.4 4.4-4.5 7.7-9.4 7.7-14.3s-3.3-9.8-7.7-14.3c-2.8-2.8-5.7-5.4-8.3-7.4-2.7-2.2-4.9-3.7-6.8-5.1l-.6-.4v-1.9l34.9 27.2c.4.3 1.2 1 1.2 1.9s-.7 1.5-1.2 1.9L39.3 74.7V72.9z"/><linearGradient id="SVGID_10_" gradientUnits="userSpaceOnUse" x1="-929.7007" y1="-176.8796" x2="-929.6973" y2="-176.9287" gradientTransform="matrix(394.8356 0 0 -317.4716 367141.4063 -56107.4336)"><stop offset="0" style="stop-color:#bfbfbf"/><stop offset=".212" style="stop-color:#666"/><stop offset=".274" style="stop-color:#595959"/><stop offset=".516" style="stop-color:#292929"/><stop offset=".701" style="stop-color:#0b0b0b"/><stop offset=".806" style="stop-color:#000"/></linearGradient><path class="st9" d="M52.4 63.4c0 0 .9-.9 2.9-2.7.5-.4 1-.9 1.4-1.3 4-3.7 7.2-9.5 7.2-9.5 1.2-2.3 1.6-3.3 3.8-3.5 2.3-.2 3.9-.3 5.3-.3.6.0.8.1.9.4.1.2-.1.5-.6.8C69.7 49.8 64.4 54.2 57 60c-.5.4-1 .8-1.5 1.1C53.5 62.5 52.5 63.5 52.4 63.4v0z"/></g></svg>