<svg xmlns:dc="http://purl.org/dc/elements/1.1/" xmlns:cc="http://creativecommons.org/ns#" xmlns:rdf="http://www.w3.org/1999/02/22-rdf-syntax-ns#" xmlns:svg="http://www.w3.org/2000/svg" xmlns="http://www.w3.org/2000/svg" viewBox="0 0 1024.1467 140.01334" height="140.01334" width="1024.1467" id="svg2"><defs id="defs6"><clipPath id="clipPath22" clipPathUnits="userSpaceOnUse"><path id="path20" d="m1267.8 685.305 171.04 299.761h428.34L1360.94 65.0664H932.598L1153.75 475.813c0 0-119.82 9.667-232.66-1.84C808.246 462.465 704.609 362.203 657.523 275.793L545.707 65.0664H117.367L623.613 985.066H1051.95L869.273 664.09c65.629 13.816 165.807 19.582 249.857 20.726 84.05 1.164 148.67.489 148.67.489z" /></clipPath><linearGradient id="linearGradient38" spreadMethod="pad" gradientTransform="matrix(-4.01e-5,-917.171,-917.171,4.01e-5,992.275,981.58)" gradientUnits="userSpaceOnUse" y2="0" x2="1" y1="0" x1="0"><stop id="stop24" offset="0" style="stop-opacity:1;stop-color:#cdccc9" /><stop id="stop26" offset=".134427" style="stop-opacity:1;stop-color:#fff" /><stop id="stop28" offset=".296018" style="stop-opacity:1;stop-color:#fff" /><stop id="stop30" offset=".634487" style="stop-opacity:1;stop-color:#949595" /><stop id="stop32" offset=".80971" style="stop-opacity:1;stop-color:#949595" /><stop id="stop34" offset=".965183" style="stop-opacity:1;stop-color:#fff" /><stop id="stop36" offset="1" style="stop-opacity:1;stop-color:#fff" /></linearGradient><clipPath id="clipPath52" clipPathUnits="userSpaceOnUse"><path id="path50" d="M3520.46 65.0664H3973.1L5047.76 985.066h-532.44l-589.34-486.214-17.02 486.214h-405.02z" /></clipPath><linearGradient id="linearGradient68" spreadMethod="pad" gradientTransform="matrix(-3.96e-5,-906.593,-906.593,3.96e-5,4275.85,971.014)" gradientUnits="userSpaceOnUse" y2="0" x2="1" y1="0" x1="0"><stop id="stop54" offset="0" style="stop-opacity:1;stop-color:#cdccc9" /><stop id="stop56" offset=".134427" style="stop-opacity:1;stop-color:#fff" /><stop id="stop58" offset=".296018" style="stop-opacity:1;stop-color:#fff" /><stop id="stop60" offset=".634487" style="stop-opacity:1;stop-color:#949595" /><stop id="stop62" offset=".80971" style="stop-opacity:1;stop-color:#949595" /><stop id="stop64" offset=".965183" style="stop-opacity:1;stop-color:#fff" /><stop id="stop66" offset="1" style="stop-opacity:1;stop-color:#fff" /></linearGradient><clipPath id="clipPath82" clipPathUnits="userSpaceOnUse"><path id="path80" d="m2696.69 465.066h-320.23l124.48 121.243c0 0 152.1 134.988 220.14 175.105 68.04 40.117 141.31 26.191 141.31 26.191zm248.71 520c-208.62.0-430.18-89.558-508.68-143.64-78.51-54.082-170.62-127.781-194.35-150L1551.43 65.0664h399.74l114.37 113.4256c46.69 43.051 168.8 99.821 297.9 98.082 129.1-1.742 244.95-11.398 244.95-11.398L2518.65 65.0664h336.94L3284.5 985.066z" /></clipPath><linearGradient id="linearGradient98" spreadMethod="pad" gradientTransform="matrix(-4.01e-5,-917.171,-917.171,4.01e-5,2417.96,988.553)" gradientUnits="userSpaceOnUse" y2="0" x2="1" y1="0" x1="0"><stop id="stop84" offset="0" style="stop-opacity:1;stop-color:#cdccc9" /><stop id="stop86" offset=".134427" style="stop-opacity:1;stop-color:#fff" /><stop id="stop88" offset=".296018" style="stop-opacity:1;stop-color:#fff" /><stop id="stop90" offset=".634487" style="stop-opacity:1;stop-color:#949595" /><stop id="stop92" offset=".80971" style="stop-opacity:1;stop-color:#949595" /><stop id="stop94" offset=".965183" style="stop-opacity:1;stop-color:#fff" /><stop id="stop96" offset="1" style="stop-opacity:1;stop-color:#fff" /></linearGradient><clipPath id="clipPath112" clipPathUnits="userSpaceOnUse"><path id="path110" d="m5537.81 465.066h-320.23l124.48 121.243c0 0 152.11 134.988 220.15 175.105 68.03 40.117 141.31 26.191 141.31 26.191zm248.71 520c-208.61.0-430.17-89.558-508.68-143.64-78.5-54.082-170.61-127.781-194.34-150L4392.56 65.0664h399.73l114.37 113.4256c46.69 43.051 168.81 99.821 297.91 98.082 129.1-1.742 244.94-11.398 244.94-11.398L5359.78 65.0664h336.93l428.92 919.9996z" /></clipPath><linearGradient id="linearGradient128" spreadMethod="pad" gradientTransform="matrix(-4.01e-5,-917.171,-917.171,4.01e-5,5259.09,988.553)" gradientUnits="userSpaceOnUse" y2="0" x2="1" y1="0" x1="0"><stop id="stop114" offset="0" style="stop-opacity:1;stop-color:#cdccc9" /><stop id="stop116" offset=".134427" style="stop-opacity:1;stop-color:#fff" /><stop id="stop118" offset=".296018" style="stop-opacity:1;stop-color:#fff" /><stop id="stop120" offset=".634487" style="stop-opacity:1;stop-color:#949595" /><stop id="stop122" offset=".80971" style="stop-opacity:1;stop-color:#949595" /><stop id="stop124" offset=".965183" style="stop-opacity:1;stop-color:#fff" /><stop id="stop126" offset="1" style="stop-opacity:1;stop-color:#fff" /></linearGradient><clipPath id="clipPath142" clipPathUnits="userSpaceOnUse"><path id="path140" d="m6594.7 381.102c0 0 184.28 331.214 225.06 400.601 79.21 134.813 215.68 203.363 215.68 203.363h-528.49c0 0-305.03-542.957-349.72-621.648-50.57-89.008-47.25-197.707 40.15-255.957 57.58-38.3751 231.65-42.3946 231.65-42.3946h877.42l216.81 239.9996h-907.68c0 0-50.99 27.188-20.88 76.036z" /></clipPath><linearGradient id="linearGradient158" spreadMethod="pad" gradientTransform="matrix(-4.01e-5,-917.171,-917.171,4.01e-5,6823.77,981.58)" gradientUnits="userSpaceOnUse" y2="0" x2="1" y1="0" x1="0"><stop id="stop144" offset="0" style="stop-opacity:1;stop-color:#cdccc9" /><stop id="stop146" offset=".134427" style="stop-opacity:1;stop-color:#fff" /><stop id="stop148" offset=".296018" style="stop-opacity:1;stop-color:#fff" /><stop id="stop150" offset=".634487" style="stop-opacity:1;stop-color:#949595" /><stop id="stop152" offset=".80971" style="stop-opacity:1;stop-color:#949595" /><stop id="stop154" offset=".965183" style="stop-opacity:1;stop-color:#fff" /><stop id="stop156" offset="1" style="stop-opacity:1;stop-color:#fff" /></linearGradient></defs><g transform="matrix(1.3333333,0,0,-1.3333333,0,140.01333)" id="g10"><g transform="scale(0.1)" id="g12"><path id="path14" style="fill:#100f0d;fill-opacity:1;fill-rule:nonzero;stroke:none" d="m816.664.0 222.816 411.82c-40.671-.304-78.089-2.179-111.382-5.57-84.032-8.574-170.871-89.348-209.91-160.996L587.117.0H0L582.945 1050.13H1171.14L997.652 747.219c46.228 3.082 89.888 4.25 120.538 4.668 39.22.539 74.26.687 100.59.687 3.18.0 6.23.0 9.14-.008l170.94 297.564h585.69L1401.61.0H816.664" /><g id="g16"><g clip-path="url(#clipPath22)" id="g18"><path id="path40" style="fill:url(#linearGradient38);fill-opacity:1;fill-rule:nonzero;stroke:none" d="m1267.8 685.305 171.04 299.761h428.34L1360.94 65.0664H932.598L1153.75 475.813c0 0-119.82 9.667-232.66-1.84C808.246 462.465 704.609 362.203 657.523 275.793L545.707 65.0664H117.367L623.613 985.066H1051.95L869.273 664.09c65.629 13.816 165.807 19.582 249.857 20.726 84.05 1.164 148.67.489 148.67.489" /></g></g><path id="path42" style="fill:#fff;fill-opacity:1;fill-rule:nonzero;stroke:none" d="m955.785 85.0664h397.025l490.9 879.9996h-396.87l-171.09-296.753-8.08.621c-.09.007-64.54.949-148.35-.215-102.03-1.387-192.14-8.707-247.203-20.293l-30.148-7.363 186.151 324.003H631.746L140.84 85.0664H537.422L645.336 285.898c48.91 89.77 155.594 191.25 274.348 203.368 39.336 4.011 83.676 5.777 131.796 5.777 58.83.0 102.82-3.273 103.26-3.297l21.33-.531zm413.285-30H909.41l221.83 410.0856c-18.19.871-46.55 1.938-79.76 1.938-47.19.0-90.585-1.965-128.992-5.879C818.531 450.605 716.605 357.742 669.652 271.578L553.992 55.0664H93.8984L615.484 995.066H1075.79L896.016 681.082c78.519 12.336 179.544 15 222.934 15.598 66.61.918 121.01.761 140.89.625l171.01 297.761h459.8L1369.07 55.0664" /><path id="path44" style="fill:#100f0d;fill-opacity:1;fill-rule:nonzero;stroke:none" d="m3452.62.0-19.06 1050.13h542.22l14.36-411.157 500.44 411.157h745.38L3998.46.0h-545.84" /><g id="g46"><g clip-path="url(#clipPath52)" id="g48"><path id="path70" style="fill:url(#linearGradient68);fill-opacity:1;fill-rule:nonzero;stroke:none" d="M3520.46 65.0664H3973.1L5047.76 985.066h-532.44l-589.34-486.214-17.02 486.214h-405.02l16.52-919.9996" /></g></g><path id="path72" style="fill:#fff;fill-opacity:1;fill-rule:nonzero;stroke:none" d="m3534.03 85.0664h433.99L5010.13 965.066h-489.86l-607.13-497.73-17.96 501.07-377.33 3.625zm444.13-30h-471.27l-17.17 943.1216 432.13-1.11 16.96-471.738 571.56 469.726H5085.4L3978.16 55.0664" /><path id="path74" style="fill:#100f0d;fill-opacity:1;fill-rule:nonzero;stroke:none" d="m2654.61 538.887 76.22 147.539C2674.48 646.711 2585.67 571.094 2548.94 538.887zM2411.62.0l92.29 204.25c-40.62 1.82-90.08 3.555-141.4 4.25l-4.98.031c-108.29.0-209.51-46.48-244.56-78.258L1979.26.0h-607.55l824.38 743.723c28.18 26.406 126.53 100.988 201.44 152.59 90.05 62.027 326.44 153.817 547.87 153.817h447.93L2899.44.0h-487.82" /><g id="g76"><g clip-path="url(#clipPath82)" id="g78"><path id="path100" style="fill:url(#linearGradient98);fill-opacity:1;fill-rule:nonzero;stroke:none" d="m2696.69 465.066h-320.23l124.48 121.243c0 0 152.1 134.988 220.14 175.105 68.04 40.117 141.31 26.191 141.31 26.191zm248.71 520c-208.62.0-430.18-89.558-508.68-143.64-78.51-54.082-170.62-127.781-194.35-150L1551.43 65.0664h399.74l114.37 113.4256c46.69 43.051 168.8 99.821 297.9 98.082 129.1-1.742 244.95-11.398 244.95-11.398L2518.65 65.0664h336.94L3284.5 985.066h-339.1" /></g></g><path id="path102" style="fill:#fff;fill-opacity:1;fill-rule:nonzero;stroke:none" d="m2410.93 483.617h277.34l152.29 294.801c-26.49.656-70.92-3.234-112.46-27.727-66.15-39.003-216.52-171.062-218.04-172.39zM2705.1 455.98h-363.12l149.42 142.684c6.66 5.887 154.28 135.516 222.67 175.832 44.31 26.133 90.4 31.613 121.27 31.613 17.56.0 28.83-1.832 29.31-1.914l18.73-3.101zM2540.06 82.9063h306.76L3262.73 967.227H2945.4c-211.15.0-430.39-90.657-500.84-139.196-77.89-53.66-169.13-123.574-192.74-145.687L1587.37 82.9063h358.18L2055.9 190.402c53.26 49.114 176.88 101.036 301.63 101.036l6.1-.04c128.01-1.726 244.57-9.843 245.74-9.925l19.78-1.391zm324.3-27.6329h-367.11l90.33 199.9066c-38.54 2.363-128.19 7.289-224.33 8.582l-5.72.039c-125.03.0-240.53-54.649-282.63-93.457L1956.79 55.2734h-441.31l717.64 647.4146c24.1 22.585 116.93 93.796 195.76 148.105 84.34 58.098 306.82 144.07 516.52 144.07h360.86L2864.36 55.2734" /><path id="path104" style="fill:#100f0d;fill-opacity:1;fill-rule:nonzero;stroke:none" d="m5495.74 538.887 76.21 147.539C5515.62 646.711 5426.8 571.094 5390.06 538.887zM5252.74.0l92.29 204.25c-40.62 1.82-90.07 3.555-141.39 4.25l-4.98.031c-108.3.0-209.51-46.48-244.56-78.258L4820.38.0h-607.55l824.39 743.723c28.21 26.437 126.56 101.007 201.42 152.59 90.06 62.027 326.46 153.817 547.88 153.817h447.94L5740.57.0h-487.83" /><g id="g106"><g clip-path="url(#clipPath112)" id="g108"><path id="path130" style="fill:url(#linearGradient128);fill-opacity:1;fill-rule:nonzero;stroke:none" d="m5537.81 465.066h-320.23l124.48 121.243c0 0 152.11 134.988 220.15 175.105 68.03 40.117 141.31 26.191 141.31 26.191zm248.71 520c-208.61.0-430.17-89.558-508.68-143.64-78.5-54.082-170.61-127.781-194.34-150L4392.56 65.0664h399.73l114.37 113.4256c46.69 43.051 168.81 99.821 297.91 98.082 129.1-1.742 244.94-11.398 244.94-11.398L5359.78 65.0664h336.93l428.92 919.9996h-339.11" /></g></g><path id="path132" style="fill:#fff;fill-opacity:1;fill-rule:nonzero;stroke:none" d="m5252.06 483.617h277.33l152.29 294.801c-26.62.578-70.92-3.234-112.45-27.727-66.15-39.003-216.53-171.062-218.05-172.39zm294.17-27.637h-363.12l149.41 142.684c6.67 5.887 154.3 135.516 222.68 175.832 44.3 26.133 90.4 31.613 121.26 31.613 17.56.0 28.85-1.832 29.3-1.914l18.75-3.101zM5381.18 82.9063h306.76l415.92 884.3207h-317.34c-211.14.0-430.39-90.657-500.84-139.196-77.86-53.629-169.1-123.554-192.74-145.687L4428.51 82.9063h358.17l110.33 107.4957c53.27 49.114 176.91 101.036 301.65 101.036l6.11-.04c127.99-1.726 244.55-9.843 245.71-9.925l19.79-1.391zM5705.49 55.2734H5338.38L5428.7 255.18c-38.53 2.363-128.17 7.289-224.32 8.582l-5.72.039c-125.03.0-240.54-54.649-282.63-93.457L4797.9 55.2734h-441.29l717.63 647.4146c24.14 22.597 116.96 93.816 195.76 148.105 84.34 58.098 306.84 144.07 516.52 144.07h360.86L5705.49 55.2734" /><path id="path134" style="fill:#100f0d;fill-opacity:1;fill-rule:nonzero;stroke:none" d="m6429.03.0c-46.09.269531-200.56 4.71875-269.97 50.9766-110.03 73.3394-135.5 215.0274-61.91 344.5504 44.14 77.703 346.57 614.043 349.62 619.453l19.82 35.15h867.08L7065.81 918.992C7064.82 918.5 6946.46 858.672 6879.32 744.418 6846.08 687.875 6714.13 452.461 6669.69 373.074H7681.05L7336.7.0h-907.67" /><g id="g136"><g clip-path="url(#clipPath142)" id="g138"><path id="path160" style="fill:url(#linearGradient158);fill-opacity:1;fill-rule:nonzero;stroke:none" d="m6594.7 381.102c0 0 184.28 331.214 225.06 400.601 79.21 134.813 215.68 203.363 215.68 203.363h-528.49c0 0-305.03-542.957-349.72-621.648-50.57-89.008-47.25-197.707 40.15-255.957 57.58-38.3751 231.65-42.3946 231.65-42.3946h877.42l216.81 239.9996h-907.68c0 0-50.99 27.188-20.88 76.036" /></g></g><path id="path162" style="fill:#fff;fill-opacity:1;fill-rule:nonzero;stroke:none" d="m6515.02 965.066c-35.99-60-304.35-538.632-345.79-611.574-43.21-76.086-48.92-176.519 35.81-232.996 44.41-29.5897 176.82-35.4296 224.08-35.4296h871.28l191.3 209.9996h-879.64l-3.09-.769c-1.14.625-28.13 14.363-35.66 42.637-4.5 16.902-1.27 33.82 9.62 51.488 1.55 2.793 184.53 328.516 224.91 397.23 52.64 89.567 128.83 149.414 176.78 179.414zM7312.49 55.0664h-883.46c-7.35.0-178.98 1.5859-239.31 41.8008-86.18 57.4298-104.06 166.4918-44.51 271.3168 44.18 77.761 346.66 614.316 349.7 619.726l3.97 7.156h596.04l-53.4-26.328c-1.33-.652-133.79-66.816-209.85-196.269-40.23-68.457-223.08-395.336-224.91-398.629-7.15-11.61-9.26-22.973-6.74-32.383 3.38-12.707 14.4-16.391 19.52-26.391h935.28L7312.49 55.0664" /></g></g></svg>