<svg id="Layer_1" xmlns="http://www.w3.org/2000/svg" xmlns:xlink="http://www.w3.org/1999/xlink" viewBox="0 0 150 150" style="enable-background:new 0 0 150 150"><style>.st0{fill:#b8394b}.st1{fill:#fff}</style><path class="st0" d="M86.9 81.4c.2.0.4-.2.4-.5V67.7c0-.3-.2-.5-.4-.5h-2.4c-.2.0-.4.2-.4.5v13.2c0 .3.2.5.4.5H86.9v0zM102 67.2h-2.3c-.2.0-.4.2-.4.5v5.5h-4.8v-5.5c0-.3-.2-.5-.4-.5h-2.3c-.2.0-.4.2-.4.5v13.2c0 .3.2.5.4.5h2.3c.2.0.4-.2.4-.5v-6.2h4.8v6.2c0 .3.2.5.4.5h2.3c.2.0.4-.2.4-.5V67.7C102.5 67.5 102.3 67.2 102 67.2v0zm-40.1.0h-5.6c-.2.0-.4.2-.4.5v13.2c0 .3.2.5.4.5h5.6c3.3.0 5.9-2 5.9-7.1C67.7 69.3 65.2 67.2 61.9 67.2zM61.1 79.9H59v-11.1h2.1c2.5.0 3.4 1.7 3.4 5.5C64.5 78.2 63.7 79.9 61.1 79.9v0zm20.6 1-4.6-13.2c-.1-.3-.3-.5-.6-.5h-2.3c-.1.0-.3.1-.3.3l-4.6 13.7c0 .1.0.3.1.3h1.4c.1.0.3-.1.3-.3l1.1-3.5h5l1.1 3.3c.1.3.3.5.6.5h2.5C81.6 81.4 81.8 81.2 81.7 80.9v0zM72.8 76.2l2-6.1 2 6.1h-4zM117 80.9l-4.6-13.2c-.1-.3-.3-.5-.6-.5h-2.3c-.1.0-.3.1-.3.3l-4.6 13.7c0 .1.0.3.1.3h1.4c.1.0.3-.1.3-.3l1.1-3.5h5l1.1 3.2c.1.3.3.5.6.5h2.5C116.9 81.4 117.1 81.2 117 80.9v0zM108.1 76.2l2-6.1 2 6.1h-4zM126.8 67.2h-10.6c-.1.0-.2.1-.2.3v1c0 .1.1.3.2.3h3.8v12.1c0 .3.2.5.4.5h2.3c.2.0.4-.2.4-.5V68.8h3.7c.1.0.3-.1.3-.2.0.0.0.0.0.0v-1C127 67.4 126.9 67.2 126.8 67.2c0 0 0 0 0 0zM147.2 76.7v-9.2c0-.1.1-.3.2-.3h1.4c.1.0.2.1.2.3v8.8c0 .8.0 1.1.0 1.6-.2 2.8-2 3.7-4.9 3.7-3.4.0-5-1.9-5.3-3.7-.1-.7-.1-1.4-.1-2v-8.2c0-.3.2-.5.4-.5h2.3c.2.0.4.2.4.5v9.2c0 .4.0.8.1 1.2.1.8.7 2 2.7 2 1.8.0 2.7-1 2.7-2.3L147.2 76.7v0zM135.3 69.4c.1.1.2.0.2-.2V68c0-.2-.1-.2-.2-.3.0.0-.3-.2-1-.4-.7-.2-1.5-.3-2.3-.3-2.1.0-3.1.7-3.7 1.5-.6.8-.8 1.8-.6 2.9.3 1.8 1.8 2.9 3.3 4 1.1.9 2.3 1.5 2.6 2.6.2.5.1 1.1-.3 1.5-.4.4-.9.5-1.7.5-.9.0-2-.2-3.1-.7-.2-.1-.4-.2-.4-.2-.1-.1-.2.0-.2.2v1.3c0 .1.1.3.2.3.0.0.2.1.3.1 1 .3 2 .5 3.3.5 2.1.0 3.2-.7 3.7-1.4.7-.7 1-1.9.7-3.2-.4-2.1-2.2-3.2-3.6-4.2-1.1-.7-2.1-1.5-2.4-2.3-.2-.6.1-1.1.2-1.3.3-.4.9-.7 1.7-.7.7.0 1.5.1 2.3.5C134.6 69.1 134.9 69.2 135.3 69.4v0zM.5 88h45.9V61H.5V88v0z"/><path class="st1" d="M14.4 69c8.8.0 21.1.8 27 3.2.5.2 1 .4 1 .8.0.5-1.2.9-2.3 1.3-4.3 1.4-12.1 2.9-23.4 3.7L6.1 67.5c-.8.0-1.7.0-2.5.1l10.9 10.9-2.9 4.3c17.6-2.8 25.5-5.6 29-7.2.8-.3 2.9-1.3 2.9-2.6.0-.8-.7-1.2-1.7-1.7-3.6-1.6-9.7-2.6-15.7-3.1-6.2-.6-14.5-.8-19.1-.7l9.8 9.8c1.9-.1 3.7-.3 5.5-.5L14.4 69z"/></svg>