<svg id="Layer_1" xmlns="http://www.w3.org/2000/svg" xmlns:xlink="http://www.w3.org/1999/xlink" viewBox="0 0 150 150" style="enable-background:new 0 0 150 150"><path d="M9.8 97.6V73.7h-7.3l.1 23.9H9.8zM70.5 97.4c6.6.0 8.4-3.1 8.4-7V73.5h-7.3V88c0 2.1-.5 3.8-4.4 3.9h-4.1c-3.9.0-4.4-1.7-4.4-3.8v-14.5h-7.3v16.9c0 3.9 1.8 7 8.4 7L70.5 97.4v0zM140.6 97.3c6.6.0 8.4-3.1 8.4-7V73.4h-7.3v14.5c0 2.1-.5 3.8-4.4 3.9h-4.1c-3.9.0-4.4-1.7-4.4-3.8v-14.5h-7.3v16.9c0 3.9 1.8 7 8.4 7L140.6 97.3v0zM16.7 92v5.6l23.7-.1c4 0 5.4-2.9 5.7-4.5.3-1.5-.1-4.9-2.8-5.9l-17.8-6.6c-.8-.4-.4-1.3.6-1.3h17.7v-5.6h-18.2c-3.9.0-7.1 1.4-7.9 4-.7 2.3-.6 6 2.9 7.2l16 5.9c1 .4.8 1.2-.1 1.2L16.7 92v0 0zM113.7 91.8v5.6L91 97.4c-4 0-4.7-2.2-5-3.7s.1-4.9 2.7-5.9l16.3-8.4c.4-.2.4-.4.0-.4H86.6v-5.6h18.5c3.9.0 7.1.1 8.2 2.7 1 2.2.5 5.6-3 6.8L95 90.8c-.7.3-.8 1 .1 1H113.7v0 0zM139.6 27.9c-8.3-9.4-24.7-4.2-33.5 3.3-10.7 10-12.4 21.8-6.8 28 4.8 4.4 11.5 4.2 17.3 3.6 4.6-.9 9.8-2.9 14.4-6.6 3.8-3 7.2-7.1 9.8-12.6C144.5 35.7 140.4 28.8 139.6 27.9v0zM130.3 55.1C128 57.2 113 66.6 103 56.9c-8.2-8-1-20.5 3.5-24.3.8-.4 5.5-5.8 14.1-6.9 6.4-.8 11.8.9 15.1 4.5 1.7 1.9 2.8 4.3 3.2 7.2C140 45.7 132.7 52.9 130.3 55.1z"/><path d="M109.7 33v20.5h8.6v-9.9c0-1.4-.3-2.5-1.8-3.9L109.7 33zM129 33v20.5h-8.6v-9.9c0-1.4.2-2.5 1.8-3.9L129 33z"
	/></svg>