<svg id="Layer_1" xmlns="http://www.w3.org/2000/svg" xmlns:xlink="http://www.w3.org/1999/xlink" viewBox="0 0 150 150" style="enable-background:new 0 0 150 150"><style>.st0{fill:#01422d}.st1{fill:none;stroke:#01422d;stroke-width:.01099587}.st2{fill:#241f20}</style><path class="st0" d="M94.6 97.4c-.9 3.7-3.7 5.3-8.4 5.3-3.2.0-6-.6-7.4-2.1-1.6-1.5-1.8-3.6-1.8-5.9v-11h3.6v10.8c0 2.4.2 3.9 1.2 5 1.1 1.3 3 1.6 4.5 1.6 3.3.0 5.6-1.1 6.2-4 .1-.7.2-1.5.2-2.8V83.7H95v9.9C95 95.4 94.8 96.5 94.6 97.4"
	/><path class="st1" d="M94.6 97.4c-.9 3.7-3.7 5.3-8.4 5.3-3.2.0-6-.6-7.4-2.1-1.6-1.5-1.8-3.6-1.8-5.9v-11h3.6v10.8c0 2.4.2 3.9 1.2 5 1.1 1.3 3 1.6 4.5 1.6 3.3.0 5.6-1.1 6.2-4 .1-.7.2-1.5.2-2.8V83.7H95v9.9C95 95.4 94.8 96.5 94.6 97.4"
	/><path class="st0" d="M112.6 87.2l-4.1 8.6h8L112.6 87.2M119.4 102.3l-2.3-5.2h-9.2l-2.5 5.2h-2.3l9.3-18.6h2.2l9.1 18.6H119.4z"/><path class="st1" d="M112.6 87.2l-4.1 8.6h8L112.6 87.2M119.4 102.3l-2.3-5.2h-9.2l-2.5 5.2h-2.3l9.3-18.6h2.2l9.1 18.6H119.4z"/><path class="st0" d="M28 87.2l-4.1 8.6h8L28 87.2M34.9 102.3l-2.3-5.2h-9.2l-2.5 5.2h-2.3l9.3-18.6H30l9.1 18.6H34.9z"/><path class="st1" d="M28 87.2l-4.1 8.6h8L28 87.2M34.9 102.3l-2.3-5.2h-9.2l-2.5 5.2h-2.3l9.3-18.6H30l9.1 18.6H34.9z"/><path class="st0" d="M58.4 102.7c-6.1.0-12-2.1-12-9.2.0-2.3 1-4.7 2.6-6.4 2.4-2.6 6.1-3.7 9.6-3.7 2.1.0 4.6.5 6.5 1.4V87c-1.7-1.3-4-2.2-6.2-2.2-5 0-8.5 3.2-8.5 8.4.0 4.7 3.1 8 7.8 8 1.2.0 2.9-.2 4-.7v-6.8h3.6v7.6C63.7 102.2 60.7 102.7 58.4 102.7"/><path class="st1" d="M58.4 102.7c-6.1.0-12-2.1-12-9.2.0-2.3 1-4.7 2.6-6.4 2.4-2.6 6.1-3.7 9.6-3.7 2.1.0 4.6.5 6.5 1.4V87c-1.7-1.3-4-2.2-6.2-2.2-5 0-8.5 3.2-8.5 8.4.0 4.7 3.1 8 7.8 8 1.2.0 2.9-.2 4-.7v-6.8h3.6v7.6C63.7 102.2 60.7 102.7 58.4 102.7"/><path class="st0" d="M138.9 85h-2.6v8.9h2.3c1.9.0 3.1-.4 4-1.1.9-.8 1.5-1.9 1.5-3.5C144 86.2 141.7 85 138.9 85M144.9 102.3l-4.9-7.1h-3.7v7.1h-3.6V83.7h6.7c2.7.0 5.5.4 7 2.1.8.9 1.2 2.1 1.2 3.7.0 2.9-2.2 4.6-4.1 5.3l5.5 7.5H144.9v0z"/><path class="st1" d="M138.9 85h-2.6v8.9h2.3c1.9.0 3.1-.4 4-1.1.9-.8 1.5-1.9 1.5-3.5C144 86.2 141.7 85 138.9 85M144.9 102.3l-4.9-7.1h-3.7v7.1h-3.6V83.7h6.7c2.7.0 5.5.4 7 2.1.8.9 1.2 2.1 1.2 3.7.0 2.9-2.2 4.6-4.1 5.3l5.5 7.5H144.9v0z"/><path class="st0" d="M3.5 106.1c-.9.4-2 .7-3 .7 2.4-1.8 3.5-3.6 3.8-6.5.2-1.6.2-3.3.2-4.9V83.7h3.6v14.1C8.1 101.2 6.8 104.5 3.5 106.1"/><path class="st1" d="M3.5 106.1c-.9.4-2 .7-3 .7 2.4-1.8 3.5-3.6 3.8-6.5.2-1.6.2-3.3.2-4.9V83.7h3.6v14.1C8.1 101.2 6.8 104.5 3.5 106.1"/><path class="st2" d="M25.9 34.1c1.3.0 2.4-.4 2.4-.5.0-.1-1.4-.2-1.4-.2C25.5 33.4 25 33.9 25 34 25 34 25.3 34.1 25.9 34.1"/><path class="st2" d="M17.2 36.3c0 0 .1-.3.1-.3.0-.1.2-.7 1.1-.8.0.0.5.0 1 .1.0.0-.3.8-1.5.9C17.9 36.2 17.4 36.3 17.2 36.3M137.1 71.1c-.3.8-1.6 1.7-3.1 2.2-1.6.5-5 .6-6.7.0.0.0-.4-.4-1.6-.8-2.8-.8-3.7-1.4-5.2-2.7-1-.9-2.1-2.1-3.2-3.2-.5-.5-1.7-1.7-3.7-2-2.1-.4-7.4-.8-9.4-1.5-1.3-.5-2.9-1.3-4.8-4.2-.9-1.4-1.6-1.8-3-2.7.0.0 1 .8 1.6 1.8.8 1.4 1.2 2.5 1.6 3.2.4.8.9 1.4 1.7 2.1 1 .8 1.6.9 2.7 1.2 1 .2 4.6.4 7.6.5 3 .1 4.3 1 5.2 1.8.9.7 2.2 2.8 3.2 3.6 1.3 1.1 1.3 1.1 2.8 2.1.8.5 1.4.8 2 1 1.4.8.8 2.2.8 2.2-.4 1.1-1.8 1.5-3.4 1.3-2.5-.2-4.6-2.3-6.4-3.8-1-.8-1.3-1.2-3.3-2.6-2.9-2-9.8-1.9-9.8-1.9h-5c-9.8.1-13.4-7.7-14.4-9.4-.3-.6-.7-1-.9-1.4-.5-.6-2.9-3.8-5.5-5 0 0 2.5 2.2 2.3 3.4-.5.0-1.2.0-1.9.0-9.9.3-11.9-.3-13.5-.6-1.6-.3-4.2-1.1-6.7-2.3.0.0.3-2.4-.7-4.5.0.0 8.1 2.9 14.6 2.1.0.0-10.5-.5-17-5.7.0.0 1.6 5.5.3 7.8.0.0-1.7 4.2-10.5 1.4.0.0-4-1.6-7.2-1.6.0.0-2.4.1-2.7 1.3.0.0-.2.6.5.9.0.0.7.2.4.7-.5.8-1.3 1.5-2 1.9-2.5-.1-2.3-2.1-2.3-2.1.0-.7.3-1.2.5-1.7 1.5-3.4 7-3.9 7-3.9 5.8-.6 11.8.8 11.8.8-4.3-1-5.8-1.8-7-2.8-1.7-1.4-3.2-6.1-3.2-6.1-.7 2.3.2 4.6.7 5.8-.8-1.3-2-2.4-3-3.2-2.7-2.1-6.5-2.8-6.5-2.8-1.1-.2-1.6-1.3-1.6-1.3-1.4-2.6-3.1-2.8-3.1-2.8.8 1.1.7 2.6.7 2.6.0 2.8-3.5 3.7-3.5 3.7-2.7 2.6-3.1 2.6-3.6 2.6-.5.0-.9-.5-.9-.5-.2-.3.1-.5.1-.5.4-.3.9-.6.9-.6 2.6-2.1 3-3.1 2.7-4.6-.4-2.9-2.8-2.7-2.8-2.7-1.1.0-1.6.8-1.6.8-.4.5-1.3 2.1-1.3 2.1-.8 1.3-1.5 1.1-1.5 1.1-.9.1-1.6-.7-1.6-.7.0.0-.1-.1-.1-.1-.7-.7-.1-1.6-.1-1.6 1.1-1.9 3-2.1 3.2-2.1.3.0 1.1-.1 1.1-.1 2.1-.2 3.5-2.2 3.5-2.2-.9-.4-2.5-.2-2.5-.2-1.6.1-2 1.8-2 1.8-1.4.2-1.3-.8-1-1.1.2-.3 1-1.6 6.2-2.4.0.0 2.8-.5 7.7.0.2.0.4.2.1.4-.6.7-2.5 2.3-5.6 1.6.0.0-.1 1.2 3.3 1.9.0.0 3 .6 8 4.6.0.0-2.4-4.5-6.6-5.8.0.0-.3-.2.0-.5.0.0 2-1.8 5.4-1.6.0.0 11.5.6 17.9 7.3.0.0-.2-1.1-1.2-2.8.0.0-.2-.2-.1-.3.0.0.1-.3 1.2-.1.0.0 4.1.7 13.6 4.2.0.0 7.1 2.5 11 4.1 5.8 2.4 20.5 8.4 29.8 13.5 1.7.9 8.5 4.3 8.5 4.3 5.1 3.2 9.9 5.5 9.9 5.5 4.7 2.2 8.1 1.2 8.1 1.2 1.1-.4 3.2-1.5 4-.7C137.4 70 137.4 70.6 137.1 71.1v0zM138.3 69.3c-.6-1.4-2.6-1.1-2.6-1.1-.9.1-2 1-3.6 1.3-3.4.7-6-.5-6-.5-5-2.2-8.4-4.7-10.6-5.9-2.2-1.3-10.3-5.5-18.5-9.6.0.0-9.3-4.8-23.1-10.5.0.0-26.6-12.1-45.7-12.1.0.0-9.9-.1-13.3 3.7.0.0-.6.5-.3 1.1.0.0.0.2-.1.3.0.0-1.5 1-2.7 2.4.0.0-.6.7-.1 1.6.0.0.6 1.1 1 1.6.4.5 1.2 1.3 2.5 1.2.6-.1.6-.2.6-.2.6.6 1.6.6 1.6.6-.1-.4-.5-1.1-.5-1.5.0-.5.1-.9.1-.9.2-.5.6-1.1 1-1.4.4-.3 1.2-.6 1.9-.1.5.4 1.1 1.5.5 3.1.0.0-.7 1.2-1.4 1.4h-.2c-.4.0-1.2-.5-1.2-.5s0 .1.1.5c.1.2.1.5.2.7l-.2.1c0 0-.5.4-.3 1 0 0 .5 1.9 1.9 1.9 1.3.0 2.3-1.2 2.3-1.2 2.7-2.9 6.5-3.3 6.5-3.3 4.2-.3 10.3 4.1 11.9 5.3-6.3-.1-8.8 2.3-8.8 2.3-3.5 2.8-2.2 6.1-2.2 6.1.3.7 1 1.2 1.4 1.5.7.3 1.2.3 1.7.2.4.0.8-.2 1-.3.5-.3 1.3-.8 1.8-1.4.3-.3.6-1 .4-1.7.0.0-.1-.6.4-.7.0.0 1.7-.4 5 1.1.0.0 3.7 2.1 8.4 2.5.0.0 5.4.5 6.7-2.4.0.0 3.1 1.3 7.6 1.8.0.0 4.4.5 11.6-.1 1.4-.1 3.1.0 3.1.0 2.3.3 3.7 1.5 4.3 2.4 2.3 3.8 5.1 11.3 16.6 11l5.2-.1c3.2.0 5.7.0 8.2 1.4 1.1.6 4 3.5 5.8 4.4 5.3 3.6 8.4 1.9 8.4 1.9 1.8-1.1 1.7-2.9 1.2-4-.5-.2 6.6 1 9.6-2.9C138.4 70.6 138.5 69.8 138.3 69.3v0z"/></svg>