<?xml version="1.0" encoding="UTF-8" standalone="no"?>
<svg
   xmlns:dc="http://purl.org/dc/elements/1.1/"
   xmlns:cc="http://creativecommons.org/ns#"
   xmlns:rdf="http://www.w3.org/1999/02/22-rdf-syntax-ns#"
   xmlns:svg="http://www.w3.org/2000/svg"
   xmlns="http://www.w3.org/2000/svg"
   viewBox="0 0 548.96887 422.2074"
   id="svg10"
   height="422.2074"
   width="548.96887"
   version="1.1">
  <metadata
     id="metadata16">
    <rdf:RDF>
      <cc:Work
         rdf:about="">
        <dc:format>image/svg+xml</dc:format>
        <dc:type
           rdf:resource="http://purl.org/dc/dcmitype/StillImage" />
      </cc:Work>
    </rdf:RDF>
  </metadata>
  <defs
     id="defs14" />
  <path
     id="path2"
     style="fill:#30527a;fill-rule:evenodd"
     d="m 274.4824,0 c 122.4351,0 221.7348,62.4121 221.7348,139.3716 0,76.9595 -99.2997,139.3716 -221.7348,139.3716 -122.4323,0 -221.732,-62.4121 -221.732,-139.3716 C 52.7504,62.4121 152.0501,0 274.4824,0 Z" />
  <path
     id="path4"
     style="fill:#ffffff;fill-rule:evenodd"
     d="m 65.4168,141.3337 c -12.28,-34.0951 102.5518,-40.934 121.0892,-39.3106 l -1.5403,8.4762 c -25.3222,0.1823 -83.5923,9.2869 -61.437,26.6261 26.1,20.4265 73.0582,16.0523 105.4151,17.7752 l 42.861,28.4165 c -0.4964,0.0116 -0.8686,0.0201 -1.2407,0.0289 -39.4895,0.4357 -190.3303,-0.8753 -205.1473,-42.0123 z m 137.1659,51.4726 5.963,0.2336 8.0697,16.0708 c 4.7092,9.3795 25.2822,29.7711 41.5737,26.4611 29.0588,-5.9012 37.9633,-44.9861 45.021,-70.6774 l 39.3477,-26.4838 c 5.1336,41.9505 -20.7694,111.9824 -58.1876,123.484 -40.5695,12.4705 -74.1274,-34.9401 -81.7875,-69.0883 z M 340.675,85.9365 l -5.9626,-0.2333 -8.0697,-16.071 c -4.7098,-9.3793 -25.2822,-29.7692 -41.574,-26.4608 -29.0589,5.9011 -37.9633,44.9861 -45.0207,70.6765 l -39.3478,26.4846 C 195.5664,98.3815 221.4694,28.3498 258.8876,16.848 299.4573,4.3775 333.0153,51.7884 340.675,85.9365 Z m -117.9637,53.0447 50.9944,-33.9003 49.1873,33.6061 c -16.3709,11.1688 -32.4955,22.557 -48.8585,33.7805 z m 260.8395,-0.2673 c 12.2811,34.096 -102.5518,40.934 -121.0887,39.3106 l 1.5387,-8.4756 c 25.3233,-0.182 83.5934,-9.2868 61.4381,-26.6264 C 399.338,122.4961 352.3807,126.8702 320.0238,125.1476 L 277.1634,96.7311 c 0.4958,-0.0116 0.868,-0.0204 1.2401,-0.0292 39.4895,-0.4359 190.3303,0.8759 205.1473,42.012 z" />
  <path
     id="path6"
     style="fill:#000000;fill-rule:evenodd"
     d="m 383.9207,329.908 -0.0479,34.2048 -21.7885,-6e-4 0.0246,-60.5755 24.4188,0.0241 40.0187,37.8666 -0.0641,-37.6957 22.5964,-0.0595 -0.0102,60.4406 h -24.5959 z m -200.4381,-26.6809 48.7845,60.787 -21.0645,0.0335 -5.8822,-6.387 h -42.76 l -5.7291,6.451 -24.6994,-0.0379 z m 0.1148,25.456 13.4096,18.9278 -27.4555,-0.003 z m -82.6407,35.4263 -0.3838,-60.4987 22.5318,-0.0749 -0.0757,60.4993 z m 223.3454,0 -0.3838,-60.4987 22.5318,-0.0749 -0.0757,60.4993 z m -244.398,-24.6634 0.1134,-36.129 -28.5392,0.1241 -0.0148,29.3222 c -0.004,12.5399 -4.259,20.2694 -21.2114,21.2377 C 23.0969,354.4101 10.6548,353.9571 0,354.0943 l 0.002,10.1069 c 9.6384,0.1151 27.9202,-0.0147 42.088,-0.4059 21.3863,-0.5907 37.7532,-3.8359 37.8139,-24.3493 z m 151.088,0 -0.1111,-36.129 28.5386,0.1241 0.0134,29.3222 c 0.006,12.5399 4.263,20.2694 21.2125,21.2377 7.1546,0.4091 19.5967,-0.0439 30.251,0.0933 l -10e-4,10.1069 c -9.6361,0.1151 -27.921,-0.0147 -42.0863,-0.4059 -21.3882,-0.5907 -37.7543,-3.8359 -37.8167,-24.3493 z m 256.5131,-35.8696 61.0239,-0.0117 -10e-4,10.2986 -40.6624,-0.005 c -15.2947,-0.002 -21.7457,10.1112 -21.7355,20.6113 0.0102,10.9993 7.2635,22.4059 25.7686,22.2508 15.5024,-0.1298 16.3352,-5.6157 16.3729,-16.6615 l -15.8009,-0.0371 -0.127,-12.6028 36.5879,0.0399 c 0,14.6123 1.9851,36.7889 -23.0493,36.7611 l -36.9106,-0.0423 c -41.2285,-0.0471 -39.9223,-60.594 -1.4666,-60.6013 z" />
  <path
     id="path8"
     style="fill:#000000;fill-rule:evenodd"
     d="m 163.5896,394.3993 v 27.5669 h -5.2322 v -15.0276 c 0,-1.1996 0.0346,-2.5577 0.1035,-4.081 l 0.0967,-2.054 0.1031,-2.0407 h -0.1584 l -0.627,1.9165 -0.6069,1.9165 c -0.5653,1.7229 -1.0063,2.9985 -1.3096,3.8186 l -6.0594,15.5517 h -4.7636 l -6.1209,-15.4276 c -0.3313,-0.8549 -0.7792,-2.1231 -1.3308,-3.8188 l -0.627,-1.9162 -0.6205,-1.9029 h -0.1656 l 0.1035,1.999 0.0966,2.0199 c 0.0828,1.5648 0.1242,2.9024 0.1242,4.019 v 15.0276 h -5.2325 v -27.5669 h 8.5207 l 4.9286,12.7595 c 0.3376,0.8898 0.7789,2.1649 1.33,3.8195 l 0.6069,1.9162 0.6273,1.9023 h 0.1792 l 0.5862,-1.9023 0.6063,-1.8958 c 0.4963,-1.5993 0.9309,-2.8676 1.2892,-3.7982 l 4.8458,-12.8012 z m 16.3032,-0.241 c 5.0114,0 8.2307,0.834 9.6713,2.4954 1.4405,1.6613 2.1645,5.377 2.1645,11.1534 0,6.3142 -0.724,10.2921 -2.1714,11.9393 -1.4479,1.641 -4.9495,2.461 -10.5125,2.461 -5.0117,0 -8.2514,-0.8132 -9.72,-2.4332 -1.4678,-1.62 -2.1986,-5.1908 -2.1986,-10.7125 0,-6.5695 0.724,-10.6988 2.1646,-12.3808 1.4405,-1.6818 4.97,-2.5226 10.6021,-2.5226 z m -0.407,4.4807 c -3.5085,0 -5.5628,0.4479 -6.1558,1.351 -0.593,0.9029 -0.8889,4.0258 -0.8889,9.3751 0,3.9568 0.3444,6.3416 1.0403,7.1484 0.69,0.8064 2.7371,1.2135 6.1285,1.2135 3.2397,0 5.1908,-0.4556 5.8317,-1.3649 0.6483,-0.9102 0.972,-3.6678 0.972,-8.2726 0,-4.6182 -0.3033,-7.348 -0.9167,-8.1893 -0.6137,-0.8408 -2.6195,-1.2612 -6.0111,-1.2612 z m 26.7672,0.4479 v 22.8793 h -5.2319 v -22.8793 h -7.9616 v -4.6876 h 21.4313 v 4.6876 z m 22.3351,-4.9286 c 5.0116,0 8.2309,0.834 9.6715,2.4954 1.4405,1.6613 2.1645,5.377 2.1645,11.1534 0,6.3142 -0.724,10.2921 -2.1713,11.9393 -1.448,1.641 -4.9496,2.461 -10.5129,2.461 -5.0116,0 -8.2513,-0.8132 -9.7197,-2.4332 -1.4681,-1.62 -2.1988,-5.1908 -2.1988,-10.7125 0,-6.5695 0.7239,-10.6988 2.1645,-12.3808 1.4406,-1.6818 4.9703,-2.5226 10.6022,-2.5226 z m -0.4071,4.4807 c -3.5084,0 -5.5624,0.4479 -6.1554,1.351 -0.5933,0.9029 -0.8893,4.0258 -0.8893,9.3751 0,3.9568 0.3444,6.3416 1.0406,7.1484 0.6897,0.8064 2.7372,1.2135 6.1283,1.2135 3.2397,0 5.1908,-0.4556 5.8317,-1.3649 0.6483,-0.9102 0.9723,-3.6678 0.9723,-8.2726 0,-4.6182 -0.3034,-7.348 -0.9171,-8.1893 -0.6134,-0.8408 -2.6192,-1.2612 -6.0111,-1.2612 z m 32.7994,13.4901 h 5.2526 v 0.9516 c 0,3.8327 -0.703,6.3145 -2.1027,7.4378 -1.3989,1.1237 -4.4941,1.6889 -9.2849,1.6889 -5.4391,0 -8.7894,-0.8889 -10.0437,-2.6677 -1.2479,-1.7719 -1.8754,-6.5279 -1.8754,-14.2557 0,-4.5493 0.8481,-7.5416 2.5435,-8.9753 1.6962,-1.4338 5.2461,-2.1504 10.6438,-2.1504 3.9362,0 6.5557,0.5857 7.8789,1.7646 1.3167,1.1786 1.9786,3.5158 1.9786,7.0174 l 0.0204,0.6271 h -5.2523 v -0.7098 c 0,-1.7992 -0.3382,-2.9574 -1.0205,-3.4606 -0.6755,-0.5031 -2.2266,-0.758 -4.6531,-0.758 -3.2465,0 -5.1905,0.3994 -5.8456,1.1923 -0.6551,0.7928 -0.9788,3.1504 -0.9788,7.0659 0,5.2801 0.2897,8.4033 0.8754,9.3748 0.5862,0.9722 2.4817,1.455 5.6871,1.455 2.5991,0 4.2809,-0.2693 5.0601,-0.8068 0.7719,-0.5377 1.1577,-1.7234 1.1577,-3.5572 z m 13.7798,-17.7298 v 27.5669 h -5.2322 v -27.5669 z m 21.9073,17.7298 h 5.2523 v 0.9516 c 0,3.8327 -0.703,6.3145 -2.1025,7.4378 -1.3992,1.1237 -4.4943,1.6889 -9.2852,1.6889 -5.4388,0 -8.7891,-0.8889 -10.0437,-2.6677 -1.2475,-1.7719 -1.8754,-6.5279 -1.8754,-14.2557 0,-4.5493 0.8482,-7.5416 2.5438,-8.9753 1.696,-1.4338 5.2461,-2.1504 10.6436,-2.1504 3.9364,0 6.5557,0.5857 7.8791,1.7646 1.3165,1.1786 1.9786,3.5158 1.9786,7.0174 l 0.0204,0.6271 h -5.2526 v -0.7098 c 0,-1.7992 -0.3378,-2.9574 -1.0204,-3.4606 -0.6755,-0.5031 -2.2266,-0.758 -4.6528,-0.758 -3.2468,0 -5.1905,0.3994 -5.8456,1.1923 -0.6551,0.7928 -0.9791,3.1504 -0.9791,7.0659 0,5.2801 0.2897,8.4033 0.8756,9.3748 0.5862,0.9722 2.4815,1.455 5.6872,1.455 2.5988,0 4.2808,-0.2693 5.0598,-0.8068 0.7719,-0.5377 1.158,-1.7234 1.158,-3.5572 z m 13.7797,-17.7298 v 22.879 h 12.9181 v 4.6879 h -18.1505 v -27.5669 z m 20.253,4.4047 v 7.1073 h 12.9249 v 3.8602 h -12.9249 v 7.7896 h 13.752 v 4.4051 h -18.9845 v -27.5669 h 18.8677 v 4.4047 z m 28.6418,0.2829 v 22.8793 h -5.2319 v -22.8793 h -7.9619 v -4.6876 h 21.4313 v 4.6876 z m 27.5602,17.5853 h -11.8914 l -1.7161,5.294 h -5.5358 l 9.1684,-27.5669 h 7.8585 l 9.3062,27.5669 h -5.4324 z m -1.2062,-3.8608 -4.7704,-14.3518 -4.6809,14.3518 z m 31.2404,-10.3742 h -5.1078 c -0.0278,-0.2551 -0.0417,-0.4414 -0.0417,-0.5652 -0.117,-1.5512 -0.462,-2.5232 -1.0272,-2.9229 -0.5653,-0.3931 -1.8953,-0.593 -3.998,-0.593 -2.4747,0 -4.0947,0.2277 -4.8594,0.6891 -0.7589,0.4556 -1.1379,1.4202 -1.1379,2.8888 0,1.7371 0.3101,2.778 0.9306,3.1292 0.6203,0.345 2.6609,0.6205 6.1351,0.8065 4.1085,0.2279 6.7626,0.8141 7.969,1.7583 1.2061,0.9374 1.806,2.9021 1.806,5.8728 0,3.6678 -0.7101,6.0321 -2.1229,7.1005 -1.4134,1.0684 -4.5295,1.6061 -9.3475,1.6061 -4.3362,0 -7.2111,-0.5241 -8.6307,-1.5789 -1.4269,-1.0474 -2.137,-3.1776 -2.137,-6.3759 l -0.0139,-1.0137 h 5.0873 l 0.0207,0.5862 c 0,1.9301 0.3379,3.109 1.0066,3.5362 0.6752,0.4346 2.5092,0.648 5.5145,0.648 2.3437,0 3.8396,-0.2483 4.481,-0.7447 0.6477,-0.5031 0.9717,-1.654 0.9717,-3.4537 0,-1.3371 -0.2483,-2.2192 -0.7378,-2.6603 -0.489,-0.4343 -1.5508,-0.7036 -3.1776,-0.7929 l -2.888,-0.1862 c -4.3639,-0.2548 -7.1558,-0.8617 -8.3619,-1.8127 -1.2135,-0.9584 -1.8201,-3.0127 -1.8201,-6.1631 0,-3.2193 0.7307,-5.3629 2.1923,-6.4316 1.4612,-1.0683 4.377,-1.6058 8.7545,-1.6058 4.1431,0 6.9418,0.489 8.3823,1.4749 1.4406,0.9788 2.1578,2.9021 2.1578,5.756 z" />
</svg>
