<?xml version="1.0" encoding="UTF-8" standalone="no"?>
<svg
   xmlns:dc="http://purl.org/dc/elements/1.1/"
   xmlns:cc="http://creativecommons.org/ns#"
   xmlns:rdf="http://www.w3.org/1999/02/22-rdf-syntax-ns#"
   xmlns:svg="http://www.w3.org/2000/svg"
   xmlns="http://www.w3.org/2000/svg"
   viewBox="0 0 160 153.33333"
   height="153.33333"
   width="160"
   xml:space="preserve"
   id="svg2"
   version="1.1"><metadata
     id="metadata8"><rdf:RDF><cc:Work
         rdf:about=""><dc:format>image/svg+xml</dc:format><dc:type
           rdf:resource="http://purl.org/dc/dcmitype/StillImage" /></cc:Work></rdf:RDF></metadata><defs
     id="defs6" /><g
     transform="matrix(1.3333333,0,0,-1.3333333,0,153.33333)"
     id="g10"><g
       transform="scale(0.1)"
       id="g12"><path
         id="path14"
         style="fill:#a7a5a6;fill-opacity:1;fill-rule:evenodd;stroke:none"
         d="m 605.09,1083.95 c 274.629,0 497.25,-222.622 497.25,-497.251 0,-274.629 -222.621,-497.2537 -497.25,-497.2537 -274.629,0 -497.254,222.6247 -497.254,497.2537 0,274.629 222.625,497.251 497.254,497.251" /><path
         id="path16"
         style="fill:#f4b709;fill-opacity:1;fill-rule:evenodd;stroke:none"
         d="m 605.09,1023.95 c 241.488,0 437.25,-195.762 437.25,-437.251 0,-241.488 -195.762,-437.254 -437.25,-437.254 -241.492,0 -437.254,195.766 -437.254,437.254 0,241.489 195.762,437.251 437.254,437.251 z m 0,45 c 266.34,0 482.25,-215.907 482.25,-482.251 0,-266.344 -215.91,-482.254 -482.25,-482.254 -266.344,0 -482.254,215.91 -482.254,482.254 0,266.344 215.91,482.251 482.254,482.251" /><path
         id="path18"
         style="fill:#233074;fill-opacity:1;fill-rule:evenodd;stroke:none"
         d="m 605.09,1007.45 c 232.375,0 420.75,-188.376 420.75,-420.751 0,-232.375 -188.375,-420.754 -420.75,-420.754 -232.379,0 -420.754,188.379 -420.754,420.754 0,232.375 188.375,420.751 420.754,420.751 z m -126,-76.126 c 8.906,0 16.125,-7.219 16.125,-16.125 0,-2.328 -0.5,-4.547 -1.387,-6.543 -0.406,-0.918 -0.324,-1.906 0.242,-2.738 l 4.723,-7.023 c 0.805,-1.192 2.344,-1.59 3.625,-0.946 10.41,5.231 23.281,9.692 37.945,13.117 0.805,0.188 1.43,0.657 1.832,1.383 0.403,0.723 0.473,1.5 0.207,2.285 l -1.55,4.575 c -0.332,0.98 -1.094,1.652 -2.102,1.867 -7.297,1.539 -12.781,8.019 -12.781,15.773 0,8.906 7.219,16.125 16.121,16.125 8.906,0 16.125,-7.219 16.125,-16.125 0,-4.316 -1.703,-8.238 -4.465,-11.133 -0.75,-0.781 -0.984,-1.847 -0.637,-2.871 l 2.192,-6.449 c 0.445,-1.32 1.758,-2.105 3.129,-1.887 11.668,1.879 24.16,3.153 37.199,3.719 1.515,0.063 2.711,1.313 2.711,2.828 v 5.66 c 0,1.012 -0.485,1.879 -1.344,2.414 -4.59,2.84 -7.656,7.922 -7.656,13.723 0,8.902 7.219,16.121 16.125,16.121 8.902,0 16.121,-7.219 16.121,-16.121 0,-6.062 -3.348,-11.348 -8.289,-14.098 -0.926,-0.515 -1.457,-1.421 -1.457,-2.476 v -4.91 c 0,-1.551 1.254,-2.817 2.804,-2.832 14.051,-0.137 27.567,-1.106 40.254,-2.766 1.356,-0.176 2.614,0.609 3.051,1.899 l 1.301,3.824 c 0.383,1.121 0.055,2.304 -0.848,3.07 -3.476,2.957 -5.687,7.363 -5.687,12.285 0,8.906 7.219,16.125 16.125,16.125 8.902,0 16.121,-7.219 16.121,-16.125 0,-7.117 -4.613,-13.152 -11.008,-15.293 -0.871,-0.293 -1.492,-0.91 -1.785,-1.777 l -1.121,-3.301 c -0.274,-0.801 -0.196,-1.598 0.23,-2.332 0.426,-0.73 1.074,-1.195 1.903,-1.359 14.992,-2.965 28.398,-6.969 39.566,-11.766 1.262,-0.543 2.699,-0.121 3.469,1.016 l 1.457,2.164 c 0.621,0.914 0.66,2.023 0.121,2.98 -1.32,2.34 -2.078,5.043 -2.078,7.918 0,8.906 7.219,16.125 16.125,16.125 8.902,0 16.121,-7.219 16.121,-16.125 0,-8.902 -7.219,-16.121 -16.121,-16.121 -0.231,0 -0.461,0.004 -0.684,0.012 -1.015,0.043 -1.91,-0.406 -2.476,-1.254 -13.176,-19.652 -26.039,-39.461 -39.118,-58.762 -0.808,-1.187 -2.351,-1.586 -3.632,-0.933 -18.227,9.285 -45.496,15.187 -75.965,15.187 -33.836,0 -63.723,-7.277 -81.668,-18.387 -0.668,-0.414 -1.395,-0.531 -2.156,-0.347 -0.766,0.187 -1.36,0.621 -1.766,1.297 -12.699,21.125 -26.215,41.058 -40.348,62.109 -0.617,0.922 -1.64,1.379 -2.738,1.227 -0.715,-0.098 -1.453,-0.149 -2.203,-0.149 -8.902,0 -16.121,7.219 -16.121,16.121 0,8.906 7.219,16.125 16.121,16.125 z m 30.469,-48.426 5.933,-8.812 c 0.766,-1.133 2.192,-1.559 3.449,-1.027 8.954,3.757 19.43,6.968 31.051,9.472 0.821,0.176 1.457,0.645 1.871,1.371 0.414,0.731 0.489,1.516 0.219,2.309 l -3.836,11.301 c -0.473,1.394 -1.922,2.191 -3.351,1.843 -13.411,-3.242 -25.071,-7.457 -34.313,-12.367 -0.734,-0.39 -1.219,-1.011 -1.422,-1.816 -0.199,-0.809 -0.066,-1.582 0.399,-2.274 z m 51.574,16.426 3.965,-11.691 c 0.441,-1.297 1.715,-2.086 3.07,-1.895 8.746,1.219 17.945,2.078 27.473,2.508 1.511,0.07 2.703,1.317 2.703,2.828 v 12.387 c 0,0.805 -0.293,1.496 -0.879,2.055 -0.582,0.554 -1.285,0.816 -2.09,0.777 -11.203,-0.539 -21.949,-1.656 -32.008,-3.258 -0.851,-0.137 -1.531,-0.597 -1.98,-1.336 -0.449,-0.742 -0.535,-1.558 -0.254,-2.375 z m 50.715,4.485 -0.004,-12.43 c 0,-1.551 1.25,-2.813 2.797,-2.832 10.519,-0.141 20.707,-0.789 30.406,-1.879 1.34,-0.152 2.57,0.629 3.004,1.902 l 4.074,12.004 c 0.281,0.832 0.184,1.668 -0.285,2.414 -0.465,0.746 -1.172,1.2 -2.047,1.309 -11.082,1.398 -22.863,2.211 -35.086,2.348 -0.785,0.007 -1.465,-0.266 -2.023,-0.821 -0.559,-0.551 -0.836,-1.226 -0.836,-2.015 z m 53.375,-4.411 -3.985,-11.73 c -0.273,-0.809 -0.187,-1.609 0.242,-2.348 0.434,-0.734 1.094,-1.199 1.934,-1.351 11.887,-2.18 22.738,-5.074 32.191,-8.531 1.239,-0.454 2.586,-0.02 3.329,1.074 l 6.562,9.734 c 0.488,0.723 0.617,1.539 0.379,2.375 -0.246,0.836 -0.789,1.457 -1.586,1.809 -10.031,4.402 -22.18,8.093 -35.824,10.84 -1.406,0.281 -2.785,-0.512 -3.242,-1.872 z m -139.731,-40.168 4.93,-7.32 c 0.762,-1.133 2.18,-1.558 3.441,-1.035 7.235,3.02 15.41,5.613 24.313,7.688 0.808,0.183 1.426,0.656 1.832,1.382 0.402,0.723 0.472,1.5 0.207,2.285 l -2.672,7.883 c -0.465,1.375 -1.879,2.172 -3.301,1.86 -10.328,-2.282 -19.613,-5.176 -27.512,-8.555 -0.804,-0.34 -1.359,-0.961 -1.605,-1.801 -0.25,-0.84 -0.117,-1.66 0.367,-2.387 z m 45.067,12.305 2.621,-7.734 c 0.445,-1.301 1.718,-2.086 3.078,-1.895 6.246,0.875 12.734,1.516 19.414,1.895 1.5,0.082 2.672,1.32 2.672,2.828 v 7.863 c 0,0.805 -0.297,1.5 -0.879,2.055 -0.586,0.555 -1.293,0.82 -2.102,0.777 -7.777,-0.394 -15.312,-1.094 -22.504,-2.066 -0.867,-0.117 -1.566,-0.574 -2.027,-1.32 -0.465,-0.743 -0.555,-1.571 -0.273,-2.403 z m 41.285,3.297 v -7.84 c 0,-1.543 1.242,-2.808 2.781,-2.836 7.668,-0.136 15.137,-0.617 22.316,-1.406 1.336,-0.148 2.567,0.633 2.997,1.906 l 2.636,7.782 c 0.289,0.843 0.188,1.687 -0.297,2.441 -0.476,0.75 -1.203,1.195 -2.089,1.289 -8.149,0.859 -16.68,1.375 -25.469,1.5 -0.785,0.012 -1.469,-0.262 -2.031,-0.816 -0.563,-0.551 -0.844,-1.231 -0.844,-2.02 z m 43.945,-3.242 -2.695,-7.934 c -0.27,-0.801 -0.192,-1.597 0.23,-2.328 0.426,-0.734 1.078,-1.195 1.91,-1.363 9.157,-1.801 17.657,-4.141 25.274,-6.918 1.242,-0.449 2.586,-0.016 3.32,1.078 l 5.09,7.547 c 0.508,0.75 0.629,1.605 0.352,2.465 -0.282,0.855 -0.883,1.476 -1.731,1.785 -8.387,3.047 -18.012,5.605 -28.555,7.547 -1.394,0.258 -2.738,-0.535 -3.195,-1.879 z m -48.07,-26.141 c 44.941,0 81.375,-14.773 81.375,-32.996 0,-18.223 -36.434,-33 -81.375,-33 -44.942,0 -81.375,14.777 -81.375,33 0,18.223 36.433,32.996 81.375,32.996 z M 578.563,755.18 c 0,0 -25.875,4.871 -38.625,-3.004 -12.75,-7.875 -25.504,-13.5 -31.504,-16.5 -5.996,-3 -22.871,-10.125 -23.621,-13.125 -0.754,-2.996 -0.379,-6.75 0.371,-10.125 0.754,-3.371 1.879,-13.496 7.129,-17.25 5.25,-3.75 7.5,-2.25 19.5,-3.375 11.996,-1.125 22.125,-4.496 22.125,-4.496 0,0 -1.5,-5.629 -11.625,-7.129 -10.129,-1.5 -28.125,-4.496 -21.375,-13.496 6.75,-9 6.375,-10.504 7.875,-14.629 1.5,-4.125 2.25,-6.75 10.125,-2.625 7.875,4.125 17.246,5.25 22.871,11.25 5.629,6.004 13.507,9.75 22.129,12 8.625,2.25 14.621,3.379 15,9.379 0.375,5.996 -3.754,10.871 1.125,13.496 4.875,2.625 11.996,3.754 12.75,10.879 0.75,7.121 -2.25,17.625 3.375,22.121 5.625,4.5 14.25,12.004 18.375,21.379 4.125,9.375 8.625,13.871 -5.25,13.496 -13.875,-0.371 -19.5,-5.621 -21.75,-7.121 -2.25,-1.504 -9,-1.125 -9,-1.125 z M 687.875,500.555 c -3.379,0 -18.754,-9.746 -10.504,-20.625 8.25,-10.875 6,-12.746 12.75,-18.371 6.754,-5.629 8.254,-9.75 4.504,-16.5 -3.754,-6.754 -10.129,-22.5 -13.504,-25.504 -3.371,-3 -12.371,-0.375 -16.121,-4.5 -3.754,-4.125 -6.004,-8.25 -6.754,-11.625 -0.75,-3.371 -4.871,-6.746 5.625,-5.996 10.5,0.746 15.375,3 22.5,0 7.125,-3.004 10.125,-1.883 16.5,11.246 6.375,13.129 18.754,30.754 22.504,41.629 3.75,10.871 5.625,15.75 -1.5,28.125 -7.129,12.371 -18.379,31.875 -36,22.121 z m -62.254,68.25 c 0,0 -20.625,-31.246 -43.125,-41.66 -22.5,-10.411 -25.125,-12.274 -23.25,-21.571 1.875,-9.297 -1.875,-27.894 17.25,-27.894 19.125,0 59.25,11.531 72.375,20.828 13.125,9.297 39.379,26.41 48.379,29.012 8.996,2.605 27.375,-7.813 34.125,-16.739 6.75,-8.926 28.5,-33.101 35.25,-39.054 6.746,-5.95 14.625,-12.274 17.625,-13.762 3,-1.488 5.996,-5.953 4.125,-13.391 -1.875,-7.437 -7.695,-25.105 -8.816,-30.683 -1.125,-5.578 -0.75,-7.067 -6,-4.09 -5.25,2.972 -16.5,2.23 -19.125,-1.863 -2.625,-4.09 -5.996,-15.247 -0.375,-17.481 5.625,-2.23 19.125,-3.719 22.5,-4.09 3.375,-0.371 1.125,2.602 8.625,5.582 7.5,2.973 13.5,4.09 16.875,11.528 3.375,7.441 19.875,42.027 20.625,45.003 0.75,2.977 0.75,2.973 -1.875,7.809 -2.625,4.836 -9.746,12.277 -11.625,17.113 -1.875,4.836 -6.375,13.016 -6.375,26.039 0,13.02 0.191,23.243 -1.684,29.942 -1.879,6.695 -4.121,6.695 -5.625,10.418 -1.504,3.719 0.375,8.922 0.375,13.387 0,1.906 0.203,7.609 -2.25,14.347 31.406,10.184 74.102,6.649 112.684,5.961 42,-0.754 22.5,5.625 26.625,15.75 4.125,10.125 -5.996,13.125 -14.25,13.875 -8.25,0.746 -39.375,-7.125 -71.625,-11.625 -21.981,-3.07 -47.625,-8.055 -61.723,-10.914 -4.938,5.027 -12.191,9.703 -22.836,12.977 -34.5,9 -110.816,0.183 -113.816,-0.567 -2.996,-0.746 -13.496,-2.621 -15.746,-10.121 -2.254,-7.5 -7.317,-14.066 -7.317,-14.066 z m -90.187,-50.438 c 0,0 -6.375,4.875 -11.996,-9 -5.625,-13.875 -25.5,-54.75 -28.875,-62.25 -3.375,-7.5 -10.879,-28.875 -18.004,-32.625 -7.121,-3.75 -8.625,-6.375 -9.375,-9.75 -0.746,-3.375 -1.871,-9.004 3.379,-10.5 5.25,-1.5 16.121,-0.754 25.875,0 9.75,0.75 7.496,7.871 10.871,15 3.379,7.125 18.754,30.75 25.129,40.875 6.375,10.125 18,25.5 17.25,39.75 -0.75,14.25 -3.75,27 -14.254,28.5 z m -20.625,11.25 c -1.871,5.25 -11.25,5.254 -18,-5.625 -6.746,-10.875 -29.25,-59.25 -31.121,-63.75 -1.875,-4.5 -9.004,-31.5 -16.129,-37.5 -7.121,-6 -9.746,-8.25 -11.996,-14.25 -2.254,-6 -6.754,-15.75 -1.129,-17.25 5.629,-1.5 7.129,-1.504 13.879,0.375 6.746,1.875 9.371,2.25 10.871,9.375 1.504,7.125 2.625,10.879 9,13.875 6.375,3 12.379,17.246 14.629,22.875 2.25,5.625 20.621,52.496 22.496,57.75 1.879,5.25 10.879,19.504 10.879,24.375 0,4.875 -3.379,9.75 -3.379,9.75 z m 88.597,166.403 c -0.937,-2.438 -6.187,-15 -2.812,-23.438 3.379,-8.437 4.691,-19.312 4.691,-26.437 0,-7.125 2.809,-22.125 8.246,-29.438 5.438,-7.312 8.442,-12.004 10.692,-7.5 2.246,4.5 3.371,7.504 -2.817,18.563 -6.187,11.062 -1.121,18.371 -0.933,29.062 0.187,10.688 1.5,18.379 -1.879,27 -3.375,8.625 -3.371,14.063 -2.996,17.625 0.371,3.563 4.402,20.719 -1.598,23.156 -5.996,2.442 -13.496,1.504 -11.062,-9.371 2.437,-10.879 0.375,-18.379 0.468,-19.222 z M 560,549.484 c -15.937,-10.312 -14.812,-15.562 -14.062,-18.937 0.75,-3.375 2.437,-12.75 26.625,6.187 24.187,18.938 39.562,37.125 42.187,42 2.629,4.879 9.941,16.313 6.191,19.688 -3.753,3.375 -12.378,8.812 -16.691,0.754 C 589.281,571.184 585.621,566.063 560,549.484 Z m 34.41,64.219 c 0,0 -14.629,-10.875 -25.5,-18.937 -10.875,-8.063 -21.191,-20.809 -25.129,-29.246 -3.933,-8.442 -5.246,-13.125 -6.558,-16.317 -1.313,-3.187 -3.754,-11.066 6.187,-3 9.938,8.063 23.059,16.5 30.938,27.563 7.875,11.066 20.625,26.254 22.687,30.566 2.063,4.309 4.875,11.809 -2.625,9.371 z m -34.312,7.688 c -0.938,-1.125 -17.254,-12.371 -26.629,-17.621 -9.371,-5.254 -19.313,-12.004 -24.375,-23.067 -5.063,-11.058 -9.938,-24.937 -7.5,-31.312 2.437,-6.375 6.562,-10.5 18,-4.121 11.437,6.375 11.816,13.304 14.816,21.371 2.996,8.066 14.809,22.312 19.313,27.191 4.5,4.875 14.625,12.934 16.312,16.121 1.688,3.192 3.559,2.438 1.688,6.375 -1.875,3.938 -3.75,12.192 -11.625,5.063 z m -54.285,7.222 c 0,0 -3.934,1.684 -11.059,-6.191 -7.129,-7.871 -7.504,-15.188 -10.129,-22.5 -2.621,-7.309 -10.125,-28.5 -8.437,-39.375 1.687,-10.875 2.437,-12.75 6,-12.938 3.566,-0.187 8.437,-2.062 11.625,10.875 3.191,12.938 15.378,54.192 16.128,57.192 0.747,2.996 0.559,12.937 -4.128,12.937 z M 474.5,582.109 c -7.168,-20.636 6.188,-42.656 6.375,-44.437 0.434,-4.012 -5.809,-13.125 -11.625,0.75 -5.812,13.875 -10.312,28.316 -5.812,45.191 4.5,16.871 9.003,30.938 12.003,34.5 2.997,3.559 3,5.25 9.372,4.125 3.113,-0.55 2.5,-3.425 0.937,-8.39 -2.586,-8.215 -9.242,-25.953 -11.25,-31.739 z m 112.219,95.723 c 0,0 -4.313,-0.746 -9.375,-5.437 -5.063,-4.688 -9,-7.5 -6,-13.875 3,-6.375 6.558,-18.188 7.125,-24.375 0.562,-6.188 -0.938,-12.938 3,-14.813 3.937,-1.879 6.004,-1.316 10.312,3.184 4.313,4.504 2.813,8.254 2.625,13.316 -0.187,5.063 -1.125,17.438 -2.625,20.438 -1.5,3 -3.746,8.25 -2.812,10.5 0.937,2.25 4.687,11.25 -2.25,11.062 z m -32.25,-20.812 c 0,0 -19.875,-12.938 -24.75,-14.625 -4.875,-1.688 -10.692,-2.25 -10.879,-11.063 -0.188,-8.816 -2.242,-16.687 -2.434,-17.625 -0.191,-0.937 0.559,-2.625 2.246,-3.562 1.692,-0.938 -0.187,-5.438 10.313,1.312 10.504,6.75 18.941,14.246 25.691,17.434 6.75,3.191 12.188,7.316 10.875,11.629 -1.312,4.312 -4.316,13.5 -5.062,16.125 -0.75,2.625 -2.25,2.812 -6,0.375 z m -51.285,27.66 c 0,0 -10.496,10.496 -33.746,2.996 -23.25,-7.5 -30.375,-7.121 -34.875,-5.25 -4.504,1.875 -10.125,-0.371 -11.25,-4.121 -1.129,-3.75 0.75,-8.254 13.875,-8.254 13.125,0 25.5,0.379 34.875,6 9.371,5.625 15.746,6.75 20.625,6.375 4.875,-0.371 17.625,-2.25 10.496,2.254 z m 54.941,43.035 c 0,0 -14.062,4.312 -19.687,0.187 -5.625,-4.125 -6.938,-6.937 -8.063,-7.875 -1.125,-0.941 5.629,0.184 8.625,-0.941 3,-1.121 8.25,-3.934 11.813,0.379 3.562,4.312 7.312,8.25 7.312,8.25 z M 414.219,361.371 c 4.629,52.512 299.375,24.883 346.164,16.781 3.879,-0.668 6.355,-1.101 7.058,-1.156 11.043,-0.922 13.372,-6.769 13.86,-9.199 h 0.019 l 7.594,-39.168 c 12.203,-2.617 28.984,-4.871 40.84,-1.055 7.219,1.383 8.953,5.739 16.195,6.446 13.352,1.308 16.996,-10.684 12.645,-20.516 -1.223,-2.758 -2.977,-5.586 -4.996,-8.363 -9.2,-12.711 -23.625,-22.817 -39.7,-30.418 -43.207,-20.438 -81.074,-21.25 -127.265,-12.012 -2.934,0.582 -4.903,0.977 -5.11,0.977 -3.679,0 -13.164,-4.508 -26.105,-10.657 -60.27,-28.644 -162.527,-63.008 -217.109,-7.285 -18.793,19.207 -34.93,53.09 -47.696,77.227 l -0.644,1.218 c -4.004,7.571 -6.211,15.266 -6.5,20.813 -0.84,16.719 9.769,12.254 19.316,10.199 3.625,-0.773 7.176,-1.539 10.805,-3.348 l 0.168,2.801 c 0.043,0.68 0.492,6.715 0.461,6.715 z m 130.875,366.902 c 2.535,0 4.59,-2.054 4.59,-4.589 0,-2.539 -2.055,-4.594 -4.59,-4.594 -2.539,0 -4.594,2.055 -4.594,4.594 0,2.535 2.055,4.589 4.594,4.589" /><path
         id="path20"
         style="fill:#ffffff;fill-opacity:1;fill-rule:evenodd;stroke:none"
         d="m 608.469,833.453 c 37.484,0 67.875,-9.402 67.875,-21 0,-11.598 -30.391,-21 -67.875,-21 -37.485,0 -67.875,9.402 -67.875,21 0,11.598 30.39,21 67.875,21" /><path
         id="path22"
         style="fill:#fcfeff;fill-opacity:1;fill-rule:nonzero;stroke:none"
         d="m 669.586,271.891 c -4.727,1.714 -9.246,3.586 -13.871,5.504 -47.141,19.543 -185.223,30.457 -216.91,-15.79 2.34,-3.144 4.855,-5.167 7.566,-7.933 50.234,-51.293 149.098,-16.606 204.215,9.59 7.371,3.504 13.727,6.523 19,8.629 z m -83.801,36.882 -0.851,0.051 c -7.457,0.614 -13.5,5.223 -13.5,10.297 0,5.074 6.043,8.692 13.5,8.078 7.457,-0.613 13.5,-5.222 13.5,-10.297 0,-4.371 -4.493,-7.66 -10.5,-8.093 -0.7,-0.055 -1.414,-0.063 -2.149,-0.036 z m 165.008,-11.98 -0.484,0.031 c -7.454,0.617 -13.496,5.227 -13.496,10.301 0,5.07 6.042,8.688 13.496,8.074 7.457,-0.613 13.5,-5.222 13.5,-10.297 0,-4.437 -4.625,-7.765 -10.782,-8.113 -0.726,-0.043 -1.472,-0.043 -2.234,0.004 z m -83.629,4.641 c -6.98,0.929 -12.476,5.347 -12.476,10.187 0,5.074 6.042,8.692 13.496,8.078 7.457,-0.613 13.5,-5.222 13.5,-10.297 0,-4.75 -5.297,-8.222 -12.09,-8.144 -0.465,0.008 -0.934,0.027 -1.41,0.066 -0.344,0.028 -0.684,0.067 -1.02,0.11 z M 434.602,267.738 c 25.578,31.5 93.601,37.496 151.183,31.879 l 0.543,-0.054 c 28.996,-2.868 55.305,-8.672 72.125,-15.649 2.918,-1.207 5.797,-2.406 8.711,-3.547 l 0.387,-0.148 c 5.269,-2.059 10.66,-3.953 16.648,-5.5 1.239,-0.215 2.785,-0.52 4.649,-0.891 22.175,-4.437 42.23,-6.496 61.945,-4.926 l 0.652,0.051 c 18.965,1.59 37.641,6.551 57.621,16.004 14.493,6.856 27.379,15.797 35.364,26.824 1.59,2.192 2.937,4.332 3.8,6.285 1.071,2.426 2.133,5.028 -1.175,4.707 -1.289,-0.125 -2.606,-0.656 -3.575,-1.484 -2.765,-2.367 -6.828,-3.918 -11.601,-4.836 -29.203,-5.617 -55.59,3.055 -80.574,17.527 l -0.004,-0.007 c -2.399,1.371 -2.649,1.168 -3.235,0.687 -20.632,-16.824 -51.527,-12.574 -74.355,-1.004 -18.332,9.301 -4.145,5.082 -26.543,-1.468 -27.305,-7.985 -46.16,-4.614 -69.008,13.539 -33.015,-17.907 -52.242,-20.766 -86.722,-2.61 -3.512,-1.883 -10.645,-5.551 -23.098,-11.41 -30.695,-14.441 -47.328,8.016 -67.902,12.426 -6.188,1.336 -6.7,2.703 -4.489,-4.895 0.879,-3.008 2.227,-6.363 4.031,-9.773 l 0.645,-1.219 c 6.223,-11.766 23.098,-43.664 33.977,-60.508 z m 316.191,28.555 v 0.5 z m -254.734,29.406 c 7.457,0.614 13.5,-3.004 13.5,-8.078 0,-5.074 -6.043,-9.68 -13.5,-10.297 -7.454,-0.613 -13.496,3.004 -13.496,8.078 0,5.075 6.042,9.684 13.496,10.297" /><path
         id="path24"
         style="fill:#dc1b30;fill-opacity:1;fill-rule:nonzero;stroke:none"
         d="m 428.367,364.637 c -3.722,-2.703 -3.07,-6.492 -3.316,-10.645 -0.199,-3.41 -0.367,-6.242 -0.903,-8.554 8.672,-3.438 27,-9.313 39.36,-3.497 18.855,8.872 25.086,12.539 25.105,12.547 l 2.828,1.617 2.817,-1.636 c 31.527,-18.012 51.172,-15.328 81.683,2.976 l 3.602,2.118 3.066,-2.801 c 19.575,-17.617 37.11,-20.828 61.414,-13.723 4.247,1.242 7.657,2.473 10.106,3.484 6.828,2.821 6.785,7.079 14.91,2.543 1.004,-0.554 2.066,-1.195 3.203,-1.878 18.528,-11.09 50.27,-18.778 68.692,-3.754 4.816,3.933 6.851,5.593 15.992,0.371 l 0.023,-0.02 c 6.399,-3.707 12.871,-7.637 19.578,-10.726 l -3.933,20.285 c -3.004,14.621 1.496,10.949 -14.117,13.648 -57.313,9.918 -287.305,28.715 -330.11,-2.355" /></g></g></svg>