<?xml version="1.0" encoding="UTF-8" standalone="no"?>
<svg
   xmlns:dc="http://purl.org/dc/elements/1.1/"
   xmlns:cc="http://creativecommons.org/ns#"
   xmlns:rdf="http://www.w3.org/1999/02/22-rdf-syntax-ns#"
   xmlns:svg="http://www.w3.org/2000/svg"
   xmlns="http://www.w3.org/2000/svg"
   viewBox="0 0 350.70667 87.493332"
   height="87.493332"
   width="350.70667"
   xml:space="preserve"
   id="svg2"
   version="1.1"><metadata
     id="metadata8"><rdf:RDF><cc:Work
         rdf:about=""><dc:format>image/svg+xml</dc:format><dc:type
           rdf:resource="http://purl.org/dc/dcmitype/StillImage" /></cc:Work></rdf:RDF></metadata><defs
     id="defs6" /><g
     transform="matrix(1.3333333,0,0,-1.3333333,0,87.493333)"
     id="g10"><g
       transform="scale(0.1)"
       id="g12"><path
         id="path14"
         style="fill:#ffffff;fill-opacity:1;fill-rule:evenodd;stroke:none"
         d="M 2630.33,2.56641 H 0 V 656.152 H 2630.33 V 2.56641" /><path
         id="path16"
         style="fill:#176fc1;fill-opacity:1;fill-rule:evenodd;stroke:none"
         d="m 2212.17,456.441 c -80.72,0 -147.74,-45.265 -120.74,-172.043 12.55,-58.972 53.89,-89.484 121.05,-89.484 90.25,0 143.16,64.578 120.38,171.789 -12.41,58.582 -53.54,89.738 -120.69,89.738 z M 1009.91,249.613 h 119.9 l -58.66,171.492 z M 0,651.797 V 0 H 2630.33 V 651.797 Z M 491.848,81.9688 360.41,279.746 277.379,212.668 277.758,81.9688 H 89.7422 L 89.1875,568.531 H 277.828 L 278.02,400.348 450.691,568.531 H 705.332 L 502.48,393.223 725.527,81.9688 Z m 696.212,0 -16.26,48.1482 H 964.773 L 947.73,81.9688 H 745.984 L 956.152,568.531 H 1195.28 L 1392.26,81.9688 Z m 493.79,0 h -189.06 l -0.21,363.1212 h -175.69 l -0.17,123.441 h 540.94 l 0.21,-123.441 H 1681.66 Z M 2211.14,70.5 c -187.2,0 -292.75,63.34 -319.37,188.563 -44.51,209.339 82.64,322.246 320.4,322.246 186.01,0 293.91,-64.805 320.32,-189.45 C 2577.08,182.031 2446.37,70.5 2211.14,70.5" /></g></g></svg>