<svg id="Layer_1" xmlns="http://www.w3.org/2000/svg" xmlns:xlink="http://www.w3.org/1999/xlink" viewBox="0 0 150 150" style="enable-background:new 0 0 150 150"><style>.st0{fill:#1e1d51}.st1{fill:url(#SVGID_1_)}.st2{fill:url(#SVGID_2_)}.st3{fill:url(#SVGID_3_)}.st4{fill:#fff38d}.st5{fill:#9d0d16}.st6{fill:url(#SVGID_4_)}.st7{fill:url(#SVGID_5_)}</style><path class="st0" d="M145.4 75c0 38.9-31.5 70.4-70.4 70.4S4.6 113.9 4.6 75C4.6 36.1 36.1 4.6 75 4.6S145.4 36.1 145.4 75z"/><linearGradient id="SVGID_1_" gradientUnits="userSpaceOnUse" x1="-2165.8931" y1="-2284.6096" x2="-2142.0737" y2="-2219.9282" gradientTransform="matrix(1.3227 0 0 1.3227 2910.3804 3063.77)"><stop offset="0" style="stop-color:#fff"/><stop offset="1" style="stop-color:#53eeef"/></linearGradient><path class="st1" d="M74.7 25.6c-6 .1-11.8 1.2-17.2 3.1v38.7h17.2V25.6zM43.5 37.1C34.6 44.7 28.3 55.1 26.1 67h17.4V37.1zM57 81v40.4c5.5 1.9 11.4 2.9 17.6 3.1V81H57zM26.1 81.1c1.8 12.6 8.2 23.8 17.6 31.8V81.1H26.1z"/><linearGradient id="SVGID_2_" gradientUnits="userSpaceOnUse" x1="-2142.499" y1="-2295.0093" x2="-2117.5684" y2="-2223.5503" gradientTransform="matrix(1.3227 0 0 1.3227 2910.3804 3063.77)"><stop offset="0" style="stop-color:#2f7fbe"/><stop offset="1" style="stop-color:#225d8b"/></linearGradient><path class="st2" d="M76 26.1c26.6.5 48 22.2 48 48.9.0 26.7-21.4 48.4-48 48.9V26.1z"/><linearGradient id="SVGID_3_" gradientUnits="userSpaceOnUse" x1="-1.8206" y1="-2426.4675" x2="30.6643" y2="-2363.4387" gradientTransform="matrix(1.3501 0 0 1.3404 36.2099 3293.0151)"><stop offset="0" style="stop-color:#d50d16"/><stop offset=".5" style="stop-color:#880d16"/><stop offset="1" style="stop-color:#520d16"/></linearGradient><path class="st3" d="M56.3 29.2v39.1h18.2v11.6H56.3v40.9c-4.2-1.7-8.1-4-11.6-6.8V79.9H25.7c-.2-1.6-.2-3.3-.2-4.9.0-2.2.1-4.5.4-6.7h18.7V36C48.2 33.2 52.1 31 56.3 29.2v0z"/><path class="st4" d="M43.3 112.3"/><path class="st5" d="M88.4 42.5h16.8v2.3H88.4V42.5z"/><linearGradient id="SVGID_4_" gradientUnits="userSpaceOnUse" x1="-36.7449" y1="-2455.9148" x2="35.667" y2="-2394.0664" gradientTransform="matrix(1.3227 0 0 1.3227 72.8422 3280.0154)"><stop offset="0" style="stop-color:#f8ffbf"/><stop offset=".509" style="stop-color:#f8e45e"/><stop offset=".75" style="stop-color:#f8d35e"/><stop offset="1" style="stop-color:#ee8e0a"/></linearGradient><path class="st6" d="M75.2 1C49.6 1 24.6 14.2 10.9 38-9.5 73.4 2.6 118.7 38 139.1c35.4 20.4 80.7 8.3 101.1-27.1 20.4-35.4 8.3-80.7-27.1-101.1C100.4 4.2 87.7 1 75.2 1V1zM75 4.6c38.9.0 70.4 31.6 70.4 70.4.0 38.9-31.6 70.4-70.4 70.4-38.9.0-70.4-31.6-70.4-70.4C4.6 36.1 36.1 4.6 75 4.6zM70.8 7v14.6h4.4v-4.9l3.6 4.9 5.9.9-5.1-6.6c1.1-.2 3.2-1.4 3.2-3.9.0-3.7-3.4-4.9-5.5-4.9L70.8 7V7zM76.4 10.2c1.2.0 2.1.8 2.1 1.7.0.9-.6 1.9-2 1.9h-1.4l-.1-3.5L76.4 10.2zM97.4 11.1c-.1.0-.2.0-.2.0-3.8.1-7.1 2.4-7.9 6.2-.8 3.8 2.7 8.3 6.9 9.2 4.6 1 8.8-1.1 9.8-6 .8-4.2-2.3-8.3-6.9-9.2C98.5 11.1 97.9 11.1 97.4 11.1v0zM43.5 14.9l-4 2.1 1.9 16.5 4.2-3.1-.5-2.5 4.6-2.7 2.1 1.6 4.8-2L43.5 14.9v0zM97.5 15.1c.3.0.5.0.8.1 2.2.4 3.6 2.3 3.2 4.4-.4 2-2.4 3.4-4.6 3-2.2-.4-3.3-2.6-2.9-4.6C94.3 16.2 95.6 15.1 97.5 15.1zM43.7 20.1l3.4 2.6-2.4 1.4-1-4zM117.9 22.3 105.4 31l3.7 2.9 6-4.7-3 7.6 1.6 1.5 7.7-3.1-4.6 6.2 2.8 4 8.8-12.6-2.8-3.4-7.2 2.9 2.9-7.3L117.9 22.3zM75 24.1c-28.1.0-50.9 22.8-50.9 50.9.0 28.1 22.8 50.9 50.9 50.9 28.1.0 50.9-22.8 50.9-50.9C125.9 46.9 103.1 24.1 75 24.1zM28.4 25.8l-6.1 7 10.6 9.4 3-3.4-4.1-3.6 3-3.2-2.6-2.3-3 3.3-1.5-1.4L31 28 28.4 25.8zM74 26.1v40.4H58.2V29C63.1 27.2 68.5 26.2 74 26.1v0zm2 0c18.6.4 34.7 11.2 42.7 26.8-.1-.1-.2-.3-.3-.4-1.9-2.4-4.4-4-6.5-5.4-.2-.1-.4-.2-.6-.2-.3.0-.6.2-.8.4-.5.7-1.4 1.2-2.6 1.2h-9c-.5.0-.9.1-1.3.4-.4.3-.7.7-.7 1.3v1c0 0 0 0-.1.1-.1.1-.3.1-.5.1h-7.8v-.6.0c0-1.2-.6-2.3-1.5-2.9v0 0l-3.4-2.3v0 0C83.2 45.2 82.6 45 82 45c-.2.0-.4.0-.6.1-.7.2-1.3.6-1.7 1.2-.8 1.2-.6 3 .9 4l1.6 1.2v0 0c.3.2.5.5.5.6v2.6.0c0 0 0 0 0 .1.0.0-.1.0-.3-.1-.4-.1-.7-.3-1.1-.5-.4-.2-1-.3-1.7-.3-1.3.0-2.4.6-3 1.4-.2.3-.4.6-.6.9L76 26.1v0zM56.2 29.8v38.6H74v11.4H56.2v40.4c-4.1-1.7-7.9-3.9-11.4-6.7V79.8H26.3c-.2-1.6-.2-3.2-.2-4.8.0-2.2.1-4.4.4-6.6h18.3v-32C48.3 33.7 52.1 31.5 56.2 29.8zM89.4 37.3c-.8.0-1.4.6-1.4 1.4.0.8.6 1.4 1.4 1.4.8.0 1.4-.6 1.4-1.4C90.9 38 90.2 37.3 89.4 37.3zM93.1 37.3c-.8.0-1.4.6-1.4 1.4.0.8.6 1.4 1.4 1.4.8.0 1.4-.6 1.4-1.4C94.5 38 93.9 37.3 93.1 37.3zM96.8 37.3c-.8.0-1.4.6-1.4 1.4.0.8.6 1.4 1.4 1.4.8.0 1.4-.6 1.4-1.4C98.2 38 97.6 37.3 96.8 37.3zM100.5 37.3c-.8.0-1.4.6-1.4 1.4.0.8.6 1.4 1.4 1.4.8.0 1.4-.6 1.4-1.4C101.9 38 101.3 37.3 100.5 37.3zM104.2 37.3c-.8.0-1.4.6-1.4 1.4.0.8.6 1.4 1.4 1.4.8.0 1.4-.6 1.4-1.4C105.6 38 105 37.3 104.2 37.3zM42.9 38.1v28.4H26.8C28.8 55.2 34.6 45.3 42.9 38.1zM88.4 41.1v2.3h16.8v-2.3H88.4zM88.4 44.3v2.3h16.8v-2.3H88.4zM135.2 44.3 122 49.7l3.7 8.7 3.5-1.5-2-4.5 1.6-.8 1.9 4.3 3.2-1.3-1.8-4.1 1.6-.7 1.9 4.4 3.3-1.3L135.2 44.3zM14 45.9 12.1 50l13 6 4.1-8.4L26 46l-2.5 4.4L14 45.9zM82.1 47c.2.0.3.0.6.2l3.4 2.3c.4.3.7.9.7 1.3V54v0c0 1.2.6 2.3 1.4 3.1.5.4 1 .8 1.6 1-.6.2-1.1.6-1.6 1-.8.7-1.4 1.8-1.4 3.1v0 3.2c0 .5-.3 1-.7 1.3l-3.4 2.3c-.3.2-.5.2-.7.2-.2.0-.4-.2-.5-.4-.3-.4-.4-.8.4-1.4v0 0l1.6-1.2c.5-.4 1.3-1.1 1.3-2.2v0-2.6c0-.6-.2-1.2-.8-1.6-.6-.4-1.4-.5-2.1-.2-.5.2-.9.4-1.2.5-.3.1-.5.2-1.1.2-.7.0-1.2-.3-1.5-.7-.3-.4-.5-1-.5-1.3V58c0-.4.2-.9.5-1.3.3-.4.8-.7 1.5-.7.5.0.8.1 1.1.2.3.1.6.3 1.2.5.8.3 1.6.2 2.1-.2.6-.4.8-1.1.8-1.6v-2.6.0c0-1.1-.8-1.8-1.3-2.2l-1.6-1.2v0 0c-.7-.5-.6-1-.4-1.4.1-.2.3-.3.5-.4C82 47 82 47 82.1 47zM111.5 49.2c1.9 1.2 3.8 2.6 5.3 4.5 1.7 2.1 2.9 4.8 2.9 8.9.0 7.6-7.1 13.6-13.8 13.6H89.5c-.5.0-.9.2-1.2.5-.3.3-.4.7-.4 1.1.0.4.1.8.4 1.1.3.3.8.5 1.2.5h16c5.8.0 8.8 3.7 8.8 8.1.0 4.3-3.2 8.3-8.8 8.3H89c-.4.0-.8.2-1.1.5-.3.3-.4.6-.4 1 0 .3.1.7.4 1 .3.3.7.5 1.1.5h12.3c2.6.0 4.9 2.6 4.9 5 0 1.2-.4 2.4-1.1 3.2-.8.8-2 1.4-4.1 1.4h-7.4c-.3.0-.6.1-.9.3-.3.2-.5.6-.5 1 0 .4.2.8.5.9.3.2.6.3.9.3h4.9c.7.0 1.2.3 1.6.8.4.5.6 1.2.6 1.7.0.7-.3 1.3-.7 1.7-.3.3-.7.4-1.2.5.0-.3.0-.6-.2-1-.2-.5-.8-.8-1.4-.8h-2.9c-1 0-2.1-.4-3-1.1-.8-.7-1.4-1.8-1.4-3.2.0-1.4.6-2.3 1.4-3 .8-.7 1.9-1.1 2.7-1.1h7.2c.3.0.6-.1.9-.2.3-.2.6-.6.6-1.1.0-.5-.3-.9-.6-1.1-.3-.2-.6-.2-.9-.2H89.9c-4.3.0-6.8-3.1-6.8-6.4.0-3 2.5-6.5 6.4-6.5h16.8c.5.0.9-.2 1.2-.5.3-.3.4-.7.4-1.1.0-.4-.1-.7-.4-1.1-.3-.3-.7-.5-1.2-.5H89.2c-4.8.0-8.6-3.5-8.6-8.9.0-4.5 3.7-9.1 9.1-9.1h15.5c.8.0 1.6-.4 2.1-.9.5-.6.7-1.2.7-1.9.0-.7-.2-1.4-.7-1.9-.5-.6-1.2-.9-2.1-.9H88.7v-.9c0-.6.3-1.1.8-1.6.5-.5 1.2-.7 1.6-.7h9.3c.4.0.7-.1 1.1-.3.3-.2.7-.8.7-1.4.0-.7-.2-1-.7-1.4-.3-.2-.7-.3-1.1-.3H91c-.4.0-1.1-.3-1.6-.7-.5-.5-.8-1-.8-1.6v-.6H1e2c.6.0 1.2-.2 1.6-.5.4-.3.8-.9.8-1.5v-.8h5.5C109.3 50.5 110.6 50 111.5 49.2v0zM121.4 59.5c1.6 4.9 2.5 10.1 2.5 15.5.0 17.1-8.8 32.1-22.1 40.9.5-.7.8-1.6.8-2.5.0-1-.4-2.1-1.1-3 0 0-.1-.1-.1-.1 2.2-.1 3.9-.9 5-2 1.2-1.3 1.7-3 1.7-4.6.0-2.4-1.3-4.7-3.4-6h.7c6.6.0 10.7-5 10.7-10.2.0-4.5-2.9-8.5-7.7-9.7 6.9-1.3 13.1-7.5 13.1-15.3C121.7 61.5 121.6 60.5 121.4 59.5v0zM76 59.9c.2.3.3.6.6.9.7.8 1.7 1.4 3 1.4.7.0 1.3-.1 1.7-.3.4-.2.7-.3 1.1-.5.2-.1.3-.1.3-.1.0.0.0.0.0.1v0V64c0 .1-.2.4-.5.6v0 0l-1.6 1.2c-1.4 1-1.6 2.8-.8 4 .3.5.8.9 1.4 1.1-1.6 2-2.5 4.4-2.5 6.9.0 5.4 3.5 9.6 8.2 10.6-3.5 1.2-5.7 4.7-5.7 8 0 4.3 3.4 8.3 8.7 8.3h.4c-.1.1-.2.1-.3.2-1.2 1-2.1 2.6-2.1 4.5.0 2 .9 3.6 2.1 4.7 1.2 1.1 2.8 1.6 4.3 1.6h2.5c-.1.2-.1.3-.1.3-.2.5.0 1.1.5 1.3.1.0.1.1.2.1.7.1 1.4.1 2 0-6.9 4-14.9 6.3-23.3 6.4V59.9zM23.2 61.6 8 66.6l-.5 4.5 14.4 7.8-.1-5.2-2.2-1 .3-5.4 2.6-.6L23.2 61.6v0zM135.2 62.1c-5.1.0-7.6 4.2-7.6 8.4.0 4.2 3 8.4 7.6 8.4 4.6.0 7.7-3.8 7.7-8.4C142.9 65.9 140.2 62.1 135.2 62.1zM88.7 65h16.5c.3.0.5.1.6.2.1.1.2.4.2.7.0.3-.1.5-.2.7-.1.1-.2.2-.6.2H89.7c-.5.0-.9.0-1.4.1.2-.5.4-1 .4-1.6v0V65zM135.3 66.6c2.2.0 3.6 2.1 3.6 3.8.0 1.7-1.4 3.8-3.6 3.8-2.2.0-3.5-1.9-3.5-3.8C131.8 68.4 133 66.6 135.3 66.6zM16.5 68.2l-.2 3-4.1-1.9L16.5 68.2zM26.5 81.8h16.3v30.1C34.2 104.3 28.2 93.7 26.5 81.8zM58.2 81.8H74v42.1c-5.6-.1-10.9-1.1-15.8-3V81.8z"/><path class="st5" d="M82.1 47c.2.0.3.0.6.2l3.4 2.3c.4.3.7.9.7 1.3V54v0c0 1.2.6 2.3 1.4 3.1.5.4 1 .8 1.6 1-.6.2-1.1.6-1.6 1-.8.7-1.4 1.8-1.4 3.1v0 3.2c0 .5-.3 1-.7 1.3l-3.4 2.3c-.3.2-.5.2-.7.2-.2.0-.4-.2-.5-.4-.3-.4-.4-.8.4-1.4v0 0l1.6-1.2c.5-.4 1.3-1.1 1.3-2.2v0-2.6c0-.6-.2-1.2-.8-1.6-.6-.4-1.4-.5-2.1-.2-.5.2-.9.4-1.2.5-.3.1-.5.2-1.1.2-.7.0-1.2-.3-1.5-.7-.3-.4-.5-1-.5-1.3V58c0-.4.2-.9.5-1.3.3-.4.8-.7 1.5-.7.5.0.8.1 1.1.2.3.1.6.3 1.2.5.8.3 1.6.2 2.1-.2.6-.4.8-1.1.8-1.6v-2.6.0c0-1.1-.8-1.8-1.3-2.2l-1.6-1.2v0 0c-.7-.5-.6-1-.4-1.4.1-.2.3-.3.5-.4C82 47 82 47 82.1 47z"/><linearGradient id="SVGID_5_" gradientUnits="userSpaceOnUse" x1="-2129.8806" y1="-2275.2825" x2="-2115.1934" y2="-2231.6106" gradientTransform="matrix(1.3227 0 0 1.3227 2910.3804 3063.77)"><stop offset="0" style="stop-color:#157031"/><stop offset="1" style="stop-color:#0f5324"/></linearGradient><path class="st7" d="M111.5 49.2c1.9 1.2 3.8 2.6 5.3 4.5 1.7 2.1 2.9 4.8 2.9 8.9.0 7.6-7.1 13.6-13.8 13.6H89.5c-.5.0-.9.2-1.2.5-.3.3-.4.7-.4 1.1.0.4.1.8.4 1.1.3.3.8.5 1.2.5h16c5.8.0 8.8 3.7 8.8 8.1.0 4.3-3.2 8.3-8.8 8.3H89c-.4.0-.8.2-1.1.5-.3.3-.4.6-.4 1 0 .3.1.7.4 1 .3.3.7.5 1.1.5h12.3c2.6.0 4.9 2.6 4.9 5 0 1.2-.4 2.4-1.1 3.2-.8.8-2 1.4-4.1 1.4h-7.4c-.3.0-.6.1-.9.3-.3.2-.5.6-.5 1 0 .4.2.8.5.9.3.2.6.3.9.3h4.9c.7.0 1.2.3 1.6.8.4.5.6 1.2.6 1.7.0.7-.3 1.3-.7 1.7-.3.3-.7.4-1.2.5.0-.3.0-.6-.2-1-.2-.5-.8-.8-1.4-.8h-2.9c-1 0-2.1-.4-3-1.1-.8-.7-1.4-1.8-1.4-3.2.0-1.4.6-2.3 1.4-3 .8-.7 1.9-1.1 2.7-1.1h7.2c.3.0.6-.1.9-.2.3-.2.6-.6.6-1.1.0-.5-.3-.9-.6-1.1-.3-.2-.6-.2-.9-.2H89.9c-4.3.0-6.8-3.1-6.8-6.4.0-3 2.5-6.5 6.4-6.5h16.8c.5.0.9-.2 1.2-.5.3-.3.4-.7.4-1.1.0-.4-.1-.7-.4-1.1-.3-.3-.7-.5-1.2-.5H89.2c-4.8.0-8.6-3.5-8.6-8.9.0-4.5 3.7-9.1 9.1-9.1h15.5c.8.0 1.6-.4 2.1-.9.5-.6.7-1.2.7-1.9.0-.7-.2-1.4-.7-1.9-.5-.6-1.2-.9-2.1-.9H88.7v-.9c0-.6.3-1.1.8-1.6.5-.5 1.2-.7 1.6-.7h9.3c.4.0.7-.1 1.1-.3.3-.2.7-.8.7-1.4.0-.7-.2-1-.7-1.4-.3-.2-.7-.3-1.1-.3H91c-.4.0-1.1-.3-1.6-.7-.5-.5-.8-1-.8-1.6v-.6H1e2c.6.0 1.2-.2 1.6-.5.4-.3.8-.9.8-1.5v-.8h5.5C109.3 50.5 110.6 50 111.5 49.2v0z"/></svg>