<svg id="Layer_1" xmlns="http://www.w3.org/2000/svg" xmlns:xlink="http://www.w3.org/1999/xlink" viewBox="0 0 150 150" style="enable-background:new 0 0 150 150"><style>.st0{fill:url(#SVGID_2_)}.st1{filter:url(#Adobe_OpacityMaskFilter)}.st2{fill:url(#SVGID_4_)}.st3{mask:url(#SVGID_3_);fill:url(#SVGID_5_)}.st4{fill:url(#SVGID_6_)}.st5{fill:url(#SVGID_7_)}.st6{fill:url(#SVGID_8_)}.st7{fill:url(#SVGID_9_)}.st8{fill:url(#SVGID_10_)}.st9{fill:url(#SVGID_11_)}.st10{fill:url(#SVGID_12_)}.st11{fill:url(#SVGID_13_)}.st12{fill:url(#SVGID_14_)}.st13{fill:url(#SVGID_15_)}.st14{fill:url(#SVGID_16_)}.st15{fill:url(#SVGID_17_)}.st16{fill:url(#SVGID_18_)}.st17{fill:url(#SVGID_19_)}.st18{fill:#fff}.st19{clip-path:url(#SVGID_21_)}.st20{filter:url(#Adobe_OpacityMaskFilter_1_)}.st21{fill:url(#SVGID_22_)}.st22{mask:url(#SVGID_1_);fill:url(#SVGID_23_)}</style><g><linearGradient id="SVGID_2_" gradientUnits="userSpaceOnUse" x1="74.729" y1="42.7505" x2="74.729" y2="134.8049" gradientTransform="matrix(1 0 0 -1 0 152)"><stop offset="0" style="stop-color:#e5e5e5"/><stop offset=".6866" style="stop-color:#fff"/><stop offset="1" style="stop-color:#919191"/></linearGradient><path class="st0" d="M110.7 61.4c-1.6-3.4-5.5-10.9-9.3-18-5.5-9.9-14-24.1-14.9-25.3-.2-.3-.4-.5-.6-.7-.1-.1-.2-.1-.3-.2-.2-.1-.7.0-1.1.0-.2.0-.4.0-.6.0-1.8-.1-5.5-.2-9.1-.2-4.4.0-9.8.1-10.5.2-.4.0-.5.1-.6.2-.2.1-.4.2-.6.6-.8 1.2-9.4 15.4-14.9 25.3-3.9 7-7.7 14.5-9.3 18-.4.9-.5 1.5-.5 1.8.0.5.2 1.1.5 1.8 1.6 3.4 5.5 10.9 9.3 18 5.5 9.9 14 24.1 14.9 25.3.1.2.3.3.4.5.2.2.4.3.6.4.2.1.6.0 1 0 .2.0.4.0.6.0 2.2.1 5.6.2 9.2.2 4.4.0 9.6-.1 10.4-.2h.1c.3.0.5-.1.6-.1.2-.1.3-.2.7-.7.9-1.2 9.4-15.3 14.9-25.2 3.9-7 7.7-14.5 9.3-18 .4-.9.5-1.6.5-1.9C111.2 62.6 111 62.1 110.7 61.4zM85.5 65.1c-3.7 8.2-6.3 13.3-10.1 20.7-.2.4-.4.7-.7.7-.3.0-.4-.3-.7-.7-3.8-7.4-6.4-12.5-10.1-20.7-.3-.7-.5-1.2-.5-1.9.0-.6.2-1.2.5-1.8 3.7-8.2 6.3-13.3 10.1-20.7.2-.4.4-.7.7-.7h0 0c0 0 0 0 0 0 .3.0.4.3.7.7 3.8 7.4 6.4 12.5 10.1 20.7.3.7.5 1.2.5 1.9C86 63.9 85.8 64.4 85.5 65.1z"/><defs><filter id="Adobe_OpacityMaskFilter" filterUnits="userSpaceOnUse" x="38.3" y="17.2" width="72.9" height="92.1"><feColorMatrix type="matrix" values="1 0 0 0 0 0 1 0 0 0 0 0 1 0 0 0 0 0 1 0"/></filter></defs><mask maskUnits="userSpaceOnUse" x="38.3" y="17.2" width="72.9" height="92.1" id="SVGID_3_"><g class="st1"><linearGradient id="SVGID_4_" gradientUnits="userSpaceOnUse" x1="73.5751" y1="36.1865" x2="73.5751" y2="88.072" gradientTransform="matrix(1 0 0 -1 0 152)"><stop offset=".8545" style="stop-color:#fff"/><stop offset="1" style="stop-color:#000"/></linearGradient><path class="st2" d="M26.7 63.9h93.7v51.9H26.7z"/></g></mask><radialGradient id="SVGID_5_" cx="71.2513" cy="111.065" r="46.0704" gradientTransform="matrix(0.9963 0 0 -1 -1.0144 152)" gradientUnits="userSpaceOnUse"><stop offset=".401" style="stop-color:#fff"/><stop offset="1" style="stop-color:#919191"/></radialGradient><path class="st3" d="M110.7 61.4c-1.6-3.4-5.5-10.9-9.3-18-5.5-9.9-14-24.1-14.9-25.3-.2-.3-.4-.5-.6-.7-.1-.1-.2-.1-.3-.2-.2-.1-.7.0-1.1.0-.2.0-.4.0-.6.0-1.8-.1-5.5-.2-9.1-.2-4.4.0-9.8.1-10.5.2-.4.0-.5.1-.6.2-.2.1-.4.2-.6.6-.8 1.2-9.4 15.4-14.9 25.3-3.9 7-7.7 14.5-9.3 18-.4.9-.5 1.5-.5 1.8.0.5.2 1.1.5 1.8 1.6 3.4 5.5 10.9 9.3 18 5.5 9.9 14 24.1 14.9 25.3.1.2.3.3.4.5.2.2.4.3.6.4.2.1.6.0 1 0 .2.0.4.0.6.0 2.2.1 5.6.2 9.2.2 4.4.0 9.6-.1 10.4-.2h.1c.3.0.5-.1.6-.1.2-.1.3-.2.7-.7.9-1.2 9.4-15.3 14.9-25.2 3.9-7 7.7-14.5 9.3-18 .4-.9.5-1.6.5-1.9C111.2 62.6 111 62.1 110.7 61.4zM85.5 65.1c-3.7 8.2-6.3 13.3-10.1 20.7-.2.4-.4.7-.7.7-.3.0-.4-.3-.7-.7-3.8-7.4-6.4-12.5-10.1-20.7-.3-.7-.5-1.2-.5-1.9.0-.6.2-1.2.5-1.8 3.7-8.2 6.3-13.3 10.1-20.7.2-.4.4-.7.7-.7h0 0c0 0 0 0 0 0 .3.0.4.3.7.7 3.8 7.4 6.4 12.5 10.1 20.7.3.7.5 1.2.5 1.9C86 63.9 85.8 64.4 85.5 65.1z"/><g><linearGradient id="SVGID_6_" gradientUnits="userSpaceOnUse" x1="56.5279" y1="43.2032" x2="56.5279" y2="88.5503" gradientTransform="matrix(1 0 0 -1 0 152)"><stop offset=".0104" style="stop-color:#e5e5e5"/><stop offset=".3385" style="stop-color:#a6a6a6"/><stop offset=".6941" style="stop-color:#333"/><stop offset=".8452" style="stop-color:#1a1a1a"/><stop offset=".948" style="stop-color:#111"/><stop offset=".9623" style="stop-color:#141414"/><stop offset=".9728" style="stop-color:#1d1d1d"/><stop offset=".9821" style="stop-color:#2d2d2d"/><stop offset=".9907" style="stop-color:#444"/><stop offset=".9987" style="stop-color:#616161"/><stop offset="1" style="stop-color:#666"/></linearGradient><path class="st4" d="M61.2 66.2c0 0-1.1-2-1.1-2.8.0-.1.0-.1.0-.2.0-.2-.1-.1-.2.0-.3.3-.9.6-2.2.6-1.2.0-11.4.0-16.3.0-.7.0-1.7-.1-1.7 1.1.0.7.6 2 1.8 4.3 6.4 12.6 13.6 25.2 21.3 37.5.0.0 1.2 1.9 1.3 2 .1.1.3.2.6.2.0.0 4.9-8.9 8.8-18.6C69 82.2 65 74.2 61.2 66.2z"/><linearGradient id="SVGID_7_" gradientUnits="userSpaceOnUse" x1="64.5727" y1="43.0775" x2="64.5727" y2="43.0775" gradientTransform="matrix(1 0 0 -1 0 152)"><stop offset=".0104" style="stop-color:#e5e5e5"/><stop offset=".3385" style="stop-color:#a6a6a6"/><stop offset=".6941" style="stop-color:#333"/><stop offset=".8452" style="stop-color:#1a1a1a"/><stop offset=".948" style="stop-color:#111"/><stop offset=".9623" style="stop-color:#141414"/><stop offset=".9728" style="stop-color:#1d1d1d"/><stop offset=".9821" style="stop-color:#2d2d2d"/><stop offset=".9907" style="stop-color:#444"/><stop offset=".9987" style="stop-color:#616161"/><stop offset="1" style="stop-color:#666"/></linearGradient><path class="st5" d="M64.6 108.9c0 0 0 0 0 0 0 0 0 0 0 0z"/></g><linearGradient id="SVGID_8_" gradientUnits="userSpaceOnUse" x1="87.7838" y1="43.2051" x2="87.7838" y2="88.5918" gradientTransform="matrix(1 0 0 -1 0 152)"><stop offset=".0104" style="stop-color:#e5e5e5"/><stop offset=".3385" style="stop-color:#a6a6a6"/><stop offset=".6941" style="stop-color:#333"/><stop offset=".8452" style="stop-color:#1a1a1a"/><stop offset=".9538" style="stop-color:#111"/><stop offset=".9665" style="stop-color:#141414"/><stop offset=".9758" style="stop-color:#1d1d1d"/><stop offset=".9841" style="stop-color:#2d2d2d"/><stop offset=".9917" style="stop-color:#444"/><stop offset=".9988" style="stop-color:#616161"/><stop offset="1" style="stop-color:#666"/></linearGradient><path class="st6" d="M110.3 63.3c-.2.2-.7.4-1.8.4-.4.0-9.4.0-13.4.0-6.1.0-5.5-.2-7.1 3.1-.7 1.4-1.4 3.1-2.2 4.5-5.4 11.2-18.4 33.8-20.2 36.6-.7 1.1-.8 1.1-.3 1.1.0.0 4.4.2 9.4.2 7.7.0 10.5-.2 10.5-.2 4.5-7 15.1-24.6 22.8-39.9 1.8-3.5 2.6-5.1 2.5-5.8C110.5 63.2 110.4 63.3 110.3 63.3z"/><linearGradient id="SVGID_9_" gradientUnits="userSpaceOnUse" x1="72.7522" y1="89.082" x2="72.7522" y2="134.766" gradientTransform="matrix(1 0 0 -1 0 152)"><stop offset="0" style="stop-color:#333"/><stop offset=".0088" style="stop-color:#292929"/><stop offset=".0237" style="stop-color:#1e1e1e"/><stop offset=".04" style="stop-color:#1a1a1a"/><stop offset=".1225" style="stop-color:#151515"/><stop offset=".2256" style="stop-color:#050505"/><stop offset=".2521" style="stop-color:#000"/></linearGradient><path class="st7" d="M84.9 17.5c-.3.0-.6.2-1 .9C80 24.3 67 48.9 61.6 60.4c-.7 1.4-1 2.1-1 2.8h2.8c0 0 0 0 0 0 0-.6.2-1.2.5-1.8 3.7-8.2 6.3-13.3 10.1-20.7.2-.4.4-.7.7-.7h0l1.1-3.1C79.6 27.4 84.9 17.5 84.9 17.5z"/><linearGradient id="SVGID_10_" gradientUnits="userSpaceOnUse" x1="81.7586" y1="88.7667" x2="81.7586" y2="115.2101" gradientTransform="matrix(1 0 0 -1 0 152)"><stop offset="0" style="stop-color:#737373"/><stop offset=".1485" style="stop-color:#6e6e6e"/><stop offset=".3324" style="stop-color:#5e5e5e"/><stop offset=".5348" style="stop-color:#454545"/><stop offset=".7493" style="stop-color:#222"/><stop offset=".7954" style="stop-color:#1a1a1a"/><stop offset=".9207" style="stop-color:#000"/></linearGradient><path class="st8" d="M88.8 63.2c0-.7-.3-1.4-1-2.7-3.7-7.8-7.5-15.5-12-23.7l-1.1 3.1h0c0 0 0 0 0 0 .3.0.4.3.7.7 3.8 7.4 6.4 12.5 10.1 20.7.3.7.5 1.2.5 1.9.0.0.0.0.0.0L88.8 63.2v0z"/><linearGradient id="SVGID_11_" gradientUnits="userSpaceOnUse" x1="67.69" y1="62.2915" x2="67.69" y2="88.7501" gradientTransform="matrix(1 0 0 -1 0 152)"><stop offset=".3571" style="stop-color:#bfbfbf"/><stop offset=".4744" style="stop-color:#bababa"/><stop offset=".6097" style="stop-color:#acacac"/><stop offset=".7539" style="stop-color:#959595"/><stop offset=".9034" style="stop-color:#757575"/><stop offset=".9631" style="stop-color:#666"/><stop offset="1" style="stop-color:#333"/></linearGradient><path class="st9" d="M74.7 86.5c0 0 0 0 0 0-.3.0-.4-.3-.7-.7-3.8-7.4-6.4-12.5-10.1-20.7-.3-.7-.5-1.2-.5-1.9.0.0.0.0.0.0h-2.8c0 .7.3 1.4 1 2.8v0c3.7 7.8 7.5 15.5 12 23.7L74.7 86.5z"/><linearGradient id="SVGID_12_" gradientUnits="userSpaceOnUse" x1="78.0793" y1="71.2613" x2="54.0112" y2="82.1178" gradientTransform="matrix(1 0 0 -1 0 152)"><stop offset=".0132" style="stop-color:#f2f2f2;stop-opacity:.8"/><stop offset=".1096" style="stop-color:#ededed;stop-opacity:0"/></linearGradient><path class="st10" d="M74.7 86.5c0 0 0 0 0 0-.3.0-.4-.3-.7-.7-3.8-7.4-6.4-12.5-10.1-20.7-.3-.7-.5-1.2-.5-1.9.0.0.0.0.0.0h-2.8c0 .7.3 1.4 1 2.8v0c3.7 7.8 7.5 15.5 12 23.7L74.7 86.5z"/><linearGradient id="SVGID_13_" gradientUnits="userSpaceOnUse" x1="76.6809" y1="43.3663" x2="76.6809" y2="89.0578" gradientTransform="matrix(1 0 0 -1 0 152)"><stop offset="0" style="stop-color:#fff"/><stop offset=".2163" style="stop-color:#f9f9f9"/><stop offset=".5116" style="stop-color:#e7e7e7"/><stop offset=".8508" style="stop-color:#cbcbcb"/><stop offset=".9693" style="stop-color:#bfbfbf"/><stop offset=".9913" style="stop-color:#737373"/></linearGradient><path class="st11" d="M64.6 108.9c.3.0.7-.4 1.1-1 .1-.2.3-.4.4-.7C69 102.3 82.7 77 87.8 66c.7-1.4 1-2.1 1-2.8H86c0 0 0 0 0 0 0 .7-.2 1.2-.5 1.9-3.7 8.2-6.3 13.3-10.1 20.7-.2.4-.4.7-.7.7l-1.1 3.2C69.6 99.6 64.6 108.9 64.6 108.9z"/><linearGradient id="SVGID_14_" gradientUnits="userSpaceOnUse" x1="49.9177" y1="41.5593" x2="49.9177" y2="88.7785" gradientTransform="matrix(1 0 0 -1 0 152)"><stop offset="0" style="stop-color:#666"/><stop offset=".1851" style="stop-color:#5e5e5e"/><stop offset=".584" style="stop-color:#515151"/><stop offset=".9698" style="stop-color:#4d4d4d"/><stop offset=".9879" style="stop-color:#757575"/><stop offset="1" style="stop-color:#8c8c8c"/></linearGradient><path class="st12" d="M63.4 108.7c-.1-.1-.2-.3-.4-.5C62.1 107 53.6 92.9 48.1 83c-3.9-7-7.7-14.5-9.3-18-.3-.7-.5-1.3-.5-1.8h-1.8c0 .6.1 1.4.7 2.6 1.3 2.8 4.8 9.8 9.4 18.1 5 9 14 24.1 15 25.5.4.6.8.9 1.1 1.1L63.4 108.7z"/><linearGradient id="SVGID_15_" gradientUnits="userSpaceOnUse" x1="65.6674" y1="47.2684" x2="83.85" y2="36.7705" gradientTransform="matrix(1 0 0 -1 0 152)"><stop offset=".0193" style="stop-color:#666"/><stop offset=".0407" style="stop-color:#4a4a4a"/><stop offset=".0625" style="stop-color:#363636"/><stop offset=".0841" style="stop-color:#292929"/><stop offset=".105" style="stop-color:#252525"/></linearGradient><path class="st13" d="M62.6 110.4c.5.3.9.3 1.5.4 1.3.1 7.2.2 10.6.2 3.4.0 9.7-.1 10.6-.2.4.0.8-.1 1.2-.3l-.7-1.7c-.1.0-.3.1-.6.1h-.1c-.8.1-6 .2-10.4.2-3.6.0-7-.1-9.2-.2-.2.0-.4.0-.6.0-.4.0-.8.1-1 0-.2-.1-.4-.2-.6-.4L62.6 110.4z"/><linearGradient id="SVGID_16_" gradientUnits="userSpaceOnUse" x1="79.4302" y1="123.1664" x2="119.7341" y2="101.1006" gradientTransform="matrix(1 0 0 -1 0 152)"><stop offset="0" style="stop-color:#595959"/><stop offset="1" style="stop-color:#737373"/></linearGradient><path class="st14" d="M113 63.2c0-.5-.1-1.4-.7-2.6-1.4-2.8-5.7-11.4-9.4-18.1-4.9-8.9-14-24.1-15-25.5-.6-.7-1-1.1-1.4-1.3l-.7 1.6c.2.1.4.4.6.7.9 1.2 9.4 15.4 14.9 25.3 3.9 7 7.7 14.5 9.3 18 .3.7.5 1.2.5 1.7L113 63.2z"/><linearGradient id="SVGID_17_" gradientUnits="userSpaceOnUse" x1="85.4445" y1="132.3315" x2="63.6098" y2="138.5925" gradientTransform="matrix(1 0 0 -1 0 152)"><stop offset=".0096" style="stop-color:#595959"/><stop offset=".0254" style="stop-color:#757575"/><stop offset=".0442" style="stop-color:#909090"/><stop offset=".0609" style="stop-color:#a0a0a0"/><stop offset=".0738" style="stop-color:#a6a6a6"/><stop offset=".5011" style="stop-color:#bebebe"/><stop offset="1" style="stop-color:#bfbfbf"/></linearGradient><path class="st15" d="M62.9 15.9l.7 1.7c.1-.1.3-.1.6-.2.7-.1 6-.2 10.5-.2 3.6.0 7.3.1 9.1.2.2.0.4.0.6.0.4.0.8-.1 1.1.0.1.0.2.1.3.2l.7-1.6c-.4-.2-.8-.2-1.2-.2-1.4-.1-7.4-.2-10.6-.2-2.8.0-9.2.1-10.7.2C63.5 15.7 63.2 15.7 62.9 15.9z"/><linearGradient id="SVGID_18_" gradientUnits="userSpaceOnUse" x1="30.3625" y1="104.6948" x2="69.2962" y2="119.6402" gradientTransform="matrix(1 0 0 -1 0 152)"><stop offset="0" style="stop-color:#8c8c8c"/><stop offset=".9868" style="stop-color:#737373"/><stop offset="1" style="stop-color:#bfbfbf"/></linearGradient><path class="st16" d="M62.9 15.9c-.6.2-.9.7-1.4 1.3-1 1.4-10.1 16.6-15 25.4-3.4 6.2-8.9 16.9-9.4 18.1-.5 1.2-.7 2-.7 2.6h1.8c0-.3.1-.9.5-1.8 1.6-3.4 5.5-10.9 9.3-18 5.5-9.9 14-24 14.9-25.3.3-.4.5-.5.6-.6L62.9 15.9z"/><linearGradient id="SVGID_19_" gradientUnits="userSpaceOnUse" x1="99.4029" y1="41.4142" x2="99.4029" y2="88.8933" gradientTransform="matrix(1 0 0 -1 0 152)"><stop offset=".019" style="stop-color:#252525"/><stop offset=".2159" style="stop-color:#2e2e2e"/><stop offset=".5991" style="stop-color:#3b3b3b"/><stop offset=".9698" style="stop-color:#3f3f3f"/><stop offset=".9856" style="stop-color:#5c5c5c"/><stop offset="1" style="stop-color:#737373"/></linearGradient><path class="st17" d="M86.5 110.6c.4-.2.9-.6 1.4-1.3 1-1.4 10.7-17.6 15-25.5 4.3-7.9 8.9-16.9 9.4-18.1.6-1.4.7-2.1.7-2.6l-1.8-.1c0 .3-.1 1-.5 1.9-1.6 3.4-5.5 10.9-9.3 18-5.5 9.9-14 24-14.9 25.2-.4.5-.5.6-.7.7.0.0.0.0.0.0L86.5 110.6z"/><path class="st18" d="M84.5 17.3c0 0 0 0 0 0 .1.0-.4.3-1.5.3-1.4.0-4.3-.1-6.6-.1-4.2.0-9.3.1-11.7.2-1.3.1-1.3.2-2.1 1v0l.4-.6c.3-.4.5-.5.6-.6.1-.1.3-.1.6-.2.7-.1 6-.2 10.5-.2 3.6.0 7.3.1 9.1.2C84 17.4 84.3 17.4 84.5 17.3"/><g><g><defs><path id="SVGID_20_" d="M113 63.2c0-.4-.1-1.4-.7-2.6-1.4-2.9-5.7-11.4-9.4-18.1-.3-.5-.6-1.1-.9-1.6-4-2.4-8.6-3.8-13.6-3.8-4.9.0-9.6 1.4-13.5 3.7.3.6 3 5.8 5.5 10.8 2.3 4.7 4.3 9.3 4.5 9.8.3.7.5 1.1.5 1.7.0.5-.2.9-.5 1.6v0c0 0-2.1 4.8-4.6 9.8-2.2 4.5-4.6 9-5.5 10.8v.1c-.1.2-.2.3-.2.3.0.0-.1-.1-.2-.3.0.0-.1-.1-.1-.3-2.6-4.9-4.4-8.5-5.4-10.6-2.3-4.8-4.4-9.4-4.6-9.8v0c-.3-.6-.5-1.1-.5-1.6.0-.5.2-1.1.5-1.6.0.0.1-.1.1-.3 1.5-3.3 3-6.5 4.4-9.5 2.1-4.3 4.5-8.9 5.3-10.4C67 46.1 62.2 54.3 62.2 63.6 62.2 78.2 74 90 88.5 90c4.7.0 9.1-1.2 12.9-3.4.6-1 1.1-2 1.6-2.8 4.2-7.7 8.8-16.9 9.4-18.1C112.9 64.5 113 63.8 113 63.2z"/></defs><clipPath id="SVGID_21_"><use xlink:href="#SVGID_20_" style="overflow:visible"/></clipPath><g class="st19"><defs><filter id="Adobe_OpacityMaskFilter_1_" filterUnits="userSpaceOnUse" x="62.3" y="37.2" width="52.8" height="52.8"><feColorMatrix type="matrix" values="1 0 0 0 0 0 1 0 0 0 0 0 1 0 0 0 0 0 1 0"/></filter></defs><mask maskUnits="userSpaceOnUse" x="62.3" y="37.2" width="52.8" height="52.8" id="SVGID_1_"><g id="XMLID_1_" class="st20"><radialGradient id="SVGID_22_" cx="88.7596" cy="88.3719" r="7.8749" gradientTransform="matrix(1 0 0 -1 0 152)" gradientUnits="userSpaceOnUse"><stop offset=".1664" style="stop-color:#fff"/><stop offset=".1876" style="stop-color:#ebebeb"/><stop offset=".2456" style="stop-color:#bababa"/><stop offset=".3083" style="stop-color:#8e8e8e"/><stop offset=".3742" style="stop-color:#686868"/><stop offset=".4441" style="stop-color:#474747"/><stop offset=".5193" style="stop-color:#2d2d2d"/><stop offset=".6017" style="stop-color:#191919"/><stop offset=".6951" style="stop-color:#0b0b0b"/><stop offset=".8088" style="stop-color:#030303"/><stop offset="1" style="stop-color:#000"/></radialGradient><circle class="st21" cx="88.8" cy="63.6" r="7.9"/></g></mask><radialGradient id="SVGID_23_" cx="88.6783" cy="88.3719" r="26.4108" gradientTransform="matrix(1 0 0 -1 0 152)" gradientUnits="userSpaceOnUse"><stop offset="0" style="stop-color:#fff"/><stop offset=".5897" style="stop-color:#fff;stop-opacity:0"/></radialGradient><circle class="st22" cx="88.7" cy="63.6" r="26.4"/></g></g></g><path d="M85.5 61.4c-.1-.3-2.2-5-4.6-9.8-2.6-5.2-5.4-10.7-5.5-10.9-.2-.4-.4-.7-.7-.7-.2.0-.4.2-.7.7-.1.2-3.1 5.8-5.6 10.9-2.5 5.1-4.4 9.5-4.5 9.8-.3.6-.5 1.2-.5 1.8.0.6.2 1.2.5 1.9.1.3 2.2 5 4.6 9.8 2.6 5.2 5.4 10.7 5.5 10.9.2.4.4.7.7.7.3.0.4-.3.7-.7.1-.2 3-5.6 5.5-10.9 2.3-4.8 4.4-9.5 4.6-9.8.3-.7.5-1.2.5-1.9C86 62.6 85.8 62.1 85.5 61.4zM85 64.8v0c0 .1-2.1 4.8-4.6 9.8-2.2 4.5-4.6 9-5.5 10.8v.1c-.1.2-.2.3-.2.3.0.0-.1-.1-.2-.3.0.0-.1-.1-.1-.3-2.6-4.9-4.4-8.5-5.4-10.6-2.3-4.8-4.4-9.4-4.6-9.8v0c-.3-.6-.5-1.1-.5-1.6.0-.5.2-1.1.5-1.6.0.0.1-.1.1-.3 1.5-3.3 3-6.5 4.4-9.5 2.6-5.2 5.5-10.9 5.5-10.9.1-.2.2-.3.2-.3s.1.1.2.3c0 0 2.9 5.5 5.5 10.9 2.3 4.7 4.3 9.3 4.5 9.8.3.7.5 1.1.5 1.7C85.5 63.8 85.3 64.2 85 64.8z"/><path d="M112.3 60.6c-1.4-2.9-5.7-11.4-9.4-18.1-5-9.1-14-24.1-15-25.5-1-1.4-1.6-1.4-2.5-1.5h-.1c-1.4-.1-7.1-.2-10.6-.2-3 0-9.3.1-10.7.2-1.4.1-1.8.6-2.5 1.6-1.1 1.4-10.2 16.8-15 25.4-3.4 6.2-8.9 16.9-9.4 18.1-.5 1-.7 1.9-.7 2.6.0.8.2 1.6.7 2.6 1.1 2.5 4.6 9.3 9.4 18.1 5 9.1 14.1 24.2 15 25.5 1 1.4 1.7 1.4 2.6 1.5 1.4.1 7.4.2 10.6.2 3.5.0 9.7-.1 10.6-.2.9-.1 1.6-.1 2.6-1.5.9-1.3 10.6-17.5 15-25.5 4.2-7.7 8.8-16.9 9.4-18.1.6-1.3.7-2 .7-2.6C113 62.8 112.9 61.9 112.3 60.6zM111.9 65.6c-.5 1.2-5.2 10.4-9.4 18-4.4 8-14.1 24.2-15 25.4-.9 1.2-1.4 1.2-2.2 1.3-.9.1-7.1.2-10.6.2-3.2.0-9.2-.1-10.6-.2-.9-.1-1.3-.1-2.2-1.3-1-1.3-10-16.3-15-25.4-4.8-8.7-8.2-15.6-9.4-18-.4-.9-.6-1.7-.6-2.4.0-.6.2-1.4.6-2.4.5-1.1 5.9-11.8 9.4-18 4.7-8.6 13.8-23.9 14.9-25.3.8-1 1-1.3 2.2-1.4 1.4-.1 7.7-.2 10.7-.2 3.4.0 9.2.1 10.5.2h.1c.9.1 1.3.1 2.1 1.3 1 1.4 10 16.3 15 25.4 3.7 6.6 8 15.1 9.4 18 .5 1.1.6 2 .6 2.3C112.5 63.7 112.4 64.4 111.9 65.6z"/></g><g><path d="M120.8 126.7h.5c.4-.8 1.2-1.3 2.1-1.3h3.3v15.4h5v-15.4h3.3c.9.0 1.7.5 2.1 1.3h.5v-3.4h-16.8V126.7zM121 138.7h-5.4v-15.4h-6.1v.5c.7.4 1.1 1.2 1.1 2.1v14.9h12.9v-3.4h-.5C122.7 138.3 121.9 138.7 121 138.7zM102.9 123.8c.7.4 1 1.2 1 2.1v6.7c0 3.4-1.2 5.2-4.2 5.2-3.1.0-4.2-1.9-4.2-5.2v-9.3h-6.1v.5c.7.4 1.1 1.2 1.1 2.1v7.6c0 4.3 2.7 7.6 7.9 7.6 5.8.0 8.2-2.6 8.2-8.3v-9.6h-3.6L102.9 123.8v0zM88.4 139.1l-6.7-15.7h-3.9l-7.6 17.5h2.9l1.6-4h7.4l1.5 4h6v-.5C89.1 140.2 88.6 139.7 88.4 139.1v0zM75.6 134.7l2.9-6.8 2.8 6.8H75.6v0zM64.7 123.8c.7.4 1 1.2 1 2.1v10.3l-7.9-12.9H51v.5c.7.4 1.1 1.2 1.1 2.1v14.9h2.5v-12.9l7.9 12.9h5.7v-17.5h-3.6L64.7 123.8v0zM46 138.7h-5.9v-5.9h6.7v-2.1h-6.7v-5.3h5.7c.9.0 1.7.4 2.1 1.1h.5v-3.2H34.1v.5c.7.4 1 1.2 1 2.1v14.9h13.5v-3.2h-.5C47.7 138.3 47.1 138.7 46 138.7zM31.5 139.3l-4.3-6.5c2.1-.7 3.8-2.5 3.8-4.8.0-3-2.3-4.7-5.9-4.7H14v.5c.7.4 1.1 1.2 1.1 2.1v14.9h5v-7.4H22l4.1 7.4h6.7v-.5C32.3 140.2 31.8 139.8 31.5 139.3zM22.3 131.5h-2.2v-6.2h2.2c1.8.0 3.4 1 3.4 3C25.7 130.4 24.2 131.5 22.3 131.5v0z"/></g></svg>