<?xml version="1.0" encoding="UTF-8" standalone="no"?>
<svg
   xmlns:dc="http://purl.org/dc/elements/1.1/"
   xmlns:cc="http://creativecommons.org/ns#"
   xmlns:rdf="http://www.w3.org/1999/02/22-rdf-syntax-ns#"
   xmlns:svg="http://www.w3.org/2000/svg"
   xmlns="http://www.w3.org/2000/svg"
   viewBox="0 0 244 228"
   height="228"
   width="244"
   xml:space="preserve"
   id="svg2"
   version="1.1"><metadata
     id="metadata8"><rdf:RDF><cc:Work
         rdf:about=""><dc:format>image/svg+xml</dc:format><dc:type
           rdf:resource="http://purl.org/dc/dcmitype/StillImage" /></cc:Work></rdf:RDF></metadata><defs
     id="defs6" /><g
     transform="matrix(1.3333333,0,0,-1.3333333,0,228)"
     id="g10"><g
       transform="scale(0.1)"
       id="g12"><path
         id="path14"
         style="fill:#090a08;fill-opacity:1;fill-rule:evenodd;stroke:none"
         d="m 1367.79,1064.09 h 7.92 l 2.88,-0.72 2.88,-0.72 2.16,-0.72 2.89,-0.72 2.16,-1.44 2.87,-0.72 2.16,-1.44 2.16,-1.44 2.17,-1.44 2.16,-1.44 2.16,-1.44 2.16,-2.16 2.15,-1.44 1.44,-2.16 2.16,-2.16 1.44,-1.44 1.44,-2.88 1.44,-2.16 1.45,-2.16 1.43,-2.16 0.73,-2.16 1.43,-2.88 0.72,-2.16 0.72,-2.88 0.72,-2.88 v -2.88 l 0.72,-2.16 v -2.88 -2.88 -2.88 -2.88 l -0.72,-2.16 v -2.88 l -0.72,-2.16 -0.72,-2.879 -0.72,-2.883 -1.43,-2.16 -0.73,-2.16 -1.43,-2.879 -1.45,-2.16 -1.44,-2.16 -1.44,-2.16 -1.44,-2.16 -2.16,-2.161 -1.44,-1.437 -2.15,-2.16 -2.16,-1.442 -2.16,-2.16 -2.16,-1.441 -2.17,-1.438 -2.16,-1.441 -2.16,-0.719 -2.87,-1.441 -2.16,-0.719 -2.89,-0.719 -2.16,-0.722 -2.88,-0.719 -2.88,-0.719 h -2.88 l -2.15,-0.723 h -2.89 -2.88 l -2.88,0.723 h -2.88 l -2.88,0.719 -2.88,0.719 -2.16,0.722 -2.88,0.719 -2.16,0.719 -2.88,1.441 -2.16,0.719 -2.16,1.441 -2.16,1.438 -2.16,1.441 -2.16,2.16 -2.16,1.442 -2.15,2.16 -1.45,1.437 -2.16,2.161 -1.44,2.16 -1.44,2.16 -1.44,2.16 -1.44,2.16 -0.72,2.879 -1.44,2.16 -0.72,2.16 -1.43,2.883 -0.73,2.879 -0.72,2.16 v 2.88 l -0.71,2.16 v 2.88 2.88 2.88 2.88 l 0.71,2.16 v 2.88 l 0.72,2.88 0.73,2.88 1.43,2.16 0.72,2.88 1.44,2.16 0.72,2.16 1.44,2.16 1.44,2.16 1.44,2.88 1.44,1.44 2.16,2.16 1.45,2.16 2.15,1.44 2.16,2.16 2.16,1.44 2.16,1.44 2.16,1.44 2.16,1.44 2.16,1.44 2.88,0.72 2.16,1.44 2.88,0.72 2.16,0.72 2.88,0.72 2.88,0.72 h 2.88 2.88 2.88" /><path
         id="path16"
         style="fill:#090a08;fill-opacity:1;fill-rule:evenodd;stroke:none"
         d="m 917.793,1496.81 -49.68,59.04 -8.64,-0.72 -8.641,-1.44 -8.637,-0.72 -9.359,-1.44 -8.641,-1.44 -8.636,-1.44 -8.645,-1.44 -7.922,-1.44 118.082,-141.12 119.516,140.4 -8.64,1.44 -8.64,2.16 -8.63,1.44 -9.37,1.44 -8.638,1.44 -8.637,0.72 -8.644,1.44 -8.637,0.72 -48.961,-59.04" /><path
         id="path18"
         style="fill:#090a08;fill-opacity:1;fill-rule:evenodd;stroke:none"
         d="m 1320.99,1296.65 1.44,-1.44 0.72,-1.44 0.73,-1.44 0.71,-2.16 0.72,-1.44 0.73,-1.44 0.71,-1.44 v -2.16 l 0.72,-1.44 0.73,-1.44 v -2.16 l 0.71,-1.44 v -2.16 -1.44 l 0.72,-2.16 v -1.44 -2.88 l -0.72,-2.16 v -2.88 l -0.71,-2.16 -0.73,-2.16 -0.72,-2.88 -0.71,-2.16 -0.73,-2.16 -0.72,-2.16 -1.44,-2.16 -0.72,-1.44 -1.44,-2.16 -1.44,-2.16 -1.44,-1.44 -1.44,-2.16 -1.44,-1.44 -2.16,-1.44 -1.44,-2.16 -1.43,-1.44 -2.16,-1.44 -2.17,-0.72 -2.16,-1.44 -2.16,-0.72 -2.16,-1.44 -2.16,-0.72 -2.16,-0.72 -2.16,-0.72 -2.16,-0.72 h -2.16 l -2.88,-0.72 h -2.16 -2.87 -1.45 -1.44 -1.44 -1.44 l -1.44,0.72 h -1.44 l -1.44,0.72 h -1.44 l -2.88,0.72 -2.88,0.72 -2.16,1.44 -2.88,0.72 -2.16,1.44 -2.15,1.44 -2.16,1.44 -1.45,1.44 -2.16,1.44 -1.44,1.44 -1.44,1.44 -1.44,1.44 -5.04,7.92 -5.76,7.2 -5.76,7.2 -5.76,7.2 -6.48,7.2 -5.76,6.48 -6.48,7.2 -7.2,6.48 -6.48,6.48 -7.2,5.76 -7.2,6.48 -7.2,5.76 -7.2,5.76 -7.92,5.76 -7.92,5.76 -7.92,5.04 -7.92,5.04 -8.64,5.04 -7.91,5.04 -8.65,4.32 -8.64,4.32 -9.36,4.32 -8.64,4.32 -9.36,3.6 -8.64,3.6 -9.36,2.88 -9.35,3.6 -10.09,2.88 -9.36,2.88 -9.36,2.16 -10.08,2.16 -10.076,2.16 69.836,85.68 9.36,-3.6 10.08,-3.6 9.36,-3.6 9.36,-3.6 9.36,-4.32 9.36,-3.6 9.36,-4.32 9.36,-5.04 9.37,-4.32 8.63,-5.04 8.64,-5.04 9.36,-5.04 8.64,-5.76 8.64,-5.76 7.92,-5.76 8.65,-5.76 7.91,-5.76 7.93,-6.48 7.91,-6.48 7.93,-6.48 7.91,-6.48 7.2,-7.2 7.92,-6.48 7.2,-7.2 7.2,-7.2 6.48,-7.92 7.2,-7.2 6.48,-7.92 6.48,-7.2 6.48,-8.64 6.48,-7.92 5.76,-7.92" /><path
         id="path20"
         style="fill:#090a08;fill-opacity:1;fill-rule:evenodd;stroke:none"
         d="m 949.473,955.371 -74.879,-90.723 -0.719,-0.718 -0.723,-0.719 -0.718,-0.723 v -0.718 -0.719 -0.723 -0.719 -0.718 -1.438 -0.719 -1.441 l 0.718,-0.719 v -0.722 l 0.723,-1.438 0.719,-0.723 0.722,-0.718 0.719,-0.719 0.723,-0.723 h 0.719 l 0.718,-0.718 h 0.723 l 1.437,-0.719 h 0.719 0.719 l 215.277,-0.723 h 2.88 2.88 l 2.88,-0.719 2.88,-0.718 2.16,-0.723 2.88,-0.719 2.16,-0.719 2.89,-0.722 2.15,-1.438 2.16,-0.718 2.88,-1.442 2.17,-1.441 2.16,-1.438 2.16,-2.16 2.16,-1.441 1.43,-2.16 2.16,-1.442 1.44,-2.16 1.44,-2.156 2.16,-2.16 1.44,-2.161 0.72,-2.16 1.44,-2.883 1.45,-2.16 0.71,-2.16 0.72,-2.879 0.72,-2.879 0.72,-2.16 0.72,-2.879 v -2.883 l 0.72,-2.878 v -2.879 -2.883 l -0.72,-2.879 v -2.879 l -0.72,-2.16 -0.72,-2.879 -0.72,-2.883 -0.72,-2.879 -0.71,-2.16 -1.45,-2.16 -1.44,-2.879 -0.72,-2.16 -1.44,-2.16 -2.16,-2.16 -1.44,-2.161 -1.44,-2.16 -2.16,-1.441 -1.43,-2.156 -2.16,-1.442 -2.16,-2.16 -2.16,-1.441 -2.17,-1.438 -2.88,-1.441 -2.16,-0.719 -2.15,-1.441 -2.89,-0.719 -2.16,-0.723 -2.88,-0.719 -2.16,-0.718 -2.88,-0.723 -2.88,-0.719 h -2.88 -2.88 -357.832 -2.883 -2.882 l -2.16,0.719 -2.875,0.723 h -2.879 l -2.161,0.718 -2.882,0.719 -2.161,1.442 -2.882,0.718 -2.157,1.442 -2.16,1.441 -2.16,1.438 -2.164,1.441 -2.156,1.441 -2.16,2.161 -2.161,1.437 -1.437,2.16 -2.16,2.16 -1.442,2.161 -1.441,2.16 -1.441,2.16 -1.442,2.16 -1.437,2.16 -0.723,2.879 -0.719,2.16 -1.441,2.879 -0.719,2.16 -0.719,2.883 v 2.879 l -0.718,2.879 v 2.879 2.883 2.16 2.879 l 0.718,2.16 v 2.16 l 0.719,2.879 v 2.16 l 0.719,2.16 0.723,2.16 1.437,2.161 0.723,2.16 0.718,2.16 1.442,2.16 1.437,2.16 1.446,2.16 0.718,2.16 2.161,1.438 105.839,128.16 h -63.359 -2.883 -2.879 -2.882 l -2.875,0.719 -2.879,0.719 -2.161,0.722 -2.882,0.719 -2.161,0.719 -2.882,1.441 -2.157,1.442 -2.16,1.437 -2.16,1.441 -2.164,1.438 -2.156,1.441 -2.16,1.442 -2.161,2.16 -1.437,2.16 -2.16,1.438 -1.442,2.16 -1.441,2.16 -1.441,2.16 -1.442,2.879 -1.437,2.16 -0.723,2.16 -0.719,2.883 -1.441,2.879 -0.719,2.16 -0.719,2.879 v 2.881 l -0.718,2.16 v 2.16 2.88 2.88 2.88 l 0.718,2.88 v 2.88 l 0.719,2.88 0.719,2.16 1.441,2.88 0.719,2.16 0.723,2.88 1.437,2.16 1.442,2.16 1.441,2.16 1.441,2.16 1.442,2.16 2.16,2.16 1.437,2.16 2.161,1.44 2.16,2.16 2.156,1.44 2.164,1.44 2.16,1.44 2.16,1.44 2.157,0.72 2.882,1.44 2.161,0.72 2.882,0.72 2.161,1.44 h 2.879 l 2.875,0.72 2.882,0.72 h 2.879 2.883 158.398 l 63.36,78.48 0.719,0.72 v 0.72 l 0.718,0.72 0.723,1.44 v 0.72 0.72 0.72 1.44 0.72 0.72 1.44 l -0.723,0.72 v 0.72 l -0.718,0.72 -0.719,1.44 -0.723,0.72 h -0.722 l -0.719,0.72 -0.719,0.72 h -0.723 l -1.437,0.72 h -0.723 -1.433 -0.723 -213.117 -2.883 l -2.879,0.72 h -2.879 l -2.879,0.72 -2.16,0.72 -2.879,0.72 -2.883,0.72 -2.16,1.44 -2.879,0.72 -2.16,1.44 -2.16,1.44 -2.16,1.44 -2.16,1.44 -2.16,1.44 -2.161,2.16 -2.16,1.44 -1.441,2.16 -2.156,2.16 -1.442,2.16 -1.437,2.16 -1.446,2.16 -1.437,2.16 -1.442,2.16 -0.718,2.88 -0.723,2.16 -1.437,2.88 -0.723,2.16 -0.719,2.88 v 2.88 l -0.719,2.88 v 2.88 2.88 2.88 2.88 l 0.719,2.16 v 2.88 l 0.719,2.88 0.723,2.88 1.437,2.16 0.723,2.88 0.718,2.16 1.442,2.16 1.437,2.88 1.446,2.16 1.437,2.16 1.442,2.16 2.156,1.44 1.441,2.16 2.16,1.44 2.161,2.16 1.437,1.44 2.164,1.44 2.16,1.44 2.879,1.44 2.16,1.44 2.16,0.72 2.879,0.72 2.164,0.72 2.879,0.72 2.879,0.72 2.157,0.72 h 2.882 l 2.879,0.72 h 2.883 l 357.833,-0.72 h 2.89 2.15 l 2.88,-0.72 h 2.88 l 2.88,-0.72 2.16,-0.72 2.89,-0.72 2.16,-1.44 2.15,-0.72 2.88,-1.44 2.16,-1.44 2.17,-1.44 2.16,-1.44 2.16,-1.44 2.16,-2.16 1.43,-1.44 2.16,-2.16 1.44,-1.44 1.44,-2.16 2.16,-2.16 1.44,-2.16 0.72,-2.88 1.44,-2.16 1.45,-2.16 0.71,-2.88 0.72,-2.16 0.72,-2.88 0.72,-2.88 0.72,-2.88 v -2.16 l 0.72,-2.88 v -2.88 -2.88 l -0.72,-2.16 v -2.16 -2.16 l -0.72,-2.16 -0.72,-2.16 -0.72,-2.16 -0.72,-2.16 -0.71,-2.16 -0.73,-2.16 -0.72,-1.44 -1.44,-2.16 -0.72,-2.16 -1.44,-2.16 -1.44,-1.44 -1.44,-2.16 -98.64,-116.64 h 56.16 2.89 2.15 l 2.88,-0.72 2.88,-0.72 h 2.88 l 2.16,-1.44 2.89,-0.72 2.16,-0.72 2.15,-1.44 2.88,-0.72 2.16,-1.44 2.17,-1.44 2.16,-1.44 2.16,-1.44 2.16,-2.16 1.43,-1.44 2.16,-2.16 1.44,-2.16 1.44,-2.16 2.16,-2.16 1.44,-2.16 0.72,-2.16 1.44,-2.16 1.45,-2.88 0.71,-2.16 0.72,-2.88 0.72,-2.16 0.72,-2.88 0.72,-2.88 v -2.88 l 0.72,-2.88 v -2.88 -2.88 l -0.72,-2.16 v -2.16 l -0.72,-2.881 -0.72,-2.879 -0.72,-2.16 -0.72,-2.879 -0.71,-2.883 -1.45,-2.16 -1.44,-2.16 -0.72,-2.879 -1.44,-2.16 -2.16,-2.16 -1.44,-2.16 -1.44,-1.438 -2.16,-2.16 -1.43,-2.16 -2.16,-1.442 -2.16,-1.441 -2.16,-1.438 -2.17,-1.441 -2.88,-1.437 -2.16,-1.442 -2.15,-1.441 -2.89,-0.719 -2.16,-0.719 -2.88,-0.722 -2.16,-0.719 -2.88,-0.719 h -2.88 -2.88 -2.88 -147.597" /><path
         id="path22"
         style="fill:#090a08;fill-opacity:1;fill-rule:evenodd;stroke:none"
         d="m 917.074,503.934 -25.199,0.718 -25.203,2.161 -25.199,2.878 -24.477,4.321 -24.48,5.761 -23.043,6.481 -23.758,7.918 -22.317,8.641 -22.324,10.082 -21.597,11.519 -20.883,12.238 -20.156,12.961 -19.442,13.68 -19.441,15.121 -18,15.117 -17.278,16.563 -16.562,18 -15.84,18 -15.117,18.719 -13.68,19.441 -12.965,20.879 -12.238,20.879 -10.801,21.601 -10.078,21.598 -9.363,23.043 -7.918,23.039 -6.481,23.758 -5.757,24.48 -4.321,24.481 -2.883,25.199 -2.16,25.199 -0.718,25.2 0.718,20.88 0.719,20.88 2.16,20.16 3.606,20.88 3.597,20.16 4.321,19.44 5.761,19.44 5.758,19.44 7.199,18.72 7.204,18.72 8.636,18 9.36,18 9.363,17.28 10.078,16.56 11.52,16.56 11.523,15.84 12.238,15.84 12.961,15.12 12.957,14.4 14.399,13.68 14.402,13.68 14.398,12.96 15.84,12.24 15.84,11.52 16.563,10.8 17.281,10.8 17.281,9.36 17.277,9.36 18,8.64 18.719,7.2 18.723,7.2 19.437,6.48 70.563,-83.52 -17.281,-3.6 -17.282,-4.32 -17.281,-5.04 -16.558,-5.76 -15.84,-6.48 -15.84,-7.2 -15.84,-7.92 -15.121,-7.92 -14.399,-9.36 -14.402,-9.36 -13.68,-10.08 -13.679,-10.8 -12.961,-11.52 -12.235,-12.24 -12.242,-12.24 -11.523,-12.96 -10.801,-13.68 -10.074,-13.68 -10.082,-14.4 -8.641,-14.4 -8.637,-15.12 -7.925,-15.84 -7.196,-15.84 -6.484,-16.56 -5.758,-16.56 -5.039,-16.56 -4.32,-17.28 -3.602,-18 -2.879,-17.28 -2.16,-18.72 -1.437,-18 v -18 l 0.718,-20.161 1.442,-20.879 2.16,-20.16 3.598,-19.441 4.316,-19.438 5.766,-19.441 6.476,-18.719 7.203,-18 7.918,-18 9.364,-17.277 9.355,-17.281 10.801,-15.84 10.801,-15.84 12.242,-15.121 12.957,-15.117 12.957,-13.684 14.402,-13.68 14.399,-12.238 15.121,-12.242 15.84,-11.52 16.562,-10.078 16.563,-10.082 18,-8.637 17.996,-8.64 18,-7.199 18.718,-5.762 18.723,-5.762 19.438,-4.32 20.16,-3.598 20.164,-2.879 20.156,-1.441 20.16,-0.719 12.957,0.719 h 12.239 l 12.246,1.441 12.238,1.438 12.238,1.441 12.242,2.16 12.236,2.16 11.52,2.879 11.53,2.879 11.52,3.602 11.51,4.32 11.52,3.598 10.81,5.043 11.51,4.32 10.08,5.039 10.8,5.758 10.09,5.762 10.79,5.761 9.37,6.477 10.07,6.48 9.36,6.481 9.36,7.199 9.36,7.203 8.64,7.918 8.64,7.922 8.64,7.918 8.64,7.922 7.92,8.641 7.21,8.636 7.19,9.364 7.2,9.359 7.2,9.359 1.44,1.438 1.44,2.16 2.16,2.16 2.16,1.442 2.16,1.441 2.16,1.437 2.16,1.442 2.16,1.441 2.88,1.438 2.16,0.718 2.88,0.723 2.88,0.719 2.88,0.719 2.16,0.722 h 2.89 2.87 2.88 2.16 l 2.88,-0.722 h 2.16 l 2.16,-0.719 2.16,-0.719 2.16,-0.723 2.16,-0.718 2.16,-1.438 2.16,-0.722 2.16,-1.438 2.16,-0.723 1.45,-1.437 2.16,-1.441 1.43,-1.442 2.16,-2.16 1.44,-1.438 1.44,-1.441 1.44,-2.16 1.44,-1.438 1.44,-2.16 0.73,-2.16 1.43,-2.16 0.73,-2.16 0.71,-2.16 0.72,-2.161 0.73,-2.16 0.71,-2.16 0.72,-2.879 v -2.16 -2.883 l 0.72,-2.16 -0.72,-2.16 v -1.438 -2.16 -1.441 l -0.72,-2.16 v -1.438 l -0.71,-2.16 v -1.441 l -0.73,-1.442 -0.72,-2.16 -0.71,-1.437 -0.73,-1.442 -0.72,-1.441 -0.71,-1.438 -0.73,-1.441 -0.72,-1.438 -8.64,-12.242 -9.36,-10.801 -9.36,-11.519 -9.36,-10.801 -10.08,-10.797 -10.08,-10.082 -10.8,-10.078 -10.8,-9.363 -10.8,-9.36 -11.52,-9.359 -11.52,-8.641 -12.24,-8.64 -12.24,-7.918 -12.24,-7.199 -12.96,-7.922 -12.23,-6.481 -13.68,-7.199 -12.97,-5.758 -13.68,-6.48 -13.68,-5.043 -13.68,-5.039 -14.4,-5.039 -14.4,-4.321 -14.4,-3.601 -14.4,-3.598 -14.39,-2.879 -15.125,-2.883 -15.122,-2.16 -15.121,-1.437 -15.117,-1.442 -15.84,-0.718 h -15.121" /><path
         id="path24"
         style="fill:#090a08;fill-opacity:1;fill-rule:evenodd;stroke:none"
         d="m 917.074,1700.57 35.281,-1.44 35.278,-2.16 34.567,-5.04 34.55,-5.76 33.84,-7.92 32.4,-9.36 32.4,-10.8 31.68,-12.96 30.97,-13.68 30.23,-15.84 28.8,-16.56 28.8,-18 27.36,-19.44 25.92,-20.88 25.92,-21.6 23.76,-23.76 23.05,-23.76 22.31,-25.2 20.17,-26.64 20.16,-27.36 17.99,-28.08 16.56,-29.52 15.84,-30.24 13.68,-30.24 12.96,-31.68 10.81,-32.4 9.35,-33.12 7.92,-33.84 5.76,-34.56 4.32,-34.56 2.88,-35.28 1.45,-36 -1.45,-35.281 -2.88,-35.281 -4.32,-34.558 -5.76,-34.559 -7.92,-33.84 -9.35,-32.398 -10.81,-32.399 -12.96,-31.679 -13.68,-30.961 -15.84,-30.243 -16.56,-29.519 -17.99,-28.078 -20.16,-27.36 -20.17,-26.64 -22.31,-25.199 -23.05,-24.481 -23.76,-23.043 -25.92,-21.598 -25.92,-20.878 -27.36,-19.442 -28.8,-18 -28.8,-17.281 -30.23,-15.117 -30.97,-14.403 -31.68,-12.238 -32.4,-10.801 -32.4,-9.359 -33.84,-7.922 -34.55,-6.48 -34.567,-4.321 -35.278,-2.879 -35.281,-0.718 -35.281,0.718 -35.277,2.879 -35.282,4.321 -33.839,6.48 -33.836,7.922 -33.121,9.359 -32.403,10.801 -31.68,12.238 -30.242,14.403 -30.238,15.117 -29.52,17.281 -28.078,18 -27.359,19.442 -26.641,20.878 -25.203,21.598 -23.758,23.043 -23.039,24.481 -22.32,25.199 -20.883,26.64 -19.441,27.36 -18,28.078 -16.555,29.519 -15.84,30.243 -13.683,30.961 -12.961,31.679 -10.797,32.399 -9.363,32.398 -7.918,33.84 -5.758,34.559 -5.043,34.558 -2.156,35.281 -1.442,35.281 1.442,36 2.156,35.28 5.043,34.56 5.758,34.56 7.918,33.84 9.363,33.12 10.797,32.4 12.961,31.68 13.683,30.24 15.84,30.24 16.555,29.52 18,28.08 19.441,27.36 20.883,26.64 22.32,25.2 23.039,23.76 23.758,23.76 25.203,21.6 26.641,20.88 27.359,19.44 28.078,18 29.52,16.56 30.238,15.84 30.242,13.68 31.68,12.96 32.403,10.8 33.121,9.36 33.836,7.92 33.839,5.76 35.282,5.04 35.277,2.16 z m 0,-98.64 -30.961,-0.72 -30.238,-2.16 -29.52,-4.32 -29.523,-5.04 -28.797,-6.48 -28.797,-8.64 -27.363,-9.36 -27.359,-10.08 -26.641,-12.24 -25.922,-13.68 -25.195,-14.4 -23.766,-15.12 -23.754,-16.56 -22.324,-18 -21.598,-18.72 -20.882,-20.16 -20.157,-20.88 -18.722,-21.6 -18,-23.04 -16.563,-23.04 -15.84,-24.48 -14.398,-25.2 -12.961,-25.92 -12.238,-25.92 -10.801,-27.36 -9.359,-28.08 -7.922,-28.08 -6.481,-29.52 -5.035,-28.8 -4.324,-30.24 -2.156,-30.24 -0.719,-30.96 0.719,-30.242 2.156,-30.238 4.324,-29.519 5.035,-29.52 6.481,-29.519 7.922,-28.079 9.359,-28.082 10.801,-26.64 12.238,-26.637 12.961,-25.922 14.398,-25.199 15.84,-24.48 16.563,-23.04 18,-23.039 18.722,-21.601 20.157,-20.879 20.882,-20.16 21.598,-18.723 22.324,-18 23.754,-16.558 23.766,-15.84 25.195,-14.399 25.922,-12.961 26.641,-12.242 27.359,-10.797 27.363,-9.363 28.797,-7.918 28.797,-6.48 29.523,-5.762 29.52,-3.598 30.238,-2.16 30.961,-0.719 30.239,0.719 30.242,2.16 29.515,3.598 29.52,5.762 28.8,6.48 28.8,7.918 28.08,9.363 26.64,10.797 26.64,12.242 25.92,12.961 25.2,14.399 24.48,15.84 23.04,16.558 23.04,18 21.6,18.723 20.88,20.16 19.44,20.879 19.44,21.601 17.28,23.039 17.28,23.04 15.12,24.48 14.4,25.199 13.68,25.922 11.52,26.637 10.81,26.64 9.36,28.082 8.63,28.079 6.48,29.519 5.05,29.52 4.31,29.519 2.16,30.238 0.72,30.242 -0.72,30.96 -2.16,30.24 -4.31,30.24 -5.05,28.8 -6.48,29.52 -8.63,28.08 -9.36,28.08 -10.81,27.36 -11.52,25.92 -13.68,25.92 -14.4,25.2 -15.12,24.48 -17.28,23.04 -17.28,23.04 -19.44,21.6 -19.44,20.88 -20.88,20.16 -21.6,18.72 -23.04,18 -23.04,16.56 -24.48,15.12 -25.2,14.4 -25.92,13.68 -26.64,12.24 -26.64,10.08 -28.08,9.36 -28.8,8.64 -28.8,6.48 -29.52,5.04 -29.515,4.32 -30.242,2.16 -30.239,0.72" /><path
         id="path26"
         style="fill:#231f20;fill-opacity:1;fill-rule:evenodd;stroke:none"
         d="M 121.473,82.0117 H 96.2734 c -2.875,-15.1172 -13.6796,-23.039 -29.5195,-23.039 -21.6016,0 -33.8359,15.1211 -33.8359,43.1993 0,28.082 12.2343,43.199 34.5547,43.199 16.5625,0 25.9257,-7.918 28.082,-21.598 h 25.9183 c -1.438,28.079 -20.875,44.641 -54.0003,44.641 -39.5977,0 -61.19926,-23.043 -61.19926,-66.242 0,-42.4806 21.60156,-66.9611 59.04296,-66.9611 33.1172,0 54.7186,18.7227 56.1566,46.8008 z M 39.3945,208.734 55.957,176.332 h 20.875 l 16.5664,32.402 H 81.1523 L 66.0352,189.293 50.9141,208.734 Z M 132.996,38.8125 h 98.637 v 23.0391 h -67.68 l 69.121,81.3594 v 22.32 h -99.359 v -23.039 h 67.68 L 132.996,60.4141 Z m 159.836,38.8789 c 1.441,-26.6406 20.164,-42.4805 51.844,-42.4805 33.117,0 51.121,15.1211 51.121,41.7618 0,12.9609 -5.043,22.3203 -15.121,28.0783 -7.918,4.32 -18.004,7.203 -30.238,10.082 -20.883,5.039 -30.243,5.039 -30.243,17.281 0,9.359 7.203,15.117 20.883,15.117 15.84,0 24.477,-6.48 25.195,-18.718 h 25.2 c -0.719,25.199 -18,40.32 -48.235,40.32 -31.679,0 -48.246,-13.68 -48.246,-38.16 0,-13.68 4.321,-23.762 13.684,-28.801 7.918,-5.7579 17.281,-7.1993 28.078,-9.3595 23.039,-5.7617 33.844,-7.9219 33.844,-19.4414 0,-10.7969 -7.926,-15.8398 -23.043,-15.8398 -17.282,0 -27.36,6.4804 -28.797,20.1601 z M 442.598,38.8125 h 25.918 V 142.492 h 37.437 v 23.039 H 405.152 v -23.039 h 37.446 z m 78.476,0 h 25.922 v 48.9609 h 27.359 c 14.403,0 18.723,-5.039 19.442,-20.1601 v -12.961 c 0,-7.1992 1.437,-12.2382 2.875,-15.8398 h 28.801 v 3.6016 c -5.035,2.8789 -5.035,7.1992 -5.035,14.3984 l -0.723,15.1211 c 0,15.1172 -3.602,23.0391 -15.117,27.3594 11.515,4.32 18.718,14.398 18.718,30.238 0,24.481 -13.683,36 -41.043,36 h -61.199 z m 25.922,71.2815 v 33.117 h 31.68 c 12.242,0 17.996,-5.758 17.996,-16.559 0,-11.519 -5.754,-16.558 -18.715,-16.558 z m 131.762,55.437 -45.36,-126.7185 h 28.075 l 7.925,25.9219 h 48.957 l 8.641,-25.9219 h 27.359 L 708.996,165.531 Z m 15.117,-25.199 18,-54 H 676.594 Z M 767.313,38.8125 h 26.64 v 44.6406 l 13.68,12.961 41.043,-57.6016 h 31.679 l -54.722,75.6015 50.402,51.117 h -32.402 l -49.68,-51.84 v 51.84 h -26.64 z m 113.761,63.3595 c 0,-41.0392 23.758,-66.9611 61.196,-66.9611 38.164,0 61.92,25.9219 61.92,66.9611 0,40.32 -23.756,66.242 -61.92,66.242 -37.438,0 -61.196,-25.922 -61.196,-66.242 z m 26.641,0 c 0,28.082 12.961,43.922 34.555,43.922 22.324,0 36.003,-15.84 36.003,-43.922 0,-28.8009 -13.679,-44.6407 -36.003,-44.6407 -21.594,0 -34.555,15.8398 -34.555,44.6407 z M 1025.07,38.8125 h 25.92 v 87.1215 l 51.84,-87.1215 h 26.64 V 165.531 h -25.92 V 78.4141 l -51.12,87.1169 h -27.36 z m 131.76,0 h 25.92 V 165.531 h -25.92 z m 163.44,43.1992 h -25.91 c -2.89,-15.1172 -12.97,-23.039 -28.81,-23.039 -21.6,0 -34.56,15.1211 -34.56,43.1993 0,28.082 12.24,43.199 35.28,43.199 15.84,0 25.93,-7.918 28.09,-21.598 h 25.91 c -2.16,28.079 -21.59,44.641 -54,44.641 -39.6,0 -61.91,-23.043 -61.91,-66.242 0,-42.4806 22.31,-66.9611 59.75,-66.9611 32.41,0 54,18.7227 56.16,46.8008 z m 20.88,-43.1992 h 95.04 v 23.0391 h -69.84 v 33.1211 h 61.2 v 21.6013 h -61.2 v 26.637 h 66.96 v 22.32 h -92.16 z m 115.2,-30.23828 c 17.28,3.59768 26.64,13.67968 26.64,30.95708 v 25.2031 h -26.64 V 38.8125 h 14.4 v -2.1602 c 0,-9.3593 -4.32,-15.121 -14.4,-18 z m 152.64,76.31638 v -9.3593 c 0,-12.9571 -8.64,-20.879 -21.6,-20.879 -7.92,0 -12.96,4.3204 -12.96,10.8008 0,7.1992 4.32,10.8008 12.24,12.961 4.32,1.4375 12.96,2.1601 22.32,6.4765 z m 0,-34.5586 c 0.72,-4.3203 1.44,-8.6406 2.89,-11.5195 h 26.64 v 4.3203 c -4.33,2.1602 -5.77,5.7578 -5.77,12.961 v 53.2772 c 0,16.563 -13.68,25.922 -40.32,25.922 -24.48,0 -38.16,-11.52 -38.16,-30.242 v -2.16 h 23.04 v 1.441 c 0,7.199 5.76,11.52 15.84,11.52 10.8,0 15.12,-2.879 15.12,-10.079 0,-9.3589 -6.48,-7.9214 -25.91,-10.8003 -21.61,-3.6016 -31.68,-11.5196 -31.68,-30.2383 0,-18.7227 10.79,-29.5235 28.79,-29.5235 12.96,0 23.76,5.043 29.52,15.1211 z m 46.8,-11.5195 h 25.92 v 25.9219 h -25.92 z m 43.92,30.2383 V 68.332 c 0,-20.1601 15.12,-33.1211 41.04,-33.1211 28.8,0 43.92,11.5235 43.92,33.1211 0,16.5586 -10.79,22.3203 -32.4,28.0821 -18,3.5979 -25.2,4.3199 -25.2,10.7969 0,6.48 4.32,8.641 13.68,8.641 10.8,0 16.56,-4.321 16.56,-12.239 h 24.48 c -0.72,20.16 -15.84,31.68 -41.04,31.68 -23.76,0 -38.16,-12.242 -38.16,-30.961 0,-15.8398 10.08,-22.3203 32.4,-28.0781 16.56,-4.3203 24.48,-3.6016 24.48,-12.2422 0,-5.7578 -5.04,-8.6406 -15.11,-8.6406 -12.97,0 -19.45,4.3203 -19.45,13.6797 z m 102.24,-30.2383 h 25.92 v 25.9219 h -25.92 V 38.8125" /></g></g></svg>