<svg id="Layer_1" xmlns="http://www.w3.org/2000/svg" xmlns:xlink="http://www.w3.org/1999/xlink" viewBox="0 0 150 150" style="enable-background:new 0 0 150 150"><style>.st0{fill:url(#outer_1_)}.st1{fill:url(#SVGID_1_)}.st2{opacity:.4;fill:url(#SVGID_2_);enable-background:new}.st3{fill:#fff}.st4{opacity:.4;fill:url(#SVGID_3_);enable-background:new}.st5{fill:#565f64}.st6{fill:url(#SVGID_4_)}.st7{fill:#a4aaae;fill-opacity:.6}.st8{fill:#333e46}.st9{fill:url(#SVGID_5_)}.st10{fill:url(#SVGID_6_);fill-opacity:.8}.st11{opacity:.8;fill:url(#SVGID_7_);enable-background:new}.st12{fill:url(#SVGID_8_)}.st13{fill:url(#SVGID_9_)}.st14{fill:url(#SVGID_10_)}.st15{fill:url(#SVGID_11_)}.st16{fill:url(#SVGID_12_)}.st17{fill:url(#SVGID_13_)}.st18{fill:url(#SVGID_14_)}.st19{fill:#fbfbfb}.st20{fill:#333f47}</style><linearGradient id="outer_1_" gradientUnits="userSpaceOnUse" x1="-52.1025" y1="316.4933" x2="-49.2991" y2="318.8412" gradientTransform="matrix(39.0625 0 0 39.0625 2055.375 -12333.375)"><stop offset="0" style="stop-color:#fff"/><stop offset=".1" style="stop-color:#e7e8e6"/><stop offset=".1" style="stop-color:#cdd0d0"/><stop offset=".2" style="stop-color:#b5bbbd"/><stop offset=".2" style="stop-color:#a5acaf"/><stop offset=".3" style="stop-color:#9ba3a7"/><stop offset=".3" style="stop-color:#98a0a4"/><stop offset=".4" style="stop-color:#828a8f"/><stop offset=".5" style="stop-color:#667075"/><stop offset=".6" style="stop-color:#535c63"/><stop offset=".7" style="stop-color:#475158"/><stop offset=".8" style="stop-color:#434d54"/><stop offset="1" style="stop-color:#475157"/></linearGradient><path id="outer_24_" class="st0" d="M146.3 75.5c0 39.5-31.9 71.4-71.4 71.4S3.5 115 3.5 75.5 35.4 4.1 74.9 4.1 146.3 36 146.3 75.5zM74.9 8.4C37.7 8.4 7.8 38.3 7.8 75.5s30.1 67.1 67.1 67.1c37.2.0 67.1-30.1 67.1-67.1C141.9 38.3 112.1 8.4 74.9 8.4z"/><linearGradient id="SVGID_1_" gradientUnits="userSpaceOnUse" x1="-52.0165" y1="316.561" x2="-49.3885" y2="318.7686" gradientTransform="matrix(39.0625 0 0 39.0625 2055.375 -12333.375)"><stop offset="0" style="stop-color:#0b1f2a"/><stop offset=".2" style="stop-color:#333f47"/><stop offset=".5" style="stop-color:#777f84"/><stop offset=".5" style="stop-color:#81898d"/><stop offset=".7" style="stop-color:#b3b8b8"/><stop offset=".8" style="stop-color:#d2d5d3"/><stop offset=".8" style="stop-color:#dee0dd"/><stop offset="1" style="stop-color:#fbfbfb"/></linearGradient><path class="st1" d="M74.9 8.4C37.7 8.4 7.8 38.3 7.8 75.5s30.1 67.1 67.1 67.1c37.2.0 67.1-30.1 67.1-67.1C141.9 38.3 112.1 8.4 74.9 8.4zM74.9 138.2c-34.7.0-62.7-28.1-62.7-62.7s28.1-62.7 62.7-62.7 62.7 28.1 62.7 62.7S109.6 138.2 74.9 138.2z"/><linearGradient id="SVGID_2_" gradientUnits="userSpaceOnUse" x1="1633.7351" y1="589.5841" x2="1635.014" y2="593.0997" gradientTransform="matrix(-39.0625 0 0 -39.0625 63917.6016 23174.7109)"><stop offset="0" style="stop-color:#e1e3e1"/><stop offset=".1" style="stop-color:#c1c5c4"/><stop offset=".3" style="stop-color:#9ba1a2"/><stop offset=".5" style="stop-color:#7d8487"/><stop offset=".7" style="stop-color:#687074;stop-opacity:0"/><stop offset=".8" style="stop-color:#5b6469;stop-opacity:0"/><stop offset="1" style="stop-color:#576065;stop-opacity:0"/></linearGradient><path class="st2" d="M74.9 146.9c39.5.0 71.4-31.9 71.4-71.4S114.3 4.1 74.9 4.1 3.5 36 3.5 75.5s31.9 71.4 71.4 71.4zm0-144.4c40.1.0 73 32.8 73 73s-32.9 73-73 73-73-32.9-73-73 32.8-73 73-73z"/><path class="st3" d="M6.9 75.7c0-37.4 30.3-68.2 68-68.2s68 30.6 68 68.2c0 37.4-30.3 67.8-68 67.8S6.9 113.1 6.9 75.7zM28.1 28.7C16 40.8 8.5 57.5 8.5 75.7s7.5 34.9 19.4 46.8c12.1 11.9 28.7 19.4 47 19.4s34.9-7.3 46.8-19.4C133.7 110.6 141 94 141 75.7s-7.5-34.9-19.4-47S93.1 9.1 74.9 9.1 40 16.6 28.1 28.7v0z"/><linearGradient id="SVGID_3_" gradientUnits="userSpaceOnUse" x1="-51.5067" y1="316.2715" x2="-49.8949" y2="319.0629" gradientTransform="matrix(39.0625 0 0 39.0625 2055.375 -12333.375)"><stop offset="0" style="stop-color:#e1e3e1"/><stop offset=".1" style="stop-color:#c1c5c4"/><stop offset=".3" style="stop-color:#9ba1a2"/><stop offset=".5" style="stop-color:#7d8487"/><stop offset=".7" style="stop-color:#687074;stop-opacity:0"/><stop offset=".8" style="stop-color:#5b6469;stop-opacity:0"/><stop offset="1" style="stop-color:#576065;stop-opacity:0"/></linearGradient><path class="st4" d="M74.9 138.5c-16.9.0-32.6-6.6-44.5-18.5S11.9 92.4 11.9 75.5 18.5 42.9 30.4 31 58 12.5 74.9 12.5s32.6 6.6 44.5 18.5 18.5 27.6 18.5 44.5-6.6 32.6-18.5 44.5S91.8 138.5 74.9 138.5zM74.9 136.6c16.2.0 31.7-6.4 43.1-17.8 11.6-11.6 17.8-26.9 17.8-43.1S129.4 44 118 32.6C106.4 21 91.1 14.8 74.9 14.8s-31.7 6.4-43.1 17.8c-11.6 11.2-18 26.7-18 42.9s6.4 31.7 17.8 43.1C43.2 130.3 58.7 136.6 74.9 136.6v0z"/><path class="st3" d="M130.3 105.2c-1.1-.9-45.2-35.8-45.2-35.8L74.9 10.7c-.7.2-1.6.9-2.1 1.8l-7.3 57-45.4 34.9c0 0-.9 1.1-1.4 1.8-.2.5-.2 1.1-.2 1.8l56.1-23 56.1 23C131.2 107 130.8 105.8 130.3 105.2v0z"/><path class="st5" d="M75.3 77.3l-.5 10.5 51.6 20.8c1.8.9 3.2.5 4.6-.5l-55-31C75.8 76.9 75.3 77.1 75.3 77.3z"/><linearGradient id="SVGID_4_" gradientUnits="userSpaceOnUse" x1="-49.9715" y1="318.0989" x2="-50.0708" y2="318.2625" gradientTransform="matrix(39.0625 0 0 39.0625 2055.375 -12333.375)"><stop offset="0" style="stop-color:#27343c"/><stop offset="1" style="stop-color:#00111e;stop-opacity:0"/></linearGradient><path class="st6" d="M75.3 77.3c0 0 3 5.2 6.4 8.9 4.8 5.2 11.2 8.9 11.2 8.9l33.5 13.5c1.8.9 3.2.5 4.6-.5l-55-31C75.8 76.9 75.3 77.1 75.3 77.3z"/><path class="st7" d="M130.8 106.1c0-.2-.2-.5-.5-.9l-47-34.4-6.4 4.1c0 0 .5.2.7.0.7-.2 2.1-.5 3.4.0C82.2 75.3 130.8 106.3 130.8 106.1 130.8 106.3 130.8 106.3 130.8 106.1v0z"/><path class="st8" d="M129.2 104 85.4 69.3l-2.1 1.4 47 34.7C130.1 104.9 129.6 104.5 129.2 104v0z"/><path class="st5" d="M76 73.9l-.2.2c0 0 0 .5.5.2.2-.2 6.8-3.7 9.1-5l-8-54.8c-.2-2.1-1.1-3-2.7-3.6l.9 63.4L76 73.9v0z"/><path class="st7" d="M72.1 14.6v3l-5 50.4c0 .7.2 1.4.9 1.8l3 2.3L73 16.4l.2-4.3C72.6 12.5 72.4 13.5 72.1 14.6v0zM69.4 73l-2.7-2.3-46.3 33.5c0 0-1.4.9-1.6 1.8l1.6-.9L69 74.5C69.9 74.1 70.1 73.7 69.4 73v0z"/><path class="st5" d="M74.2 77.3c0-.2-.2-.5-.5-.2l-55.2 31.3c1.4.9 2.7 1.1 4.6.5L74.6 88 74.2 77.3z"/><linearGradient id="SVGID_5_" gradientUnits="userSpaceOnUse" x1="-50.2581" y1="317.4985" x2="-50.4216" y2="317.2357" gradientTransform="matrix(39.0625 0 0 39.0625 2055.375 -12333.375)"><stop offset=".1" style="stop-color:#02131f"/><stop offset=".9" style="stop-color:#02131f;stop-opacity:0"/></linearGradient><path class="st9" d="M75.8 74.1l.2-.2L75.8 74.1c0 0 0 .2.2.2h.2c.2-.2 6.8-3.7 9.1-5l-.9-6.6-7.1-48.1c0-.9-.2-1.6-.7-2.1.0.0 3.4 46.1 3.4 51.1C80.1 70.3 75.8 74.1 75.8 74.1v0z"/><linearGradient id="SVGID_6_" gradientUnits="userSpaceOnUse" x1="-50.7019" y1="317.9204" x2="-50.9471" y2="317.9905" gradientTransform="matrix(39.0625 0 0 39.0625 2055.375 -12333.375)"><stop offset=".2" style="stop-color:#02131f"/><stop offset=".9" style="stop-color:#02131f;stop-opacity:0"/></linearGradient><path class="st10" d="M74.2 77.3c0-.2-.2-.5-.5-.2l-55.2 31.3c1.4.9 2.7 1.1 4.6.5L74.6 88 74.2 77.3z"/><linearGradient id="SVGID_7_" gradientUnits="userSpaceOnUse" x1="-51.3554" y1="318.2456" x2="-51.3904" y2="318.158" gradientTransform="matrix(39.0625 0 0 39.0625 2055.375 -12333.375)"><stop offset="0" style="stop-color:#02131f"/><stop offset=".1" style="stop-color:#02131f"/><stop offset="1" style="stop-color:#02131f;stop-opacity:0"/></linearGradient><path class="st11" d="M23.1 108.6l51.6-20.8-.5-10c-.9 2.7-2.5 5.7-6.8 8-3.2 1.8-33.8 16.9-44.7 22.1-.7.5-1.6.7-2.1.9C21.5 109.3 22.2 109 23.1 108.6v0z"/><linearGradient id="SVGID_8_" gradientUnits="userSpaceOnUse" x1="-50.4904" y1="316.8037" x2="-50.689" y2="316.8271" gradientTransform="matrix(39.0625 0 0 39.0625 2055.375 -12333.375)"><stop offset=".3" style="stop-color:#02131f"/><stop offset=".3" style="stop-color:#02131f"/><stop offset=".8" style="stop-color:#02131f;stop-opacity:0"/></linearGradient><path class="st12" d="M76 73.9l-.2.2c0 0 0 .5.5.2.2-.2 6.8-3.7 9.1-5l-8-54.8c-.2-2.1-1.1-3-2.7-3.6l.9 63.4L76 73.9v0z"/><linearGradient id="SVGID_9_" gradientUnits="userSpaceOnUse" x1="-50.4842" y1="316.8004" x2="-50.6186" y2="316.8179" gradientTransform="matrix(39.0625 0 0 39.0625 2055.375 -12333.375)"><stop offset=".4" style="stop-color:#27343c"/><stop offset="1" style="stop-color:#3b474e;stop-opacity:0"/></linearGradient><path class="st13" d="M76 73.9l-.2.2c0 0 0 .5.5.2.2-.2 6.8-3.7 9.1-5l-8-54.8c-.2-2.1-1.1-3-2.7-3.6l.9 63.4L76 73.9v0z"/><linearGradient id="SVGID_10_" gradientUnits="userSpaceOnUse" x1="-52.5906" y1="317.7158" x2="-50.9613" y2="318.656" gradientTransform="matrix(39.0625 0 0 39.0625 2055.375 -12333.375)"><stop offset="0" style="stop-color:#24303a;stop-opacity:0"/><stop offset="0" style="stop-color:#25323b;stop-opacity:0"/><stop offset=".1" style="stop-color:#27343c"/></linearGradient><path class="st14" d="M13.5 103.8c-1.6-3.7-10.7-21.4-.7-55.7H8.9C6.9 55 5.3 59.1 4.4 65.2c0 0-.5 2.3-.7 4.8s-.2 3.9-.2 5.5c0 13.7 3.4 21.7 3.4 21.7 3.7 11.4 10 21.7 18.7 29.4 7.5 6.6 19.2 11.6 28.7 13.5C52.7 139.8 25.4 128.2 13.5 103.8v0z"
	/><linearGradient id="SVGID_11_" gradientUnits="userSpaceOnUse" x1="-50.7037" y1="317.9826" x2="-50.7037" y2="317.7022" gradientTransform="matrix(39.0625 0 0 39.0625 2055.375 -12333.375)"><stop offset=".3" style="stop-color:#a5abaf"/><stop offset="1" style="stop-color:#a5abaf;stop-opacity:0"/></linearGradient><path class="st15" d="M75.8 76.9h-2.1c.2.0.5.0.5.2l.5 10.5h.2l.5-10.5C75.3 76.9 75.6 76.6 75.8 76.9v0z"/><linearGradient id="SVGID_12_" gradientUnits="userSpaceOnUse" x1="-49.7868" y1="315.9327" x2="-49.7868" y2="319.4951" gradientTransform="matrix(39.0625 0 0 39.0625 2055.375 -12333.375)"><stop offset="0" style="stop-color:#dee0dd"/><stop offset="0" style="stop-color:#c5c9c7"/><stop offset="0" style="stop-color:#9ea4a5"/><stop offset="0" style="stop-color:#82898c"/><stop offset="0" style="stop-color:#71797d"/><stop offset="0" style="stop-color:#6b7378"/><stop offset=".2" style="stop-color:#333f47"/><stop offset=".5" style="stop-color:#27343c"/><stop offset=".8" style="stop-color:#333f47"/><stop offset="1" style="stop-color:#434d54"/></linearGradient><path class="st16" d="M97.7 7.7c24 9.1 46.5 34.2 46.5 65.9.0 38.3-30.6 69.6-69.4 69.6v3.6c38.8.0 71.4-31.9 71.4-71.4C146.3 44 126.2 17.6 97.7 7.7v0z"/><linearGradient id="SVGID_13_" gradientUnits="userSpaceOnUse" x1="-50.7008" y1="315.8393" x2="-50.6833" y2="315.8393" gradientTransform="matrix(39.0625 0 0 39.0625 2055.375 -12333.375)"><stop offset="0" style="stop-color:#dee0dd"/><stop offset="0" style="stop-color:#c5c9c7"/><stop offset="0" style="stop-color:#9ea4a5"/><stop offset="0" style="stop-color:#82898c"/><stop offset="0" style="stop-color:#71797d"/><stop offset="0" style="stop-color:#6b7378"/><stop offset=".2" style="stop-color:#333f47"/><stop offset=".5" style="stop-color:#27343c"/><stop offset=".8" style="stop-color:#333f47"/><stop offset="1" style="stop-color:#434d54"/></linearGradient><path class="st17" d="M75.6 4.1h-.7H75.6z"/><linearGradient id="SVGID_14_" gradientUnits="userSpaceOnUse" x1="-49.2239" y1="316.271" x2="-50.0123" y2="317.4273" gradientTransform="matrix(39.0625 0 0 39.0625 2055.375 -12333.375)"><stop offset=".7" style="stop-color:#27343c"/><stop offset=".7" style="stop-color:#2b373f"/><stop offset=".7" style="stop-color:#36424a"/><stop offset=".7" style="stop-color:#49545b"/><stop offset=".8" style="stop-color:#646d73;stop-opacity:0"/><stop offset=".8" style="stop-color:#868d92;stop-opacity:0"/><stop offset=".8" style="stop-color:#b0b5b8;stop-opacity:0"/><stop offset=".8" style="stop-color:#e1e3e4;stop-opacity:0"/><stop offset=".8" style="stop-color:#fff;stop-opacity:0"/></linearGradient><path class="st18" d="M136 48.6c-16-36.7-52-38.8-54.1-39h-.2c27.6 5 45.2 23 51.3 42v.2c2.7 7.3 4.1 15.1 4.3 23.5.2 8-1.6 16.9-5 25.1-.2 1.1-.5 2.5-.7 2.5h3.6C146.3 82.3 141.5 61.6 136 48.6z"/><path class="st19" d="M6.9 75.7c0-37.4 30.3-68.2 68-68.2s68 30.6 68 68.2c0 37.4-30.3 67.8-68 67.8S6.9 113.1 6.9 75.7zM28.1 28.7C16 40.8 8.5 57.5 8.5 75.7s7.5 34.9 19.4 46.8c12.1 11.9 28.7 19.4 47 19.4s34.9-7.3 46.8-19.4C133.7 110.6 141 94 141 75.7s-7.5-34.9-19.4-47S93.1 9.1 74.9 9.1 40 16.6 28.1 28.7v0z"/><path class="st20" d="M19.9 104.7l46.5-33.5c2.5 1.4 6.6 3.2 7.1 3.2.5.2.5-.2.5-.2l-5.7-4.8c-.7-.5-.9-1.1-.9-1.8l5.5-55c-.2.2-.2.7-.5.9-.2.5-.2.7-.2 1.1l-8 55L20.4 104C20.1 104.2 19.9 104.5 19.9 104.7v0z"/></svg>