<svg id="Layer_1" xmlns="http://www.w3.org/2000/svg" xmlns:xlink="http://www.w3.org/1999/xlink" viewBox="0 0 150 150" style="enable-background:new 0 0 150 150"><style>.st0{fill:#295ca7}.st1{fill:#fff}</style><g><path class="st0" d="M75.6 2.2c40.2.0 73 32.8 73 73.1.0 40.2-32.8 73-73 73s-73.1-32.9-73.1-73C2.5 35 35.4 2.2 75.6 2.2v0z"/><path class="st1" d="M75.6 11.5c35.1.0 63.8 28.7 63.8 63.8.0 35.1-28.7 63.7-63.8 63.7s-63.8-28.6-63.8-63.7C11.9 40.1 40.5 11.5 75.6 11.5v0z"/><path class="st0" d="M32.9 41l22.9 59.3 8.4-21.7h22l8.4 21.7 23.1-60c-4.1-4.9-9-9.1-14.5-12.3l-16 44.2H64.5L48.4 27.8C42.5 31.2 37.2 35.7 32.9 41v0z"/><path class="st0" d="M126.9 55.9l-26 68c17.5-9.2 29.5-27.5 29.5-48.6C130.3 68.5 129.1 61.9 126.9 55.9z"/><path class="st0" d="M89.4 128.3l-.2-1.4L75.1 90.3 61 126.9V128c4.7 1.3 9.6 2 14.7 2C80.4 130 85 129.4 89.4 128.3z"/><path class="st0" d="M49.3 123.2 24 57.1c-2 5.7-3.1 11.8-3.1 18.2C20.8 95.9 32.3 114 49.3 123.2v0z"/><path class="st0" d="M75.6 20.5c4.8.0 9.5.6 14 1.8L75.8 60.6 61.9 22.2C66.4 21.1 71 20.5 75.6 20.5z"/></g></svg>