<?xml version="1.0" encoding="UTF-8" standalone="no"?>
<svg
   xmlns:dc="http://purl.org/dc/elements/1.1/"
   xmlns:cc="http://creativecommons.org/ns#"
   xmlns:rdf="http://www.w3.org/1999/02/22-rdf-syntax-ns#"
   xmlns:svg="http://www.w3.org/2000/svg"
   xmlns="http://www.w3.org/2000/svg"
   viewBox="0 0 258.66666 258.66666"
   height="258.66666"
   width="258.66666"
   xml:space="preserve"
   id="svg2"
   version="1.1"><metadata
     id="metadata8"><rdf:RDF><cc:Work
         rdf:about=""><dc:format>image/svg+xml</dc:format><dc:type
           rdf:resource="http://purl.org/dc/dcmitype/StillImage" /></cc:Work></rdf:RDF></metadata><defs
     id="defs6" /><g
     transform="matrix(1.3333333,0,0,-1.3333333,0,258.66667)"
     id="g10"><g
       transform="scale(0.1)"
       id="g12"><path
         id="path14"
         style="fill:#ffffff;fill-opacity:1;fill-rule:evenodd;stroke:none"
         d="M 2.59766,1933.23 H 1930.16 V 5.66797 H 2.59766 V 1933.23" /><path
         id="path16"
         style="fill:#231f20;fill-opacity:1;fill-rule:evenodd;stroke:none"
         d="m 933.172,905.152 h 66.41 V 800.211 h 79.368 v 152.492 c 0,6.559 -3.24,32.793 -25.91,32.793 h -40.5 l 68.03,113.144 h -84.226 l -63.172,-98.39 v 98.39 H 858.66 V 800.211 h 74.512 v 104.941" /><path
         id="path18"
         style="fill:#231f20;fill-opacity:1;fill-rule:evenodd;stroke:none"
         d="m 1495.24,990.418 v 29.512 h 134.44 v 78.71 h -192.75 c -16.2,0 -29.16,-13.12 -29.16,-27.88 V 939.586 c 0,-16.398 6.48,-27.875 21.06,-27.875 h 113.38 v -32.793 h -134.44 v -77.066 h 194.38 c 16.2,0 27.53,14.757 27.53,31.156 v 129.535 c 0,14.754 -11.33,27.875 -27.53,27.875 h -106.91" /><path
         id="path20"
         style="fill:#231f20;fill-opacity:1;fill-rule:evenodd;stroke:none"
         d="m 1825.68,987.137 v 111.503 h 76.13 V 801.852 h -76.13 v 98.382 h -68.03 v -98.382 h -76.13 v 296.788 h 76.13 V 987.137 h 68.03" /><g
         transform="scale(0.993902,1.0061)"
         id="g22"><path
           id="path24"
           style="fill:none;stroke:#231f20;stroke-width:20.59620094;stroke-linecap:butt;stroke-linejoin:miter;stroke-miterlimit:2.61310005;stroke-dasharray:none;stroke-opacity:1"
           d="m 1209.43,625.871 c 0,-30.968 -16.29,-42.375 -37.48,-42.375 H 769.407 c -19.557,0 -32.593,8.15 -32.593,40.744 v 746.42 c 0,32.6 14.663,40.74 35.851,40.74 h 402.545 c 21.18,0 34.22,-11.41 34.22,-42.37 z" /></g><path
         id="path26"
         style="fill:#231f20;fill-opacity:1;fill-rule:evenodd;stroke:none"
         d="m 1310.59,614.93 c 0,-11.481 -3.24,-19.676 -11.34,-27.875 -6.48,-6.559 -16.2,-11.477 -25.92,-11.477 -11.34,0 -19.44,4.918 -27.54,11.477 -6.47,8.199 -9.72,16.394 -9.72,27.875 0,9.836 3.25,19.675 9.72,26.234 8.1,8.199 16.2,11.481 27.54,11.481 9.72,0 19.44,-3.282 25.92,-11.481 8.1,-6.559 11.34,-16.398 11.34,-26.234 z m -37.26,32.793 c -9.72,0 -17.82,-3.278 -22.68,-9.836 -6.48,-6.559 -9.72,-14.758 -9.72,-22.957 0,-9.836 3.24,-18.035 9.72,-22.957 4.86,-6.555 12.96,-9.836 22.68,-9.836 8.1,0 16.2,3.281 22.68,9.836 6.47,4.922 9.72,13.121 9.72,22.957 0,8.199 -3.25,16.398 -9.72,22.957 -6.48,6.558 -14.58,9.836 -22.68,9.836" /><path
         id="path28"
         style="fill:#231f20;fill-opacity:1;fill-rule:evenodd;stroke:none"
         d="m 1257.13,636.246 h 14.58 c 4.86,0 9.72,-1.641 11.34,-1.641 4.86,-3.277 6.48,-6.558 6.48,-11.476 0,-3.281 -1.62,-6.559 -3.24,-8.199 -1.62,0 -4.86,-1.641 -6.48,-1.641 3.24,0 4.86,-1.637 6.48,-4.918 1.62,-1.641 3.24,-3.277 3.24,-6.558 v -1.637 c 0,-1.645 0,-3.281 0,-3.281 0,-1.641 0,-1.641 0,-3.282 v 0 h -6.48 v 0 1.641 0 3.277 c 0,4.918 -1.62,8.199 -4.86,9.84 -1.62,1.641 -3.24,1.641 -8.1,1.641 h -4.86 v -16.399 h -8.1 z m 25.92,-13.117 c 0,3.281 -1.62,4.918 -3.24,4.918 -1.62,1.641 -4.86,1.641 -8.1,1.641 h -6.48 V 614.93 h 6.48 c 3.24,0 4.86,0 6.48,1.64 3.24,0 4.86,3.278 4.86,6.559" /><path
         id="path30"
         style="fill:#e3820f;fill-opacity:1;fill-rule:evenodd;stroke:none"
         d="m 1202.06,1377.38 c 0,31.15 -12.96,42.63 -34.02,42.63 H 767.953 c -21.058,0 -35.633,-8.2 -35.633,-40.99 V 626.41 c 0,-32.797 12.957,-40.992 34.016,-40.992 h 400.084 c 19.44,0 35.64,11.477 35.64,42.629 z M 855.422,1267.52 c 0,16.4 0,21.32 19.437,21.32 h 184.661 c 17.82,0 17.82,-4.92 17.82,-22.96 V 741.188 c 0,-18.04 -3.25,-22.961 -17.82,-22.961 H 881.34 c -24.297,0 -25.918,0 -25.918,22.961 v 524.692 1.64" /><g
         transform="scale(0.993902,1.0061)"
         id="g32"><path
           id="path34"
           style="fill:none;stroke:#231f20;stroke-width:10.29810047;stroke-linecap:butt;stroke-linejoin:miter;stroke-miterlimit:2.61310005;stroke-dasharray:none;stroke-opacity:1"
           d="m 1209.43,1369.03 c 0,30.96 -13.04,42.37 -34.22,42.37 H 772.665 c -21.188,0 -35.851,-8.14 -35.851,-40.74 V 622.613 c 0,-32.598 13.036,-40.743 34.224,-40.743 h 402.542 c 19.56,0 35.85,11.407 35.85,42.37 z M 860.67,1259.84 c 0,16.3 0,21.18 19.557,21.18 h 185.793 c 17.93,0 17.93,-4.88 17.93,-22.81 V 736.695 c 0,-17.93 -3.27,-22.822 -17.93,-22.822 H 886.747 c -24.445,0 -26.077,0 -26.077,22.822 v 521.515 z" /></g><path
         id="path36"
         style="fill:#231f20;fill-opacity:1;fill-rule:evenodd;stroke:none"
         d="m 223.699,801.852 c 12.957,4.918 27.539,18.039 27.539,32.796 v 234.472 c 0,16.4 -12.957,29.52 -27.539,29.52 H 55.2422 c -12.957,-1.65 -22.6797,-14.76 -24.2969,-29.52 V 834.648 c 0,-16.398 11.3399,-27.878 24.2969,-32.796 z m -48.594,88.543 C 173.488,878.918 163.77,878.918 158.91,878.918 h -40.496 c -6.48,1.641 -8.098,3.277 -11.34,11.477 v 113.135 c -1.617,4.92 -1.617,16.4 11.34,18.04 h 45.356 c 11.335,-1.64 11.335,-13.12 11.335,-18.04 V 890.395" /><path
         id="path38"
         style="fill:#231f20;fill-opacity:1;fill-rule:evenodd;stroke:none"
         d="m 390.539,990.418 v 29.512 h 134.445 v 78.71 H 332.227 c -16.2,0 -29.157,-13.12 -29.157,-27.88 V 939.586 c 0,-16.398 6.481,-27.875 21.059,-27.875 H 437.516 V 878.918 H 303.07 v -77.066 h 194.375 c 16.2,0 27.539,14.757 27.539,31.156 v 129.535 c 0,14.754 -11.339,27.875 -27.539,27.875 H 390.539" /><path
         id="path40"
         style="fill:#231f20;fill-opacity:1;fill-rule:evenodd;stroke:none"
         d="m 720.98,988.777 v 109.863 h 77.75 V 801.852 h -77.75 v 98.382 h -66.414 v -98.382 h -77.75 v 296.788 h 77.75 V 988.777 h 66.414" /><path
         id="path42"
         style="fill:#231f20;fill-opacity:1;fill-rule:evenodd;stroke:none"
         d="m 1328.4,801.852 c 12.96,4.918 27.54,18.039 27.54,32.796 v 234.472 c 0,16.4 -11.34,29.52 -27.54,29.52 h -168.45 c -12.97,-1.65 -22.68,-14.76 -24.31,-29.52 V 834.648 c 0,-16.398 11.34,-27.878 24.31,-32.796 z m -48.59,88.543 c -1.62,-11.477 -11.34,-11.477 -16.2,-11.477 h -40.5 c -6.47,3.277 -8.09,3.277 -11.33,11.477 v 113.135 c -1.62,4.92 -1.62,16.4 11.33,18.04 h 45.36 c 11.34,-1.64 11.34,-13.12 11.34,-18.04 V 890.395" /></g></g></svg>