<?xml version="1.0" encoding="UTF-8" standalone="no"?>
<svg
   xmlns:dc="http://purl.org/dc/elements/1.1/"
   xmlns:cc="http://creativecommons.org/ns#"
   xmlns:rdf="http://www.w3.org/1999/02/22-rdf-syntax-ns#"
   xmlns:svg="http://www.w3.org/2000/svg"
   xmlns="http://www.w3.org/2000/svg"
   viewBox="0 0 688.70667 548.84003"
   height="548.84003"
   width="688.70667"
   xml:space="preserve"
   id="svg2"
   version="1.1"><metadata
     id="metadata8"><rdf:RDF><cc:Work
         rdf:about=""><dc:format>image/svg+xml</dc:format><dc:type
           rdf:resource="http://purl.org/dc/dcmitype/StillImage" /></cc:Work></rdf:RDF></metadata><defs
     id="defs6" /><g
     transform="matrix(1.3333333,0,0,-1.3333333,0,548.84)"
     id="g10"><g
       transform="scale(0.1)"
       id="g12"><path
         id="path14"
         style="fill:#af783c;fill-opacity:1;fill-rule:nonzero;stroke:none"
         d="m 18.9023,320.988 c 4.7852,-0.648 11.7383,-0.867 19.1211,-0.867 40.6329,0 62.3636,22.598 62.3636,62.149 0.215,34.539 -19.3362,56.492 -59.3167,56.492 -9.7812,0 -17.168,-0.864 -22.168,-1.961 z M 0,450.488 c 11.5195,1.961 25.207,3.274 40.1992,3.274 27.1602,0 46.4961,-6.532 59.3164,-18.262 13.2544,-11.949 20.8594,-28.891 20.8594,-52.578 0,-23.902 -7.605,-43.461 -21.0742,-56.934 C 85.3945,312.301 62.7969,304.91 34.332,304.91 20.6406,304.91 9.5625,305.559 0,306.648 v 143.84" /><path
         id="path16"
         style="fill:#af783c;fill-opacity:1;fill-rule:nonzero;stroke:none"
         d="m 156.914,358.582 c 0,-23.031 13.035,-40.41 31.723,-40.41 18.254,0 31.945,17.168 31.945,40.848 0,17.812 -8.91,40.199 -31.512,40.199 -22.375,0 -32.156,-20.86 -32.156,-40.637 z m 83.219,1.09 c 0,-38.891 -27.16,-55.852 -52.363,-55.852 -28.25,0 -50.411,20.86 -50.411,54.121 0,34.981 23.25,55.618 52.149,55.618 30.203,0 50.625,-21.95 50.625,-53.887" /><path
         id="path18"
         style="fill:#af783c;fill-opacity:1;fill-rule:nonzero;stroke:none"
         d="m 270.371,411.379 14.125,-53.438 c 2.824,-11.742 5.645,-22.601 7.606,-33.472 h 0.648 c 2.391,10.64 5.867,21.941 9.344,33.242 l 17.168,53.668 h 16.074 l 16.301,-52.578 c 3.91,-12.602 6.953,-23.692 9.343,-34.332 h 0.653 c 1.734,10.64 4.562,21.73 8.039,34.113 l 14.992,52.797 h 18.906 l -33.898,-105.16 h -17.383 l -16.082,50.191 c -3.691,11.731 -6.734,22.16 -9.344,34.551 h -0.433 c -2.606,-12.602 -5.867,-23.469 -9.559,-34.762 l -16.949,-49.98 h -17.383 l -31.723,105.16 h 19.555" /><path
         id="path20"
         style="fill:#af783c;fill-opacity:1;fill-rule:nonzero;stroke:none"
         d="m 422.73,382.922 c 0,11.078 -0.218,19.769 -0.871,28.457 h 16.946 L 439.895,394 h 0.433 c 5.215,9.781 17.383,19.559 34.766,19.559 14.558,0 37.156,-8.688 37.156,-44.758 v -62.582 h -19.121 v 60.621 c 0,16.949 -6.305,31.082 -24.336,31.082 -12.387,0 -22.168,-8.922 -25.645,-19.563 -0.867,-2.398 -1.296,-5.66 -1.296,-8.91 v -63.23 H 422.73 v 76.703" /><path
         id="path22"
         style="fill:#af783c;fill-opacity:1;fill-rule:nonzero;stroke:none"
         d="m 543.355,460.488 h 19.122 V 306.219 h -19.122 v 154.269" /><path
         id="path24"
         style="fill:#af783c;fill-opacity:1;fill-rule:nonzero;stroke:none"
         d="m 606.594,358.582 c 0,-23.031 13.035,-40.41 31.722,-40.41 18.25,0 31.942,17.168 31.942,40.848 0,17.812 -8.91,40.199 -31.508,40.199 -22.379,0 -32.156,-20.86 -32.156,-40.637 z m 83.215,1.09 c 0,-38.891 -27.157,-55.852 -52.364,-55.852 -28.246,0 -50.41,20.86 -50.41,54.121 0,34.981 23.254,55.618 52.149,55.618 30.207,0 50.625,-21.95 50.625,-53.887" /><path
         id="path26"
         style="fill:#af783c;fill-opacity:1;fill-rule:nonzero;stroke:none"
         d="m 769.371,359.891 c -20.859,0.429 -44.543,-3.262 -44.543,-23.692 0,-12.597 8.254,-18.238 17.813,-18.238 13.906,0 22.82,8.687 25.859,17.59 0.656,2.168 0.871,4.347 0.871,6.09 z m 18.465,-28.469 c 0,-9.133 0.441,-18.031 1.523,-25.203 h -17.168 l -1.515,13.25 h -0.653 c -5.867,-8.25 -17.168,-15.649 -32.156,-15.649 -21.301,0 -32.16,14.989 -32.16,30.211 0,25.418 22.598,39.328 63.231,39.11 v 2.179 c 0,8.469 -2.391,24.328 -23.903,24.11 -9.996,0 -20.207,-2.821 -27.597,-7.821 l -4.348,12.821 c 8.691,5.429 21.515,9.129 34.765,9.129 32.161,0 39.981,-21.95 39.981,-42.809 v -39.328" /><path
         id="path28"
         style="fill:#af783c;fill-opacity:1;fill-rule:nonzero;stroke:none"
         d="m 890.426,368.582 c 0,2.379 -0.215,5.648 -0.871,8.039 -2.821,11.949 -13.25,21.938 -27.59,21.938 -19.774,0 -31.512,-17.379 -31.512,-40.411 0,-21.296 10.652,-38.898 31.074,-38.898 12.825,0 24.551,8.699 28.028,22.82 0.656,2.602 0.871,5.211 0.871,8.262 z m 18.906,91.906 V 333.379 c 0,-9.348 0.434,-19.988 0.867,-27.16 h -16.945 l -0.871,18.25 h -0.649 c -5.656,-11.727 -18.254,-20.649 -35.421,-20.649 -25.418,0 -45.196,21.52 -45.196,53.461 -0.215,34.981 21.731,56.278 47.149,56.278 16.3,0 26.945,-7.61 31.73,-15.868 h 0.43 v 62.797 h 18.906" /><path
         id="path30"
         style="fill:#af783c;fill-opacity:1;fill-rule:nonzero;stroke:none"
         d="m 981.293,306.219 v 11.742 l 14.992,14.551 c 36.065,34.328 52.585,52.578 52.585,73.867 0,14.351 -6.74,27.601 -27.82,27.601 -12.81,0 -23.46,-6.511 -29.98,-11.949 l -6.086,13.469 c 9.563,8.039 23.686,14.34 39.766,14.34 30.42,0 43.24,-20.86 43.24,-41.059 0,-26.082 -18.9,-47.152 -48.67,-75.832 l -11.08,-10.429 v -0.438 h 63.22 v -15.863 h -90.167" /><path
         id="path32"
         style="fill:#af783c;fill-opacity:1;fill-rule:nonzero;stroke:none"
         d="m 1110.17,376.18 c 0,-36.719 11.3,-57.578 28.68,-57.578 19.34,0 28.68,22.808 28.68,58.89 0,34.758 -8.69,57.567 -28.68,57.567 -16.51,0 -28.68,-20.418 -28.68,-58.879 z m 76.7,2.179 c 0,-48.019 -18.04,-74.539 -49.11,-74.539 -27.59,0 -46.5,25.86 -46.93,72.578 0,47.594 20.64,73.442 49.32,73.442 29.55,0 46.72,-26.5 46.72,-71.481" /><path
         id="path34"
         style="fill:#af783c;fill-opacity:1;fill-rule:nonzero;stroke:none"
         d="m 1221.67,376.18 c 0,-36.719 11.29,-57.578 28.68,-57.578 19.33,0 28.68,22.808 28.68,58.89 0,34.758 -8.69,57.567 -28.68,57.567 -16.52,0 -28.68,-20.418 -28.68,-58.879 z m 76.69,2.179 c 0,-48.019 -18.03,-74.539 -49.1,-74.539 -27.59,0 -46.5,25.86 -46.94,72.578 0,47.594 20.64,73.442 49.33,73.442 29.55,0 46.71,-26.5 46.71,-71.481" /><path
         id="path36"
         style="fill:#af783c;fill-opacity:1;fill-rule:nonzero;stroke:none"
         d="m 1309.47,279.27 c 4.78,13.039 10.65,36.289 13.04,52.152 l 21.29,2.18 c -5.21,-18.481 -14.77,-42.602 -20.86,-52.801 l -13.47,-1.531" /><path
         id="path38"
         style="fill:#af783c;fill-opacity:1;fill-rule:nonzero;stroke:none"
         d="m 1378.14,376.18 c 0,-36.719 11.3,-57.578 28.68,-57.578 19.34,0 28.68,22.808 28.68,58.89 0,34.758 -8.69,57.567 -28.68,57.567 -16.51,0 -28.68,-20.418 -28.68,-58.879 z m 76.7,2.179 c 0,-48.019 -18.03,-74.539 -49.1,-74.539 -27.6,0 -46.5,25.86 -46.94,72.578 0,47.594 20.65,73.442 49.33,73.442 29.55,0 46.71,-26.5 46.71,-71.481" /><path
         id="path40"
         style="fill:#af783c;fill-opacity:1;fill-rule:nonzero;stroke:none"
         d="m 1489.63,376.18 c 0,-36.719 11.3,-57.578 28.69,-57.578 19.34,0 28.68,22.808 28.68,58.89 0,34.758 -8.69,57.567 -28.68,57.567 -16.52,0 -28.69,-20.418 -28.69,-58.879 z m 76.71,2.179 c 0,-48.019 -18.03,-74.539 -49.11,-74.539 -27.6,0 -46.5,25.86 -46.93,72.578 0,47.594 20.64,73.442 49.32,73.442 29.55,0 46.72,-26.5 46.72,-71.481" /><path
         id="path42"
         style="fill:#af783c;fill-opacity:1;fill-rule:nonzero;stroke:none"
         d="m 1601.13,376.18 c 0,-36.719 11.3,-57.578 28.68,-57.578 19.35,0 28.68,22.808 28.68,58.89 0,34.758 -8.69,57.567 -28.68,57.567 -16.51,0 -28.68,-20.418 -28.68,-58.879 z m 76.7,2.179 c 0,-48.019 -18.03,-74.539 -49.1,-74.539 -27.6,0 -46.5,25.86 -46.94,72.578 0,47.594 20.65,73.442 49.33,73.442 29.55,0 46.71,-26.5 46.71,-71.481" /><path
         id="path44"
         style="fill:#af783c;fill-opacity:1;fill-rule:nonzero;stroke:none"
         d="M 1757.16,421.809 V 370.75 h 49.11 v -13.039 h -49.11 v -51.492 h -13.9 v 51.492 h -49.1 v 13.039 h 49.1 v 51.059 h 13.9" /><path
         id="path46"
         style="fill:#af783c;fill-opacity:1;fill-rule:nonzero;stroke:none"
         d="m 1895.83,348.371 c 0,-2.391 0.23,-4.781 0.88,-6.961 3.48,-13.25 14.77,-22.371 28.68,-22.371 20.21,0 31.94,16.301 31.94,40.41 0,21.082 -10.86,39.11 -31.5,39.11 -12.83,0 -25,-9.118 -28.9,-23.469 -0.66,-2.391 -1.1,-4.988 -1.1,-8.031 z m -18.89,112.117 h 18.89 v -66.047 h 0.44 c 6.74,11.731 18.91,19.118 35.85,19.118 26.29,0 44.55,-21.739 44.55,-53.457 0,-37.582 -23.9,-56.282 -47.37,-56.282 -15.2,0 -27.37,5.871 -35.42,19.571 h -0.43 l -1.09,-17.172 h -16.29 c 0.43,7.172 0.87,17.812 0.87,27.16 v 127.109" /><path
         id="path48"
         style="fill:#af783c;fill-opacity:1;fill-rule:nonzero;stroke:none"
         d="m 2000.6,378.57 c 0,12.391 -0.21,23.039 -0.87,32.809 h 16.73 l 0.87,-20.859 h 0.65 c 4.78,14.121 16.52,23.039 29.34,23.039 1.95,0 3.48,-0.219 5.21,-0.438 v -18.039 c -1.96,0.438 -3.91,0.438 -6.52,0.438 -13.48,0 -23.03,-10 -25.64,-24.329 -0.43,-2.609 -0.65,-5.871 -0.65,-8.921 v -56.051 h -19.12 v 72.351" /><path
         id="path50"
         style="fill:#af783c;fill-opacity:1;fill-rule:nonzero;stroke:none"
         d="m 2125.99,359.891 c -20.86,0.429 -44.54,-3.262 -44.54,-23.692 0,-12.597 8.25,-18.238 17.81,-18.238 13.91,0 22.82,8.687 25.86,17.59 0.66,2.168 0.87,4.347 0.87,6.09 z m 18.47,-28.469 c 0,-9.133 0.44,-18.031 1.52,-25.203 h -17.17 l -1.51,13.25 h -0.65 c -5.87,-8.25 -17.17,-15.649 -32.16,-15.649 -21.3,0 -32.16,14.989 -32.16,30.211 0,25.418 22.6,39.328 63.23,39.11 v 2.179 c 0,8.469 -2.39,24.328 -23.9,24.11 -10,0 -20.21,-2.821 -27.6,-7.821 l -4.35,12.821 c 8.69,5.429 21.52,9.129 34.77,9.129 32.16,0 39.98,-21.95 39.98,-42.809 v -39.328" /><path
         id="path52"
         style="fill:#af783c;fill-opacity:1;fill-rule:nonzero;stroke:none"
         d="m 2175.35,382.922 c 0,11.078 -0.22,19.769 -0.87,28.457 h 16.94 L 2192.51,394 h 0.43 c 5.22,9.781 17.39,19.559 34.77,19.559 14.56,0 37.16,-8.688 37.16,-44.758 v -62.582 h -19.12 v 60.621 c 0,16.949 -6.3,31.082 -24.34,31.082 -12.39,0 -22.17,-8.922 -25.64,-19.563 -0.87,-2.398 -1.3,-5.66 -1.3,-8.91 v -63.23 h -19.12 v 76.703" /><path
         id="path54"
         style="fill:#af783c;fill-opacity:1;fill-rule:nonzero;stroke:none"
         d="m 2367.67,368.582 c 0,2.379 -0.21,5.648 -0.87,8.039 -2.82,11.949 -13.25,21.938 -27.59,21.938 -19.77,0 -31.51,-17.379 -31.51,-40.411 0,-21.296 10.65,-38.898 31.07,-38.898 12.83,0 24.56,8.699 28.03,22.82 0.66,2.602 0.87,5.211 0.87,8.262 z m 18.91,91.906 V 333.379 c 0,-9.348 0.43,-19.988 0.87,-27.16 h -16.95 l -0.88,18.25 h -0.64 c -5.65,-11.727 -18.25,-20.649 -35.42,-20.649 -25.42,0 -45.2,21.52 -45.2,53.461 -0.21,34.981 21.73,56.278 47.15,56.278 16.3,0 26.95,-7.61 31.73,-15.868 h 0.43 v 62.797 h 18.91" /><path
         id="path56"
         style="fill:#af783c;fill-opacity:1;fill-rule:nonzero;stroke:none"
         d="m 2464.62,460.488 h 19.13 V 306.219 h -19.13 v 154.269" /><path
         id="path58"
         style="fill:#af783c;fill-opacity:1;fill-rule:nonzero;stroke:none"
         d="m 2527.87,358.582 c 0,-23.031 13.03,-40.41 31.72,-40.41 18.25,0 31.94,17.168 31.94,40.848 0,17.812 -8.91,40.199 -31.51,40.199 -22.38,0 -32.15,-20.86 -32.15,-40.637 z m 83.22,1.09 c 0,-38.891 -27.16,-55.852 -52.37,-55.852 -28.25,0 -50.41,20.86 -50.41,54.121 0,34.981 23.25,55.618 52.14,55.618 30.21,0 50.64,-21.95 50.64,-53.887" /><path
         id="path60"
         style="fill:#af783c;fill-opacity:1;fill-rule:nonzero;stroke:none"
         d="m 2706.07,369.879 c 0,3.262 -0.22,6.082 -1.09,8.48 -3.48,11.289 -12.6,20.422 -26.72,20.422 -18.26,0 -31.29,-15.422 -31.29,-39.761 0,-20.641 10.64,-37.809 31.07,-37.809 11.95,0 22.6,7.391 26.51,19.559 1.08,3.261 1.52,6.949 1.52,10.21 z m 19.12,-48.231 c 0,-24.339 -5,-38.898 -15,-48.25 -10.43,-9.328 -25.19,-12.589 -38.46,-12.589 -12.59,0 -26.5,3.031 -34.98,8.691 l 4.79,14.77 c 6.95,-4.559 17.81,-8.469 30.85,-8.469 19.56,0 33.89,10.211 33.89,36.941 v 11.508 h -0.43 c -5.65,-9.77 -17.16,-17.602 -33.46,-17.602 -26.08,0 -44.76,22.161 -44.76,51.293 0,35.618 23.24,55.618 47.58,55.618 18.25,0 28.03,-9.34 32.81,-18.039 h 0.43 l 0.66,15.859 h 16.95 c -0.65,-7.387 -0.87,-16.078 -0.87,-28.68 v -61.051" /><path
         id="path62"
         style="fill:#af783c;fill-opacity:1;fill-rule:nonzero;stroke:none"
         d="m 2768.68,358.582 c 0,-23.031 13.03,-40.41 31.73,-40.41 18.24,0 31.93,17.168 31.93,40.848 0,17.812 -8.91,40.199 -31.51,40.199 -22.38,0 -32.15,-20.86 -32.15,-40.637 z m 83.22,1.09 c 0,-38.891 -27.16,-55.852 -52.37,-55.852 -28.25,0 -50.41,20.86 -50.41,54.121 0,34.981 23.25,55.618 52.14,55.618 30.21,0 50.64,-21.95 50.64,-53.887" /><path
         id="path64"
         style="fill:#af783c;fill-opacity:1;fill-rule:nonzero;stroke:none"
         d="m 2873.43,325.551 c 5.87,-3.469 15.86,-7.379 25.43,-7.379 13.68,0 20.21,6.738 20.21,15.637 0,9.132 -5.44,13.91 -19.35,19.132 -19.12,6.95 -28.03,17.161 -28.03,29.758 0,16.949 13.91,30.86 36.29,30.86 10.65,0 19.99,-2.829 25.65,-6.52 l -4.57,-13.91 c -4.12,2.609 -11.73,6.301 -21.51,6.301 -11.3,0 -17.38,-6.508 -17.38,-14.34 0,-8.692 6.08,-12.598 19.77,-18.031 18.03,-6.739 27.59,-15.86 27.59,-31.508 0,-18.692 -14.56,-31.731 -39.11,-31.731 -11.51,0 -22.16,3.051 -29.55,7.399 l 4.56,14.332" /><path
         id="path66"
         style="fill:#af783c;fill-opacity:1;fill-rule:nonzero;stroke:none"
         d="m 3008.19,306.219 v 105.16 h 19.12 v -105.16 z m 21.3,134.711 c 0,-6.508 -4.57,-11.719 -12.17,-11.719 -6.95,0 -11.52,5.211 -11.52,11.719 0,6.519 4.78,11.961 11.95,11.961 6.95,0 11.74,-5.219 11.74,-11.961" /><path
         id="path68"
         style="fill:#af783c;fill-opacity:1;fill-rule:nonzero;stroke:none"
         d="m 3059.04,382.922 c 0,11.078 -0.22,19.769 -0.87,28.457 h 16.95 L 3076.21,394 h 0.43 c 5.21,9.781 17.38,19.559 34.76,19.559 14.56,0 37.16,-8.688 37.16,-44.758 v -62.582 h -19.12 v 60.621 c 0,16.949 -6.3,31.082 -24.34,31.082 -12.38,0 -22.16,-8.922 -25.63,-19.563 -0.87,-2.398 -1.31,-5.66 -1.31,-8.91 v -63.23 h -19.12 v 76.703" /><path
         id="path70"
         style="fill:#af783c;fill-opacity:1;fill-rule:nonzero;stroke:none"
         d="m 3233.13,411.379 20.63,-58.879 c 3.48,-9.781 6.31,-18.469 8.48,-27.16 h 0.66 c 2.39,8.691 5.43,17.379 8.9,27.16 l 20.43,58.879 h 19.99 l -41.29,-105.16 h -18.25 l -39.98,105.16 h 20.43" /><path
         id="path72"
         style="fill:#af783c;fill-opacity:1;fill-rule:nonzero;stroke:none"
         d="m 3394.82,369.012 c 0.21,11.949 -5,30.859 -26.5,30.859 -19.57,0 -27.82,-17.601 -29.34,-30.859 z m -56.06,-13.692 c 0.43,-25.851 16.73,-36.511 36.07,-36.511 13.69,0 22.16,2.402 29.11,5.441 l 3.48,-13.691 c -6.73,-3.028 -18.47,-6.739 -35.2,-6.739 -32.37,0 -51.72,21.52 -51.72,53.239 0,31.73 18.69,56.5 49.33,56.5 34.55,0 43.46,-29.989 43.46,-49.329 0,-3.91 -0.22,-6.73 -0.66,-8.91 h -73.87" /><path
         id="path74"
         style="fill:#af783c;fill-opacity:1;fill-rule:nonzero;stroke:none"
         d="m 3511.97,309.91 c -5,-2.379 -16.09,-6.09 -30.21,-6.09 -31.73,0 -52.37,21.52 -52.37,53.68 0,32.371 22.17,56.059 56.5,56.059 11.29,0 21.29,-2.829 26.51,-5.649 l -4.35,-14.558 c -4.56,2.386 -11.73,5 -22.16,5 -24.12,0 -37.15,-18.043 -37.15,-39.77 0,-24.344 15.64,-39.332 36.5,-39.332 10.86,0 18.04,2.609 23.47,5 l 3.26,-14.34" /><path
         id="path76"
         style="fill:#af783c;fill-opacity:1;fill-rule:nonzero;stroke:none"
         d="m 3560.22,436.59 v -25.211 h 27.37 V 396.82 h -27.37 v -56.711 c 0,-13.027 3.69,-20.418 14.34,-20.418 5.21,0 8.26,0.43 11.08,1.297 l 0.87,-14.558 c -3.69,-1.301 -9.56,-2.61 -16.94,-2.61 -8.92,0 -16.09,3.051 -20.65,8.039 -5.21,5.871 -7.39,15.223 -7.39,27.602 v 57.359 h -16.3 v 14.559 h 16.3 v 19.562 l 18.69,5.649" /><path
         id="path78"
         style="fill:#af783c;fill-opacity:1;fill-rule:nonzero;stroke:none"
         d="m 3619.78,358.582 c 0,-23.031 13.04,-40.41 31.72,-40.41 18.26,0 31.94,17.168 31.94,40.848 0,17.812 -8.9,40.199 -31.5,40.199 -22.38,0 -32.16,-20.86 -32.16,-40.637 z m 83.22,1.09 c 0,-38.891 -27.17,-55.852 -52.36,-55.852 -28.25,0 -50.41,20.86 -50.41,54.121 0,34.981 23.24,55.618 52.15,55.618 30.19,0 50.62,-21.95 50.62,-53.887" /><path
         id="path80"
         style="fill:#af783c;fill-opacity:1;fill-rule:nonzero;stroke:none"
         d="m 3727.14,378.57 c 0,12.391 -0.21,23.039 -0.87,32.809 H 3743 l 0.88,-20.859 h 0.65 c 4.78,14.121 16.51,23.039 29.33,23.039 1.96,0 3.48,-0.219 5.22,-0.438 v -18.039 c -1.96,0.438 -3.91,0.438 -6.53,0.438 -13.46,0 -23.02,-10 -25.63,-24.329 -0.44,-2.609 -0.66,-5.871 -0.66,-8.921 v -56.051 h -19.12 v 72.351" /><path
         id="path82"
         style="fill:#af783c;fill-opacity:1;fill-rule:nonzero;stroke:none"
         d="m 3846.25,306.219 v 90.601 h -14.56 v 14.559 h 14.56 v 5 c 0,14.781 3.47,28.25 12.16,36.723 7.18,6.957 16.74,9.777 25.65,9.777 6.95,0 12.6,-1.527 16.3,-3.039 l -2.61,-14.781 c -2.83,1.3 -6.52,2.39 -12.17,2.39 -16.3,0 -20.43,-14.117 -20.43,-30.41 v -5.66 h 25.43 V 396.82 h -25.43 v -90.601 h -18.9" /><path
         id="path84"
         style="fill:#af783c;fill-opacity:1;fill-rule:nonzero;stroke:none"
         d="m 3916.88,358.582 c 0,-23.031 13.04,-40.41 31.73,-40.41 18.24,0 31.93,17.168 31.93,40.848 0,17.812 -8.9,40.199 -31.5,40.199 -22.38,0 -32.16,-20.86 -32.16,-40.637 z m 83.22,1.09 c 0,-38.891 -27.16,-55.852 -52.37,-55.852 -28.24,0 -50.41,20.86 -50.41,54.121 0,34.981 23.25,55.618 52.15,55.618 30.2,0 50.63,-21.95 50.63,-53.887" /><path
         id="path86"
         style="fill:#af783c;fill-opacity:1;fill-rule:nonzero;stroke:none"
         d="m 4024.24,378.57 c 0,12.391 -0.21,23.039 -0.87,32.809 h 16.74 l 0.86,-20.859 h 0.66 c 4.78,14.121 16.51,23.039 29.33,23.039 1.96,0 3.48,-0.219 5.22,-0.438 v -18.039 c -1.96,0.438 -3.92,0.438 -6.52,0.438 -13.47,0 -23.03,-10 -25.64,-24.329 -0.43,-2.609 -0.66,-5.871 -0.66,-8.921 v -56.051 h -19.12 v 72.351" /><path
         id="path88"
         style="fill:#af783c;fill-opacity:1;fill-rule:nonzero;stroke:none"
         d="m 4096.19,382.922 c 0,11.078 -0.43,19.769 -0.87,28.457 h 16.73 l 0.87,-17.16 h 0.65 c 5.87,10 15.64,19.34 33.24,19.34 14.13,0 24.99,-8.688 29.55,-21.079 h 0.44 c 3.26,6.079 7.61,10.43 11.95,13.692 6.3,4.769 13.04,7.387 23.03,7.387 14.13,0 34.77,-9.129 34.77,-45.629 v -61.711 h -18.68 v 59.312 c 0,20.43 -7.61,32.391 -22.82,32.391 -11.08,0 -19.34,-8.051 -22.82,-17.172 -0.87,-2.828 -1.51,-6.09 -1.51,-9.559 v -64.972 h -18.69 v 63.011 c 0,16.731 -7.39,28.692 -21.95,28.692 -11.74,0 -20.64,-9.57 -23.68,-19.121 -1.09,-2.621 -1.52,-6.102 -1.52,-9.352 v -63.23 h -18.69 v 76.703" /><path
         id="path90"
         style="fill:#af783c;fill-opacity:1;fill-rule:nonzero;stroke:none"
         d="m 4332.86,359.891 c -20.86,0.429 -44.54,-3.262 -44.54,-23.692 0,-12.597 8.25,-18.238 17.81,-18.238 13.9,0 22.81,8.687 25.86,17.59 0.65,2.168 0.87,4.347 0.87,6.09 z m 18.46,-28.469 c 0,-9.133 0.44,-18.031 1.53,-25.203 h -17.17 l -1.52,13.25 h -0.65 c -5.87,-8.25 -17.17,-15.649 -32.16,-15.649 -21.3,0 -32.16,14.989 -32.16,30.211 0,25.418 22.6,39.328 63.23,39.11 v 2.179 c 0,8.469 -2.39,24.328 -23.9,24.11 -9.99,0 -20.2,-2.821 -27.6,-7.821 l -4.34,12.821 c 8.69,5.429 21.51,9.129 34.76,9.129 32.16,0 39.98,-21.95 39.98,-42.809 v -39.328" /><path
         id="path92"
         style="fill:#af783c;fill-opacity:1;fill-rule:nonzero;stroke:none"
         d="m 4404.38,436.59 v -25.211 h 27.37 V 396.82 h -27.37 v -56.711 c 0,-13.027 3.69,-20.418 14.34,-20.418 5.21,0 8.26,0.43 11.08,1.297 l 0.87,-14.558 c -3.69,-1.301 -9.56,-2.61 -16.94,-2.61 -8.92,0 -16.09,3.051 -20.65,8.039 -5.21,5.871 -7.39,15.223 -7.39,27.602 v 57.359 h -16.3 v 14.559 h 16.3 v 19.562 l 18.69,5.649" /><path
         id="path94"
         style="fill:#af783c;fill-opacity:1;fill-rule:nonzero;stroke:none"
         d="m 4501.3,306.219 v 90.601 h -14.55 v 14.559 h 14.55 v 5 c 0,14.781 3.48,28.25 12.17,36.723 7.18,6.957 16.74,9.777 25.65,9.777 6.95,0 12.59,-1.527 16.3,-3.039 l -2.61,-14.781 c -2.83,1.3 -6.53,2.39 -12.17,2.39 -16.3,0 -20.43,-14.117 -20.43,-30.41 v -5.66 h 25.43 V 396.82 h -25.43 v -90.601 h -18.91" /><path
         id="path96"
         style="fill:#af783c;fill-opacity:1;fill-rule:nonzero;stroke:none"
         d="m 4571.95,358.582 c 0,-23.031 13.04,-40.41 31.72,-40.41 18.26,0 31.94,17.168 31.94,40.848 0,17.812 -8.91,40.199 -31.5,40.199 -22.39,0 -32.16,-20.86 -32.16,-40.637 z m 83.22,1.09 c 0,-38.891 -27.17,-55.852 -52.36,-55.852 -28.25,0 -50.41,20.86 -50.41,54.121 0,34.981 23.24,55.618 52.15,55.618 30.19,0 50.62,-21.95 50.62,-53.887" /><path
         id="path98"
         style="fill:#af783c;fill-opacity:1;fill-rule:nonzero;stroke:none"
         d="m 4679.31,378.57 c 0,12.391 -0.21,23.039 -0.87,32.809 h 16.73 l 0.88,-20.859 h 0.64 c 4.79,14.121 16.52,23.039 29.34,23.039 1.95,0 3.48,-0.219 5.22,-0.438 v -18.039 c -1.96,0.438 -3.91,0.438 -6.53,0.438 -13.47,0 -23.03,-10 -25.63,-24.329 -0.44,-2.609 -0.66,-5.871 -0.66,-8.921 v -56.051 h -19.12 v 72.351" /><path
         id="path100"
         style="fill:#af783c;fill-opacity:1;fill-rule:nonzero;stroke:none"
         d="m 4798.41,306.219 v 90.601 h -14.55 v 14.559 h 14.55 v 5 c 0,14.781 3.48,28.25 12.17,36.723 7.18,6.957 16.74,9.777 25.65,9.777 6.95,0 12.59,-1.527 16.29,-3.039 l -2.6,-14.781 c -2.84,1.3 -6.53,2.39 -12.17,2.39 -16.3,0 -20.43,-14.117 -20.43,-30.41 v -5.66 h 25.43 V 396.82 h -25.43 v -90.601 h -18.91" /><path
         id="path102"
         style="fill:#af783c;fill-opacity:1;fill-rule:nonzero;stroke:none"
         d="m 4859.92,378.57 c 0,12.391 -0.22,23.039 -0.87,32.809 h 16.73 l 0.88,-20.859 h 0.64 c 4.78,14.121 16.51,23.039 29.34,23.039 1.95,0 3.47,-0.219 5.21,-0.438 v -18.039 c -1.95,0.438 -3.91,0.438 -6.52,0.438 -13.47,0 -23.03,-10 -25.64,-24.329 -0.44,-2.609 -0.65,-5.871 -0.65,-8.921 v -56.051 h -19.12 v 72.351" /><path
         id="path104"
         style="fill:#af783c;fill-opacity:1;fill-rule:nonzero;stroke:none"
         d="m 4995.53,369.012 c 0.22,11.949 -5,30.859 -26.51,30.859 -19.55,0 -27.81,-17.601 -29.33,-30.859 z m -56.06,-13.692 c 0.44,-25.851 16.74,-36.511 36.07,-36.511 13.69,0 22.17,2.402 29.12,5.441 l 3.48,-13.691 c -6.74,-3.028 -18.48,-6.739 -35.21,-6.739 -32.37,0 -51.7,21.52 -51.7,53.239 0,31.73 18.68,56.5 49.31,56.5 34.55,0 43.46,-29.989 43.46,-49.329 0,-3.91 -0.22,-6.73 -0.65,-8.91 h -73.88" /><path
         id="path106"
         style="fill:#af783c;fill-opacity:1;fill-rule:nonzero;stroke:none"
         d="m 5104.42,369.012 c 0.21,11.949 -5,30.859 -26.51,30.859 -19.56,0 -27.82,-17.601 -29.33,-30.859 z m -56.07,-13.692 c 0.44,-25.851 16.74,-36.511 36.08,-36.511 13.69,0 22.17,2.402 29.12,5.441 l 3.48,-13.691 c -6.74,-3.028 -18.48,-6.739 -35.21,-6.739 -32.37,0 -51.71,21.52 -51.71,53.239 0,31.73 18.68,56.5 49.32,56.5 34.55,0 43.46,-29.989 43.46,-49.329 0,-3.91 -0.22,-6.73 -0.65,-8.91 h -73.89" /><path
         id="path108"
         style="fill:#af783c;fill-opacity:1;fill-rule:nonzero;stroke:none"
         d="m 5139.43,317.52 c 0,7.82 5.43,13.691 13.04,13.691 7.6,0 12.82,-5.66 12.82,-13.691 0,-7.829 -5.22,-13.7 -13.26,-13.7 -7.39,0 -12.6,5.871 -12.6,13.7" /><path
         id="path110"
         style="fill:#2d68af;fill-opacity:1;fill-rule:nonzero;stroke:none"
         d="m 1113.75,199.672 h 33.02 v -60.84 h 0.44 c 3.48,4.789 7.82,8.477 13.04,11.09 4.99,2.609 11.08,4.129 17.16,4.129 21.08,0 37.16,-14.563 37.16,-46.719 V 45.4102 h -33.03 v 58.4418 c 0,13.91 -4.78,23.468 -17.16,23.468 -8.7,0 -14.13,-5.64 -16.52,-11.73 -0.87,-1.949 -1.09,-4.781 -1.09,-7.168 V 45.4102 h -33.02 V 199.672" /><path
         id="path112"
         style="fill:#2d68af;fill-opacity:1;fill-rule:nonzero;stroke:none"
         d="m 1298.48,180.34 v -28.68 h 23.68 v -24.34 h -23.68 V 88.8594 c 0,-12.8203 3.26,-18.6797 13.04,-18.6797 4.56,0 6.73,0.2187 9.77,0.8594 l 0.22,-24.9805 c -4.13,-1.5195 -12.17,-2.8281 -21.29,-2.8281 -10.65,0 -19.56,3.6992 -24.99,9.1289 -6.08,6.3008 -9.13,16.5117 -9.13,31.5 V 127.32 h -14.12 v 24.34 h 14.12 v 19.77 l 32.38,8.91" /><path
         id="path114"
         style="fill:#2d68af;fill-opacity:1;fill-rule:nonzero;stroke:none"
         d="m 1399.98,180.34 v -28.68 h 23.68 v -24.34 h -23.68 V 88.8594 c 0,-12.8203 3.26,-18.6797 13.03,-18.6797 4.57,0 6.74,0.2187 9.78,0.8594 l 0.22,-24.9805 c -4.13,-1.5195 -12.17,-2.8281 -21.3,-2.8281 -10.64,0 -19.55,3.6992 -24.98,9.1289 -6.09,6.3008 -9.13,16.5117 -9.13,31.5 V 127.32 h -14.12 v 24.34 h 14.12 v 19.77 l 32.38,8.91" /><path
         id="path116"
         style="fill:#2d68af;fill-opacity:1;fill-rule:nonzero;stroke:none"
         d="m 1497.56,91.0391 c 0,-2.6172 0.22,-4.7774 0.65,-6.9493 2.18,-8.9179 9.78,-15.6484 19.34,-15.6484 14.34,0 22.82,11.9492 22.82,29.9805 0,16.9571 -7.61,29.7691 -22.39,29.7691 -9.34,0 -17.59,-6.949 -19.77,-16.73 -0.43,-1.742 -0.65,-3.91 -0.65,-5.871 z m -33.02,24.9809 c 0,13.91 -0.44,25.652 -0.87,35.64 h 28.68 l 1.52,-14.781 h 0.43 c 7.82,11.09 19.99,17.172 35.42,17.172 23.25,0 44.11,-20.211 44.11,-54.1018 0,-38.6797 -24.56,-56.9375 -48.24,-56.9375 -12.82,0 -22.81,5.2188 -27.6,12.168 h -0.43 V 2.39063 h -33.02 V 116.02" /><path
         id="path118"
         style="fill:#2d68af;fill-opacity:1;fill-rule:nonzero;stroke:none"
         d="m 1614.07,62.7891 c 0,11.7304 8.03,19.9922 19.33,19.9922 11.52,0 19.12,-8.043 19.34,-19.9922 0,-11.2969 -7.61,-19.7774 -19.55,-19.7774 -11.3,0 -19.12,8.4805 -19.12,19.7774 z m 0,70.1909 c 0,11.719 8.03,19.989 19.33,19.989 11.52,0 19.12,-8.039 19.34,-19.989 0,-11.3 -7.61,-19.781 -19.55,-19.781 -11.3,0 -19.12,8.481 -19.12,19.781" /><path
         id="path120"
         style="fill:#2d68af;fill-opacity:1;fill-rule:nonzero;stroke:none"
         d="m 1684.7,36.9297 46.51,157.5313 h 21.94 l -46.5,-157.5313 h -21.95" /><path
         id="path122"
         style="fill:#2d68af;fill-opacity:1;fill-rule:nonzero;stroke:none"
         d="m 1778.37,36.9297 46.51,157.5313 h 21.94 l -46.5,-157.5313 h -21.95" /><path
         id="path124"
         style="fill:#2d68af;fill-opacity:1;fill-rule:nonzero;stroke:none"
         d="m 1904.64,151.66 8.69,-43.68 c 1.96,-10.8589 4.14,-22.5894 5.87,-34.7612 h 0.66 c 1.95,12.1718 5.21,24.121 7.6,34.5512 l 11.29,43.89 h 26.08 l 10.65,-42.379 c 3.04,-12.1599 5.86,-23.8904 7.82,-36.0622 h 0.44 c 1.52,11.9531 3.69,24.121 6.29,36.2932 l 8.91,42.148 h 32.38 L 1998.73,45.4102 h -30.85 l -10,37.1484 c -2.83,10.4297 -4.78,20.0004 -6.96,33.2504 h -0.43 c -1.96,-13.25 -4.13,-23.2504 -6.74,-33.0277 l -10.64,-37.3711 h -31.07 L 1870.96,151.66 h 33.68" /><path
         id="path126"
         style="fill:#2d68af;fill-opacity:1;fill-rule:nonzero;stroke:none"
         d="m 2095.46,151.66 8.7,-43.68 c 1.95,-10.8589 4.13,-22.5894 5.86,-34.7612 h 0.66 c 1.95,12.1718 5.21,24.121 7.6,34.5512 l 11.3,43.89 h 26.07 l 10.65,-42.379 c 3.04,-12.1599 5.86,-23.8904 7.82,-36.0622 h 0.44 c 1.52,11.9531 3.69,24.121 6.29,36.2932 l 8.91,42.148 h 32.38 L 2189.55,45.4102 h -30.85 l -10,37.1484 c -2.83,10.4297 -4.78,20.0004 -6.96,33.2504 h -0.43 c -1.96,-13.25 -4.13,-23.2504 -6.73,-33.0277 l -10.65,-37.3711 h -31.07 L 2061.78,151.66 h 33.68" /><path
         id="path128"
         style="fill:#2d68af;fill-opacity:1;fill-rule:nonzero;stroke:none"
         d="m 2286.28,151.66 8.7,-43.68 c 1.96,-10.8589 4.13,-22.5894 5.86,-34.7612 h 0.66 c 1.95,12.1718 5.21,24.121 7.61,34.5512 l 11.3,43.89 h 26.07 l 10.64,-42.379 c 3.05,-12.1599 5.87,-23.8904 7.83,-36.0622 h 0.44 c 1.51,11.9531 3.69,24.121 6.29,36.2932 l 8.91,42.148 h 32.37 L 2380.38,45.4102 h -30.86 l -9.99,37.1484 c -2.84,10.4297 -4.79,20.0004 -6.96,33.2504 h -0.44 c -1.95,-13.25 -4.13,-23.2504 -6.72,-33.0277 l -10.66,-37.3711 h -31.06 L 2252.61,151.66 h 33.67" /><path
         id="path130"
         style="fill:#2d68af;fill-opacity:1;fill-rule:nonzero;stroke:none"
         d="m 2437.35,63 c 0,11.9609 8.04,20.2109 19.56,20.2109 11.29,0 19.12,-8.039 19.34,-20.2109 0,-11.5078 -7.83,-19.9883 -19.78,-19.9883 -11.08,0 -19.12,8.4805 -19.12,19.9883" /><path
         id="path132"
         style="fill:#2d68af;fill-opacity:1;fill-rule:nonzero;stroke:none"
         d="m 2517.98,199.672 h 33.03 V 45.4102 h -33.03 V 199.672" /><path
         id="path134"
         style="fill:#2d68af;fill-opacity:1;fill-rule:nonzero;stroke:none"
         d="m 2627.51,98.6406 c 0,-18.25 7.61,-31.9297 21.73,-31.9297 13.04,0 21.08,12.8086 21.08,32.1407 0,15.6484 -6.09,31.7304 -21.08,31.7304 -15.64,0 -21.73,-16.301 -21.73,-31.9414 z m 76.92,1.0899 c 0,-38.8907 -27.59,-56.7188 -56.06,-56.7188 -31.07,0 -54.97,20.4297 -54.97,54.7578 0,34.5505 22.6,56.4925 56.93,56.4925 32.38,0 54.1,-22.383 54.1,-54.5315" /><path
         id="path136"
         style="fill:#2d68af;fill-opacity:1;fill-rule:nonzero;stroke:none"
         d="m 2814.85,108.422 c 0,1.957 -0.22,4.129 -0.66,6.078 -2.38,8.691 -8.69,14.559 -17.81,14.559 -12.17,0 -21.73,-10.86 -21.73,-30.2074 0,-15.8633 7.83,-28.2422 21.52,-28.2422 8.69,0 15.42,5.6523 17.59,13.25 0.87,2.6094 1.09,6.0898 1.09,8.9219 z m 33.03,-47.5822 c 0,-20.4296 -4.13,-37.1601 -16.3,-47.8085 C 2820.06,3.03125 2804.2,0 2788.56,0 c -14.13,0 -28.68,2.82031 -38.24,8.03125 l 6.51,25.20705 c 6.74,-3.918 18.25,-8.0391 30.86,-8.0391 15.64,0 27.6,8.25 27.6,28.0313 v 6.7383 h -0.44 c -6.3,-8.6875 -16.52,-13.6875 -28.68,-13.6875 -26.29,0 -44.98,21.2773 -44.98,51.707 0,34.3317 21.95,56.0627 48.24,56.0627 14.55,0 23.68,-6.301 29.11,-15.219 h 0.44 l 1.08,12.828 h 28.69 c -0.43,-6.961 -0.87,-15.859 -0.87,-31.719 V 60.8398" /><path
         id="path138"
         style="fill:#2d68af;fill-opacity:1;fill-rule:nonzero;stroke:none"
         d="m 2924.17,98.6406 c 0,-18.25 7.61,-31.9297 21.74,-31.9297 13.03,0 21.08,12.8086 21.08,32.1407 0,15.6484 -6.09,31.7304 -21.08,31.7304 -15.64,0 -21.74,-16.301 -21.74,-31.9414 z m 76.93,1.0899 c 0,-38.8907 -27.6,-56.7188 -56.07,-56.7188 -31.06,0 -54.97,20.4297 -54.97,54.7578 0,34.5505 22.6,56.4925 56.94,56.4925 32.37,0 54.1,-22.383 54.1,-54.5315" /><path
         id="path140"
         style="fill:#2d68af;fill-opacity:1;fill-rule:nonzero;stroke:none"
         d="m 3108.26,110.59 c 0,8.039 -3.48,21.519 -18.68,21.519 -13.91,0 -19.57,-12.828 -20.43,-21.519 z m -38.89,-22.6017 c 0.86,-13.6875 14.55,-20.1992 29.98,-20.1992 11.3,0 20.43,1.5117 29.34,4.5625 l 4.34,-22.3828 c -10.87,-4.5586 -24.12,-6.7383 -38.46,-6.7383 -36.07,0 -56.71,20.8593 -56.71,54.1093 0,26.9412 16.72,56.7112 53.67,56.7112 34.32,0 47.37,-26.731 47.37,-53.02 0,-5.6521 -0.65,-10.6404 -1.09,-13.0427 h -68.44" /><path
         id="path142"
         style="fill:#2d68af;fill-opacity:1;fill-rule:nonzero;stroke:none"
         d="m 3213.46,91.0391 c 0,-2.6172 0.23,-4.7774 0.66,-6.9493 2.16,-8.9179 9.77,-15.6484 19.33,-15.6484 14.35,0 22.81,11.9492 22.81,29.9805 0,16.9571 -7.59,29.7691 -22.37,29.7691 -9.34,0 -17.61,-6.949 -19.77,-16.73 -0.43,-1.742 -0.66,-3.91 -0.66,-5.871 z m -33.03,24.9809 c 0,13.91 -0.43,25.652 -0.86,35.64 h 28.68 l 1.52,-14.781 h 0.44 c 7.81,11.09 19.98,17.172 35.41,17.172 23.25,0 44.11,-20.211 44.11,-54.1018 0,-38.6797 -24.55,-56.9375 -48.23,-56.9375 -12.82,0 -22.82,5.2188 -27.6,12.168 h -0.44 V 2.39063 h -33.03 V 116.02" /><path
         id="path144"
         style="fill:#2d68af;fill-opacity:1;fill-rule:nonzero;stroke:none"
         d="m 3331.92,74.0898 c 6.08,-3.6914 18.68,-7.8203 28.47,-7.8203 9.99,0 14.12,3.2618 14.12,8.6914 0,5.6485 -3.26,8.25 -15.43,12.3789 -22.16,7.3907 -30.64,19.3512 -30.42,31.9412 0,19.989 16.95,34.981 43.24,34.981 12.38,0 23.25,-3.032 29.77,-6.293 l -5.65,-22.821 c -4.78,2.614 -14.13,6.094 -23.04,6.094 -8.03,0 -12.59,-3.262 -12.59,-8.48 0,-5.211 4.12,-7.821 17.16,-12.383 20.21,-6.957 28.46,-17.3907 28.68,-32.8204 0,-19.9883 -15.42,-34.5469 -45.84,-34.5469 -13.91,0 -26.29,3.2696 -34.34,7.6094 l 5.87,23.4687" /><path
         id="path146"
         style="fill:#2d68af;fill-opacity:1;fill-rule:nonzero;stroke:none"
         d="m 3443.63,63 c 0,11.9609 8.04,20.2109 19.56,20.2109 11.3,0 19.12,-8.039 19.33,-20.2109 0,-11.5078 -7.82,-19.9883 -19.77,-19.9883 -11.08,0 -19.12,8.4805 -19.12,19.9883" /><path
         id="path148"
         style="fill:#2d68af;fill-opacity:1;fill-rule:nonzero;stroke:none"
         d="m 3604.01,48.2305 c -5.87,-2.8203 -16.94,-5 -29.55,-5 -34.33,0 -56.28,21.0781 -56.28,54.3281 0,31.0704 21.3,56.4924 60.84,56.4924 8.69,0 18.25,-1.52 25.2,-4.129 l -5.21,-24.551 c -3.91,1.738 -9.78,3.258 -18.47,3.258 -17.38,0 -28.68,-12.387 -28.46,-29.7774 0,-19.3321 13.03,-29.7618 29.12,-29.7618 7.82,0 13.9,1.3086 18.89,3.4688 l 3.92,-24.3281" /><path
         id="path150"
         style="fill:#2d68af;fill-opacity:1;fill-rule:nonzero;stroke:none"
         d="m 3669.66,98.6406 c 0,-18.25 7.6,-31.9297 21.72,-31.9297 13.05,0 21.09,12.8086 21.09,32.1407 0,15.6484 -6.09,31.7304 -21.09,31.7304 -15.64,0 -21.72,-16.301 -21.72,-31.9414 z m 76.92,1.0899 c 0,-38.8907 -27.6,-56.7188 -56.06,-56.7188 -31.07,0 -54.98,20.4297 -54.98,54.7578 0,34.5505 22.6,56.4925 56.94,56.4925 32.37,0 54.1,-22.383 54.1,-54.5315" /><path
         id="path152"
         style="fill:#2d68af;fill-opacity:1;fill-rule:nonzero;stroke:none"
         d="m 3788.77,117.762 c 0,13.258 -0.43,24.34 -0.86,33.898 h 28.02 l 1.31,-14.34 h 0.66 c 4.56,6.95 14.12,16.942 32.15,16.942 13.91,0 24.55,-7.16 29.12,-18.25 h 0.43 c 4.13,5.66 8.7,10 13.91,13.039 5.86,3.258 12.38,5.211 20.21,5.211 20.42,0 35.85,-14.332 35.85,-46.282 V 45.4102 h -32.16 v 57.8008 c 0,15.418 -4.99,24.34 -15.65,24.34 -7.82,0 -13.03,-5.219 -15.42,-11.531 -0.65,-2.379 -1.09,-5.641 -1.09,-8.469 V 45.4102 h -32.16 V 105.16 c 0,13.25 -4.77,22.391 -15.42,22.391 -8.48,0 -13.48,-6.531 -15.43,-11.742 -1.09,-2.61 -1.31,-5.649 -1.31,-8.477 V 45.4102 h -32.16 v 72.3518" /><path
         id="path154"
         style="fill:#2d68af;fill-opacity:1;fill-rule:nonzero;stroke:none"
         d="m 3987.64,36.9297 46.5,157.5313 h 21.95 L 4009.58,36.9297 h -21.94" /><path
         id="path156"
         style="fill:#1f345e;fill-opacity:1;fill-rule:evenodd;stroke:none"
         d="m 2586.11,4046.68 c 76.03,0 151.55,9.21 224.52,27.65 l 9.21,2.3 6.91,-6.4 c 52.23,-48.39 88.07,-110.85 103.94,-180.74 l 2.05,-9.22 -6.66,-6.91 c -105.47,-108.8 -182.78,-243.21 -223.49,-388.1 l -2.56,-9.22 -9.21,-2.81 c -33.29,-10.25 -68.62,-15.62 -104.71,-15.62 -35.33,0 -70.66,5.37 -104.96,16.13 l -8.96,2.81 -2.57,8.97 c -40.95,144.63 -118.27,278.78 -224,387.84 l -6.66,6.91 2.05,9.22 c 15.87,69.63 52.23,132.35 104.96,181.25 l 6.92,6.4 9.21,-2.3 c 74.76,-18.69 150.02,-28.16 224.01,-28.16 v 0" /><path
         id="path158"
         style="fill:#1f345e;fill-opacity:1;fill-rule:evenodd;stroke:none"
         d="m 2280.95,3811.15 c 0,81.67 31.75,158.21 89.34,215.81 57.61,57.61 134.15,89.35 215.56,89.35 81.66,0 158.22,-31.74 215.82,-89.35 57.59,-57.6 89.34,-134.14 89.34,-215.81 0,-167.94 -136.96,-304.89 -305.16,-304.89 -81.41,0 -157.95,31.74 -215.56,89.33 -57.59,57.61 -89.34,134.15 -89.34,215.56 v 0" /><path
         id="path160"
         style="fill:#dcddd9;fill-opacity:1;fill-rule:nonzero;stroke:none"
         d="m 2286.34,3983.85 c 17.48,30.23 39.41,57.59 64.84,81.15 l 3.86,3.57 5.05,-1.27 c 36.38,-9.16 73.33,-16.33 110.84,-21.19 37.47,-4.85 75.85,-7.43 115.18,-7.43 38.58,0 76.66,2.41 114.03,7.05 38.31,4.75 75.88,11.84 112.5,21.06 l 5.06,1.28 3.85,-3.58 c 25.24,-23.52 46.85,-50.7 64.07,-80.69 16.91,-29.49 29.6,-61.77 37.32,-96.04 l 1.15,-5.08 -3.61,-3.72 c -52.81,-54.59 -98.98,-115.76 -137.21,-182.17 -37.61,-65.34 -67.45,-135.61 -88.28,-209.54 l -1.43,-5.04 -5.03,-1.56 c -16.39,-5.06 -33.19,-8.9 -50.37,-11.46 -16.98,-2.54 -34.36,-3.83 -52.05,-3.83 -17.48,0 -34.66,1.37 -51.45,3.96 -17.48,2.68 -34.6,6.7 -51.23,11.84 l -5.03,1.56 -1.42,5.06 c -20.79,73.75 -50.61,143.76 -88.18,208.85 -38.34,66.43 -84.65,127.62 -137.58,182.33 l -3.59,3.72 1.13,5.08 c 7.69,34.25 20.51,66.55 37.58,96.09 z m 74.18,63.45 c -22.43,-21.45 -41.86,-46.06 -57.49,-73.11 -15.28,-26.44 -26.95,-55.21 -34.29,-85.63 52.61,-54.99 98.66,-116.13 136.83,-182.27 37.41,-64.83 67.33,-134.58 88.53,-208.22 14.03,-4.1 28.53,-7.36 43.43,-9.64 15.82,-2.45 32.05,-3.75 48.58,-3.75 16.84,0 33.28,1.23 49.26,3.61 14.54,2.17 28.72,5.27 42.5,9.28 21.24,73.77 51.18,143.81 88.64,208.88 38.05,66.1 83.95,127.23 136.45,182.1 -7.35,30.41 -18.91,59.18 -34.11,85.66 -15.39,26.84 -34.49,51.25 -56.66,72.58 -35.83,-8.81 -72.46,-15.61 -109.7,-20.24 -38.19,-4.74 -77.04,-7.2 -116.38,-7.2 -39.78,0 -78.98,2.66 -117.6,7.66 -36.8,4.77 -72.78,11.62 -107.99,20.29 v 0" /><path
         id="path162"
         style="fill:#dcddd9;fill-opacity:1;fill-rule:nonzero;stroke:none"
         d="m 2389.39,4007.82 c -50.27,-50.31 -81.37,-119.84 -81.37,-196.67 0,-76.69 31.12,-146.15 81.4,-196.44 50.28,-50.27 119.74,-81.38 196.43,-81.38 76.84,0 146.36,31.09 196.67,81.35 50.31,50.27 81.42,119.73 81.42,196.47 0,76.83 -31.11,146.35 -81.43,196.66 -50.32,50.32 -119.84,81.42 -196.66,81.42 -76.73,0 -146.2,-31.1 -196.46,-81.41 z m -100.7,-196.67 c 0,82.12 33.27,156.45 87.03,210.26 53.81,53.86 128.11,87.16 210.13,87.16 82.16,0 156.51,-33.28 210.33,-87.09 53.82,-53.82 87.09,-128.17 87.09,-210.33 0,-82.02 -33.3,-156.32 -87.16,-210.13 -53.81,-53.77 -128.14,-87.03 -210.26,-87.03 -82.03,0 -156.32,33.28 -210.1,87.06 -53.78,53.79 -87.06,128.07 -87.06,210.1 v 0" /><path
         id="path164"
         style="fill:#dcddd9;fill-opacity:1;fill-rule:nonzero;stroke:none"
         d="m 2484.85,3825.87 c 9.58,1.86 19.14,1.23 27.63,-1.87 8.3,-3.02 15.54,-8.38 20.78,-16.02 l 4.68,-10.98 -10.95,4.02 c -16.28,8.78 -32.66,3.92 -48.76,-0.87 -20.48,-6.08 -40.54,-12.04 -61.49,5.66 -4.26,3.01 -7.77,7.57 -10.55,12.21 -2.7,4.52 -4.71,9.08 -6.04,12.27 l -6.75,16.2 14.07,-10.48 c 0.08,-0.06 29.17,-22.42 77.1,-10.19 l 0.28,0.05 v 0" /><path
         id="path166"
         style="fill:#cd1742;fill-opacity:1;fill-rule:evenodd;stroke:none"
         d="m 2579.45,3905.88 c -20.48,0 -39.42,-3.85 -46.85,-14.34 0,0 -8.19,-7.68 -9.72,-14.34 0,0 -52.48,35.59 -68.87,-41.73 0,0 31.74,22.78 49.92,7.94 0,0 9.21,-13.06 26.11,-17.41 23.05,-6.14 20.48,-10.75 21.51,-15.62 0,0 -3.07,-7.17 -23.04,-19.71 -19.72,-12.8 -30.98,-6.65 -49.15,-0.77 0,0 -1.29,-26.88 34.81,-26.37 0,0 5.89,-0.51 13.06,0.26 0,0 -43.27,-18.18 -26.88,-62.72 0,0 14.85,17.92 31.23,22.02 0,0 -46.85,-53.25 15.1,-105.22 0,0 0,47.61 17.67,62.2 0,0 9.72,-37.88 6.66,-58.62 0,0 -0.78,-18.18 -6.41,-27.65 0,0 73.48,1.54 52.48,89.86 0,0 29.45,-9.99 23.31,-50.18 0,0 66.04,33.03 22.52,100.87 0,0 24.83,0 32.51,-29.7 0,0 35.33,54.53 -23.03,106.5 0,0 22.01,5.37 34.04,-12.8 0,0 -1.53,41.48 -40.7,61.7 -8.97,4.86 5.11,19.2 1.53,27.13 l -87.81,18.7 v 0" /><path
         id="path168"
         style="fill:#cd1742;fill-opacity:1;fill-rule:evenodd;stroke:none"
         d="m 2625.02,3874.13 c 0,0 23.81,30.21 59.39,26.11 0,0 -9.98,-44.54 -49.15,-52.74 l -10.24,26.63 v 0" /><path
         id="path170"
         style="fill:#dcddd9;fill-opacity:1;fill-rule:evenodd;stroke:none"
         d="m 2636.54,3869.78 c 0,0 13.57,13.31 29.96,16.13 0,0 -8.19,-19.2 -26.89,-23.05 l -3.07,6.92 v 0" /><path
         id="path172"
         style="fill:#dcddd9;fill-opacity:1;fill-rule:evenodd;stroke:none"
         d="m 2566.4,3826.77 c -4.35,3.07 -9.99,4.35 -14.6,2.05 14.08,-0.52 16.39,-20.48 31.75,-16.39 2.81,0.77 5.37,2.05 7.68,3.59 -9.98,-4.1 -18.18,5.11 -24.83,10.75 v 0" /><path
         id="path174"
         style="fill:#dcddd9;fill-opacity:1;fill-rule:evenodd;stroke:none"
         d="m 2646.5,3769.63 c -1.76,8.25 -4.57,14.49 -8.53,19.39 -5.07,6.3 -12.05,10.37 -21.14,13.68 2.01,-8.82 4.44,-17.62 4.5,-26.73 0.06,-8.5 -1.78,-15.82 -5.52,-21.91 -2.74,-4.37 -6.19,-7.54 -9.51,-9.83 3.18,8.42 3.39,15.6 2.37,21.31 -1.9,10.65 -7.98,16.24 -14.88,23.6 -0.3,-6.57 -0.19,-13.29 -1.84,-19.68 -2.11,-8.14 -6.16,-13.08 -10.3,-16.07 2.98,9.18 0.84,17.82 -1.43,22.18 l -8.71,-4.61 c 0.15,-0.42 4.03,-8.27 -0.35,-17.24 -2.92,-5.99 -8.84,-10.64 -13.47,-15.27 17.61,1.05 33.58,2.91 41.79,22.59 0.81,-13.19 -7.26,-23.7 -14.4,-33.86 15.75,3.15 28.97,6.34 38.66,21.5 6.05,9.37 8.24,20.77 6.9,34.29 9.09,-12.2 7.95,-28.08 7.95,-42.47 11.95,14.48 20.85,28.13 20.7,48.46 -0.1,13.52 -4.96,29.24 -20.45,44.72 l -3.32,-10.24 c 17.44,-22.17 15.39,-41.73 10.98,-53.81 v 0" /><path
         id="path176"
         style="fill:#cd1742;fill-opacity:1;fill-rule:nonzero;stroke:none"
         d="m 2507.12,3815.63 c -6.26,1.86 -13.21,2.14 -20.25,0.81 -31.87,-8.12 -56.45,-1.99 -70.83,4.05 1.88,-2.78 4.03,-5.28 6.4,-6.91 l 0.24,-0.16 0.14,-0.13 c 17.04,-14.47 34.68,-9.24 52.69,-3.88 10.35,3.07 20.82,6.18 31.61,6.22 v 0" /><path
         id="path178"
         style="fill:#e1ac24;fill-opacity:1;fill-rule:evenodd;stroke:none"
         d="m 2596.09,3932.5 c 6.15,-10.24 16.13,-23.81 28.68,-23.81 12.79,0 20.48,5.63 26.62,15.87 -3.58,-0.51 -4.61,-0.51 -8.19,0.51 -7.94,2.82 -11.78,10.76 -10.25,21 2.57,8.96 11.53,14.08 20.23,11.52 3.07,-1.03 5.63,-2.56 7.42,-4.61 -2.04,3.84 -2.81,8.7 -1.53,13.06 2.57,8.96 13.05,16.12 22.27,14.59 l -35.84,-88.33 h -118.27 l -36.1,84.23 c 8.96,1.54 19.46,-5.63 22.01,-14.59 1.29,-4.35 0.52,-7.68 -1.53,-11.26 1.79,2.04 4.61,5.88 7.42,6.91 8.71,2.56 18.69,-5.12 21.25,-13.83 1.54,-10.24 -1.79,-16.63 -9.73,-19.45 -3.58,-0.77 -6.65,-0.26 -10.23,0.25 6.14,-10.24 15.36,-15.87 28.16,-15.87 12.54,0 21.75,13.57 27.9,23.81 -2.82,-2.05 -6.15,-3.07 -9.73,-3.07 -9.21,0 -16.38,7.42 -16.38,16.64 0,9.22 7.17,16.89 16.38,16.89 2.82,0 5.89,-0.76 8.19,-2.3 -3.07,3.07 -5.12,7.42 -5.12,12.03 0,9.22 7.43,16.64 16.39,16.64 9.22,0 16.64,-7.42 16.64,-16.64 0,-4.61 -2.31,-9.22 -5.38,-12.29 2.57,1.54 5.38,2.56 8.45,2.56 9.21,0 16.38,-7.67 16.38,-16.89 0,-9.22 -7.17,-16.64 -16.38,-16.64 -3.58,0 -9.73,3.07 -9.73,3.07 v 0" /><path
         id="path180"
         style="fill:#dcddd9;fill-opacity:1;fill-rule:nonzero;stroke:none"
         d="m 2540,3892.27 c -1.38,-1.06 -2.54,-2.23 -3.45,-3.53 l -0.27,-0.37 -0.34,-0.33 c -0.01,-0.01 -4.47,-4.2 -6.94,-8.52 2.48,-1.31 7.61,-2.83 16.55,-0.59 l 0.36,0.07 c 11.78,1.99 19.14,-0.65 22.66,-2.55 5,-1.54 9.22,-6.31 9.24,-6.34 l -6.96,-6.3 c -0.01,0.01 -4.55,5.12 -6.2,0.53 h -0.01 c -7.24,-20.7 -25.68,-16.83 -25.73,-16.82 -16.44,3.09 -19.43,18.84 -19.91,26.41 -6.94,4.1 -41.92,21.77 -57.41,-28.39 11.89,6.05 31.55,12.9 45.38,1.6 l 0.54,-0.44 0.33,-0.44 c 0.02,-0.03 8.24,-11.68 23.39,-15.58 l 0.04,-0.02 c 23.39,-6.23 24.09,-12.07 24.8,-17.93 0.06,-0.52 0.13,-1.05 0.2,-1.37 l 0.31,-1.48 -0.6,-1.38 c -0.01,-0.03 -3.67,-8.56 -24.91,-21.91 v 0 c -18.68,-12.11 -30.28,-8.98 -45.55,-3.84 2.43,-6.34 9.3,-14.66 28.59,-14.38 h 0.34 c 0.02,0 5.7,-0.49 12.26,0.22 l 31.73,3.39 -29.3,-12.62 c -0.11,-0.05 -34.02,-14.31 -26.53,-48.9 6.21,5.99 16.58,14.5 27.8,17.31 l 14.66,3.66 -9.83,-11.48 c -0.12,-0.13 -39.68,-45.1 7.07,-91.58 1.15,15.51 5.13,43.99 18.96,55.43 l 5.84,4.82 1.9,-7.33 c 0.03,-0.12 9.86,-38.43 6.82,-60.16 -0.06,-1.36 -0.68,-12.07 -3.58,-21.53 17.17,3.32 55.57,18.03 40.14,82.95 l -2.06,8.65 8.38,-2.99 c 0.08,-0.03 28.11,-9.56 27.34,-45.47 15.1,10.97 44.05,40.29 12.8,89.01 l -4.85,7.56 8.96,-0.13 c 0.07,0 21.85,-0.01 33.06,-22.32 6.66,17.09 13.96,54.36 -26.85,90.69 l -6.92,6.15 9.01,2.15 c 0.06,0.01 14.7,3.58 27.83,-4.01 -3.72,13 -12.91,32.22 -35.57,43.92 l -0.1,0.06 c -0.09,0.06 -0.19,0.11 -0.29,0.17 -7.08,-6 -15.91,-10.91 -26.88,-13.2 l -1.97,9.43 c 21.81,4.57 40.13,30.64 43.8,43.57 -29.7,0.18 -49.25,-24.61 -49.31,-24.68 l -7.51,6.04 c 0.08,0.09 25.45,32.28 63.71,27.89 l 5.39,-0.63 -1.24,-5.26 c -0.02,-0.09 -4.43,-19.74 -18.81,-36.1 39.37,-21.94 40.94,-64.35 40.95,-64.47 l 0.89,-17.61 -9.74,14.72 c -5.2,7.85 -12.62,10.48 -18.66,11.19 49.79,-52.24 15.85,-104.64 15.75,-104.79 l -5.95,-9.44 -2.79,10.8 c -3.67,14.16 -11.56,20.62 -18.02,23.58 34.19,-65.67 -29.98,-97.76 -30.17,-97.85 l -8.39,-4.31 1.43,9.33 c 3.35,21.93 -4.72,33.76 -11.62,39.68 13.92,-83.36 -59.02,-84.9 -59.23,-84.91 l -8.82,-0.3 4.51,7.59 c 5.01,8.42 5.72,25.31 5.72,25.36 l 0.01,0.19 0.05,0.34 c 2.01,13.56 -1.79,35.09 -4.39,47.35 -10.31,-17.63 -10.32,-51.54 -10.32,-51.65 l -0.08,-10.27 -7.85,6.59 c -45.04,37.78 -35.78,76.31 -25.44,96.88 -8.21,-5.96 -14.1,-13.07 -14.12,-13.1 l -5.35,-6.34 -2.86,7.8 c -11.03,29.98 2.53,49.05 14.68,59.33 -37.4,1.33 -35.98,31.27 -35.98,31.35 l 0.26,6.36 6.05,-1.96 c 2.36,-0.77 4.04,-1.33 5.66,-1.88 13.8,-4.69 23.75,-8.06 39.39,2.1 l 0.06,0.04 c 14.3,8.98 19.11,14.46 20.58,16.55 -0.01,0.1 -0.03,0.2 -0.04,0.3 -0.31,2.6 -0.63,5.19 -17.62,9.72 h -0.01 c -16.56,4.26 -26.43,16.11 -28.44,18.72 -15.41,11.7 -43.54,-8.46 -43.63,-8.51 l -10.04,-7.07 2.55,12.01 c 9.36,44.16 29.78,54.37 47.14,54.06 8.48,-0.15 16.67,-2.8 24.24,-6.45 1.68,2.92 3.71,5.62 5.9,8.19 H 2540 Z m 17.03,-21.98 c -1.49,0.14 -3.23,0.16 -5.24,0.01 -0.24,-4.87 -3.99,-8.46 -8.95,-8.46 -4.39,0 -8.02,2.83 -8.97,6.86 -1.81,0.2 -3.44,0.54 -4.88,0.96 1.13,-5.27 4.09,-11.53 11.64,-12.95 0.03,-0.01 10.67,-2.26 15.21,10.76 l 0.01,0.06 c 0.38,1.02 0.77,1.93 1.18,2.76 v 0" /><path
         id="path182"
         style="fill:#1f345e;fill-opacity:1;fill-rule:evenodd;stroke:none"
         d="m 2450.94,3210.05 35.84,91.91 40.96,-91.91 h -76.8 z m 787.98,0 35.59,89.1 40.45,-88.6 -76.04,-0.5 z m -348.68,15.88 -110.08,144.9 h -132.1 v -199.94 l -82.94,199.68 h -152.84 l -64,-160.02 h -95.49 c -7.94,-33.53 -26.11,-48.37 -59.14,-48.37 -37.89,0 -63.49,28.16 -63.49,70.13 0,54.53 21.51,82.7 62.72,82.7 33.8,0 52.99,-15.1 58.88,-46.58 h 108.29 l 0.26,4.08 c 0,65.04 -65.79,107.79 -165.89,107.79 -107.01,0 -157.7,-41.74 -166.41,-137.48 -15.35,16.64 -40.44,29.69 -59.39,31.23 l -40.45,3.59 -59.65,1.02 c -25.6,0.51 -40.19,9.47 -40.19,24.57 0,17.15 14.85,26.64 41.99,26.64 31.23,0 43.77,-11.52 43.77,-39.94 h 113.92 v 3.57 c 0,55.57 -53.76,86.27 -151.3,86.27 -108.28,0 -161.28,-29.68 -161.28,-89.84 0,-51.47 38.92,-79.12 113.41,-81.15 l 44.29,-1.04 c 32.51,-1.01 47.11,-8.96 47.11,-26.11 0,-14.59 -20.48,-28.42 -41.73,-28.42 -37.12,0 -56.58,12.81 -56.58,36.88 h -118.02 v -2.56 c 0,-58.38 58.88,-90.38 165.89,-90.38 103.17,0 153.86,22.53 170.25,76.04 33.02,-56.33 76.03,-76.82 159.74,-76.82 53.26,0 80.9,7.44 115.46,32.52 l -11.01,-27.38 h 100.61 l 18.44,41.97 h 132.1 l 17.66,-41.46 h 172.55 v 159.49 l 122.63,-160 h 122.12 v 269.06 h -100.11 v -144.64 0 z m 462.1,144.64 h -154.89 l -81.16,-200.46 0.26,200.72 h -104.19 v -269.32 h 182.27 l 16.39,40.96 h 130.05 l 18.69,-40.96 h 101.63 l -109.05,269.06 v 0 0" /></g></g></svg>