<svg width="868" height="620" viewBox="0 0 868 620" fill="none" xmlns="http://www.w3.org/2000/svg"><path d="M0 0h868v620H0z" fill="#fff"/><path fill-rule="evenodd" clip-rule="evenodd" d="M263.983 21H604.617C614.275 21 622.169 29.2651 622.169 39.2947V580.705C622.169 590.735 614.275 599 604.617 599H263.983C254.325 599 246.432 590.735 246.432 580.705V39.2947C246.432 29.1722 254.325 21 263.983 21z" fill="#000"/><path fill-rule="evenodd" clip-rule="evenodd" d="M571.464 558.882H549.919V550.338H554.191V521.271H549.919V513.656H571.464V521.178H567.285V550.245H571.464V558.882zM571.743 503.255C571.743 504.462 570.721 505.576 568.678 506.412 566.542 507.248 563.849 507.712 560.692 507.712 557.627 507.712 555.027 507.248 552.891 506.412 550.755 505.576 549.733 504.555 549.733 503.255 549.733 502.048 550.755 501.026 552.891 500.097 555.027 499.262 557.534 498.797 560.692 498.797 563.756 498.797 566.449 499.262 568.585 500.097 570.628 501.026 571.743 502.048 571.743 503.255zM542.583 538.358H529.396V523.593C529.396 523.035 529.303 522.571 529.21 522.385 529.117 522.292 528.931 522.2 528.653 522.2 527.817 522.2 526.517 523.221 524.566 525.171 523.266 526.564 522.152 527.957 521.223 529.443V550.338H525.402V558.882H504.229V550.338H508.594V521.271H504.229V513.656H521.223V520.064C522.523 518.671 524.195 517.37 526.424 516.163 529.303 514.492 531.903 513.749 534.317 513.749 536.918 513.749 538.868 514.399 540.354 515.792 541.84 517.185 542.583 518.949 542.583 521.178V538.358zM483.612 552.66V536.872h-6.5C475.44 536.872 474.604 537.615 474.604 539.101V550.059C474.604 551.824 475.44 552.753 477.298 552.753H483.612V552.66zM500.143 558.882H471.54C468.382 558.882 465.875 557.953 464.111 556.003 462.439 554.238 461.603 552.102 461.603 549.409V539.658C461.603 534.458 464.853 531.858 471.261 531.858H483.705V522.107C483.705 520.621 483.055 519.878 481.755 519.878H476.833C476.183 519.878 475.626 520.064 475.255 520.528 474.883 520.992 474.697 521.457 474.697 521.921V528.236H461.603V522.571C461.603 516.628 465.318 513.656 472.747 513.656H486.956C493.549 513.656 496.799 516.72 496.799 522.85V550.338H500.143V558.882v0zM457.238 538.358H444.051V523.593C444.051 523.035 443.959 522.571 443.866 522.385 443.773 522.292 443.587 522.2 443.308 522.2 442.473 522.2 441.173 523.221 439.222 525.171 437.922 526.564 436.808 527.957 435.879 529.443V550.338H440.058V558.882H418.885V550.338H423.249V521.271H418.885V513.656H435.879V520.064C437.179 518.671 438.851 517.37 441.08 516.163 443.959 514.492 446.559 513.749 448.973 513.749 451.574 513.749 453.524 514.399 455.01 515.792 456.496 517.185 457.238 518.949 457.238 521.178V538.358zM414.706 538.358H401.519V523.593C401.519 523.035 401.426 522.571 401.333 522.385 401.24 522.292 401.054 522.2 400.776 522.2 399.94 522.2 398.64 523.221 396.69 525.171 395.389 526.564 394.275 527.957 393.346 529.443V550.338H397.525V558.882H376.352V550.338H380.717V521.271H376.352V513.656H393.346V520.064C394.647 518.671 396.318 517.37 398.547 516.163 401.426 514.492 404.026 513.749 406.441 513.749 409.041 513.749 410.991 514.399 412.477 515.792 413.963 517.185 414.706 518.949 414.706 521.178V538.358zM358.986 534.736V522.571C358.986 520.806 358.243 519.971 356.757 519.971H349.699C348.121 519.971 347.378 520.899 347.378 522.664V534.736H358.986zM372.08 539.844H347.378V550.338C347.378 551.917 348.213 552.753 349.885 552.753H356.571C358.15 552.753 358.893 551.917 358.893 550.245V544.116H371.987V549.688C371.987 552.567 370.966 554.796 368.923 556.467 366.88 558.139 364.094 558.975 360.565 558.975H345.149C341.62 558.975 338.834 558.046 336.977 556.189 335.212 554.424 334.283 552.102 334.283 549.038V523.035C334.283 519.971 335.491 517.556 337.812 515.885 339.763 514.492 342.363 513.749 345.427 513.749H361.122C368.365 513.749 371.987 516.906 371.987 523.314V539.844H372.08zM545.276 498.797V507.341H319.146V524.335H323.325V520.342H329.733V536.315H323.325V532.508H319.146V550.431H327.969V558.975H296.858V550.431H305.681V507.434H296.858v-8.637H545.276zM462.532 429.519C461.51 433.234 460.396 433.698 455.288 435.834 449.716 439.27 446.745 443.263 451.109 436.763 452.131 435.648 453.059 434.627 454.081 433.512 456.96 431.562 459.839 428.219 462.532 429.519zM524.659 347.704C550.012 332.009 534.41 316.686 541.468 298.299 530.231 311.95 544.533 331.731 521.038 345.103 514.258 347.889 517.323 350.49 524.659 347.704zM498.285 354.297C495.592 357.083 495.778 358.29 496.521 363.677 496.428 370.177 494.478 374.728 497.821 367.763 498.285 366.37 498.657 364.977 499.121 363.584 499.4 360.055 500.793 355.783 498.285 354.297zM452.874 318.822C456.681 321.423 456.031 322.165 452.688 325.602 450.552 330.059 452.317 333.681 448.88 328.016 448.602 326.995 448.323 325.88 448.045 324.859 448.695 322.351 447.673 319.194 452.874 318.822zM452.595 350.304C452.595 356.062 451.016 361.819 446.28 367.577 444.794 367.298 443.401 367.113 442.008 366.834 439.78 367.67 439.315 368.506 440.522 369.342 441.358 370.085 442.194 370.827 443.03 371.57 440.708 378.907 439.13 386.243 442.287 393.673 445.537 395.158 446.652 394.323 445.816 391.165 440.523 382.9 444.701 377.607 448.323 372.128 449.809 376.678 445.352 384.572 448.788 385.686 452.131 379.928 458.817 369.899 450.273 369.62 454.824 363.862 457.053 354.297 457.146 351.325 457.331 344.918 454.267 345.011 452.595 350.304zM432.536 358.29C435.786 360.241 436.901 359.776 436.065 356.99 431.236 348.632 428.45 348.168 424.178 343.432 421.392 342.968 420.649 342.689 421.856 344.175 425.757 350.118 429.75 353.461 432.536 358.29zM426.685 336.281C421.206 338.51 399.847 317.058 398.268 315.943 395.297 310.929 395.482 308.607 398.918 309.071 407.648 318.358 417.956 329.781 426.685 336.281zM452.781 295.884C451.202 307.307 434.951 276.104 436.994 274.804 435.508 269.882 437.458 268.674 440.244 269.696 442.844 278.797 443.216 286.876 452.781 295.884zM366.508 272.482C365.487 267.467 366.508 266.724 371.337 263.66 375.98 258.831 377.095 253.259 375.795 262.174 375.237 263.66 374.773 265.238 374.216 266.724 371.987 269.603 370.501 274.246 366.508 272.482zM360.379 260.317C356.85 260.224 356.571 259.945 355.271 256.323 352.671 252.609 349.606 246.665 357.871 252.237 358.8 252.794 359.729 253.352 360.657 253.909 362.329 255.859 362.143 257.995 360.379 260.317zM346.728 234.5C346.263 237.286 345.985 237.471 342.92 238.121 339.577 239.793 334.469 241.558 339.948 235.614 340.505 234.964 341.063 234.221 341.62 233.571 343.291 232.549 344.963 232.828 346.728 234.5zM333.448 268.489C335.955 269.882 335.955 270.253 335.398 273.875 335.676 278.147 335.305 284.462 331.869 276.382 331.405 275.547 331.033 274.711 330.569 273.875 330.197 271.646 331.219 269.882 333.448 268.489zM345.056 280.004C351.835 282.79 355.457 286.783 359.915 288.919 364.836 291.334 367.344 289.105 365.115 286.319 356.757 282.14 349.235 276.289 345.056 280.004zM422.785 161.6C424.364 161.6 425.664 162.714 425.664 164.014 425.664 165.314 425.292 166.429 423.714 166.429 422.135 166.429 420.463 164.386 420.463 163.085 420.556 161.785 421.206 161.6 422.785 161.6zM412.755 228.649C412.291 240.072 430.679 208.497 431.793 207.29 433.279 202.368 432.629 200.511 429.843 201.532 424.178 210.54 418.513 219.548 412.755 228.649zM398.918 240.443C397.711 241.465 397.804 242.579 399.197 243.601 406.255 242.95 407.926 241.65 414.334 244.251 417.027 244.436 420.463 242.486 417.863 240.443 412.663 236.264 405.233 239.329 398.918 240.443zM333.448 267.374C337.905 266.539 342.363 265.981 348.306 267.096 351.185 267.746 357.314 269.139 360.472 268.674 357.964 265.331 356.107 261.524 353.414 258.273 351.185 255.859 348.585 253.723 346.635 251.03 343.849 249.451 343.199 249.173 340.134 250.194 337.627 252.144 337.441 253.63 336.326 256.602 336.419 261.245 335.862 263.567 333.448 267.374zM387.867 171.536C389.075 171.536 390.003 172.744 389.91 174.322 389.817 175.808 388.703 177.108 387.496 177.108 386.289 177.108 385.36 175.901 385.453 174.322 385.546 172.744 386.66 171.536 387.867 171.536zM380.902 177.015C380.252 171.072 380.438 169.4 388.889 165.686 395.482 162.714 401.147 162.528 407.741 160.671 411.084 156.771 412.477 156.956 416.749 155.842 416.842 155.006 416.934 154.077 417.12 153.242 414.056 151.106 412.477 149.898 410.155 147.02 410.248 145.998 410.341 145.069 410.527 144.048 411.455 144.141 412.291 144.234 413.22 144.419 412.848 143.398 412.57 142.469 412.198 141.448 415.356 141.633 418.606 141.912 421.856 142.098V139.497 135.226C422.135 133.833 422.785 133.461 423.807 134.204 425.757 136.619 427.8 139.033 429.75 141.448 429.936 138.847 430.493 136.711 430.679 134.111 430.772 132.718 431.514 132.347 433 133.09 434.951 136.804 436.715 139.962 438.665 143.676 443.03 142.098 449.066 142.748 455.567 143.955 455.103 144.698 454.638 145.441 454.267 146.277 456.681 147.02 459.096 147.763 461.603 148.598 461.51 149.248 461.417 149.898 461.232 150.549 468.568 151.291 472.283 152.313 479.155 155.099 475.254 156.213 471.447 157.328 467.547 158.349 465.411 159.371 465.411 160.299 467.547 161.321 474.976 163.828 482.405 167.172 489.742 176.087 489.556 176.737 489.277 177.387 489.092 178.037 480.548 171.629 472.933 168.1 466.525 168.843 465.875 169.958 466.339 171.072 467.825 172.093 475.905 178.13 483.984 181.937 492.063 182.309 485.47 183.609 478.783 183.609 472.19 180.637 471.818 181.937 471.076 183.237 472.19 184.538 476.926 187.416 480.362 190.667 490.485 192.06 490.485 192.71 488.349 192.803 488.349 193.453 481.755 193.824 477.205 191.595 470.611 188.438 469.311 189.088 468.754 190.017 468.94 191.41 473.676 198.375 478.226 205.618 484.541 211.097 483.891 211.283 483.241 211.562 482.591 211.747 474.326 206.361 470.89 202.182 465.968 197.632 465.411 198.932 464.203 200.232 465.968 201.532 471.447 207.011 476.369 211.097 484.263 221.87 483.984 223.263 483.334 223.634 482.312 222.891 475.44 216.112 475.347 216.576 465.689 215.369 465.968 222.799 478.412 222.52 485.748 234.5 485.191 234.685 485.47 235.428 484.913 235.707 478.133 232.178 478.505 232.457 470.983 234.035 473.862 235.986 476.74 237.936 479.619 239.979V241.929C474.697 239.886 470.518 239.793 466.339 239.979 470.24 243.043 474.047 246.108 477.948 249.173 479.341 250.194 478.876 250.844 476.648 251.123 472.469 249.73 468.197 248.244 464.018 246.851 468.475 250.937 472.097 253.909 476.462 257.902 477.576 259.481 477.019 260.316 475.905 260.502 467.732 255.58 466.711 253.537 457.703 255.673V259.295C466.154 259.295 465.225 258.273 470.333 264.867 466.711 263.195 465.689 262.917 461.696 262.917 463.46 266.446 464.389 269.882 469.961 273.411 478.412 279.818 458.724 272.111 455.381 267.467 451.666 264.867 447.859 263.01 444.051 261.895 443.216 265.146 442.658 268.489 444.051 271.739 448.138 278.425 452.224 285.112 456.31 291.798 459.746 295.42 462.903 299.599 466.339 303.128 470.89 306.378 473.49 310 478.041 313.25 489.463 322.816 502.557 329.13 502.464 345.939 530.231 353.74 534.596 306.564 530.974 301.921 518.066 273.132 526.981 251.123 545.276 238.586V240.536C536.732 250.101 535.06 252.701 531.346 264.774 531.903 266.91 531.81 269.882 534.689 269.046 538.496 264.495 542.954 260.595 547.969 257.252 550.198 257.623 550.662 258.738 549.269 260.502 542.49 270.625 541.004 272.761 539.611 284.74 540.447 285.205 541.375 285.576 542.304 286.04 544.997 283.069 547.597 280.097 550.29 277.218 552.334 278.054 552.519 279.261 550.941 280.84 542.954 286.691 551.126 315.386 549.269 325.787 546.669 340.274 538.311 344.825 526.702 353.647 529.396 364.698 528.746 366.834 526.052 377.885 525.124 370.363 526.702 365.627 520.388 361.448 519.923 376.585 509.058 385.593 511.101 384.386 514.165 375.471 516.766 373.335 513.051 364.698 511.565 369.249 509.801 373.706 508.036 378.164 508.593 373.706 508.686 356.619 507.665 358.105 506.643 358.198 505.715 358.29 504.693 358.383 498.657 378.071 492.992 383.179 476.462 394.787 474.14 396.273 471.818 397.852 469.497 399.337 467.918 406.024 469.032 407.788 471.168 414.475 472.376 417.075 473.583 419.768 474.79 422.368 474.79 428.497 475.069 428.219 471.168 432.862 467.918 434.069 464.761 435.277 461.51 436.484 456.496 441.313 451.574 446.142 446.559 450.878 445.63 457.565 445.259 455.986 438.572 457.75 439.037 459.515 439.501 461.279 439.872 463.044 432.072 468.894 429.936 469.637 420.278 471.587 419.72 470.752 419.163 469.823 418.606 468.987 419.999 466.015 421.485 463.044 422.878 460.165 426.221 456.079 428.821 449.95 434.115 449.95 434.208 449.114 434.3 448.185 434.486 447.349 436.622 445.771 439.222 444.285 441.358 442.799 446.93 437.505 451.852 432.305 457.424 427.012 458.631 425.061 458.631 423.111 458.446 421.068 457.424 419.304 456.403 417.539 455.474 415.775 454.36 413.174 453.245 410.481 452.131 407.881 450.831 408.067 449.438 408.345 448.138 408.531 446.187 414.289 447.766 414.66 441.544 413.732 436.158 411.224 430.679 408.717 425.292 406.209 420.649 405.559 416.006 404.909 411.362 404.259 406.069 403.609 403.562 403.795 399.104 401.009 396.411 401.102 393.811 401.195 391.118 401.288 390.56 401.938 390.003 402.588 389.446 403.238 380.067 403.609 382.295 403.888 374.959 397.294 373.752 394.415 371.43 391.629 370.223 388.751 377.373 387.636 381.367 387.172 388.517 388.101 389.725 388.936 390.932 389.865 392.139 390.701 399.104 391.258 403.376 390.701 409.412 394.323 415.17 395.623 420.928 396.923 426.685 398.223 429.193 398.037 431.793 397.759 434.3 397.573 434.951 396.18 435.601 394.694 436.344 393.301 435.879 391.537 435.415 389.772 435.043 388.101 429.471 384.943 425.757 378.535 425.107 371.57 425.107 371.57 419.906 366.277 418.978 362.005 416.842 351.883 410.991 343.618 420.742 341.76 422.228 339.067 412.941 334.052 410.155 331.916 398.361 322.444 386.103 315.2 384.617 299.413 382.202 299.32 379.788 299.227 377.281 299.135 369.48 299.878 369.944 298.577 364.651 293.563 358.243 291.52 352.764 287.712 348.028 282.697 348.028 282.697 343.663 279.726 341.341 279.726 338.091 279.726 342.27 299.599 341.063 302.106 344.499 305.542 344.777 304.799 344.406 309.629 347.563 313.343 349.235 314.272 349.699 319.101 350.164 320.308 350.535 321.515 350.999 322.723 357.314 324.023 355.364 322.537 356.386 328.295 357.036 331.916 356.293 336.467 356.293 336.467 355.828 338.138 355.364 339.717 354.993 341.389 354.993 341.389 350.721 340.089 348.678 338.138 344.22 333.681 343.849 334.981 344.684 328.945 341.991 327.83 341.806 327.087 340.041 324.673 340.041 324.673 341.063 323.651 338.741 322.073 334.933 319.379 335.769 319.937 335.769 315.2V310.929C335.769 309.257 337.069 309.629 335.398 306.007 333.726 302.385 334.376 304.985 332.426 300.063 331.405 297.927 332.333 294.12 332.055 293.47 329.919 287.619 330.012 285.669 329.362 285.948 329.176 287.898 328.897 289.848 328.711 291.891V294.491C326.668 298.577 325.925 300.063 323.047 304.707 319.146 305.821 316.732 306.471 316.732 300.435 316.732 294.213 316.639 293.47 319.425 287.991 319.796 286.598 320.075 285.112 320.446 283.719V279.168C320.446 272.389 321.561 264.867 326.111 259.481 328.897 256.138 331.962 245.458 333.076 241.465 333.633 235.893 332.426 235.521 337.348 233.292 337.998 229.949 345.985 229.578 348.306 230.971 349.978 231.992 352.95 234.871 352.95 234.871 359.172 238.679 365.487 241.836 370.873 247.965 373.287 247.965 375.702 247.965 378.209 247.965 380.345 246.479 382.388 244.901 384.524 243.415 384.803 240.722 393.532 235.428 395.575 236.636 398.918 228.649 402.169 225.027 408.669 218.62 407.369 218.248 420.185 196.703 422.321 196.796 422.785 194.567 424.364 187.695 421.392 186.952 417.492 188.159 406.626 186.488 404.769 183.33 403.562 183.33 403.19 183.888 401.89 183.888 400.683 184.259 399.476 184.538 398.268 184.909 395.482 187.231 394.925 185.745 391.768 186.766 389.817 186.766 386.753 187.416 386.103 185.931 384.896 183.237 387.496 183.609 389.167 183.423 389.91 183.237 390.746 182.959 391.489 182.773 395.111 181.566 392.139 181.38 389.818 180.173 388.889 180.359 388.053 180.637 387.124 180.823 386.381 180.823 385.546 180.823 384.803 180.823 384.153 180.823 383.503 180.823 382.853 180.823 380.159 179.801 381.181 180.173 380.902 177.015zM264.262 100.586h340.82C608.239 101.051 609.446 103.93 609.632 106.808L609.539 581.355C609.075 584.327 607.403 586.463 604.246 586.556H263.426C260.269 586.092 259.062 583.213 258.876 580.427V105.88C259.433 102.815 261.105 100.772 264.262 100.586z" fill="#fff000"/><path d="M609.632 33.3511H258.969V55.3604H609.632V33.3511z" fill="#009844"/><path d="M609.632 55.4536H258.969V77.4629H609.632V55.4536z" fill="#fff"/><path d="M609.632 77.4624H258.969V99.4717H609.632V77.4624z" fill="#e50012"/></svg>