<?xml version="1.0" encoding="UTF-8" standalone="no"?>
<svg
   xmlns:dc="http://purl.org/dc/elements/1.1/"
   xmlns:cc="http://creativecommons.org/ns#"
   xmlns:rdf="http://www.w3.org/1999/02/22-rdf-syntax-ns#"
   xmlns:svg="http://www.w3.org/2000/svg"
   xmlns="http://www.w3.org/2000/svg"
   viewBox="0 0 207.50667 92.893333"
   height="92.893333"
   width="207.50667"
   xml:space="preserve"
   id="svg2"
   version="1.1"><metadata
     id="metadata8"><rdf:RDF><cc:Work
         rdf:about=""><dc:format>image/svg+xml</dc:format><dc:type
           rdf:resource="http://purl.org/dc/dcmitype/StillImage" /></cc:Work></rdf:RDF></metadata><defs
     id="defs6" /><g
     transform="matrix(1.3333333,0,0,-1.3333333,0,92.893333)"
     id="g10"><g
       transform="scale(0.1)"
       id="g12"><path
         id="path14"
         style="fill:#231f20;fill-opacity:1;fill-rule:evenodd;stroke:none"
         d="m 761.734,117.41 c -11.504,10.656 -30.484,16.606 -49.171,16.606 -45.743,0 -75.93,-26.02 -75.93,-59.0238 0,-30.5078 28.465,-56.543 75.93,-56.543 23.3,0 41.113,7.3711 53.199,19.461 L 789.055,25.4414 C 783.027,19.4648 758.563,0 711.98,0 647.262,0 607.289,38.5469 607.289,74.9922 c 0,45.0858 43.43,77.4608 106.125,77.4608 26.758,0 54.945,-7.18 71.32,-22.519 l -23,-12.524 v 0" /><path
         id="path16"
         style="fill:#231f20;fill-opacity:1;fill-rule:evenodd;stroke:none"
         d="m 1007.65,18.4492 c -43.439,0 -71.564,26.0352 -71.564,57.7813 0,31.7655 28.125,57.7855 71.564,57.7855 43.44,0 71.57,-26.02 71.57,-57.7855 0,-31.7461 -28.13,-57.7813 -71.57,-57.7813 z M 1007.65,0 c 57.91,0 98.91,33.2031 98.91,76.2305 0,43.0275 -41,76.2225 -98.91,76.2225 -57.904,0 -98.888,-33.195 -98.888,-76.2225 C 908.762,33.2031 949.746,0 1007.65,0 v 0" /><path
         id="path18"
         style="fill:#231f20;fill-opacity:1;fill-rule:evenodd;stroke:none"
         d="M 0,148.77 H 21.0078 V 22.1406 H 92.1172 V 3.69141 H 0 V 148.77 v 0" /><path
         id="path20"
         style="fill:#231f20;fill-opacity:1;fill-rule:evenodd;stroke:none"
         d="m 217.516,148.77 h 21 V 3.69141 h -21 V 148.77 v 0" /><path
         id="path22"
         style="fill:#231f20;fill-opacity:1;fill-rule:evenodd;stroke:none"
         d="m 345.258,148.77 h 35.176 L 489.277,29.5117 h 0.571 V 148.77 h 26.777 V 3.69141 H 482.578 L 372.621,122.949 h -0.558 V 3.69141 H 345.258 V 148.77 v 0" /><path
         id="path24"
         style="fill:#231f20;fill-opacity:1;fill-rule:evenodd;stroke:none"
         d="m 1204.37,148.77 h 21.01 V 22.1406 h 71.1 V 3.69141 h -92.11 V 148.77 v 0" /><path
         id="path26"
         style="fill:#231f20;fill-opacity:1;fill-rule:evenodd;stroke:none"
         d="m 1421.9,148.77 h 27.57 l 85.32,-119.2583 h 0.44 V 148.77 h 21.02 V 3.69141 h -26.7 L 1443.36,122.949 h -0.49 V 3.69141 H 1421.9 V 148.77 v 0" /><path
         id="path28"
         style="fill:#231f20;fill-opacity:1;fill-rule:evenodd;stroke:none"
         d="m 758.066,484.195 c -0.238,55.309 -3.375,117.75 -12.132,175.203 0,0 -18.215,2.161 -41.864,2.5 -1.636,22.52 -2.949,34.825 -2.949,34.825 h -5.871 c 0,0 -1.324,-12.305 -2.961,-34.825 -23.66,-0.339 -41.859,-2.5 -41.859,-2.5 -8.774,-57.453 -11.895,-119.894 -12.149,-175.203 -19.465,-2.242 -34.98,-4.465 -34.98,-4.465 v -5.691 c 0,0 15.515,-2.219 34.98,-4.476 0.254,-55.321 3.375,-117.735 12.149,-175.188 0,0 18.199,-2.187 41.859,-2.527 1.637,-22.493 2.961,-34.797 2.961,-34.797 h 5.871 c 0,0 1.313,12.304 2.949,34.797 23.649,0.34 41.864,2.527 41.864,2.527 8.757,57.453 11.894,119.867 12.132,175.188 19.477,2.257 34.981,4.476 34.981,4.476 v 5.691 c 0,0 -15.504,2.223 -34.981,4.465 z m -25.214,158.243 c 7.671,-53.852 9.625,-121.438 9.843,-156.567 -11.129,1.141 -22.535,2.137 -32.422,2.621 -0.253,65.016 -2.636,117.781 -4.89,153.946 h 27.469 z m -69.344,0 h 27.469 c -2.243,-36.165 -4.633,-88.93 -4.872,-153.946 -9.906,-0.484 -21.324,-1.48 -32.437,-2.621 0.227,35.129 2.148,102.715 9.84,156.567 z m 0,-331.098 c -7.692,53.836 -9.613,121.41 -9.84,156.551 11.113,-1.133 22.531,-2.125 32.437,-2.621 0.239,-65.024 2.629,-117.758 4.872,-153.93 h -27.469 69.344 -27.469 c 2.254,36.172 4.637,88.906 4.89,153.93 9.887,0.496 21.293,1.488 32.422,2.621 -0.218,-35.141 -2.172,-102.715 -9.843,-156.551 h -69.344 v 0" /></g></g></svg>