<?xml version="1.0" encoding="UTF-8" standalone="no"?>
<svg
   xmlns:dc="http://purl.org/dc/elements/1.1/"
   xmlns:cc="http://creativecommons.org/ns#"
   xmlns:rdf="http://www.w3.org/1999/02/22-rdf-syntax-ns#"
   xmlns:svg="http://www.w3.org/2000/svg"
   xmlns="http://www.w3.org/2000/svg"
   viewBox="0 0 688.70667 613.65332"
   height="613.65332"
   width="688.70667"
   xml:space="preserve"
   id="svg2"
   version="1.1"><metadata
     id="metadata8"><rdf:RDF><cc:Work
         rdf:about=""><dc:format>image/svg+xml</dc:format><dc:type
           rdf:resource="http://purl.org/dc/dcmitype/StillImage" /></cc:Work></rdf:RDF></metadata><defs
     id="defs6"><clipPath
       id="clipPath168"
       clipPathUnits="userSpaceOnUse"><path
         id="path166"
         d="m 2569.45,2580.51 c 310.42,126.24 582.91,353.01 763.28,665.54 142.05,246.08 209.36,514.33 209.36,779.21 0,71.97 -4.98,143.85 -14.8,214.83 -264.69,205.84 -597.23,328.3 -958.38,328.3 -361.19,0 -693.79,-122.46 -958.28,-328.3 -9.73,-70.06 -14.63,-140.93 -14.63,-211.98 0,-265.71 68.3,-535.02 210.91,-782.06 180.5,-312.53 452.15,-539.3 762.54,-665.54 z" /></clipPath><linearGradient
       id="linearGradient178"
       spreadMethod="pad"
       gradientTransform="matrix(1932.49,340.751,340.751,-1932.49,1677.65,3429.44)"
       gradientUnits="userSpaceOnUse"
       y2="0"
       x2="1"
       y1="0"
       x1="0"><stop
         id="stop170"
         offset="0"
         style="stop-opacity:1;stop-color:#193050" /><stop
         id="stop172"
         offset="0.016854"
         style="stop-opacity:1;stop-color:#193050" /><stop
         id="stop174"
         offset="0.353932"
         style="stop-opacity:1;stop-color:#5e7ab2" /><stop
         id="stop176"
         offset="1"
         style="stop-opacity:1;stop-color:#193050" /></linearGradient><clipPath
       id="clipPath188"
       clipPathUnits="userSpaceOnUse"><path
         id="path186"
         d="m 3303.99,4384.98 c -219.12,117.04 -469.34,183.42 -735.08,183.42 -316.77,0 -611.56,-94.2 -857.7,-256.24 -34.51,-22.71 -68.07,-46.77 -100.58,-72.07 -1.84,-13.23 -3.5,-26.49 -5,-39.77 -6.41,-57.06 -9.62,-114.57 -9.62,-172.21 0,-265.71 68.29,-535.02 210.9,-782.05 56.54,-97.89 122.03,-187.36 194.84,-267.97 10.02,-11.09 20.18,-22.03 30.49,-32.78 135.08,-141.12 293.37,-253.13 465.34,-333.36 -248.14,132.77 -463.17,334.27 -614.28,595.91 -142.61,247.05 -150.96,587.22 -104.42,848.82 42.01,236.25 505.24,473.53 866.42,473.53 198.63,0 388.59,-37.07 563.38,-104.66 32.3,-12.5 64.1,-26.03 95.31,-40.57 z" /></clipPath><clipPath
       id="clipPath194"
       clipPathUnits="userSpaceOnUse"><path
         id="path192"
         d="m 3303.99,4384.98 c -219.12,117.04 -469.34,183.42 -735.08,183.42 -316.77,0 -611.56,-94.2 -857.7,-256.24 -34.51,-22.71 -68.07,-46.77 -100.58,-72.07 -1.84,-13.23 -3.5,-26.49 -5,-39.77 -6.41,-57.06 -9.62,-114.57 -9.62,-172.21 0,-265.71 68.29,-535.02 210.9,-782.05 56.54,-97.89 122.03,-187.36 194.84,-267.97 10.02,-11.09 20.18,-22.03 30.49,-32.78 135.08,-141.12 293.37,-253.13 465.34,-333.36 -248.14,132.77 -463.17,334.27 -614.28,595.91 -142.61,247.05 -150.96,587.22 -104.42,848.82 42.01,236.25 505.24,473.53 866.42,473.53 198.63,0 388.59,-37.07 563.38,-104.66 32.3,-12.5 64.1,-26.03 95.31,-40.57" /></clipPath><clipPath
       id="clipPath272"
       clipPathUnits="userSpaceOnUse"><path
         id="path270"
         d="m 3517.02,4236.75 c 2.73,-37.6 4.14,-75.33 4.14,-113.1 0,-202.42 -39.32,-406.82 -121.25,-601.77 -25.3,-60.15 -54.63,-119.41 -88.13,-177.44 -170.94,-296.17 -121.54,-265.2 -411.81,-394.78 38.47,0 -10.71,-16.7 27.75,-16.7 29.32,0 253.24,112.48 358.65,237.03 9.12,19.92 -10.84,-10.31 36.78,72.2 91.6,158.71 152.13,326.63 183.57,496.92 17.31,93.77 25.8,188.24 25.8,282.29 0,71.98 -4.98,143.86 -14.8,214.83 -0.2,0.15 -0.39,0.29 -0.59,0.43 -0.04,0.03 -0.07,0.06 -0.11,0.09 z" /></clipPath><clipPath
       id="clipPath278"
       clipPathUnits="userSpaceOnUse"><path
         id="path276"
         d="m 3517.02,4236.75 c 2.73,-37.6 4.14,-75.33 4.14,-113.1 0,-202.42 -39.32,-406.82 -121.25,-601.77 -25.3,-60.15 -54.63,-119.41 -88.13,-177.44 -170.94,-296.17 -121.54,-265.2 -411.81,-394.78 38.47,0 -10.71,-16.7 27.75,-16.7 29.32,0 253.24,112.48 358.65,237.03 9.12,19.92 -10.84,-10.31 36.78,72.2 91.6,158.71 152.13,326.63 183.57,496.92 17.31,93.77 25.8,188.24 25.8,282.29 0,71.98 -4.98,143.86 -14.8,214.83 -0.2,0.15 -0.39,0.29 -0.59,0.43 -0.04,0.03 -0.07,0.06 -0.11,0.09" /></clipPath><clipPath
       id="clipPath344"
       clipPathUnits="userSpaceOnUse"><path
         id="path342"
         d="m 2514.21,3146.2 -27.15,259.59 h 164.21 l -27.36,-259.86 c -4.93,-46.25 27.19,-57.81 66.54,-49.92 228.88,46.22 411.45,220.63 469.34,445.09 12.59,48.82 17.39,102.52 -40.74,96.03 l -52.97,-5.98 v 126.63 l 50.66,-6.15 c 49.88,-4.78 56.16,38.16 47.57,76.3 -51.71,230.39 -233.77,411.49 -464.66,461.86 -42.07,9.17 -80.23,-1.7 -74.53,-55.69 l 26.15,-249.81 h -164.33 l 26.34,251.27 c 5.16,49.23 -33.52,62.24 -69.3,54.34 -108.9,-24.08 -209.06,-77.87 -287.62,-148.16 l -39.32,77.96 -99.05,-186.58 h 44.33 c -43.1,-64.26 -74.3,-137.19 -90.47,-215.58 -7.47,-36.3 3.09,-70.88 41.26,-66.84 l 69.88,7.26 v -127.62 l -60.67,7.34 c -43.9,5.24 -57.83,-35.26 -48.05,-78.67 19.46,-86.1 57.1,-165.28 108.72,-233.29 V 3147.9 l 67.12,-0.3 v 103.23 c 82.71,-78.27 187.33,-133.65 303.68,-155.95 31.97,-6.16 64.94,8.28 60.42,51.32 z" /></clipPath><radialGradient
       id="radialGradient350"
       spreadMethod="pad"
       gradientTransform="matrix(599.341,0,0,-599.341,2568.7,3693.11)"
       gradientUnits="userSpaceOnUse"
       r="1"
       cy="0"
       cx="0"
       fy="0"
       fx="0"><stop
         id="stop346"
         offset="0"
         style="stop-opacity:1;stop-color:#255997" /><stop
         id="stop348"
         offset="1"
         style="stop-opacity:1;stop-color:#193050" /></radialGradient><clipPath
       id="clipPath378"
       clipPathUnits="userSpaceOnUse"><path
         id="path376"
         d="m 3150.05,4286.48 c 145.04,-150.06 234.34,-354.35 234.34,-579.48 0,-460.53 -373.51,-834.01 -833.99,-834.01 -225.12,0 -429.4,89.28 -579.46,234.31 151.66,-156.89 364.27,-254.51 599.66,-254.51 460.48,0 833.98,373.49 833.98,834.01 0,235.4 -97.61,448.02 -254.53,599.68 z" /></clipPath><radialGradient
       id="radialGradient386"
       spreadMethod="pad"
       gradientTransform="matrix(716.836,0,0,-716.836,2687.76,3569.64)"
       gradientUnits="userSpaceOnUse"
       r="1"
       cy="0"
       cx="0"
       fy="0"
       fx="0"><stop
         id="stop380"
         offset="0"
         style="stop-opacity:1;stop-color:#171817" /><stop
         id="stop382"
         offset="0.382022"
         style="stop-opacity:1;stop-color:#c0c1bf" /><stop
         id="stop384"
         offset="1"
         style="stop-opacity:1;stop-color:#ffffff" /></radialGradient><clipPath
       id="clipPath396"
       clipPathUnits="userSpaceOnUse"><path
         id="path394"
         d="m 2579.31,4492.55 c 225.1,0 439.49,-74.12 589.55,-219.17 -151.66,156.91 -364.28,254.53 -599.65,254.53 -460.52,0 -834,-373.49 -834,-834.02 0,-235.4 97.63,-448.03 254.54,-599.69 -145.04,150.06 -219.18,379.61 -219.18,604.74 0,460.53 383.73,793.61 808.74,793.61 z" /></clipPath><radialGradient
       id="radialGradient402"
       spreadMethod="pad"
       gradientTransform="matrix(716.841,0,0,-716.841,2452.04,3811.05)"
       gradientUnits="userSpaceOnUse"
       r="1"
       cy="0"
       cx="0"
       fy="0"
       fx="0"><stop
         id="stop398"
         offset="0"
         style="stop-opacity:1;stop-color:#686c6e" /><stop
         id="stop400"
         offset="1"
         style="stop-opacity:1;stop-color:#ffffff" /></radialGradient><clipPath
       id="clipPath412"
       clipPathUnits="userSpaceOnUse"><path
         id="path410"
         d="m 2393.62,3592.97 v -0.05 c 0.45,0 0.88,0.02 1.31,0.05 z" /></clipPath><linearGradient
       id="linearGradient418"
       spreadMethod="pad"
       gradientTransform="matrix(-1.30859,-1e-7,-1e-7,1.30859,2394.93,3592.94)"
       gradientUnits="userSpaceOnUse"
       y2="0"
       x2="1"
       y1="0"
       x1="0"><stop
         id="stop414"
         offset="0"
         style="stop-opacity:1;stop-color:#22528c" /><stop
         id="stop416"
         offset="1"
         style="stop-opacity:1;stop-color:#193050" /></linearGradient><clipPath
       id="clipPath428"
       clipPathUnits="userSpaceOnUse"><path
         id="path426"
         d="m 2794.4,3592.92 h -2.42 v -0.07 h 1.72 c 0.25,0 0.47,0.06 0.7,0.07 z" /></clipPath><linearGradient
       id="linearGradient434"
       spreadMethod="pad"
       gradientTransform="matrix(-2.42188,-2e-7,-2e-7,2.42188,2794.4,3592.88)"
       gradientUnits="userSpaceOnUse"
       y2="0"
       x2="1"
       y1="0"
       x1="0"><stop
         id="stop430"
         offset="0"
         style="stop-opacity:1;stop-color:#22528c" /><stop
         id="stop432"
         offset="1"
         style="stop-opacity:1;stop-color:#193050" /></linearGradient><clipPath
       id="clipPath444"
       clipPathUnits="userSpaceOnUse"><path
         id="path442"
         d="m 2961.71,3592.92 h -2.09 v -0.07 h 1.63 c 0.17,0 0.31,0.06 0.46,0.07 z" /></clipPath><linearGradient
       id="linearGradient450"
       spreadMethod="pad"
       gradientTransform="matrix(-2.08984,-2e-7,-2e-7,2.08984,2961.71,3592.88)"
       gradientUnits="userSpaceOnUse"
       y2="0"
       x2="1"
       y1="0"
       x1="0"><stop
         id="stop446"
         offset="0"
         style="stop-opacity:1;stop-color:#22528c" /><stop
         id="stop448"
         offset="1"
         style="stop-opacity:1;stop-color:#193050" /></linearGradient><clipPath
       id="clipPath460"
       clipPathUnits="userSpaceOnUse"><path
         id="path458"
         d="m 2718.88,3796.07 c -0.13,-0.01 -0.23,-0.05 -0.35,-0.06 23.81,-1.84 41,-30.98 43.05,-57.77 l 0.54,-7.31 5.43,0.11 -0.52,7.27 c -2.2,28.65 -21.72,60.03 -48.15,57.76 z" /></clipPath><linearGradient
       id="linearGradient466"
       spreadMethod="pad"
       gradientTransform="matrix(-49.0234,-4.3e-6,-4.3e-6,49.0234,2767.55,3763.56)"
       gradientUnits="userSpaceOnUse"
       y2="0"
       x2="1"
       y1="0"
       x1="0"><stop
         id="stop462"
         offset="0"
         style="stop-opacity:1;stop-color:#22528c" /><stop
         id="stop464"
         offset="1"
         style="stop-opacity:1;stop-color:#193050" /></linearGradient><clipPath
       id="clipPath476"
       clipPathUnits="userSpaceOnUse"><path
         id="path474"
         d="m 2768.65,3809.45 -5.39,0.06 c -2.28,-6.63 -4.61,-10.4 -7.31,-11.93 0.76,-0.4 1.3,-0.66 1.47,-0.7 4.56,-0.69 7.93,3.01 11.23,12.57 z" /></clipPath><linearGradient
       id="linearGradient482"
       spreadMethod="pad"
       gradientTransform="matrix(-12.6953,-1.1e-6,-1.1e-6,12.6953,2768.65,3803.16)"
       gradientUnits="userSpaceOnUse"
       y2="0"
       x2="1"
       y1="0"
       x1="0"><stop
         id="stop478"
         offset="0"
         style="stop-opacity:1;stop-color:#22528c" /><stop
         id="stop480"
         offset="1"
         style="stop-opacity:1;stop-color:#193050" /></linearGradient><clipPath
       id="clipPath492"
       clipPathUnits="userSpaceOnUse"><path
         id="path490"
         d="m 2648.05,3647.95 c -21.77,77.35 19.2,159.19 70.99,162.47 -0.22,0.01 -0.41,0.02 -0.64,0.03 -54.01,1.67 -98.22,-82.83 -75.79,-162.56 6.81,-24.19 20.1,-46.89 41.89,-60.19 12.1,-7.38 24.53,-10.06 36.1,-9.37 -9.98,0.34 -20.43,3.21 -30.66,9.44 -21.79,13.3 -35.08,36 -41.89,60.18 z" /></clipPath><linearGradient
       id="linearGradient498"
       spreadMethod="pad"
       gradientTransform="matrix(-83.9551,-7.3e-6,-7.3e-6,83.9551,2720.6,3694.35)"
       gradientUnits="userSpaceOnUse"
       y2="0"
       x2="1"
       y1="0"
       x1="0"><stop
         id="stop494"
         offset="0"
         style="stop-opacity:1;stop-color:#22528c" /><stop
         id="stop496"
         offset="1"
         style="stop-opacity:1;stop-color:#193050" /></linearGradient><clipPath
       id="clipPath508"
       clipPathUnits="userSpaceOnUse"><path
         id="path506"
         d="m 2767.31,3652.81 v 2.2 l -5.45,-0.05 v -2.21 c -0.03,-29.7 -19.78,-56.39 -42.1,-58.68 24.43,-1.93 47.51,26.66 47.55,58.74 z" /></clipPath><linearGradient
       id="linearGradient514"
       spreadMethod="pad"
       gradientTransform="matrix(-47.5488,-4.2e-6,-4.2e-6,47.5488,2767.31,3624.49)"
       gradientUnits="userSpaceOnUse"
       y2="0"
       x2="1"
       y1="0"
       x1="0"><stop
         id="stop510"
         offset="0"
         style="stop-opacity:1;stop-color:#22528c" /><stop
         id="stop512"
         offset="1"
         style="stop-opacity:1;stop-color:#193050" /></linearGradient><clipPath
       id="clipPath524"
       clipPathUnits="userSpaceOnUse"><path
         id="path522"
         d="m 2322.2,3606 c 3.22,5.24 8.26,20.56 14.31,40.48 l 48.92,161.06 H 2380 l -48.94,-161.12 c -6.05,-19.92 -11.09,-35.24 -14.3,-40.47 -5.26,-8.68 -11.42,-11.69 -15.74,-12.68 l -0.02,-0.3 c 0,0 12.01,-2.13 21.2,13.03 z" /></clipPath><linearGradient
       id="linearGradient530"
       spreadMethod="pad"
       gradientTransform="matrix(-84.4336,-7.4e-6,-7.4e-6,84.4336,2385.43,3700.2)"
       gradientUnits="userSpaceOnUse"
       y2="0"
       x2="1"
       y1="0"
       x1="0"><stop
         id="stop526"
         offset="0"
         style="stop-opacity:1;stop-color:#22528c" /><stop
         id="stop528"
         offset="1"
         style="stop-opacity:1;stop-color:#193050" /></linearGradient><clipPath
       id="clipPath540"
       clipPathUnits="userSpaceOnUse"><path
         id="path538"
         d="m 2252.96,3601.48 c 19.88,11.84 32.77,34.09 38.69,66.72 l -5.3,0.6 c -5.86,-32.99 -18.81,-55.46 -38.84,-67.39 -6.02,-3.58 -11.81,-5.4 -17.08,-5.92 6.61,-0.51 14.35,1.12 22.53,5.99 z" /></clipPath><linearGradient
       id="linearGradient546"
       spreadMethod="pad"
       gradientTransform="matrix(-61.2207,-5.4e-6,-5.4e-6,61.2207,2291.65,3632.1)"
       gradientUnits="userSpaceOnUse"
       y2="0"
       x2="1"
       y1="0"
       x1="0"><stop
         id="stop542"
         offset="0"
         style="stop-opacity:1;stop-color:#22528c" /><stop
         id="stop544"
         offset="1"
         style="stop-opacity:1;stop-color:#193050" /></linearGradient><clipPath
       id="clipPath556"
       clipPathUnits="userSpaceOnUse"><path
         id="path554"
         d="m 2603.58,3771.26 c 0,13.59 -4.32,23.5 -14.97,23.5 h -10.07 v 12.78 h -5.45 v -12.84 h 10.07 c 10.65,0 14.98,-9.91 14.98,-23.51 l 0.01,-93.66 5.44,-8.97 z" /></clipPath><linearGradient
       id="linearGradient562"
       spreadMethod="pad"
       gradientTransform="matrix(-30.498,-2.7e-6,-2.7e-6,30.498,2603.59,3738.05)"
       gradientUnits="userSpaceOnUse"
       y2="0"
       x2="1"
       y1="0"
       x1="0"><stop
         id="stop558"
         offset="0"
         style="stop-opacity:1;stop-color:#22528c" /><stop
         id="stop560"
         offset="1"
         style="stop-opacity:1;stop-color:#193050" /></linearGradient><clipPath
       id="clipPath572"
       clipPathUnits="userSpaceOnUse"><path
         id="path570"
         d="m 2493.69,3623.71 0.09,151 c -0.09,13.08 -5.9,20.05 -17.99,20.05 h -8.09 v 12.78 h -5.44 v -12.84 h 8.08 c 12.09,0 17.9,-6.97 17.99,-20.04 l -0.09,-151.02 c -0.04,-16.44 -7.28,-26.35 -15.9,-28.2 10.78,-1.9 21.29,8.44 21.35,28.27 z" /></clipPath><linearGradient
       id="linearGradient578"
       spreadMethod="pad"
       gradientTransform="matrix(-31.5234,-2.8e-6,-2.8e-6,31.5234,2493.78,3701.38)"
       gradientUnits="userSpaceOnUse"
       y2="0"
       x2="1"
       y1="0"
       x1="0"><stop
         id="stop574"
         offset="0"
         style="stop-opacity:1;stop-color:#22528c" /><stop
         id="stop576"
         offset="1"
         style="stop-opacity:1;stop-color:#193050" /></linearGradient><clipPath
       id="clipPath588"
       clipPathUnits="userSpaceOnUse"><path
         id="path586"
         d="m 2150.41,3592.97 c 6.25,0.08 11.82,2.05 14.81,3.94 4.3,2.74 6.21,10.38 6.3,18.36 l -0.27,164.91 c -0.11,8.27 -4.29,14.58 -13.38,14.61 l -7.46,-0.03 v 12.78 h -5.45 v -12.84 l 7.47,0.03 c 9.09,-0.03 13.27,-6.35 13.38,-14.61 l 0.27,-164.92 c -0.09,-7.98 -2,-15.62 -6.29,-18.36 -3,-1.88 -8.58,-3.84 -14.83,-3.93 v -12.68 l 5.45,0.07 z" /></clipPath><linearGradient
       id="linearGradient594"
       spreadMethod="pad"
       gradientTransform="matrix(-26.5625,-2.3e-6,-2.3e-6,26.5625,2171.52,3693.88)"
       gradientUnits="userSpaceOnUse"
       y2="0"
       x2="1"
       y1="0"
       x1="0"><stop
         id="stop590"
         offset="0"
         style="stop-opacity:1;stop-color:#22528c" /><stop
         id="stop592"
         offset="1"
         style="stop-opacity:1;stop-color:#193050" /></linearGradient><clipPath
       id="clipPath604"
       clipPathUnits="userSpaceOnUse"><path
         id="path602"
         d="m 2222.63,3794.7 h 5.04 v 0.06 h -4.27 c -0.27,0 -0.5,-0.05 -0.77,-0.06 z" /></clipPath><linearGradient
       id="linearGradient610"
       spreadMethod="pad"
       gradientTransform="matrix(-5.03906,-4e-7,-4e-7,5.03906,2227.67,3794.73)"
       gradientUnits="userSpaceOnUse"
       y2="0"
       x2="1"
       y1="0"
       x1="0"><stop
         id="stop606"
         offset="0"
         style="stop-opacity:1;stop-color:#22528c" /><stop
         id="stop608"
         offset="1"
         style="stop-opacity:1;stop-color:#193050" /></linearGradient><clipPath
       id="clipPath620"
       clipPathUnits="userSpaceOnUse"><path
         id="path618"
         d="m 2506.82,3749.63 -0.01,-9.26 94.73,-160.14 h 13.86 v 0.07 h -8.42 z" /></clipPath><linearGradient
       id="linearGradient626"
       spreadMethod="pad"
       gradientTransform="matrix(-108.584,-9.5e-6,-9.5e-6,108.584,2615.4,3664.93)"
       gradientUnits="userSpaceOnUse"
       y2="0"
       x2="1"
       y1="0"
       x1="0"><stop
         id="stop622"
         offset="0"
         style="stop-opacity:1;stop-color:#22528c" /><stop
         id="stop624"
         offset="1"
         style="stop-opacity:1;stop-color:#193050" /></linearGradient><clipPath
       id="clipPath636"
       clipPathUnits="userSpaceOnUse"><path
         id="path634"
         d="m 2373.96,3733.76 -2.7,-9.62 16.85,-58.68 5.45,-0.01 z" /></clipPath><linearGradient
       id="linearGradient642"
       spreadMethod="pad"
       gradientTransform="matrix(-22.3047,-1.9e-6,-1.9e-6,22.3047,2393.56,3699.6)"
       gradientUnits="userSpaceOnUse"
       y2="0"
       x2="1"
       y1="0"
       x1="0"><stop
         id="stop638"
         offset="0"
         style="stop-opacity:1;stop-color:#22528c" /><stop
         id="stop640"
         offset="1"
         style="stop-opacity:1;stop-color:#193050" /></linearGradient><clipPath
       id="clipPath652"
       clipPathUnits="userSpaceOnUse"><path
         id="path650"
         d="m 2393.62,3592.92 c -0.09,0 -0.19,-0.01 -0.29,-0.01 h -5.15 v -12.68 h 146.35 v 0.07 h -140.91 z" /></clipPath><linearGradient
       id="linearGradient658"
       spreadMethod="pad"
       gradientTransform="matrix(-146.348,-1.28e-5,-1.28e-5,146.348,2534.53,3586.57)"
       gradientUnits="userSpaceOnUse"
       y2="0"
       x2="1"
       y1="0"
       x1="0"><stop
         id="stop654"
         offset="0"
         style="stop-opacity:1;stop-color:#22528c" /><stop
         id="stop656"
         offset="1"
         style="stop-opacity:1;stop-color:#193050" /></linearGradient><clipPath
       id="clipPath668"
       clipPathUnits="userSpaceOnUse"><path
         id="path666"
         d="m 2939.37,3730.39 -2.79,-9.96 15.05,-56.16 h 5.46 z" /></clipPath><linearGradient
       id="linearGradient674"
       spreadMethod="pad"
       gradientTransform="matrix(-20.5176,-1.8e-6,-1.8e-6,20.5176,2957.09,3697.33)"
       gradientUnits="userSpaceOnUse"
       y2="0"
       x2="1"
       y1="0"
       x1="0"><stop
         id="stop670"
         offset="0"
         style="stop-opacity:1;stop-color:#22528c" /><stop
         id="stop672"
         offset="1"
         style="stop-opacity:1;stop-color:#193050" /></linearGradient><clipPath
       id="clipPath684"
       clipPathUnits="userSpaceOnUse"><path
         id="path682"
         d="m 2882.13,3600.54 c 5.97,5.79 10.74,18.73 19.11,45.9 l 49.02,161.08 h -5.43 l -49.03,-161.14 c -8.37,-27.18 -13.14,-40.12 -19.11,-45.89 -3.82,-3.7 -7.94,-5.83 -11.85,-6.57 5.28,-0.95 11.63,1.17 17.29,6.62 z" /></clipPath><linearGradient
       id="linearGradient690"
       spreadMethod="pad"
       gradientTransform="matrix(-85.4199,-7.5e-6,-7.5e-6,85.4199,2950.26,3700.61)"
       gradientUnits="userSpaceOnUse"
       y2="0"
       x2="1"
       y1="0"
       x1="0"><stop
         id="stop686"
         offset="0"
         style="stop-opacity:1;stop-color:#22528c" /><stop
         id="stop688"
         offset="1"
         style="stop-opacity:1;stop-color:#193050" /></linearGradient><clipPath
       id="clipPath700"
       clipPathUnits="userSpaceOnUse"><path
         id="path698"
         d="m 2791.98,3592.85 h -5.45 v -12.67 l 5.45,0.06 z" /></clipPath><linearGradient
       id="linearGradient706"
       spreadMethod="pad"
       gradientTransform="matrix(-5.44922,-5e-7,-5e-7,5.44922,2791.98,3586.52)"
       gradientUnits="userSpaceOnUse"
       y2="0"
       x2="1"
       y1="0"
       x1="0"><stop
         id="stop702"
         offset="0"
         style="stop-opacity:1;stop-color:#22528c" /><stop
         id="stop704"
         offset="1"
         style="stop-opacity:1;stop-color:#193050" /></linearGradient><clipPath
       id="clipPath716"
       clipPathUnits="userSpaceOnUse"><path
         id="path714"
         d="m 2959.62,3592.85 h -5.44 v -12.67 l 5.44,0.06 z" /></clipPath><linearGradient
       id="linearGradient722"
       spreadMethod="pad"
       gradientTransform="matrix(-5.43945,-5e-7,-5e-7,5.43945,2959.62,3586.52)"
       gradientUnits="userSpaceOnUse"
       y2="0"
       x2="1"
       y1="0"
       x1="0"><stop
         id="stop718"
         offset="0"
         style="stop-opacity:1;stop-color:#22528c" /><stop
         id="stop720"
         offset="1"
         style="stop-opacity:1;stop-color:#193050" /></linearGradient><clipPath
       id="clipPath732"
       clipPathUnits="userSpaceOnUse"><path
         id="path730"
         d="m 2976.43,3611.47 -9.38,34.97 h -46.26 l -0.02,-0.06 h 40.83 l 9.39,-34.98 c 2.5,-9.52 -1.28,-18.14 -9.28,-18.48 h 4.98 c 8.34,0 12.3,8.83 9.74,18.55 z" /></clipPath><linearGradient
       id="linearGradient738"
       spreadMethod="pad"
       gradientTransform="matrix(-56.4355,-4.9e-6,-4.9e-6,56.4355,2977.2,3619.68)"
       gradientUnits="userSpaceOnUse"
       y2="0"
       x2="1"
       y1="0"
       x1="0"><stop
         id="stop734"
         offset="0"
         style="stop-opacity:1;stop-color:#22528c" /><stop
         id="stop736"
         offset="1"
         style="stop-opacity:1;stop-color:#193050" /></linearGradient><clipPath
       id="clipPath748"
       clipPathUnits="userSpaceOnUse"><path
         id="path746"
         d="m 2809.98,3611.67 v 168.71 c 0,9 -5.15,14.34 -12.68,14.34 h -10.37 v 12.8 h -5.45 v -12.86 h 10.38 c 7.52,0 12.67,-5.35 12.67,-14.34 V 3611.6 c 0,-11.99 -6.38,-18.35 -15.18,-18.68 h 4.75 c 9.17,0 15.88,6.42 15.88,18.75 z" /></clipPath><linearGradient
       id="linearGradient754"
       spreadMethod="pad"
       gradientTransform="matrix(-28.4961,-2.5e-6,-2.5e-6,28.4961,2809.98,3700.22)"
       gradientUnits="userSpaceOnUse"
       y2="0"
       x2="1"
       y1="0"
       x1="0"><stop
         id="stop750"
         offset="0"
         style="stop-opacity:1;stop-color:#22528c" /><stop
         id="stop752"
         offset="1"
         style="stop-opacity:1;stop-color:#193050" /></linearGradient></defs><g
     transform="matrix(1.3333333,0,0,-1.3333333,0,613.65333)"
     id="g10"><g
       transform="scale(0.1)"
       id="g12"><path
         id="path14"
         style="fill:#af783c;fill-opacity:1;fill-rule:nonzero;stroke:none"
         d="m 18.9023,320.988 c 4.7852,-0.648 11.7383,-0.867 19.1211,-0.867 40.6329,0 62.3636,22.598 62.3636,62.149 0.215,34.539 -19.3362,56.492 -59.3167,56.492 -9.7812,0 -17.168,-0.864 -22.168,-1.961 z M 0,450.5 c 11.5195,1.949 25.207,3.262 40.1992,3.262 27.1602,0 46.4961,-6.532 59.3164,-18.25 13.2544,-11.961 20.8594,-28.903 20.8594,-52.59 0,-23.902 -7.605,-43.461 -21.0742,-56.934 C 85.3945,312.301 62.7969,304.91 34.332,304.91 20.6406,304.91 9.5625,305.559 0,306.648 V 450.5" /><path
         id="path16"
         style="fill:#af783c;fill-opacity:1;fill-rule:nonzero;stroke:none"
         d="m 156.914,358.582 c 0,-23.031 13.035,-40.41 31.723,-40.41 18.254,0 31.945,17.168 31.945,40.848 0,17.812 -8.91,40.199 -31.512,40.199 -22.375,0 -32.156,-20.86 -32.156,-40.637 z m 83.219,1.098 c 0,-38.899 -27.16,-55.848 -52.363,-55.848 -28.25,0 -50.411,20.848 -50.411,54.109 0,34.981 23.25,55.618 52.149,55.618 30.203,0 50.625,-21.95 50.625,-53.879" /><path
         id="path18"
         style="fill:#af783c;fill-opacity:1;fill-rule:nonzero;stroke:none"
         d="m 270.371,411.379 14.125,-53.438 c 2.824,-11.742 5.645,-22.601 7.606,-33.472 h 0.648 c 2.391,10.64 5.867,21.941 9.344,33.242 l 17.168,53.668 h 16.074 l 16.301,-52.578 c 3.91,-12.602 6.953,-23.692 9.343,-34.332 h 0.653 c 1.734,10.64 4.562,21.73 8.039,34.113 l 14.992,52.797 h 18.906 l -33.898,-105.16 h -17.383 l -16.082,50.191 c -3.691,11.731 -6.734,22.16 -9.344,34.551 h -0.433 c -2.606,-12.602 -5.867,-23.469 -9.559,-34.762 l -16.949,-49.98 h -17.383 l -31.723,105.16 h 19.555" /><path
         id="path20"
         style="fill:#af783c;fill-opacity:1;fill-rule:nonzero;stroke:none"
         d="m 422.73,382.922 c 0,11.078 -0.218,19.769 -0.871,28.457 h 16.946 L 439.895,394 h 0.433 c 5.215,9.781 17.383,19.559 34.766,19.559 14.558,0 37.156,-8.688 37.156,-44.758 v -62.582 h -19.121 v 60.621 c 0,16.949 -6.305,31.082 -24.336,31.082 -12.387,0 -22.168,-8.922 -25.645,-19.563 -0.867,-2.398 -1.296,-5.66 -1.296,-8.91 v -63.23 H 422.73 v 76.703" /><path
         id="path22"
         style="fill:#af783c;fill-opacity:1;fill-rule:nonzero;stroke:none"
         d="m 543.355,460.5 h 19.122 V 306.219 H 543.355 V 460.5" /><path
         id="path24"
         style="fill:#af783c;fill-opacity:1;fill-rule:nonzero;stroke:none"
         d="m 606.594,358.582 c 0,-23.031 13.035,-40.41 31.722,-40.41 18.25,0 31.942,17.168 31.942,40.848 0,17.812 -8.91,40.199 -31.508,40.199 -22.379,0 -32.156,-20.86 -32.156,-40.637 z m 83.215,1.098 c 0,-38.899 -27.157,-55.848 -52.364,-55.848 -28.246,0 -50.41,20.848 -50.41,54.109 0,34.981 23.254,55.618 52.149,55.618 30.207,0 50.625,-21.95 50.625,-53.879" /><path
         id="path26"
         style="fill:#af783c;fill-opacity:1;fill-rule:nonzero;stroke:none"
         d="m 769.371,359.891 c -20.859,0.429 -44.543,-3.262 -44.543,-23.692 0,-12.597 8.254,-18.238 17.813,-18.238 13.906,0 22.82,8.687 25.859,17.59 0.656,2.168 0.871,4.351 0.871,6.09 z m 18.465,-28.469 c 0,-9.133 0.441,-18.031 1.523,-25.203 h -17.168 l -1.515,13.25 h -0.653 c -5.867,-8.25 -17.168,-15.637 -32.156,-15.637 -21.301,0 -32.16,14.988 -32.16,30.199 0,25.418 22.598,39.328 63.231,39.11 v 2.179 c 0,8.469 -2.391,24.34 -23.903,24.11 -9.996,0 -20.207,-2.821 -27.597,-7.821 l -4.348,12.821 c 8.691,5.429 21.515,9.129 34.765,9.129 32.161,0 39.981,-21.95 39.981,-42.809 v -39.328" /><path
         id="path28"
         style="fill:#af783c;fill-opacity:1;fill-rule:nonzero;stroke:none"
         d="m 890.426,368.582 c 0,2.379 -0.215,5.648 -0.871,8.039 -2.821,11.949 -13.25,21.938 -27.59,21.938 -19.774,0 -31.512,-17.379 -31.512,-40.411 0,-21.296 10.652,-38.886 31.074,-38.886 12.825,0 24.551,8.687 28.028,22.808 0.656,2.61 0.871,5.211 0.871,8.262 z M 909.332,460.5 V 333.379 c 0,-9.348 0.434,-19.988 0.867,-27.16 h -16.945 l -0.871,18.25 h -0.649 c -5.656,-11.727 -18.254,-20.637 -35.421,-20.637 -25.418,0 -45.196,21.508 -45.196,53.449 -0.215,34.981 21.731,56.278 47.149,56.278 16.3,0 26.945,-7.61 31.73,-15.868 h 0.43 V 460.5 h 18.906" /><path
         id="path30"
         style="fill:#af783c;fill-opacity:1;fill-rule:nonzero;stroke:none"
         d="m 981.293,306.219 v 11.742 l 14.992,14.551 c 36.065,34.328 52.585,52.59 52.585,73.867 0,14.351 -6.74,27.601 -27.82,27.601 -12.81,0 -23.46,-6.511 -29.98,-11.949 l -6.086,13.481 c 9.563,8.027 23.686,14.328 39.766,14.328 30.42,0 43.24,-20.86 43.24,-41.059 0,-26.082 -18.9,-47.152 -48.67,-75.832 l -11.08,-10.429 v -0.438 h 63.22 v -15.863 h -90.167" /><path
         id="path32"
         style="fill:#af783c;fill-opacity:1;fill-rule:nonzero;stroke:none"
         d="m 1110.17,376.18 c 0,-36.719 11.3,-57.578 28.68,-57.578 19.34,0 28.68,22.808 28.68,58.89 0,34.758 -8.69,57.578 -28.68,57.578 -16.51,0 -28.68,-20.418 -28.68,-58.89 z m 76.7,2.179 c 0,-48.019 -18.04,-74.527 -49.11,-74.527 -27.59,0 -46.5,25.848 -46.93,72.566 0,47.594 20.64,73.442 49.32,73.442 29.55,0 46.72,-26.5 46.72,-71.481" /><path
         id="path34"
         style="fill:#af783c;fill-opacity:1;fill-rule:nonzero;stroke:none"
         d="m 1221.67,376.18 c 0,-36.719 11.29,-57.578 28.68,-57.578 19.33,0 28.68,22.808 28.68,58.89 0,34.758 -8.69,57.578 -28.68,57.578 -16.52,0 -28.68,-20.418 -28.68,-58.89 z m 76.69,2.179 c 0,-48.019 -18.03,-74.527 -49.1,-74.527 -27.59,0 -46.5,25.848 -46.94,72.566 0,47.594 20.64,73.442 49.33,73.442 29.55,0 46.71,-26.5 46.71,-71.481" /><path
         id="path36"
         style="fill:#af783c;fill-opacity:1;fill-rule:nonzero;stroke:none"
         d="m 1309.47,279.27 c 4.78,13.039 10.65,36.289 13.04,52.152 l 21.29,2.18 c -5.21,-18.481 -14.77,-42.602 -20.86,-52.801 l -13.47,-1.531" /><path
         id="path38"
         style="fill:#af783c;fill-opacity:1;fill-rule:nonzero;stroke:none"
         d="m 1378.14,376.18 c 0,-36.719 11.3,-57.578 28.68,-57.578 19.34,0 28.68,22.808 28.68,58.89 0,34.758 -8.69,57.578 -28.68,57.578 -16.51,0 -28.68,-20.418 -28.68,-58.89 z m 76.7,2.179 c 0,-48.019 -18.03,-74.527 -49.1,-74.527 -27.6,0 -46.5,25.848 -46.94,72.566 0,47.594 20.65,73.442 49.33,73.442 29.55,0 46.71,-26.5 46.71,-71.481" /><path
         id="path40"
         style="fill:#af783c;fill-opacity:1;fill-rule:nonzero;stroke:none"
         d="m 1489.63,376.18 c 0,-36.719 11.3,-57.578 28.69,-57.578 19.34,0 28.68,22.808 28.68,58.89 0,34.758 -8.69,57.578 -28.68,57.578 -16.52,0 -28.69,-20.418 -28.69,-58.89 z m 76.71,2.179 c 0,-48.019 -18.03,-74.527 -49.11,-74.527 -27.6,0 -46.5,25.848 -46.93,72.566 0,47.594 20.64,73.442 49.32,73.442 29.55,0 46.72,-26.5 46.72,-71.481" /><path
         id="path42"
         style="fill:#af783c;fill-opacity:1;fill-rule:nonzero;stroke:none"
         d="m 1601.13,376.18 c 0,-36.719 11.3,-57.578 28.68,-57.578 19.35,0 28.68,22.808 28.68,58.89 0,34.758 -8.69,57.578 -28.68,57.578 -16.51,0 -28.68,-20.418 -28.68,-58.89 z m 76.7,2.179 c 0,-48.019 -18.03,-74.527 -49.1,-74.527 -27.6,0 -46.5,25.848 -46.94,72.566 0,47.594 20.65,73.442 49.33,73.442 29.55,0 46.71,-26.5 46.71,-71.481" /><path
         id="path44"
         style="fill:#af783c;fill-opacity:1;fill-rule:nonzero;stroke:none"
         d="M 1757.16,421.809 V 370.75 h 49.11 v -13.039 h -49.11 v -51.492 h -13.9 v 51.492 h -49.1 v 13.039 h 49.1 v 51.059 h 13.9" /><path
         id="path46"
         style="fill:#af783c;fill-opacity:1;fill-rule:nonzero;stroke:none"
         d="m 1895.83,348.371 c 0,-2.391 0.23,-4.781 0.88,-6.961 3.48,-13.25 14.77,-22.371 28.68,-22.371 20.21,0 31.94,16.301 31.94,40.41 0,21.082 -10.86,39.11 -31.5,39.11 -12.83,0 -25,-9.118 -28.9,-23.457 -0.66,-2.403 -1.1,-5 -1.1,-8.043 z M 1876.94,460.5 h 18.89 v -66.059 h 0.44 c 6.74,11.731 18.91,19.118 35.85,19.118 26.29,0 44.55,-21.739 44.55,-53.457 0,-37.582 -23.9,-56.27 -47.37,-56.27 -15.2,0 -27.37,5.859 -35.42,19.559 h -0.43 l -1.09,-17.172 h -16.29 c 0.43,7.172 0.87,17.812 0.87,27.16 V 460.5" /><path
         id="path48"
         style="fill:#af783c;fill-opacity:1;fill-rule:nonzero;stroke:none"
         d="m 2000.6,378.57 c 0,12.391 -0.21,23.039 -0.87,32.809 h 16.73 l 0.87,-20.859 h 0.65 c 4.78,14.132 16.52,23.039 29.34,23.039 1.95,0 3.48,-0.219 5.21,-0.438 V 395.09 c -1.96,0.43 -3.91,0.43 -6.52,0.43 -13.48,0 -23.03,-10 -25.64,-24.329 -0.43,-2.609 -0.65,-5.871 -0.65,-8.921 v -56.051 h -19.12 v 72.351" /><path
         id="path50"
         style="fill:#af783c;fill-opacity:1;fill-rule:nonzero;stroke:none"
         d="m 2125.99,359.891 c -20.86,0.429 -44.54,-3.262 -44.54,-23.692 0,-12.597 8.25,-18.238 17.81,-18.238 13.91,0 22.82,8.687 25.86,17.59 0.66,2.168 0.87,4.351 0.87,6.09 z m 18.47,-28.469 c 0,-9.133 0.44,-18.031 1.52,-25.203 h -17.17 l -1.51,13.25 h -0.65 c -5.87,-8.25 -17.17,-15.637 -32.16,-15.637 -21.3,0 -32.16,14.988 -32.16,30.199 0,25.418 22.6,39.328 63.23,39.11 v 2.179 c 0,8.469 -2.39,24.34 -23.9,24.11 -10,0 -20.21,-2.821 -27.6,-7.821 l -4.35,12.821 c 8.69,5.429 21.52,9.129 34.77,9.129 32.16,0 39.98,-21.95 39.98,-42.809 v -39.328" /><path
         id="path52"
         style="fill:#af783c;fill-opacity:1;fill-rule:nonzero;stroke:none"
         d="m 2175.35,382.922 c 0,11.078 -0.22,19.769 -0.87,28.457 h 16.94 L 2192.51,394 h 0.43 c 5.22,9.781 17.39,19.559 34.77,19.559 14.56,0 37.16,-8.688 37.16,-44.758 v -62.582 h -19.12 v 60.621 c 0,16.949 -6.3,31.082 -24.34,31.082 -12.39,0 -22.17,-8.922 -25.64,-19.563 -0.87,-2.398 -1.3,-5.66 -1.3,-8.91 v -63.23 h -19.12 v 76.703" /><path
         id="path54"
         style="fill:#af783c;fill-opacity:1;fill-rule:nonzero;stroke:none"
         d="m 2367.67,368.582 c 0,2.379 -0.21,5.648 -0.87,8.039 -2.82,11.949 -13.25,21.938 -27.59,21.938 -19.77,0 -31.51,-17.379 -31.51,-40.411 0,-21.296 10.65,-38.886 31.07,-38.886 12.83,0 24.56,8.687 28.03,22.808 0.66,2.61 0.87,5.211 0.87,8.262 z m 18.91,91.918 V 333.379 c 0,-9.348 0.43,-19.988 0.87,-27.16 h -16.95 l -0.88,18.25 h -0.64 c -5.65,-11.727 -18.25,-20.637 -35.42,-20.637 -25.42,0 -45.2,21.508 -45.2,53.449 -0.21,34.981 21.73,56.278 47.15,56.278 16.3,0 26.95,-7.61 31.73,-15.868 h 0.43 V 460.5 h 18.91" /><path
         id="path56"
         style="fill:#af783c;fill-opacity:1;fill-rule:nonzero;stroke:none"
         d="m 2464.62,460.5 h 19.13 V 306.219 h -19.13 V 460.5" /><path
         id="path58"
         style="fill:#af783c;fill-opacity:1;fill-rule:nonzero;stroke:none"
         d="m 2527.87,358.582 c 0,-23.031 13.03,-40.41 31.72,-40.41 18.25,0 31.94,17.168 31.94,40.848 0,17.812 -8.91,40.199 -31.51,40.199 -22.38,0 -32.15,-20.86 -32.15,-40.637 z m 83.22,1.098 c 0,-38.899 -27.16,-55.848 -52.37,-55.848 -28.25,0 -50.41,20.848 -50.41,54.109 0,34.981 23.25,55.618 52.14,55.618 30.21,0 50.64,-21.95 50.64,-53.879" /><path
         id="path60"
         style="fill:#af783c;fill-opacity:1;fill-rule:nonzero;stroke:none"
         d="m 2706.07,369.879 c 0,3.262 -0.22,6.082 -1.09,8.48 -3.48,11.301 -12.6,20.422 -26.72,20.422 -18.26,0 -31.29,-15.422 -31.29,-39.761 0,-20.641 10.64,-37.809 31.07,-37.809 11.95,0 22.6,7.391 26.51,19.559 1.08,3.261 1.52,6.949 1.52,10.21 z m 19.12,-48.231 c 0,-24.339 -5,-38.898 -15,-48.238 -10.43,-9.34 -25.19,-12.601 -38.46,-12.601 -12.59,0 -26.5,3.043 -34.98,8.691 l 4.79,14.77 c 6.95,-4.559 17.81,-8.469 30.85,-8.469 19.56,0 33.89,10.211 33.89,36.941 v 11.52 h -0.43 c -5.65,-9.782 -17.16,-17.614 -33.46,-17.614 -26.08,0 -44.76,22.172 -44.76,51.293 0,35.618 23.24,55.618 47.58,55.618 18.25,0 28.03,-9.34 32.81,-18.039 h 0.43 l 0.66,15.859 h 16.95 c -0.65,-7.387 -0.87,-16.078 -0.87,-28.68 v -61.051" /><path
         id="path62"
         style="fill:#af783c;fill-opacity:1;fill-rule:nonzero;stroke:none"
         d="m 2768.68,358.582 c 0,-23.031 13.03,-40.41 31.73,-40.41 18.24,0 31.93,17.168 31.93,40.848 0,17.812 -8.91,40.199 -31.51,40.199 -22.38,0 -32.15,-20.86 -32.15,-40.637 z m 83.22,1.098 c 0,-38.899 -27.16,-55.848 -52.37,-55.848 -28.25,0 -50.41,20.848 -50.41,54.109 0,34.981 23.25,55.618 52.14,55.618 30.21,0 50.64,-21.95 50.64,-53.879" /><path
         id="path64"
         style="fill:#af783c;fill-opacity:1;fill-rule:nonzero;stroke:none"
         d="m 2873.43,325.551 c 5.87,-3.469 15.86,-7.379 25.43,-7.379 13.68,0 20.21,6.738 20.21,15.648 0,9.121 -5.44,13.899 -19.35,19.121 -19.12,6.95 -28.03,17.161 -28.03,29.758 0,16.961 13.91,30.86 36.29,30.86 10.65,0 19.99,-2.829 25.65,-6.52 l -4.57,-13.91 c -4.12,2.613 -11.73,6.301 -21.51,6.301 -11.3,0 -17.38,-6.508 -17.38,-14.328 0,-8.704 6.08,-12.61 19.77,-18.043 18.03,-6.739 27.59,-15.86 27.59,-31.508 0,-18.692 -14.56,-31.719 -39.11,-31.719 -11.51,0 -22.16,3.039 -29.55,7.387 l 4.56,14.332" /><path
         id="path66"
         style="fill:#af783c;fill-opacity:1;fill-rule:nonzero;stroke:none"
         d="m 3008.19,306.219 v 105.16 h 19.12 v -105.16 z m 21.3,134.711 c 0,-6.508 -4.57,-11.719 -12.17,-11.719 -6.95,0 -11.52,5.211 -11.52,11.719 0,6.519 4.78,11.961 11.95,11.961 6.95,0 11.74,-5.219 11.74,-11.961" /><path
         id="path68"
         style="fill:#af783c;fill-opacity:1;fill-rule:nonzero;stroke:none"
         d="m 3059.04,382.922 c 0,11.078 -0.22,19.769 -0.87,28.457 h 16.95 L 3076.21,394 h 0.43 c 5.21,9.781 17.38,19.559 34.76,19.559 14.56,0 37.16,-8.688 37.16,-44.758 v -62.582 h -19.12 v 60.621 c 0,16.949 -6.3,31.082 -24.34,31.082 -12.38,0 -22.16,-8.922 -25.63,-19.563 -0.87,-2.398 -1.31,-5.66 -1.31,-8.91 v -63.23 h -19.12 v 76.703" /><path
         id="path70"
         style="fill:#af783c;fill-opacity:1;fill-rule:nonzero;stroke:none"
         d="m 3233.13,411.379 20.63,-58.879 c 3.48,-9.781 6.31,-18.469 8.48,-27.16 h 0.66 c 2.39,8.691 5.43,17.379 8.9,27.16 l 20.43,58.879 h 19.99 l -41.29,-105.16 h -18.25 l -39.98,105.16 h 20.43" /><path
         id="path72"
         style="fill:#af783c;fill-opacity:1;fill-rule:nonzero;stroke:none"
         d="m 3394.82,369.012 c 0.21,11.949 -5,30.859 -26.5,30.859 -19.57,0 -27.82,-17.601 -29.34,-30.859 z m -56.06,-13.692 c 0.43,-25.851 16.73,-36.5 36.07,-36.5 13.69,0 22.16,2.391 29.11,5.442 l 3.48,-13.703 c -6.73,-3.028 -18.47,-6.727 -35.2,-6.727 -32.37,0 -51.72,21.508 -51.72,53.227 0,31.73 18.69,56.5 49.33,56.5 34.55,0 43.46,-29.989 43.46,-49.317 0,-3.922 -0.22,-6.742 -0.66,-8.922 h -73.87" /><path
         id="path74"
         style="fill:#af783c;fill-opacity:1;fill-rule:nonzero;stroke:none"
         d="m 3511.97,309.91 c -5,-2.379 -16.09,-6.078 -30.21,-6.078 -31.73,0 -52.37,21.508 -52.37,53.668 0,32.371 22.17,56.059 56.5,56.059 11.29,0 21.29,-2.829 26.51,-5.649 l -4.35,-14.558 c -4.56,2.39 -11.73,5 -22.16,5 -24.12,0 -37.15,-18.043 -37.15,-39.77 0,-24.332 15.64,-39.32 36.5,-39.32 10.86,0 18.04,2.597 23.47,5 l 3.26,-14.352" /><path
         id="path76"
         style="fill:#af783c;fill-opacity:1;fill-rule:nonzero;stroke:none"
         d="m 3560.22,436.59 v -25.211 h 27.37 V 396.82 h -27.37 v -56.711 c 0,-13.027 3.69,-20.418 14.34,-20.418 5.21,0 8.26,0.43 11.08,1.297 l 0.87,-14.558 c -3.69,-1.301 -9.56,-2.598 -16.94,-2.598 -8.92,0 -16.09,3.039 -20.65,8.027 -5.21,5.871 -7.39,15.223 -7.39,27.602 v 57.359 h -16.3 v 14.559 h 16.3 v 19.562 l 18.69,5.649" /><path
         id="path78"
         style="fill:#af783c;fill-opacity:1;fill-rule:nonzero;stroke:none"
         d="m 3619.78,358.582 c 0,-23.031 13.04,-40.41 31.72,-40.41 18.26,0 31.94,17.168 31.94,40.848 0,17.812 -8.9,40.199 -31.5,40.199 -22.38,0 -32.16,-20.86 -32.16,-40.637 z m 83.22,1.098 c 0,-38.899 -27.17,-55.848 -52.36,-55.848 -28.25,0 -50.41,20.848 -50.41,54.109 0,34.981 23.24,55.618 52.15,55.618 30.19,0 50.62,-21.95 50.62,-53.879" /><path
         id="path80"
         style="fill:#af783c;fill-opacity:1;fill-rule:nonzero;stroke:none"
         d="m 3727.14,378.57 c 0,12.391 -0.21,23.039 -0.87,32.809 H 3743 l 0.88,-20.859 h 0.65 c 4.78,14.132 16.51,23.039 29.33,23.039 1.96,0 3.48,-0.219 5.22,-0.438 V 395.09 c -1.96,0.43 -3.91,0.43 -6.53,0.43 -13.46,0 -23.02,-10 -25.63,-24.329 -0.44,-2.609 -0.66,-5.871 -0.66,-8.921 v -56.051 h -19.12 v 72.351" /><path
         id="path82"
         style="fill:#af783c;fill-opacity:1;fill-rule:nonzero;stroke:none"
         d="m 3846.25,306.219 v 90.601 h -14.56 v 14.559 h 14.56 v 5 c 0,14.781 3.47,28.25 12.16,36.723 7.18,6.957 16.74,9.777 25.65,9.777 6.95,0 12.6,-1.527 16.3,-3.039 l -2.61,-14.77 c -2.83,1.289 -6.52,2.379 -12.17,2.379 -16.3,0 -20.43,-14.117 -20.43,-30.41 v -5.66 h 25.43 V 396.82 h -25.43 v -90.601 h -18.9" /><path
         id="path84"
         style="fill:#af783c;fill-opacity:1;fill-rule:nonzero;stroke:none"
         d="m 3916.88,358.582 c 0,-23.031 13.04,-40.41 31.73,-40.41 18.24,0 31.93,17.168 31.93,40.848 0,17.812 -8.9,40.199 -31.5,40.199 -22.38,0 -32.16,-20.86 -32.16,-40.637 z m 83.22,1.098 c 0,-38.899 -27.16,-55.848 -52.37,-55.848 -28.24,0 -50.41,20.848 -50.41,54.109 0,34.981 23.25,55.618 52.15,55.618 30.2,0 50.63,-21.95 50.63,-53.879" /><path
         id="path86"
         style="fill:#af783c;fill-opacity:1;fill-rule:nonzero;stroke:none"
         d="m 4024.24,378.57 c 0,12.391 -0.21,23.039 -0.87,32.809 h 16.74 l 0.86,-20.859 h 0.66 c 4.78,14.132 16.51,23.039 29.33,23.039 1.96,0 3.48,-0.219 5.22,-0.438 V 395.09 c -1.96,0.43 -3.92,0.43 -6.52,0.43 -13.47,0 -23.03,-10 -25.64,-24.329 -0.43,-2.609 -0.66,-5.871 -0.66,-8.921 v -56.051 h -19.12 v 72.351" /><path
         id="path88"
         style="fill:#af783c;fill-opacity:1;fill-rule:nonzero;stroke:none"
         d="m 4096.19,382.922 c 0,11.078 -0.43,19.769 -0.87,28.457 h 16.73 l 0.87,-17.16 h 0.65 c 5.87,10 15.64,19.34 33.24,19.34 14.13,0 24.99,-8.688 29.55,-21.079 h 0.44 c 3.26,6.079 7.61,10.43 11.95,13.692 6.3,4.769 13.04,7.387 23.03,7.387 14.13,0 34.77,-9.129 34.77,-45.629 v -61.711 h -18.68 v 59.312 c 0,20.43 -7.61,32.391 -22.82,32.391 -11.08,0 -19.34,-8.051 -22.82,-17.172 -0.87,-2.828 -1.51,-6.078 -1.51,-9.559 v -64.972 h -18.69 v 63.011 c 0,16.731 -7.39,28.692 -21.95,28.692 -11.74,0 -20.64,-9.57 -23.68,-19.121 -1.09,-2.621 -1.52,-6.102 -1.52,-9.352 v -63.23 h -18.69 v 76.703" /><path
         id="path90"
         style="fill:#af783c;fill-opacity:1;fill-rule:nonzero;stroke:none"
         d="m 4332.86,359.891 c -20.86,0.429 -44.54,-3.262 -44.54,-23.692 0,-12.597 8.25,-18.238 17.81,-18.238 13.9,0 22.81,8.687 25.86,17.59 0.65,2.168 0.87,4.351 0.87,6.09 z m 18.46,-28.469 c 0,-9.133 0.44,-18.031 1.53,-25.203 h -17.17 l -1.52,13.25 h -0.65 c -5.87,-8.25 -17.17,-15.637 -32.16,-15.637 -21.3,0 -32.16,14.988 -32.16,30.199 0,25.418 22.6,39.328 63.23,39.11 v 2.179 c 0,8.469 -2.39,24.34 -23.9,24.11 -9.99,0 -20.2,-2.821 -27.6,-7.821 l -4.34,12.821 c 8.69,5.429 21.51,9.129 34.76,9.129 32.16,0 39.98,-21.95 39.98,-42.809 v -39.328" /><path
         id="path92"
         style="fill:#af783c;fill-opacity:1;fill-rule:nonzero;stroke:none"
         d="m 4404.38,436.59 v -25.211 h 27.37 V 396.82 h -27.37 v -56.711 c 0,-13.027 3.69,-20.418 14.34,-20.418 5.21,0 8.26,0.43 11.08,1.297 l 0.87,-14.558 c -3.69,-1.301 -9.56,-2.598 -16.94,-2.598 -8.92,0 -16.09,3.039 -20.65,8.027 -5.21,5.871 -7.39,15.223 -7.39,27.602 v 57.359 h -16.3 v 14.559 h 16.3 v 19.562 l 18.69,5.649" /><path
         id="path94"
         style="fill:#af783c;fill-opacity:1;fill-rule:nonzero;stroke:none"
         d="m 4501.3,306.219 v 90.601 h -14.55 v 14.559 h 14.55 v 5 c 0,14.781 3.48,28.25 12.17,36.723 7.18,6.957 16.74,9.777 25.65,9.777 6.95,0 12.59,-1.527 16.3,-3.039 l -2.61,-14.77 c -2.83,1.289 -6.53,2.379 -12.17,2.379 -16.3,0 -20.43,-14.117 -20.43,-30.41 v -5.66 h 25.43 V 396.82 h -25.43 v -90.601 h -18.91" /><path
         id="path96"
         style="fill:#af783c;fill-opacity:1;fill-rule:nonzero;stroke:none"
         d="m 4571.95,358.582 c 0,-23.031 13.04,-40.41 31.72,-40.41 18.26,0 31.94,17.168 31.94,40.848 0,17.812 -8.91,40.199 -31.5,40.199 -22.39,0 -32.16,-20.86 -32.16,-40.637 z m 83.22,1.098 c 0,-38.899 -27.17,-55.848 -52.36,-55.848 -28.25,0 -50.41,20.848 -50.41,54.109 0,34.981 23.24,55.618 52.15,55.618 30.19,0 50.62,-21.95 50.62,-53.879" /><path
         id="path98"
         style="fill:#af783c;fill-opacity:1;fill-rule:nonzero;stroke:none"
         d="m 4679.31,378.57 c 0,12.391 -0.21,23.039 -0.87,32.809 h 16.73 l 0.88,-20.859 h 0.64 c 4.79,14.132 16.52,23.039 29.34,23.039 1.95,0 3.48,-0.219 5.22,-0.438 V 395.09 c -1.96,0.43 -3.91,0.43 -6.53,0.43 -13.47,0 -23.03,-10 -25.63,-24.329 -0.44,-2.609 -0.66,-5.871 -0.66,-8.921 v -56.051 h -19.12 v 72.351" /><path
         id="path100"
         style="fill:#af783c;fill-opacity:1;fill-rule:nonzero;stroke:none"
         d="m 4798.41,306.219 v 90.601 h -14.55 v 14.559 h 14.55 v 5 c 0,14.781 3.48,28.25 12.17,36.723 7.18,6.957 16.74,9.777 25.65,9.777 6.95,0 12.59,-1.527 16.29,-3.039 l -2.6,-14.77 c -2.84,1.289 -6.53,2.379 -12.17,2.379 -16.3,0 -20.43,-14.117 -20.43,-30.41 v -5.66 h 25.43 V 396.82 h -25.43 v -90.601 h -18.91" /><path
         id="path102"
         style="fill:#af783c;fill-opacity:1;fill-rule:nonzero;stroke:none"
         d="m 4859.92,378.57 c 0,12.391 -0.22,23.039 -0.87,32.809 h 16.73 l 0.88,-20.859 h 0.64 c 4.78,14.132 16.51,23.039 29.34,23.039 1.95,0 3.47,-0.219 5.21,-0.438 V 395.09 c -1.95,0.43 -3.91,0.43 -6.52,0.43 -13.47,0 -23.03,-10 -25.64,-24.329 -0.44,-2.609 -0.65,-5.871 -0.65,-8.921 v -56.051 h -19.12 v 72.351" /><path
         id="path104"
         style="fill:#af783c;fill-opacity:1;fill-rule:nonzero;stroke:none"
         d="m 4995.53,369.012 c 0.22,11.949 -5,30.859 -26.51,30.859 -19.55,0 -27.81,-17.601 -29.33,-30.859 z m -56.06,-13.692 c 0.44,-25.851 16.74,-36.5 36.07,-36.5 13.69,0 22.17,2.391 29.12,5.442 l 3.48,-13.703 c -6.74,-3.028 -18.48,-6.727 -35.21,-6.727 -32.37,0 -51.7,21.508 -51.7,53.227 0,31.73 18.68,56.5 49.31,56.5 34.55,0 43.46,-29.989 43.46,-49.317 0,-3.922 -0.22,-6.742 -0.65,-8.922 h -73.88" /><path
         id="path106"
         style="fill:#af783c;fill-opacity:1;fill-rule:nonzero;stroke:none"
         d="m 5104.42,369.012 c 0.21,11.949 -5,30.859 -26.51,30.859 -19.56,0 -27.82,-17.601 -29.33,-30.859 z m -56.07,-13.692 c 0.44,-25.851 16.74,-36.5 36.08,-36.5 13.69,0 22.17,2.391 29.12,5.442 l 3.48,-13.703 c -6.74,-3.028 -18.48,-6.727 -35.21,-6.727 -32.37,0 -51.71,21.508 -51.71,53.227 0,31.73 18.68,56.5 49.32,56.5 34.55,0 43.46,-29.989 43.46,-49.317 0,-3.922 -0.22,-6.742 -0.65,-8.922 h -73.89" /><path
         id="path108"
         style="fill:#af783c;fill-opacity:1;fill-rule:nonzero;stroke:none"
         d="m 5139.43,317.52 c 0,7.82 5.43,13.691 13.04,13.691 7.6,0 12.82,-5.66 12.82,-13.691 0,-7.829 -5.22,-13.688 -13.26,-13.688 -7.39,0 -12.6,5.859 -12.6,13.688" /><path
         id="path110"
         style="fill:#2d68af;fill-opacity:1;fill-rule:nonzero;stroke:none"
         d="m 1113.75,199.68 h 33.02 v -60.84 h 0.44 c 3.48,4.781 7.82,8.469 13.04,11.082 4.99,2.609 11.08,4.129 17.16,4.129 21.08,0 37.16,-14.559 37.16,-46.719 V 45.4102 h -33.03 v 58.4418 c 0,13.91 -4.78,23.468 -17.16,23.468 -8.7,0 -14.13,-5.64 -16.52,-11.73 -0.87,-1.949 -1.09,-4.781 -1.09,-7.16 V 45.4102 h -33.02 V 199.68" /><path
         id="path112"
         style="fill:#2d68af;fill-opacity:1;fill-rule:nonzero;stroke:none"
         d="m 1298.48,180.34 v -28.68 h 23.68 v -24.34 h -23.68 V 88.8594 c 0,-12.8203 3.26,-18.6797 13.04,-18.6797 4.56,0 6.73,0.2187 9.77,0.8594 l 0.22,-24.9805 c -4.13,-1.5195 -12.17,-2.8281 -21.29,-2.8281 -10.65,0 -19.56,3.6992 -24.99,9.1289 -6.08,6.3008 -9.13,16.5117 -9.13,31.5 V 127.32 h -14.12 v 24.34 h 14.12 v 19.77 l 32.38,8.91" /><path
         id="path114"
         style="fill:#2d68af;fill-opacity:1;fill-rule:nonzero;stroke:none"
         d="m 1399.98,180.34 v -28.68 h 23.68 v -24.34 h -23.68 V 88.8594 c 0,-12.8203 3.26,-18.6797 13.03,-18.6797 4.57,0 6.74,0.2187 9.78,0.8594 l 0.22,-24.9805 c -4.13,-1.5195 -12.17,-2.8281 -21.3,-2.8281 -10.64,0 -19.55,3.6992 -24.98,9.1289 -6.09,6.3008 -9.13,16.5117 -9.13,31.5 V 127.32 h -14.12 v 24.34 h 14.12 v 19.77 l 32.38,8.91" /><path
         id="path116"
         style="fill:#2d68af;fill-opacity:1;fill-rule:nonzero;stroke:none"
         d="m 1497.56,91.0391 c 0,-2.6094 0.22,-4.7774 0.65,-6.9493 2.18,-8.9179 9.78,-15.6484 19.34,-15.6484 14.34,0 22.82,11.9492 22.82,29.9883 0,16.9493 -7.61,29.7613 -22.39,29.7613 -9.34,0 -17.59,-6.949 -19.77,-16.73 -0.43,-1.742 -0.65,-3.91 -0.65,-5.871 z m -33.02,24.9809 c 0,13.91 -0.44,25.652 -0.87,35.64 h 28.68 l 1.52,-14.781 h 0.43 c 7.82,11.09 19.99,17.172 35.42,17.172 23.25,0 44.11,-20.199 44.11,-54.1018 0,-38.6797 -24.56,-56.9375 -48.24,-56.9375 -12.82,0 -22.81,5.2188 -27.6,12.168 h -0.43 V 2.39063 h -33.02 V 116.02" /><path
         id="path118"
         style="fill:#2d68af;fill-opacity:1;fill-rule:nonzero;stroke:none"
         d="m 1614.07,62.7891 c 0,11.7304 8.03,19.9922 19.33,19.9922 11.52,0 19.12,-8.043 19.34,-19.9922 0,-11.2969 -7.61,-19.7774 -19.55,-19.7774 -11.3,0 -19.12,8.4805 -19.12,19.7774 z m 0,70.1909 c 0,11.719 8.03,19.989 19.33,19.989 11.52,0 19.12,-8.039 19.34,-19.989 0,-11.3 -7.61,-19.781 -19.55,-19.781 -11.3,0 -19.12,8.481 -19.12,19.781" /><path
         id="path120"
         style="fill:#2d68af;fill-opacity:1;fill-rule:nonzero;stroke:none"
         d="m 1684.7,36.9297 46.51,157.5313 h 21.94 l -46.5,-157.5313 h -21.95" /><path
         id="path122"
         style="fill:#2d68af;fill-opacity:1;fill-rule:nonzero;stroke:none"
         d="m 1778.37,36.9297 46.51,157.5313 h 21.94 l -46.5,-157.5313 h -21.95" /><path
         id="path124"
         style="fill:#2d68af;fill-opacity:1;fill-rule:nonzero;stroke:none"
         d="m 1904.64,151.66 8.69,-43.668 c 1.96,-10.8709 4.14,-22.6014 5.87,-34.7732 h 0.66 c 1.95,12.1718 5.21,24.121 7.6,34.5512 l 11.29,43.89 h 26.08 l 10.65,-42.379 c 3.04,-12.1599 5.86,-23.8904 7.82,-36.0622 h 0.44 c 1.52,11.9531 3.69,24.121 6.29,36.2932 l 8.91,42.148 h 32.38 L 1998.73,45.4102 h -30.85 l -10,37.1601 c -2.83,10.4297 -4.78,19.9887 -6.96,33.2387 h -0.43 c -1.96,-13.25 -4.13,-23.2504 -6.74,-33.0277 l -10.64,-37.3711 h -31.07 L 1870.96,151.66 h 33.68" /><path
         id="path126"
         style="fill:#2d68af;fill-opacity:1;fill-rule:nonzero;stroke:none"
         d="m 2095.46,151.66 8.7,-43.668 c 1.95,-10.8709 4.13,-22.6014 5.86,-34.7732 h 0.66 c 1.95,12.1718 5.21,24.121 7.6,34.5512 l 11.3,43.89 h 26.07 l 10.65,-42.379 c 3.04,-12.1599 5.86,-23.8904 7.82,-36.0622 h 0.44 c 1.52,11.9531 3.69,24.121 6.29,36.2932 l 8.91,42.148 h 32.38 L 2189.55,45.4102 h -30.85 l -10,37.1601 c -2.83,10.4297 -4.78,19.9887 -6.96,33.2387 h -0.43 c -1.96,-13.25 -4.13,-23.2504 -6.73,-33.0277 l -10.65,-37.3711 h -31.07 L 2061.78,151.66 h 33.68" /><path
         id="path128"
         style="fill:#2d68af;fill-opacity:1;fill-rule:nonzero;stroke:none"
         d="m 2286.28,151.66 8.7,-43.668 c 1.96,-10.8709 4.13,-22.6014 5.86,-34.7732 h 0.66 c 1.95,12.1718 5.21,24.121 7.61,34.5512 l 11.3,43.89 h 26.07 l 10.64,-42.379 c 3.05,-12.1599 5.87,-23.8904 7.83,-36.0622 h 0.44 c 1.51,11.9531 3.69,24.121 6.29,36.2932 l 8.91,42.148 h 32.37 L 2380.38,45.4102 h -30.86 l -9.99,37.1601 c -2.84,10.4297 -4.79,19.9887 -6.96,33.2387 h -0.44 c -1.95,-13.25 -4.13,-23.2504 -6.72,-33.0277 l -10.66,-37.3711 h -31.06 L 2252.61,151.66 h 33.67" /><path
         id="path130"
         style="fill:#2d68af;fill-opacity:1;fill-rule:nonzero;stroke:none"
         d="m 2437.35,63.0117 c 0,11.9492 8.04,20.1992 19.56,20.1992 11.29,0 19.12,-8.039 19.34,-20.1992 0,-11.5195 -7.83,-20 -19.78,-20 -11.08,0 -19.12,8.4805 -19.12,20" /><path
         id="path132"
         style="fill:#2d68af;fill-opacity:1;fill-rule:nonzero;stroke:none"
         d="m 2517.98,199.68 h 33.03 V 45.4102 h -33.03 V 199.68" /><path
         id="path134"
         style="fill:#2d68af;fill-opacity:1;fill-rule:nonzero;stroke:none"
         d="m 2627.51,98.6406 c 0,-18.25 7.61,-31.9297 21.73,-31.9297 13.04,0 21.08,12.8086 21.08,32.1407 0,15.6484 -6.09,31.7304 -21.08,31.7304 -15.64,0 -21.73,-16.301 -21.73,-31.9414 z m 76.92,1.0899 c 0,-38.8907 -27.59,-56.7188 -56.06,-56.7188 -31.07,0 -54.97,20.4297 -54.97,54.7578 0,34.5505 22.6,56.4925 56.93,56.4925 32.38,0 54.1,-22.383 54.1,-54.5315" /><path
         id="path136"
         style="fill:#2d68af;fill-opacity:1;fill-rule:nonzero;stroke:none"
         d="m 2814.85,108.43 c 0,1.949 -0.22,4.121 -0.66,6.07 -2.38,8.691 -8.69,14.559 -17.81,14.559 -12.17,0 -21.73,-10.86 -21.73,-30.2074 0,-15.8516 7.83,-28.2422 21.52,-28.2422 8.69,0 15.42,5.6523 17.59,13.25 0.87,2.6094 1.09,6.0898 1.09,8.9219 z m 33.03,-47.5902 c 0,-20.4296 -4.13,-37.1601 -16.3,-47.8085 C 2820.06,3.03125 2804.2,0 2788.56,0 c -14.13,0 -28.68,2.82031 -38.24,8.03125 l 6.51,25.21095 c 6.74,-3.9219 18.25,-8.043 30.86,-8.043 15.64,0 27.6,8.25 27.6,28.0313 v 6.7383 h -0.44 c -6.3,-8.6875 -16.52,-13.6875 -28.68,-13.6875 -26.29,0 -44.98,21.289 -44.98,51.7187 0,34.32 21.95,56.051 48.24,56.051 14.55,0 23.68,-6.301 29.11,-15.211 h 0.44 l 1.08,12.82 h 28.69 c -0.43,-6.961 -0.87,-15.859 -0.87,-31.719 V 60.8398" /><path
         id="path138"
         style="fill:#2d68af;fill-opacity:1;fill-rule:nonzero;stroke:none"
         d="m 2924.17,98.6406 c 0,-18.25 7.61,-31.9297 21.74,-31.9297 13.03,0 21.08,12.8086 21.08,32.1407 0,15.6484 -6.09,31.7304 -21.08,31.7304 -15.64,0 -21.74,-16.301 -21.74,-31.9414 z m 76.93,1.0899 c 0,-38.8907 -27.6,-56.7188 -56.07,-56.7188 -31.06,0 -54.97,20.4297 -54.97,54.7578 0,34.5505 22.6,56.4925 56.94,56.4925 32.37,0 54.1,-22.383 54.1,-54.5315" /><path
         id="path140"
         style="fill:#2d68af;fill-opacity:1;fill-rule:nonzero;stroke:none"
         d="m 3108.26,110.59 c 0,8.039 -3.48,21.519 -18.68,21.519 -13.91,0 -19.57,-12.828 -20.43,-21.519 z M 3069.37,88 c 0.86,-13.6992 14.55,-20.2109 29.98,-20.2109 11.3,0 20.43,1.5117 29.34,4.5625 l 4.34,-22.3828 c -10.87,-4.5586 -24.12,-6.7383 -38.46,-6.7383 -36.07,0 -56.71,20.8593 -56.71,54.1093 0,26.9412 16.72,56.7112 53.67,56.7112 34.32,0 47.37,-26.731 47.37,-53.02 0,-5.6521 -0.65,-10.6404 -1.09,-13.031 h -68.44" /><path
         id="path142"
         style="fill:#2d68af;fill-opacity:1;fill-rule:nonzero;stroke:none"
         d="m 3213.46,91.0391 c 0,-2.6094 0.23,-4.7774 0.66,-6.9493 2.16,-8.9179 9.77,-15.6484 19.33,-15.6484 14.35,0 22.81,11.9492 22.81,29.9883 0,16.9493 -7.59,29.7613 -22.37,29.7613 -9.34,0 -17.61,-6.949 -19.77,-16.73 -0.43,-1.742 -0.66,-3.91 -0.66,-5.871 z m -33.03,24.9809 c 0,13.91 -0.43,25.652 -0.86,35.64 h 28.68 l 1.52,-14.781 h 0.44 c 7.81,11.09 19.98,17.172 35.41,17.172 23.25,0 44.11,-20.199 44.11,-54.1018 0,-38.6797 -24.55,-56.9375 -48.23,-56.9375 -12.82,0 -22.82,5.2188 -27.6,12.168 h -0.44 V 2.39063 h -33.03 V 116.02" /><path
         id="path144"
         style="fill:#2d68af;fill-opacity:1;fill-rule:nonzero;stroke:none"
         d="m 3331.92,74.0898 c 6.08,-3.6914 18.68,-7.8203 28.47,-7.8203 9.99,0 14.12,3.2618 14.12,8.6914 0,5.6485 -3.26,8.25 -15.43,12.3789 -22.16,7.3907 -30.64,19.3512 -30.42,31.9412 0,19.989 16.95,34.981 43.24,34.981 12.38,0 23.25,-3.032 29.77,-6.293 l -5.65,-22.821 c -4.78,2.614 -14.13,6.094 -23.04,6.094 -8.03,0 -12.59,-3.262 -12.59,-8.48 0,-5.211 4.12,-7.821 17.16,-12.383 20.21,-6.949 28.46,-17.379 28.68,-32.8087 0,-19.9883 -15.42,-34.5586 -45.84,-34.5586 -13.91,0 -26.29,3.2696 -34.34,7.6094 l 5.87,23.4687" /><path
         id="path146"
         style="fill:#2d68af;fill-opacity:1;fill-rule:nonzero;stroke:none"
         d="m 3443.63,63.0117 c 0,11.9492 8.04,20.1992 19.56,20.1992 11.3,0 19.12,-8.039 19.33,-20.1992 0,-11.5195 -7.82,-20 -19.77,-20 -11.08,0 -19.12,8.4805 -19.12,20" /><path
         id="path148"
         style="fill:#2d68af;fill-opacity:1;fill-rule:nonzero;stroke:none"
         d="m 3604.01,48.2305 c -5.87,-2.8203 -16.94,-5 -29.55,-5 -34.33,0 -56.28,21.0781 -56.28,54.3281 0,31.0704 21.3,56.4924 60.84,56.4924 8.69,0 18.25,-1.52 25.2,-4.129 l -5.21,-24.551 c -3.91,1.738 -9.78,3.258 -18.47,3.258 -17.38,0 -28.68,-12.387 -28.46,-29.7774 0,-19.3321 13.03,-29.7618 29.12,-29.7618 7.82,0 13.9,1.3086 18.89,3.4805 l 3.92,-24.3398" /><path
         id="path150"
         style="fill:#2d68af;fill-opacity:1;fill-rule:nonzero;stroke:none"
         d="m 3669.66,98.6406 c 0,-18.25 7.6,-31.9297 21.72,-31.9297 13.05,0 21.09,12.8086 21.09,32.1407 0,15.6484 -6.09,31.7304 -21.09,31.7304 -15.64,0 -21.72,-16.301 -21.72,-31.9414 z m 76.92,1.0899 c 0,-38.8907 -27.6,-56.7188 -56.06,-56.7188 -31.07,0 -54.98,20.4297 -54.98,54.7578 0,34.5505 22.6,56.4925 56.94,56.4925 32.37,0 54.1,-22.383 54.1,-54.5315" /><path
         id="path152"
         style="fill:#2d68af;fill-opacity:1;fill-rule:nonzero;stroke:none"
         d="m 3788.77,117.762 c 0,13.258 -0.43,24.34 -0.86,33.898 h 28.02 l 1.31,-14.34 h 0.66 c 4.56,6.95 14.12,16.942 32.15,16.942 13.91,0 24.55,-7.16 29.12,-18.25 h 0.43 c 4.13,5.66 8.7,10 13.91,13.039 5.86,3.258 12.38,5.211 20.21,5.211 20.42,0 35.85,-14.332 35.85,-46.27 V 45.4102 h -32.16 v 57.8008 c 0,15.418 -4.99,24.34 -15.65,24.34 -7.82,0 -13.03,-5.219 -15.42,-11.531 -0.65,-2.379 -1.09,-5.641 -1.09,-8.469 V 45.4102 h -32.16 V 105.16 c 0,13.262 -4.77,22.391 -15.42,22.391 -8.48,0 -13.48,-6.531 -15.43,-11.742 -1.09,-2.61 -1.31,-5.649 -1.31,-8.477 V 45.4102 h -32.16 v 72.3518" /><path
         id="path154"
         style="fill:#2d68af;fill-opacity:1;fill-rule:nonzero;stroke:none"
         d="m 3987.64,36.9297 46.5,157.5313 h 21.95 L 4009.58,36.9297 h -21.94" /><path
         id="path156"
         style="fill:#e8e8e6;fill-opacity:1;fill-rule:nonzero;stroke:none"
         d="m 2589.07,2528.37 c -320.62,127.72 -601.53,360.35 -787.5,682.35 -186.07,322.34 -248.04,682.32 -198.32,1024.08 270.98,213.95 613.23,341.66 985.36,341.66 372,0 714.33,-127.71 985.32,-341.66 49.75,-341.76 -10.41,-701.74 -196.48,-1024.08 -185.86,-322 -467.63,-554.63 -788.38,-682.35" /><path
         id="path158"
         style="fill:#ffffff;fill-opacity:1;fill-rule:nonzero;stroke:none"
         d="m 2569.39,2549.29 c -320.62,127.73 -601.54,360.36 -787.5,682.36 -186.07,322.34 -248.04,682.32 -198.32,1024.08 270.98,213.95 613.23,341.66 985.37,341.66 371.98,0 714.33,-127.71 985.31,-341.66 49.75,-341.76 -10.42,-701.74 -196.48,-1024.08 -185.86,-322 -467.64,-554.63 -788.38,-682.36" /><path
         id="path160"
         style="fill:none;stroke:#19304f;stroke-width:10;stroke-linecap:butt;stroke-linejoin:miter;stroke-miterlimit:4;stroke-dasharray:none;stroke-opacity:1"
         d="m 2569.39,2549.29 c -320.62,127.73 -601.54,360.36 -787.5,682.36 -186.07,322.34 -248.04,682.32 -198.32,1024.08 270.98,213.95 613.23,341.66 985.37,341.66 371.98,0 714.33,-127.71 985.31,-341.66 49.75,-341.76 -10.42,-701.74 -196.48,-1024.08 -185.86,-322 -467.64,-554.63 -788.38,-682.36 z" /><g
         id="g162"><g
           clip-path="url(#clipPath168)"
           id="g164"><path
             id="path180"
             style="fill:url(#linearGradient178);fill-opacity:1;fill-rule:nonzero;stroke:none"
             d="m 2569.45,2580.51 c 310.42,126.24 582.91,353.01 763.28,665.54 142.05,246.08 209.36,514.33 209.36,779.21 0,71.97 -4.98,143.85 -14.8,214.83 -264.69,205.84 -597.23,328.3 -958.38,328.3 -361.19,0 -693.79,-122.46 -958.28,-328.3 -9.73,-70.06 -14.63,-140.93 -14.63,-211.98 0,-265.71 68.3,-535.02 210.91,-782.06 180.5,-312.53 452.15,-539.3 762.54,-665.54" /></g></g><g
         id="g182"><g
           clip-path="url(#clipPath188)"
           id="g184"><g
             clip-path="url(#clipPath194)"
             id="g190"><g
               transform="matrix(10,0,0,-10,-79331.1,85472.9)"
               id="g196"><path
                 id="path198"
                 style="fill:#193050;fill-opacity:1;fill-rule:nonzero;stroke:none"
                 d="m 8263.5087,8108.7852 c -21.9123,-11.7042 -46.934,-18.342 -73.5089,-18.342 -0.9165,0.044 -1.8492,0.1001 -2.7964,0.1675 26.1838,-0.3008 50.017,4.7691 71.5807,16.0695 1.5889,0.6762 3.1641,1.3779 4.7246,2.105 z" /><path
                 id="path200"
                 style="fill:#193050;fill-opacity:1;fill-rule:nonzero;stroke:none"
                 d="m 8258.7841,8106.6802 c -21.5637,-11.3004 -45.3969,-16.3703 -71.5807,-16.0695 -0.9473,0.067 -1.9083,0.1455 -2.8804,0.2358 25.7927,-0.6006 48.4394,2.9854 69.6544,13.882 1.6153,0.6245 3.2178,1.2754 4.8067,1.9517 z" /><path
                 id="path202"
                 style="fill:#193050;fill-opacity:1;fill-rule:nonzero;stroke:none"
                 d="m 8189.9998,8090.4432 c -31.6771,0 -61.1559,9.4205 -85.7703,25.6238 -0.1421,0.708 -0.3042,1.4097 -0.4805,2.1064 24.1941,-16.4176 52.2441,-27.2053 83.4544,-27.5627 0.9472,-0.067 1.8799,-0.1231 2.7964,-0.1675 z" /><path
                 id="path204"
                 style="fill:#1c385c;fill-opacity:1;fill-rule:nonzero;stroke:none"
                 d="m 8187.2034,8090.6107 c -31.2103,0.3574 -59.2603,11.1451 -83.4544,27.5627 -0.1763,0.6963 -0.3677,1.3877 -0.5684,2.0757 23.7737,-16.632 50.3989,-28.6872 81.1424,-29.4026 0.9721,-0.09 1.9331,-0.1689 2.8804,-0.2358 z" /><path
                 id="path206"
                 style="fill:#193050;fill-opacity:1;fill-rule:nonzero;stroke:none"
                 d="m 8104.2295,8116.067 c -1.7256,1.1357 -3.4273,2.3052 -5.1041,3.5068 -0.1172,0.6846 -0.2412,1.3672 -0.3706,2.0474 1.6392,-1.1758 3.3023,-2.3193 4.9942,-3.4478 0.1763,-0.6967 0.3384,-1.3984 0.4805,-2.1064 z" /><path
                 id="path208"
                 style="fill:#1d3d65;fill-opacity:1;fill-rule:nonzero;stroke:none"
                 d="m 8103.749,8118.1734 c -1.6919,1.1285 -3.355,2.272 -4.9942,3.4478 -0.1294,0.6802 -0.2642,1.3579 -0.4023,2.0337 1.5727,-1.1582 3.1699,-2.2842 4.8281,-3.4058 0.2007,-0.688 0.3921,-1.3794 0.5684,-2.0757 z" /><path
                 id="path210"
                 style="fill:#193050;fill-opacity:1;fill-rule:nonzero;stroke:none"
                 d="m 8099.1254,8119.5738 c -1.6768,1.2017 -3.3286,2.4356 -4.9546,3.7012 -0.092,0.6612 -0.1792,1.3233 -0.2622,1.9864 1.5928,-1.2569 3.207,-2.4649 4.8462,-3.6402 0.1294,-0.6802 0.2534,-1.3628 0.3706,-2.0474 z" /><path
                 id="path212"
                 style="fill:#1c395d;fill-opacity:1;fill-rule:nonzero;stroke:none"
                 d="m 8098.7548,8121.6212 c -1.6392,1.1753 -3.2534,2.3833 -4.8462,3.6402 -0.083,0.6626 -0.1621,1.3262 -0.2369,1.9902 1.5601,-1.2485 3.108,-2.4385 4.6808,-3.5967 0.1381,-0.6758 0.2729,-1.3535 0.4023,-2.0337 z" /><path
                 id="path214"
                 style="fill:#193050;fill-opacity:1;fill-rule:nonzero;stroke:none"
                 d="m 8253.9774,8104.7285 c -21.215,-10.8966 -43.8617,-14.4826 -69.6544,-13.882 -8.3199,0.8575 -16.9235,2.6675 -25.9031,5.7955 19.5353,-5.084 36.3822,-6.6094 52.02,-1.8628 15.2355,1.2358 29.8518,4.6568 43.5375,9.9493 z" /><path
                 id="path216"
                 style="fill:#1d3c63;fill-opacity:1;fill-rule:nonzero;stroke:none"
                 d="m 8184.323,8090.8465 c -30.7435,0.7154 -57.3687,12.7706 -81.1424,29.4026 -1.7959,6.1554 -3.082,12.1364 -4.4424,18.3713 16.963,-19.8132 36.4979,-35.7635 59.6817,-41.9784 8.9796,-3.128 17.5832,-4.938 25.9031,-5.7955 z" /><path
                 id="path218"
                 style="fill:#193050;fill-opacity:1;fill-rule:nonzero;stroke:none"
                 d="m 8210.4399,8094.7792 c -15.6378,-4.7466 -32.4847,-3.2212 -52.02,1.8628 -2.4781,0.8281 -4.9395,1.7773 -7.3917,2.8369 17.6252,-5.9893 32.6927,-8.5943 46.6108,-5.2163 4.3096,0 8.5792,0.1743 12.8009,0.5166 z" /><path
                 id="path220"
                 style="fill:#1c3c63;fill-opacity:1;fill-rule:nonzero;stroke:none"
                 d="m 8158.4199,8096.642 c -23.1838,6.2149 -42.7187,22.1652 -59.6817,41.9784 -0.3584,1.6426 -0.6133,3.3477 -0.8052,5.0835 14.8625,-20.2814 32.2181,-36.8987 53.0952,-44.225 2.4522,-1.0596 4.9136,-2.0088 7.3917,-2.8369 z" /><path
                 id="path222"
                 style="fill:#193050;fill-opacity:1;fill-rule:nonzero;stroke:none"
                 d="m 8197.639,8094.2626 c -13.9181,-3.378 -28.9856,-0.773 -46.6108,5.2163 -6.2325,2.8565 -12.7735,7.0118 -19.1867,11.8307 12.3595,-7.4088 22.5022,-11.9034 31.6654,-11.1925 11.3453,-3.6831 23.2057,-5.8545 34.1321,-5.8545 z" /><path
                 id="path224"
                 style="fill:#1c3b62;fill-opacity:1;fill-rule:nonzero;stroke:none"
                 d="m 8151.0282,8099.4789 c -20.8771,7.3263 -38.2327,23.9436 -53.0952,44.225 -0.5185,4.6842 -0.5791,9.5963 -0.9829,14.1281 9.0513,-20.2917 20.3849,-37.4525 34.8914,-46.5224 6.4132,-4.8189 12.9542,-8.9742 19.1867,-11.8307 z" /><path
                 id="path226"
                 style="fill:#193050;fill-opacity:1;fill-rule:nonzero;stroke:none"
                 d="m 8163.5069,8100.1171 c -9.1632,-0.7109 -19.3059,3.7837 -31.6654,11.1925 -14.8107,11.402 -27.1906,26.8772 -27.3518,42.411 3.3179,-6.3946 5.21,-10.9561 6.5064,-12.1046 2.9302,-16.4786 26.3523,-33.0071 52.5108,-41.4989 z" /><path
                 id="path228"
                 style="fill:#1c3a61;fill-opacity:1;fill-rule:nonzero;stroke:none"
                 d="m 8131.8415,8111.3096 c -14.5065,9.0699 -25.8401,26.2307 -34.8914,46.5224 -0.9893,11.1046 0.078,21.4196 3.2163,31.93 -0.5473,-15.0568 0.7041,-28.2122 4.3233,-36.0414 0.1612,-15.5338 12.5411,-31.009 27.3518,-42.411 z" /><path
                 id="path230"
                 style="fill:#193050;fill-opacity:1;fill-rule:nonzero;stroke:none"
                 d="m 8110.9961,8141.616 c -1.2964,1.1485 -3.1885,5.71 -6.5064,12.1046 -0.078,1.8438 -0.1245,3.7188 -0.1377,5.6212 2.9473,-5.8712 4.546,-10.0148 5.5845,-10.92 0.3106,-2.3179 0.6656,-4.5899 1.0596,-6.8058 z" /><path
                 id="path232"
                 style="fill:#1c385c;fill-opacity:1;fill-rule:nonzero;stroke:none"
                 d="m 8104.4897,8153.7206 c -3.6192,7.8292 -4.8706,20.9846 -4.3233,36.0414 0.3028,1.0141 0.625,2.0303 0.9664,3.0488 -0.8585,-14.0304 0.037,-26.2785 3.2192,-33.469 0.013,-1.9024 0.06,-3.7774 0.1377,-5.6212 z" /><path
                 id="path234"
                 style="fill:#193050;fill-opacity:1;fill-rule:nonzero;stroke:none"
                 d="m 8109.9365,8148.4218 c -1.0385,0.9052 -2.6372,5.0488 -5.5845,10.92 -0.1719,20.4797 2.9024,43.6508 12.6232,62.2593 1.8896,0.7774 3.2554,2.1514 4.4634,4.8975 -13.0529,-22.6125 -14.858,-53.0268 -11.5021,-78.0768 z" /><path
                 id="path236"
                 style="fill:#1b385c;fill-opacity:1;fill-rule:nonzero;stroke:none"
                 d="m 8104.352,8159.3418 c -3.1826,7.1905 -4.0777,19.4386 -3.2192,33.469 3.6343,10.8429 8.168,21.0998 13.7042,30.7679 -0.6021,-1.7178 0.043,-2.9356 2.1382,-1.9776 -9.7208,-18.6085 -12.7951,-41.7796 -12.6232,-62.2593 z" /><path
                 id="path238"
                 style="fill:#193050;fill-opacity:1;fill-rule:nonzero;stroke:none"
                 d="m 8121.4386,8226.4986 c -1.208,-2.7461 -2.5738,-4.1201 -4.4634,-4.8975 11.047,21.0383 26.1389,38.4545 43.6312,51.7778 7.0865,4.8624 14.5353,9.1076 22.2605,12.7111 -24.8137,-13.2775 -46.3168,-33.4271 -61.4283,-59.5914 z" /><path
                 id="path240"
                 style="fill:#1b3456;fill-opacity:1;fill-rule:nonzero;stroke:none"
                 d="m 8116.9752,8221.6011 c -2.0948,-0.958 -2.7403,0.2598 -2.1382,1.9776 5.96,10.4093 13.0826,20.1359 21.4953,29.1751 7.4405,7.7735 15.5851,14.6632 24.2741,20.6251 -17.4923,-13.3233 -32.5842,-30.7395 -43.6312,-51.7778 z" /><path
                 id="path242"
                 style="fill:#1e426e;fill-opacity:1;fill-rule:nonzero;stroke:none"
                 d="m 8103.1806,8120.2491 c -1.7959,6.1554 -3.082,12.1364 -4.4424,18.3713 -1.0698,0.937 -2.086,1.8775 -3.0806,2.8452 0.6807,-5.9995 1.4766,-11.88 2.6949,-17.8107 1.5727,-1.1582 3.1699,-2.2842 4.8281,-3.4058 z" /><path
                 id="path244"
                 style="fill:#1d3d65;fill-opacity:1;fill-rule:nonzero;stroke:none"
                 d="m 8098.3525,8123.6549 c -1.2183,5.9307 -2.0142,11.8112 -2.6949,17.8107 -0.9941,0.9673 -1.9663,1.962 -2.9488,3.0069 0,-5.7632 0.3213,-11.5148 0.9629,-17.2209 1.5601,-1.2485 3.108,-2.4385 4.6808,-3.5967 z" /><path
                 id="path246"
                 style="fill:#1e416c;fill-opacity:1;fill-rule:nonzero;stroke:none"
                 d="m 8098.7382,8138.6204 c 0,0 0,0 0,0 -1.0698,0.9653 -2.086,1.9341 -3.0806,2.9302 0,-0.028 0,-0.057 0,-0.085 0.9946,-0.9677 2.0108,-1.9082 3.0806,-2.8452 z" /><path
                 id="path248"
                 style="fill:#1d3d65;fill-opacity:1;fill-rule:nonzero;stroke:none"
                 d="m 8095.6576,8141.4656 c 0,0.028 0,0.057 0,0.085 -0.9941,0.9956 -1.9663,2.0186 -2.9488,3.0918 0,-0.057 0,-0.1133 0,-0.1699 0.9825,-1.0449 1.9547,-2.0396 2.9488,-3.0069 z" /><path
                 id="path250"
                 style="fill:#1e416c;fill-opacity:1;fill-rule:nonzero;stroke:none"
                 d="m 8098.7382,8138.6204 c -1.3262,6.0748 -1.2344,13.0001 -1.7881,19.2116 -0.5991,0.6401 -1.1533,1.2827 -1.6885,1.9473 -0.047,-5.9747 -0.2637,-12.3258 0.396,-18.2287 0.9946,-0.9961 2.0108,-1.9649 3.0806,-2.9302 z" /><path
                 id="path252"
                 style="fill:#1d3d65;fill-opacity:1;fill-rule:nonzero;stroke:none"
                 d="m 8095.6576,8141.5506 c -0.6597,5.9029 -0.4429,12.254 -0.396,18.2287 -0.5352,0.665 -1.0513,1.3516 -1.5742,2.0806 -0.648,-5.7384 -0.9722,-11.486 -0.9786,-17.2175 0.9825,-1.0732 1.9547,-2.0962 2.9488,-3.0918 z" /><path
                 id="path254"
                 style="fill:#1d406b;fill-opacity:1;fill-rule:nonzero;stroke:none"
                 d="m 8096.9501,8157.832 c -1.085,12.1759 0.3027,23.4035 4.1827,34.9788 -0.126,0.072 -0.2203,0.1446 -0.3008,0.2305 -3.6578,-10.9649 -5.5152,-21.882 -5.5704,-33.262 0.5352,-0.6646 1.0894,-1.3072 1.6885,-1.9473 z" /><path
                 id="path256"
                 style="fill:#1c3c63;fill-opacity:1;fill-rule:nonzero;stroke:none"
                 d="m 8095.2616,8159.7793 c 0.055,11.38 1.9126,22.2971 5.5704,33.262 -0.081,0.086 -0.147,0.1856 -0.2178,0.3106 -3.4356,-10.3561 -5.732,-20.908 -6.9268,-31.492 0.5229,-0.729 1.039,-1.4156 1.5742,-2.0806 z" /><path
                 id="path258"
                 style="fill:#1d3d65;fill-opacity:1;fill-rule:nonzero;stroke:none"
                 d="m 8101.1328,8192.8108 c 3.6924,11.0158 8.3135,21.428 13.9708,31.2318 -0.2407,-0.2315 -0.4639,-0.4659 -0.6782,-0.6954 -5.5694,-9.6495 -10.0871,-19.7941 -13.5934,-30.3059 0.081,-0.086 0.1748,-0.1582 0.3008,-0.2305 z" /><path
                 id="path260"
                 style="fill:#1c385d;fill-opacity:1;fill-rule:nonzero;stroke:none"
                 d="m 8100.832,8193.0413 c 3.5063,10.5118 8.024,20.6564 13.5934,30.3059 -0.2144,-0.2295 -0.42,-0.455 -0.6255,-0.6689 -5.482,-9.4952 -9.8659,-19.3195 -13.1857,-29.3264 0.071,-0.125 0.1372,-0.2247 0.2178,-0.3106 z" /><path
                 id="path262"
                 style="fill:#1b385c;fill-opacity:1;fill-rule:nonzero;stroke:none"
                 d="m 8115.1036,8224.0426 c 5.9058,10.2344 12.941,19.8068 21.2287,28.7112 -0.5152,-0.5381 -1.0269,-1.0801 -1.5352,-1.626 -7.7842,-8.4825 -14.5924,-17.7687 -20.3717,-27.7806 0.2143,0.2295 0.4375,0.4639 0.6782,0.6954 z" /><path
                 id="path264"
                 style="fill:#1b3557;fill-opacity:1;fill-rule:nonzero;stroke:none"
                 d="m 8114.4254,8223.3472 c 5.7793,10.0119 12.5875,19.2981 20.3717,27.7806 -0.5083,-0.5469 -1.0127,-1.0977 -1.5137,-1.6524 -7.2813,-8.0606 -13.8302,-17.008 -19.4835,-26.7971 0.2055,0.2139 0.4111,0.4394 0.6255,0.6689 z" /></g></g></g></g><g
         id="g266"><g
           clip-path="url(#clipPath272)"
           id="g268"><g
             clip-path="url(#clipPath278)"
             id="g274"><g
               transform="matrix(10,0,0,-10,-79331.1,85472.9)"
               id="g280"><path
                 id="path282"
                 style="fill:#193050;fill-opacity:1;fill-rule:nonzero;stroke:none"
                 d="m 8284.8163,8123.61 c 0.2734,3.7599 0.4141,7.5334 0.4141,11.3104 0.165,-0.1641 0.2451,-0.3242 0.374,-0.4859 -0.1289,-3.6075 -0.3867,-7.215 -0.7764,-10.8157 0,0 -0.01,-0.01 -0.012,-0.01 z" /><path
                 id="path284"
                 style="fill:#193050;fill-opacity:1;fill-rule:nonzero;stroke:none"
                 d="m 8285.2304,8134.9204 c 0,10.1214 -0.9825,20.2921 -2.9904,30.369 0.3985,-0.2324 0.627,-0.4316 0.8389,-0.6304 1.7462,-9.9275 2.5284,-19.9669 2.3526,-29.9828 -0.058,0.081 -0.1191,0.1621 -0.2011,0.2442 z" /><path
                 id="path286"
                 style="fill:#1b3354;fill-opacity:1;fill-rule:nonzero;stroke:none"
                 d="m 8285.4315,8134.6762 c 0.1758,10.0159 -0.6064,20.0553 -2.3526,29.9828 0.2119,-0.1987 0.4073,-0.397 0.7393,-0.6265 1.5215,-9.7781 2.1397,-19.689 1.7862,-29.598 -0.065,0.081 -0.1162,0.1612 -0.1729,0.2417 z" /><path
                 id="path288"
                 style="fill:#193050;fill-opacity:1;fill-rule:nonzero;stroke:none"
                 d="m 8282.24,8165.2894 c -2.0069,10.0775 -5.0382,20.0616 -9.135,29.8095 0.7129,-0.3829 1.2901,-0.7598 1.8389,-1.1348 3.6788,-9.5638 6.3889,-19.3785 8.135,-29.3051 -0.2119,0.1988 -0.4404,0.398 -0.8389,0.6304 z" /><path
                 id="path290"
                 style="fill:#1c3a5f;fill-opacity:1;fill-rule:nonzero;stroke:none"
                 d="m 8283.0789,8164.659 c -1.7461,9.9266 -4.4562,19.7413 -8.135,29.3051 0.5489,-0.375 1.0694,-0.7491 1.669,-1.127 3.2599,-9.3797 5.6848,-19.026 7.2053,-28.8046 -0.332,0.2295 -0.5274,0.4278 -0.7393,0.6265 z" /><path
                 id="path292"
                 style="fill:#193050;fill-opacity:1;fill-rule:nonzero;stroke:none"
                 d="m 8273.105,8195.0989 c -2.5294,6.0158 -5.463,11.9417 -8.8127,17.7446 1.1836,-0.1416 1.7871,-0.1875 2.3672,-0.2314 2.8849,-5.6154 5.5929,-11.767 8.2844,-18.648 -0.5488,0.375 -1.126,0.7519 -1.8389,1.1348 z" /><path
                 id="path294"
                 style="fill:#1d3d65;fill-opacity:1;fill-rule:nonzero;stroke:none"
                 d="m 8274.9439,8193.9641 c -2.6915,6.881 -5.3995,13.0326 -8.2844,18.648 0.5811,-0.044 1.1397,-0.088 2.2344,-0.2256 2.4191,-5.4269 4.8664,-11.8031 7.719,-19.5494 -0.5996,0.3779 -1.1201,0.752 -1.669,1.127 z" /><path
                 id="path296"
                 style="fill:#193050;fill-opacity:1;fill-rule:nonzero;stroke:none"
                 d="m 8264.2923,8212.8435 c -8.5472,14.809 -11.5863,21.4391 -16.1167,25.9871 1.5537,-0.07 2.2081,-0.9873 2.8506,-1.9044 5.4934,-5.3263 9.1712,-11.9984 15.6333,-24.3141 -0.5801,0.044 -1.1836,0.09 -2.3672,0.2314 z" /><path
                 id="path298"
                 style="fill:#1d3c63;fill-opacity:1;fill-rule:nonzero;stroke:none"
                 d="m 8266.6595,8212.6121 c -6.4621,12.3157 -10.1399,18.9878 -15.6333,24.3141 0.6417,-0.916 1.2725,-1.832 2.7814,-1.9004 6.424,-6.1027 10.7083,-12.8168 15.0863,-22.6393 -1.0947,0.1377 -1.6533,0.1816 -2.2344,0.2256 z" /><path
                 id="path300"
                 style="fill:#193050;fill-opacity:1;fill-rule:nonzero;stroke:none"
                 d="m 8248.1756,8238.8306 c -4.5304,4.548 -10.5521,7.0139 -25.0662,13.4926 1.9239,0 1.6563,0.4179 1.3887,0.8349 13.725,-6.9269 21.0338,-10.9055 26.5281,-16.2319 -0.6425,0.9171 -1.2969,1.8341 -2.8506,1.9044 z" /><path
                 id="path302"
                 style="fill:#1b375b;fill-opacity:1;fill-rule:nonzero;stroke:none"
                 d="m 8251.0262,8236.9262 c -5.4943,5.3264 -12.8031,9.305 -26.5281,16.2319 -0.2675,0.417 -0.5361,0.835 1.3868,0.835 12.9349,-7.3752 21.4987,-12.8656 27.9227,-18.9673 -1.5089,0.068 -2.1397,0.9844 -2.7814,1.9004 z" /><path
                 id="path304"
                 style="fill:#193050;fill-opacity:1;fill-rule:nonzero;stroke:none"
                 d="m 8284.828,8123.6188 c 1.0908,10.0872 1.1465,20.2266 0.2373,30.2767 0.1035,-0.093 0.2158,-0.1855 0.3447,-0.2807 0.7667,-9.9598 0.5958,-20.004 -0.5791,-29.9931 0,-10e-4 0,0 0,0 z" /><path
                 id="path306"
                 style="fill:#1c3c63;fill-opacity:1;fill-rule:nonzero;stroke:none"
                 d="m 8285.0653,8153.8955 c -1.1983,13.245 -4.0704,26.3338 -8.4524,38.9416 0.3184,-0.1992 0.6563,-0.4004 1.0352,-0.6045 4.1134,-12.5199 6.7492,-25.4954 7.7619,-38.6178 -0.1289,0.095 -0.2412,0.1875 -0.3447,0.2807 z" /><path
                 id="path308"
                 style="fill:#193050;fill-opacity:1;fill-rule:nonzero;stroke:none"
                 d="m 8284.8309,8123.6217 c 1.1749,9.9891 1.3458,20.0333 0.5791,29.9931 0.4024,-1.2955 0.5665,-2.5846 0.668,-3.9635 0.3838,-8.5794 -0.1406,-17.4663 -1.2188,-26.0096 -0.01,-0.01 -0.02,-0.013 -0.028,-0.02 z" /><path
                 id="path310"
                 style="fill:#193050;fill-opacity:1;fill-rule:nonzero;stroke:none"
                 d="m 8284.8592,8123.6417 c 1.0782,8.5433 1.6026,17.4302 1.2188,26.0096 0.1016,-1.3795 0.1387,-2.8487 0.2891,-4.5055 0,-7.198 -0.4981,-14.3862 -1.4805,-21.4836 -0.01,-0.01 -0.019,-0.014 -0.027,-0.02 z" /><path
                 id="path312"
                 style="fill:#1c3c63;fill-opacity:1;fill-rule:nonzero;stroke:none"
                 d="m 8285.41,8153.6148 c -1.0127,13.1224 -3.6485,26.0979 -7.7619,38.6178 1.587,-2.8741 2.6212,-5.7336 3.5089,-8.8016 2.922,-10.948 4.4152,-22.5157 4.921,-33.7797 -0.1015,1.3789 -0.2656,2.668 -0.668,3.9635 z" /><path
                 id="path314"
                 style="fill:#1b375b;fill-opacity:1;fill-rule:nonzero;stroke:none"
                 d="m 8286.078,8149.6513 c -0.5058,11.264 -1.999,22.8317 -4.921,33.7797 0.8877,-3.0679 1.6289,-6.3453 2.63,-10.0559 1.7305,-9.3762 2.5801,-18.8238 2.5801,-28.2293 -0.1504,1.6568 -0.1875,3.126 -0.2891,4.5055 z" /><path
                 id="path316"
                 style="fill:#1e426e;fill-opacity:1;fill-rule:nonzero;stroke:none"
                 d="m 8276.6129,8192.8371 c 0.3184,-0.1992 0.6563,-0.4004 1.0352,-0.6045 -5.1759,13.6967 -9.1624,23.2243 -14.0141,30.8768 -0.2656,0.1231 -0.4629,0.543 -0.6445,0.6348 4.6876,-7.5109 8.5032,-17.0014 13.6234,-30.9071 z" /><path
                 id="path318"
                 style="fill:#1d3f69;fill-opacity:1;fill-rule:nonzero;stroke:none"
                 d="m 8262.9895,8223.7442 c 0.1816,-0.092 0.3789,-0.5117 0.6445,-0.6348 -4.8517,7.6526 -10.5706,13.4291 -19.2115,19.6236 -0.1523,0.041 -0.25,0.057 -0.2959,0.044 8.6126,-5.9894 14.1743,-11.5209 18.8629,-19.0328 z" /><path
                 id="path320"
                 style="fill:#1b375b;fill-opacity:1;fill-rule:nonzero;stroke:none"
                 d="m 8244.1266,8242.777 c -4.9396,3.4356 -10.8831,7.0207 -18.2417,11.2161 0.166,0 0.3936,-0.036 0.6778,-0.1064 7.1418,-4.1261 12.7855,-7.3918 17.8598,-11.1537 -0.1523,0.041 -0.25,0.057 -0.2959,0.044 z" /><path
                 id="path322"
                 style="fill:#1d416d;fill-opacity:1;fill-rule:nonzero;stroke:none"
                 d="m 8277.6481,8192.2326 c -5.1759,13.6967 -9.1624,23.2243 -14.0141,30.8768 1.2501,-1.7442 3.6066,-5.7013 6.1262,-10.301 4.4161,-8.6312 8.0227,-18.2711 11.3968,-29.3774 -0.8877,3.068 -1.9219,5.9275 -3.5089,8.8016 z" /><path
                 id="path324"
                 style="fill:#1d3c64;fill-opacity:1;fill-rule:nonzero;stroke:none"
                 d="m 8281.157,8183.431 c -3.3741,11.1063 -6.9807,20.7462 -11.3968,29.3774 2.5196,-4.5988 5.2023,-9.8402 7.1037,-14.1518 3.0518,-8.3103 5.3507,-16.7661 6.9231,-25.2815 -1.0011,3.7106 -1.7423,6.988 -2.63,10.0559 z" /><path
                 id="path326"
                 style="fill:#1d3f69;fill-opacity:1;fill-rule:nonzero;stroke:none"
                 d="m 8263.634,8223.1094 c -4.8517,7.6526 -10.5706,13.4291 -19.2115,19.6236 0.9141,-0.6152 4.7639,-3.0752 9.0862,-6.6095 6.6116,-7.0647 11.8363,-14.684 16.2515,-23.3151 -2.5196,4.5997 -4.8761,8.5568 -6.1262,10.301 z" /><path
                 id="path328"
                 style="fill:#1c3a5f;fill-opacity:1;fill-rule:nonzero;stroke:none"
                 d="m 8269.7602,8212.8084 c -4.4152,8.6311 -9.6399,16.2504 -16.2515,23.3151 4.3224,-3.5333 9.1175,-8.1419 11.9203,-13.0551 4.5802,-7.9358 8.3831,-16.101 11.4349,-24.4118 -1.9014,4.3116 -4.5841,9.553 -7.1037,14.1518 z" /><path
                 id="path330"
                 style="fill:#1b375a;fill-opacity:1;fill-rule:nonzero;stroke:none"
                 d="m 8244.4225,8242.733 c -5.0743,3.7619 -10.718,7.0276 -17.8598,11.1537 4.7472,-1.169 25.2429,-11.8461 35.1885,-23.5974 0.9121,-1.9922 -1.0841,1.0313 3.6778,-7.2209 -5.6056,9.8265 -19.1783,18.4332 -21.0065,19.6646 z" /></g></g></g></g><path
         id="path332"
         style="fill:#ffffff;fill-opacity:1;fill-rule:nonzero;stroke:none"
         d="m 2569.21,4527.91 c 460.49,0 833.99,-373.49 833.99,-834.02 0,-460.52 -373.5,-834.01 -833.99,-834.01 -460.52,0 -834,373.49 -834,834.01 0,460.53 373.48,834.02 834,834.02" /><path
         id="path334"
         style="fill:#19304f;fill-opacity:1;fill-rule:nonzero;stroke:none"
         d="m 2569.21,4477.33 c -432.61,0 -783.4,-350.82 -783.4,-783.44 0,-432.61 350.79,-783.43 783.4,-783.43 432.6,0 783.38,350.82 783.38,783.43 0,432.62 -350.78,783.44 -783.38,783.44" /><path
         id="path336"
         style="fill:#ffffff;fill-opacity:1;fill-rule:nonzero;stroke:none"
         d="m 2569.21,4448.41 c 416.62,0 754.5,-337.87 754.5,-754.52 0,-416.63 -337.88,-754.51 -754.5,-754.51 -416.63,0 -754.47,337.88 -754.47,754.51 0,416.65 337.84,754.52 754.47,754.52" /><g
         id="g338"><g
           clip-path="url(#clipPath344)"
           id="g340"><path
             id="path352"
             style="fill:url(#radialGradient350);fill-opacity:1;fill-rule:nonzero;stroke:none"
             d="m 2514.21,3146.2 -27.15,259.59 h 164.21 l -27.36,-259.86 c -4.93,-46.25 27.19,-57.81 66.54,-49.92 228.88,46.22 411.45,220.63 469.34,445.09 12.59,48.82 17.39,102.52 -40.74,96.03 l -52.97,-5.98 v 126.63 l 50.66,-6.15 c 49.88,-4.78 56.16,38.16 47.57,76.3 -51.71,230.39 -233.77,411.49 -464.66,461.86 -42.07,9.17 -80.23,-1.7 -74.53,-55.69 l 26.15,-249.81 h -164.33 l 26.34,251.27 c 5.16,49.23 -33.52,62.24 -69.3,54.34 -108.9,-24.08 -209.06,-77.87 -287.62,-148.16 l -39.32,77.96 -99.05,-186.58 h 44.33 c -43.1,-64.26 -74.3,-137.19 -90.47,-215.58 -7.47,-36.3 3.09,-70.88 41.26,-66.84 l 69.88,7.26 v -127.62 l -60.67,7.34 c -43.9,5.24 -57.83,-35.26 -48.05,-78.67 19.46,-86.1 57.1,-165.28 108.72,-233.29 V 3147.9 l 67.12,-0.3 v 103.23 c 82.71,-78.27 187.33,-133.65 303.68,-155.95 31.97,-6.16 64.94,8.28 60.42,51.32" /></g></g><path
         id="path354"
         style="fill:#ffffff;fill-opacity:1;fill-rule:nonzero;stroke:none"
         d="m 2657.05,3149.13 26.89,256.65 h 382.11 v 193.5 l 52.51,6.73 c 27,3.39 24.52,-16.28 11.31,-64.91 -56.57,-207.88 -225.58,-369.35 -437.67,-415.09 -39.83,-9.26 -36.34,12.5 -35.15,23.12" /><path
         id="path356"
         style="fill:#ffffff;fill-opacity:1;fill-rule:nonzero;stroke:none"
         d="m 3113.53,3783.02 -47.48,5.41 v 195.82 h -381.28 l -25.22,240.46 c -2.78,26.26 -1.04,45.71 39.73,35.54 215.1,-49.21 384.68,-217.87 435.35,-432.35 8.92,-38.11 -1.65,-46.73 -21.1,-44.88" /><path
         id="path358"
         style="fill:#ffffff;fill-opacity:1;fill-rule:nonzero;stroke:none"
         d="m 2480.69,3149.32 c 0.92,-9.35 5.13,-31.39 -26.9,-24.98 -118.16,23.89 -223.27,83.54 -303.69,167.3 v 114.14 h 303.69 l 26.9,-256.46" /><path
         id="path360"
         style="fill:#ffffff;fill-opacity:1;fill-rule:nonzero;stroke:none"
         d="m 2478.11,4220.69 -24.76,-236.44 H 2150.1 v 48.84 h 61.02 l -41.58,82.36 c 75.84,69.51 174.07,122.77 280.66,146.26 33.6,7.43 30.33,-17.44 27.91,-41.02" /><path
         id="path362"
         style="fill:#ffffff;fill-opacity:1;fill-rule:nonzero;stroke:none"
         d="m 2020.79,3782.13 c -10.53,-1.28 -27.16,-0.74 -19.33,35.45 15.22,70.4 43.33,136.04 81.51,194.34 v -222.99 l -62.18,-6.8" /><path
         id="path364"
         style="fill:#ffffff;fill-opacity:1;fill-rule:nonzero;stroke:none"
         d="m 2022.29,3606.58 60.68,-7.36 v -223.38 c -36.18,55.3 -63.26,116.98 -78.96,183.17 -10.38,43.25 1.83,49.58 18.28,47.57" /><path
         id="path366"
         style="fill:#ffffff;fill-opacity:1;fill-rule:nonzero;stroke:none"
         d="m 2766.92,3654.99 12.76,0.13 v -2.04 c 0,-6.8 -0.48,-30.2 -16.64,-52.15 -15.39,-20.93 -48.06,-31.78 -78.54,-13.2 -21.8,13.3 -35.08,36.01 -41.89,60.19 -22.43,79.72 21.78,164.24 75.78,162.56 13.75,-0.46 16.84,-1.27 32.54,-10.35 3.66,-2.13 5.71,-3.2 6.09,-3.28 4.58,-0.7 7.96,3.03 11.29,12.69 l 9.71,-0.11 2.32,-78.21 -13.17,-0.27 -0.54,7.32 c -2.19,28.66 -21.72,60.04 -48.14,57.77 -29.92,-2.57 -35.17,-36.66 -37.51,-62.81 -6.61,-75.03 1.23,-119.73 23.56,-134.05 28.96,-18.57 62.33,15.01 62.38,53.6 v 2.21" /><path
         id="path368"
         style="fill:#ffffff;fill-opacity:1;fill-rule:nonzero;stroke:none"
         d="m 2354.38,3665.5 19.18,68.23 19.61,-68.31 z m 223.76,142.07 v -12.84 h 10.08 c 10.65,0 14.97,-9.91 14.97,-23.5 l 0.01,-102.71 -84.41,139.05 h -56.52 v -12.84 h 8.07 c 12.09,0 17.9,-6.97 17.99,-20.05 l -0.09,-151 c -0.09,-33.79 -30.56,-40.3 -40.89,-5.03 l -55.47,188.92 h -11.87 l -48.95,-161.12 c -6.05,-19.92 -11.09,-35.24 -14.31,-40.48 -9.19,-15.16 -21.2,-13.03 -21.2,-13.03 l 4.49,74.35 -13.69,1.55 c -5.86,-33 -18.81,-55.47 -38.84,-67.4 -22.92,-13.65 -42.58,-2.18 -42.68,12.15 l 0.1,168.94 c 0,6.68 4.49,12.2 13.03,12.2 h 9.71 v 12.84 h -82.71 v -12.84 l 7.47,0.03 c 9.09,-0.03 13.27,-6.35 13.38,-14.62 l 0.27,-164.91 c -0.09,-7.98 -2,-15.61 -6.29,-18.36 -3,-1.88 -8.58,-3.85 -14.83,-3.93 v -12.68 h 215.75 v 12.68 h -3.58 c -10.37,0 -20.28,7.42 -13.38,32.5 l 5.82,21.36 48.51,-0.09 7.26,-27.53 c 6.24,-19.37 -0.82,-26.24 -12.01,-26.24 h -5.15 v -12.68 h 146.34 v 12.68 h -4.96 c -13.77,0 -23.32,12.85 -23.24,26.35 l 0.11,130.3 100.16,-169.33 h 13.85 l 0.2,190.2 c 0.01,15.3 6.5,24.27 14.87,24.27 h 8.71 v 12.84 h -66.08" /><path
         id="path370"
         style="fill:#ffffff;fill-opacity:1;fill-rule:nonzero;stroke:none"
         d="m 2920.42,3664.23 18.55,66.13 17.72,-66.13 z m 111.44,-71.35 c -9.47,0 -14.05,10.01 -16.34,17.44 l -61.34,197.23 h -9.35 L 2895.8,3646.4 c -8.37,-27.17 -13.14,-40.11 -19.11,-45.89 -12.67,-12.21 -28.74,-7.83 -28.74,10.64 v 169.76 c 0,7.8 4.59,13.79 12.4,13.79 h 11.01 v 12.85 h -84.83 v -12.85 h 10.38 c 7.52,0 12.67,-5.36 12.67,-14.35 v -168.72 c 0,-12.32 -6.7,-18.75 -15.88,-18.75 h -7.17 v -12.67 h 137.35 v 12.67 h -5.96 c -10.47,0 -15.62,8.25 -12.41,17.9 l 9.84,35.62 h 46.25 l 9.38,-34.97 c 2.56,-9.71 -1.4,-18.55 -9.73,-18.55 h -7.07 v -12.67 h 82.54 v 12.67 h -4.86" /><g
         id="g372"><g
           clip-path="url(#clipPath378)"
           id="g374"><path
             id="path388"
             style="fill:url(#radialGradient386);fill-opacity:1;fill-rule:nonzero;stroke:none"
             d="m 3150.05,4286.48 c 145.04,-150.06 234.34,-354.35 234.34,-579.48 0,-460.53 -373.51,-834.01 -833.99,-834.01 -225.12,0 -429.4,89.28 -579.46,234.31 151.66,-156.89 364.27,-254.51 599.66,-254.51 460.48,0 833.98,373.49 833.98,834.01 0,235.4 -97.61,448.02 -254.53,599.68" /></g></g><g
         id="g390"><g
           clip-path="url(#clipPath396)"
           id="g392"><path
             id="path404"
             style="fill:url(#radialGradient402);fill-opacity:1;fill-rule:nonzero;stroke:none"
             d="m 2579.31,4492.55 c 225.1,0 439.49,-74.12 589.55,-219.17 -151.66,156.91 -364.28,254.53 -599.65,254.53 -460.52,0 -834,-373.49 -834,-834.02 0,-235.4 97.63,-448.03 254.54,-599.69 -145.04,150.06 -219.18,379.61 -219.18,604.74 0,460.53 383.73,793.61 808.74,793.61" /></g></g><g
         id="g406"><g
           clip-path="url(#clipPath412)"
           id="g408"><path
             id="path420"
             style="fill:url(#linearGradient418);fill-opacity:1;fill-rule:nonzero;stroke:none"
             d="m 2393.62,3592.97 v -0.05 c 0.45,0 0.88,0.02 1.31,0.05 h -1.31" /></g></g><g
         id="g422"><g
           clip-path="url(#clipPath428)"
           id="g424"><path
             id="path436"
             style="fill:url(#linearGradient434);fill-opacity:1;fill-rule:nonzero;stroke:none"
             d="m 2794.4,3592.92 h -2.42 v -0.07 h 1.72 c 0.25,0 0.47,0.06 0.7,0.07" /></g></g><g
         id="g438"><g
           clip-path="url(#clipPath444)"
           id="g440"><path
             id="path452"
             style="fill:url(#linearGradient450);fill-opacity:1;fill-rule:nonzero;stroke:none"
             d="m 2961.71,3592.92 h -2.09 v -0.07 h 1.63 c 0.17,0 0.31,0.06 0.46,0.07" /></g></g><g
         id="g454"><g
           clip-path="url(#clipPath460)"
           id="g456"><path
             id="path468"
             style="fill:url(#linearGradient466);fill-opacity:1;fill-rule:nonzero;stroke:none"
             d="m 2718.88,3796.07 c -0.13,-0.01 -0.23,-0.05 -0.35,-0.06 23.81,-1.84 41,-30.98 43.05,-57.77 l 0.54,-7.31 5.43,0.11 -0.52,7.27 c -2.2,28.65 -21.72,60.03 -48.15,57.76" /></g></g><g
         id="g470"><g
           clip-path="url(#clipPath476)"
           id="g472"><path
             id="path484"
             style="fill:url(#linearGradient482);fill-opacity:1;fill-rule:nonzero;stroke:none"
             d="m 2768.65,3809.45 -5.39,0.06 c -2.28,-6.63 -4.61,-10.4 -7.31,-11.93 0.76,-0.4 1.3,-0.66 1.47,-0.7 4.56,-0.69 7.93,3.01 11.23,12.57" /></g></g><g
         id="g486"><g
           clip-path="url(#clipPath492)"
           id="g488"><path
             id="path500"
             style="fill:url(#linearGradient498);fill-opacity:1;fill-rule:nonzero;stroke:none"
             d="m 2648.05,3647.95 c -21.77,77.35 19.2,159.19 70.99,162.47 -0.22,0.01 -0.41,0.02 -0.64,0.03 -54.01,1.67 -98.22,-82.83 -75.79,-162.56 6.81,-24.19 20.1,-46.89 41.89,-60.19 12.1,-7.38 24.53,-10.06 36.1,-9.37 -9.98,0.34 -20.43,3.21 -30.66,9.44 -21.79,13.3 -35.08,36 -41.89,60.18" /></g></g><g
         id="g502"><g
           clip-path="url(#clipPath508)"
           id="g504"><path
             id="path516"
             style="fill:url(#linearGradient514);fill-opacity:1;fill-rule:nonzero;stroke:none"
             d="m 2767.31,3652.81 v 2.2 l -5.45,-0.05 v -2.21 c -0.03,-29.7 -19.78,-56.39 -42.1,-58.68 24.43,-1.93 47.51,26.66 47.55,58.74" /></g></g><g
         id="g518"><g
           clip-path="url(#clipPath524)"
           id="g520"><path
             id="path532"
             style="fill:url(#linearGradient530);fill-opacity:1;fill-rule:nonzero;stroke:none"
             d="m 2322.2,3606 c 3.22,5.24 8.26,20.56 14.31,40.48 l 48.92,161.06 H 2380 l -48.94,-161.12 c -6.05,-19.92 -11.09,-35.24 -14.3,-40.47 -5.26,-8.68 -11.42,-11.69 -15.74,-12.68 l -0.02,-0.3 c 0,0 12.01,-2.13 21.2,13.03" /></g></g><g
         id="g534"><g
           clip-path="url(#clipPath540)"
           id="g536"><path
             id="path548"
             style="fill:url(#linearGradient546);fill-opacity:1;fill-rule:nonzero;stroke:none"
             d="m 2252.96,3601.48 c 19.88,11.84 32.77,34.09 38.69,66.72 l -5.3,0.6 c -5.86,-32.99 -18.81,-55.46 -38.84,-67.39 -6.02,-3.58 -11.81,-5.4 -17.08,-5.92 6.61,-0.51 14.35,1.12 22.53,5.99" /></g></g><g
         id="g550"><g
           clip-path="url(#clipPath556)"
           id="g552"><path
             id="path564"
             style="fill:url(#linearGradient562);fill-opacity:1;fill-rule:nonzero;stroke:none"
             d="m 2603.58,3771.26 c 0,13.59 -4.32,23.5 -14.97,23.5 h -10.07 v 12.78 h -5.45 v -12.84 h 10.07 c 10.65,0 14.98,-9.91 14.98,-23.51 l 0.01,-93.66 5.44,-8.97 -0.01,102.7" /></g></g><g
         id="g566"><g
           clip-path="url(#clipPath572)"
           id="g568"><path
             id="path580"
             style="fill:url(#linearGradient578);fill-opacity:1;fill-rule:nonzero;stroke:none"
             d="m 2493.69,3623.71 0.09,151 c -0.09,13.08 -5.9,20.05 -17.99,20.05 h -8.09 v 12.78 h -5.44 v -12.84 h 8.08 c 12.09,0 17.9,-6.97 17.99,-20.04 l -0.09,-151.02 c -0.04,-16.44 -7.28,-26.35 -15.9,-28.2 10.78,-1.9 21.29,8.44 21.35,28.27" /></g></g><g
         id="g582"><g
           clip-path="url(#clipPath588)"
           id="g584"><path
             id="path596"
             style="fill:url(#linearGradient594);fill-opacity:1;fill-rule:nonzero;stroke:none"
             d="m 2150.41,3592.97 c 6.25,0.08 11.82,2.05 14.81,3.94 4.3,2.74 6.21,10.38 6.3,18.36 l -0.27,164.91 c -0.11,8.27 -4.29,14.58 -13.38,14.61 l -7.46,-0.03 v 12.78 h -5.45 v -12.84 l 7.47,0.03 c 9.09,-0.03 13.27,-6.35 13.38,-14.61 l 0.27,-164.92 c -0.09,-7.98 -2,-15.62 -6.29,-18.36 -3,-1.88 -8.58,-3.84 -14.83,-3.93 v -12.68 l 5.45,0.07 v 12.67" /></g></g><g
         id="g598"><g
           clip-path="url(#clipPath604)"
           id="g600"><path
             id="path612"
             style="fill:url(#linearGradient610);fill-opacity:1;fill-rule:nonzero;stroke:none"
             d="m 2222.63,3794.7 h 5.04 v 0.06 h -4.27 c -0.27,0 -0.5,-0.05 -0.77,-0.06" /></g></g><g
         id="g614"><g
           clip-path="url(#clipPath620)"
           id="g616"><path
             id="path628"
             style="fill:url(#linearGradient626);fill-opacity:1;fill-rule:nonzero;stroke:none"
             d="m 2506.82,3749.63 -0.01,-9.26 94.73,-160.14 h 13.86 v 0.07 h -8.42 l -100.16,169.33" /></g></g><g
         id="g630"><g
           clip-path="url(#clipPath636)"
           id="g632"><path
             id="path644"
             style="fill:url(#linearGradient642);fill-opacity:1;fill-rule:nonzero;stroke:none"
             d="m 2373.96,3733.76 -2.7,-9.62 16.85,-58.68 5.45,-0.01 -19.6,68.31" /></g></g><g
         id="g646"><g
           clip-path="url(#clipPath652)"
           id="g648"><path
             id="path660"
             style="fill:url(#linearGradient658);fill-opacity:1;fill-rule:nonzero;stroke:none"
             d="m 2393.62,3592.92 c -0.09,0 -0.19,-0.01 -0.29,-0.01 h -5.15 v -12.68 h 146.35 v 0.07 h -140.91 v 12.62" /></g></g><g
         id="g662"><g
           clip-path="url(#clipPath668)"
           id="g664"><path
             id="path676"
             style="fill:url(#linearGradient674);fill-opacity:1;fill-rule:nonzero;stroke:none"
             d="m 2939.37,3730.39 -2.79,-9.96 15.05,-56.16 h 5.46 l -17.72,66.12" /></g></g><g
         id="g678"><g
           clip-path="url(#clipPath684)"
           id="g680"><path
             id="path692"
             style="fill:url(#linearGradient690);fill-opacity:1;fill-rule:nonzero;stroke:none"
             d="m 2882.13,3600.54 c 5.97,5.79 10.74,18.73 19.11,45.9 l 49.02,161.08 h -5.43 l -49.03,-161.14 c -8.37,-27.18 -13.14,-40.12 -19.11,-45.89 -3.82,-3.7 -7.94,-5.83 -11.85,-6.57 5.28,-0.95 11.63,1.17 17.29,6.62" /></g></g><g
         id="g694"><g
           clip-path="url(#clipPath700)"
           id="g696"><path
             id="path708"
             style="fill:url(#linearGradient706);fill-opacity:1;fill-rule:nonzero;stroke:none"
             d="m 2791.98,3592.85 h -5.45 v -12.67 l 5.45,0.06 v 12.61" /></g></g><g
         id="g710"><g
           clip-path="url(#clipPath716)"
           id="g712"><path
             id="path724"
             style="fill:url(#linearGradient722);fill-opacity:1;fill-rule:nonzero;stroke:none"
             d="m 2959.62,3592.85 h -5.44 v -12.67 l 5.44,0.06 v 12.61" /></g></g><g
         id="g726"><g
           clip-path="url(#clipPath732)"
           id="g728"><path
             id="path740"
             style="fill:url(#linearGradient738);fill-opacity:1;fill-rule:nonzero;stroke:none"
             d="m 2976.43,3611.47 -9.38,34.97 h -46.26 l -0.02,-0.06 h 40.83 l 9.39,-34.98 c 2.5,-9.52 -1.28,-18.14 -9.28,-18.48 h 4.98 c 8.34,0 12.3,8.83 9.74,18.55" /></g></g><g
         id="g742"><g
           clip-path="url(#clipPath748)"
           id="g744"><path
             id="path756"
             style="fill:url(#linearGradient754);fill-opacity:1;fill-rule:nonzero;stroke:none"
             d="m 2809.98,3611.67 v 168.71 c 0,9 -5.15,14.34 -12.68,14.34 h -10.37 v 12.8 h -5.45 v -12.86 h 10.38 c 7.52,0 12.67,-5.35 12.67,-14.34 V 3611.6 c 0,-11.99 -6.38,-18.35 -15.18,-18.68 h 4.75 c 9.17,0 15.88,6.42 15.88,18.75" /></g></g></g></g></svg>