<?xml version="1.0" encoding="UTF-8" standalone="no"?>
<svg
   xmlns:dc="http://purl.org/dc/elements/1.1/"
   xmlns:cc="http://creativecommons.org/ns#"
   xmlns:rdf="http://www.w3.org/1999/02/22-rdf-syntax-ns#"
   xmlns:svg="http://www.w3.org/2000/svg"
   xmlns="http://www.w3.org/2000/svg"
   viewBox="0 0 800 443.32001"
   height="443.32001"
   width="800"
   xml:space="preserve"
   id="svg2"
   version="1.1"><metadata
     id="metadata8"><rdf:RDF><cc:Work
         rdf:about=""><dc:format>image/svg+xml</dc:format><dc:type
           rdf:resource="http://purl.org/dc/dcmitype/StillImage" /></cc:Work></rdf:RDF></metadata><defs
     id="defs6" /><g
     transform="matrix(1.3333333,0,0,-1.3333333,0,443.32)"
     id="g10"><g
       transform="scale(0.1)"
       id="g12"><path
         id="path14"
         style="fill:#231f20;fill-opacity:1;fill-rule:nonzero;stroke:none"
         d="m 2144.3,1184.4 c -56.32,-16.77 -94.08,5.37 -113.39,66.26 -17.83,56.22 -19.45,127.99 -4.75,215.45 13.37,79.11 33.49,171.44 60.41,276.96 -79.9,-197.44 -128,-298.75 -144.29,-304.01 -24.52,-7.86 -40.59,0.51 -48.44,25.19 -6.34,19.93 -0.55,48.33 17.33,85.1 59.02,145.81 130.37,317.54 214.02,515.24 9.14,19.73 20.08,31.7 32.91,35.83 23.27,7.49 63.44,-13.94 120.47,-64.15 31.78,-27.37 50.47,-49.78 56.04,-67.4 4.08,-12.97 4.89,-29.51 2.31,-49.75 -5.35,-56.07 -15.63,-137.07 -30.84,-242.88 -4.13,-19.48 -4.34,-35.04 -0.59,-46.78 5.2,-16.4 15.18,-19.64 30,-9.77 17.64,13.38 36.92,41.54 57.99,84.5 43.68,88.84 94.04,215.36 151.15,379.56 8.42,25.92 34.18,59.05 77.3,99.36 43.08,40.31 78.92,63.8 107.63,70.46 39.22,9.96 62.87,2.14 70.99,-23.62 7.08,-22.26 6.3,-66.38 -2.24,-132.36 -17.64,-102.5 -36.21,-220.12 -55.74,-352.85 -1.5,-55.93 13.45,-78.91 44.92,-68.81 15.1,4.89 30.46,21.42 45.87,49.64 18.65,34.42 37.07,71.3 55.43,110.73 9.14,19.74 23.01,32.6 41.67,38.62 24.42,7.85 40.22,0.65 47.3,-21.56 3.35,-10.58 -1.6,-31.52 -14.77,-62.89 -73.04,-174.58 -158.28,-308.45 -255.79,-401.8 -23.51,-23.03 -47.47,-38.53 -71.93,-46.37 -36.12,-11.57 -70.48,-6.51 -103.03,15.28 -27.99,19.42 -47.55,46.67 -58.7,81.89 -5.58,17.56 -7.85,34.9 -6.82,52.01 6.12,57.45 16.65,139.6 31.57,246.45 -151.77,-343.17 -269.8,-527.71 -353.99,-553.53" /><path
         id="path16"
         style="fill:#231f20;fill-opacity:1;fill-rule:nonzero;stroke:none"
         d="m 4601.57,3317.11 c 25.71,-8.57 44.75,-32.19 57.07,-70.87 18.62,-58.68 15.69,-116.2 -8.89,-172.56 -24.49,-56.38 -64.08,-93.32 -118.88,-110.93 -33.75,-10.84 -65,-11.58 -93.7,-2.04 -28.6,9.58 -49.51,34.83 -62.58,75.96 -15.96,50.43 -13.07,106.26 8.57,167.54 20.41,57 57.42,94.14 111.07,111.35 37.22,11.98 72.95,12.49 107.34,1.55" /><path
         id="path18"
         style="fill:#231f20;fill-opacity:1;fill-rule:nonzero;stroke:none"
         d="m 1665.61,1935.15 c -97.49,-31.4 -129.94,-36.35 -248.26,-56.18 33.46,104.97 349.25,662.15 441.28,720.16 21.4,13.29 39.11,22.25 53.14,26.75 25.63,8.23 41.22,3.58 46.8,-14 5.17,-16.4 1.34,-42.8 -11.46,-79.21 -32.45,-91.81 -267.41,-534.17 -281.5,-597.52 z m 232.47,57.29 c 151.21,439.71 374.63,928.95 306.16,942.86 -282,57.3 -938.36,-855.12 -1017.79,-1066.24 -101.6,-31.65 -211.903,-23.03 -288.095,-23.03 -57.125,0 -29.14,-155.42 -29.14,-155.42 13.219,-71.23 130.301,-54.82 225.375,-17.4 C 990.531,1438.02 456.148,793.43 213.266,793.43 195.094,793.43 224.105,406.91 66.2148,127.57 -169.215,-288.961 257.273,401.328 807.563,951.629 c 155.953,155.981 526.187,732.561 559.477,772.181 73.11,21.76 230.39,68.29 234.13,56.59 0,0 -226.78,-448.9 -148.29,-625.12 184.33,-413.928 489.25,275.41 500.27,294.62 35.29,61.5 -62.56,19.74 -59.62,50.88 -15.33,-43.39 -92.07,-234.04 -120.14,-131.95 -24.74,89.88 1.76,273.06 71.38,487.73 3.72,11.49 150.75,26.97 154.59,38.62 3.05,9.21 27.93,103.91 31.06,113.2 4.62,13.77 -137.11,-29.86 -132.34,-15.94 z m -2.45,-484.16 c -1.24,-2.89 -1.9,-5.37 -2.1,-7.5 2.52,7.11 3.38,10.27 2.1,7.5" /><path
         id="path20"
         style="fill:#231f20;fill-opacity:1;fill-rule:nonzero;stroke:none"
         d="m 5841.28,2092.06 c -10.81,-0.67 -117.92,24.58 -221.12,91.88 158.53,-7.09 270.23,-88.81 221.12,-91.88 z M 3167.09,1677.89 c -8.09,-2.58 -16.82,-3.49 -26.06,-2.56 -25.94,4.57 -42.09,17.4 -48.91,38.57 -5.16,16.37 -0.31,33.41 14.67,51.12 8.26,10.37 52.87,23.47 133.94,39.19 -10.69,-71.86 -35.18,-113.93 -73.64,-126.32 z m 2384.5,558.63 c -124.68,113.04 -204.55,302.87 -21.65,604.71 64.58,106.63 27.6,198.23 18.73,226.28 -3.35,10.54 -8.47,18.56 -15.29,24.1 -41.8,30.33 -78.32,40.52 -109.81,30.4 -19.82,-6.4 -40.48,-22.04 -62.1,-46.96 -21.61,-24.95 -42.61,-49.74 -63.06,-74.32 -32.16,-36.12 -77.59,-105.39 -136.37,-207.85 -24.94,-42.7 -51.47,-90.55 -79.55,-143.28 19.82,66.84 25.84,111.86 28.45,134.66 26.98,236.34 -137.06,209.9 -159.4,194.76 -27.08,-18.35 -54.67,-52.65 -130.57,-245.68 -38.03,-106.96 -152.77,-334.88 -179.74,-391.65 -30.27,-62.69 -51.78,-96.04 -64.58,-100.2 -10.54,-3.36 -17.69,1.39 -21.86,14.28 -8.88,28.16 -6.82,98.49 6.24,211.12 14.41,120.78 9.73,195.54 6.47,228.61 -21.75,220.68 -169.8,149.3 -210.57,87.21 -13.84,-21.08 -36.55,-57.42 -67.84,-132.18 -27.27,-65.17 -220.43,-537.54 -253.52,-586.9 -6.4,-12.36 -17.39,-23.98 -33.25,-34.84 -15.74,-10.91 -27.17,-15.62 -34.12,-13.9 -21.95,4.52 -31.73,29.12 -29.25,73.87 0.27,15.54 67.87,379.43 87.7,470.65 16.25,5.25 36.9,11.88 61.96,19.93 25.13,8.04 41.65,13.43 49.85,16.07 25.61,8.2 41.43,17.11 47.3,26.75 l 17.1,55.58 c 2.85,11.17 3.35,19.72 1.48,25.53 -6.23,19.86 -58.32,14.02 -156.17,-17.46 4.58,29.92 7.12,44.26 7.47,43.15 5.22,40.38 3.31,74.61 -5.62,102.75 -8.15,25.73 -24.12,47.76 -47.87,65.99 -19.56,13.06 -39.6,25.94 -60.35,38.64 -25.3,15.13 -45.03,20.4 -58.96,15.96 -15.19,-4.88 -25.82,-19.93 -31.96,-45.13 -36.75,-155.27 -57,-241.19 -60.72,-257.85 -3.98,-11.63 -10.45,-27.94 -19.12,-48.81 -76.97,-24.72 -118.22,-50.29 -123.96,-76.66 -2.17,-13.63 -1.75,-25.07 1.27,-34.45 9.3,-29.3 32.49,-37.97 69.88,-25.96 -60.97,-146.63 -207.15,-471.62 -227.04,-489.59 -9.71,30.44 -27.14,61.03 -52.26,91.67 -41.85,51.07 -64.93,79.21 -69.02,84.32 -29.22,43.49 -46.43,73.52 -51.67,89.92 -5.13,16.36 -3.43,33.09 5.24,50.13 8.74,17 32.08,26.44 70.02,28.27 6.19,0.71 12.14,1.97 18.03,3.85 22.2,7.12 40.16,23.19 54.05,48.22 13.84,25.02 16.93,49.73 9.21,74.25 -21.06,66.43 -70.6,87.13 -148.66,62.04 -44.31,-14.27 -91.7,-48.86 -142.31,-103.78 -50.63,-54.92 -93.25,-118.91 -127.84,-191.89 -82.2,-186.25 -140.44,-320.33 -174.74,-402.26 -13.12,-28.65 -7.37,-46.77 17.18,-54.34 25.43,-7.34 45.23,2.92 59.56,30.77 3.92,7.72 35.46,80.42 94.49,218.18 45.81,106.45 82.52,175.02 109.98,205.79 0.62,-38.52 11.98,-90.42 33.93,-155.6 25.66,-73.14 40.28,-125.27 43.79,-156.35 -63.16,-11.3 -105.87,-20.5 -127.91,-27.59 -38.51,-12.37 -73.58,-33.36 -105.33,-62.95 -38.41,-36.84 -48.22,-84.58 -29.64,-143.17 11.16,-35.17 32.18,-67.09 63.1,-95.89 49.67,-47.32 126.29,-39.39 240.46,-17.58 230.81,44.08 409.25,653.37 428.3,705.21 -43.9,-197.53 -58.32,-338.36 -43.18,-422.55 5.72,-34.36 26.1,-61.98 61,-82.99 38.7,-25.1 84.77,-39.41 126.23,-15.67 199.51,114.3 442.93,651.84 463.91,706.96 -23.96,-163.67 -37.05,-261.91 -39.38,-294.9 -5.11,-60.93 -0.83,-112.96 12.95,-156.25 6.67,-21.06 22.26,-39.88 46.83,-56.46 30.94,-20.97 63.93,-25.86 98.94,-14.58 52.45,16.83 119.47,86.69 201.11,209.57 75.84,113.21 194.54,413.43 233.54,507.69 -29.89,-189.08 -48.44,-308.62 -55.67,-358.67 -0.03,-3.85 -7.12,-34.53 -20.96,-91.88 -9.03,-36.43 -10.32,-64.64 -3.99,-84.53 13.64,-43.35 41.48,-58.27 83.44,-44.79 31.46,10.12 63.41,36.82 95.9,80.19 32.49,43.35 56.38,89.45 71.73,138.22 15.36,48.77 46.09,127.74 92.4,236.86 40.33,95.55 68.15,158.37 83.64,188.5 15.45,30.2 33.22,48.48 53.04,54.83 8.1,2.63 13.12,1 14.98,-4.85 1.86,-5.86 1.75,-13.67 -0.31,-23.38 -46.22,-251.24 43.53,-469.05 90.5,-532.92 0.01,-0.01 0.02,-0.02 0.02,-0.03 -56.53,-17.69 -111.72,-38.86 -162.97,-63.14 C 4977.77,2018.92 817.836,603.629 1452.3,801.898 c 801.22,250.322 640.93,-297.609 779.87,-158.617 290.8,290.809 2708.67,1294.839 3180.45,1502.609 3.94,1.74 7.87,3.22 11.81,4.82 152.18,-109.58 575.57,-303.08 575.57,-21.09 0,123.05 -212.53,148.99 -448.41,106.9" /></g></g></svg>