<?xml version="1.0" encoding="utf-8"?>
<!-- Generator: Adobe Illustrator 16.0.0, SVG Export Plug-In . SVG Version: 6.00 Build 0)  -->
<!DOCTYPE svg PUBLIC "-//W3C//DTD SVG 1.1//EN" "http://www.w3.org/Graphics/SVG/1.1/DTD/svg11.dtd">
<svg version="1.1" id="Layer_1" xmlns="http://www.w3.org/2000/svg" xmlns:xlink="http://www.w3.org/1999/xlink" x="0px" y="0px"
	 width="811.579px" height="338.105px" viewBox="0 0 811.579 338.105" enable-background="new 0 0 811.579 338.105"
	 xml:space="preserve">
<g>
	<g>
		<g>
			<polygon fill="#1D1D1C" points="111.315,111.959 40.353,233.351 182.46,233.351 			"/>
		</g>
		<g>
			<polygon fill="#1D1D1C" points="210.688,233.351 299.148,233.351 169.75,11.996 125.412,87.845 			"/>
		</g>
	</g>
	<g>
		<path d="M169.75,314.842c-85.481,0-155.025-69.544-155.025-155.026S84.269,4.791,169.75,4.791
			c85.482,0,155.026,69.544,155.026,155.025S255.232,314.842,169.75,314.842z M169.75,13.791
			c-80.519,0-146.025,65.507-146.025,146.025c0,80.519,65.507,146.026,146.025,146.026c80.519,0,146.026-65.507,146.026-146.026
			C315.776,79.298,250.269,13.791,169.75,13.791z"/>
	</g>
</g>
<g>
	<path fill="#010202" d="M637.67,9.595l-0.182-0.304c0,0-176.793,60.209-154.557,259.853c0,0,150.569,124.443,310.034,0
		l-0.083-0.243C814.127,72.577,643.47,11.608,637.67,9.595z M784.242,263.393c-150.496,117.443-292.599,0-292.599,0
		C470.658,74.977,637.509,18.153,637.509,18.153l0.171,0.286c5.474,1.9,166.534,59.44,146.485,244.724L784.242,263.393z"/>
	<g>
		<polygon fill="#1D1D1C" points="570.915,128.241 489.626,267.299 652.414,267.299 		"/>
		<polygon fill="#1D1D1C" points="684.751,267.299 786.083,267.299 637.854,13.729 587.063,100.617 		"/>
	</g>
</g>
</svg>
