<svg id="Layer_1" xmlns="http://www.w3.org/2000/svg" xmlns:xlink="http://www.w3.org/1999/xlink" viewBox="0 0 150 150" style="enable-background:new 0 0 150 150"><style>.st0{fill:#231f20}</style><image style="overflow:visible;enable-background:new" width="330" height="76" xlink:href="7FC723A6.jpg" transform="matrix(4.429511e-04 0 0 1.948985e-03 1.4235 39.5)"/><path class="st0" d="M124.6 71.3c-.1 6.6 1.3 10.1 6.8 10.1 5.5.0 6.2-6 6.2-10.5.0-4.6-1-9-6.8-9C127.3 61.9 124.7 64.7 124.6 71.3v0zM113.5 99V54.1h11.2v1.8c0 2.4 1 1.4 1.8.5.1-.2 2.6-3.2 8.2-3.2 5.6.0 14.3 3.9 14.3 17.7.0 10.7-5.2 18.5-14.2 18.5-4.9.0-7.8-1.9-8.5-2.7-.7-.8-1.6-.9-1.6.0V99H113.5M27.1 39.6h12.1v31.7c0 5.5-2.3 16.9-19.1 16.9C3.3 88.2 1.5 77.5 1.5 71.5v-5.8h11.7v5.7c0 3.5 2.3 6.8 6.8 6.8 4.4.0 7.1-2.5 7.1-6.6V39.6M64.5 66.5c0-3.3-1.8-6.4-6-6.4-4 0-5.5 2.9-5.5 6.4H64.5zM57.3 52.8c9.5.0 17.8 3.6 17.8 20.4H52.6c0 5.3 2.2 7.5 6.1 7.5 3.9.0 5.2-3.1 5.2-3.1h11c0 4.8-6.6 11.3-16.6 11.2-11.4.0-17-8.4-17-17.2C41.3 63 46.3 52.8 57.3 52.8M100.4 66.5c0-3.3-1.8-6.4-6-6.4-4 0-5.5 2.9-5.5 6.4h11.5zM93.3 52.8c9.5.0 17.8 3.6 17.8 20.4H88.6c0 5.3 2.2 7.5 6.1 7.5 3.9.0 5.2-3.1 5.2-3.1h11c0 4.8-6.6 11.3-16.6 11.2-11.4.0-17-8.4-17-17.2C77.3 63 82.2 52.8 93.3 52.8m48.3 40.8c0-1.8 1.4-3.2 3.2-3.2 1.8.0 3.2 1.4 3.2 3.2.0 1.8-1.4 3.2-3.2 3.2C143 96.8 141.6 95.4 141.6 93.6zM141.2 93.6c0 2 1.6 3.6 3.6 3.6 2 0 3.6-1.6 3.6-3.6.0-2-1.6-3.6-3.6-3.6C142.8 90 141.2 91.6 141.2 93.6"/><path class="st0" d="M146.3 95.4l-.7-1.8c.2-.1.3-.1.4-.3.2-.2.3-.5.3-.7.0-.6-.5-1.1-1.2-1.1h-1.5v3.8h.4v-1.7h1.1l.7 1.7L146.3 95.4v0zM144 93.4V92h1.1c.4.0.7.3.7.6.0.4-.3.7-.8.7H144"/></svg>