<?xml version="1.0" encoding="UTF-8" standalone="no"?>
<svg
   xmlns:dc="http://purl.org/dc/elements/1.1/"
   xmlns:cc="http://creativecommons.org/ns#"
   xmlns:rdf="http://www.w3.org/1999/02/22-rdf-syntax-ns#"
   xmlns:svg="http://www.w3.org/2000/svg"
   xmlns="http://www.w3.org/2000/svg"
   viewBox="0 0 258.66666 258.66666"
   height="258.66666"
   width="258.66666"
   xml:space="preserve"
   id="svg2"
   version="1.1"><metadata
     id="metadata8"><rdf:RDF><cc:Work
         rdf:about=""><dc:format>image/svg+xml</dc:format><dc:type
           rdf:resource="http://purl.org/dc/dcmitype/StillImage" /></cc:Work></rdf:RDF></metadata><defs
     id="defs6" /><g
     transform="matrix(1.3333333,0,0,-1.3333333,0,258.66667)"
     id="g10"><g
       transform="scale(0.1)"
       id="g12"><path
         id="path14"
         style="fill:#ffffff;fill-opacity:1;fill-rule:evenodd;stroke:none"
         d="M 2.59766,1933.23 H 1930.16 V 5.66797 H 2.59766 V 1933.23" /><path
         id="path16"
         style="fill:#3d3838;fill-opacity:1;fill-rule:evenodd;stroke:none"
         d="m 304.566,1662.94 h 132.989 v 224.12 l 88.879,-53.47 84.175,52.01 v -61.92 h 46.45 v 61.79 l 88.859,-52.14 88.172,52.27 v -61.92 h 42.969 v 61.79 l 88.812,-52.14 89.929,52.27 v -61.92 h 41.21 v 61.79 l 88.86,-52.14 86.41,52.27 v -61.92 h 42.97 v 61.79 l 90.57,-52.14 86.46,52.27 v -222.66 h 136.25 l 273.28,-355.09 -5.72,-5.48 -21.35,-22.24 -20.92,-23.63 -20.5,-24.95 -20.07,-26.16 -19.59,-27.33 -19.08,-28.4 -18.52,-29.37 -17.92,-30.31 -17.31,-31.14 -16.63,-31.88 -15.99,-32.546 -15.21,-33.152 -14.43,-33.688 -13.67,-34.094 -12.76,-34.46 -11.9,-34.739 -10.96,-34.957 -10.01,-35.039 -8.98,-35.105 -7.95,-35.063 -6.87,-34.953 -5.72,-34.762 -4.51,-34.504 -3.31,-34.136 -2.06,-33.735 -0.73,-33.234 0.64,-32.656 2.02,-32.032 3.52,-31.285 4.99,-30.504 2.28,-10.101 L 954.184,51.8359 329.578,351.801 l 2.168,8.894 5.496,29.473 4.082,30.316 2.711,31.086 1.414,31.778 0.11,32.398 -1.094,32.934 -2.32,33.386 -3.457,33.774 -4.602,34.074 -5.672,34.289 -6.726,34.442 -7.754,34.523 -8.743,34.484 -9.668,34.395 -10.613,34.203 -11.496,33.965 -12.355,33.621 -13.168,33.195 -13.965,32.699 -14.738,32.12 -15.45,31.45 -16.152,30.7 -16.844,29.89 -17.469,28.96 -18.089,27.97 -18.692,26.92 -19.2498,25.76 -19.7852,24.51 -20.3047,23.2 -20.8164,21.79 -5.3906,5.16 273.6207,364.78" /><path
         id="path18"
         style="fill:#ffffff;fill-opacity:1;fill-rule:evenodd;stroke:none"
         d="m 57.6484,1299.66 256.1136,342.05 53.601,-106.86 h -0.75 L 190.23,1299.66 H 57.6484" /><path
         id="path20"
         style="fill:#e9e8e6;fill-opacity:1;fill-rule:evenodd;stroke:none"
         d="m 313.762,1641.71 44.429,-81.62 -167.961,-260.43 c 67.93,130.93 113.993,196.06 123.532,342.05" /><path
         id="path22"
         style="fill:#e9e8e6;fill-opacity:1;fill-rule:evenodd;stroke:none"
         d="M 953.668,70.4414 358.367,356.313 460.176,422.051 953.668,191.223 V 70.4414" /><path
         id="path24"
         style="fill:#abaaa3;fill-opacity:1;fill-rule:evenodd;stroke:none"
         d="M 953.668,70.4414 C 942.668,174.293 729.676,295.727 460.176,422.051 L 953.668,191.223 V 70.4414" /><path
         id="path26"
         style="fill:#abaaa3;fill-opacity:1;fill-rule:evenodd;stroke:none"
         d="M 1554.37,352.102 954.613,70.4414 V 189.809 l 0.992,-0.473 498.255,226.852 100.51,-64.086" /><path
         id="path28"
         style="fill:#abaaa3;fill-opacity:1;fill-rule:evenodd;stroke:none"
         d="m 1622.21,1642.16 250.9,-340.8 -127.53,0.6 -176.99,233.29 53.62,106.91" /><path
         id="path30"
         style="fill:#ffffff;fill-opacity:1;fill-rule:evenodd;stroke:none"
         d="m 612.523,1814.83 h 46.34 v -227.78 h 174.41 v 227.78 h 45.204 v -227.78 h 174.413 v 227.78 h 45.2 v -227.78 h 174.41 v 227.78 h 45.2 v -227.78 h 174.41 v 53.74 h 131.87 l -56.37,-112.41 H 368.246 l -57.34,112.41 H 438.09 v -53.74 h 174.433 v 227.78" /><path
         id="path32"
         style="fill:#e9e8e6;fill-opacity:1;fill-rule:evenodd;stroke:none"
         d="M 362.336,1533.73 H 1570.44 l 172.09,-226.81 h -3.78 v -8.36 h 3.73 l -29.35,-33.68 -14.34,-17.99 -14.36,-19.44 -14.22,-20.75 -14.05,-22 -13.88,-23.16 -13.66,-24.24 -13.41,-25.18 -13.1,-26.1 -12.77,-26.88 -12.37,-27.6 -12.03,-28.21 -11.56,-28.767 -11.13,-29.219 -10.61,-29.586 -10.14,-29.86 -9.58,-30.058 -8.98,-30.16 -8.43,-30.188 -7.73,-30.125 -7.14,-29.965 -6.44,-29.738 -5.71,-29.406 -4.99,-28.985 -4.21,-28.488 -3.44,-27.89 -2.62,-27.176 -1.8,-26.426 -0.91,-25.523 -0.08,-24.555 0.86,-23.461 3.56,-46.383 -496.969,-226.273 -500.711,234.179 4.277,45.93 1.18,23.012 0.386,24.144 -0.425,25.18 -1.227,26.105 -2,26.922 -2.746,27.649 -3.504,28.273 -4.23,28.836 -4.903,29.258 -5.605,29.605 -6.231,29.883 -6.875,30.059 -7.476,30.117 -8.055,30.102 -8.641,30.015 -9.148,29.817 -9.668,29.543 -10.164,29.152 -10.613,28.701 -11.043,28.15 -11.453,27.5 -11.836,26.79 -12.203,25.93 -12.5,25.05 -12.805,24.02 -13.067,22.92 -13.277,21.72 -13.469,20.43 -13.601,19.04 -13.688,17.57 -31.75,37.02 172.516,230.01" /><path
         id="path34"
         style="fill:#96474c;fill-opacity:1;fill-rule:evenodd;stroke:none"
         d="m 1446.47,740.32 c -25,-111.027 -36.22,-217.699 -27.76,-302.218 L 957.063,227.922 491.652,445.598 c 9.368,81.359 1.008,185.586 -20.238,294.722 z M 379.055,1500.3 H 1553.85 l 148.97,-196.36 C 1599.96,1191.27 1505,977.957 1454.29,773.32 H 464.645 c -44.387,205.11 -132.04,421.13 -231.985,531.82 l 146.395,195.16" /><path
         id="path36"
         style="fill:#c73343;fill-opacity:1;fill-rule:evenodd;stroke:none"
         d="m 450.598,1458.21 328.793,4.22 C 589.531,1442.57 558.66,1424.55 480.07,1416.13 436.219,1371.7 405.047,1340.2 312.645,1275.66 l 137.953,182.55" /><path
         id="path38"
         style="fill:#e9e8e6;fill-opacity:1;fill-rule:evenodd;stroke:none"
         d="m 356.922,357.555 -2.836,1.336 0.434,1.757 5.585,29.997 4.145,30.738 2.75,31.519 1.422,32.164 0.125,32.766 -1.117,33.254 -2.321,33.73 -3.5,34.051 -4.644,34.379 -5.711,34.567 -6.789,34.699 -7.801,34.758 -8.809,34.742 -9.753,34.633 -10.676,34.437 -11.559,34.203 -12.441,33.84 -13.258,33.426 -14.066,32.933 -14.825,32.336 -15.582,31.69 -16.281,30.94 -16.973,30.1 -17.617,29.22 -18.265,28.23 -18.86,27.17 -19.445,26.02 -20.0235,24.79 -20.5586,23.51 -20.0664,21.01 H 196.844 l 31.863,-37.14 13.449,-17.28 13.403,-18.78 13.3,-20.17 13.149,-21.5 12.937,-22.72 12.696,-23.8 12.414,-24.86 12.121,-25.76 11.75,-26.62 11.387,-27.32 10.98,-28 10.566,-28.55 10.098,-29.027 9.625,-29.368 9.109,-29.691 8.571,-29.863 8.039,-29.949 7.433,-29.969 6.832,-29.906 6.211,-29.711 5.563,-29.457 4.898,-29.09 4.192,-28.641 3.457,-28.098 2.75,-27.46 1.976,-26.704 1.223,-25.843 0.434,-24.922 -0.387,-23.848 -1.184,-22.687 -4.535,-48.922 -104.242,-67.289" /><path
         id="path40"
         style="fill:#ffffff;fill-opacity:1;fill-rule:evenodd;stroke:none"
         d="m 356.922,357.555 c -2.836,1.336 -3.391,0.386 -2.402,3.093 94.14,263.055 65.57,535.774 -157.676,939.852 32.164,-37.52 60.027,-72.3 85.164,-114.87 64.262,-108.89 108.797,-233.435 140.293,-355.528 27.648,-107.204 48.273,-222.555 44.582,-333.649 -0.797,-23.976 -3.504,-47.738 -5.719,-71.609 -34.742,-22.43 -69.5,-44.856 -104.242,-67.289" /><path
         id="path42"
         style="fill:#abaaa3;fill-opacity:1;fill-rule:evenodd;stroke:none"
         d="m 1870.75,1301.04 -11.56,-12.06 -21.19,-23.91 -20.75,-25.2 -20.24,-26.41 -19.76,-27.56 -19.21,-28.63 -18.65,-29.61 -18.09,-30.53 -17.41,-31.35 -16.79,-32.1 -16.03,-32.76 -15.34,-33.385 -14.52,-33.879 -13.76,-34.332 -12.84,-34.676 -11.99,-34.957 -11.04,-35.187 -10.06,-35.297 -9.06,-35.348 -8,-35.336 -6.91,-35.214 -5.76,-35.063 -4.55,-34.801 -3.36,-34.484 -2.06,-34.074 -0.73,-33.606 0.6,-33.062 2.06,-32.438 3.57,-31.758 4.99,-30.418 -98.49,62.797 -3.87,50.293 -0.81,23.137 0.04,24.258 0.95,25.265 1.76,26.145 2.58,26.965 3.43,27.695 4.17,28.27 4.94,28.812 5.72,29.219 6.4,29.562 7.05,29.821 7.73,29.972 8.38,30.032 8.94,30.015 9.54,29.903 10.05,29.738 10.61,29.43 11.05,29.07 11.51,28.596 11.95,28.08 12.33,27.43 12.68,26.73 13.02,25.91 13.27,25.03 13.58,24.04 13.75,22.95 13.97,21.8 14.05,20.54 14.13,19.16 14.14,17.75 33.98,39.02 h 125.91" /><path
         id="path44"
         style="fill:#989693;fill-opacity:1;fill-rule:evenodd;stroke:none"
         d="m 1552.31,353.605 c -32.83,20.922 -65.66,41.852 -98.49,62.797 -3.95,51.024 -6.14,98.075 -1.93,149.098 11.39,138.641 50.01,279.277 100.59,408.504 36.78,93.976 82.58,189.856 144.24,270.266 15.13,19.73 31.84,38.03 48.12,56.77 C 1469.38,863.297 1457.26,523.547 1552.31,353.605" /><path
         id="path46"
         style="fill:#e9e8e6;fill-opacity:1;fill-rule:evenodd;stroke:none"
         d="m 656.457,1086.39 c 0,0 40.883,-0.3 47.566,-4.3 6.661,-4.02 10.676,-6.94 21.332,-6.94 10.68,0 16.461,-0.77 11.133,-10.11 -5.328,-9.34 -18.672,-28 -18.672,-28 l -65.355,36.01 c -7.477,6.03 -1.828,10.93 3.996,13.34 z m 476.303,122.48 c -76.65,-1.42 -128.09,-4.14 -204.697,-5.57 0,0 -56.766,4.26 -32.657,46.84 24.145,42.58 34.074,52.51 34.074,52.51 0,0 28.399,32.63 26.981,39.74 -1.414,7.09 0,12.76 11.348,9.93 11.339,-2.84 53.921,1.41 53.921,1.41 0,0 12.77,9.93 4.25,12.77 -4.25,1.41 -11.34,2.86 -17.4,3.91 -6.01,1.07 -10.998,1.78 -10.998,1.78 -3.781,1.42 -7.559,2.84 -11.34,4.26 -7.566,-0.95 -15.129,-1.9 -22.691,-2.84 0,0 -9.965,-1.42 -11.348,9.93 -1.457,11.36 -15.633,22.71 -2.875,21.29 12.805,-1.42 25.567,-9.93 38.328,-9.93 12.764,0 95.094,-1.44 109.274,0 14.18,1.42 119.19,51.09 117.77,68.11 -1.41,17.03 -5.67,18.45 -15.59,14.2 -9.93,-4.28 -31.2,-36.91 -41.17,-45.42 -9.92,-8.5 -42.54,-21.29 -56.76,-19.87 -14.18,1.41 -29.78,15.62 -36.87,15.62 -7.13,0 4.26,0 -24.15,-11.37 -28.36,-11.34 -78.027,-4.25 -78.027,-4.25 0,0 -25.563,19.87 -32.653,19.87 -18.265,-8.7 -90.406,4.53 -83.707,9.92 0,0 -14.218,-7.08 2.84,-9.92 12.676,-6.32 62.344,-20.5 66.688,-17.04 0,0 12.762,-2.83 5.672,-8.5 -7.094,-5.68 -61.02,-12.79 -61.02,-12.79 -3.777,-1.89 -7.558,-3.78 -11.34,-5.67 0,0 -46.855,-1.42 -45.441,-12.76 -0.43,-11.82 3.203,-17.55 15.855,-16.16 5.203,0 35,-9.39 36.676,-9.39 0,0 7.09,-7.09 -1.422,-18.45 -8.508,-11.35 -72.398,-68.13 -72.398,-68.13 0,0 -49.649,-59.6 -48.231,-69.52 1.414,-9.95 -22.711,-18.46 -19.875,-29.8 -5.156,-11.37 -1.98,-48.98 4.25,-48.98 -30.336,0 -60.668,0 -91,0 0,0 -29.629,-7.78 -18.265,-23.4 4.273,-17.96 16.156,-25.35 19.871,-24.13 23.183,-15.62 46.344,-31.21 69.523,-46.83 -22.707,-30.748 -45.394,-61.49 -68.101,-92.232 -24.129,-26.254 -52.985,-47.781 -80.891,-70.235 0,0 -63.871,-53.238 -55.344,-57.492 8.508,-4.25 49.653,8.512 49.653,8.512 0,0 -8.512,-0.734 9.945,24.121 18.457,24.859 28.383,24.859 28.383,24.859 11.816,10.161 23.652,20.329 35.472,30.489 18.454,20.816 36.907,41.633 55.34,62.449 0,0 7.11,8.512 14.2,9.93 7.089,1.414 25.546,41.159 34.054,41.159 8.528,0 52.504,-26.96 52.504,-26.96 0,0 55.348,0 59.602,8.508 4.254,8.507 -24.106,25.542 -24.106,25.542 0,0 -11.367,-17.035 -21.293,-14.199 -9.945,2.836 -45.418,22.709 -45.418,22.709 16.094,14.2 32.164,28.39 48.258,42.58 0,0 32.633,-11.36 42.559,-11.36 9.925,0 103.597,17.03 116.355,17.03 12.805,0 100.762,0 100.762,0 0,0 36.91,-39.74 39.75,-51.08 2.83,-11.35 1.41,-22.715 -5.68,-29.804 -3.56,-3.543 -18.43,-20.645 -34.59,-34.59 -26.12,-22.559 -48.34,-42.559 -69,-63.332 -28.449,-2.84 -76.187,-93.176 -70.941,-89.399 -4.258,2.836 45.418,12.766 45.418,12.766 -0.258,17.355 5.711,33.301 15.551,47.969 4.726,7.047 17.101,5.996 21.871,13.601 23.371,37.254 57.151,66.449 90.281,77.492 0,0 60.75,32.657 56.5,41.165 -4.25,8.507 -27.03,56.592 -7.18,52.342 17.62,11.36 125.3,-37.28 126.63,-46.667 26.04,-35.949 52.03,-71.886 78.08,-107.851 17.22,-47.567 52.2,-84.457 105.01,-110.688 -3.78,11.344 -7.56,22.707 -11.34,34.051 0,0 0.73,21.227 -12.25,23.078 -46.92,6.68 -32.14,8.012 -44.13,41.805 -28.48,32.652 -60.71,81.293 -71.37,113.93 0,0 5.67,12.782 -1.42,21.292 -7.08,8.51 -19.85,14.18 -26.94,17.04 -7.09,2.83 -32.65,22.68 -36.91,32.63 -4.25,9.93 -38.32,105.02 -26.98,109.27 11.38,4.25 13.06,2.23 13.06,2.23 6.49,12.01 -86.11,46.73 -90.75,35.97" /><path
         id="path48"
         style="fill:#ffffff;fill-opacity:1;fill-rule:evenodd;stroke:none"
         d="m 1167.7,1433.21 1.37,0.73 c 7.09,12.97 39.7,32.55 39.4,31.36 l -0.34,2.39 -0.39,1.97 -0.43,1.55 -0.39,1.14 -0.34,0.67 -0.08,0.17 h -0.35 l -0.73,-0.13 -1.07,-0.3 -1.33,-0.45 -1.43,-0.6 -0.51,-0.24 -0.6,-0.38 -0.77,-0.57 -0.91,-0.75 -1.03,-0.88 -1.11,-1.05 -1.16,-1.16 -1.21,-1.29 -1.29,-1.4 c -7.9,-8.85 -14.95,-18.43 -22.52,-27.56 l -1.32,-1.57 -1.29,-1.48 -0.17,-0.17" /><path
         id="path50"
         style="fill:#ffffff;fill-opacity:1;fill-rule:evenodd;stroke:none"
         d="m 1064.1,1421.5 c -0.78,-0.36 -1.64,-1.29 -2.41,-1.77 -26.04,-17.03 -59.98,-17.48 -89.893,-14.93 -0.344,0.05 30.163,-4.35 36.313,-4.38 30.77,-0.02 58.65,20.44 87.01,2.43 -7.13,6.94 -22.73,22.84 -31.02,18.65" /><path
         id="path52"
         style="fill:#ffffff;fill-opacity:1;fill-rule:evenodd;stroke:none"
         d="m 1298.19,994.199 c 0.94,5.453 2.75,10.401 -3.44,16.201 -4.68,4.36 -10.52,7.58 -16.28,10.24 -24.63,11.37 -42.07,26.36 -51.27,52.13 -7.86,21.93 -15.38,44.41 -20.79,67.07 -3.14,13.19 -9.97,32.27 6.57,37.9 1.29,0.43 -14.39,8.38 -16.19,9.22 -7.09,3.3 -53.41,22.06 -59.13,17.83 -4.3,-3.16 -5.71,-1.96 -11.43,-2.07 -59.21,-1.16 -118.34,-3.67 -177.503,-5 l -2.45,-1.89 c 75.843,-12.4 124.953,-10.94 201.563,-11.22 10.79,-0.04 24.06,-8.03 26.64,-18.54 15.82,-64.28 17.23,-77.23 61.41,-126.32 23.84,-13.65 45.03,-28.62 62.3,-45.551" /><path
         id="path54"
         style="fill:#abaaa3;fill-opacity:1;fill-rule:evenodd;stroke:none"
         d="m 795.051,1064.3 c 21.422,-6.55 32.207,-10.96 54.293,-7.65 25.824,3.89 51.558,8.45 77.429,12.29 41.762,6.19 84.347,3.55 126.457,2.73 0.38,-0.02 11.38,-12.61 12.03,-13.36 17.96,-20.42 44.51,-46.73 26.89,-73.326 l 12.81,2.618 c 8.64,55.318 -12.55,77.028 -39.4,108.928 -51.35,-11.39 -104.201,-16.09 -158.81,-12.74 -19.984,-13.9 -81.32,-21.74 -111.699,-19.49" /><path
         id="path56"
         style="fill:#ffffff;fill-opacity:1;fill-rule:evenodd;stroke:none"
         d="m 709.227,1106.07 c -26.946,0.77 -53.973,2.53 -80.872,2.51 -3.437,0 -16.414,-6.68 -15.617,-10.94 0.688,-3.62 9.602,-25.22 15.426,-24.62 0.387,0.05 0.836,0.03 1.352,-0.08 -10.828,37.25 50.507,30.29 79.711,33.13" /><path
         id="path58"
         style="fill:#ffffff;fill-opacity:1;fill-rule:evenodd;stroke:none"
         d="m 922.133,1399.71 c -20.973,-9.84 -47.223,-5.69 -67.547,-15.87 -6.148,-3.05 -12.805,-2.37 -19.637,-3.07 -7.285,-0.73 -32.336,-1.4 -24.082,-14.38 0.903,-1.42 2.985,-1.63 4.508,-1.7 14.246,-0.44 26.707,-5.43 40.453,-9 13.453,-3.5 9.629,-21.31 2.539,-29.71 -16.242,-19.36 -38.113,-37.06 -56.91,-54.01 -12.852,-11.58 -21.488,-21.21 -32.207,-34.93 -8.598,-11.02 -17.402,-22.35 -24.664,-34.29 -5.633,-9.24 -4.231,-16.68 -12.824,-24.61 -10.141,-9.36 -12.035,-10.41 -13.602,-24.01 -0.43,-3.55 -0.344,-33.33 2.832,-33.88 6.727,-1.29 17.793,-2.67 29.028,-4.05 -3.008,12 -9.965,23.64 -9,35.97 0.773,9.65 9.281,17 13.921,25.48 10.418,18.95 17.985,39.77 31.282,56.8 20.496,26.24 46.191,47.96 69.265,71.94 0.989,5.3 2.707,9.92 5.157,13.57 10.652,15.88 8.293,25.49 3.523,42.78 -3.57,12.85 7.645,18.41 57.965,36.97" /><path
         id="path60"
         style="fill:#e9e8e6;fill-opacity:1;fill-rule:evenodd;stroke:none"
         d="m 1294.58,606.582 v -17.961 l -28.14,-30.187 31.71,-23.051 v -85.098 h -3.48 -105.96 -71.2 v 36.477 h 71.2 v 53.816 l -19.55,8.703 29.99,57.301 h -81.64 v 36.481 h 100.76 76.31 0.09 V 606.582 Z M 941.469,476.324 h -59.34 l -7.734,-26.039 h -34.762 l 55.129,185.75 -2.063,7.028 h 4.121 34.766 77.464 l 56.38,-192.778 H 949.074 Z m -48.559,36.477 h 37.856 l -18.774,64.281 z M 608.676,643.063 h 121.558 90.317 V 606.582 H 730.234 V 450.285 H 608.676 v 156.297 36.481" /><path
         id="path62"
         style="fill:#abaaa3;fill-opacity:1;fill-rule:evenodd;stroke:none"
         d="m 1288.31,611.953 v -17.965 l -26.47,-28.398 22,34.652 v 17.961 h 0.12 l 2.67,15.922 1.76,-22.172 z m 3.57,-107.832 V 455.633 H 1185.4 l 98.56,6.25 h 3.45 z M 932.57,481.695 h -56.715 l -7.734,-26.062 c -1.762,10.719 -1.848,18.711 3.266,32.312 z m 86.32,111.328 40.27,-137.39 H 958.012 l 96.678,6.25 z m -204.589,18.93 h -90.317 v -156.32 h -76.011 l 71.539,6.25 v 156.32 c 84.929,0 69.761,-1.887 94.789,-6.25" /><path
         id="path64"
         style="fill:#ffffff;fill-opacity:1;fill-rule:evenodd;stroke:none"
         d="m 1124.13,455.633 c 0,12.16 0,12.695 0,24.859 23.76,0 47.48,0 71.19,0 0,16.414 0,32.824 0,49.242 14.18,-20.175 11.82,-36.828 11.82,-59.062 -23.72,0 -47.48,0 -71.2,0 -3.56,-7.715 -5.63,-10.57 -11.81,-15.039 z m 69.86,89.332 c -4.6,2.019 -9.15,4.062 -13.75,6.098 8.29,15.816 12.12,23.609 20.41,39.449 -1.2,-16.032 -3.09,-27.18 -6.66,-45.547 z m -69.86,67.867 c 0,12.16 0,11.82 0,23.981 59.03,0 93.02,0 152.02,0 0,0 0.08,0 0.13,0 -11.65,-12.313 -135.31,-7.973 -140.34,-9.844 -2.7,-7.586 -5.41,-12.352 -11.81,-14.137 z M 850.719,459.223 c 18.386,61.914 32.269,108.64 50.66,170.562 -0.688,2.34 -1.375,4.684 -2.063,7.028 38.801,0 61.485,0 100.286,0 2.538,-8.684 -81.211,-9.844 -88.469,-9.844 3.652,-12.504 -49.113,-159.176 -60.414,-167.746 z m 53.707,47.324 c 7.738,0 25.265,0 32.957,0 -5.629,19.297 -17.399,52.187 -11.473,72.297 6.278,-21.418 17.016,-60.692 23.285,-82.137 -3.82,0 -47.472,0.715 -44.769,9.84 z M 615.293,636.813 c 70.617,0 118.918,0 189.531,0 -41.976,-8.254 -160.808,-9.844 -177.734,-9.844 0,-27.653 -4.149,-110.578 -11.797,-163.281 0,64.261 0,108.863 0,173.125" /><path
         id="path66"
         style="fill:#e9e8e6;fill-opacity:1;fill-rule:evenodd;stroke:none"
         d="m 1483.77,1837.8 -79.36,-43.12 -78.33,43.1 v -242.37 h 157.69 z m -157.69,14.84 78.33,-45.59 79.36,45.64 v 17.96 l -79.36,-48.64 -78.33,48.64 z m -61.92,-14.84 -79.36,-43.12 -78.34,43.1 v -242.37 h 157.7 z m -157.7,14.84 78.34,-45.59 79.36,45.64 v 17.96 l -79.36,-48.64 -78.34,48.64 z m -61.91,-14.84 -79.366,-43.12 -78.329,43.1 v -242.37 h 157.695 z m -157.695,14.84 78.329,-45.59 79.366,45.64 v 17.96 l -79.366,-48.64 -78.329,48.64 z m -282.691,-14.84 -79.363,-43.12 -78.352,43.1 v -242.37 h 157.715 z m -157.715,14.84 78.352,-45.59 79.363,45.64 v 17.96 l -79.34,-48.64 -78.375,48.64 z m 378.485,-14.84 -79.36,-43.12 -78.351,43.1 v -242.37 h 157.711 z m -157.711,14.84 78.351,-45.59 79.36,45.64 v 17.96 l -79.336,-48.64 -78.375,48.64 v -18.01" /></g></g></svg>