<svg id="Layer_1" xmlns="http://www.w3.org/2000/svg" xmlns:xlink="http://www.w3.org/1999/xlink" viewBox="0 0 150 150" style="enable-background:new 0 0 150 150"><style>.st0{fill:#fff}</style><path d="M51.1 97.1c0 0 0 0 0 0zM14.9 59.1v0 0zM74.8 58.2v0 0zM14.9 59.1v0 0zm0 0c0 0 0 0 0 0z"/><path d="M56.7 1e2c0 0 .2-.4.8-.4h1.7c.2.0.9.2 1.7-.4.0.0.0.0.1-.1 1.3-1 2.5-1.3 3.4-.9.0.0 1.4.2 2.9 1.4.0.0.6.4 1.5.5.1.0 1.1.1 1.7.2.0.0.3.0.4-.2.1-.1 2.6-3 3.1-3.9.2-.1.4-.3.4-.5.0-.2.0-.5-.6-.6-.1.0-2.4-.9-4.6-1-.1.0-.1-.2.0-.2.0.0.1-.1.2-.1 2-1.2 3.3-1.8 4-1.9.0.0.1.0.1.0.1.0.3.0.8.1h.2c.1.0.2.1.4.1 1.1.3 3.7 1 5.6 1 .3.2 1.2.4 1.8.2.0.0.9-.2 1.2-1.2.0.0.5-1.7 2.3-4.2.0.0.1-.1.2-.2 1.8-2.3 3.6-3.8 5.4-4.5.4-.1 3.1-1.1 4.2-1.9.0.0.0.0.0.0 1-.7 4.6-3.5 8.5-10.3.0-.1 1-2.6 4.2-2.5l6.5-.1c.3.1 3.2.6 4.6-1.9.0.0 1.8-4 3.9-3.7.3.0 1.5.2 5.7 1.4.0.0 9.9 2.1 14.8-1.6 1.3-.7 5.4-3.3 4.5-9.4-.1-.6-.4-1-.8-1.2-.5-.2-1.2-.1-2 .3-.1.0-.3.1-.6.2-1.6.5-6.3 2.1-8.4 2-.1.0-.2.0-.4.0-3-.1-6.6-.8-10.7-2 0 0-.2-.1-.3-.1-5-1.5-9-1.3-11.7.6-2.2 1.6-3.4 4.4-3.5 8.3-.3.2-1.5.4-4.7-.9-.2-.1-.6-.4-1.8-1.1-1.5-.9-3.6-2.2-4.9-3.1l-.2-.2c-2.1-1.5-9.3-6-20.8-4.2-.2.0-.5.1-1.3.2-1.3.2-3.6.6-5.6.8-.1.0-.3.0-.9.1-1.4.1-4.7.4-8.4.3-.1.0-.2.0-.4.0-.8.0-3.1.1-4.4-.9.0.0-.1-.1-.1-.1-.1-.1-.3-.4-.3-.6.0-.2.2-.3.4-.4v0c.2-.1.5-.5.5-.8.0-.4-.2-.8-1.5-.9-.4-.1-1.8-.1-3.4.5-.2-.1-.3-.2-.4-.3-.1-.2.0-.6.2-1 .4-.3 1.1-1.1 1.2-1.3.4-.5.6-1.3.4-1.6-.3-.5-1.1-1-4-.9.0.0-4 .3-9.7 2.5.0.0-.8.3-1.1.1-.1.0-.1-.1-.1-.2.1-.3.1-.7-.1-1-.5-.6-2-.6-4.4.0v0c-.3.1-1 .3-3.3 1.3-.2.1-.3.1-.3.1.0.0-.1-.4-.1-.4-.1-.5-.3-.8-.6-1.1-.5-.3-1-.2-1-.2-1.8.5-3.7 1.5-4.9 2.2-.7.4-1.3.8-1.7 1.1-.4.3-.6.4-.7.5v0c-.1.1-.2.1-.3.1-.5-.1-1.1-1.2-1.2-1.4C19.4 47 18.2 47 17.9 47c-3 1.3-2.8 5.3-2.6 6.5v0c0 .3.0.4.0.5-.6.3-5.8 3-6.1 5.8.0.0.0.1.0.1.0.2.0 1.2-.9 3-.5.7-5.7 8.8-5.7 8.8-.8 1.3-.9 2.5-.2 3.4.1.2.7 1.3.7 2 0 0 0 .1.0.1.2.8.9 1.3 1.5 1.7.1.1.4.2 1.1.3.0.0.9.1 1.5.3h.1c.4.1 2.4-.6 2.4-.6 1-.5 1.3-1.1 1.4-1.5v-.1c.2-.6 2.2-4.1 4.5-5.7l.4-.3c.7-.4 2.2-1.3 3.5-2.1.2-.1 4.6-2.6 6.1-4.9l.1-.1c0 0 .7.3.7.3.8.2 9.4 4.2 10.4 9.1l.1.4c0 .5.0 1.5-.4 3.3-.3 1.4-1 5.2-1.2 5.6.0.1-.7 1.7-.4 2.9v0 .1c.3 1.3.7 3 1.3 3.9.0.0.2.7 1.5.6h.1c0 0 .1.0.1.0.2.0.5.0.9-.2.3-.1 3.7-.7 4.6-.7.0.0.0.0.1.0 1.1-.1 4.7-.5 6.8.3.1.1.2.1.3.2.4.3 1.4.8 1.6 1.6v-.1c0 .2.6 1.1 1.9 1.3.1.0.6.2 1.5.5.1.0.3.1.3.3.1.1.0.3-.1.5.0.0-.1.1-.1.1-.9 1-2.3 1.6-4.2 1.7h-.1c-.2.0-.5.0-.9.6-.6.6-2.1 2-1.9 3.1.0.3.2.6.6.8.3.1 6.3.1 7.6-.1C56.6 100.2 56.7 1e2 56.7 1e2v0z"/><path class="st0" d="M143.6 62.3c-5 3.9-14.4 1.6-14.4 1.6-2.2-.6-4.9-1.4-5.8-1.4-2.6-.4-4.2 3.5-4.3 3.8-1.2 2.6-4 1.9-4.1 1.9l-6.6.1c-3.4-.1-4.5 2.6-4.6 2.8-4 6.9-7.7 9.6-8.4 10.1.0.0.0.0.0.0-1.1.7-3.8 1.7-4 1.8-1.9.7-3.8 2.3-5.7 4.7v0l-.2.2c-1.9 2.6-2.4 4.3-2.4 4.4-.2.6-.8.8-.9.9-.5.2-1.3-.1-1.5-.2l-.1-.1c-1.9-.1-4.4-.7-5.5-1-.3-.1-.4-.1-.5-.1-.5-.2-.8-.2-1-.2.0.0-.1.0-.1.0-1.2.1-3.5 1.5-4.2 1.9-.1.0-.2.1-.2.1-.3.2-.6.4-.5.7.1.3.7.4.7.4 2.1.1 4.5.9 4.5 1 .2.1.1.2.1.3h-.1L73.7 96c-.4.8-2.7 3.4-3.1 3.8h-.1c-1.6-.2-1.7-.2-1.7-.2-.8-.1-1.3-.4-1.3-.4-1.5-1.2-2.8-1.4-3-1.5-1.1-.5-2.5-.1-3.9.9.0.0-.7.6-1.3.4h-1.8c-.7.0-1 .4-1.2.7-1.6.2-6.6.2-7.2.2-.2-.1-.3-.2-.3-.4-.1-.7.9-1.9 1.8-2.7v0c0 0 .1-.1.1-.1.2-.3.3-.4.5-.4.0.0.1.0.1.0 2-.1 3.5-.7 4.5-1.8v0l.1-.2c.2-.3.3-.7.2-.9-.2-.4-.6-.5-.7-.6-.5-.1-1-.3-1.5-.5v0 0c-1.1-.1-1.5-.9-1.5-.9v0c-.3-1.1-1.3-1.6-1.8-1.9.0.0-.1-.1-.1-.1v-.1l-.2-.1c-2.2-.9-6-.5-7.1-.4.0.0.0.0.0.0-.6.1-2.2.3-2.7.4-1.3.2-1.8.3-2 .4C38.1 90 37.9 90 37.7 90c-.1.0-.1.0-.2.0-.8.0-1-.3-1-.3-.4-.6-.9-2-1.3-3.8.0.0.0-.1.0-.1h0c-.2-1.1.4-2.6.4-2.6.2-.6 1.2-5.5 1.2-5.7.3-1.7.5-3.5.3-4-1-4.4-7.5-7.9-9.4-8.8-.8-.4-2.1-1.1-2.5-.7L25.1 64c-1.3 2.2-5.9 4.7-5.9 4.7-2.8 1.6-3.7 2.2-4 2.4-1.4.9-2.6 2.5-3.4 3.6.0.0-1.2 1.8-1.3 2.4-.1.5-.5.9-1.1 1.2.0.0-1.7.7-2.1.6-.7-.3-1.6-.4-1.7-.4-.3.0-.5-.1-.8-.2h-.1c-.5-.3-1.2-.7-1.3-1.4.0.0.0-.1.0-.1-.1-.6-.4-1.8-.8-2.2-.8-1.1.0-2.4.3-2.8.0-.1.1-.1.1-.2.6-1 5.5-8.4 5.7-8.6.8-1.5 1.1-2.9.9-3.4.4-2.6 5.9-5.4 5.9-5.4l.1-.1c0 0 .2-.3.1-.9-.1-1.1-.3-4.8 2.3-5.9.3.0 1.2.0 1.6 1.2.1.4.7 1.3 1.2 1.6.4.2.8.2 1.1-.1.4-.3 4-2.8 7.1-3.7.0.0.3-.1.6.1.2.2.4.5.4.9.0.2.0.4.1.5.1.2.4.3.9.1 1.1-.5 3-1.2 3.2-1.3 3-.8 3.8-.4 4-.2.2.2.0.5.0.5v.1c0 .5.4.8 1 .8.0.0.6.0.9-.2v0c5.4-2 9.5-2.4 9.5-2.4 2.6-.2 3.3.3 3.5.5.1.1.1.3.1.3.2.5-1.1 1.9-1.5 2.1.0.0-.7 1.1-.3 1.6.1.2.3.5.7.6.0.0.3.0.3.0 1.4-.5 2.5-.6 2.9-.5h.2c.9.0 1 .3 1.1.3.0.1-.1.3-.2.4h-.1c-.4.2-.6.5-.7.8-.1.4.3.8.4 1 0 0 .1.2.1.2 1.4 1.1 3.8 1.1 4.7 1 .1.0.4.0.4.0 3.8.2 7.1-.1 8.5-.3.3.0.8-.1.8-.1 2-.2 4.3-.6 5.7-.8.2.0 1.3-.2 1.3-.2 11.5-1.8 18.6 2.8 20.5 4.2.0.0.1.1.1.1v0c1.3.9 3.5 2.1 5 3.1.6.4 1.2.8 1.9 1.2 3.7 1.4 4.7 1.1 5.1.9.0.0.3.0.3-.3.1-3.8 1.2-6.6 3.3-8.1 2.5-1.8 6.4-2 11.2-.5.1.0.2.1.3.1v0c4.2 1.2 7.8 1.9 10.8 2 .1.0.3.0.3.0 2.2.1 6.9-1.4 8.6-2 .3-.1.6-.2.6-.2.7-.4 1.3-.5 1.6-.3.3.1.5.4.6.8C148.8 59.2 144.8 61.7 143.6 62.3v0z"/><path d="M19.6 48.7c0 0 0 0 0 0zM15.7 53.5c0 0 0-.10000000000000142.0.0zM143.6 62.3c0 0 0 0 0 0zM123.4 62.5v0 0 0zM46.5 83.6c0 0-.7-.7-1.1-1.1-.5-.6-1.2-1.2-1.6-1.6-.2-.2-.8-.5-1.5.1-.1.0-1.4 1.2-1.7 2.5v0 0 0c0 .2-.2.6.1 1 .2.3.5.5.9.6v0 0c.1.0 1.6.3 2.4.2.5.1 1.7.0 2.3-.5C46.5 84.6 46.8 84.3 46.5 83.6v0z"/><path d="M44 85.3v0 0 0 0z"/><path class="st0" d="M46.1 84.4c-.3.4-2.2.5-2.2.5s-1.9-.1-2.1-.2c-.3-.1-.5-.2-.6-.4-.1-.2-.1-.5.0-.6.0.0.0-.1.0-.1v.1c.3-1.2 1.5-2.3 1.5-2.3.5-.4.8-.1.8-.1.4.4 1 1 1.6 1.6.6.6.8.9 1 1C46.2 84.2 46.1 84.3 46.1 84.4v0z"/><path d="M75.6 76c0 0-.2-1.1-.9-1.5-.3-.2-.6-.2-.9-.1l-.2.1c0 0-8.6 3.6-13.3 3.8.0.0-2.3.2-3.2.2-.1.0-.8-.1-1.2.3-.3.2-.4.6-.3 1.1.0.5-.1 3.1.9 3.5.0.0.8.2 1.3-.7.7-1.2 1.2-1.3 1.5-1.3h5.1c.1.0.3.0.3.1.0.0.1.3-.5 1h0c0 0 0 .1-.1.1-.7 1.2-1.3 1.7-1.7 1.9-.2.0-1.3.4-1.6 1.1.0.0.0.1-.1.1-.5.8-.8 1.1-1 1.2-.2.0-.4.2-1 .5-.1.0-.4.1-.5.3-.1.3.2.6.4.8l.1.1v0c0 0 0 0 0 0 .3.2 1 .8 1.7.4h.1v0c.1-.1.5-.3.9-.6.9-.5 2.2-1.3 3.1-1.9v0 0c.1.0.9-.6 2.5-.6.2.0 2.4.2 4.3-.8v0c.3-.1.9-.7 1.2-1C74 83 75.9 80.3 75.6 76v0z"/><path class="st0" d="M64.7 83c0 0 0 0 0 0z"/><path class="st0" d="M75.1 76.1c-.1-.3-.3-.9-.7-1.1-.2-.1-.3-.1-.5.0-.2.1-.6.3-1.4.6-.8.3-2 .8-3.5 1.3-2.5.9-6.1 1.9-8.7 2-.2.0-.7.1-1.6.1l-1.6.1h-.1c0 0-.5.0-.8.2C56 79.5 56.1 80 56.1 80c0 1.1.1 2.8.7 3.1.0.0.4.1.7-.4v-.1c.6-1.1 1.3-1.6 1.9-1.5h5.1c.1.0.6.0.7.4.2.3.0.9-.6 1.5-.7 1.3-1.5 1.9-1.9 2.1.0.0-1.1.3-1.4.9l-.1.1c-.4.6-.8 1.2-1.2 1.4l-.2.1c0 0-.5.2-.8.4H59c0 0 0 .1.1.2.1.0.1.1.2.1.3.2.8.6 1.2.4.1-.1.3-.2 1-.6.9-.5 2.2-1.3 3.1-1.8.2-.2 1.2-.7 2.8-.7h0v0c0 0 2.2.3 4-.8v0C71.6 84.7 75.5 82 75.1 76.1v0z"/><path d="M16.8 54.7l-.3-.5.1-1.2c0 0 .3-.6.5.1.1.0.3 1 0 1.7.0.0-.2-.1-.3.4.0-.1.2.2-.3.5.0.0-2.3.9-3.6 2.1.0.0-.5.4-.8.4.0.0-.5.2-.8 1.1.0.0-.2.1-.2.1l.1.2c0 0 .4.3.1.8.0.0-.6 1.5-1.1 1.9-.1.0-.6.1-.3-.7.0.0.4-1.4.4-1.4s0-.8.5-.9c0 0 .2.2.1-.5.0.0.1-.6.8-1.3.0.0 2.7-1.9 3.9-2.4.0.0.6-.3.9-.2C16.6 55 16.8 54.7 16.8 54.7v0zM17.8 48.5c0 0 .5-.6.7.2.0-.1.4 1.1.8 1.8.0.1-.2.2.2.5.0.0.8.4.3 1.1.0.0-.6 1.2-.4 1.8l1.4-.3c0 0 .8-.2.2.6.0.0-.3.6-1.3.6.0.0-.3.0-.6.2.0.0-.6.2-.6-.4.0.0-.2-1.6.2-2.3-.1.0.3-.1.0-.5.0.0-.6-1.2-.8-1 .1.1-.4.4-.3.8.0.0.6.3-.2.4.0.0-.9-.5-.7-1.9.0.0.3-.6.5-.5C17.3 49.6 17.1 48.7 17.8 48.5v0zm4 5c0 0-1 .9.2.7.0.0-.1-.2.2-.5C22.3 53.7 23 52.9 21.8 53.5v0zM29 47.8c0 0 .4-.8-.8-.3.0-.1-4.5 2.4-5.4 3.7.0.0-.4.4.6.3.0.0.9-.4 1.7-.7.0.0.7-.4 1.2-.4-.1.0.4.2.8-.4C27.1 50 29 47.8 29 47.8zM7.4 66.2c0 0-2.2 3.8-3.3 5.2.0.0-.2.3-.2.3l-.2.5.3.3.4-.7c0 0 0-.3.5-.7.0.0.5-.6.5-.6s1-1.2 1.4-2.4c0 0 .4-.5.4-.5s.8-1.1 1-1.3c0 0 .2-.3.2-.8.0.0-.2-.6-.4-.2.0.0-.3.4-.3.4L7.4 66.2v0zM38.7 77.3c0 0-.7-1.5-1-.8.0.0-.3 2-.7 3.8.0.0-.1.6-.1.6s-.1 1.7-.5 2.5c0 .1-.3.8-.3.8s-.2.0-.2.8c0 0 0 1 .5 1.9.0.0.4.2.4 1.1.0.0.2 1 1.1 1 0 0 1.4.1 1.5-.2.0.0 1.2-.2 1.2-.2s1.9-.1 2.9-.3c0-.1 2.6-.4 4.2.0.0.1.7.0.7.0s.8.3 1 .1c.1-.1.6-.1.3-.5.1.0-.3-.4-.4-.5.0-.1-.4-1.2-.8-1.4.0.0-.3-.7-.9-.5.0.0-.3-.1-.7.2.0.0-.6.6-.9.3.0.0-.3-.1-.3-.1H42c0 0-.4.3-1-.1.0.0-1.3-.6-1-2.1.0.0.2-.8.2-.8s0 .1.2-.3c0 0 .1-.2.3-.6.0.1-.1-.2.2-.3.0.0.2.0.3-.4.0.0.2-.3.2-.3s-.1-.2.1-.3c.1.0.5-.5.0-1 0 0-.4-.4-.4-.4s0 0-.5-.4C40.5 79.1 39.5 78.5 38.7 77.3v0zM67.9 94.6l-.6-.1c0 0-.3-.2-.5.2.0.0-.1.2-.4.3.0-.1-.4.2-.4.2s-.4.2-.6.4c0 0-.3.0-.3.0s-.4.2-.8.7c0 0 .2.1-.2.3.0.0-.4.4.1.5.0.0.6.0 1.4.3.0.0.2.0.2.0s.1.0.5.2c0 0 .3.2.3.2l.4.1.5.5c0 0 .9.7 2.1.4.0.0.6-.4 1-.1.0.0.2-.2.2-.2s.7-.4 1-.9l.1-.3.3-.1c0 0 0-.1.2-.4.0.0.4.0.4-.4.0.0.3-.4-.2-.7.0.0-.6-.4-1-.4.0.0-.4.2-.4.2l.3.4c.2.0.8.3.4.7.0.0-.4.2-.5.7.0.1.0.0.0.0l-.3.2v.3h-1.9c0 0-.6.0-.4-.5.0.0.4-1-.1-.7.0.0-.6.6-.8.3.0.0-.3-.4-1-.6.0.0-.4.0.0-.4.0.0.4-.5.4-.5l.3-.2.4-.1c0 0 .4.1.4-.1C68.1 95 68.2 94.7 67.9 94.6v0z"/><path d="M70.9 95.3c0 0 .3.4-.1.6l-.4-.1c0 0-.8-.2-.2-.6.0.0.4.0.4.0L70.9 95.3v0zM54.1 96.9c0 0 .6.0.2.4.0.0-.4.3-.6.0C53.6 97.3 53.3 97.1 54.1 96.9v0zM69.4 87.4c0 0 1.2-.5.0-.7.0.0-.3.0-.9-.2.0.0-.8.0-1.2.0.0.0.0.1-.6.1.0.0-.9.0-1.4.6l-.9.2-.8.3c0 0-.2.1-.8.6.0.0-.6.6-1.3.9.0.0-.6.4-.6.4s-.3.0.0.5c0 0 .2.8.9.5.0.0.6-.4.6-.4s.8-.7 2.5-1.3c0 0 .8-.2.8-.2s-.1.2.4-.1c0 0 .9-.4.9-.4L69.4 87.4zM58.7 82.6c0 0-.2 1.4-2 1.7.0.0-.4.1.0.6.0.1.3.6.2 1.1.0.0-.3.4.4 1 0 0 .2.2.3.4.0.0.1.2.6.1.0.0.0-.1.5-.4.0.0.1-.2.6-.2-.1.0.2.2.6-.7.0.0.4-1 1.2-1.4.0.0.1.0.8-.2.0.0 1.2-.4 1.6-1.4.0-.1.9-1.1.2-1.2.0.0-.4-.1-1.4.0h-2C60.3 81.8 59.1 81.5 58.7 82.6v0zM86.5 84.8c0 0 2-.8.5.4.0.0-2.4 1.2-3.8 4.7.0.0-.5 1.6-1.2 2.4.0.0-.3.1-1 0 0 0-1.7-.1-2.5-.3.0.0-2-.4-3-.6.0.0-1.9.0-.8-.5.0.0 1.7-.2 3.9-.3.0.0 1.2.0 1.8-.9C80.3 89.7 83.8 85.6 86.5 84.8v0z"/><path class="st0" d="M39.5 79.3c0 0 1.8 1 1.4 1.4.0.0-.1.1-.3.7.0.0.1.2-.2.5.0.0-.2.0-.4.5-.1.0-.2.1-.2.5.0.0-.4.0-.4.3.0.0-.9.3-1-.5.0.0.1-.2.0-.6.0.0-.3.2.0-.6.0.0.1-1 .1-1l.2-.2.2-.5C38.8 79.7 38.9 78.5 39.5 79.3v0zM37.6 84.9c0 0 .2.0.8.2.0.0.0-.3.6.2.1.0.4.3.4.3s0 0 .2.4c0 0 .2-.1.2.4v.4L39.7 87l-.2.4h-.2c0 0-.7.4-1.2.0l-.3-.2-.2-.1c0 0 0-.1-.2-.3.0.0-.6-.8.0-.8.0.0.2-.1.2-.4.1.1.2-.3-.1-.2C37.4 85.3 37.3 84.8 37.6 84.9v0zM59.4 83c0 0 .1-.5 1-.4.0.0.4-.1.9.1.1.0.6-.1.6.4.0-.1.2.5-.5.6.0.0-.1.3-.8.3.0.0-.2-.2-.4.2.0.0-.2.3-.2.3s.1-.2-.4-.4c0-.1-.5.1-.4-.5C59.3 83.6 59.1 83.2 59.4 83v0zM58.1 84.8c0 0 .5-.4.6.0.0.0.2.0.2.0s0 .1.0.5c0 0 .2.4.4.6.0.0.1.1-.3.4l-.4.4c0 0-.1.2-.6-.2.0.0-.4-.1-.3-.5.0.0.2-.1-.1-.4C57.7 85.5 56.8 85.3 58.1 84.8v0zM82.3 90.5v0c0 0-.1-.4-.3-.5-.1.0-.2.0-.4.2.0.0-.5.5-1 .7v0 0c-.2.1-.3.1-.4.3.0.1.1.3.3.5.0.0.1.0.1.0.1.0.4.1.7.1.0.0.0.0.1.0.1.0.3.0.6-.3C81.9 91.4 82.4 91.1 82.3 90.5v0z"/><path d="M29.5 50.3c0 0-1.1.4-.4 1 0 0 0 .1.7.0.0.0 2.9-.4 4.5-.2-.1.0 5.5.1 9.7 1 .1.1 1.9.3 2.5.4.1.0.8-.1.5-.9.0.0-.1-.2-.6-.3.0.0-.5.1-.2-.4.0.1.4-.5-.3-.6.0-.1-.8-.2-1.4.0.0.0-.8.2.0-.4.0.0 1.3-.5 3.1-.5.0.0.5.1.5-.3.0.1.2-.4.2-.4s0 0 .5-.2c0 0 .9-.2 1.4-.6.0.0.8-.4 1.4-1.2.0.0.8-.4.2-.5.0.0-2.5-1.4-12 3.1.0.0-2.1 1-2.8 1 0 0-2.2-.2-2.2-.2s-1.1.1-.2-.5c0 0 1.5-1.2 2.5-1.6.1.0 1.2-.6.6-1 0 0-.1-.1-.8.0C36.8 47.1 32.6 48.2 29.5 50.3v0z"/><path d="M48.9 49.1c0 0 .8-.7.6.4.0.0-.2.2-.2.2s-.1 1-.7 1.1c0 0-1.1-.2-.7-1C48 49.7 48.4 49.2 48.9 49.1v0zM146.8 54.5c0 0-.1-1.3-2.8.1.2-.1-4.8 2.4-13.7.5-.2-.1-4.3-.8-8.7-1.9.0.0-2.1-.1-2.1-.1-3.4.1-5 1.6-5.3 1.8-2.2 1.9-2.1 7-2.1 6.9.2 2.2-2.3 1.5-2.3 1.5s-2.7-.7-2.7-.6c-4.7-1-10.6-5.2-10.6-5.2-4.8-2.8-8.6-3.6-10.1-3.8-3.4-.2-8 .8-8 .8-4.3 1-9 1.3-8.9 1.3C67.1 56.3 58.9 56 58.9 56c-3-.2-6.8-1-6.8-1-.6.1-.7-.7-.7-.7v-.4c0 0-.1-.3-.1-.3-.1-.4.7-.8.7-.8.1-.3.4-.2.4-.2.9-.4 2.1-.6 2.1-.6.5-.2.6-.4.6-.4.0-.4.3-.7.2-.6.4-.8-.4-.5-.5-.5-1.5.0-3.6.9-3.6.9-.5-.1-.7.2-.7.3-.4.2-1 .5-1 .5L49 52.5c0 0 0 .4.0.4-.2.4.8 1 .7 1 .6.7-.4.6-.4.6-.6.0-.4.2-.4.2h-.9c0 0-.7-.2-.8-.2-3-1.3-12-2.1-12-2.1-.8-.1-3.6-.1-3.7-.2-1 0-1.2.2-1.2.2-.8.2-1.5.1-1.5.1l-.6.1c0 0-3.7.0-3.7.0-.4.0-.4.2-.4.2-.2.3-.7.4-.7.4l-.2.2c0 0 0 .6.0.6.5.4 1.2 2.9 1.2 2.9.4 1.4.0 3 0 3-.2.6-1.5 1.6-1.6 1.6-.3.0-1.2.3-1.2.3-.5.0-.4-.2-.5-.2-.3-.3-.9-.2-.9-.2.0-.3-.7-.2-.7-.2s-.7-.4-.8-.4c-.1-.3-.5-.4-.6-.4-.4-.2-.4-.4-.4-.4s-.4-.7-.7-.4c0 0-.3.5-.9-.2.0-.1-.2-.1-1.2-.1.0.0.3.4-.7.0.0.0-1.2-.2-1.9 1.4.0.0.2.8-.5.8.0.0-.7.0-.2 1 0 0 .5.5.2.8.0.0-2 3.4-2.5 4 0 .1-.8 1.2-.8 1.2s-.6.5-.6.9c0 0-.1.3-.4.6.0.0-1.6 1.8-1.3 2.2.0.0-.7.3-.6.7.0.0-1 0-1.8.5.0.0-1.2.5-.4 1 0 0 .5.4.5.0.0-.1.2-.4.6.6.0.0.1.4-.1.6.0.0-.2.2.1.7.0.0.2.3.1.8.0.1.0.5.6.7.2.0.3-.2 1-.1.0.0.6.2.9.1.0.0.6-.8.8-.2.1.0.0.2.5.1.0.0 1-.2 1-.2s.6.1.6-1.2c0 0 .4-.8.4-1.3.0.0.2-.2.2-.4.1-.1.2-.3 1.1-1 0 0 1.4-1.4 2.5-2.6.0.0 2-1.4 3.6-2.4.0.0 2.8-1.2 3.3-1.9.0.0.8-.2 1.8-1.4.0.1 2.1-1.9 2.3-3.9.0.0.3-1.3.4.2.0.0.0.3.0 1l.2.2c0 0 5.2 2.9 7.4 4.4.0.0 3.7 2.3 4.1 3.1.0.0.5 1.2.0 2.9.0.1-.1.4.3.9.0.0.1.4.1.4s.7 1.8 2.6 3.6c0 0 .2.4 1 .8.0.0.7.4.7.4l.7.2c0 0 .4.0.9.6.1.1 3.1 2.4 4.2 4.6l.2.2c0 0 .1.8.6 1 0 0 .7.4.7.4s.4.7 1 1.2c0 0-.1.9.5 1.7.0.1.8 1.1 1.5 1.7.1.0.0.0.5.5.1.1.2.4 1.3.4.0.0.8-.2 1.6.7.0.0.3.3.3.3L57 93c0 0 .2.2.5-.1.0.0.2-.4.6-.5.1.0.5-.1.2-.6.0.0-1-1.1-1-1.1s.4.0-.1-.4c0 0-.5-.1-.8-.7.0-.1-.1-.4-1.1-.1.0.0-.5.1-1.4-.7-.1.0.1-.1-1.1-.6.0.0-.6-.6-.6-.6S52 87.9 51.8 87c0 0-1.1-2.2-1.7-3.2.0.1-3-4.2-4.9-5.8-.1-.1-2.3-2.9-3.2-2.2.1.0-.5 1.5-2.1-2.5.1.0 1.4 1.7 1.1.3.1-.1-.5-1.2.4-2.3.1.0.9-2.1 1.4-1 .1.1.6.1.6.1l1.4-1.7c0 0-.6-.4-.7-1.6.0.0.1-1-1-.8.0-.1-.2.4-1.4-1-.1.0-2.7-2.4-6.4-4.3-.1.1-2-1.1-5.6-2-.2-.2-2.5-1.2-2.5-1.2s-2.2-1 .1.6C27 58.4 31.9 62 36 64.2c0 0 2 1.6 2 1.6s.6.4.7.5c.9 1 1.5.9 1.5.9.8.2.8.7.8.6.3.7-.1.8-.2.9-.2.1-.4.3-.4.3s-.3.2-.3.2c-1 .5-.6 2.2-.6 2.3-.2 1.1-.8-1.4-.9-1.4-.4-.6-.1-1.4-.2-1.4-.1-.8-.4-1.3-.4-1.3-1.2-.9-2.5-1.7-2.5-1.7-.4-.4-6-3.8-6-3.8-1.1-.5-1.2-1-1.3-1-.4-.5-.7-.6-.7-.6-.7-.2-.8-.5-.8-.5-.1-.4-.8-.9-.8-.9s-.3-.3-.4-.3c0-2.1-.8-3.9-.8-3.8-.3-.6-.1-.8-.1-.8.2-.5.7-.5.7-.5.6.1 1.2-.2 1.2-.2s.5.0.5.0c.7-.1 1.2-.2 1.2-.2 1-.4 2.2.0 2.3.0.8.4 1.8.4 1.8.4s1.8.0 1.9.0c2.7.2 7.5 1.1 7.5 1 3.2.2 5.2 2 5.2 2 .7.6 1 .6 1 .6s.8.1.9.1c2.5-.2 2.9.6 3 .7.1.6.5.7.5.8.6.3 1.4-.4 1.4-.4.9-.6 2.6-.2 2.6-.2 1 .1 5.1.4 5 .4 4.3.0 7.5-.3 7.5-.3 1.1-.2 4.4.4 4.4.4 1 .3 1.1.0 1.1.0.2-.2.6-.1.6-.1.1-.4.8-.4.8-.4 3.9-3.1 7.4-3.6 7.5-3.6 2-.5 3.7.0 3.8.0 4.5 1 8.6 3.7 8.7 3.8 7.3 5.5 12.6 6.3 12.6 6.3 4 .8 4.3-1.6 4.3-1.7.4-3.6 1.6-6 2.3-7.1 1.4-2.2 4.6-1.7 4.6-1.7.4.0.8.1 1.2.1.1-.1 6 1.8 11.9 2.5.1.0 6.9 1.2 11.5-.3-.1.1 3.7-1.9.6 2.7-.1.0-3 3.7-8.5 3.6.1-.1-5.3.4-11.6-1.8.0.0-1-.5-2.3-.5-3-.5-4.2 4.3-4.3 4.4-1.2 2.3-3.1 1.9-3.2 1.9-3.9-.2-8.4-.2-8.4-.1-2.7.2-2.7.9-2.7.9-.6.9-2.7.8-2.7.8-3.6.0-4.8 5.6-4.8 5.6-.2.8-1.1 1.8-1.1 1.8-.4.6-.9 1-.9 1.1-.6.4-.9 1-.9 1l-.4.3c0 0-.6.3-.6.3-.8.5-.3-.2-.3-.2.3-.6.2-1 .2-1-.6-.7-1.3.7-1.3.6-.3.4-.9.8-.9.8-1.2.5-2 1.4-2 1.4s-1 .7-1 .8c-1.7 1-2.4 1.2-2.5 1.3-1.5.9-1.2 1.8-1.2 1.8.0.4-.4.6-.4.7-.2.4-2.1 2.6-2.1 2.6-.4.3-.8.7-.8.6-.2.7-1.7.8-1.7.8-.5.0-1.1.0-1.2.1-1.2.1-1.9-.1-2-.1-1.4-.5-.6-1.2-.6-1.3.6-.8 2.6-3.1 2.6-3.1.7-.7 1.4-1.4 2.1-2 .6-.6.4-1.7.3-1.7-.2-.8-.2-1.6-.2-1.7-.2-3.1.8-5.9.8-5.9s0-.1.0.0c.5-2.2 1-2.8 1-2.7.4-2-2.1.3-2.1.2-.7.7-1.4.2-1.4.3-.7-.6-2.4-.6-2.5-.6-1.6-.1-3.1 1.9-3.2 1.9-.4.8-1 .8-1 .8-.8.2-.8.5-.8.5-.3.3-.9.4-1 .4-1.1-.1-2.1.3-2.1.3-.6.0-1 .2-1 .2-1.6.6-4.9.5-4.9.5-.8.0-.8.1-.8.2-.9.3-3-.3-3-.3-.9-.1-1.6-.6-1.6-.6-.4-.3-1.1-.3-1.1-.3-1.5.1-.9 1.7-.9 1.6.2.8-.8 1.2-.8 1.2-1.2.8-1 1.4-1 1.4.0 1-.1.8-.2.9-.3.4.0.7.1.6.1.3.2.5.2.5.0.4.6.9.6.9.2.3.2.4.2.4.2.3.4.9.4.9s.2.8.3.8c.5.6.4.8.4.8s.6 1.7.6 3c0 0-.1.3.4.8l.4.4c0 0 .6.1 1.2.6.0.0.2.0.4.3.1.0.7.5.7.5s.1.2.5.3c0 0 1.2.4.4-.3.0.0-.8-1.1-1.9-1.8-.1.0-.2-.6-.2-.6s0-1.9-.8-2.9c0-.1-.7-1.8-1.1-3.1.0.0.1-.5-.4-.8.0.0-.8-.2-.6-.8.0.0-.2-.2.1-.5.1.0.2-.5.2-1 0 0-.1-.5.2-.5.0.1.2.3.1-.5.0.0-.4-.4.2-.3.1.0.3.0.4-.1.1.0.6.1.6.1s.4.0.2.5c0 .1-.4.4.0.7.0.0.1.2.4.1.0.0.6-.4 1.1-.7.0.0 1.2-.5 2.1.0.0.0-.3.2.8.1.0.0 1.5.0 2.6-.4.0.0 4-.9 5.3-1.5.0.0.4-.2 1.1-.1.0.0.4-.1.4-.1s.4-.3 1.5-.3c.1.0.4-.1.4-.1h.3l.4-.2c0 0 .5-.2 1-.2.0.0.2.0.5-.2.1.0.0-.1.4-.2.0.0.3.1.4-.4.0-.1-.4-1.3.6-1.6.0.0.4-.2.4-.2h.3c0 0 1.7.1 1.7.4.0.0.2.2.0.8l.1.5c0 0 .4 1.3-.1 2.3.0.0.0.5-.4 1 0 .1.0.4.0.4v.4c0 0 .2.1.1.7l-.1.4c0 0-.1 1-.5 1.6.0.0-.2.5-.2 1.1L76 81.7l-1 1.5-.2.3-.4.4-.1.3c0 0-.6.2-.6.8.0.0.0.2-.5.3.0.0-1.1.4-1.9 1.3.0.0-.6.9-1.4 1.2.0.0-.6.3-.6.3s-1.6.8-2.9 1.2c0 0-.6.4-1.1.7.0.0-.2.0-.8.4-.1.0-.5.2-.8.5l-.6.2-.5.4-.8.3c0 0-.7.5-1.2 1 0 0-2.2.6-4.1 2.4.0.1-1.1 1.2-1.8 1.5.0.0-.9.4-.1.7.0.0.1-.2.3.1.0.0.1.2.4.1.0.0.8.0.1.4.0.0-.2.0-.6.5.0.0-.2.4-1.2.2.0.0-.2-.2-1-.1h-1.5c0 0-.4.1-.2-.3.0.0.0-.6.7-.6.0.0.8.0.9-.2.0.0.3-.4-.5-.4.0.0-.6.0-1 .2l-.3.3c-.1.0-.6.7-.6.7L50 98.3l-.2.1c0 0-.6.9-.1.9.1.0 1.4.0 1.4.0s1.7-.4 2.2-.1c.1.0.5.0.9.1.0.0.2.0.7-.2.0.0.9-.5 2.2-.7.0.0 2.2-.1 2.2-.1s.4.0.6-.4c0 0 1.5-1.5 3-1.7.0.0.4.0 1-.7l.1-.3.8-.5c0 0 0 .3.5-.2.0.0.7-.6.7-.6s.6-.7 1.4-1c0 0 2.1-.7 3.2-1.7l.4-.2 3.3-.7c0 0 1.5-.2 2.1-.3.0.0 1 0 1 0h.4l.4-.2.9-.1.2-.2c0 0 2.9-3.3 6.7-5.3.0.0.2.0.7-.3.0.0 5.2-2.1 7.1-3 0 0 3.7-1.7 6.2-5.9.1.0 3.5-6.6 5.7-7.1.2.0 2.5-.7 7.6-.4-.1.0 3.9.2 5.2-2.9.0.1 1.4-3.6 4.3-3.1.2.1 8.5 2.4 12.6 2.3.2.1 6.8.1 10.5-4.9C146 58.8 147.5 56.6 146.8 54.5v0z"/><path class="st0" d="M6.5 73c0 0 1-.4.6.3.0.0.0.0.0.0s-.6 1-.6.4C6.4 73.6 6.1 73.3 6.5 73zM17.1 63.6c.3-.5.1-1.3.1-1.3L17 62c0 0-.3-.2-.4-.2-.4-.4-.7.0-.7.0s0 0 0 0c-.6.5-1.4.6-1.4.6l-.4.2c0 0-.2.4-.2.5-.2.4-.6.7-.6.7S13 64.2 13 64.1c-.2.2-.5.7-.5.7l-.2.3c0 0-.1.3-.2.3-.4.2-.5.8-.5.8s.1.2-.8 1c-.1.0-.7.7-.7.7l-.4.5L9.2 69l-.4.6c0 0-1 1.2-1.1 1.5.0.0-.2.2-.2.2l-.3.4L7 72.1l-.3.3c0 0 .2.1.8-.2.0.0.2-.1.2-.1s.4-.4.5-1c0 0 .3-.3.3-.3l.4-.2c0 0 1.9-1.9 2.3-2.5.0.0.3-.2.3-.5.0.0-.2-.5.3-.6.0.0 1.7-.8 1.7-.8C16.3 65.8 17.1 63.5 17.1 63.6v0zM22.4 63.1c0 0-1.3.8-1.9 1.9.0.0-1 1.2.2.7.0.0.1-.1.6-.2.0.0.2.1.7-.6.0.0.6-1 .6-1S24 62.3 22.4 63.1v0z"/><path class="st0" d="M13.9 67.1c0 0 1.7.1.1.8.0-.1-.3.1-.6.3.0.0-.4.3-.4.3s-.2-.1-.8.5c0 0-1.3 1.5-1.9 1.5.0.0-.9.2.0-.4.0.0 1.9-1.2 2.1-2.3C12.3 67.8 13.4 67 13.9 67.1v0zM70.3 89.6c0 0 .3.2-1 .8.0.0-.2-.2-.6.2-.1.0-.1-.2-.6.3.0.0-.6.7-1.3.8.0.0-1.2.2-1.7.7.0.0-.6.5-1.2 1.1.0.0-1 .6-1.6.6.0.0-.1.3-.5.5.0.0.2.2-.4.5.0.0-1.1 1.3-4 1L57 96.3v-.5c0 0-.1-.1.5-.4.0.0.4-.5 1-.7.0.0 1.1-.7 1.1-.7s.1-.1.6-.2c.1.0.5-.2 1-.6.0.0-.2-.2.9-.5.0.0.3-.2.3-.2s1.9-1 2.1-1.3c0 0 .4-.1.4-.1l.4-.3c0 0 .4.0.8-.4.0.0.1-.2.5-.3.0.0 1.8-.6 1.8-.6s0-.2.4-.2C68.7 89.1 70.4 88.8 70.3 89.6v0zM71.3 88.8c0 0 .8-.1.6.5.0.0-.2.1-.2.1S70.8 89.7 71.3 88.8z"/></svg>