<svg id="Layer_1" xmlns="http://www.w3.org/2000/svg" xmlns:xlink="http://www.w3.org/1999/xlink" viewBox="0 0 150 150" style="enable-background:new 0 0 150 150"><style>.st0{fill:#fff}.st1{fill:#00acec}</style><g><path d="M75.5 2C116 2 149 35 149 75.5c0 40.5-33 73.5-73.5 73.5S2 116 2 75.5C2 35 35 2 75.5 2z"/><path class="st0" d="M32.8 53.5 15.5 38.5l6.5-7.6c1.3-1.5 2.6-2.6 3.7-3.2 1.2-.6 2.3-.9 3.5-.8 1.2.1 2.2.5 3 1.2.7.6 1.2 1.5 1.5 2.5.3 1 .2 2.2-.2 3.5 1.4-1 2.7-1.4 4-1.5 1.3.0 2.5.4 3.5 1.3.8.7 1.4 1.6 1.8 2.5.4 1 .5 2 .3 2.9-.1.9-.5 1.9-1 2.9-.6 1-1.4 2.2-2.5 3.5L32.8 53.5zM25 42.1l3.7-4.4c1-1.2 1.7-2.1 2-2.7.4-.8.6-1.6.4-2.3-.1-.7-.5-1.3-1.1-1.8-.6-.5-1.2-.8-1.9-.8-.7-.1-1.4.1-2.1.6-.7.5-1.6 1.4-2.9 2.9l-3.5 4L25 42.1v0zM33 49l4.3-5c.7-.9 1.2-1.5 1.5-1.9.4-.7.7-1.3.8-1.9.1-.6.1-1.2-.1-1.8-.2-.6-.6-1.2-1.1-1.7-.6-.6-1.4-.8-2.2-.9-.8.0-1.6.2-2.4.7-.8.5-1.7 1.4-2.8 2.7l-4 4.7L33 49zM61.6 27.8V8.2h5.2l6.1 13.9c.6 1.3 1 2.3 1.2 2.9.3-.7.8-1.8 1.4-3.1l6.2-13.6h4.6v19.6H83V11.4l-7.5 16.4h-3.1l-7.5-16.7v16.7H61.6V27.8zM108.6 39.3l12-16.3 1.6 2-8.1 10.3c-.8 1.1-1.7 2.1-2.6 3.1 1.9-.9 3-1.5 3.4-1.6l12.6-5.5 1.9 2.4-6 8.4c-1.5 2.1-3 3.9-4.4 5.5 1.1-.6 2.4-1.2 3.9-1.9l11.7-5.6 1.6 2-18.5 8.2-1.5-1.9 9-12.5c.8-1 1.2-1.7 1.4-1.9-.8.4-1.5.7-2.1 1l-14.1 6.2L108.6 39.3z"/><path class="st1" d="M118.9 76.2c0 23.5-19.2 42.7-42.7 42.7V76.2h42.7z"/><path class="st0" d="M118.9 74.8c0-23.5-19.2-42.7-42.7-42.7v42.7h42.7z"/><path class="st1" d="M32.1 74.8c0-23.5 19.2-42.7 42.7-42.7v42.7H32.1z"/><path class="st0" d="M32.1 76.2c0 23.5 19.2 42.7 42.7 42.7V76.2H32.1z"/></g></svg>