<svg id="Layer_1" xmlns="http://www.w3.org/2000/svg" xmlns:xlink="http://www.w3.org/1999/xlink" viewBox="0 0 150 150" style="enable-background:new 0 0 150 150"><style>.st0{fill:#231f20}.st1{fill:url(#SVGID_1_)}.st2{fill:url(#SVGID_2_)}.st3{fill:url(#SVGID_3_)}.st4{fill:url(#SVGID_4_)}.st5{fill:url(#SVGID_5_)}.st6{fill:url(#SVGID_6_)}.st7{fill:url(#SVGID_7_)}.st8{fill:url(#SVGID_8_)}.st9{fill:url(#SVGID_9_)}.st10{fill:url(#SVGID_10_)}.st11{fill:#7f7d7e}.st12{fill:url(#SVGID_11_)}.st13{fill:url(#SVGID_12_)}.st14{fill:url(#SVGID_13_)}.st15{fill:url(#SVGID_14_)}.st16{fill:url(#SVGID_15_)}.st17{fill:url(#SVGID_16_)}.st18{fill:url(#SVGID_17_)}.st19{fill:url(#SVGID_18_)}.st20{fill:url(#SVGID_19_)}.st21{fill:url(#SVGID_20_)}.st22{fill:url(#SVGID_21_)}.st23{fill:url(#SVGID_22_)}.st24{fill:url(#SVGID_23_)}.st25{fill:url(#SVGID_24_)}.st26{fill:url(#SVGID_25_)}.st27{fill:url(#SVGID_26_)}.st28{fill:url(#SVGID_27_)}.st29{fill:#0d224a}</style><g><path class="st0" d="M105.9 89.2c-1.3-4.2-6.8-15-11.1-21.2-.9-1.3-.6-2-.1-2.4.4-.5 2.1-1.9 4-4.2 1.9-2.3 2.4-5 1-8.8C98.4 48.9 93.9 40 93 37c-1-3.4-1.2-4.9-.6-6.7.7-2.2 1.9-2.4 2.7-2.2.4.0.7.5.7.8.0.9.0 2.2.9 4.7 1.5 3.9 5 6.6 6.2 7.1.7.3.9-.3.9-.6s-1.3-5.2-2.2-8.9c-.9-3.9-1.3-4.7-2.2-5.5-1.3-1.3-3.3-2-5-2-3.9.2-5.5 4.1-5.6 4.4-.1.3-.3.5-.6.3-1-.8-4.3-3.6-4.6-5.3-.1-1.1-.3-1.3-1.3-1.6-3.9-1.6-7.1-3-10.7-3.6-1.5-.3-1.5-.5-3.3.0-3 .6-4.8 1.3-6.8 2.5-1.2.6-1.3 1.1-1.6 1.4-.1.3-.4.6-.7.6-.7.3-3.4 1.3-4.3 1.9-.6.3-.9.8-.6 1.4.4 1.3 2.1 3.8 2.7 4.4.4.3 1.5.6 1.6.6.3.0.4.2.4.0.1-.2.1-.5.6-.9.7-.5 2.1-.9 2.8-.9.6.0.9.0 1.2.2.3.2.9.9 1.2 1.7.3.8.1.9-.3 1.3-.4.2-1.5.5-3 .6-1.3.2-1.8-.3-1.8-.3.0-.2-.3-.2-.4.0-.3.3-.6.5-1 .8-.3.2-.4.5-.1.9.9 1.6 1.9 3.3 3 3.6.9.3 1.3.0 2.2-.8.9-.6 1.3-.6 1.6-.5.3.2.7.6.6 1.1-.3.8-1.8 2.7-2.1 3-.3.3-.6.6-1 .3-.7-.3-11.4-6.3-12.9-6.9-1.6-.6-2.7-.8-4.2-.9-1.2.0-3 0-4 .3-.7.2-1.2.5-1.9 1.3-1 .9-2.1 2.2-2.1 3.1.0.8.7 2.2.7 2.4.1.2.3.3.6.3.4.0 1.5-.6 2.8-.5 1.2.2 1.3 1.1 1.3 1.9.0.2.1.5.4.5.4.0 1.2.0 2.1.5 1 .5 3.1 2.2 3.4 2.5.3.3.3.6-.3.6-2.5.3-6.5 1.1-8.3 1.7-1.3.5-2.8 1.1-3.3 2-.6 1.1-1.3 2.8-1.6 4.2-.1 1.3 1 2.8 1.3 3.1.3.3.4.3.7.2.6-.3 2.1-1.4 3.6-1.4.9.0 1.2.8 1.5 1.1.1.3.4.2 1.2-.2 1.3-.5 9.2-.3 12-.2 1.2.0 3 .3 4.3.9 1.3.8 3.6 3.1 3.6 3.1s-3.1 5.5-4.8 8.8c-1.5 3-2.7 5.2-3.3 6.6-.4 1.3-.9 2.8-.9 4.2.1 1.9.1 3 .1 3.8s-.7.8-1.6 1.1c-1.3.3-4 .6-6.2 1.3-1.9.5-2.7.9-3.1 2.7-.3 1.3-.7 4.4-.7 5.8.0.6.0.9.6.8.4-.2 1.5-.3 3-.3 1.8-.2 3.9-.2 5.3-.2 2.8.0 11.1.5 11.7.6.7.0.9.0.7-.5.0-.6-.1-2.8-.1-4.2.0-1.3-.3-2.7.9-3.9 1.2-1.3 9.6-11.3 10.1-11.8.4-.5.7-.9 1.3-.3s7.6 6 9.1 7.1c1.5 1.1 2.7 1.4 4.3 1.4 1.2.0 1.5 2.2.4 2.4s-2.5.5-3.6.8c-1.6.5-2.2.9-2.7 2.2-.4.9-.9 5.8-.9 6.3.0.3.0.8.4.6 2.1-.5 5.2-.6 8.8-.5 4 .2 7.9.5 8.3.5.6.0.6.0.9-.5.4-.8 1.9-2.7 3.3-3.8C106.2 90.3 106.2 90 105.9 89.2M90.8 59.7c-1 .3-1.6.0-2.1-.5-.4-.5-4.5-5.6-5.8-7.1-.6-.8-1.2-2.5.7-3.3 1.6-.6 4.5-1.6 5.2-2 .7-.5 1.2-.9 1.3-1.7V43c0-.3.4-.6.6-.2.1.3.9 1.7 1.8 3.4 1.3 2.5 3 5.8 3.6 7.2.4 1.3.3 2.4-.4 3.3C94.5 58 91.5 59.4 90.8 59.7"/><linearGradient id="SVGID_1_" gradientUnits="userSpaceOnUse" x1="483.7423" y1="151.7518" x2="479.619" y2="145.4364" gradientTransform="matrix(20.9814 0 0 -23.3737 -10045.3623 3574.3809)"><stop offset="0" style="stop-color:#d3d3d3"/><stop offset=".368" style="stop-color:#4f4c4c"/><stop offset=".813" style="stop-color:#b0afaf"/><stop offset="1" style="stop-color:#231f20"/></linearGradient><path class="st1" d="M94.8 24.2c-3.1.0-6.2 3.8-5.6 9.4.4 3.4.9 5 1.8 7.4.4 1.1 5.8 11.8 6.1 12.8.3 1.6.0 2.7-1.2 3.8-1.3 1.3-3.4 2.7-4.9 3.1-.3.2-.6.2-.9.2s-1.2-.2-2.7-2.2l6.8 9.7c-.9-1.3-1.3-2.2-1.2-3 .1-.8 1.5-1.7 2.8-2.8 1.5-1.3 3-2.7 3.7-4.7.1-.6.3-1.1.3-1.7.0-1.9-.9-4.1-1.9-6.4-1.3-3.1-5.2-9.7-6.4-14.4-.3-1.1-.4-2.2-.4-3.1.0-2.7 1-4.4 2.4-4.9.6-.3 1.2-.3 1.6-.3.7.0 1.2.2 1.5.3s.4.6.4 1.1v.8c0 1.1.1 3.4 1.3 5.8 1.5 3 4.2 4.7 5 5 .1.0-2.4-9.6-2.8-11.3C100.3 26.3 98.8 24.3 94.8 24.2 95 24.2 95 24.2 94.8 24.2v0z"/><linearGradient id="SVGID_2_" gradientUnits="userSpaceOnUse" x1="480.8292" y1="150.6314" x2="481.5766" y2="152.3436" gradientTransform="matrix(20.9814 0 0 -23.3737 -10045.3623 3574.3809)"><stop offset="0" style="stop-color:#b2b1b1"/><stop offset=".2" style="stop-color:#b2b1b1"/><stop offset=".99" style="stop-color:#656263"/><stop offset="1" style="stop-color:#656263"/></linearGradient><path class="st2" d="M52.1 45.5c.6.6-.4.6-3.6.9-3.3.3-6.5.9-8.2 1.7-1.2.5-1.9.8-2.5 2-.6 1.3-1 2.4-1.2 3.3.0.5.0.6.1 1.1.1.2.4-6.1 8.2-6.6 6.8-.3 8.6-1.1 7.3-2.5L52.1 45.5z"/><linearGradient id="SVGID_3_" gradientUnits="userSpaceOnUse" x1="483.4187" y1="151.6167" x2="482.5009" y2="151.7034" gradientTransform="matrix(20.9814 0 0 -23.3737 -10045.3623 3574.3809)"><stop offset="0" style="stop-color:#4f4c4c"/><stop offset=".359" style="stop-color:#fff"/><stop offset=".824" style="stop-color:#4f4c4c"/><stop offset="1" style="stop-color:#393536"/></linearGradient><path class="st3" d="M95.3 27.1c-.4.0-.9.2-1.5.3-1 .5-2.1 1.9-2.1 4.4v.6c0 0 .1-1.7.4-2.5.7-2.2 1.9-2.5 2.8-2.5.6.0.9.2 1 .5.1.2.3.5.3.8.0.9.0 2 .9 4.5.0.2.1.3.1.5-.7-2-.9-3.8-.9-4.7v-.6C96.6 27.4 95.9 27.1 95.3 27.1v0z"/><linearGradient id="SVGID_4_" gradientUnits="userSpaceOnUse" x1="481.3181" y1="150.4231" x2="482.0624" y2="152.1278" gradientTransform="matrix(20.9814 0 0 -23.3737 -10045.3623 3574.3809)"><stop offset="0" style="stop-color:#d3d3d3"/><stop offset=".368" style="stop-color:#b2b1b1"/><stop offset=".99" style="stop-color:#231f20"/><stop offset="1" style="stop-color:#231f20"/></linearGradient><path class="st4" d="M52.4 45.8c.3.6-.7.5-3.9.8-3.3.3-6.5.9-8.2 1.6-1.2.5-1.9.8-2.5 2-.6 1.3-1 2.4-1.2 3.3.0.5.0.6.3 1.1.3.6.6.6 1 .3s2.1-1.3 3.3-1.3c1 0 1.5.6 1.6 1.3.1.3.6.2.6.2.4-.2.9-.3 2.5-.3 1.9-.2 9.4.0 12.2.0 2.5.0 12.2 8.1 12.3 8.1l.4-1.1c-3.3-2.8-15.6-13.2-18.6-16.1L52.4 45.8z"/><linearGradient id="SVGID_5_" gradientUnits="userSpaceOnUse" x1="483.1551" y1="148.4184" x2="469.6397" y2="162.1679" gradientTransform="matrix(20.9814 0 0 -23.3737 -10045.3623 3574.3809)"><stop offset="0" style="stop-color:#918f90"/><stop offset=".121" style="stop-color:#9c9a9b"/><stop offset=".17" style="stop-color:#7b7979"/><stop offset=".308" style="stop-color:#918f90"/><stop offset=".472" style="stop-color:#f4f4f4"/><stop offset=".841" style="stop-color:#7f7d7e"/><stop offset=".962" style="stop-color:#4f4c4c"/><stop offset="1" style="stop-color:#4f4c4c"/></linearGradient><path class="st5" d="M42.6 33.9c-.6.2-1 .2-1.6.8s-1.8 1.4-2.1 2.4c-.1.3-.3.6-.1.8.0.5.3.8.3.9.1.2.3.2.6.2.6-.2 1.8-.3 2.5-.3.4.0 1.2.2 1.5.5C44 39.5 44 40 44 40.3c0 .2.0.3.3.3.4.0.9.0 1.5.2 1.5.3 3.4 1.6 5.2 3.4 3.4 3.4 7.9 8.5 12 11.9 2.1 1.7 5.5 3.9 6.7 5.2.1.2-.3.3-.6.2-.1-.2-2.1-1.7-2.5-1.9-.3-.2-.7.0-1.2.6-3.3 4.7-7 12.7-8.6 16.5-.3.9-.6 2-.6 3 0 1.1.1 3.1.1 4.1.0.9-.1 1.3-1.3 1.6-1.9.3-6.2 1.1-7.3 1.4-.9.2-1.5.6-1.8 1.6-.4 1.4-.9 3.8-.9 4.2.0.3.1.6.4.5 1.6-.5 4-.8 7.4-.6 3.4.0 9.4.6 10.1.8.3.0.6.0.6-.3.0-.3-.1-2-.1-4.2.0-2.2 1.8-3.8 4.3-6.6 2.5-2.8 8.6-9.1 8.8-9.2s.3-.3.0-.6c-.4-.5-2.4-2.5-2.5-2.8-.1-.2-.3-.5-.3-.6.1-.2.3.0.6.3 1.2.9 14 11.9 14.8 12.2.9.5 1.5.5 2.2.6.6.2 1.2 1.1 1.2 1.7.1.8.0 1.7-.9 1.9-.9.3-3.3.6-4 .9-.9.3-1.3.6-1.8 1.6-.3.9-.7 3.8-.9 3.9.0.6.1.6.6.5.6-.2 1.2-.3 3.6-.5 4.2-.2 10.4.5 11.1.5.3.0.4-.3.6-.5.9-1.6.6-2 1.8-3 .6-.5.9-.6.4-1.6-3.9-9.2-7.4-15.4-13.4-23.3-3.7-5.2-8.2-10.8-9.6-12.5L62.4 40.8c-1-.5-9.2-5-10.7-5.6-1.5-.8-2.5-1.4-4-1.7-1-.3-2.1-.3-3-.3C44.2 33.7 43.3 33.7 42.6 33.9"/><radialGradient id="SVGID_6_" cx="481.7002" cy="151.3324" r="3.0742" gradientTransform="matrix(20.9814 0 0 -23.3737 -10045.3623 3574.3809)" gradientUnits="userSpaceOnUse"><stop offset="0" style="stop-color:#fff"/><stop offset=".467" style="stop-color:#fff"/><stop offset=".747" style="stop-color:#9c9a9b"/><stop offset=".846" style="stop-color:#7b7979"/><stop offset="1" style="stop-color:#4f4c4c"/></radialGradient><path class="st6" d="M62.3 25.1c-2.5.8-5.8 2.2-5.9 2.2v.2l.3.6c0 0 .1.5.6.8.4.3 1 .5 1 .5.1.0.1.0.3-.2.1-.2.4-1.1 2.2-1.6.9-.3 1.6-.3 1.9-.3.4.0 1.2.3 1.6.6.6.6 1.2 1.7 1.3 2.4.1.5.0 1.1-.4 1.4-.4.3-1.9.6-2.8.8s-1.8.0-2.4-.3h-.3c-.1.2-.3.3-.7.6-.1.0-.1.2.0.3.1.2 1.2 2.2 1.9 2.7.7.5 1 .3 1.8-.2.7-.5 1.3-1.1 2.2-1.1s1.6.8 1.6 1.7c.1 1.1-.4 1.7-.9 2.5-.4.6-1.2 1.6-1.6 2.2-.6.6-1.5.5-1.5.5l7.4 3.9c1 .6 2.8.0 3.9-2.2.3-.5 1.9-4.4 2.4-5.5.4-1.1 1-2.4.0-4.5-1-2.2-4-6.1-5.2-7.7-.6-.8-1.3-1.3-3-1.4h-.6C66.3 24.2 64.5 24.5 62.3 25.1"/><radialGradient id="SVGID_7_" cx="481.8754" cy="145.733" r="1.0857" gradientTransform="matrix(20.9814 0 0 -22.5238 -10045.3623 3316.2603)" gradientUnits="userSpaceOnUse"><stop offset="0" style="stop-color:#fff"/><stop offset=".228" style="stop-color:#fff"/><stop offset="1" style="stop-color:#231f20"/></radialGradient><path class="st7" d="M62.4 32.8c-.9.2-1.8.0-2.4-.3h-.1c-.1.2-.3.3-.7.5-.1.0-.1.2.0.3.1.2 1 1.9 1.8 2.5.7.5 1 .3 1.9-.2.9-.5 1.3-1.1 2.2-.9l.1-2.5C64.8 32.3 63.3 32.6 62.4 32.8"/><radialGradient id="SVGID_8_" cx="481.7027" cy="151.8885" r="1.2794" gradientTransform="matrix(20.9814 0 0 -23.3737 -10045.3623 3574.3809)" gradientUnits="userSpaceOnUse"><stop offset="0" style="stop-color:#fff"/><stop offset=".571" style="stop-color:#f7f7f7"/><stop offset=".863" style="stop-color:#231f20"/><stop offset="1" style="stop-color:#231f20"/></radialGradient><path class="st8" d="M56.7 27.4v.3l.3.6c0 0 .1.3.6.6.4.3.9.3 1 .5.1.0.1.0.3-.2.1-.2.4-1.1 2.2-1.6.9-.3 1.6-.3 1.9-.3l-.7-2C59.8 26 56.7 27.3 56.7 27.4"/><radialGradient id="SVGID_9_" cx="482.2477" cy="151.2887" r="4.2382" gradientTransform="matrix(20.9814 0 0 -23.3737 -10045.3623 3574.3809)" gradientUnits="userSpaceOnUse"><stop offset="0" style="stop-color:#fff"/><stop offset=".253" style="stop-color:#fff"/><stop offset=".346" style="stop-color:#a7a6a6"/><stop offset=".412" style="stop-color:#7b7979"/><stop offset=".472" style="stop-color:#4f4c4c"/><stop offset="1" style="stop-color:#4f4c4c"/></radialGradient><path class="st9" d="M65.9 39c-.4.6-1.2 1.6-1.6 2.2-.6.6-1.3.5-1.3.5s4.5 2.4 7.1 3.9c1 .6 2.7.2 3.9-2 .3-.5 1.9-4.4 2.4-5.5l-9.6-1.4C66.9 37.6 66.3 38.4 65.9 39"/><linearGradient id="SVGID_10_" gradientUnits="userSpaceOnUse" x1="481.4818" y1="150.698" x2="479.3832" y2="150.1733" gradientTransform="matrix(20.9814 0 0 -23.3737 -10045.3623 3574.3809)"><stop offset="0" style="stop-color:#f4f4f4"/><stop offset=".258" style="stop-color:#bdbcbc"/><stop offset=".648" style="stop-color:#f4f4f4"/><stop offset=".896" style="stop-color:#fff"/><stop offset="1" style="stop-color:#fff"/></linearGradient><path class="st10" d="M51.3 51.7c-1.2.0-3.9.3-4.6.5-.7.2-1.9 1.3-2.1 1.4-.3.3-.3.6.0.6h.9c.9-.2 3.6-.2 6.4-.2h6.8c-1.2-1.3-2.1-2.8-2.4-2.8C55.6 51.3 51.6 51.6 51.3 51.7"/><path class="st11" d="M44.5 54.4c-.1.0-.1-.2-.1-.3.0-.2.1-.3.3-.5.1-.2 1.3-1.3 2.2-1.4.7-.2 3.4-.5 4.6-.5.3.0 4.3-.3 4.9-.5.1.0.3.2.4.3.1.2.3.5.6.6.4.6.9 1.3 1.5 1.9l.1.2h-7c-3 0-5.5.2-6.4.2H44.5zM44.8 54.2h.6c.9-.2 3.6-.2 6.4-.2h6.7c-.7-.9-1.5-2-1.9-2.5l-.3-.3c-.6.0-4.5.3-4.8.3-1.2.0-3.9.3-4.6.5-.7.2-1.9 1.3-2.1 1.4s-.1.3-.1.5.0.2.1.2C44.6 54.2 44.6 54.2 44.8 54.2"/><linearGradient id="SVGID_11_" gradientUnits="userSpaceOnUse" x1="847.3514" y1="-22.4537" x2="869.42" y2="-49.341" gradientTransform="matrix(9.1959 0 0 -10.2454 -7735.5381 -208.1745)"><stop offset="0" style="stop-color:#fff"/><stop offset=".069" style="stop-color:#e3e2e2"/><stop offset=".157" style="stop-color:#fff"/><stop offset=".33" style="stop-color:#d3d3d3"/><stop offset=".502" style="stop-color:#fff"/><stop offset=".98" style="stop-color:#bbbaba"/><stop offset="1" style="stop-color:#bbbaba"/></linearGradient><path class="st12" d="M61.9 21c-1 .6-1 1.4-1.8 1.9-.7.5-2.4.8-4 1.6-.9.5-.9.5-.7 1.1.1.2.7 1.4 1 1.4s.7-.2 1-.3c.4-.2 3.9-1.6 6.5-2.2 3-.6 6.1-.8 7.3.5 1.8 1.9 4.8 6.3 5.6 8 .9 1.9.7 2.7.1 4.5-.6 1.7-2.7 6.3-3.3 7.2s-1.3 1.4-3.1.6c-1.9-.8-8.9-4.7-10.4-5.5-1-.5-5.3-2.8-8.6-4.5-1.2-.6-2.2-1.1-3.3-1.4-2.4-.6-5-.3-6.2-.2-.6.2-.9 1.1-.9 1.4.0.3.6.3 1.3.2h1c.9.0 3.7.5 5.5 1.1 1.8.8 10.7 5.8 12.9 7.1 17.2 9.9 24.5 16.1 37.7 39.6.6 1.1.9 2.4.0 2.7-1.3.5-7 1.6-8.8 2.2-1.5.5-1.6.6-1.8 1.4-.3.8-.6 2.5-.4 2.8.0.2-.1.3.1.3 1.6.0 7.3.0 11.7.5.6.0.6.0.9-.5.4-.6 1.9-2.5 3-3.3.4-.3.1-.9.0-1.1-1.2-3.3-4.8-10.7-9.6-18.2-4.8-7.4-12.9-17.4-14-19.1-1-1.6-1.5-3.4.7-4.2 1.5-.5 5-1.3 6.5-1.7s1.5-.9 1.6-2c.1-1.3-.1-7.4-.9-11-.1-.8-.6-1.4-1.2-1.9-.4-.3-2.5-2.2-3.6-3.4-1.2-1.6-1.8-3-2.1-4.1-.3-1.1.0-.2-.3-.5l-.3-.3c-2.1-1.4-9.6-3.6-11.3-3.8h-.3C68.5 18.4 65 19 61.9 21"/><linearGradient id="SVGID_12_" gradientUnits="userSpaceOnUse" x1="480.8753" y1="151.4696" x2="490.772" y2="142.0697" gradientTransform="matrix(20.9814 0 0 -23.3737 -10045.3623 3574.3809)"><stop offset="0" style="stop-color:#dedede"/><stop offset=".507" style="stop-color:#4f4c4c"/><stop offset="1" style="stop-color:#dedede"/></linearGradient><path class="st13" d="M41.5 35.8h2.7c1.6.2 3.6.6 4.9 1.1 1.8.8 10.2 6.1 12.5 7.4 6.5 3.9 11.6 7.5 16.3 11.6C85 61.9 91.2 69 99 83.4c.3.6.4.9.4 1.6.0.8-.6 1.1-.9 1.1-1.3.5-6.8 1.7-8.5 2.4-1.3.5-1.6.8-1.8 1.6.0.3-.3 1.7-.6 2-.3.3-.9.5-1.6.5-.4.0-.6.0-.6-.5.0-.5.3-1.7.4-2.5.1-.8.4-1.3 1-1.7.6-.5 3-.8 4.2-1.1 1.3-.3 1.3-.9 1.3-2 0 1.1-.3 1.4-1.6 1.6-1.3.3-3.6.6-4.2 1.1-.7.5-1 1.3-1 1.7-.4 1.9-.7 3.3-.7 3.8.0.5.1.5.6.5.4.0 1.5-.2 3.3-.3.4.0.4-.6.4-1.3.0-.3.0-.9.1-1.4.1-.3.4-.6.7-.8.9-.3 6.1-1.7 8.6-2.5 1.2-.3 1.6-.8 1.5-1.9-.1-.9-.9-2.4-2.4-4.9s-3.4-5.8-5.8-9.6c-4.5-6.6-8.8-11.8-14.1-16.3-4-3.3-8.2-6-11.3-7.8-3.1-1.9-16-9.4-18-10-1.8-.6-3.3-.8-4.6-.9-.9-.2-1.6.0-2.4.0-.7.0-.4-.6-.4-.9C41.4 34.8 40.9 35.8 41.5 35.8"/><linearGradient id="SVGID_13_" gradientUnits="userSpaceOnUse" x1="482.0217" y1="150.342" x2="478.1833" y2="144.6036" gradientTransform="matrix(20.9814 0 0 -23.3737 -10045.3623 3574.3809)"><stop offset="0" style="stop-color:#c8c7c8"/><stop offset=".1" style="stop-color:#fff"/><stop offset=".349" style="stop-color:#f0f0f0"/><stop offset=".538" style="stop-color:#fff"/><stop offset=".714" style="stop-color:#393536"/><stop offset=".841" style="stop-color:#fff"/><stop offset=".91" style="stop-color:#514e4f"/><stop offset="1" style="stop-color:#868484"/></linearGradient><path class="st14" d="M65.1 60.4c-.4.6-3 4.9-5 8.9-1.5 2.8-3.3 6.9-3.6 8-.3.9-.4 1.7-.3 2.8.0.9.1 2.7.3 3.8.0 1.1-.1 1.6-1.3 1.9-.9.2-5.9 1.1-7.1 1.4-1.2.3-1.6.9-1.9 1.9-.3.9-.6 2.8-.6 3.1.0.5.0.5.4.5.3.0 1.2-.2 1.5-.2.3.0.3-.3.3-.6.1-.3.1-.8.3-1.7.1-.8.4-1.4 1.5-1.9 1-.3 6.1-1.3 6.8-1.4.9-.3 1.3-.6 1.5-1.6.1-.9-.1-2.8-.1-4.2.0-1.6.0-2.4.7-4.1 1.6-3.3 6.7-11.1 10.1-15.7s-.3-.3-.7-.6c-.4-.3-1.2-.9-1.5-.9H66C65.7 59.7 65.4 59.9 65.1 60.4"/><linearGradient id="SVGID_14_" gradientUnits="userSpaceOnUse" x1="481.9367" y1="149.6107" x2="482.9461" y2="149.0162" gradientTransform="matrix(20.9814 0 0 -23.3737 -10045.3623 3574.3809)"><stop offset="0" style="stop-color:#fff"/><stop offset=".521" style="stop-color:#cfcece"/><stop offset=".835" style="stop-color:#4f4c4c"/><stop offset="1" style="stop-color:#393536"/></linearGradient><path class="st15" d="M64.5 83.2c-.9 2.2-1.2 3.4-1.2 4.4s.1 1.3.1 1.3c0-.9.3-1.7.9-2.7.7-1.1 1.9-2.4 3.4-3.9 2.5-2.8 8.6-9.1 8.9-9.4.1-.2.3-.3.0-.6l-1.9-2c-.6-.6-1-.9-1-1.3C73.6 69 66.8 77.1 64.5 83.2"/><linearGradient id="SVGID_15_" gradientUnits="userSpaceOnUse" x1="482.0801" y1="150.2687" x2="483.1497" y2="151.5492" gradientTransform="matrix(20.9814 0 0 -23.3737 -10045.3623 3574.3809)"><stop offset="0" style="stop-color:#fff"/><stop offset=".209" style="stop-color:#fff"/><stop offset=".5" style="stop-color:#dedede"/><stop offset=".945" style="stop-color:#9c9a9b"/><stop offset="1" style="stop-color:#959494"/></linearGradient><path class="st16" d="M41.7 35.8 98.4 86c.6-.2.9-.6.9-.9.0-.5.0-.9-.3-1.6C91.1 69 85.2 62.2 77.9 56.1 76.7 55 75.4 53.9 74 53c-3.7-2.8-7.7-5.6-12.5-8.5-1.3-.8-5.3-3.3-8.5-5.2-1.8-1.1-3.4-2-4-2.2-1.2-.6-3.3-.9-4.9-1.3-.6.0-1-.2-1.6-.2C42.4 35.6 42 35.8 41.7 35.8"/><linearGradient id="SVGID_16_" gradientUnits="userSpaceOnUse" x1="482.6855" y1="151.9982" x2="484.08" y2="150.5717" gradientTransform="matrix(20.9814 0 0 -23.3737 -10045.3623 3574.3809)"><stop offset="0" style="stop-color:#231f20"/><stop offset=".179" style="stop-color:#f4f4f4"/><stop offset=".579" style="stop-color:#444041"/><stop offset="1" style="stop-color:#231f20"/></linearGradient><path class="st17" d="M81.7 21.6c.1.2.3.2.4.3.4.3.4.8.4.8.1.9.7 2.4 1.9 3.8 1 1.3 3.1 3.1 3.6 3.4.3.2.6.5.7.6.1-.8.3-1.6.7-2.4.0.2-.1.2-.1.3-.1.2-.3.3-.6.3-.3.0-.4-.2-.6-.3-1.2-.9-4.3-3.4-4.8-5.8-.3-1.1.0-.6-.9-1.1-.3-.2-.6-.3-.9-.3C81.6 21.5 81.6 21.5 81.7 21.6"/><linearGradient id="SVGID_17_" gradientUnits="userSpaceOnUse" x1="482.7252" y1="150.5587" x2="484.3115" y2="151.6002" gradientTransform="matrix(20.9814 0 0 -23.3737 -10045.3623 3574.3809)"><stop offset="0" style="stop-color:#231f20"/><stop offset=".179" style="stop-color:#f4f4f4"/><stop offset=".579" style="stop-color:#444041"/><stop offset="1" style="stop-color:#231f20"/></linearGradient><path class="st18" d="M88.4 45.9c-1.5.5-5.2 1.3-6.7 1.7-1 .5-1.2.8-1.2 1.3s.3 1.3.7 2c.6.8 3.3 4.1 6.2 8 .3.5.4.6.7.9-.1-.2-4.3-5.8-5.6-7.4-.3-.5-.7-1.1-.7-1.9.0-.8.6-1.9 1.8-2.4 1.6-.6 4.5-1.6 5.2-2 .6-.3.9-.6.9-1.1C89.3 45.5 88.9 45.8 88.4 45.9"/><linearGradient id="SVGID_18_" gradientUnits="userSpaceOnUse" x1="483.0442" y1="151.7858" x2="485.1284" y2="151.7858" gradientTransform="matrix(20.9814 0 0 -23.3737 -10045.3623 3574.3809)"><stop offset="0" style="stop-color:#656263"/><stop offset=".286" style="stop-color:#d3d3d3"/><stop offset=".533" style="stop-color:#656263"/><stop offset=".758" style="stop-color:#393536"/><stop offset="1" style="stop-color:#231f20"/></linearGradient><path class="st19" d="M95 24.2c-2.8.0-4.8 2.7-5.3 5 .6-2.2 2.4-4.7 5.3-4.7 3.7.0 5.2 1.4 5.8 3.6-.6-3-3.1-4.1-5.5-4.1C95.1 24.2 95 24.2 95 24.2"/><linearGradient id="SVGID_19_" gradientUnits="userSpaceOnUse" x1="480.8846" y1="149.1714" x2="485.6902" y2="149.1714" gradientTransform="matrix(20.9814 0 0 -23.3737 -10045.3623 3574.3809)"><stop offset="0" style="stop-color:#231f20"/><stop offset=".179" style="stop-color:#9e9d9d"/><stop offset=".579" style="stop-color:#444041"/><stop offset="1" style="stop-color:#231f20"/></linearGradient><path class="st20" d="M68.1 82.6c-2.8 3.1-4.2 4.1-4.2 6 0 1.1.1 3.9.1 4.4.0.3.0.6-.4.8-.3.2-.6.2-.7.2-.7.0-8.3-.8-11-.8-2.7.0-4.9.3-6.2.6-.3.0-.7.0-1-.3-.1-.2-.1-.3-.1-.5.0.5-.1 1.3-.1 1.4.4-.2 1.6-.3 3.1-.3 1.9-.2 4-.2 5.3-.2s11.9.6 11.9.6c0-.8-.1-2.8-.1-4.1v-1.3c0-.9.1-2.2 1-3.1.4-.6 2.4-2.8 4.5-5.2C69.1 81.5 68.5 82.1 68.1 82.6"/><linearGradient id="SVGID_20_" gradientUnits="userSpaceOnUse" x1="482.437" y1="149.6239" x2="484.5863" y2="149.6239" gradientTransform="matrix(20.9814 0 0 -23.3737 -10045.3623 3574.3809)"><stop offset="0" style="stop-color:#231f20"/><stop offset=".179" style="stop-color:#9e9d9d"/><stop offset=".579" style="stop-color:#444041"/><stop offset="1" style="stop-color:#231f20"/></linearGradient><path class="st21" d="M76.8 73.4c.3.0.6.2.7.5.6.5 7.6 6 8.9 6.9.6.5 1.2.8 1.8.9-.4-.3-1.2-.9-2.1-1.7-1.3-1.1-3.1-2.5-4.8-3.9-1.5-1.3-3-2.5-4.2-3.4C77.3 73 77 73.4 76.8 73.4"/><linearGradient id="SVGID_21_" gradientUnits="userSpaceOnUse" x1="482.8023" y1="149.5602" x2="486.7502" y2="149.5602" gradientTransform="matrix(20.9814 0 0 -23.3737 -10045.3623 3574.3809)"><stop offset="0" style="stop-color:#231f20"/><stop offset=".179" style="stop-color:#9e9d9d"/><stop offset=".579" style="stop-color:#444041"/><stop offset="1" style="stop-color:#231f20"/></linearGradient><path class="st22" d="M93.6 65.7c0 .2-.1.5-.1.8.0.5.1 1.1.7 1.9.3.5.6.9 1 1.4 4.9 7.5 8.3 14.9 9.5 18.3.3.8.3 1.3.0 1.6-.3.3-2.5 2.8-2.8 3.3l-.4.5c-.1.2-.6.3-1 .3-3.7-.3-7.9-.5-9.9-.5-2.7.0-4.2.3-5 .3-.4.0-.7-.2-.9-.2v.8c1.6-.3 3.7-.5 6.2-.5h2.4c4 .2 8.6.5 8.6.5s2.2-3 3.6-4.2c.3-.2.3-.2.3-.3s0-.3-.1-.8c-1.5-4.2-6.8-14.9-11-20.7-.4-.6-.7-1.3-.7-1.9.0-.6.3-1.1.7-1.4.3-.3 1-.9 1.9-1.9C94.8 64.4 93.8 65.4 93.6 65.7"/><linearGradient id="SVGID_22_" gradientUnits="userSpaceOnUse" x1="480.8318" y1="150.4732" x2="484.9472" y2="150.4732" gradientTransform="matrix(20.9814 0 0 -23.3737 -10045.3623 3574.3809)"><stop offset="0" style="stop-color:#7b7979"/><stop offset=".179" style="stop-color:#d3d3d3"/><stop offset="1" style="stop-color:#231f20"/></linearGradient><path class="st23" d="M46 55.2c-1.6.2-2.4.3-2.5.3h-.3c0 0 .1.2.1.3h.1c.9-.3 3.1-.5 5.8-.5 2.5.0 5.3.0 6.8.2 1.3.0 3.1.3 4.6 1.1 1.3.8 4.3 3 4.5 2.8-1.2-.9-2.5-1.7-3.6-2.5-1.5-.9-3-1.7-3.4-1.7h-7.3C48.8 55 46.7 55.2 46 55.2"/><linearGradient id="SVGID_23_" gradientUnits="userSpaceOnUse" x1="480.854" y1="151.0785" x2="482.2825" y2="151.0785" gradientTransform="matrix(20.9814 0 0 -23.3737 -10045.3623 3574.3809)"><stop offset="0" style="stop-color:#444041"/><stop offset=".179" style="stop-color:#d3d3d3"/><stop offset="1" style="stop-color:#231f20"/></linearGradient><path class="st24" d="M43.9 41.4h.3c.4.0 1.2.0 1.8.3 1.2.6 4.2 3 4.6 3.4.6.6 1.2.6.6.2-1.8-1.7-4.3-3.6-5.6-3.9-.4-.2-1-.2-1.5-.2-.4.0-.3-.5-.4-.6C43.4 40.5 43.6 41.4 43.9 41.4"/><linearGradient id="SVGID_24_" gradientUnits="userSpaceOnUse" x1="480.5363" y1="150.5648" x2="481.5005" y2="150.5648" gradientTransform="matrix(20.9814 0 0 -23.3737 -10045.3623 3574.3809)"><stop offset="0" style="stop-color:#7b7979"/><stop offset=".179" style="stop-color:#bdbcbc"/><stop offset="1" style="stop-color:#444041"/></linearGradient><path class="st25" d="M41.2 54.2c-.9.0-2.8 1.1-3.3 1.3-.4.3-.7.3-1 0 .1.3.4.6.6.5.1-.2 2.7-1.4 3.9-1.4.3.0.4.0.7.2C42 54.4 41.7 54.2 41.2 54.2v0z"/><linearGradient id="SVGID_25_" gradientUnits="userSpaceOnUse" x1="481.82" y1="152.0025" x2="481.9249" y2="151.772" gradientTransform="matrix(20.9814 0 0 -23.3737 -10045.3623 3574.3809)"><stop offset="0" style="stop-color:#fff"/><stop offset=".115" style="stop-color:#eee"/><stop offset=".907" style="stop-color:#5a5758"/><stop offset="1" style="stop-color:#5a5758"/></linearGradient><path class="st26" d="M65.4 21.2c-.6.2-2.4.6-2.5.6-.1.0-.3.2-.4.3-.1.2-.1.6-.1.9.0.2.3.3.4.2.4-.2 2.7-1.1 3-1.1.1.0.3-.2.3-.3v-.5c0-.2-.1-.3-.3-.3C65.7 21.2 65.6 21.2 65.4 21.2"/><path class="st0" d="M65.4 21.3c.3.0.4.0.4.2v.3c0 0 0 .2-.1.2-.3.2-1.9.8-2.2.9-.3.2-.6.0-.6-.2.0-.2.0-.5.1-.5.0-.2.1-.2.3-.3C63.5 22 65 21.5 65.4 21.3"/><linearGradient id="SVGID_26_" gradientUnits="userSpaceOnUse" x1="481.4868" y1="151.4297" x2="485.3811" y2="151.4297" gradientTransform="matrix(20.9814 0 0 -23.3737 -10045.3623 3574.3809)"><stop offset="0" style="stop-color:#fff"/><stop offset=".98" style="stop-color:#231f20"/><stop offset="1" style="stop-color:#231f20"/></linearGradient><path class="st27" d="M67.8 23.8c-4.6.2-8.6 2.2-11 3.1 1.6-.6 5.5-2.4 9.9-2.5 2.4-.2 3.4.0 4.3 1.1 1.3 1.6 4.3 5.6 5.3 7.8.4.8.6 1.6.6 2.2-.1.9-.4 1.7-.7 2.4-.4 1.1-2.2 4.7-2.5 5.3-1.2 2.2-2.4 2.2-3.7 1.9-1.3-.3.6.3 1.2.6 1.5.6 2.4-.3 3.3-1.9.3-.5 2.1-4.5 2.5-5.8.3-.8.6-1.4.6-2.4.0-.6-.1-1.6-.6-2.4-1-2.2-4.2-6.4-5.3-8-1-1.3-1.9-1.6-3.4-1.6L67.8 23.8z"/><linearGradient id="SVGID_27_" gradientUnits="userSpaceOnUse" x1="481.4227" y1="149.1087" x2="482.8661" y2="154.2137" gradientTransform="matrix(20.9814 0 0 -23.3737 -10045.3623 3574.3809)"><stop offset="0" style="stop-color:#e9e9e9"/><stop offset=".066" style="stop-color:#5a5758"/><stop offset=".352" style="stop-color:#918f90"/><stop offset=".604" style="stop-color:#b7b5b6"/><stop offset=".959" style="stop-color:#706d6e"/><stop offset="1" style="stop-color:#b2b1b1"/></linearGradient><path class="st28" d="M62.4 69.8c-1.6 2.8-4 6.9-4.5 7.8-.3.8-.4 1.6-.4 2.5.0.9.1 4.4.1 4.5.0.6-.1.9-.3 1.4-.3.3-.7.5-1.3.6-1 .2-5.6.9-6.8 1.1-1.2.3-1.8.9-2.1 1.7-.1.6-.4 1.7-.4 2.2V92c0 .5.1.5.1.5s5.3-.5 8.5-.2c3.1.2 7.6.6 7.6.6s-4.6-.9-7.7-1.1c-1.6-.2-3.4.0-4.8.0-1.5.0-2.5.2-2.5.0s-.1-.3.0-.8c0-.3.1-.6.1-.9.1-.8.6-1.6 1.8-1.9s5.6-1.1 6.5-1.3c.9-.2 1.3-.6 1.5-1.3v-1.3c0-.9-.1-3.4-.1-3.6.0-1.6.1-2.4 1-4.1 1.5-2.7 7.1-11.6 9.8-14.7.1-.2.3-.3.6-.3H69c0 0-.3-.2-.6-.5C67.6 61.9 64.5 66.1 62.4 69.8"/><path class="st29" d="M2 113v13.1h3.4v-4h3.1c6.6.0 9.9-2.2 9.9-4.7.0-2.6-3.6-4.4-9.6-4.4H2zM5.4 120.7v-6.2h2.7c2.8.0 6.4.5 6.4 2.9.0 1.7-1.2 3.3-6.9 3.3C7.7 120.7 5.4 120.7 5.4 120.7v0zm32.5 5.5v-1.7h-8.4c-1.8.0-2.3-.9-2.3-2.3v-1.9h9.9v-1.7h-9.9v-3.9h10.3V113H23.7v9.2c0 2.4 1 3.9 4.1 3.9L37.9 126.2v0zM59.8 113h-3.4v11.1c-.9.3-2.2.6-4 .6-2.6.0-5.2-.7-5.2-3.1V113h-3.4v8.9c0 3.6 3.4 4.7 7.2 4.7 3.6.0 6.5-.8 8.9-1.8V113zM69.3 119.6c0-3.7 2.9-5.4 6.5-5.4 2.9.0 5.2.9 7.3 1.7v-2.2c-2.3-.7-4.4-1.1-7.3-1.1-5.7.0-10.4 2.8-10.4 7 0 4.4 4.7 6.9 10.4 6.9 2.9.0 5.8-.6 7.7-1.1v-5.2h-3.4v3.9c-1.2.5-2.1.8-4.1.8C72.2 124.9 69.3 122.9 69.3 119.6M103.9 126.2v-1.7h-8.4c-1.8.0-2.3-.9-2.3-2.3v-1.9h9.9v-1.7h-9.9v-3.9h10.3V113H89.7v9.2c0 2.4 1 3.9 4.1 3.9L103.9 126.2v0zM118.7 112.7c-5.7.0-10.4 2.8-10.4 7 0 4.4 4.7 6.9 10.4 6.9 5.7.0 10.4-2.4 10.4-6.9C129.1 115.5 124.5 112.7 118.7 112.7M118.7 125.1c-3.9.0-6.5-2.1-6.5-5.4.0-3.6 2.9-5.4 6.5-5.4s6.5 1.8 6.5 5.4C125.3 123 122.6 125.1 118.7 125.1M131.9 114.9h6.8v11.2h3.4v-11.2h6.8V113h-17.1V114.9z"/></g></svg>