<?xml version="1.0" encoding="UTF-8" standalone="no"?>
<svg
   xmlns:dc="http://purl.org/dc/elements/1.1/"
   xmlns:cc="http://creativecommons.org/ns#"
   xmlns:rdf="http://www.w3.org/1999/02/22-rdf-syntax-ns#"
   xmlns:svg="http://www.w3.org/2000/svg"
   xmlns="http://www.w3.org/2000/svg"
   viewBox="0 0 612 792"
   id="svg2"
   height="792"
   width="612"
   version="1.1">
  <metadata
     id="metadata10">
    <rdf:RDF>
      <cc:Work
         rdf:about="">
        <dc:format>image/svg+xml</dc:format>
        <dc:type
           rdf:resource="http://purl.org/dc/dcmitype/StillImage" />
      </cc:Work>
    </rdf:RDF>
  </metadata>
  <defs
     id="defs8" />
  <path
     id="path4"
     style="fill:#e30016;fill-rule:evenodd"
     d="m 161.9403,319.5981 c 21.4678,-24.9434 42.9363,-49.8867 64.4036,-74.8306 12.5133,-14.5377 8.224,-7.3336 8.0788,10.3015 -0.4176,50.1449 1.1932,100.976 1.4082,151.0528 0.0304,7.0629 0.6337,12.9811 -7.6488,3.6038 -21.8889,-24.7823 -45.0165,-51.4029 -65.9424,-76.8494 -6.6036,-8.0315 -6.9149,-5.5899 -0.2994,-13.2781 z M 381.2009,165.0618 c -32.761,-45.9142 -116.7115,-23.5784 -119.318,43.1857 -0.2482,59.8137 -0.4964,119.628 -0.7446,179.4418 -0.2718,16.0602 -10.2147,24.6444 -25.5022,29.4105 31.6989,56.9337 125.5254,40.6163 128.2534,-29.4105 -1.241,-60.062 -2.4821,-120.1245 -3.7231,-180.1864 -0.5589,-30.2795 12.1002,-32.0789 21.0345,-42.4411 z m -1.035,22.9965 c -0.1869,41.8833 -0.3743,83.7665 -0.5612,125.6492 -0.0923,21.0976 -2.5203,20.3422 12.0102,5.0182 20.7041,-21.8332 41.4082,-43.668 62.1117,-65.5006 10.3667,-10.9329 7.8014,-8.0242 -3.9814,-19.6977 -16.3625,-16.2128 -32.7255,-32.4261 -49.088,-48.6378 -21.814,-21.6142 -20.3557,-27.5525 -20.4913,3.1687 z m -333.0612,382.5004 29.59,-2.0352 c 0.6326,5.281 1.9445,9.2996 3.9127,12.0822 3.1862,4.4824 7.7783,6.6977 13.729,6.6977 4.4278,0 7.8481,-1.1336 10.2615,-3.426 2.3892,-2.2929 3.5846,-4.9466 3.5846,-7.9606 0,-2.8591 -1.1245,-5.4357 -3.4208,-7.7028 -2.2958,-2.2665 -7.5909,-4.4047 -15.9308,-6.4145 -13.6356,-3.3747 -23.3584,-7.8312 -29.1685,-13.4217 -5.8573,-5.59 -8.7857,-12.7002 -8.7857,-21.3559 0,-5.6936 1.4994,-11.0775 4.4981,-16.1267 2.9993,-5.0491 7.4974,-9.0164 13.5185,-11.9274 6.0206,-2.8856 14.2677,-4.3281 24.7402,-4.3281 12.8617,0 22.6779,2.6278 29.4256,7.883 6.7478,5.2556 10.754,13.6277 12.0423,25.0919 l -29.3086,1.8804 c -0.7734,-4.9721 -2.4134,-8.6045 -4.9203,-10.8716 -2.4831,-2.2412 -5.9271,-3.3747 -10.3081,-3.3747 -3.6314,0 -6.3492,0.8245 -8.1767,2.5248 -1.8275,1.6744 -2.741,3.7355 -2.741,6.1568 0,1.7521 0.7497,3.3235 2.249,4.7401 1.4763,1.4684 4.9433,2.808 10.4489,4.0704 13.5889,3.2205 23.3111,6.4922 29.1921,9.7892 5.8798,3.2976 10.1674,7.368 12.8381,12.2628 2.6711,4.8685 4.0298,10.3302 4.0298,16.3839 0,7.0843 -1.8039,13.6277 -5.3654,19.6044 -3.5605,6.0025 -8.551,10.5366 -14.9706,13.6277 -6.3954,3.0916 -14.4782,4.6371 -24.2241,4.6371 -17.1031,0 -28.9579,-3.6066 -35.5413,-10.871 -6.6064,-7.2391 -10.3318,-16.4356 -11.1985,-27.6162 z m 107.0669,-74.0386 31.0894,0 0,41.8112 32.6123,-41.8112 41.3278,0 -36.6653,41.7335 38.3048,68.9119 -38.3048,0 -21.2028,-45.5202 -16.072,18.4967 0,27.0235 -31.0894,0 0,-110.6454 z m 106.8097,0 34.5333,0 20.3124,37.3542 20.3124,-37.3542 34.3222,0 -39.1254,64.3006 0,46.3448 -31.1597,0 0,-46.3448 -39.1952,-64.3006 z m 161.6548,70.5609 0,-23.0049 48.0282,0 0,47.1687 c -9.1842,6.8783 -17.3131,11.5926 -24.3883,14.0656 -7.0753,2.499 -15.4631,3.7355 -25.1623,3.7355 -11.9482,0 -21.6716,-2.2412 -29.1915,-6.7235 -7.5441,-4.4571 -13.3778,-11.1288 -17.5011,-19.991 -4.1469,-8.8617 -6.2322,-19.0117 -6.2322,-30.4754 0,-12.0822 2.2727,-22.5929 6.7945,-31.5323 4.5453,-8.9135 11.1754,-15.6888 19.9144,-20.3253 6.817,-3.5813 16.0012,-5.3587 27.5278,-5.3587 11.1052,0 19.422,1.1077 24.9512,3.3235 5.5056,2.2153 10.0741,5.6418 13.729,10.3042 3.6314,4.6371 6.3724,10.5367 8.1999,17.6981 l -29.9885,5.8736 c -1.2411,-4.1733 -3.35,-7.3679 -6.302,-9.5832 -2.9289,-2.2153 -6.7004,-3.3229 -11.2689,-3.3229 -6.8181,0 -12.2533,2.6019 -16.3062,7.8052 -4.0534,5.2298 -6.0914,13.4476 -6.0914,24.7312 0,11.9791 2.0616,20.5318 6.1618,25.6581 4.076,5.1267 9.7931,7.7028 17.1256,7.7028 3.4676,0 6.7945,-0.5668 9.9339,-1.6744 3.1625,-1.1076 6.7944,-2.9886 10.8468,-5.6418 l 0,-10.4331 -20.7807,0 z m 62.5773,-15.1738 c 0,-18.0588 4.5921,-32.1244 13.729,-42.1714 9.1605,-10.0723 21.9052,-15.0961 38.235,-15.0961 16.7514,0 29.6603,4.9461 38.7263,14.8384 9.0435,9.8669 13.5889,23.7264 13.5889,41.5275 0,12.932 -1.9918,23.5458 -5.9507,31.8154 -3.9595,8.2696 -9.6761,14.7095 -17.1499,19.3213 -7.4968,4.6112 -16.7975,6.9036 -27.973,6.9036 -11.3393,0 -20.734,-1.9834 -28.1841,-5.9508 -7.427,-3.9927 -13.4481,-10.2789 -18.087,-18.8828 -4.6151,-8.6045 -6.9345,-19.373 -6.9345,-32.3051 z m 31.1124,0.1548 c 0,11.1806 1.8742,19.1924 5.6463,24.0867 3.7726,4.869 8.9264,7.3162 15.4158,7.3162 6.6774,0 11.8548,-2.396 15.5098,-7.1614 3.6544,-4.7919 5.5055,-13.3705 5.5055,-25.7358 0,-10.4331 -1.9209,-18.0329 -5.7397,-22.8502 -3.8193,-4.7919 -8.9967,-7.1878 -15.5565,-7.1878 -6.2552,0 -11.2925,2.4218 -15.0876,7.3167 -3.7957,4.8685 -5.6936,12.958 -5.6936,24.2156 z" />
</svg>
