<svg id="Layer_1" data-name="Layer 1" xmlns="http://www.w3.org/2000/svg" viewBox="0 0 80 60"><defs><style>.cls-1{fill:#0855a1;}.cls-2{fill:#282828;}</style></defs><title>logos</title><path class="cls-1" d="M31.69,26.14a4,4,0,0,1-.18-1.62,4.23,4.23,0,0,1,.78-2.08,4.51,4.51,0,0,1,3-1.83,11,11,0,0,1,2.92,0L41,20.86c1,0.11,2,.24,3,0.35s1.82,0.18,2.73.25,1.66,0.11,2.49.1a6.91,6.91,0,0,0,3.39-.79,5.39,5.39,0,0,1,.59-0.31c-0.15.3-.29,0.6-0.46,0.89a7,7,0,0,1-3,3,7.29,7.29,0,0,1-2.56.67,13.6,13.6,0,0,1-3.17-.2l-0.87-.12a0.23,0.23,0,0,0-.27.23c-0.19.61-.34,1.23-0.58,1.82a9.3,9.3,0,0,1-3,4.11,8.21,8.21,0,0,1-3.52,1.5,9.72,9.72,0,0,1-2.54.15A7.77,7.77,0,0,1,29,30.8a7.19,7.19,0,0,1-2.56-3.69,9.46,9.46,0,0,1-.32-1.94,9,9,0,0,1,2.49-6.93,10.32,10.32,0,0,1,5.39-3,17.7,17.7,0,0,1,4.59-.35c1.13,0,2.27.12,3.4,0.19l1.91,0.13c0.75,0.06,1.51.13,2.26,0.18s1.27,0.07,1.91.09c0.95,0,1.9.09,2.85,0.09s1.64-.05,2.46-0.13a17.11,17.11,0,0,0,2-.29,12,12,0,0,0,1.37-.46l-0.22.51a10.16,10.16,0,0,1-2,3.1,7.71,7.71,0,0,1-3.94,2.21,8.26,8.26,0,0,1-2.13.09c-1.11,0-2.21-.1-3.32-0.19s-2.31-.24-3.46-0.36l-2.53-.3a12.65,12.65,0,0,0-1.29-.09,16.83,16.83,0,0,0-2.25,0A5.3,5.3,0,0,0,31,23a5.24,5.24,0,0,0-.38,2.38,4.73,4.73,0,0,0,3.84,4.29,6,6,0,0,0,6.33-3.13,8,8,0,0,0,.73-1.8c0.07-.26,0-0.33-0.23-0.37C40.13,24.2,39,24,37.91,23.83a11.56,11.56,0,0,0-2.44-.17,4.35,4.35,0,0,0-2.95,1.17,6,6,0,0,0-.67,1A2.87,2.87,0,0,0,31.69,26.14Z"/><path class="cls-1" d="M59.53,41.16c0,0.18,0,.31,0,0.44q0,2,0,4c0,0.29,0,.33-0.34.33l-1.53,0-0.54,0a0.22,0.22,0,0,1-.25-0.26q0-3.88,0-7.76a0.22,0.22,0,0,1,.26-0.26H58.9a0.83,0.83,0,0,1,.62.26l4,3.95,0.28,0.26a0.89,0.89,0,0,0,.17.09A0.71,0.71,0,0,0,64,42c0-.19,0-0.39,0-0.58q0-1.75,0-3.49c0-.26,0-0.3.3-0.31h2.11c0.24,0,.28,0,0.28.28q0,3.86,0,7.72c0,0.22,0,.27-0.27.27H64.55a0.64,0.64,0,0,1-.48-0.2l-4.14-4.21C59.81,41.41,59.68,41.3,59.53,41.16Z"/><path class="cls-1" d="M78,40.79H75.6a0.86,0.86,0,0,1-.9-0.41,1.9,1.9,0,0,0-1.63-.81A2.09,2.09,0,0,0,71,40.91a2.83,2.83,0,0,0,0,2.55,2.21,2.21,0,0,0,3.11.87,2,2,0,0,0,.77-0.9,2.07,2.07,0,0,0,.08-0.26H73.22A0.19,0.19,0,0,1,73,43c0-.36,0-0.72,0-1.08a0.17,0.17,0,0,1,.2-0.2H78c0.1,0,.19,0,0.19.14a4.32,4.32,0,0,1-.72,2.64,3.93,3.93,0,0,1-2,1.32,8.5,8.5,0,0,1-3.09.35,6.64,6.64,0,0,1-3.27-.87,3.19,3.19,0,0,1-1.51-2.42,5.81,5.81,0,0,1,.09-2.29,3.57,3.57,0,0,1,1.78-2.23,6,6,0,0,1,2.74-.81,6.85,6.85,0,0,1,2.82.34,4.85,4.85,0,0,1,2.69,2.29C77.87,40.34,77.94,40.55,78,40.79Z"/><path class="cls-1" d="M44.36,40.27H41.16A0.29,0.29,0,0,1,40.82,40a0.78,0.78,0,0,0-.91-0.7,9.65,9.65,0,0,0-1,.07,0.6,0.6,0,0,0-.49.61,0.35,0.35,0,0,0,.3.33c0.43,0.09.85,0.2,1.28,0.27a11.71,11.71,0,0,1,2.8.65A5.68,5.68,0,0,1,44,42a1.68,1.68,0,0,1,.14,2.6,4.5,4.5,0,0,1-2.34,1.23,11.69,11.69,0,0,1-2.19.25,7.18,7.18,0,0,1-3.22-.56,3.53,3.53,0,0,1-1.51-1.14,2.63,2.63,0,0,1-.41-1.23c0-.13,0-0.18.17-0.18h3a0.2,0.2,0,0,1,.23.19,1.69,1.69,0,0,0,.06.27,1,1,0,0,0,1,.78,11.94,11.94,0,0,0,1.54-.08,0.74,0.74,0,0,0,.64-1,0.52,0.52,0,0,0-.4-0.37c-0.54-.12-1.07-0.26-1.61-0.35A9.65,9.65,0,0,1,36,41.52a2.11,2.11,0,0,1-.85-0.73,1.59,1.59,0,0,1,.3-1.94,4.1,4.1,0,0,1,1.88-1,9.32,9.32,0,0,1,3.28-.26,5.66,5.66,0,0,1,2.31.61A2.54,2.54,0,0,1,44.32,40C44.34,40.05,44.35,40.15,44.36,40.27Z"/><path class="cls-1" d="M45.56,40.69q0-1.35,0-2.69c0-.3,0-0.34.33-0.33l2.07,0,0.58,0c0.26,0,.32.06,0.32,0.32,0,1.56,0,3.11,0,4.67a5.51,5.51,0,0,0,.09.91,0.67,0.67,0,0,0,.54.55,4.05,4.05,0,0,0,1.93,0,0.83,0.83,0,0,0,.73-0.82,7.3,7.3,0,0,0,0-.75q0-2.32,0-4.63a0.2,0.2,0,0,1,.25-0.25h2.77c0.25,0,.27,0,0.27.28,0,1.74,0,3.47,0,5.21a2.29,2.29,0,0,1-1.36,2.13,7,7,0,0,1-2.48.73,9.43,9.43,0,0,1-3.55-.25,5.33,5.33,0,0,1-1.82-1,1.75,1.75,0,0,1-.69-1.42c0-.9,0-1.81,0-2.71h0Z"/><path class="cls-1" d="M23,41.73A3.69,3.69,0,0,1,24.33,39a5.58,5.58,0,0,1,3.06-1.41,6.82,6.82,0,0,1,3.94.5,4.37,4.37,0,0,1,2.35,2.2,3.5,3.5,0,0,1-.68,4,5.36,5.36,0,0,1-3,1.65,6.61,6.61,0,0,1-4.56-.6,4.07,4.07,0,0,1-2.29-2.92C23.07,42.19,23.06,42,23,41.73Zm7.73,0.12a2.37,2.37,0,0,0-.37-1.36,2.18,2.18,0,0,0-3.2-.68,2.64,2.64,0,0,0-.13,4,2,2,0,0,0,1.69.53A2.38,2.38,0,0,0,30.76,41.85Z"/><path class="cls-1" d="M2.18,41.8q0-1.92,0-3.83c0-.25.09-0.31,0.34-0.3q1.15,0,2.31,0c0.26,0,.36.06,0.36,0.32q0,1.22,0,2.43c0,0.27,0,.32.31,0.32H8.59c0.25,0,.33-0.07.33-0.32q0-1.2,0-2.39a0.31,0.31,0,0,1,.39-0.36c0.74,0,1.47,0,2.21,0,0.29,0,.38,0,0.38.32q0,3.79,0,7.58c0,0.36,0,.36-0.37.36H9.18c-0.23,0-.29-0.06-0.29-0.28q0-1.09,0-2.18c0-.21,0-0.42,0-0.64a0.25,0.25,0,0,0-.31-0.3H5.47c-0.24,0-.29.06-0.29,0.3q0,1.39,0,2.77c0,0.27,0,.31-0.31.31H2.48c-0.28,0-.3,0-0.3-0.31Q2.18,43.71,2.18,41.8Z"/><path class="cls-1" d="M12.37,37.69h3.12a0.42,0.42,0,0,1,.37.2l1.93,2.59c0.06,0.08.13,0.15,0.21,0.24l0.67-.9L20,37.95a0.56,0.56,0,0,1,.5-0.26h3l-0.65.84c-1.06,1.36-2.12,2.73-3.2,4.08a1.59,1.59,0,0,0-.26,1.05c0,0.61,0,1.22,0,1.83,0,0.07,0,.13,0,0.2a0.22,0.22,0,0,1-.25.24H16.72a0.21,0.21,0,0,1-.26-0.26c0-.8,0-1.61,0-2.41a1,1,0,0,0-.23-0.68L12.58,38Z"/><circle class="cls-2" cx="0.25" cy="0.28" r="2.06"/><circle class="cls-2" cx="-0.25" cy="60.15" r="2.06"/><circle class="cls-2" cx="80.25" cy="-0.15" r="2.06"/><circle class="cls-2" cx="79.75" cy="59.72" r="2.06"/></svg>