<svg id="Layer_1" xmlns="http://www.w3.org/2000/svg" xmlns:xlink="http://www.w3.org/1999/xlink" viewBox="0 0 150 150" style="enable-background:new 0 0 150 150"><path d="M70.7 93.4l-36.9 4 7.3 7.1h52.2L74 93 70.7 93.4v0zM70.7 64l50.8-13.6c0 0 7.4-.5 14.7-17.2L70.7 54.7l-51 16.6c0 0-4.4 1.4-6.1 2.6.0.0-1.2.7-1.2 2.4.0.0.1 1.2 1 2.1l2.2 2.2 27.8-7.2c0 0-1.7-2.3 1.7-2.7L70.7 64v0zm0 26.5c.1.6.5 1.1.5 1.1l-.5.1L32 96.1l-7.3-6.9 46-8.2 39.3-7c-6.5 12.7-19.5 12.7-19.5 12.7l-16.2 2.1c-2.7.1-3.5.8-3.6 1.5V90.5v0zM70.7 68.6 124.3 55c-6.3 14.3-19.1 14.8-19.1 14.8l-34.5 7-11.3 2.3C54 79.2 56.3 82 56.3 82l-33 5.6-6.2-5.4L70.7 68.6v0zM70.7 39.6 145.6 9c0 0-2.5 7.5-4.1 11.4.0.0-2 6.1-9.8 8.5l-61 21.6L17.8 69c0 0-6.8 2.4-7.9 5.3.0.0-1.6 3.3 2.7 6.9l25.5 23.2h-10L7.6 84.3c0 0-4.6-3.8-5-9.2V74c.1-.4.1-.7.2-1.1.0.0.9-5.9 9.8-9.5L70.7 39.6v0zM16.2 108.3H3v3.3h3v9.9H3v3.4h13.3v-3.4H13v-3.1h9.8v3.1h-3.2v3.4h13.1v-3.4h-3.1v-9.9h3.1v-3.3H19.5v3.3h3.3v3.3H13v-3.3h3.3V108.3H16.2zM132.7 115.9h2.5l-2.5-3.8-.3-.4-2.3 4.2H132.7zM132.7 108.3h5.3l7.9 13.1h3.3v3.4h-14.3v-3.4h3.2l-1.4-2h-8.6l-1.1 2h3.1v3.4h-11v-3.4h3.4l5.4-9.9h-3.7v-3.3H132.7zM107.3 121.2c3.1-.4 5-1.5 5-4.6.0-3.6-2.1-4.7-5-5-.5-.1-1.1-.1-1.7-.1h-3.3v9.8h2.7C105.8 121.3 106.6 121.3 107.3 121.2v0zM107.3 108.3h2.1c5.4.0 9.5 2.5 9.5 8.3.0 6.7-3.8 8.1-11.7 8.2H92.5v-3.4h3.2v-9.9h-3.2v-3.3H107.3V108.3zM46.6 122c3.1-.1 5.5-2.5 5.5-5.4.0-3.1-2.5-5.5-5.5-5.5h-.1c-3 0-5.4 2.4-5.4 5.4.0 2.9 2.3 5.5 5.4 5.5H46.6v0zM46.6 107.4h.2c7.8.0 12.9 2.9 12.9 8.9.0 5.5-4.7 9.2-13 9.2h-.2c-8.1.0-13-3.1-13-9.1C33.4 110.7 38.2 107.4 46.6 107.4v0zM73.7 108.3h-13v3.3h3.1v9.9h-3.1v3.4h10.4v-3.4h-3.3V113l9.2 11.8h10.1v-13.3h3.3v-3.3H79.7v3.3H83v8.7L73.7 108.3v0z"
	/></svg>