<svg id="Layer_1" xmlns="http://www.w3.org/2000/svg" xmlns:xlink="http://www.w3.org/1999/xlink" viewBox="0 0 150 150" style="enable-background:new 0 0 150 150"><style>.st0{fill:#ee2326}</style><path class="st0" d="M68.4 68.5h-11v-9.4h-7v25.4h7V74.4h11v10.2h6.9V59.1h-6.9V68.5zM85.3 68.9c.6-3.4 2.5-5.2 5.6-5.2 3.1.0 5.2 2.1 5.3 5.2H85.3zM90.9 58.5c-7.7.0-12.8 5.3-12.8 13.2.0 8.2 5.1 13.5 13 13.5 6.3.0 10.7-2.9 12.3-8.4h-7.5c-.7 2-2.3 3-4.7 3-3.6.0-5.7-2.1-5.9-5.8h18.1c0-.9.1-1.2.1-1.6C103.5 63.7 98.6 58.5 90.9 58.5M115.3 58.9c-2.5.5-8.8 2.4-8.8 12v13.6h7V73.3c0-4.2.6-6.1 2.3-7.4 1.1-.9 2.6-1.3 4.4-1.3.7.0 1.1.1 1.9.2V59C122.2 59 119.4 58.1 115.3 58.9M136.1 79.9c-3.7.0-5.9-3-5.9-8 0-5.1 2.1-8 5.9-8 3.7.0 5.8 2.9 5.8 8C141.9 76.9 139.8 79.9 136.1 79.9M136.1 58.5c-7.9.0-13 5.2-13 13.4.0 8.1 5.1 13.3 13 13.3 7.8.0 12.9-5.2 12.9-13.3C149 63.7 143.9 58.5 136.1 58.5"/><path d="M31.4 56l-10.9-8v22.9l10.9-7.5V56zm0 32.7V73l-10.9 7.8L31.4 88.7z"/><path class="st0" d="M1.5 87.8l10.9 7.9V63L1.5 55V87.8z"/></svg>