<?xml version="1.0" encoding="UTF-8" standalone="no"?>
<svg
   xmlns:dc="http://purl.org/dc/elements/1.1/"
   xmlns:cc="http://creativecommons.org/ns#"
   xmlns:rdf="http://www.w3.org/1999/02/22-rdf-syntax-ns#"
   xmlns:svg="http://www.w3.org/2000/svg"
   xmlns="http://www.w3.org/2000/svg"
   viewBox="0 0 258.66666 258.66666"
   height="258.66666"
   width="258.66666"
   xml:space="preserve"
   id="svg2"
   version="1.1"><metadata
     id="metadata8"><rdf:RDF><cc:Work
         rdf:about=""><dc:format>image/svg+xml</dc:format><dc:type
           rdf:resource="http://purl.org/dc/dcmitype/StillImage" /></cc:Work></rdf:RDF></metadata><defs
     id="defs6" /><g
     transform="matrix(1.3333333,0,0,-1.3333333,0,258.66667)"
     id="g10"><g
       transform="scale(0.1)"
       id="g12"><path
         id="path14"
         style="fill:#ffffff;fill-opacity:1;fill-rule:evenodd;stroke:none"
         d="M 2.59766,1933.23 H 1930.16 V 5.66797 H 2.59766 V 1933.23" /><path
         id="path16"
         style="fill:#231f20;fill-opacity:1;fill-rule:evenodd;stroke:none"
         d="m 294.805,897.68 c 3.027,-0.004 6.054,-0.086 8.242,-0.047 2.18,0.039 3.523,0.133 4.683,0.215 1.165,0.078 2.153,0.144 3.137,0.215 0.988,0.074 1.977,0.144 3.414,0.203 1.434,0.054 3.321,0.097 4.867,0.156 3,0.098 5.489,0.394 8.407,0.601 1.418,0.094 2.734,0.137 4.105,0.25 1.367,0.11 2.789,0.286 3.981,0.399 1.191,0.113 2.144,0.16 3.527,0.289 2.699,0.242 6.957,0.777 10.582,1.207 3.684,0.418 6.047,0.707 8.691,1.145 1.395,0.222 3.039,0.484 4.637,0.746 1.598,0.257 3.145,0.515 4.543,0.781 1.399,0.269 2.645,0.547 3.715,0.758 1.07,0.215 1.961,0.367 3.215,0.629 1.25,0.261 2.863,0.628 4.226,0.937 1.368,0.309 2.489,0.563 4.071,0.981 1.582,0.421 3.629,1.003 6.261,1.855 2.637,0.852 5.86,1.973 8.102,2.797 2.238,0.824 3.488,1.355 4.918,2.035 1.43,0.68 3.039,1.508 4.242,2.156 2.551,1.387 3.512,2.039 5.281,3.282 0.922,0.66 1.973,1.453 2.743,2.054 0.765,0.598 1.242,1.008 1.695,1.457 0.707,0.727 1.39,1.539 2.105,1.477 0.508,0.199 1.207,-0.559 2.114,-1.235 0.554,-0.425 1.136,-0.828 1.785,-1.296 0.648,-0.473 1.367,-1.012 2.543,-1.817 2.484,-1.746 6.605,-4.137 10.218,-5.82 1.891,-0.91 3.723,-1.735 5.532,-2.512 1.808,-0.773 3.586,-1.496 5.183,-2.121 1.594,-0.625 3.008,-1.164 4.985,-1.82 1.972,-0.657 4.511,-1.434 6.34,-1.989 3.945,-1.179 4.566,-1.363 6.57,-1.867 1.055,-0.258 2.441,-0.578 3.637,-0.875 2.648,-0.668 4.101,-1.051 6.105,-1.461 1.086,-0.226 2.371,-0.488 3.672,-0.754 1.297,-0.265 2.613,-0.535 4.043,-0.796 2.933,-0.524 5.582,-0.954 8.047,-1.399 1.277,-0.226 2.715,-0.476 4.359,-0.703 1.645,-0.23 3.5,-0.438 4.938,-0.609 1.437,-0.172 2.453,-0.309 3.855,-0.477 1.395,-0.168 3.172,-0.367 4.754,-0.523 1.582,-0.161 2.965,-0.282 4.148,-0.414 1.184,-0.137 2.168,-0.29 3.465,-0.415 1.293,-0.117 2.899,-0.207 4.075,-0.292 1.175,-0.086 1.921,-0.168 3.019,-0.282 1.098,-0.113 2.547,-0.258 4.047,-0.347 1.504,-0.09 3.059,-0.129 4.398,-0.184 2.766,-0.141 5.395,-0.281 8.477,-0.398 1.613,-0.071 3.191,-0.149 5.34,-0.196 2.14,-0.047 4.847,-0.066 8.426,-0.074 3.574,-0.008 8.019,-0.012 12.05,0.004 4.032,0.016 7.653,0.043 10.485,0.094 2.828,0.047 4.867,0.117 6.793,0.199 1.925,0.086 3.734,0.187 5.066,0.277 1.336,0.09 2.191,0.168 3.27,0.219 1.082,0.055 2.39,0.082 3.539,0.133 1.148,0.047 2.132,0.117 3.535,0.23 1.406,0.121 3.222,0.285 4.539,0.383 1.316,0.102 2.129,0.133 2.996,0.184 0.871,0.043 1.793,0.105 3.535,0.273 1.742,0.172 4.309,0.442 6.457,0.649 2.145,0.203 3.863,0.339 5.192,0.5 1.324,0.16 2.253,0.339 3.652,0.523 1.394,0.184 3.266,0.371 4.711,0.551 1.441,0.179 2.461,0.359 3.894,0.574 2.825,0.391 6.379,0.945 9.231,1.531 2.625,0.485 5.484,0.969 8.062,1.571 3.528,0.82 6.024,1.394 8.938,2.109 0.992,0.238 2,0.473 3.82,0.965 1.817,0.496 4.445,1.258 6.52,1.918 2.074,0.664 3.597,1.226 5.027,1.742 2.828,0.988 4.738,1.703 6.598,2.586 0.953,0.43 2.097,0.926 3.66,1.66 1.566,0.731 3.551,1.695 5.433,2.742 1.883,1.047 3.661,2.172 5.274,3.293 1.613,1.125 3.058,2.254 4.183,3.203 1.129,0.953 1.934,1.731 2.958,2.86 1.019,1.129 2.261,2.605 3.441,4.125 l -101.895,0.16 c -1.109,-0.852 -2.273,-1.637 -3.379,-2.277 -1.109,-0.641 -2.156,-1.145 -3.523,-1.692 -2.586,-1.058 -6.621,-2.262 -10.152,-2.996 -3.203,-0.684 -5.594,-1.016 -8.121,-1.281 -1.219,-0.129 -2.485,-0.246 -3.938,-0.367 -1.445,-0.125 -3.082,-0.25 -5.535,-0.305 -2.453,-0.055 -5.723,-0.035 -8.125,0.016 -2.402,0.054 -3.938,0.144 -5.203,0.218 -1.262,0.071 -2.25,0.133 -3.227,0.227 -2.062,0.238 -4.875,0.539 -7.859,0.992 -1.613,0.258 -3.168,0.586 -5.043,1.016 -1.875,0.433 -4.074,0.968 -5.613,1.371 -1.536,0.402 -2.418,0.676 -3.567,1.086 -2.16,0.781 -5.562,2.117 -8.523,3.73 -1.379,0.762 -2.571,1.555 -3.582,2.36 -1.012,0.804 -1.844,1.625 -2.61,2.402 -0.757,0.777 -1.445,1.508 -2.015,2.781 -0.574,1.27 -1.031,3.078 -1.207,4.891 l 202.121,0.047 c 0.074,1.82 0.066,3.64 -0.004,5.011 -0.07,1.375 -0.207,2.301 -0.492,3.614 -0.282,1.308 -0.711,3.011 -1.336,4.757 -0.629,1.747 -1.446,3.543 -2.113,4.852 -0.665,1.305 -1.172,2.121 -1.833,3.145 -0.66,1.019 -1.476,2.246 -2.25,3.285 -1.683,2.211 -3.539,4.246 -6.136,6.742 -1.426,1.34 -3.039,2.687 -4.11,3.578 -1.07,0.887 -1.593,1.316 -2.312,1.867 -0.719,0.555 -1.629,1.227 -2.551,1.887 l 28.832,-0.008 0.004,-46.703 c 0,-1.676 0.254,-3.34 0.43,-5.211 0.176,-1.867 0.39,-3.934 0.683,-5.551 0.637,-3.039 1.282,-4.965 2.352,-7.367 0.551,-1.113 1.281,-2.176 1.976,-3.105 0.696,-0.926 1.352,-1.723 2.086,-2.473 1.563,-1.586 2.985,-2.617 4.364,-3.453 0.738,-0.449 1.57,-0.93 2.574,-1.446 1.801,-0.906 3.82,-1.82 5.348,-2.363 0.691,-0.246 1.414,-0.476 2.16,-0.715 1.707,-0.57 3.613,-1.05 5.734,-1.511 2.375,-0.547 5.43,-1.106 8.426,-1.547 1.515,-0.231 2.93,-0.426 3.969,-0.555 1.039,-0.129 1.695,-0.187 2.601,-0.285 1.699,-0.195 4.16,-0.441 6.188,-0.555 0.937,-0.066 1.793,-0.133 2.953,-0.226 1.16,-0.094 2.617,-0.219 4.293,-0.344 1.672,-0.129 3.558,-0.266 5.871,-0.359 2.312,-0.094 5.055,-0.165 7.797,-0.157 l 86.574,0.114 0.008,18.867 c 0.617,-0.86 1.316,-1.66 2.168,-2.481 0.851,-0.824 1.859,-1.668 3.156,-2.582 2.465,-1.754 5.973,-3.691 8.992,-5.031 1.43,-0.645 2.731,-1.184 4.403,-1.82 1.671,-0.633 3.71,-1.364 5.457,-1.922 3.253,-1.008 5.179,-1.426 7.089,-1.93 0.922,-0.23 2.008,-0.492 2.883,-0.703 0.879,-0.207 1.547,-0.367 2.168,-0.496 0.629,-0.137 1.211,-0.238 2.262,-0.422 2.008,-0.324 5.371,-0.984 8.027,-1.469 1.254,-0.215 2.418,-0.359 4.117,-0.57 1.7,-0.207 3.934,-0.477 6.039,-0.688 2.102,-0.214 4.067,-0.375 5.461,-0.503 3.184,-0.317 3.782,-0.477 5.809,-0.602 1.102,-0.066 2.457,-0.113 3.832,-0.168 1.371,-0.055 2.75,-0.117 3.906,-0.187 1.149,-0.071 2.071,-0.145 3.387,-0.219 1.313,-0.071 3.027,-0.137 4.84,-0.184 1.816,-0.047 3.734,-0.07 5.828,-0.058 2.094,0.011 4.367,0.062 6.105,0.066 1.735,0.008 2.942,-0.031 5.012,-0.008 2.074,0.02 5.02,0.106 6.965,0.199 1.941,0.09 2.883,0.188 4.266,0.258 1.382,0.071 3.203,0.114 4.98,0.168 1.777,0.055 3.512,0.129 4.785,0.207 1.278,0.078 2.084,0.168 3.334,0.27 1.25,0.105 2.94,0.226 4.31,0.312 1.38,0.094 2.43,0.149 3.33,0.219 0.9,0.07 1.65,0.152 2.77,0.258 1.12,0.109 2.62,0.242 3.92,0.402 1.29,0.16 2.37,0.344 3.76,0.52 1.39,0.172 3.08,0.336 4.4,0.519 1.31,0.18 2.25,0.371 3.57,0.594 2.47,0.406 5.93,0.93 8.75,1.52 1.31,0.265 2.57,0.527 3.75,0.792 1.18,0.262 2.3,0.528 3.72,0.875 1.41,0.348 3.11,0.786 5.01,1.297 1.91,0.516 4.01,1.11 5.74,1.614 3.53,1.023 5.83,1.765 8.81,2.726 1.53,0.492 3.12,1.012 4.71,1.539 l 5.22,-11.16 97.83,0.02 c -1.1,4.558 -1.88,9.199 -2.23,13.363 -0.36,4.16 -0.27,7.848 -0.22,15.062 0.06,7.211 0.11,17.95 0.11,25.278 0.01,7.328 -0.02,11.246 -0.07,13.808 -0.06,2.563 -0.15,3.774 -0.22,4.805 -0.07,1.035 -0.11,1.891 -0.29,3.195 -0.36,2.543 -1.06,5.977 -2.52,8.657 -1.28,2.484 -2.95,5.043 -5.47,7.386 -1.19,1.102 -2.56,2.168 -4.07,3.192 -1.5,1.019 -3.15,1.988 -5.26,3.015 -2.11,1.024 -4.69,2.102 -7.29,3.032 -2.6,0.929 -5.24,1.711 -7.11,2.222 -1.88,0.512 -3,0.762 -4.32,1.059 -1.32,0.29 -2.83,0.62 -4.11,0.88 -1.29,0.26 -2.34,0.46 -3.59,0.68 -1.25,0.24 -2.7,0.5 -3.91,0.71 -1.21,0.2 -2.18,0.35 -3.12,0.48 -0.94,0.12 -1.85,0.23 -3.24,0.43 -1.38,0.19 -3.26,0.46 -4.82,0.66 -1.56,0.2 -2.81,0.32 -4.06,0.45 -1.26,0.13 -2.51,0.27 -4.24,0.44 -1.74,0.18 -3.97,0.4 -5.84,0.55 -1.87,0.15 -3.39,0.24 -4.7,0.31 -2.49,0.12 -4.23,0.27 -6.04,0.43 -0.86,0.07 -1.76,0.12 -2.83,0.19 -1.08,0.06 -2.33,0.13 -3.93,0.18 -1.6,0.06 -3.55,0.1 -5,0.16 -1.45,0.07 -2.39,0.16 -3.72,0.24 -2.5,0.16 -6.22,0.22 -9.3,0.27 -1.43,0.03 -2.75,0.07 -4.02,0.08 -1.27,0.01 -2.5,-0.02 -4.08,0 -1.58,0.02 -3.51,0.08 -6.83,0.11 -3.32,0.03 -8.03,0.02 -13.43,0 -5.39,-0.02 -11.48,-0.04 -16.5,-0.09 -5.02,-0.05 -8.97,-0.11 -11.81,-0.18 -2.84,-0.08 -4.576,-0.16 -6.002,-0.23 -1.426,-0.08 -2.547,-0.16 -3.797,-0.23 -1.25,-0.06 -2.629,-0.13 -4.297,-0.19 -1.672,-0.05 -3.621,-0.1 -5.133,-0.16 -1.515,-0.06 -2.593,-0.14 -4.019,-0.26 -1.426,-0.1 -3.203,-0.24 -4.617,-0.34 -3.165,-0.21 -4.29,-0.25 -6.368,-0.45 -1.125,-0.11 -2.531,-0.26 -3.652,-0.36 -1.117,-0.1 -1.949,-0.14 -3.082,-0.24 -1.129,-0.11 -2.551,-0.27 -3.641,-0.38 -1.093,-0.11 -1.847,-0.17 -2.769,-0.28 -1.918,-0.27 -4.903,-0.73 -7.75,-1.04 -3.11,-0.33 -5.387,-0.64 -7.852,-1.12 -2.562,-0.47 -5.218,-0.96 -7.574,-1.42 -1.184,-0.23 -2.449,-0.475 -3.637,-0.714 -1.187,-0.238 -2.3,-0.472 -3.851,-0.855 -1.559,-0.387 -3.555,-0.93 -4.957,-1.324 -1.403,-0.391 -2.215,-0.629 -3.817,-1.157 -1.605,-0.527 -4.007,-1.336 -6.238,-2.23 -2.234,-0.891 -4.297,-1.867 -5.828,-2.649 -1.535,-0.781 -2.535,-1.363 -3.426,-1.89 -0.89,-0.524 -1.672,-0.992 -3.133,-2.266 -1.465,-1.277 -3.605,-3.363 -4.937,-4.844 -1.324,-1.48 -1.836,-2.359 -2.301,-3.367 -0.465,-1.011 -0.879,-2.16 -1.144,-3.23 -0.27,-1.071 -0.395,-2.067 -0.418,-2.828 -0.028,-0.762 0.05,-1.289 0.218,-1.786 0.606,-0.136 1.223,-0.214 2.965,-0.242 1.742,-0.027 4.606,-0.004 18.625,0.008 14.02,0.016 39.199,0.027 54.039,0.004 14.844,-0.023 19.352,-0.074 21.77,-0.082 2.422,-0.008 2.746,0.035 3.121,0.059 0.722,-0.075 1.472,0.382 2.137,1.683 0.57,1 1.543,2.117 3.07,3.231 0.699,0.511 1.418,0.957 2.566,1.457 1.149,0.5 2.729,1.054 4.029,1.468 1.3,0.407 2.32,0.668 3.61,0.93 2.46,0.508 6.24,1.047 9.62,1.305 1.61,0.121 3.03,0.172 4.23,0.222 1.19,0.051 2.17,0.098 3.65,0.137 3.06,0.082 7.57,0.07 11.46,-0.031 1.99,-0.051 3.96,-0.106 5.37,-0.188 1.41,-0.074 2.24,-0.171 3.31,-0.281 2.11,-0.195 6.32,-0.719 10.18,-1.629 2,-0.472 3.73,-1.015 5.03,-1.586 1.31,-0.57 2.18,-1.164 2.85,-1.742 1.38,-1.262 1.87,-2.14 1.89,-3.164 -0.08,-1.223 -0.45,-2.312 -2.04,-3.351 -1.65,-1.258 -5.77,-2.645 -9.32,-3.321 -1.81,-0.371 -3.36,-0.617 -4.83,-0.836 -1.46,-0.218 -2.85,-0.418 -3.87,-0.547 -1.02,-0.125 -1.68,-0.183 -2.55,-0.281 -0.87,-0.101 -1.96,-0.242 -2.94,-0.34 -1,-0.097 -1.88,-0.156 -2.66,-0.218 -0.77,-0.063 -1.42,-0.137 -2.54,-0.227 -1.12,-0.09 -2.69,-0.195 -4.15,-0.289 -1.47,-0.094 -2.82,-0.18 -3.88,-0.258 -2.25,-0.187 -3.33,-0.262 -5.02,-0.351 -0.88,-0.051 -1.87,-0.118 -2.79,-0.188 -0.92,-0.066 -1.78,-0.141 -2.9,-0.207 -1.11,-0.07 -2.5,-0.137 -4.13,-0.191 -1.64,-0.055 -3.52,-0.098 -5.07,-0.161 -1.54,-0.062 -2.75,-0.144 -3.82,-0.222 -1.062,-0.074 -1.984,-0.149 -3.234,-0.219 -1.25,-0.066 -2.828,-0.129 -4.496,-0.184 -1.668,-0.054 -3.422,-0.101 -4.872,-0.168 -1.445,-0.062 -2.589,-0.148 -4.144,-0.257 -1.559,-0.114 -3.535,-0.254 -5.399,-0.344 -1.863,-0.09 -3.621,-0.125 -4.968,-0.184 -2.742,-0.14 -4.008,-0.316 -5.907,-0.437 -0.949,-0.063 -2.003,-0.125 -3.058,-0.188 -1.973,-0.086 -4.617,-0.355 -7.188,-0.597 -2.539,-0.2 -4.25,-0.207 -6.339,-0.41 -2.02,-0.188 -4.059,-0.477 -5.739,-0.602 -0.793,-0.063 -1.625,-0.106 -2.496,-0.184 -0.879,-0.082 -1.793,-0.195 -2.883,-0.3 -3.562,-0.266 -9.496,-1.125 -14.714,-1.914 -1.711,-0.262 -3.356,-0.52 -4.836,-0.786 -1.485,-0.265 -2.797,-0.535 -4.016,-0.789 -1.215,-0.254 -2.332,-0.488 -3.258,-0.664 -0.918,-0.172 -1.648,-0.285 -3.129,-0.64 -3.008,-0.75 -8.578,-2.18 -13.148,-3.735 -2.301,-0.793 -4.449,-1.683 -6.223,-2.488 -1.773,-0.801 -3.168,-1.52 -4.23,-2.098 -1.965,-1.093 -3.078,-1.73 -4.532,-2.812 -1.386,-1.16 -2.617,-2.246 -3.976,-3.594 -0.711,-0.738 -1.465,-1.644 -2.149,-2.625 -0.687,-0.984 -1.312,-2.047 -1.781,-3.516 -0.469,-1.468 -0.781,-3.343 -0.851,-5.222 l -27.383,0.008 c -1.055,0 -2.11,0.07 -3.633,0.234 -1.523,0.16 -3.516,0.418 -5.23,0.801 -1.711,0.379 -3.141,0.886 -4.083,1.258 -1.679,0.675 -2.121,0.984 -3.039,1.675 -1.003,0.852 -1.437,1.52 -1.929,2.469 -0.621,1.031 -1.035,3.215 -1.164,5.16 -0.176,1.711 -0.246,2.797 -0.203,4.071 l 0.328,37.269 h 50.285 l 0.047,24.771 -50.672,-0.02 -0.039,33.26 -104.137,0.81 0.063,-33.87 -39.356,-0.03 -0.027,-19.769 c -1.883,1.008 -3.789,1.977 -5.461,2.782 -1.668,0.8 -3.102,1.437 -4.879,2.179 -1.777,0.746 -3.899,1.59 -6.383,2.516 -2.488,0.926 -5.34,1.926 -7.801,2.715 -2.465,0.793 -4.539,1.371 -6.074,1.789 -3.148,0.844 -4.035,1.105 -5.773,1.578 -1.832,0.473 -4.243,1.012 -6.422,1.54 -2.281,0.58 -4.93,1.09 -7.649,1.58 -4.515,0.92 -9.386,1.63 -14.086,2.38 -3.425,0.48 -6.597,0.97 -9.371,1.3 -1.379,0.15 -2.894,0.26 -4.152,0.38 -1.262,0.12 -2.266,0.25 -3.852,0.39 -1.582,0.14 -3.75,0.29 -5.39,0.45 -1.637,0.16 -2.754,0.32 -4.074,0.42 -1.317,0.1 -2.829,0.15 -4.129,0.2 -1.301,0.06 -2.387,0.13 -3.336,0.19 -0.95,0.05 -1.766,0.09 -3.125,0.19 -1.36,0.09 -3.27,0.25 -6.055,0.35 -2.785,0.1 -6.449,0.15 -10.223,0.17 -3.773,0.02 -7.656,0.01 -10.746,0 -3.097,-0.03 -5.398,-0.07 -7.804,-0.1 -2.403,-0.03 -4.903,-0.05 -6.723,-0.1 -3.504,-0.12 -4.992,-0.31 -7.297,-0.43 -2.266,-0.16 -4.922,-0.23 -7.652,-0.41 -2.692,-0.21 -4.895,-0.5 -6.844,-0.58 -0.941,-0.05 -1.996,-0.11 -3.516,-0.25 -1.515,-0.14 -3.5,-0.37 -5.156,-0.56 -1.652,-0.2 -2.98,-0.34 -4.422,-0.54 -3.097,-0.42 -5.777,-0.76 -8.461,-1.12 -1.433,-0.21 -3.078,-0.47 -4.629,-0.74 -1.543,-0.26 -2.992,-0.53 -4.078,-0.75 -1.086,-0.22 -1.804,-0.4 -2.836,-0.58 -1.035,-0.18 -2.379,-0.36 -3.976,-0.67 -1.598,-0.3 -3.446,-0.74 -4.949,-1.09 -1.5,-0.343 -2.653,-0.6 -3.723,-0.866 -1.07,-0.262 -2.055,-0.531 -3.535,-0.93 -1.481,-0.394 -3.457,-0.918 -4.922,-1.312 -1.465,-0.387 -2.422,-0.641 -3.692,-1.032 -1.269,-0.394 -2.847,-0.921 -5.238,-1.753 -2.39,-0.832 -5.59,-1.969 -8.176,-2.965 -2.586,-0.996 -4.558,-1.86 -6.8,-2.91 -2.243,-1.051 -4.75,-2.293 -6.922,-3.481 -2.168,-1.191 -4.004,-2.324 -5.453,-3.254 -1.45,-0.922 -2.508,-1.64 -3.852,-2.699 -1.348,-1.063 -2.977,-2.465 -3.891,-3.246 -0.91,-0.785 -1.109,-0.949 -1.32,-1.121 -0.445,-0.348 -1.027,-0.871 -1.633,-1.528 -0.324,-0.347 -0.644,-0.718 -1.316,-1.48 -0.672,-0.762 -1.692,-1.914 -2.395,-2.793 -0.699,-0.879 -1.078,-1.488 -1.504,-2.18 -0.425,-0.691 -0.898,-1.472 -1.246,-1.925 -0.351,-0.454 -0.586,-0.579 -0.84,-0.61 -2.558,1.266 -5.152,2.457 -7.343,3.371 -2.188,0.918 -3.977,1.559 -5.485,2.082 -1.511,0.524 -2.75,0.938 -3.957,1.305 -2.465,0.75 -4.371,1.191 -6.289,1.633 -1.863,0.457 -5.101,1.172 -8.109,1.687 -1.465,0.258 -2.684,0.446 -4.039,0.672 -1.348,0.223 -2.828,0.488 -3.988,0.703 -1.157,0.215 -1.989,0.383 -2.821,0.559 0.684,0.414 1.403,0.766 2.352,1.09 0.953,0.328 2.133,0.64 3.519,1.058 2.797,0.828 7.192,2.418 11.379,4.094 2.16,0.867 4.141,1.711 6.321,2.758 2.175,1.051 4.546,2.301 6.152,3.234 1.609,0.938 2.449,1.551 3.336,2.18 1.68,1.152 3.883,2.785 5.965,4.906 3.289,3.266 5.746,7.343 6.039,11.033 0.093,0.71 0.172,1.37 0.187,2.07 0.008,1.86 -0.433,5.69 -2.176,8.67 -1.593,3.02 -4.199,5.86 -7.195,8.09 -1.14,0.88 -2.281,1.65 -3.816,2.57 -1.535,0.93 -3.461,2 -5.332,2.9 -1.867,0.91 -3.676,1.63 -6.024,2.46 -2.343,0.82 -5.23,1.75 -7.551,2.44 -4.667,1.36 -6.734,1.81 -9.55,2.4 -1.43,0.29 -3.145,0.61 -4.477,0.87 -1.332,0.27 -2.285,0.47 -3.504,0.7 -1.215,0.24 -2.695,0.51 -4.324,0.77 -1.633,0.26 -3.41,0.52 -4.844,0.73 -2.902,0.47 -5.211,0.7 -8.113,1.04 -4.301,0.64 -8.563,0.92 -12.473,1.37 -1.402,0.12 -2.906,0.22 -4.57,0.35 -1.66,0.12 -3.48,0.29 -4.777,0.39 -2.59,0.21 -3.766,0.25 -5.739,0.37 -0.976,0.07 -1.964,0.13 -2.886,0.2 -0.922,0.07 -1.774,0.15 -3.024,0.21 -2.398,0.16 -7.031,0.22 -11.086,0.36 -1.976,0.07 -3.656,0.19 -4.918,0.27 -1.261,0.07 -2.109,0.12 -3.441,0.16 -1.336,0.03 -3.152,0.04 -5.117,0.07 -1.961,0.03 -4.067,0.07 -8.067,0.1 -4,0.04 -9.89,0.09 -15.781,0.09 L 87.7695,1046.09 87.6367,897.805 294.805,897.68" /><path
         id="path18"
         style="fill:#ed1c24;fill-opacity:1;fill-rule:evenodd;stroke:none"
         d="m 1207.93,1031.71 c 0,-1.76 -0.05,-3.24 -0.07,-5.51 -0.02,-2.27 0,-5.33 -0.02,-8.51 -0.02,-3.17 -0.07,-6.47 -0.07,-8.89 0,-2.42 0.05,-3.96 0.07,-5.26 0.03,-1.3 0.03,-2.35 0.01,-3.01 -0.01,-0.651 -0.05,-0.905 -0.05,-1.284 0.05,-0.726 0,-2.769 -0.02,-4.594 0.13,-3.207 -0.07,-4.484 0.05,-6.765 0,-0.887 -0.05,-1.875 -0.06,-3.719 0,-1.84 0.05,-4.543 0.07,-6.531 0.03,-1.992 0.04,-3.278 0.01,-4.102 -0.02,-0.82 -0.08,-1.183 -0.07,-1.707 0.13,-1.578 -0.1,-4.699 0.06,-7.375 -0.01,-1.43 -0.15,-3.031 -0.11,-4.68 0.02,-0.777 0.07,-1.46 0.06,-2.894 -0.02,-1.438 -0.09,-3.629 -0.13,-6.551 -0.03,-2.926 -0.03,-6.578 0,-9.703 0.02,-3.129 0.07,-5.727 0.08,-7.609 0.02,-1.879 0,-3.043 -0.01,-3.911 -0.01,-0.867 -0.01,-1.441 0.01,-2.066 0.02,-0.629 0.06,-1.312 0.05,-2.633 -0.02,-1.32 -0.1,-3.281 -0.11,-5.035 -0.01,-1.754 0.04,-3.301 0.05,-4.316 0.02,-1.012 -0.02,-1.492 -0.02,-2.282 0.04,-1.644 0.03,-4.402 -0.05,-6.793 -0.05,-2.343 0.02,-3.945 0.08,-5.277 0.01,-0.687 0,-1.57 0.04,-2.226 0.04,-0.661 0.14,-1.09 0.3,-1.5 0.87,-0.141 1.75,-0.219 5.32,-0.247 3.56,-0.023 9.82,-0.003 37.15,0.012 27.34,0.016 75.75,0.028 103.83,0.008 28.09,-0.016 35.86,-0.062 40.3,-0.082 4.45,-0.02 5.56,-0.02 6.68,-0.02 2.21,-0.003 3.86,0.012 5.36,0.028 1.5,-0.016 4.13,0.054 6.53,0.058 1.21,-0.004 2.26,-0.054 3.17,-0.07 2.5,0.004 4.45,0.004 6.26,0.024 1.55,0.082 2.99,0 4.35,-0.04 0.74,0.004 1.61,0.079 2.79,0.063 1.19,-0.012 2.71,-0.109 4.37,-0.133 1.66,-0.023 3.47,0.031 4.75,0.055 1.28,0.019 2.03,0.004 3.33,-0.016 1.3,-0.023 3.15,-0.051 6.05,-0.07 2.9,-0.012 6.85,-0.016 9.53,0.008 2.69,0.023 4.1,0.074 6.8,0.074 2.7,0.004 6.68,-0.051 13.36,-0.07 6.68,-0.024 16.06,-0.016 28.63,-0.008 12.57,0.004 28.34,0.008 37.86,0.004 9.52,-0.004 12.79,-0.02 14.82,-0.039 2.02,-0.02 2.79,-0.043 3.49,-0.063 0.69,-0.019 1.31,-0.031 2.57,-0.008 1.27,0.024 3.19,0.086 4.8,0.086 4.33,-0.14 7.18,0.012 10.35,-0.172 2.26,-0.07 4.08,0.051 5.83,0.071 0.92,0 2.02,-0.051 2.91,0.004 1.43,0.078 2.28,0.39 3.01,0.855 0.62,0.352 1.84,0.238 3.08,0.27 0.72,0.019 1.43,0.082 2.28,0.086 1.6,-0.09 4.41,0.168 6.99,0.222 2.36,-0.183 4.26,-0.332 6.38,-0.082 1.85,0.086 3.88,-0.211 5.88,0.039 0.9,0.114 1.69,0.34 2.23,0.723 0.54,0.383 0.84,0.922 0.98,1.48 0.13,0.559 0.1,1.133 -0.1,1.516 -0.57,0.859 -1.74,0.922 -2.86,1.133 -0.67,0.097 -1.4,0.144 -2.05,0.183 -1.11,0.063 -2.01,0.118 -2.84,0.582 -1.2,0.532 -1.19,1.133 -0.28,1.7 0.82,0.558 3.27,0.535 5.35,0.394 2.55,-0.094 3.78,0.102 5.56,0.32 0.99,0.114 2.24,0.247 3.19,0.333 0.96,0.089 1.63,0.132 2.03,0.203 0.8,0.136 0.85,0.504 0.81,0.828 -0.06,0.168 -0.25,0.308 -0.52,0.406 -0.55,0.285 -2.39,0.125 -4.13,0.328 -1.04,0.121 -2.02,0.379 -2.58,0.625 -0.96,0.453 -0.97,0.867 -0.77,1.25 0.14,0.18 0.45,0.352 0.75,0.524 0.78,0.484 1.82,0.597 3.09,0.632 0.76,0.02 1.59,0 2.2,-0.132 0.95,-0.243 1.41,-0.571 1.98,-1.278 0.38,-0.707 0.87,-0.886 1.48,-1.011 0.35,-0.079 0.72,-0.153 1.47,-0.133 1.42,0.09 3.58,0.156 5.09,0.004 0.73,-0.016 1.5,0.066 2.72,0.129 1.22,0.062 2.88,0.109 4.09,0.128 1.21,0.024 1.95,0.02 2.62,0 0.66,-0.023 1.24,-0.058 1.67,-0.253 0.44,-0.196 0.73,-0.551 0.89,-1.153 0.16,-0.605 0.19,-1.453 0.17,-1.969 -0.07,-0.878 -0.12,-1.011 -0.32,-1.507 -0.12,-0.18 -0.33,-0.309 -0.55,-0.434 -0.21,-0.125 -0.44,-0.25 -1.08,-0.301 -0.64,-0.047 -1.69,-0.019 -2.75,-0.019 -2.1,0.035 -5.05,-0.301 -8.04,-0.332 -1.54,0 -2.93,0.132 -3.85,0.125 -0.93,0 -1.41,-0.145 -1.82,-0.356 -0.84,-0.316 -1.2,-1.422 -1.02,-2.406 0.07,-0.719 0.3,-0.977 1.03,-1.383 0.29,-0.164 0.62,-0.308 1.25,-0.383 0.62,-0.078 1.54,-0.078 2.68,-0.125 1.13,-0.047 2.48,-0.136 3.52,-0.429 1.03,-0.289 1.75,-0.789 2.27,-1.446 1.93,-0.004 3.84,0.008 5.43,0.028 1.58,0.019 2.83,0.05 3.53,0.082 1.22,0.093 0.99,0.078 1.41,0.304 0.29,0.27 0.42,0.746 1.09,1.106 0.57,0.437 2.56,0.73 4.26,0.676 1.74,-0.118 3.33,-0.149 5.3,0.004 1.02,0.066 2,0.121 2.92,0.117 0.92,0 1.79,-0.059 2.32,-0.086 1.08,-0.031 1.1,-0.106 1.65,0.027 0.67,0.301 1.18,0.652 1.84,1.137 0.4,0.301 0.88,0.726 1.41,1.023 0.52,0.301 1.08,0.473 1.94,0.586 0.86,0.117 2.02,0.168 2.68,0.156 1.31,-0.109 1.1,-0.144 1.63,-0.347 0.64,-0.473 0.97,-1.043 1.27,-1.707 0.17,-0.422 0.34,-0.949 0.42,-1.453 0.08,-0.496 0.08,-0.973 0.12,-1.266 0.04,-0.297 0.13,-0.422 0.26,-0.5 1.73,-0.031 3.46,-0.047 5.2,-0.074 1.74,-0.024 3.5,-0.051 4.42,0.039 0.92,0.09 1.01,0.297 1.06,0.527 0.14,0.828 -0.16,1.711 0.01,2.625 0.03,0.559 -0.01,1.11 0.74,1.547 0.24,0.168 0.49,0.336 0.94,0.442 0.46,0.109 1.13,0.152 1.99,0.171 0.85,0.024 1.91,0.02 2.66,0.121 0.74,0.106 1.18,0.313 1.5,0.504 1.22,0.727 0.43,2.258 0.82,3.7 0.11,0.488 0.34,0.941 0.42,1.468 0.13,0.836 -0.03,1.731 -0.32,2.289 -0.15,0.403 -0.06,0.954 0.45,1.422 0.22,0.215 0.47,0.414 1.1,0.547 0.63,0.125 1.64,0.188 2.74,0.242 2.31,0.106 5.23,0.141 8.19,0.176 1.56,0.012 3.11,0.027 4.25,0.098 1.13,0.07 1.86,0.195 2.6,0.293 1.67,0.25 2.71,0.156 3.91,0.125 0.68,0 1.54,0.066 2.05,0.133 0.51,0.07 0.67,0.14 0.81,0.25 -2.2,0.722 -4.45,0.714 -6.47,0.515 -0.94,-0.043 -1.85,0 -3.02,0.125 -1.16,0.121 -2.57,0.324 -3.38,0.488 -0.81,0.165 -1.03,0.29 -1.23,0.434 -0.65,0.481 -0.79,1 -0.43,1.711 0.17,0.168 0.49,0.289 0.84,0.383 0.34,0.094 0.7,0.164 1.61,0.195 0.9,0.035 2.35,0.039 3.5,0.145 2.29,0.312 3.93,0.57 6.02,0.453 1.04,-0.028 2.05,-0.059 3.04,-0.078 0.98,-0.02 1.93,-0.024 2.66,-0.254 0.72,-0.231 1.23,-0.688 1.57,-1.031 0.73,-0.934 1.37,-0.879 2.33,-1.047 0.55,-0.078 1.11,-0.168 2.02,-0.145 0.91,0.024 2.17,0.156 2.9,0.293 1.19,0.266 1.23,0.438 1.82,0.82 0.61,0.934 0.81,1.352 0.79,2.364 0.03,0.343 0.14,0.64 0.28,0.847 0.63,0.692 1.31,0.618 2.02,0.774 0.64,0.043 2.16,-0.008 3.55,0.144 1.64,0.196 3.21,0.457 5.15,0.348 1.06,-0.055 2.17,-0.231 3.34,-0.27 1.16,-0.039 2.38,0.059 3.17,0.336 1.18,0.442 1.5,1.18 1.72,1.633 0.16,0.309 0.05,0.801 -0.3,1.278 -0.75,1.109 -2.3,0.792 -3.81,1.277 -1.53,0.515 -2.62,-0.305 -3.72,-0.121 -0.73,0.203 -1.56,0.687 -2.16,1.429 -0.4,0.665 -1.3,0.688 -2.19,0.743 -1.11,0.129 -2.14,0.472 -3.37,0.519 -0.67,0.031 -1.38,-0.015 -1.97,-0.199 -1.32,-0.391 -1.86,-1.371 -2.65,-2.023 -0.78,-0.77 -2.85,-0.836 -4.68,-0.653 -0.89,0.074 -1.56,0.149 -2.15,0.305 -0.59,0.16 -1.09,0.402 -1.39,0.605 -0.64,0.508 -0.71,0.672 -0.67,1.055 0.07,0.223 0.3,0.508 0.51,0.715 0.46,0.527 1.18,0.375 1.97,0.418 0.45,0.019 0.89,0.09 1.73,0.137 0.83,0.05 2.06,0.082 2.82,0.136 1.22,0.106 1.4,0.223 2,0.621 1.11,0.993 0.59,1.789 0.86,3.192 0.23,0.937 1.35,0.98 2.45,1.191 2.72,0.332 5.17,0.485 7.97,0.434 1.07,0.004 2.19,0.031 3,0.074 0.8,0.047 1.29,0.117 1.78,0.219 -0.21,0.929 -1.21,1.07 -2.09,1.285 -0.89,0.187 -1.74,0.457 -2.37,0.551 -0.51,-0.032 -1.25,0.187 -1.99,0.781 -0.92,0.863 -2.07,1.105 -3.46,1.266 -1.51,0.203 -3.24,0.378 -4.8,-0.594 -0.72,-0.438 -1.38,-1.074 -2.03,-1.461 -1.45,-0.832 -3.01,-0.59 -4.81,-0.457 -1,0.109 -2.05,0.269 -2.9,0.824 -0.85,0.559 -1.51,1.504 -1.8,2.539 0.41,0.707 1.25,2.133 2.35,2.215 0.39,0.105 0.79,0.195 1.34,0.277 0.55,0.078 1.24,0.149 2.28,0.176 1.03,0.024 2.42,0 3.8,0.008 1.38,0.004 2.77,0.031 3.97,0.074 1.2,0.043 2.22,0.098 2.84,0.199 0.62,0.098 0.83,0.239 0.86,0.442 0.03,0.199 -0.12,0.457 -0.81,0.586 -0.68,0.125 -1.89,0.117 -3.09,0.086 -1.2,-0.028 -2.39,-0.071 -3.75,-0.121 -1.37,-0.043 -2.92,-0.094 -4.04,-0.086 -1.12,0.007 -1.81,0.074 -2.5,0.187 -0.67,0.109 -1.35,0.266 -1.76,0.434 -0.98,0.472 -1.12,1.129 -0.81,1.66 0.08,0.176 0.16,0.355 0.45,0.594 0.3,0.238 0.8,0.531 1.52,0.671 0.73,0.145 1.69,0.133 2.7,0.157 1,0.023 2.06,0.082 2.71,0.133 1.09,0.085 1.23,0.175 1.73,0.808 0.41,0.504 0.35,1.207 0.01,1.867 -0.37,1.035 -1.21,1.067 -2.12,1.207 -1.18,0.168 -2.35,0.313 -3.57,0.383 -1.02,0.047 -2.07,0.129 -2.92,-0.39 -0.31,-0.168 -0.59,-0.344 -1.07,-0.727 -0.48,-0.383 -1.16,-0.969 -1.58,-1.277 -0.43,-0.313 -0.62,-0.352 -0.79,-0.407 -0.36,-0.183 -1.16,-0.238 -1.97,-0.164 -0.47,0.043 -0.91,0.117 -1.81,0.133 -1.73,0 -5.42,-0.109 -8.47,-0.027 -1.47,0.027 -2.73,0.062 -3.57,0.008 -0.84,-0.051 -1.27,-0.192 -1.48,-0.477 -0.21,-0.285 -0.21,-0.719 -0.3,-1.293 -0.24,-1.152 -0.59,-3 -0.51,-4.676 0.02,-0.847 0.1,-1.633 0.17,-2.742 0.05,-1.109 0.09,-2.543 0.06,-3.371 -0.05,-1.516 -0.39,-1.324 -0.85,-1.855 -1.07,-1.047 -2.36,-1.012 -3.72,-1.09 -0.64,0.007 -1.4,0.101 -2.27,0.16 -0.87,0.062 -1.85,0.082 -2.46,0.121 -0.95,0.086 -1.12,0.035 -1.6,0.769 -0.18,0.418 -0.77,1.95 -0.99,3.325 -0.09,0.75 0.04,1.367 0.17,2.07 0.12,0.703 0.24,1.496 0.27,1.949 -0.01,0.797 -0.02,0.785 -0.36,1.156 -0.61,0.387 -2.15,0.422 -3.21,0.707 -0.33,0.079 -0.66,0.161 -1.58,0.196 -0.92,0.031 -2.44,0.012 -3.98,0 -1.55,-0.012 -3.13,-0.02 -4.4,-0.012 -1.27,0.012 -2.23,0.039 -2.79,0.082 -0.99,0.106 -1,0.18 -1.44,0.496 -0.27,0.274 -0.46,0.715 -0.73,1.016 1.16,0.672 2.49,0.894 3.62,0.801 1.42,0.027 4.13,0.371 6.29,1.687 1.63,0.988 3.02,1.684 4.6,1.863 1.92,0.305 3.94,0.161 6.06,-0.105 1.15,-0.137 2.39,-0.293 3.81,-0.266 1.41,0.028 3,0.239 3.9,0.438 0.9,0.199 1.1,0.379 1.31,0.543 0.66,0.34 0.75,1.062 0.82,1.828 0.06,0.449 0.11,0.879 0.31,1.16 0.2,0.285 0.54,0.418 0.87,0.559 0.33,0.14 0.66,0.293 1.2,0.382 0.96,0.118 3.25,0.356 5.21,0.614 0.89,0.09 1.53,0.086 2.16,0.019 1.02,-0.101 1.99,-0.386 2.78,-0.058 0.28,0.09 0.54,0.175 1.26,0.207 0.73,0.031 1.91,0.015 3.13,0.004 1.22,-0.012 2.47,-0.016 3.84,-0.008 2.65,0.004 5.22,0.168 7.45,0.316 2.08,0.098 4.34,0.098 6.34,0.067 0.94,-0.02 1.86,-0.047 2.47,0.023 1.19,0.18 1.37,0.625 2.02,1 0.88,0.59 1.39,1.012 2.27,1.148 0.98,0.122 2.57,-0.035 3.89,0.129 1.06,0.082 1.75,0.309 2.42,0.547 0.54,0.121 1.15,0.242 1.65,1.442 0.83,1.359 0.39,3.066 0.55,4.66 0.69,0.41 1.44,0.726 2.15,0.898 0.71,0.176 1.37,0.207 2.28,0.27 0.9,0.062 2.04,0.164 2.74,0.269 1.08,0.2 1.28,0.313 1.94,0.766 0.5,0.652 0.35,1.691 0.08,2.559 -0.52,1.187 0.62,1.726 -0.4,2.648 -0.19,0.195 -0.4,0.371 -1.16,0.504 -1.4,0.23 -3.92,0.332 -5.5,0.18 -0.72,-0.047 -1.49,-0.106 -1.96,-0.149 -0.46,-0.039 -0.63,-0.066 -0.8,-0.121 -0.17,-0.059 -0.33,-0.148 -0.93,-0.148 -1.31,0.007 -3.81,0.343 -5.81,0.351 -1.92,-0.027 -3.92,-0.101 -5.72,-0.078 -0.8,-0.019 -1.53,-0.098 -2.48,-0.07 -0.94,0.027 -2.1,0.16 -2.85,0.301 -0.74,0.136 -1.07,0.273 -1.36,0.441 -1.14,0.574 -0.77,1.633 -1.34,2.437 -0.3,0.489 -0.61,0.989 -1.2,1.403 -0.43,0.359 -1.41,0.414 -2.4,0.539 -0.58,0.074 -1.15,0.176 -1.93,0.265 -0.78,0.094 -1.77,0.18 -2.33,0.231 -0.55,0.051 -0.67,0.07 -0.81,0.07 -0.56,-0.133 -1.77,0.778 -3.04,1.531 -0.36,0.204 -0.64,0.321 -0.94,0.422 -0.66,0.301 -2.1,0.274 -3.58,0.243 -1.79,0.058 -4.08,-0.465 -6.46,-0.532 -1.24,-0.004 -2.4,0.227 -3.45,0.352 -1.06,0.129 -2.02,0.156 -2.64,0.086 -0.96,-0.145 -1.18,-0.305 -1.63,-1.184 -0.69,-1.105 0.2,-2.402 1.53,-2.91 0.99,-0.648 2.22,-0.574 3.57,-0.391 0.75,0.082 1.52,0.133 2.62,0.211 1.1,0.075 2.54,0.18 3.6,0.18 1.06,0.008 1.75,-0.086 2.87,-0.172 1.12,-0.086 2.67,-0.16 3.56,-0.269 0.89,-0.11 1.12,-0.258 1.36,-0.399 1.32,-0.719 0.66,-1.383 0.81,-2.203 0.03,-0.418 0.11,-0.945 0.15,-1.41 0.04,-0.738 0.09,-1.305 -0.62,-1.793 -0.47,-0.418 -1.11,-0.664 -1.82,-0.738 1.53,-0.328 3.07,-0.59 4.24,-0.731 1.17,-0.14 1.96,-0.16 2.75,-0.179 0.8,-0.024 1.59,-0.047 2.16,0.039 1.31,0.312 1.99,0.89 3.16,1.488 0.54,0.594 1.69,0.797 3.01,0.988 0.82,0.121 1.67,0.235 2.67,0.274 1.01,0.031 2.16,-0.008 2.88,-0.094 1.1,-0.172 1.31,-0.266 1.96,-0.867 0.59,-1.27 0.27,-2.246 0.37,-3.762 0.05,-1.004 0.19,-1.906 -0.01,-2.691 -0.07,-0.34 -0.16,-0.676 -0.35,-0.895 -1.29,-0.797 -2.87,-0.797 -4.51,-0.781 -0.95,-0.043 -1.93,0.187 -2.87,-0.071 -1.13,-0.41 -1.92,-1.472 -2.94,-1.832 -0.58,-0.218 -1.28,-0.265 -2.61,-0.285 -1.34,-0.023 -3.32,-0.011 -4.52,-0.074 -1.2,-0.059 -1.62,-0.191 -2.07,-0.293 -1.65,-0.445 -3.58,0.031 -5.61,0.02 -0.75,0.05 -1.51,0.156 -2.7,0.105 -1.18,-0.047 -2.79,-0.242 -4.13,-0.285 -1.33,-0.039 -2.39,0.078 -3.15,0.207 -1.29,0.309 -2.02,0.293 -3.02,0.996 -0.38,0.359 -0.66,0.969 -0.98,1.551 -0.31,0.578 -0.65,1.129 -0.91,1.476 -0.26,0.344 -0.45,0.489 -0.65,0.645 -0.43,0.488 -1.46,0.437 -2.5,0.437 -0.61,0.008 -1.19,0.059 -2.1,0.106 -0.93,0.051 -2.18,0.101 -2.94,0.16 -1.3,0.121 -1.36,0.156 -1.89,0.707 -0.34,0.457 -0.7,1.359 -0.85,2.098 -0.09,0.566 -0.06,1.011 -0.82,1.457 -0.53,0.441 -1.49,0.379 -2.44,0.402 -0.52,0.027 -0.99,0.117 -1.8,0.332 -0.8,0.211 -1.94,0.547 -2.69,0.859 -0.74,0.321 -1.09,0.618 -1.34,0.997 -0.02,1.699 -0.03,3.402 -0.06,4.964 -0.02,1.567 -0.07,2.997 0.01,3.809 0.18,1.359 0.44,1.27 1.11,1.789 0.32,0.156 0.79,0.274 1.29,0.387 0.5,0.117 1.03,0.238 1.8,0.269 0.78,0.039 1.79,-0.011 2.46,-0.09 1.05,-0.144 1.4,-0.289 2.06,-0.824 0.35,-0.293 0.18,-0.66 1.13,-1.109 0.33,-0.113 0.8,-0.156 1.29,-0.211 1.44,-0.266 4.94,-0.043 7.6,0.195 0.46,0.965 0.97,1.914 1.34,2.532 0.63,0.968 0.72,1.277 1.77,1.921 0.83,0.317 1.85,0.493 2.77,0.758 0.5,0.113 1.03,0.196 1.85,0.141 1.8,-0.242 4.41,-0.383 6.75,-0.16 1.26,0.066 2.54,0.082 3.36,0.027 1.37,-0.102 1.63,-0.441 2.3,-0.879 0.63,-0.402 1.19,-1.301 1.95,-1.387 1.16,-0.308 1.96,-0.687 3.12,-0.316 0.72,0.219 2.02,0.215 3.28,-0.063 0.54,-0.109 0.9,-0.214 1.25,-0.32 0.34,-0.105 0.66,-0.211 0.85,-0.305 0.19,-0.093 0.25,-0.171 0.28,-0.269 0.03,-0.625 -0.4,-1.059 -0.38,-1.574 0.1,-0.547 0.68,-1.199 1.51,-1.739 0.4,-0.257 0.89,-0.519 1.51,-0.679 0.63,-0.16 1.39,-0.219 2.46,-0.156 1.07,0.062 2.44,0.25 3.41,0.355 0.97,0.105 1.55,0.129 2.43,0.074 0.87,-0.058 2.06,-0.191 3.34,-0.242 1.28,-0.051 2.67,-0.016 3.64,0.07 1.92,0.27 2.62,0.328 3.93,0.157 1.99,-0.325 3.74,0.5 5.65,0.648 -0.15,1.027 -1.52,0.969 -2.59,0.91 -0.62,-0.019 -1.17,0.012 -1.69,0.098 -0.53,0.086 -1.01,0.222 -1.85,0.633 -0.83,0.41 -2.02,1.089 -2.99,1.437 -1.83,0.602 -3.17,0.34 -4.69,0.52 -0.71,0.05 -1.37,0.105 -1.81,0.175 -0.44,0.071 -0.66,0.157 -0.86,0.258 -0.75,0.348 -0.75,1.086 0.06,1.703 0.3,0.2 0.78,0.387 1.25,0.575 0.81,0.441 2.48,0.554 4.07,0.625 1.44,0.058 2.69,1.074 4.3,1.773 1.48,0.691 3.09,0.707 4.69,0.801 0.7,0.062 1.27,0.187 1.69,0.312 0.91,0.246 0.95,0.598 0.63,0.942 -0.39,0.5 -1.2,0.535 -2.14,0.582 -1.2,0.019 -2.68,-0.078 -4.09,0.32 -0.71,0.195 -1.41,0.504 -1.83,0.754 -0.42,0.25 -0.57,0.437 -0.74,0.605 -0.42,0.485 -1.32,0.571 -2.29,0.711 -0.59,0.082 -1.22,0.164 -1.91,0.161 -0.7,-0.004 -1.48,-0.09 -2.79,-0.114 -1.32,-0.023 -3.18,0.012 -5.17,0.028 -1.98,0.015 -4.09,0.011 -6.22,0.004 -2.15,-0.012 -4.32,-0.028 -5.77,-0.016 -1.46,0.012 -2.2,0.051 -2.78,0.203 -0.58,0.152 -1.01,0.414 -1.3,0.742 -0.29,0.332 -0.42,0.731 -0.53,1.336 -0.11,0.602 -0.19,1.406 -0.16,1.902 0.04,0.497 0.18,0.68 0.42,0.84 0.24,0.157 0.58,0.289 0.99,0.356 0.68,0.09 2.27,0.137 3.71,0.254 1.6,-0.02 2.53,0.32 3.75,-0.496 0.55,-0.336 1.04,-0.629 1.44,-1.133 0.32,-0.52 1.16,-0.613 2.04,-0.738 1.61,-0.309 2.95,-0.083 4.35,0.011 0.69,0.133 1.26,0.035 1.84,0.727 0.27,0.219 0.53,1.215 0.48,2.117 -0.05,0.68 -0.35,0.859 -0.89,1.18 -0.5,0.382 -1.68,0.449 -2.95,0.519 -0.78,0.043 -1.58,0.078 -2.21,0.149 -1.32,0.25 -1.97,0.164 -2.89,1.059 -0.36,0.52 -1.03,2.53 -0.54,3.37 0.14,0.18 0.41,0.35 0.7,0.52 0.64,0.47 1.89,0.55 3.18,0.64 1.2,0.09 2.26,0.18 2.98,0.61 0.67,0.2 0.97,0.53 0.48,0.86 -0.5,0.37 -1.27,0.39 -2.11,0.51 -0.83,0.09 -1.72,0.23 -2.41,0.18 -0.5,-0.14 -1.72,0.32 -2.94,0.99 -1.3,0.73 -2.27,1.43 -3.14,1.39 -0.69,-0.01 -2.08,0.06 -3.37,0.13 -0.93,-0.04 -1.62,-0.06 -2.5,-0.31 -0.94,-0.49 -1.52,-1.75 -2.75,-2.12 -0.37,-0.16 -0.69,-0.24 -1.02,-0.27 -0.32,-0.04 -0.65,-0.03 -1.54,0.03 -1.67,0.17 -5.02,0.12 -7.57,-0.12 -1.17,-0.06 -2.2,0 -3.23,0.08 -1.04,0.08 -2.07,0.19 -2.74,0.3 -0.97,0.21 -1.1,0.17 -1.59,0.85 -0.22,0.27 -0.09,0.61 0.46,0.96 0.25,0.16 0.54,0.28 1.22,0.4 0.69,0.11 1.77,0.22 3.1,0.26 1.33,0.04 2.91,0.02 4.51,0.01 1.6,-0.02 3.21,-0.02 4.53,-0.03 1.32,0 2.35,-0.01 3.12,0.11 0.77,0.12 1.28,0.36 1.61,0.57 0.32,0.2 0.48,0.35 0.59,0.55 0.37,0.44 0.05,1.62 -0.2,2.79 -0.15,0.69 -0.28,1.38 -0.48,1.79 -0.2,0.41 -0.47,0.55 -0.75,0.7 -0.27,0.16 -0.54,0.33 -1.37,0.53 -0.83,0.18 -2.22,0.4 -3.15,0.43 -1.69,0.06 -2.2,-0.36 -3.19,-0.53 -0.98,-0.29 -2.38,-0.22 -3.99,-0.08 -0.94,0.09 -1.9,0.22 -2.59,0.33 -1.37,0.27 -1.92,0.3 -2.84,0.76 -0.96,0.58 -1.89,1.63 -2.88,1.98 -2.42,0.7 -4.97,-0.01 -7.62,0.2 -0.91,-0.85 -1.89,-1.62 -2.57,-2.05 -1.44,-0.81 -1.67,-0.73 -2.51,-0.94 -0.9,-0.12 -1.94,0.11 -2.88,0.3 -0.77,0.2 -1.56,0.08 -2.34,0.85 -0.61,0.83 -1.28,2.63 0.36,3.68 0.75,0.52 3.28,1.12 5.39,1.25 2.41,0.16 3.57,-0.41 5.49,-0.45 1.06,-0.01 2.3,0.14 3.35,0.24 1.05,0.1 1.91,0.15 2.45,0.22 0.96,0.14 1.12,0.22 1.6,0.56 0.2,0.17 0.38,0.43 0.6,0.64 0.48,0.54 1.51,0.66 2.53,0.93 0.58,0.16 1.13,0.37 2.3,0.46 1.16,0.08 2.95,0.04 4.76,0.02 1.81,-0.03 3.66,-0.04 5.03,-0.03 1.36,0.01 2.25,0.03 2.89,0.08 0.64,0.05 1.02,0.14 1.29,0.32 1.08,0.8 -0.27,2.06 -0.48,3.24 -1.42,0.31 -2.87,0.55 -4.1,0.69 -1.24,0.14 -2.27,0.18 -3.58,0.11 -1.3,-0.06 -2.87,-0.23 -4,-0.23 -1.13,0 -1.82,0.18 -2.68,0.32 -0.86,0.14 -1.89,0.23 -2.57,0.37 -1.68,0.41 -1.31,0.83 -1.49,1.35 -0.1,0.57 -0.23,1.76 0.61,2.83 0.82,1.06 2.54,1.1 4.04,1.16 0.8,0.05 1.54,0.15 2.43,0.17 0.89,0.02 1.92,-0.03 3.09,-0.05 1.17,-0.01 2.49,0.01 3.47,0.03 0.97,0.03 1.61,0.06 2.23,0.07 0.62,0 1.24,0 1.61,0.11 0.59,0.19 0.62,0.61 0.8,0.86 -0.66,0.09 -1.33,0.16 -2.47,0.29 -1.13,0.13 -2.73,0.31 -3.98,0.33 -1.25,0.02 -2.15,-0.12 -3.01,-0.16 -0.86,-0.05 -1.68,-0.01 -2.85,0.14 -1.18,0.14 -2.72,0.38 -3.63,0.58 -0.91,0.2 -1.19,0.36 -1.48,0.51 -0.95,0.37 -1.07,0.78 -1.16,1.35 -0.07,0.87 -0.14,1.66 0.57,2.6 0.43,0.35 1.11,0.57 1.62,0.62 -0.71,0.37 -1.49,0.61 -2.71,0.7 -1.22,0.09 -2.87,0.04 -5.68,0.01 -2.8,-0.02 -6.75,-0.01 -9.37,-0.01 -2.62,0.01 -3.91,0 -4.68,-0.08 -0.76,-0.08 -0.99,-0.24 -1.18,-0.57 -0.18,-0.32 -0.31,-0.8 -0.46,-1.28 -0.15,-0.47 -0.32,-0.93 -0.54,-1.21 -0.22,-0.27 -0.5,-0.36 -0.78,-0.45 -0.29,-0.08 -0.59,-0.15 -1.38,-0.19 -0.78,-0.04 -2.06,-0.06 -3.04,-0.09 -0.98,-0.04 -1.66,-0.1 -2.23,-0.3 -1.01,-0.34 -1.43,-1.08 -1.98,-1.65 -0.27,-0.23 -0.71,-0.39 -1.21,-0.52 -0.49,-0.12 -1.05,-0.18 -1.82,-0.2 -0.77,-0.01 -1.76,0.03 -2.41,0.11 -1.01,0.15 -1.38,0.25 -2.1,0.77 -0.48,0.64 -0.41,1.03 -0.53,1.74 -0.06,0.78 -0.2,1.79 -0.48,2.42 -0.15,0.45 -0.01,0.91 -0.61,1.19 -0.32,0.36 -1.48,0.36 -2.62,0.3 -1.36,-0.11 -3.04,-0.13 -4.74,-0.09 -0.82,0.01 -1.55,-0.01 -2.66,-0.06 -1.12,-0.05 -2.64,-0.14 -4.67,-0.17 -2.02,-0.03 -4.57,0 -6.38,0.01 -1.81,0.01 -2.89,0 -3.82,-0.02 -0.94,-0.01 -1.74,-0.03 -2.39,-0.06 -0.65,-0.02 -1.15,-0.04 -1.47,-0.09 -0.33,-0.04 -0.49,-0.11 -0.62,-0.22 1.06,-0.4 2.19,-0.64 3.37,-0.64 2.5,0.11 5.35,0.47 8.25,0.38 1.52,0.01 3.04,0.05 3.98,-0.02 0.95,-0.08 1.31,-0.27 1.65,-0.49 0.71,-0.41 1.05,-0.83 0.8,-1.21 -0.07,-0.19 -0.16,-0.38 -0.56,-0.57 -0.8,-0.42 -2.9,-0.74 -4.58,-0.69 -1.68,0.07 -3.52,0.22 -5.53,0.04 -1.01,-0.07 -1.95,-0.2 -2.54,-0.21 -1.33,0.06 -1.41,0.28 -2.2,0.13 -0.41,-0.07 -0.91,-0.21 -1.41,-0.33 -0.49,-0.11 -0.99,-0.19 -1.3,-0.36 -0.61,-0.35 -0.49,-0.94 -1.18,-1.43 -1.23,-1 -3.77,-0.55 -5.93,-0.6 -1.38,0.09 -2.38,-0.24 -3.49,-1.16 -0.57,-0.43 -1.21,-0.92 -2.01,-1.18 -1.47,-0.45 -3.76,-0.12 -5.75,-0.38 -1.57,-0.19 -2.61,-0.77 -3.57,-1.49 -0.89,-0.63 -2.52,-0.94 -4.14,-0.95 -1.73,-0.1 -3.05,0.84 -4.34,1.87 -1.18,0.82 -3.6,0.94 -5.88,0.91 -2.09,-0.06 -3.47,-0.43 -4.89,-1.32 -0.65,-0.39 -1.33,-0.85 -1.8,-1.11 -0.47,-0.25 -0.75,-0.3 -0.95,-0.35 -0.43,-0.2 -1.46,0.01 -2.59,0.23 -0.68,0.13 -1.36,0.28 -1.75,0.44 -0.8,0.37 -0.61,0.77 -0.77,1.23 -0.19,0.67 -0.02,1.4 -0.15,2.35 -0.27,1.09 -0.55,2.74 -0.44,4.26 0,0.74 -0.03,1.4 -0.09,1.89 -0.07,0.49 -0.18,0.83 -0.48,1.11 -0.29,0.28 -0.78,0.5 -2.87,0.58 -2.1,0.08 -5.79,0.02 -23.31,-0.01 -17.51,-0.04 -48.84,-0.05 -66.53,-0.03 -17.69,0.02 -21.74,0.06 -24,0.08 -2.27,0.03 -2.75,0.05 -3.33,0.04 -0.59,-0.02 -1.27,-0.06 -1.99,-0.06 -1.55,0.02 -2.6,0.08 -3.62,0.08 -0.56,0.02 -1.29,0.05 -2.27,0.04 -0.97,0 -2.19,-0.05 -3.46,-0.07 -1.27,-0.02 -2.58,-0.01 -3.69,-0.02 -1.1,0 -2,-0.02 -4.49,0 -2.48,0.03 -6.55,0.09 -21.52,0.11 -14.97,0.02 -40.84,0 -58.96,0.02 -18.11,0.01 -28.48,0.06 -35.31,0.06 -6.83,0 -10.12,-0.05 -14.25,-0.07 -4.13,-0.03 -9.1,-0.01 -13.46,-0.01 -4.36,-0.01 -8.11,-0.02 -10.63,0 -2.52,0.03 -3.8,0.07 -4.75,0.08 -1.83,-0.01 -3.09,-0.04 -4.81,0.01 -2.7,0.08 -5.13,0 -7.58,0 -0.99,0.02 -2.12,0.08 -4.84,0.1 -2.72,0.03 -7.03,0.02 -16.39,0.02 -9.37,0 -23.78,0 -32.11,0.01 -8.33,0 -10.58,-0.01 -11.79,-0.08 -1.21,-0.09 -1.38,-0.23 -1.5,-0.36 -0.12,-0.14 -0.19,-0.25 -0.23,-1.33 -0.04,-1.08 -0.07,-3.12 -0.06,-5.16 0.02,-2.04 0.07,-4.08 0.07,-5.85" /><path
         id="path20"
         style="fill:#ed1c24;fill-opacity:1;fill-rule:evenodd;stroke:none"
         d="m 1594.08,1040.94 c -0.06,-0.82 -0.03,-1.42 0.18,-1.95 0.22,-0.53 0.64,-0.99 1.21,-1.31 0.58,-0.31 1.32,-0.48 2.49,-0.54 1.18,-0.04 2.8,0.03 3.75,0.09 1.85,0.16 1.71,0 2.49,0.2 0.33,0.13 0.69,0.43 1.05,0.72 0.36,0.3 0.73,0.6 1.25,0.89 0.52,0.28 1.2,0.56 2.29,0.71 1.1,0.14 2.62,0.16 3.45,0.17 0.83,0.01 0.96,0.01 1.11,0 0.47,-0.03 0.81,0.06 1.69,0.73 0.39,0.5 0.39,1.81 -0.02,2.71 -0.15,0.19 -0.44,0.35 -0.72,0.48 -0.29,0.11 -0.57,0.19 -1.16,0.19 -0.59,-0.01 -1.48,-0.1 -2.44,-0.12 -0.95,-0.02 -1.97,0.04 -4.68,0.05 -2.72,0 -7.11,-0.03 -11.51,-0.11 -0.22,-1.03 -0.37,-2.08 -0.43,-2.91" /><path
         id="path22"
         style="fill:#ed1c24;fill-opacity:1;fill-rule:evenodd;stroke:none"
         d="m 1756.25,1043.6 c -0.85,-0.21 -0.64,-0.64 -0.35,-0.92 0.36,-0.25 0.31,-1.16 0.32,-1.99 0.16,-1.08 -0.04,-2.85 0.15,-4.24 0.06,-0.63 -0.11,-1.27 0.61,-1.77 0.44,-0.36 0.9,-0.58 1.32,-0.77 0.5,-0.34 1.5,-0.36 2.57,-0.39 1.16,-0.1 2.71,-0.06 4.19,-0.11 1.06,-0.11 1.77,-0.3 2.43,-1.25 1.13,-1.62 2.25,-1.04 3.55,-1.13 0.62,0.01 1.38,0.01 2.12,0.02 0.75,0.02 1.47,0.04 1.95,-0.02 1.17,-0.24 1.41,-0.8 2.2,-1.49 0.42,-0.73 1.15,-0.81 1.99,-0.91 0.86,-0.15 2.31,-0.17 3.69,-0.03 0.88,0.09 1.35,-0.03 2.05,0.4 0.45,0.56 0.66,0.75 0.75,1.27 0.03,0.34 -0.07,0.83 -0.2,1.2 -0.28,0.86 -0.82,0.96 -1.34,1.17 -0.67,0.38 -1.65,0.54 -2.81,0.56 -0.69,0.01 -1.42,-0.02 -2.07,0.01 -0.66,0.05 -1.23,0.17 -1.71,0.39 -1.3,0.55 -1.45,1.89 -1.13,2.78 0.17,0.6 -0.24,1.25 -0.67,2 -0.22,0.42 -0.42,0.87 -0.71,1.21 -0.72,0.82 -1.65,0.88 -2.62,1.05 -0.57,0.09 -1.19,0.19 -2.07,0.29 -0.88,0.1 -2.01,0.19 -2.67,0.32 -0.67,0.12 -0.88,0.26 -1.03,0.46 -0.3,0.31 -0.26,0.95 -0.41,1.53 -0.24,0.62 -1.19,0.45 -2.07,0.45 -0.55,-0.01 -1.1,-0.01 -2.11,-0.01 -1.01,0.01 -2.46,0.01 -3.56,0.02 -1.12,0 -1.9,0 -2.36,-0.1" /><path
         id="path24"
         style="fill:#ffffff;fill-opacity:1;fill-rule:evenodd;stroke:none"
         d="m 1571.09,1041.85 c 1.15,0.17 1.28,-0.03 1.82,-0.4 0.22,-0.16 0.43,-0.34 0.63,-0.54 -0.41,-0.48 -0.96,-0.83 -1.83,-1.02 -0.85,-0.18 -2.03,-0.2 -2.83,-0.17 -0.8,0.03 -1.22,0.11 -1.66,0.17 -0.43,0.07 -0.88,0.12 -1.18,0.28 -0.32,0.17 -0.5,0.47 -0.45,0.78 0.05,0.3 0.32,0.62 0.82,0.7 0.51,0.08 1.26,-0.08 2.14,-0.07 0.88,0.01 1.9,0.19 2.54,0.27" /><path
         id="path26"
         style="fill:#ed1c24;fill-opacity:1;fill-rule:evenodd;stroke:none"
         d="m 1814.71,1039.94 c 0.7,-0.24 1.75,-0.31 2.79,-0.3 0.61,0.01 1.31,0.08 2.01,0.13 0.7,0.04 1.4,0.06 1.59,0.25 0.2,0.18 -0.1,0.52 -0.55,0.75 -0.45,0.23 -1.04,0.35 -1.64,0.5 -1.61,0.41 -3.03,0.86 -4.19,0.04 -0.8,-0.47 -0.72,-0.78 -0.01,-1.37" /><path
         id="path28"
         style="fill:#ed1c24;fill-opacity:1;fill-rule:evenodd;stroke:none"
         d="m 1796.88,1038.26 c 0.13,-0.42 0.34,-0.96 0.58,-1.49 0.89,-0.12 1.78,-0.19 2.65,-0.19 0.87,-0.01 1.71,0.05 2.24,0.09 0.91,0.1 1.07,0.03 1.55,0.19 0.39,0.28 1.2,0.84 1.36,1.59 0.33,0.6 0.58,1.13 -0.65,1.69 -0.68,0.23 -2.43,0.56 -3.88,0.74 -1.52,0 -2.37,0.46 -3.89,-0.9 -0.33,-0.64 -0.15,-1.06 0.04,-1.72" /><path
         id="path30"
         style="fill:#ed1c24;fill-opacity:1;fill-rule:evenodd;stroke:none"
         d="m 1736.26,1033.62 c 0.1,-0.6 0.31,-1.17 0.51,-1.56 0.52,-0.9 1.04,-0.9 1.7,-1.01 0.39,-0.03 0.82,-0.01 1.42,-0.04 0.6,-0.03 1.38,-0.08 2.27,-0.09 0.9,0 1.91,0.06 2.52,0.15 1.05,0.13 1.03,0.36 1.34,0.68 0.53,0.44 0.15,0.84 0,1.58 -0.25,0.82 -0.26,1.98 -0.18,2.92 -0.09,0.95 -1.17,0.95 -2.05,1.15 -1.16,0.32 -2.41,0.42 -3.79,0.38 -0.73,0 -1.45,0.03 -1.91,-0.04 -0.76,-0.2 -1,-0.28 -1.53,-0.86 -0.33,-0.66 -0.47,-2.1 -0.3,-3.26" /><path
         id="path32"
         style="fill:#ffffff;fill-opacity:1;fill-rule:evenodd;stroke:none"
         d="m 1427.64,1036.28 c 4.04,-0.14 5.44,-0.33 8.09,-0.43 1.31,-0.06 2.76,-0.12 3.89,-0.19 1.13,-0.07 1.94,-0.16 3.32,-0.26 2.85,-0.19 7.55,-0.63 11.58,-1.19 2.07,-0.26 4.07,-0.52 5.92,-0.78 3.35,-0.48 5.81,-0.91 7.99,-1.32 1.99,-0.35 4.99,-0.93 7.82,-1.53 4.07,-0.88 6.89,-1.37 10.43,-2.34 1.1,-0.29 2.16,-0.59 3.17,-0.86 1.01,-0.27 1.97,-0.52 3.34,-0.9 1.35,-0.39 3.11,-0.9 5.01,-1.46 1.89,-0.57 3.93,-1.18 6.87,-2.24 2.93,-1.05 6.77,-2.56 9.83,-3.84 5.96,-2.55 9.35,-4.17 13.59,-6.47 2.05,-1.14 4.22,-2.47 6.06,-3.66 1.84,-1.19 3.35,-2.26 4.76,-3.28 1.42,-1.02 2.74,-2 3.96,-2.99 1.21,-0.99 2.32,-1.99 3.08,-2.681 1.47,-1.308 1.78,-1.722 2.56,-2.511 0.36,-0.36 0.79,-0.727 1.54,-1.52 1.57,-1.613 4.41,-5.121 6.21,-8.078 0.93,-1.508 1.63,-2.859 2.23,-4.242 1.1,-2.547 1.91,-4.938 2.43,-7 0.24,-0.953 0.46,-1.938 0.6,-3.258 0.29,-2.629 0.28,-6.309 -0.32,-9.52 -0.3,-1.593 -0.72,-3.132 -1.14,-4.433 -0.43,-1.297 -0.86,-2.356 -1.32,-3.402 -0.45,-1.043 -0.93,-2.075 -1.7,-3.411 -0.77,-1.339 -1.83,-2.984 -2.76,-4.296 -0.93,-1.313 -1.74,-2.29 -2.51,-3.227 -0.78,-0.938 -1.52,-1.844 -2.58,-2.953 -1.06,-1.113 -2.44,-2.438 -4.14,-3.903 -3.41,-2.925 -7.7,-6.062 -11.53,-8.441 -5.72,-3.586 -11.24,-6.387 -17.04,-8.848 -1.85,-0.804 -3.66,-1.574 -5.61,-2.347 -1.96,-0.778 -4.07,-1.563 -5.48,-2.067 -1.42,-0.504 -2.14,-0.73 -2.96,-1 -0.81,-0.269 -1.73,-0.574 -2.48,-0.828 -2.96,-1.051 -4.6,-1.398 -7.23,-2.215 -1.31,-0.421 -2.49,-0.695 -3.82,-1.015 -0.69,-0.176 -1.41,-0.383 -2.34,-0.614 -1.66,-0.417 -4.58,-1.085 -7.16,-1.679 -2.55,-0.574 -4.46,-0.961 -7.04,-1.449 -1.4,-0.266 -2.88,-0.524 -4.37,-0.786 -1.5,-0.265 -3.01,-0.531 -4.26,-0.738 -1.24,-0.203 -2.22,-0.348 -3.7,-0.562 -1.49,-0.211 -3.48,-0.496 -5.37,-0.715 -1.88,-0.215 -3.65,-0.371 -5.04,-0.524 -1.4,-0.148 -2.42,-0.293 -3.31,-0.394 -0.89,-0.106 -1.64,-0.164 -2.75,-0.254 -1.11,-0.09 -2.57,-0.207 -4.15,-0.336 -1.58,-0.125 -3.26,-0.258 -5.18,-0.352 -3.89,-0.171 -8.66,-0.222 -13.18,-0.269 -2.28,-0.012 -4.52,-0.012 -7,0 -2.49,0.019 -5.22,0.047 -7.64,0.094 -2.42,0.047 -4.52,0.109 -6.05,0.187 -1.53,0.074 -2.47,0.164 -3.62,0.246 -1.16,0.086 -2.51,0.172 -3.57,0.246 -2.27,0.157 -3.98,0.371 -6.36,0.61 -1.28,0.129 -2.6,0.254 -4.35,0.445 -1.74,0.188 -3.91,0.445 -5.56,0.68 -1.64,0.238 -2.76,0.449 -4,0.664 -1.25,0.211 -2.61,0.418 -3.68,0.578 -1.07,0.16 -1.85,0.273 -2.97,0.461 -1.13,0.183 -2.61,0.445 -4.14,0.742 -2.88,0.566 -5.38,1.121 -7.49,1.594 -1.02,0.23 -2.16,0.496 -3.3,0.758 -1.14,0.269 -2.26,0.535 -3.01,0.703 -0.75,0.168 -1.13,0.238 -1.49,0.355 -0.36,0.117 -0.69,0.278 -6.44,0.34 -5.75,0.063 -16.91,0.027 -28.1,0.004 -11.2,-0.027 -22.42,-0.035 -29.36,-0.016 -6.95,0.02 -9.62,0.067 -11.39,0.082 -1.79,0.016 -2.68,-0.004 -3.57,-0.007 -0.89,-0.004 -1.77,0.007 -2.92,0.031 -1.15,0.027 -2.56,0.07 -4.31,0.09 -1.74,0.015 -3.81,0.007 -5.26,-0.012 -1.46,-0.016 -2.28,-0.043 -2.89,0.008 -0.59,0.05 -0.96,0.179 -1.3,0.39 0.69,0.938 1.61,1.813 2.71,2.809 0.58,0.535 1.21,1.094 2.16,1.918 0.95,0.832 2.22,1.93 3.2,2.769 0.98,0.848 1.68,1.434 2.2,1.934 0.52,0.504 0.86,0.914 1.14,1.199 0.28,0.278 0.49,0.43 0.72,0.547 -0.84,0.164 -1.69,0.258 -3.17,0.297 -1.48,0.035 -3.59,0.012 -6.89,0 -3.31,-0.02 -7.82,-0.027 -10.61,-0.027 -2.78,0 -3.85,0.007 -4.48,0.082 -0.64,0.078 -0.85,0.218 -0.98,0.429 0.62,0.75 1.3,1.457 2.7,2.723 1.4,1.27 3.52,3.098 5.37,4.699 1.85,1.61 3.43,2.989 5.98,5.215 2.55,2.223 6.06,5.285 8.88,7.738 2.81,2.453 4.92,4.293 7.19,6.301 2.27,2.004 4.71,4.176 7.14,6.356 0.27,1.609 -1.15,4.218 -1.5,6.769 -0.25,1.645 -0.28,2.649 -0.45,3.86 -0.08,0.64 -0.17,1.398 -0.13,2.64 0.03,1.238 0.2,2.965 0.36,4.223 0.16,1.262 0.33,2.058 0.65,3.234 0.32,1.176 0.81,2.731 1.24,3.914 0.97,2.551 1.62,3.719 2.74,5.672 0.61,1.035 1.36,2.192 2.23,3.402 0.87,1.207 1.85,2.469 3.3,4.079 1.45,1.613 3.38,3.574 5,5.089 1.61,1.514 2.91,2.574 4.09,3.514 1.17,0.93 2.23,1.72 3.8,2.82 1.58,1.09 3.68,2.49 5.87,3.8 2.18,1.32 4.46,2.56 6.31,3.57 1.85,1.01 3.28,1.79 4.96,2.6 3.51,1.64 7.53,3.31 11.33,4.81 3.83,1.48 7.7,2.83 11.35,3.98 1.78,0.56 3.56,1.08 4.94,1.47 1.39,0.39 2.38,0.65 3.36,0.91 2.21,0.58 3.7,1 5.43,1.42 2.08,0.49 4.5,1.05 6.8,1.55 2.47,0.54 5.33,1.04 8.08,1.57 3.02,0.62 5.06,0.96 7.39,1.22 1.27,0.15 2.79,0.34 3.9,0.5 1.86,0.26 2.62,0.52 3.42,0.63 0.33,0.03 0.73,0.01 1.75,0.1 1.02,0.1 2.66,0.32 3.91,0.45 2.84,0.3 3.77,0.29 5.76,0.48 1.09,0.1 2.4,0.24 3.39,0.34 0.99,0.11 1.65,0.18 2.46,0.23 1.6,0.1 4.39,0.18 6.96,0.32 1.28,0.07 2.4,0.15 4.5,0.22 2.09,0.07 5.16,0.13 7.32,0.13 2.16,0.01 3.41,-0.04 5.42,-0.07 2.01,-0.04 4.77,-0.05 6.76,-0.1" /><path
         id="path34"
         style="fill:#ffffff;fill-opacity:1;fill-rule:evenodd;stroke:none"
         d="m 1693.68,1034.77 c 0.5,-0.8 0.79,-1.65 0.89,-2.58 0.04,-0.57 -0.03,-1.3 -0.07,-2 -0.05,-0.71 -0.05,-1.4 -0.16,-1.84 -0.11,-0.43 -0.31,-0.62 -0.54,-0.79 -1.14,-0.93 -2.8,-0.62 -4.61,-0.18 -0.72,0.15 -1.44,0.24 -1.85,0.3 -0.41,0.06 -0.52,0.09 -0.61,0.14 0.7,1.71 0,3.54 0.04,5.31 0.05,0.51 0.22,0.99 0.53,1.35 0.31,0.36 0.77,0.6 1.53,0.74 0.76,0.14 1.83,0.19 2.55,0.17 1.16,-0.07 1.57,-0.01 2.3,-0.62" /><path
         id="path36"
         style="fill:#ffffff;fill-opacity:1;fill-rule:evenodd;stroke:none"
         d="m 1583.41,1030.37 c -0.09,-0.19 -0.4,-0.35 -0.71,-0.49 -0.32,-0.14 -0.65,-0.25 -1.32,-0.33 -0.68,-0.07 -1.71,-0.09 -2.38,-0.01 -1.34,0.16 -1.42,0.76 -1.34,1.23 0.86,0.36 1.77,0.59 2.66,0.64 0.88,0.06 1.73,-0.05 2.22,-0.15 0.91,-0.2 0.92,-0.54 0.87,-0.89" /><path
         id="path38"
         style="fill:#ed1c24;fill-opacity:1;fill-rule:evenodd;stroke:none"
         d="m 1402.95,1028.91 c -1.53,-0.09 -3.37,-0.23 -4.82,-0.33 -1.44,-0.1 -2.5,-0.16 -3.43,-0.23 -0.93,-0.07 -1.75,-0.15 -2.97,-0.26 -1.22,-0.11 -2.85,-0.25 -4.26,-0.39 -5.78,-0.6 -9.53,-1.34 -14.28,-2.05 -1.45,-0.22 -2.98,-0.46 -4.46,-0.74 -2.77,-0.53 -5.25,-1.07 -7.6,-1.54 -1.11,-0.24 -2.24,-0.5 -3.49,-0.82 -2.35,-0.6 -4.64,-1.26 -6.41,-1.73 -0.86,-0.23 -1.83,-0.48 -3.12,-0.84 -1.29,-0.37 -2.9,-0.87 -4.17,-1.28 -2.48,-0.81 -3.65,-1.21 -5.18,-1.72 -0.74,-0.26 -1.59,-0.56 -2.69,-0.97 -1.11,-0.4 -2.48,-0.9 -4.64,-1.81 -2.16,-0.9 -5.14,-2.21 -7.8,-3.49 -2.67,-1.28 -5.04,-2.55 -6.9,-3.59 -1.85,-1.04 -3.2,-1.86 -4.8,-2.93 -1.6,-1.07 -3.45,-2.39 -5.14,-3.69 -1.7,-1.301 -3.24,-2.59 -4.41,-3.625 -1.18,-1.035 -1.98,-1.816 -2.9,-2.777 -2.9,-3.008 -5.59,-6.594 -7.57,-9.828 -1.86,-3.411 -2.6,-5.227 -3.29,-7.961 -0.23,-0.856 -0.44,-1.645 -0.62,-2.598 -0.17,-0.957 -0.3,-2.078 -0.36,-2.875 -0.06,-0.801 -0.05,-1.27 0.08,-1.504 0.13,-0.234 0.39,-0.227 1.1,0.297 0.72,0.527 1.91,1.57 3.1,2.598 1.19,1.031 2.38,2.043 4.06,3.5 1.69,1.457 3.88,3.359 6.26,5.414 2.39,2.058 4.97,4.269 7.01,6.023 2.03,1.754 3.5,3.043 5.61,4.887 2.1,1.847 4.84,4.246 6.67,5.84 3.54,3.049 3.65,3.179 4.74,4.199 0.55,0.48 1.39,1.18 3.24,2.77 1.84,1.57 4.69,4.02 6.71,5.76 2.01,1.73 3.2,2.75 4.31,3.72 1.1,0.97 2.12,1.9 2.74,2.4 0.61,0.5 0.82,0.59 1.04,0.67 0.47,0.27 1.89,0.25 3.33,0.2 1.58,-0.07 3.24,-0.11 4.81,-0.08 0.69,0 1.3,-0.02 2.48,0.01 1.18,0.01 2.93,0.07 4.2,0.05 1.26,-0.03 2.05,-0.13 2.73,-0.14 0.69,-0.02 1.28,0.05 2.37,0.07 1.09,0.02 2.69,-0.02 5.18,-0.02 2.48,-0.01 5.87,0.01 8.59,0 2.73,-0.02 4.8,-0.07 8.01,-0.07 3.21,0.01 7.55,0.07 15.81,0.07 8.27,0 20.44,-0.05 32.56,-0.05 12.11,0 24.16,0.05 30.44,-0.01 6.29,-0.06 6.79,-0.24 7.27,-0.45 0.47,-0.21 0.91,-0.44 1.93,-0.91 2.04,-0.9 5.37,-2.4 7.84,-3.61 1.23,-0.58 2.49,-1.16 4.09,-1.88 3.05,-1.36 7.64,-3.41 11.7,-5.28 3.98,-1.85 6.4,-2.93 9.17,-4.18 1.45,-0.66 3.16,-1.45 5.43,-2.497 2.29,-1.043 5.14,-2.336 7.96,-3.621 2.83,-1.285 5.63,-2.559 7.54,-3.457 1.91,-0.899 2.93,-1.426 3.94,-1.981 -0.4,-0.754 -1.81,-1.082 -3.1,-1.363 -0.76,-0.152 -1.45,-0.254 -1.94,-0.43 -0.48,-0.179 -0.76,-0.429 -0.92,-0.75 3.27,-1.39 6.54,-2.785 8.76,-3.73 2.22,-0.953 3.4,-1.453 4.69,-2.012 1.28,-0.555 2.69,-1.164 3.64,-1.562 0.97,-0.403 1.48,-0.59 1.78,-0.672 0.3,-0.09 0.39,-0.075 0.46,-0.024 -0.28,1.25 -0.7,2.465 -1.29,3.766 -0.61,1.305 -1.4,2.695 -2.47,4.203 -1.07,1.512 -2.41,3.141 -3.37,4.258 -1.86,2.137 -2.61,2.75 -3.83,3.902 -0.57,0.528 -1.17,1.051 -1.72,1.582 -0.56,0.535 -1.07,1.074 -1.87,1.746 -1.77,1.469 -4.22,3.132 -6.44,4.582 -3.44,2.27 -6.77,4.1 -9.95,5.84 -1.03,0.54 -2.07,1.05 -3.08,1.54 -1,0.5 -1.97,0.98 -3.27,1.57 -1.31,0.59 -2.94,1.29 -4.61,1.98 -1.66,0.69 -3.35,1.37 -4.66,1.86 -2.75,0.98 -4.37,1.47 -6.76,2.25 -1.25,0.4 -2.57,0.79 -3.94,1.2 -2.5,0.77 -5.03,1.51 -7.24,2.06 -1,0.26 -1.99,0.53 -3.61,0.93 -1.63,0.4 -3.9,0.93 -5.73,1.32 -3.67,0.74 -5.26,1.06 -7.4,1.52 -1.09,0.22 -2.41,0.43 -3.99,0.68 -3.02,0.48 -7.06,1.11 -10.67,1.51 -1.72,0.2 -3.31,0.34 -4.51,0.47 -2.82,0.35 -3.69,0.52 -5.77,0.63 -1.17,0.07 -2.6,0.1 -3.68,0.16 -2.69,0.18 -3.24,0.34 -5.07,0.45 -1.04,0.06 -2.4,0.12 -4.11,0.16 -3.36,0.06 -8.34,0.11 -12.82,0.05 -2.23,-0.03 -4.27,-0.11 -5.89,-0.16 -1.63,-0.06 -2.83,-0.09 -4.36,-0.18" /><path
         id="path40"
         style="fill:#ed1c24;fill-opacity:1;fill-rule:evenodd;stroke:none"
         d="m 1746.98,1026.59 c -0.57,-1.02 0.21,-2.08 -0.65,-3.08 -0.35,-0.65 -1.6,-0.85 -2.88,-0.96 -2.2,-0.06 -4.2,0.06 -6.13,-0.47 -0.21,-0.51 -0.31,-1.06 -0.27,-1.6 0.09,-0.85 0.31,-1.59 1.4,-2.15 0.73,-0.65 2.22,-0.57 3.82,-0.54 0.96,0.01 1.92,-0.02 2.48,-0.06 1.04,-0.13 1.02,-0.12 1.48,-0.56 0.4,-0.49 0.57,-1.56 0.9,-2.43 0.62,-1.67 2.29,-2.05 3.34,-1.99 0.45,0.02 0.96,0.09 1.47,0.09 0.51,0.01 1,-0.05 1.97,-0.05 0.97,-0.01 2.42,0.04 4,0.07 1.58,0.03 3.29,0.06 4.29,0.1 1.81,0.1 1.74,0.04 2.48,0.15 0.58,0.22 1.08,0.51 1.62,1.23 0.54,0.71 0.9,1.9 0.77,2.76 -0.05,0.74 0.13,1.56 0.67,2.39 -0.54,0.99 -1.04,2.01 -1.31,2.71 -0.44,1.09 -0.25,1.49 -0.91,2.17 -0.89,0.61 -1.22,0.61 -2.16,0.76 -1.11,0.11 -2.71,0.24 -3.83,0.34 -1.04,-0.05 -2.16,0.16 -3.27,0.78 -1.27,0.7 -3.09,1.27 -5.09,1.43 -1.14,0.09 -2.28,0.03 -3,-0.19 -0.72,-0.22 -1.01,-0.6 -1.19,-0.9" /><path
         id="path42"
         style="fill:#ffffff;fill-opacity:1;fill-rule:evenodd;stroke:none"
         d="m 1684.69,1027.18 c 0.36,-0.34 0.29,-0.7 -0.08,-1.1 -0.23,-0.26 -0.63,-0.59 -1.32,-0.78 -0.68,-0.19 -1.65,-0.23 -2.58,-0.2 -0.92,0.04 -1.81,0.16 -2.35,0.3 -1.07,0.3 -0.84,0.62 -0.77,0.91 0.09,0.59 0.57,0.71 1.09,0.92 0.34,0.13 0.72,0.23 1.46,0.23 0.75,0.01 1.88,-0.09 2.58,-0.13 1.09,-0.1 1.32,0.08 1.97,-0.15" /><path
         id="path44"
         style="fill:#ffffff;fill-opacity:1;fill-rule:evenodd;stroke:none"
         d="m 1633.66,1026.1 c 0.63,-0.64 1.22,-1.31 1.48,-2.09 0.28,-0.85 0.24,-2.37 0.21,-3.69 0.03,-1.03 -0.25,-1.69 0.74,-2.57 1.57,-0.84 3.58,-1.03 5.58,-0.92 0.96,0.15 2.01,-0.43 3.08,-0.88 0.04,-1.26 1.27,-2.54 0.73,-3.58 -0.24,-0.58 -0.17,-1.81 0.09,-2.96 0.09,-0.81 0.16,-1.26 -0.08,-1.87 -0.13,-0.22 -0.38,-0.38 -0.66,-0.5 -0.28,-0.14 -0.58,-0.24 -1.16,-0.34 -0.58,-0.09 -1.44,-0.18 -2.39,-0.14 -0.95,0.03 -1.99,0.19 -2.72,0.43 -0.73,0.24 -1.16,0.56 -1.43,0.83 -0.62,0.54 -0.4,1.78 -0.34,3.08 0.15,1.35 0.19,2.49 -0.39,3.5 -0.2,0.45 -0.36,0.9 -0.53,1.36 -0.71,0.41 -1.49,0.7 -2.57,0.87 -1.07,0.17 -2.45,0.22 -3.46,0.33 -1.02,0.11 -1.66,0.29 -2.29,0.56 -0.32,0.32 -0.32,1.05 -0.52,1.73 -0.27,0.56 -0.69,1.49 -0.73,2.45 -0.01,1.05 -0.21,1.34 -0.88,1.95 -0.28,0.19 -0.72,0.37 -1.2,0.53 -0.97,0.35 -2.38,0.43 -3.77,0.48 -0.72,0.03 -1.39,0.07 -1.88,0.25 -0.5,0.19 -0.83,0.53 -1,0.93 2.14,0.9 4.93,0.84 7.11,0.7 0.73,-0.02 1.5,-0.04 2.27,-0.06 1.26,-0.02 2.32,-0.05 3.01,0.34 0.47,0.22 1.46,0.21 2.4,-0.15 0.75,-0.32 0.85,-0.25 1.3,-0.57" /><path
         id="path46"
         style="fill:#ed1c24;fill-opacity:1;fill-rule:evenodd;stroke:none"
         d="m 1727.19,1023.81 c 0.08,-0.18 0.26,-0.36 0.5,-0.48 0.24,-0.12 0.55,-0.19 1.38,-0.19 0.82,0 2.16,0.06 2.97,0.1 0.8,0.04 1.08,0.07 1.35,0.08 0.29,0.01 0.57,0 0.68,0.06 0.1,0.11 -0.01,0.58 -0.54,0.96 -0.77,0.32 -1.8,0.54 -2.71,0.8 -0.52,0.12 -1.16,0.21 -1.74,0.15 -0.58,-0.07 -1.12,-0.3 -1.43,-0.47 -0.6,-0.35 -0.54,-0.64 -0.46,-1.01" /><path
         id="path48"
         style="fill:#ed1c24;fill-opacity:1;fill-rule:evenodd;stroke:none"
         d="m 1778.13,1020.8 c 0.05,-0.49 0.08,-1.14 0.59,-1.7 0.59,-0.66 1.83,-0.94 2.8,-0.79 0.96,0.08 2.3,0.04 3.62,0.35 1,0.39 1,1.13 1.04,1.84 -0.11,0.47 -0.29,0.89 -0.94,1.18 -0.33,0.32 -1.28,0.39 -2.3,0.49 -1.13,0.14 -2.26,0.25 -3.23,0 -0.41,-0.07 -0.79,-0.15 -1.03,-0.28 -0.46,-0.39 -0.49,-0.71 -0.55,-1.09" /><path
         id="path50"
         style="fill:#ffffff;fill-opacity:1;fill-rule:evenodd;stroke:none"
         d="m 1674.3,1017.84 c -0.63,-0.45 -2.02,-0.52 -3.22,-0.44 -0.67,0.03 -1.36,0.06 -1.83,0.11 -0.72,0.11 -0.96,0.08 -1.31,0.67 -0.1,0.15 -0.19,0.28 -0.27,0.42 0.98,0.85 2.38,0.96 3.76,0.96 0.75,0.01 1.5,0 1.97,-0.06 0.47,-0.06 0.67,-0.18 0.86,-0.3 0.81,-0.45 0.53,-0.86 0.04,-1.36" /><path
         id="path52"
         style="fill:#ed1c24;fill-opacity:1;fill-rule:evenodd;stroke:none"
         d="m 1346.46,1009.29 c -1.11,-0.96 -2.82,-2.44 -4.44,-3.85 -1.61,-1.42 -3.12,-2.78 -4.37,-3.88 -1.25,-1.11 -2.24,-1.958 -4.02,-3.494 -1.79,-1.535 -4.38,-3.746 -6.13,-5.261 -1.74,-1.516 -2.64,-2.332 -4.28,-3.782 -1.65,-1.445 -4.04,-3.531 -7.51,-6.582 -3.46,-3.05 -8,-7.07 -11.57,-10.218 -3.56,-3.149 -6.16,-5.422 -8.81,-7.743 -2.64,-2.32 -5.34,-4.691 -7.79,-6.847 -2.46,-2.153 -4.66,-4.094 -6.23,-5.457 -1.57,-1.363 -2.49,-2.149 -3.8,-3.274 -1.31,-1.129 -3.01,-2.589 -4.6,-3.992 -1.59,-1.402 -3.08,-2.746 -4.93,-4.387 -1.85,-1.64 -4.05,-3.578 -5.85,-5.144 -1.79,-1.563 -3.17,-2.754 -4.35,-3.828 -1.18,-1.074 -2.17,-2.031 -3.13,-3.016 0.42,-0.226 0.9,-0.359 2.16,-0.406 1.25,-0.047 3.3,-0.016 10.38,0.008 7.08,0.019 19.19,0.031 26.62,0.008 7.44,-0.024 10.21,-0.075 13.91,-0.079 3.7,-0.003 8.34,0.047 11.67,0.067 3.32,0.015 5.33,0.008 6.99,0.012 1.66,0.007 2.98,0.031 3.73,0.082 0.75,0.043 0.92,0.113 1.09,0.179 0.39,0.067 1.23,0.996 2.15,1.907 0.56,0.558 1.13,1.097 1.56,1.5 0.41,0.406 0.68,0.671 0.94,0.937 0.26,0.262 0.53,0.527 1.08,1.063 0.55,0.531 1.39,1.332 2.77,2.656 1.37,1.32 3.28,3.164 5.73,5.531 2.44,2.363 5.41,5.246 7.86,7.605 2.44,2.364 4.35,4.204 5.43,5.258 1.09,1.055 1.35,1.317 1.62,1.582 0.25,0.266 0.52,0.532 0.98,0.973 0.47,0.441 1.13,1.055 1.96,1.844 0.82,0.789 1.8,1.75 3.33,3.254 1.52,1.504 3.59,3.547 5.53,5.429 1.93,1.883 3.73,3.606 5.03,4.856 2.66,2.562 3.68,3.531 5.52,5.293 0.92,0.89 1.92,1.863 2.67,2.597 0.75,0.731 1.25,1.223 1.95,1.914 0.71,0.692 1.63,1.583 3.33,3.247 1.72,1.664 4.21,4.101 7.09,6.898 2.89,2.797 6.15,5.949 8.34,8.07 2.2,2.11 3.32,3.2 4.41,4.25 1.09,1.05 2.14,2.07 2.79,2.72 0.65,0.65 0.91,0.92 1.2,1.21 0.3,0.29 0.64,0.6 1.08,0.67 0.45,0.07 1,-0.09 1.73,-0.47 0.72,-0.39 1.62,-0.99 2.65,-1.65 1.03,-0.66 2.19,-1.37 4.25,-2.65 2.07,-1.27 5.03,-3.11 6.98,-4.34 1.95,-1.228 2.89,-1.837 3.91,-2.455 1.03,-0.617 2.14,-1.246 2.96,-1.765 1.5,-0.965 2.08,-1.539 2.24,-2.168 -3.19,-0.934 -5.81,-1.539 -8.47,-2.074 -1.38,-0.285 -2.92,-0.606 -4.08,-0.871 -1.15,-0.27 -1.9,-0.477 -3.38,-0.84 -1.47,-0.356 -3.67,-0.86 -5.13,-1.176 -1.46,-0.309 -2.19,-0.43 -2.92,-0.57 -1.58,-0.286 -3.62,-0.786 -5.81,-1.383 -1.16,-1.102 -2.31,-2.223 -3.41,-3.332 -1.09,-1.11 -2.14,-2.207 -2.79,-2.887 -0.66,-0.676 -0.93,-0.934 -1.19,-1.23 -0.41,-0.457 -0.8,-0.942 -1,-1.301 0.98,-0.793 2.02,-1.531 3.84,-2.688 1.84,-1.152 4.47,-2.722 6.41,-3.922 1.94,-1.195 3.19,-2.019 4.42,-2.867 -0.19,-0.386 -0.51,-0.691 -1.41,-1.043 -1.69,-0.636 -4.91,-1.449 -7.29,-2.09 -4.13,-0.996 -8.52,-2.398 -12.86,-3.503 -0.99,-0.262 -1.96,-0.508 -3,-0.805 -2.06,-0.61 -3.94,-1.125 -5.61,-1.527 -0.84,-0.219 -1.79,-0.497 -2.39,-0.684 -0.61,-0.188 -0.87,-0.289 -1.15,-0.359 -0.59,0.027 -1.85,-1.012 -3.15,-2.286 -0.76,-0.734 -1.49,-1.48 -2.51,-2.468 -1.02,-0.989 -2.33,-2.215 -3.61,-3.469 -1.28,-1.254 -2.54,-2.535 -3.18,-3.207 -0.64,-0.676 -0.65,-0.75 -0.63,-0.817 8.23,-0.093 16.46,-0.179 22.71,-0.238 6.25,-0.062 10.53,-0.094 13.32,-0.109 2.8,-0.016 4.12,-0.008 5.31,-0.016 2.34,-0.027 4.8,0.004 7.4,0.028 1.29,0.003 2.47,-0.02 3.51,-0.051 1.04,-0.028 1.94,-0.063 2.72,-0.059 2.44,0.09 3.38,0.11 5.02,0.172 1.49,-0.039 2.66,-0.113 4.02,-0.051 1.68,0.059 4.39,0.098 7.04,0.043 1.45,-0.019 2.88,-0.066 3.91,0.039 2.41,0.414 3.03,0.762 4.73,1.032 2.06,0.441 4.18,0.945 6.15,1.355 4.38,0.949 9.51,2.02 14.33,3.125 1.16,0.266 2.27,0.535 3.62,0.832 1.35,0.293 2.94,0.605 4.1,0.871 1.17,0.266 1.93,0.481 2.96,0.715 2.09,0.445 4.82,0.977 7.14,1.531 3.53,0.805 6.98,1.547 10.68,2.367 1.16,0.266 2.24,0.543 3.42,0.809 1.19,0.27 2.47,0.531 3.35,0.687 1.56,0.247 2.05,0.36 2.95,0.762 0.38,0.156 0.74,0.289 1.1,0.414 -2.56,1.153 -5.12,2.305 -9.08,4.074 -3.95,1.774 -9.29,4.161 -14.17,6.356 -4.88,2.199 -9.3,4.203 -12.16,5.504 -2.85,1.305 -4.16,1.906 -5.12,2.367 -0.95,0.453 -1.56,0.766 -1.95,0.992 -0.4,0.231 -0.57,0.379 -0.72,0.555 0.54,0.461 1.16,0.801 2.52,1.137 1.36,0.339 3.45,0.679 4.96,0.953 1.51,0.269 2.43,0.476 3.56,0.711 2.23,0.465 5.27,1.004 8,1.535 2.81,0.574 4.65,0.957 6.7,1.336 1.09,0.211 2.38,0.469 3.72,0.719 1.33,0.242 2.71,0.472 3.72,0.66 2.57,0.465 3.02,0.621 4.85,0.972 1.04,0.203 2.4,0.453 3.69,0.684 1.29,0.234 2.5,0.449 3.46,0.68 0.95,0.226 1.65,0.468 2.31,0.773 -2.53,1.172 -5.06,2.34 -7.81,3.609 -2.76,1.27 -5.73,2.641 -9.82,4.508 -4.09,1.874 -9.29,4.244 -12.72,5.794 -3.43,1.56 -5.08,2.3 -6.67,3.03 -1.58,0.74 -3.09,1.48 -4.61,2.2 -1.53,0.72 -3.07,1.42 -3.98,1.81 -0.92,0.39 -1.22,0.46 -1.55,0.48 -0.32,0.03 -0.69,0.02 -1.94,0.01 -1.25,0 -3.39,0 -8.34,-0.01 -4.96,0 -12.72,-0.01 -18.53,0.01 -5.81,0.02 -9.66,0.07 -12.33,0.07 -2.66,0 -4.14,-0.05 -6.12,-0.07 -1.97,-0.02 -4.44,-0.01 -7.44,-0.01 -2.99,0 -6.51,-0.01 -9.54,0.01 -3.03,0.03 -5.56,0.07 -7.57,0.07 -2.01,0 -3.49,-0.05 -6.15,-0.06 -2.67,0 -6.52,0.04 -10.78,0.08 -4.26,0.05 -8.94,0.09 -12.19,0.09 -3.26,0 -5.11,-0.05 -6.67,-0.07 -1.57,-0.02 -2.86,-0.01 -3.94,0.02 -1.07,0.03 -1.91,0.07 -2.71,0.07 -1.44,0.05 -2.68,-0.29 -3.79,-1.5 -0.49,-0.46 -0.99,-0.92 -2.09,-1.89" /><path
         id="path54"
         style="fill:#ffffff;fill-opacity:1;fill-rule:evenodd;stroke:none"
         d="m 274.582,1010.73 c 1.234,-0.09 1.891,-0.16 2.941,-0.26 1.957,-0.18 5.516,-0.55 8.493,-1.11 1.386,-0.26 2.558,-0.53 3.785,-0.91 1.222,-0.37 2.5,-0.85 3.34,-1.22 1.578,-0.73 1.996,-1 2.933,-1.66 0.946,-0.83 1.797,-1.69 2.375,-2.62 1.18,-2.5 1.305,-4.161 0.024,-6.622 -0.727,-1.105 -1.414,-1.957 -2.539,-2.68 -0.883,-0.73 -2.996,-1.918 -5.071,-2.777 -2.261,-0.926 -4.23,-1.398 -6.3,-1.894 -1.004,-0.231 -1.997,-0.43 -3.622,-0.7 -1.628,-0.265 -3.902,-0.601 -5.941,-0.851 -4.133,-0.481 -7.758,-0.746 -11.789,-0.801 l -54.883,0.012 -0.031,24.453 h 53.926 c 2.504,0 5.004,-0.02 7.16,-0.09 2.156,-0.07 3.969,-0.17 5.199,-0.27" /><path
         id="path56"
         style="fill:#ffffff;fill-opacity:1;fill-rule:evenodd;stroke:none"
         d="m 1695.3,1008.48 c 0.26,-0.55 0.43,-1.26 0.47,-1.97 0.02,-0.41 -0.04,-0.86 -0.12,-1.15 -0.08,-0.29 -0.2,-0.42 -0.35,-0.53 -0.39,-0.36 -1.32,-0.23 -2.34,-0.28 -0.63,-0.03 -1.31,-0.12 -2.12,-0.11 -0.82,0.02 -1.77,0.13 -2.39,0.24 -0.63,0.1 -0.93,0.21 -1.2,0.36 0.16,1.26 -0.47,2.22 1.28,3.78 1.28,0.47 2.72,0.86 4.19,0.87 0.8,-0.08 1.48,-0.23 2.12,-0.71 0.18,-0.13 0.33,-0.28 0.46,-0.5" /><path
         id="path58"
         style="fill:#ffffff;fill-opacity:1;fill-rule:evenodd;stroke:none"
         d="m 1614.59,1007.64 c 0.23,-0.22 0.29,-0.45 0.32,-0.64 0.02,-0.18 0.01,-0.32 0.04,-0.78 0.04,-0.46 0.12,-1.25 0.15,-1.84 0.01,-0.91 0.01,-1.43 -0.41,-2.18 -0.15,-0.21 -0.35,-0.32 -0.58,-0.4 -0.23,-0.09 -0.5,-0.16 -1.16,-0.21 -0.66,-0.04 -1.7,-0.05 -2.49,-0.11 -0.78,-0.05 -1.31,-0.14 -1.76,-0.18 -0.46,-0.05 -0.85,-0.06 -1.07,0.01 -0.24,0.07 -0.31,0.21 -0.37,0.34 -0.31,0.68 0.53,2.12 0.43,3.4 0.01,0.6 -0.05,1.29 -0.05,1.77 -0.02,0.84 0.25,1.13 1.11,1.57 1.27,0.77 3.33,1.07 4.82,-0.11 0.39,-0.22 0.79,-0.42 1.02,-0.64" /><path
         id="path60"
         style="fill:#ffffff;fill-opacity:1;fill-rule:evenodd;stroke:none"
         d="m 1674.86,1008.59 c 0.25,-0.44 0.77,-0.89 -0.22,-1.45 -0.47,-0.21 -0.96,-0.26 -1.47,-0.26 -0.6,0.02 -1.65,0.11 -2.71,0.18 -0.59,0.05 -1.16,0.1 -1.55,0.21 -0.78,0.16 -0.79,0.75 -0.28,1.27 0.95,0.75 2.36,0.43 4.04,0.41 0.53,-0.02 0.96,0.01 1.33,-0.03 0.37,-0.04 0.68,-0.15 0.86,-0.33" /><path
         id="path62"
         style="fill:#ed1c24;fill-opacity:1;fill-rule:evenodd;stroke:none"
         d="m 1832.09,1007.96 c 0.71,-0.03 1.41,0.08 2.46,0.18 1.93,0.19 4.56,0.2 6.47,0 0.87,-0.05 1.77,-0.06 2.45,-0.02 0.69,0.05 1.18,0.15 1.65,0.31 -0.92,0.41 -2.1,0.33 -3.51,0.29 -1.69,-0.06 -3.65,-0.17 -5.5,-0.04 -1.91,0.17 -3.99,0.25 -6.15,-0.25 0.69,-0.28 1.42,-0.45 2.13,-0.47" /><path
         id="path64"
         style="fill:#ffffff;fill-opacity:1;fill-rule:evenodd;stroke:none"
         d="m 1655.09,1003.14 c -0.23,-0.43 -0.45,-0.84 -0.66,-1.08 -0.73,-0.72 -1.41,-0.37 -2.14,-0.55 -0.31,-0.04 -0.65,-0.07 -1.18,-0.04 -0.52,0.03 -1.22,0.12 -1.66,0.25 -1.03,0.31 -0.97,0.95 -1.24,1.62 -0.24,0.95 -0.47,1.64 0.44,2.67 0.22,0.17 0.51,0.27 0.84,0.36 0.56,0.2 2.12,0.29 3.54,0.07 1.05,-0.23 1.63,-0.36 2.21,-1.11 0.48,-0.51 0.33,-1.38 -0.15,-2.19" /><path
         id="path66"
         style="fill:#ed1c24;fill-opacity:1;fill-rule:evenodd;stroke:none"
         d="m 1809.34,1005.07 c -0.3,-1.02 0.2,-2.26 -1.2,-3.37 -0.7,-0.68 -1.34,-1 -2.03,-1.07 -0.39,-0.04 -0.82,-0.05 -1.46,0.05 -0.65,0.1 -1.51,0.3 -2.14,0.31 -0.62,0 -1.01,-0.19 -1.29,-0.5 0.59,-0.41 1.89,-0.2 3.2,-0.14 0.76,0.04 1.49,0.05 2.08,-0.05 0.58,-0.1 1.02,-0.3 1.41,-0.546 1.34,-0.914 1.44,-1.563 0.86,-2.348 -0.32,-0.527 -1.18,-0.621 -2,-0.863 -0.93,-0.391 -1.82,-0.551 -2.79,-0.367 -1.29,0.215 -2.4,0.039 -3.25,-0.473 -0.93,-0.656 -2.38,-2.152 -3.41,-2.469 -1.6,-0.808 -3.19,0.371 -4.89,0.098 -0.42,-0.031 -0.84,-0.086 -1.07,-0.258 -0.23,-0.168 -0.29,-0.449 -0.19,-0.594 0.09,-0.148 0.33,-0.156 0.56,-0.16 0.24,0 0.47,0.004 0.93,0.008 0.46,0.004 1.15,0.004 2.11,0.004 0.95,0 2.17,0.004 3.36,0.004 1.2,0 2.37,-0.004 3.05,-0.035 0.67,-0.035 0.85,-0.102 1.03,-0.176 0.38,-0.23 1.52,-0.187 2.61,0.023 1.4,0.391 2.61,0.364 4.05,0.215 1.75,-0.043 3.22,-0.117 4.85,-0.136 0.91,0.011 1.94,0.105 2.58,0.175 1.2,0.09 1.42,0.395 2.14,1.075 0.71,0.902 1.45,1.164 2.35,1.25 0.5,0.07 1.03,0.14 1.8,0.156 0.78,0.015 1.81,-0.028 2.44,0.019 0.64,0.051 0.89,0.192 1.15,0.321 0.58,0.414 2,0.179 3.47,-0.024 0.89,-0.129 1.78,-0.25 2.75,-0.304 0.97,-0.051 2.03,-0.036 2.83,0.105 0.8,0.141 1.35,0.41 1.8,0.797 -1.48,0.203 -3,0.441 -4.51,0.469 -1.32,0.011 -3.59,-0.325 -5.77,-0.364 -1.02,-0.015 -1.78,0.051 -2.55,0.2 -0.77,0.144 -1.56,0.367 -2.08,0.496 -1.23,0.312 -1.67,0.132 -2.42,0.894 -0.22,0.192 -0.45,0.379 -0.61,0.934 -0.16,0.558 -0.24,1.488 -0.2,2.124 0.1,0.94 0.26,1.2 1.02,1.56 0.46,0.35 1.63,0.31 2.81,0.31 0.7,0.01 1.39,0.05 2.14,0.08 0.77,0.04 1.61,0.07 2.14,0.29 1.05,0.58 1.23,1.56 0.54,2.61 -0.74,0.53 -0.71,0.58 -1.36,0.78 -0.43,0.1 -1.09,0.15 -2.07,0.21 -0.97,0.07 -2.26,0.15 -3.49,0.13 -2.33,-0.07 -4.23,-0.18 -5.98,-0.02 -0.84,0.03 -1.74,0 -2.52,-0.05 -0.78,-0.06 -1.44,-0.15 -1.91,-0.38 -0.47,-0.23 -0.74,-0.59 -0.87,-1" /><path
         id="path68"
         style="fill:#ffffff;fill-opacity:1;fill-rule:evenodd;stroke:none"
         d="m 1685.84,1002.73 c -0.05,-0.3 -0.28,-0.66 -0.72,-0.86 -1.27,-0.5 -3.67,-0.26 -5.8,0.14 -0.53,0.17 -0.99,0.44 -1.38,0.78 0.64,1.37 1.86,1.26 2.99,1.4 0.53,0.03 1.12,0.03 1.82,-0.02 0.71,-0.05 1.52,-0.16 2.02,-0.28 0.49,-0.13 0.66,-0.26 0.82,-0.45 0.15,-0.19 0.29,-0.42 0.25,-0.71" /><path
         id="path70"
         style="fill:#ffffff;fill-opacity:1;fill-rule:evenodd;stroke:none"
         d="m 1723.91,1002.21 c 0.98,-0.03 1.16,-0.14 1.36,-0.23 0.88,-0.28 0.84,-0.96 0.88,-1.39 -0.03,-0.19 -0.15,-0.42 -0.3,-0.617 -0.15,-0.196 -0.35,-0.356 -1.37,-0.457 -1.02,-0.098 -2.85,-0.137 -4.18,-0.207 -2.85,-0.207 -3.62,-0.262 -5.42,-0.125 -0.94,0.062 -2.06,0.144 -3.12,0.175 -1.05,0.028 -2.04,0 -2.6,-0.031 -0.57,-0.031 -0.71,-0.062 -0.86,-0.066 -0.27,0.074 -0.96,-0.215 -1.59,-0.957 -0.71,-0.965 -1.07,-1.387 -1.64,-1.395 -0.59,-0.058 -1.45,-0.074 -2.25,-0.023 -1.31,0.289 -3.75,-0.02 -5.92,-0.168 -0.76,-0.09 -1.51,-0.239 -2.5,-0.246 -1,-0.008 -2.25,0.121 -3.24,0.238 -0.98,0.113 -1.71,0.207 -2.17,0.277 -0.46,0.067 -0.65,0.106 -0.84,0.157 -0.26,0.859 -0.48,1.722 -0.62,2.328 -0.16,0.927 -0.44,1.327 0.2,2.047 0.25,0.18 0.64,0.27 1.06,0.3 0.43,0.03 0.89,0.02 1.71,0 0.82,-0.02 2,-0.05 2.75,-0.12 1.27,-0.13 1.49,-0.27 2.12,-0.59 0.42,-0.23 0.64,-0.79 1.16,-1.309 0.22,-0.184 0.53,-0.274 0.83,-0.36 0.29,-0.089 0.59,-0.171 1.44,-0.207 1.83,-0.05 5.2,0.02 7.88,0.063 0.42,0.676 0.96,1.283 1.52,1.703 0.56,0.41 1.13,0.65 1.84,0.77 1.53,0.2 3.72,0.3 5.86,0.41 1.15,0.04 2.29,0 3.76,0.01 1.47,0 3.26,0.04 4.25,0.02" /><path
         id="path72"
         style="fill:#ffffff;fill-opacity:1;fill-rule:evenodd;stroke:none"
         d="m 1604.97,999.168 c -1.28,-1.059 -2.38,-0.094 -4.01,-0.328 -0.58,-0.051 -1.23,-0.219 -1.98,0.187 -0.5,0.289 -0.4,0.852 0.44,1.313 0.74,0.48 2.08,0.62 3.42,0.69 0.76,0.04 1.49,0.05 1.93,0.01 0.44,-0.05 0.59,-0.15 0.71,-0.27 0.37,-0.34 0.38,-0.84 -0.51,-1.602" /><path
         id="path74"
         style="fill:#ffffff;fill-opacity:1;fill-rule:evenodd;stroke:none"
         d="m 1585.43,997.234 -0.11,-0.285 c -0.91,-0.258 -1.85,-0.418 -2.66,-0.449 -0.82,-0.031 -1.51,0.066 -2.02,0.133 -0.77,0.125 -1.18,0.09 -1.78,0.562 -0.42,0.485 -0.42,0.821 -0.36,1.368 0.05,0.343 0.19,0.785 0.63,1.128 0.43,0.349 1.16,0.589 1.88,0.739 0.72,0.15 1.42,0.2 1.89,0.19 0.79,-0.07 1.11,-0.06 1.65,-0.58 0.41,-0.599 0.65,-1.798 0.88,-2.806" /><path
         id="path76"
         style="fill:#ed1c24;fill-opacity:1;fill-rule:evenodd;stroke:none"
         d="m 1759.53,998.027 c 0.13,-0.187 0.46,-0.343 0.81,-0.48 0.35,-0.133 0.71,-0.246 1.39,-0.277 0.67,-0.032 1.66,0.019 2.26,0.085 0.61,0.071 0.83,0.149 1.05,0.266 0.53,0.266 0.6,0.57 0.47,0.871 -0.12,0.641 -0.88,0.66 -1.65,0.742 -0.96,0.039 -2.04,0.043 -3,0.008 -0.43,-0.027 -0.82,-0.097 -1.04,-0.203 -0.34,-0.199 -0.46,-0.633 -0.29,-1.012" /><path
         id="path78"
         style="fill:#ffffff;fill-opacity:1;fill-rule:evenodd;stroke:none"
         d="m 1634.42,994.648 c -0.87,-1.32 -2.35,-0.613 -3.81,-0.652 -0.49,0.031 -0.98,0.055 -1.28,0.137 -0.88,0.48 -0.9,0.844 0.25,1.519 1.18,0.77 2.79,0.243 4.01,-0.058 0.62,-0.11 0.93,-0.555 0.83,-0.946" /><path
         id="path80"
         style="fill:#ffffff;fill-opacity:1;fill-rule:evenodd;stroke:none"
         d="m 1674.83,989.84 c -0.04,-0.184 -0.16,-0.379 -0.34,-0.535 -0.38,-0.426 -1.51,-0.375 -2.59,-0.348 -0.64,0.016 -1.26,0.043 -1.72,0.129 -0.47,0.082 -0.77,0.223 -1,0.414 -0.36,0.301 -0.68,0.766 0.02,1.188 0.56,0.312 1.76,0.488 3,0.437 0.75,-0.047 1.51,-0.23 1.95,-0.379 0.88,-0.324 0.66,-0.566 0.68,-0.906" /><path
         id="path82"
         style="fill:#ffffff;fill-opacity:1;fill-rule:evenodd;stroke:none"
         d="m 1726.96,987.289 c -0.3,-0.887 -1.03,-0.828 -1.58,-1.094 -0.25,-0.082 -0.51,-0.168 -1.09,-0.16 -0.57,0.004 -1.46,0.102 -2.49,0.176 -1.01,0.074 -2.17,0.121 -3.04,0.074 -1.51,-0.113 -2.48,-0.398 -3.67,-0.207 -0.49,0.059 -0.88,0.141 -1.7,0.223 -0.81,0.082 -2.05,0.168 -2.86,0.297 -1.41,0.191 -1.62,0.664 -1.63,1.105 -0.08,0.473 0.65,0.645 1.3,0.992 0.46,0.215 0.96,0.41 2.08,0.485 1.12,0.078 2.87,0.035 4.65,0.015 1.78,-0.015 3.59,-0.007 5.02,-0.004 1.41,0.008 2.44,0.012 3.17,-0.105 0.73,-0.113 1.15,-0.352 1.4,-0.566 0.46,-0.415 0.48,-0.809 0.44,-1.231" /><path
         id="path84"
         style="fill:#ed1c24;fill-opacity:1;fill-rule:evenodd;stroke:none"
         d="m 1768.85,981.441 c 0.07,-0.437 0.24,-0.988 0.66,-1.359 0.42,-0.371 1.1,-0.562 2.14,-0.574 1.03,-0.012 2.44,0.164 3.29,0.258 1.59,0.195 1.59,0.07 2.24,0.492 0.28,0.207 0.57,0.551 0.88,0.879 0.76,0.965 1.94,0.968 3.26,1.172 1.41,0.242 2.81,0.679 3.99,0.839 -2.66,0.348 -5.01,0.582 -6.95,0.625 -1.72,0.055 -3.59,0.094 -5.28,0.071 -0.83,-0.012 -1.65,-0.039 -2.2,-0.082 -0.84,-0.102 -1.14,-0.129 -1.74,-0.598 -0.39,-0.559 -0.37,-1.031 -0.29,-1.723" /><path
         id="path86"
         style="fill:#ffffff;fill-opacity:1;fill-rule:evenodd;stroke:none"
         d="m 574.938,980.883 c 1.871,-0.254 3.57,-0.578 5.031,-0.867 3.004,-0.598 4.879,-1 7.144,-1.618 1.16,-0.316 2.457,-0.703 3.614,-1.07 1.156,-0.371 2.175,-0.734 3.472,-1.273 1.297,-0.547 2.871,-1.274 4.281,-2.039 1.411,-0.766 2.661,-1.567 3.524,-2.188 0.863,-0.625 1.344,-1.07 1.828,-1.492 1.066,-0.871 1.828,-1.621 2.344,-2.441 0.512,-0.704 1.246,-2.036 1.547,-3.301 0.121,-0.535 0.086,-0.879 -0.051,-1.188 l -95.977,0.008 c 0.168,1.598 0.774,3.481 1.809,5.285 0.469,0.809 0.98,1.489 1.707,2.258 0.723,0.77 1.656,1.617 2.613,2.316 0.953,0.696 1.93,1.235 3.028,1.782 1.996,0.992 3.937,1.84 5.375,2.312 1.281,0.488 3.461,1.067 5.461,1.512 1.863,0.465 3.589,0.863 5.535,1.184 0.957,0.164 1.84,0.3 3.105,0.468 1.266,0.168 2.91,0.367 4.16,0.496 1.25,0.133 2.106,0.196 3.418,0.278 1.313,0.086 3.082,0.199 4.942,0.308 1.859,0.106 3.812,0.219 6.004,0.235 2.191,0.011 4.628,-0.071 6.355,-0.145 1.731,-0.078 2.75,-0.144 4.285,-0.265 1.531,-0.125 3.574,-0.305 5.446,-0.555" /><path
         id="path88"
         style="fill:#ffffff;fill-opacity:1;fill-rule:evenodd;stroke:none"
         d="m 1584.8,978.383 c -0.42,-0.231 -1.09,-0.285 -1.83,-0.301 -0.74,-0.012 -1.52,0.023 -2.02,0.156 -0.77,0.235 -1.06,0.703 -0.92,1.024 0.28,0.316 1.37,0.617 2.25,0.691 0.38,0.203 1.05,0.051 1.83,-0.168 0.89,-0.14 1.7,-0.765 0.69,-1.402" /><path
         id="path90"
         style="fill:#ffffff;fill-opacity:1;fill-rule:evenodd;stroke:none"
         d="m 1645.46,976.941 c 0.08,-0.668 0.75,-1.859 0.9,-2.589 -0.09,-0.282 0.04,-0.625 -0.91,-0.977 -0.42,-0.113 -1.11,-0.18 -2.28,-0.211 -1.17,-0.031 -2.82,-0.031 -3.99,-0.105 -1.16,-0.075 -1.85,-0.227 -2.98,-0.235 -1.13,-0.008 -2.7,0.133 -3.81,0.219 -1.11,0.086 -1.76,0.121 -2.17,0.203 -1.2,0.309 -0.76,0.93 -0.72,1.434 1.31,0.367 2.64,0.656 3.57,0.781 1.56,0.211 2.22,-0.039 3.21,0.293 1.01,0.371 1.1,0.922 1.76,1.305 1.16,0.558 3.22,1.371 4.82,0.89 0.96,-0.23 1.6,-0.023 2.6,-1.008" /><path
         id="path92"
         style="fill:#ed1c24;fill-opacity:1;fill-rule:evenodd;stroke:none"
         d="m 1538.13,975.609 c -1.07,-0.207 -1.81,-0.355 -2.88,-0.566 -2.21,-0.434 -5.33,-1.031 -8.04,-1.543 -1.38,-0.266 -2.76,-0.527 -4.13,-0.789 -1.37,-0.258 -2.73,-0.512 -3.74,-0.695 -1.02,-0.184 -1.7,-0.293 -2.66,-0.485 -0.96,-0.191 -2.21,-0.465 -3.5,-0.73 -1.3,-0.262 -2.66,-0.524 -3.45,-0.684 -0.8,-0.156 -1.04,-0.215 -1.33,-0.238 -0.28,-0.027 -0.61,-0.024 -0.79,-0.106 -0.38,-0.414 -0.39,-0.668 0.41,-1.156 0.55,-0.328 1.61,-0.789 2.67,-1.25 1.07,-0.465 2.15,-0.926 4.23,-1.855 2.08,-0.926 5.15,-2.321 7.21,-3.266 2.05,-0.945 3.06,-1.437 3.71,-1.824 0.65,-0.391 0.93,-0.672 1.14,-1.008 -1.39,-0.437 -2.78,-0.851 -3.58,-1.074 -0.79,-0.219 -0.99,-0.242 -1.21,-0.27 -0.22,-0.023 -0.46,-0.05 -0.6,-0.148 -0.68,-0.734 0.61,-1.309 1.8,-1.848 0.62,-0.285 1.25,-0.586 3.09,-1.406 1.84,-0.82 4.91,-2.168 6.73,-2.969 1.83,-0.804 2.42,-1.07 3.06,-1.359 0.64,-0.289 1.33,-0.598 1.79,-0.762 0.94,-0.262 0.94,-0.301 1.28,-0.18 0.17,0.094 0.42,0.321 0.63,0.575 0.21,0.257 0.39,0.543 0.76,1.097 0.37,0.551 0.94,1.368 1.54,2.356 1.73,2.84 3.93,7.902 4.41,12.168 0.16,1.254 0.21,2.445 0.22,3.742 0,1.297 -0.04,2.703 -0.11,3.867 -0.08,1.168 -0.18,2.09 -0.28,2.617 -0.11,0.528 -0.22,0.66 -0.32,0.805 -0.11,0.148 -0.2,0.313 -0.9,0.27 -0.71,-0.043 -2.02,-0.29 -3.37,-0.551 -1.35,-0.258 -2.73,-0.528 -3.79,-0.735" /><path
         id="path94"
         style="fill:#ed1c24;fill-opacity:1;fill-rule:evenodd;stroke:none"
         d="m 1772.61,974.359 c 0.92,0 1.86,0.446 2.8,0.891 -0.5,0.273 -1.07,0.441 -1.84,0.504 -0.78,0.066 -1.78,0.023 -2.43,-0.066 -0.65,-0.086 -0.95,-0.227 -1.19,-0.438 0.88,-0.445 1.75,-0.891 2.66,-0.891" /><path
         id="path96"
         style="fill:#ffffff;fill-opacity:1;fill-rule:evenodd;stroke:none"
         d="m 1595.19,973.883 c 0.05,-0.195 -0.05,-0.344 -0.19,-0.461 -0.23,-0.285 -1.55,-0.445 -2.71,-0.445 -0.67,0.007 -1.25,0.101 -1.61,0.257 -0.37,0.157 -0.52,0.379 -0.46,0.633 0.12,0.442 0.73,0.871 1.07,0.918 0.33,0.207 1.12,0.153 1.95,0.028 0.5,-0.075 0.99,-0.168 1.34,-0.333 0.35,-0.167 0.55,-0.406 0.61,-0.597" /><path
         id="path98"
         style="fill:#ffffff;fill-opacity:1;fill-rule:evenodd;stroke:none"
         d="m 1676.12,971.895 c -0.88,-1.133 -2.92,-1.243 -4.69,-1.028 -0.81,0.063 -1.41,0.078 -1.77,0.223 -0.54,0.265 -0.76,0.805 -0.56,1.148 0.14,0.16 0.46,0.321 0.81,0.461 0.34,0.133 0.71,0.246 1.41,0.278 0.71,0.031 1.76,-0.02 2.46,-0.09 0.69,-0.078 1.03,-0.176 1.34,-0.289 0.3,-0.118 0.57,-0.246 0.74,-0.364 0.17,-0.117 0.24,-0.222 0.26,-0.339" /><path
         id="path100"
         style="fill:#ed1c24;fill-opacity:1;fill-rule:evenodd;stroke:none"
         d="m 1807.08,970.547 c 0.67,-0.133 1.35,-0.246 2.04,-0.328 1.18,-0.098 2.18,-0.285 2.83,-0.352 0.69,0.055 1.75,0.426 2.76,0.68 -2,0.363 -3.32,0.215 -4.8,0.07 -0.82,-0.062 -1.82,-0.082 -2.83,-0.07" /><path
         id="path102"
         style="fill:#ed1c24;fill-opacity:1;fill-rule:evenodd;stroke:none"
         d="m 1699.65,970.156 c -0.98,-0.265 -1.26,-0.797 -1.39,-1.203 0.01,-0.16 0.16,-0.281 0.35,-0.367 0.53,-0.242 1.46,-0.172 2.59,-0.152 0.72,0.023 1.53,0.066 2.35,0.109 0.82,0.043 1.64,0.09 2.22,0.262 0.58,0.175 0.91,0.476 1.1,0.863 -0.87,1.141 -2.76,0.937 -4.56,0.789 -1.03,-0.082 -2.03,-0.144 -2.66,-0.301" /><path
         id="path104"
         style="fill:#ed1c24;fill-opacity:1;fill-rule:evenodd;stroke:none"
         d="m 1803.52,969.805 c 0.57,0.086 1.21,0.25 1.89,0.394 0.67,0.145 1.39,0.274 1.11,0.344 -0.28,0.07 -1.56,0.078 -2.78,0.105 -1.22,0.024 -2.39,0.059 -2.88,-0.136 -0.5,-0.192 -0.31,-0.621 -0.02,-0.797 0.73,-0.262 1.7,0.015 2.68,0.09" /><path
         id="path106"
         style="fill:#ed1c24;fill-opacity:1;fill-rule:evenodd;stroke:none"
         d="m 1779.18,967.262 c -0.2,-0.59 0.06,-1.653 -0.24,-2.489 -0.15,-0.429 -0.43,-0.859 -0.73,-1.187 -0.66,-0.731 -1.57,-0.926 -2.53,-0.938 0.91,-0.48 1.79,-1.027 2.31,-1.394 0.96,-0.676 0.91,-1.027 0.9,-1.59 -0.21,-0.676 -0.85,-0.906 -1.45,-1.164 -1.19,-0.633 -3.29,-0.113 -5.44,-0.465 -1.86,-0.226 -2.93,-2.301 -4.43,-2.777 -0.35,-0.262 -1.11,-0.313 -1.87,-0.25 -0.45,0.039 -0.86,0.101 -1.56,0.125 -0.71,0.019 -1.7,0.008 -2.36,-0.035 -0.66,-0.047 -0.99,-0.121 -1.19,-0.196 -0.2,-0.074 -0.27,-0.152 -0.3,-0.254 0.41,-0.425 0.95,-0.714 1.66,-0.816 0.7,-0.105 1.56,-0.023 2.12,0.074 0.57,0.098 0.84,0.211 1.11,0.309 0.59,0.308 1.88,0.137 3.26,0.015 1.56,-0.121 2.94,-0.285 4.18,-0.41 1.07,-0.093 2.13,-0.011 3.01,0.328 0.39,0.122 0.79,0.231 1.36,0.25 1.08,0.028 3.51,-0.324 5.67,-0.359 1.07,-0.023 1.95,0.031 2.57,0.082 1.73,0.102 2.14,0.379 3.22,1.414 0.6,0.528 1.21,0.973 1.69,1.082 0.36,0.231 1.61,0.16 2.88,0.188 1.65,0.09 4.43,0.125 7.32,0.082 1.6,-0.016 3.12,-0.024 3.96,-0.008 0.84,0.019 1,0.062 1.2,0.082 0.43,-0.07 0.95,0.394 0.43,0.805 -0.27,0.168 -0.81,0.187 -1.36,0.238 -1.03,0.105 -2.51,0.269 -3.94,0.168 -1.02,-0.09 -1.7,-0.192 -2.29,-0.594 -0.37,-0.269 -1.21,-0.223 -2.04,-0.105 -0.46,0.066 -0.91,0.16 -1.78,0.336 -0.88,0.168 -2.21,0.421 -2.98,0.601 -1.28,0.324 -1.36,0.387 -1.99,0.688 -0.91,0.859 -0.72,1.324 -0.83,2.336 -0.06,0.433 -0.24,0.871 -0.2,1.289 0.04,0.422 0.29,0.832 0.71,1.062 0.84,0.496 3.06,0.254 5.02,0.442 1.05,0.086 1.96,0.269 2.51,0.464 1.12,0.434 0.86,0.899 0.92,1.391 0,0.266 0,0.547 -0.18,0.824 -0.34,0.508 -1.09,0.957 -1.6,1.133 -0.24,0.094 -0.47,0.16 -0.92,0.234 -0.44,0.071 -1.1,0.149 -2.21,0.157 -1.12,0.011 -2.69,-0.039 -3.85,-0.114 -1.15,-0.082 -1.9,-0.183 -2.81,-0.152 -0.9,0.031 -1.98,0.199 -3,0.246 -1.02,0.043 -1.97,-0.031 -2.53,-0.164 -0.56,-0.133 -0.72,-0.32 -0.9,-0.465 -0.19,-0.144 -0.41,-0.242 -0.5,-0.519" /><path
         id="path108"
         style="fill:#ed1c24;fill-opacity:1;fill-rule:evenodd;stroke:none"
         d="m 1710.26,966.27 c 0.54,-0.082 1.37,-0.055 2.18,-0.028 1.6,0.063 2.62,0.11 3.54,0.481 0.84,0.347 2.45,0.757 3.83,0.332 0.57,-0.153 0.97,-0.36 1.32,-0.344 0.35,0.016 0.66,0.262 0.8,0.574 -1.81,0.524 -3.43,-0.004 -5.23,0.293 -1.41,0.035 -3.62,0.52 -5.63,0.531 -1,-0.035 -1.89,-0.293 -2.69,-0.722 0.26,-0.227 0.54,-0.434 0.8,-0.637 0.27,-0.199 0.53,-0.395 1.08,-0.48" /><path
         id="path110"
         style="fill:#ffffff;fill-opacity:1;fill-rule:evenodd;stroke:none"
         d="m 1635.19,965.539 c -0.41,-0.144 -1.11,-0.258 -2.07,-0.277 -0.96,-0.024 -2.17,0.047 -2.94,0.246 -0.77,0.203 -1.09,0.535 -1.21,0.953 1.03,1.102 3.55,1.352 5.35,1.152 0.36,-0.07 0.66,-0.242 0.97,-0.41 0.71,-0.324 0.88,-0.73 0.57,-1.14 -0.11,-0.196 -0.25,-0.379 -0.67,-0.524" /><path
         id="path112"
         style="fill:#ed1c24;fill-opacity:1;fill-rule:evenodd;stroke:none"
         d="m 1772.99,961.781 c 0.58,0.141 1.15,0.688 1.63,0.867 -0.97,0.125 -1.94,0.25 -2.54,0.227 -0.61,-0.02 -0.85,-0.187 -1.08,-0.355 0.67,-0.364 1.35,-0.825 1.99,-0.739" /><path
         id="path114"
         style="fill:#ffffff;fill-opacity:1;fill-rule:evenodd;stroke:none"
         d="m 1596.39,958.789 c -0.14,-0.621 -0.41,-0.949 -1.25,-1.109 -0.85,-0.16 -2.25,-0.16 -3.16,-0.047 -1.43,0.207 -1.68,0.594 -2.22,1.265 -0.43,0.465 -0.49,1.059 -0.15,1.637 0.19,0.727 1.72,1.32 3.06,1.547 1.37,0.191 2.55,-0.039 3.73,-0.906 0.15,-0.856 0.14,-1.766 -0.01,-2.387" /><path
         id="path116"
         style="fill:#ffffff;fill-opacity:1;fill-rule:evenodd;stroke:none"
         d="m 1614.87,960.145 c -0.81,-0.239 -2.07,-0.27 -2.92,0.031 -0.42,0.117 -0.88,0.25 -1.18,0.422 -0.54,0.3 -0.54,0.746 -0.11,1.125 0.79,0.726 1.76,0.3 2.94,0.406 0.69,-0.008 1.31,0.117 1.88,-0.363 0.5,-0.493 0.75,-0.942 -0.61,-1.621" /><path
         id="path118"
         style="fill:#ffffff;fill-opacity:1;fill-rule:evenodd;stroke:none"
         d="m 1676.84,959.801 c 0.62,-0.297 1.41,-1.426 2.15,-1.754 0.13,-0.09 0.26,-0.207 0.77,-0.301 0.51,-0.09 1.4,-0.148 2.32,-0.176 0.92,-0.023 1.88,-0.015 3.34,0.012 1.47,0.023 3.44,0.063 5.19,0.086 1.74,0.027 3.26,0.031 4.14,0.016 1.42,-0.043 1.45,-0.036 2.05,-0.457 0.17,-0.168 0.27,-0.399 0.34,-0.582 0.19,-0.399 0.14,-1.5 0.15,-2.715 -0.01,-0.77 -0.03,-1.563 -0.05,-2.11 -0.07,-0.976 0.09,-1.461 -0.81,-2.113 -0.3,-0.289 -1.37,-0.269 -2.41,-0.238 -1.27,0.047 -2.32,0.113 -3.37,0.496 -1.3,0.41 -1.83,1.191 -2.59,1.781 -1,0.805 -2.83,0.629 -4.41,0.57 -1.61,0.125 -3.35,0.457 -5.06,0.204 -0.82,-0.075 -1.56,-0.161 -2.35,-0.247 -0.79,-0.085 -1.62,-0.168 -2.67,-0.101 -1.93,0.183 -4.16,0.508 -5.88,0.183 -1.57,-0.167 -3.49,-0.121 -5.32,0.063 -0.89,0.086 -1.71,0.184 -2.2,0.316 -0.9,0.219 -0.83,0.797 -0.58,1.317 0.41,0.527 1.47,0.871 2.55,1.137 0.68,0.14 1.41,0.175 2.16,0.226 0.76,0.055 1.54,0.121 2.02,0.191 0.49,0.067 0.7,0.137 0.88,0.227 0.3,0.098 0.89,0.684 0.08,1.238 -0.94,0.414 -2.98,0.325 -4.57,0.453 -1.74,0.192 -4.26,0.145 -6.81,0.071 -1.33,-0.02 -2.55,0.019 -3.31,0.062 -1.25,0.098 -1.48,0.071 -2.17,0.137 -0.73,0.262 -1.06,0.914 -0.62,1.43 0.11,0.187 0.25,0.367 0.64,0.496 0.8,0.285 2.99,0.261 4.84,0.23 0.97,-0.011 1.83,-0.023 2.86,0.02 1.04,0.039 2.25,0.125 3.97,0.16 1.71,0.035 3.91,0.012 5.43,0.012 1.51,0 2.34,0.023 2.92,0.097 1.11,0.203 1.59,0.367 2.4,0.309 1.1,0.086 2.05,-0.531 3.04,-0.527 0.32,-0.032 0.64,-0.063 0.94,-0.219" /><path
         id="path120"
         style="fill:#ffffff;fill-opacity:1;fill-rule:evenodd;stroke:none"
         d="m 272.785,959.066 c 1.199,-0.035 2.563,-0.125 3.617,-0.214 1.055,-0.09 1.805,-0.176 2.559,-0.247 0.754,-0.07 1.523,-0.125 2.598,-0.179 1.074,-0.059 2.457,-0.11 3.523,-0.176 1.063,-0.066 1.813,-0.145 3.207,-0.316 1.395,-0.168 3.434,-0.43 4.91,-0.629 1.477,-0.196 2.387,-0.328 3.891,-0.66 1.504,-0.332 3.601,-0.86 5.168,-1.336 1.566,-0.477 2.605,-0.895 3.672,-1.418 1.066,-0.516 2.16,-1.141 2.965,-1.692 1.808,-1.226 2.55,-2.586 3.222,-4.207 0.992,-2.769 0.668,-6.508 -3.883,-9.504 -0.867,-0.59 -1.863,-1.152 -3.152,-1.695 -1.281,-0.547 -2.859,-1.066 -4.078,-1.422 -1.219,-0.355 -2.078,-0.539 -3.344,-0.801 -1.269,-0.269 -2.945,-0.609 -4.625,-0.879 -3.269,-0.523 -5.969,-0.66 -8.449,-0.828 -1.234,-0.097 -2.617,-0.242 -3.785,-0.343 -1.168,-0.102 -2.121,-0.168 -2.988,-0.223 -0.868,-0.055 -1.649,-0.106 -3.161,-0.141 -1.515,-0.035 -3.761,-0.054 -6.011,-0.054 l -60.223,-0.11 -0.059,27.262 52.485,-0.102 c 2.894,-0.004 5.789,-0.082 7.754,-0.082 1.961,0 2.992,0.028 4.187,-0.004" /><path
         id="path122"
         style="fill:#ffffff;fill-opacity:1;fill-rule:evenodd;stroke:none"
         d="m 1626.34,953.063 c -0.1,-0.2 -0.34,-0.301 -0.6,-0.399 -0.53,-0.309 -1.78,-0.223 -3.07,-0.168 -0.75,0.031 -1.47,0.043 -1.99,0.059 -0.77,0.058 -1.08,-0.075 -1.74,0.414 -0.2,0.242 -0.31,0.676 -0.01,1.101 1.07,0.504 1.8,0.364 3.09,0.535 0.61,0.047 1.3,0.071 1.96,-0.007 0.66,-0.075 1.29,-0.25 1.68,-0.395 0.69,-0.215 0.8,-0.672 0.68,-1.14" /><path
         id="path124"
         style="fill:#ffffff;fill-opacity:1;fill-rule:evenodd;stroke:none"
         d="m 1647.03,950.645 c -0.44,-0.403 -1.24,-0.79 -1.88,-0.934 -0.83,-0.086 -1.89,0.152 -2.9,0.137 -0.54,0.007 -1.09,-0.004 -1.49,0.136 -0.63,0.246 -1.03,0.864 -0.55,1.286 0.9,0.664 1.74,0.597 2.84,0.773 0.43,0.039 0.86,0.043 1.48,-0.012 0.63,-0.051 1.45,-0.152 1.9,-0.277 0.79,-0.207 0.77,-0.676 0.6,-1.109" /><path
         id="path126"
         style="fill:#ffffff;fill-opacity:1;fill-rule:evenodd;stroke:none"
         d="m 1617.26,950.629 c -0.1,-0.695 -1.05,-0.859 -1.85,-0.984 -0.51,-0.082 -1.05,-0.153 -1.75,-0.172 -0.7,-0.024 -1.55,0 -2.11,0.07 -1.3,0.125 -1.16,0.945 -1.14,1.363 0.07,0.125 0.23,0.274 0.39,0.418 0.17,0.141 0.36,0.278 0.96,0.36 0.61,0.082 1.64,0.113 2.4,0.066 0.76,-0.043 1.25,-0.164 1.69,-0.266 0.44,-0.093 0.81,-0.175 1.06,-0.308 0.25,-0.137 0.38,-0.324 0.35,-0.547" /><path
         id="path128"
         style="fill:#ed1c24;fill-opacity:1;fill-rule:evenodd;stroke:none"
         d="m 1752.45,948.52 c 0.71,-0.063 1.33,0.05 2,0.152 0.66,0.101 1.35,0.195 1.52,0.351 0.17,0.157 -0.18,0.379 -0.59,0.582 -0.41,0.208 -0.87,0.395 -1.58,0.481 -0.71,0.086 -1.66,0.07 -2.31,-0.078 -0.66,-0.156 -1.03,-0.445 -1.25,-0.836 0.72,-0.356 1.51,-0.59 2.21,-0.652" /><path
         id="path130"
         style="fill:#ed1c24;fill-opacity:1;fill-rule:evenodd;stroke:none"
         d="m 1773.26,948.867 c 0.48,0 1.04,-0.015 1.56,0.008 0.52,0.023 1,0.09 1.14,0.32 0.15,0.231 -0.05,0.625 -0.47,0.801 -0.42,0.176 -1.07,0.137 -1.69,0.113 -0.61,-0.019 -1.19,-0.015 -1.56,-0.101 -0.57,-0.164 -0.9,-0.547 -0.89,-0.813 0.31,-0.355 1.16,-0.336 1.91,-0.328" /><path
         id="path132"
         style="fill:#ed1c24;fill-opacity:1;fill-rule:evenodd;stroke:none"
         d="m 1529.12,944.738 c -1.61,-0.336 -3.33,-0.652 -4.61,-0.91 -1.29,-0.262 -2.14,-0.465 -3.27,-0.73 -1.14,-0.266 -2.55,-0.594 -3.67,-0.86 -2.27,-0.554 -4.08,-0.941 -6.39,-1.449 -1.18,-0.262 -2.33,-0.531 -3.86,-0.867 -1.52,-0.336 -3.41,-0.742 -4.96,-1.074 -3,-0.657 -5.01,-1.118 -7.46,-1.657 -6,-1.304 -12.21,-2.812 -17.93,-3.894 -2.4,-0.527 -5.07,-1.188 -7.49,-1.707 -1.11,-0.246 -2.16,-0.485 -3.34,-0.746 -1.19,-0.262 -2.51,-0.551 -3.53,-0.778 -1.02,-0.23 -1.74,-0.406 -2.46,-0.582 -7.09,0 -14.18,0.016 -19.7,0.047 -5.52,0.032 -9.47,0.078 -12.15,0.082 -2.67,0.008 -4.07,-0.023 -5.03,-0.027 -0.95,-0.004 -1.45,0.027 -3.36,0.059 -1.89,0.035 -5.18,0.07 -9.71,0.082 -4.52,0.019 -10.29,0.007 -16.32,0.007 -6.04,0.004 -12.36,0.012 -16.23,0.004 -3.87,-0.008 -5.29,-0.035 -6.13,-0.074 -1.62,-0.023 -1.56,-0.476 -2.25,-1.101 -0.3,-0.305 -0.62,-0.579 -1.59,-1.516 -0.97,-0.938 -2.59,-2.539 -3.98,-3.879 -1.4,-1.34 -2.56,-2.414 -3.51,-3.297 -0.94,-0.883 -1.66,-1.574 -2.02,-2.09 -0.36,-0.515 -0.35,-0.851 -0.18,-1.117 2.74,-0.586 4.94,-1.137 6.88,-1.57 2.07,-0.414 4.75,-0.953 7.39,-1.418 1.41,-0.238 2.82,-0.434 4.03,-0.617 1.21,-0.184 2.23,-0.356 3.71,-0.571 1.48,-0.218 3.43,-0.476 5.05,-0.691 3.37,-0.414 5.22,-0.715 7.6,-0.922 1.23,-0.098 2.64,-0.148 4.05,-0.262 1.4,-0.109 2.8,-0.285 4.53,-0.383 3.3,-0.16 8.45,-0.222 13.07,-0.335 2.2,-0.043 4.11,-0.043 6.38,-0.004 2.27,0.035 4.91,0.109 7.24,0.175 2.34,0.067 4.38,0.125 5.94,0.196 1.55,0.066 2.63,0.148 4.08,0.265 1.45,0.118 3.27,0.274 4.88,0.426 4.75,0.512 8.2,0.703 12.34,1.395 1.38,0.211 2.75,0.422 3.82,0.586 1.07,0.164 1.84,0.277 2.97,0.464 1.12,0.192 2.6,0.454 4.02,0.715 4.36,0.793 6.37,1.348 9.5,2.024 1.08,0.238 2.16,0.457 3.77,0.851 1.61,0.399 3.73,0.965 6.43,1.754 2.7,0.789 5.97,1.797 8.26,2.543 2.28,0.746 3.58,1.238 4.57,1.606 2.46,0.914 2.93,1.097 4.6,1.781 0.95,0.394 2.2,0.918 3.47,1.465 1.26,0.551 2.53,1.117 4.03,1.828 1.49,0.707 3.21,1.551 5.15,2.601 1.95,1.051 4.12,2.301 5.8,3.325 1.67,1.027 2.86,1.82 4.24,2.808 1.39,0.985 2.97,2.164 4.36,3.281 1.38,1.122 2.56,2.184 3.62,3.184 1.05,1.004 1.99,1.945 2.89,2.926 -0.98,-0.07 -1.95,-0.192 -3.18,-0.43 -1.24,-0.234 -2.75,-0.59 -4.36,-0.922" /><path
         id="path134"
         style="fill:#ffffff;fill-opacity:1;fill-rule:evenodd;stroke:none"
         d="m 1629.01,942.191 c 0.31,-0.152 0.56,-0.183 0.8,-0.238 0.24,-0.058 0.47,-0.152 1.85,-0.183 1.38,-0.036 3.92,-0.016 6.46,0.011 2.54,0.028 5.08,0.063 6.52,0.012 1.44,-0.055 1.78,-0.195 2.1,-0.352 0.31,-0.16 0.6,-0.339 0.82,-0.515 0.6,-0.356 0.41,-1.25 0.21,-2.145 -0.12,-0.523 -0.27,-1.004 -0.48,-1.304 -0.74,-0.75 -1.08,-0.551 -1.86,-0.641 -0.5,-0.016 -1.19,0.008 -1.83,-0.004 -1.49,0.039 -2.99,-0.496 -4.87,-0.519 -1.07,0 -2.22,0.21 -3.47,0.281 -1.25,0.07 -2.59,0 -3.34,-0.047 -1.39,-0.094 -1.18,-0.164 -1.69,-0.078 -0.72,0.234 -1.3,0.668 -1.71,1.426 -0.48,0.882 -1.13,1.027 -1.88,1.136 -0.76,0.16 -2.44,0.227 -4,0.293 -0.76,0.039 -1.32,0.098 -1.69,0.207 -1.18,0.528 -1.19,1.371 -1.37,2.157 0.04,0.515 0.29,1.136 0.72,1.714 0.19,0.211 0.43,0.364 0.72,0.489 0.56,0.3 2.11,0.351 3.59,0.25 0.84,-0.063 1.6,-0.188 2.15,-0.407 0.97,-0.39 1.51,-1.187 2.25,-1.543" /><path
         id="path136"
         style="fill:#ffffff;fill-opacity:1;fill-rule:evenodd;stroke:none"
         d="m 1062.6,937.605 c -0.08,-1.378 -0.62,-3.242 -1.55,-5.113 -0.43,-0.855 -0.89,-1.531 -1.5,-2.34 -0.62,-0.804 -1.4,-1.738 -2.19,-2.504 -2.61,-2.378 -5.37,-3.929 -8.04,-5.082 -1.03,-0.457 -2.14,-0.941 -3.8,-1.476 -1.66,-0.531 -3.87,-1.117 -5.7,-1.535 -1.83,-0.418 -3.28,-0.672 -4.77,-0.891 -1.48,-0.223 -3,-0.418 -4.13,-0.543 -1.14,-0.125 -1.9,-0.187 -3.09,-0.277 -2.53,-0.172 -6.64,-0.477 -10.27,-0.543 -1.9,-0.028 -3.74,0.015 -5.43,0.074 -3.08,0.109 -5.37,0.281 -7.43,0.43 -0.96,0.058 -2.01,0.109 -3.4,0.242 -1.39,0.129 -3.112,0.34 -4.534,0.586 -1.422,0.242 -2.539,0.519 -3.844,0.863 -1.301,0.34 -2.793,0.746 -4.094,1.188 -1.297,0.441 -2.41,0.91 -3.363,1.546 -0.953,0.641 -1.75,1.45 -2.223,2.02 -0.937,1.246 -0.949,1.484 -1.023,2.207 0.011,0.379 0.156,0.848 0.289,1.332 0.129,0.481 0.242,0.981 0.668,1.625 0.429,0.649 1.176,1.441 1.937,2.074 0.766,0.633 1.551,1.098 2.524,1.59 2.832,1.594 7.437,2.371 10.953,3.168 1.203,0.227 2.46,0.414 3.99,0.645 1.53,0.23 3.33,0.504 4.67,0.664 1.33,0.16 2.19,0.207 3.52,0.336 1.34,0.129 3.14,0.339 4.53,0.472 3.05,0.27 3.81,0.278 5.54,0.481 0.94,0.101 2.16,0.238 4.03,0.426 1.87,0.187 4.4,0.425 6.06,0.582 1.68,0.156 2.49,0.234 3.34,0.296 0.86,0.063 1.76,0.102 2.69,0.196 0.93,0.094 1.89,0.234 3.05,0.344 1.15,0.105 2.51,0.183 3.92,0.324 2.64,0.273 6.29,0.832 9.75,1.32 1.62,0.242 2.99,0.457 4.06,0.629 1.07,0.172 1.84,0.301 2.4,0.363 0.57,0.063 0.93,0.055 1.27,0.043 0.34,-0.012 0.64,-0.031 0.83,-0.097 0.18,-0.071 0.24,-0.184 0.3,-0.313 0.23,-0.234 0.22,-1.621 0.19,-2.941 -0.02,-0.832 -0.06,-1.649 -0.13,-2.411" /><path
         id="path138"
         style="fill:#ed1c24;fill-opacity:1;fill-rule:evenodd;stroke:none"
         d="m 1750.04,941.215 c 1.62,-0.332 4.15,-0.184 6.66,-0.125 1.28,0.019 2.4,-0.016 3.7,-0.035 1.31,-0.02 2.8,-0.028 3.78,0 0.97,0.023 1.43,0.078 1.69,0.281 0.26,0.207 0.31,0.562 0.2,0.836 -2.23,0.383 -4.9,0.035 -7.47,-0.152 -2.24,-0.09 -3.99,0.289 -5.68,0.355 -0.77,0.027 -1.56,-0.004 -2.08,-0.199 -0.52,-0.199 -0.76,-0.563 -0.8,-0.961" /><path
         id="path140"
         style="fill:#ffffff;fill-opacity:1;fill-rule:evenodd;stroke:none"
         d="m 1677.79,937.969 c 0.04,-0.406 0.01,-1.063 0.03,-1.703 0.02,-0.637 0.07,-1.25 0.13,-2.383 0.05,-1.133 0.11,-2.778 0.15,-3.688 0.1,-1.601 0.05,-1.304 0.22,-1.847 0.78,-1.102 1.81,-0.879 2.93,-1.379 0.75,-0.274 2.05,-0.231 3.47,-0.223 1.46,0.016 2.82,-0.027 3.98,0.977 0.5,0.398 1.01,0.925 1.87,1.289 0.87,0.359 2.09,0.562 2.86,0.656 1.45,0.137 1.51,0.117 2.17,0.016 0.43,-0.137 1.05,-0.434 1.77,-0.899 0.46,-0.488 0.63,-1.055 -0.27,-1.574 -0.87,-0.824 -2.87,-0.438 -4.69,-0.305 -1.61,0.293 -3,0.434 -4.22,-1.238 -1.44,-1.453 -2.08,-1.574 -3.45,-1.473 -1.78,0.215 -3.22,0.075 -4.83,1.121 -1.06,0.625 -2.09,0.914 -3.37,1.063 -1.49,0.223 -3.1,0.062 -4.58,0.363 -1.49,0.289 -2.76,1.422 -3.95,1.942 -1.31,0.429 -2.76,0.203 -4.22,0.418 -0.78,0.089 -1.61,0.246 -2.26,0.507 -2.17,1.036 -1.93,1.778 -1.9,2.774 0.1,1.172 1.01,1.359 1.9,1.695 1.78,0.488 3.31,0.633 4.77,0.594 0.83,0.086 1.62,-0.078 2.34,0.785 0.77,0.781 0.31,1.754 0.57,2.918 0.28,0.891 0.97,0.969 1.74,1.137 0.5,0.082 1.06,0.105 1.93,0.093 0.87,-0.011 2.05,-0.054 2.75,-0.097 1.32,-0.141 1.35,-0.07 1.95,-0.836 0.09,-0.145 0.18,-0.301 0.21,-0.703" /><path
         id="path142"
         style="fill:#ffffff;fill-opacity:1;fill-rule:evenodd;stroke:none"
         d="m 1607.3,937.133 c 0.07,-0.578 0.19,-1.524 -0.34,-2.301 -0.5,-0.738 -1.98,-0.887 -3.2,-0.773 -0.62,0.035 -1.13,0.089 -1.76,0.125 -0.61,0.035 -1.34,0.05 -1.77,0.16 -0.94,0.269 -0.59,1.074 -0.64,1.804 0.07,0.665 -0.1,1.329 0.56,2.106 0.87,0.555 1.18,0.476 2.07,0.574 0.58,0.035 1.41,0.043 2.17,-0.004 0.75,-0.051 1.45,-0.152 1.87,-0.316 0.95,-0.508 0.87,-0.86 1.04,-1.375" /><path
         id="path144"
         style="fill:#ffffff;fill-opacity:1;fill-rule:evenodd;stroke:none"
         d="m 1575.7,936.016 c 0.48,-0.164 1.04,-0.325 1.66,-0.953 0.34,-0.618 0.93,-2.348 -0.41,-3.434 -0.19,-0.137 -0.41,-0.266 -1.02,-0.316 -1.11,-0.083 -3.61,0.003 -5.58,-0.016 -0.89,0.004 -1.62,0.012 -2.16,0.09 -1.53,0.218 -1.48,1.109 -1.04,1.773 0.22,0.356 0.78,0.719 1.29,1.27 0.55,0.789 1.04,1.14 1.68,1.316 0.34,0.125 0.7,0.25 1.3,0.301 0.61,0.051 1.46,0.027 2.06,0.016 1.09,-0.047 1.51,0.074 2.22,-0.047" /><path
         id="path146"
         style="fill:#ffffff;fill-opacity:1;fill-rule:evenodd;stroke:none"
         d="m 1597.84,930.582 c -0.03,-0.797 -0.01,-2.027 -0.08,-2.766 -0.07,-0.738 -0.22,-0.98 -0.65,-1.152 -1.12,-0.258 -3.36,-1.051 -5.11,-0.434 -0.71,0.215 -1.32,0.426 -1.82,0.676 -0.14,1.547 -0.11,3.129 0.02,4.137 0.14,1.008 0.37,1.434 0.76,1.758 0.87,0.746 2.57,0.965 4.2,1.086 0.92,0.062 1.84,0.051 2.37,-0.074 1.12,-0.309 0.6,-1.055 0.5,-1.7 -0.09,-0.363 -0.16,-0.73 -0.19,-1.531" /><path
         id="path148"
         style="fill:#ffffff;fill-opacity:1;fill-rule:evenodd;stroke:none"
         d="m 1628.23,932.703 c 0.31,-0.32 0.5,-0.621 0.64,-0.945 -0.66,-0.153 -1.33,-0.235 -2.53,-0.278 -1.2,-0.039 -2.93,-0.031 -3.99,0.083 -1.06,0.117 -1.47,0.343 -1.73,0.566 -0.43,0.336 -0.54,0.867 0.35,1.445 0.95,0.426 1.59,0.297 2.4,0.317 0.87,-0.02 2.37,0.132 3.63,-0.317 0.52,-0.207 0.93,-0.551 1.23,-0.871" /><path
         id="path150"
         style="fill:#ffffff;fill-opacity:1;fill-rule:evenodd;stroke:none"
         d="m 1637.14,931.184 c 0.84,-0.364 0.93,-0.692 0.91,-1.141 -0.05,-0.289 -0.28,-0.641 -0.72,-0.848 -0.79,-0.39 -3.08,-0.347 -5,-0.152 -0.93,0.113 -1.63,0.316 -2.12,0.594 -0.76,0.472 -1.08,1.093 -1.04,1.535 0.42,0.148 0.86,0.246 1.41,0.297 0.56,0.054 1.23,0.054 2.12,0.043 0.88,-0.012 1.96,-0.032 2.76,-0.082 0.81,-0.051 1.33,-0.125 1.68,-0.246" /><path
         id="path152"
         style="fill:#ed1c24;fill-opacity:1;fill-rule:evenodd;stroke:none"
         d="m 1771.11,926.996 c 0.26,-0.773 0.86,-1.07 1.33,-1.281 1.13,-0.735 3.24,-0.227 4.89,0.144 0.43,0.098 0.87,0.184 1.14,0.332 0.58,0.372 0.48,0.938 0.44,1.497 -0.13,1.125 -0.83,1.136 -1.5,1.265 -0.45,0.067 -0.91,0.117 -1.5,0.219 -0.59,0.098 -1.32,0.242 -1.78,0.312 -0.84,0.094 -1.03,0.106 -1.53,0.012 -0.35,-0.148 -0.79,-0.402 -1.24,-0.707 -0.36,-0.277 -0.45,-1.086 -0.25,-1.793" /><path
         id="path154"
         style="fill:#ffffff;fill-opacity:1;fill-rule:evenodd;stroke:none"
         d="m 1617.94,926.934 c 0.11,-0.543 0.06,-1.164 0.24,-1.629 0.17,-0.465 0.57,-0.774 1.22,-1.008 0.64,-0.238 1.53,-0.406 2.49,-0.492 0.97,-0.082 2.02,-0.086 2.85,-0.129 1.26,-0.094 1.97,-0.149 2.72,-0.559 0.73,-0.441 0.81,-0.898 1,-1.59 0.1,-0.449 0.18,-1 0.13,-1.449 -0.05,-0.449 -0.24,-0.793 -0.45,-1.023 -0.21,-0.231 -0.44,-0.344 -1.19,-0.387 -1.49,-0.059 -4.55,0.02 -6.92,-0.098 -1.17,-0.043 -2.25,-0.086 -3.47,-0.093 -1.22,-0.004 -2.57,0.023 -3.4,0.07 -1.43,0.109 -1.55,0.121 -2.18,0.508 -0.97,0.996 -1.19,1.992 -1.13,3.191 -0.02,0.484 -0.08,0.984 -0.08,1.848 -0.01,0.855 0.06,2.074 0.16,2.793 0.09,0.718 0.22,0.945 0.41,1.105 0.77,0.481 1.09,0.438 1.92,0.594 0.55,0.086 1.31,0.176 2.18,0.148 0.87,-0.027 1.85,-0.183 2.47,-0.488 0.63,-0.308 0.91,-0.773 1.03,-1.312" /><path
         id="path156"
         style="fill:#ffffff;fill-opacity:1;fill-rule:evenodd;stroke:none"
         d="m 1579.42,926.332 c 1.68,-0.641 3.76,-0.207 5.96,-0.461 0.58,-0.051 1.08,-0.105 1.47,-0.234 1,-0.367 1.48,-1.129 0.47,-1.887 -0.23,-0.164 -0.48,-0.297 -1.78,-0.348 -1.29,-0.05 -3.63,-0.023 -5.96,-0.027 -2.32,-0.008 -4.63,-0.043 -5.95,0.02 -1.32,0.058 -1.65,0.218 -1.94,0.382 -0.74,0.352 -1.05,0.961 -1.31,1.582 -0.59,1 -0.34,1.813 0.81,2.61 0.51,0.469 1.92,0.445 3.32,0.406 0.83,-0.023 1.63,-0.055 2.23,-0.242 1.42,-0.567 1.71,-1.449 2.68,-1.801" /><path
         id="path158"
         style="fill:#ffffff;fill-opacity:1;fill-rule:evenodd;stroke:none"
         d="m 1587.91,919.867 c 0.14,-0.679 0.66,-2.179 0.85,-3.179 0.11,-0.516 -0.13,-1.192 -0.59,-1.864 -0.38,-0.605 -0.82,-1.054 -1.18,-1.211 -0.28,-0.34 -1.38,-0.324 -2.47,-0.297 -0.67,0.02 -1.32,0.039 -1.88,0.145 -0.55,0.113 -0.99,0.309 -1.28,0.5 -0.98,0.617 -0.28,1.906 -1.28,3.004 -0.33,0.371 -0.84,0.73 -1.79,0.945 -0.96,0.215 -2.36,0.289 -3.47,0.367 -1.12,0.075 -1.96,0.153 -2.46,0.223 -0.51,0.07 -0.68,0.125 -0.87,0.211 -0.44,0.109 -0.48,0.68 0.04,1.187 0.44,0.528 1.51,0.325 2.59,0.372 1.22,0.031 2.96,0.175 4.71,0.3 3.01,0.239 5.17,0.727 7.36,0.075 0.4,-0.075 0.8,-0.161 1.1,-0.266 0.3,-0.102 0.5,-0.223 0.62,-0.512" /><path
         id="path160"
         style="fill:#ffffff;fill-opacity:1;fill-rule:evenodd;stroke:none"
         d="m 1658.65,917.199 c -0.1,-1.054 0.77,-1.918 -0.85,-3.179 -0.82,-0.395 -1.71,-0.325 -2.73,-0.293 -0.62,0.027 -1.36,0.066 -1.94,0.136 -0.97,0.164 -1.59,0.082 -2.25,1.52 -0.24,0.562 -0.45,1.344 -0.56,2.137 0.9,1.808 3.74,1.57 5.93,1.554 0.58,-0.035 1.13,-0.117 1.49,-0.277 0.76,-0.356 0.81,-1.012 0.91,-1.598" /><path
         id="path162"
         style="fill:#ffffff;fill-opacity:1;fill-rule:evenodd;stroke:none"
         d="m 1638.54,917.594 c 0.65,-0.524 0.44,-1.199 0.26,-1.973 -0.2,-0.68 -0.18,-1.32 -0.94,-1.851 -1.24,-0.891 -3.58,-0.868 -5.5,-0.278 -0.79,0.227 -1.55,0.09 -2.16,1.219 -0.42,0.613 -0.71,1.477 -0.41,2.324 0.15,0.41 0.44,0.77 1.04,0.981 0.61,0.207 1.53,0.273 2.71,0.297 1.19,0.023 2.64,0.003 3.53,-0.122 0.89,-0.128 1.22,-0.367 1.47,-0.597" /><path
         id="path164"
         style="fill:#ed1c24;fill-opacity:1;fill-rule:evenodd;stroke:none"
         d="m 1790.97,914.641 c 0.15,-0.664 0.52,-1.161 1.16,-1.528 0.41,-0.39 1.22,-0.441 2.05,-0.383 0.48,0.028 0.93,0.059 1.63,0.192 0.69,0.125 1.62,0.351 2.13,0.543 0.51,0.191 0.58,0.355 0.68,0.508 0.34,0.425 0.34,1.093 -0.51,2.168 -0.79,0.523 -0.93,0.613 -1.65,0.738 -0.48,0.059 -1.17,0.039 -1.86,0.043 -0.69,0 -1.39,0.023 -1.85,-0.043 -0.75,-0.152 -1.05,-0.289 -1.59,-1.012 -0.17,-0.32 -0.27,-0.797 -0.19,-1.226" /><path
         id="path166"
         style="fill:#ed1c24;fill-opacity:1;fill-rule:evenodd;stroke:none"
         d="m 1828.57,911.734 c -0.04,-0.656 0.7,-1.714 1.5,-1.875 0.56,-0.312 1.97,-0.324 3.27,-0.101 0.62,0.094 1.07,0.211 1.5,0.332 0.43,0.113 0.84,0.234 1.1,0.394 0.68,0.446 0.52,1.329 0.22,1.985 -0.23,0.621 -1.11,0.672 -1.96,0.789 -0.51,0.07 -1.02,0.164 -1.66,0.265 -0.65,0.098 -1.43,0.204 -1.95,0.188 -0.51,-0.016 -0.77,-0.152 -1.03,-0.281 -1.32,-0.528 -0.85,-1.075 -0.99,-1.696" /><path
         id="path168"
         style="fill:#ffffff;fill-opacity:1;fill-rule:evenodd;stroke:none"
         d="m 1608.36,912.156 c -0.77,-1.468 -1.51,-1.156 -2.61,-1.215 -0.89,-0.074 -1.76,-0.125 -2.68,0.012 -0.47,0.055 -0.93,0.117 -1.2,0.227 -0.64,0.48 -0.86,0.82 -0.23,1.328 0.2,0.168 0.43,0.32 0.88,0.437 0.46,0.118 1.14,0.203 2.02,0.196 0.86,-0.012 1.91,-0.121 2.6,-0.286 0.68,-0.164 1,-0.386 1.22,-0.699" /><path
         id="path170"
         style="fill:#ed1c24;fill-opacity:1;fill-rule:evenodd;stroke:none"
         d="m 1781.32,909.379 c 0.11,-0.356 0.45,-0.961 1.23,-1.496 0.77,-0.434 0.91,-0.617 1.54,-0.625 0.73,0.066 2.05,0.437 3.14,0.531 0.79,0.152 1.36,0.035 1.98,1.031 0.78,0.746 -0.19,1.891 -0.84,2.262 -0.4,0.367 -1.62,0.297 -2.85,0.313 -0.76,0.003 -1.53,0.039 -2.05,-0.047 -0.8,-0.145 -1.14,-0.512 -1.8,-1.043 -0.37,-0.508 -0.4,-0.555 -0.35,-0.926" /><path
         id="path172"
         style="fill:#ed1c24;fill-opacity:1;fill-rule:evenodd;stroke:none"
         d="m 1764.15,907.332 c 0.28,0.016 0.62,0.133 0.98,0.25 0.37,0.121 0.76,0.246 0.92,0.383 0.23,0.445 -0.26,0.523 -0.52,0.648 -0.87,0.219 -1.22,0.457 -2.05,-0.113 -0.51,-0.258 -0.59,-0.602 -0.05,-0.945 0.21,-0.141 0.44,-0.235 0.72,-0.223" /><path
         id="path174"
         style="fill:#ffffff;fill-opacity:1;fill-rule:evenodd;stroke:none"
         d="m 1688.29,905.102 c 0.22,-0.418 0.14,-0.723 -0.33,-1.106 -0.67,-0.609 -2.51,-0.551 -4.1,-0.359 -0.89,0.07 -1.75,0.086 -3.2,-0.102 -1.45,-0.187 -3.5,-0.578 -5.09,-0.574 -1.58,0.012 -2.71,0.414 -3.34,0.703 -1.13,0.559 -1.01,0.805 -1.08,1.195 0.03,0.18 0.2,0.364 0.39,0.543 0.19,0.184 0.39,0.36 1.03,0.473 0.64,0.113 1.7,0.164 2.46,0.141 1.46,-0.121 2.02,-0.121 2.98,0.097 0.45,0.075 0.91,0.106 1.72,0.125 0.81,0.016 1.96,0.02 3.13,-0.004 1.17,-0.023 2.36,-0.07 3.14,-0.168 0.77,-0.097 1.14,-0.242 1.48,-0.418 0.34,-0.168 0.66,-0.363 0.81,-0.546" /><path
         id="path176"
         style="fill:#ed1c24;fill-opacity:1;fill-rule:evenodd;stroke:none"
         d="m 1797.75,902.938 c 0.15,-0.415 0.2,-0.758 0.66,-1.184 0.7,-0.379 1.49,-0.301 2.45,-0.262 0.6,0.031 1.34,0.086 2.04,0.141 1.06,0.101 1.9,0.094 2.66,0.433 0.44,0.133 0.78,0.504 1.14,1.059 0.39,0.672 1.19,0.797 1.99,0.973 0.96,0.297 2.07,0.465 3.29,0.55 0.66,0.067 1.31,0.153 1.43,0.262 0.11,0.11 -0.32,0.242 -0.78,0.301 -0.45,0.055 -0.95,0.031 -1.62,0.066 -0.68,0.032 -1.53,0.114 -2.6,0.153 -1.07,0.035 -2.36,0.023 -3.66,0.019 -1.3,-0.004 -2.61,0.004 -3.63,-0.008 -1.03,-0.011 -1.75,-0.035 -2.2,-0.078 -0.67,-0.125 -0.76,0.035 -1.17,-0.597 -0.13,-0.379 -0.14,-1.172 0,-1.828" /><path
         id="path178"
         style="fill:#ffffff;fill-opacity:1;fill-rule:evenodd;stroke:none"
         d="m 1597.46,903.984 c -0.05,-0.187 -0.27,-0.371 -0.5,-0.531 -0.5,-0.457 -1.46,-0.441 -2.47,-0.41 -0.58,0.02 -1.14,0.031 -1.59,0.148 -0.87,0.231 -1.4,0.793 -0.88,1.215 0.66,0.446 1.86,0.828 2.92,0.809 0.61,-0.02 1.3,-0.195 1.7,-0.324 0.8,-0.27 0.82,-0.555 0.82,-0.907" /><path
         id="path180"
         style="fill:#ed1c24;fill-opacity:1;fill-rule:evenodd;stroke:none"
         d="m 1704.03,900.727 c -1.1,-0.028 -2.03,-0.02 -2.62,-0.102 -1.42,-0.207 -1.09,-1.172 -1.26,-2.027 -0.06,-0.782 -0.19,-1.422 -0.25,-2.094 0.03,-0.172 0.15,-0.309 0.96,-0.363 0.81,-0.051 2.3,-0.02 3.66,-0.004 1.36,0.015 2.58,0.008 3.36,0.011 1.26,0.04 1.54,-0.058 2.17,0.387 0.4,0.309 0.41,1.024 1.16,1.664 0.33,0.215 0.84,0.336 1.35,0.442 0.87,0.199 2.56,0.433 4.17,0.554 0.71,0.051 1.17,0.059 1.4,0.246 0.24,0.192 0.25,0.567 -0.09,0.774 -0.34,0.211 -1.04,0.254 -1.93,0.344 -0.88,0.093 -1.97,0.234 -3.06,0.339 -1.09,0.11 -2.17,0.184 -3.08,0.176 -0.9,-0.008 -1.62,-0.101 -2.61,-0.179 -0.99,-0.079 -2.24,-0.145 -3.33,-0.168" /><path
         id="path182"
         style="fill:#ed1c24;fill-opacity:1;fill-rule:evenodd;stroke:none"
         d="m 1719.58,899.488 c 0.58,-0.175 1.77,-0.191 2.98,-0.195 1.22,-0.008 2.47,0 3.45,-0.004 0.98,-0.004 1.69,-0.016 2.2,0.117 0.51,0.129 0.81,0.399 0.98,0.746 -0.68,0.571 -1.5,0.254 -2.54,0.176 -0.64,-0.058 -1.4,-0.074 -2.23,0.012 -0.84,0.086 -1.76,0.269 -2.44,0.308 -0.69,0.036 -1.14,-0.074 -1.59,-0.152 -0.46,-0.074 -0.92,-0.113 -1.16,-0.305 -0.23,-0.187 -0.24,-0.523 0.35,-0.703" /></g></g></svg>