<svg id="Layer_1" xmlns="http://www.w3.org/2000/svg" xmlns:xlink="http://www.w3.org/1999/xlink" viewBox="0 0 150 150" style="enable-background:new 0 0 150 150"><style>.st0{fill:#6dccb0}</style><g><path class="st0" d="M47.8 79l-4.3 3.6c0 0 0 0-.1-.1.0.0-.7-1.4.1-2.5.7-1.2 2.1-1.7 3.6-1.4C47.1 78.7 47.6 78.8 47.8 79M27 90.5l9.7-6.4c0 0 1.1 2.8 3.3 4.1L27 90.5zM62.7 82.6v0c.3.8.8 1.1.9 1.1l-7 1.3 8.7-7.9.5.8c0 0 1.3 2.3-1.6 2.8C63.4 81 62.5 81.3 62.7 82.6M84.1 74.8c0 0-.1.4-.1.9-.2 1.4-.7 4.4-.7 4.4-2.8.6-5.4 1.1-7.8 1.5.0.0.4-1 .7-1.6C76.1 80 82.7 75.7 84.1 74.8M92.7 78.3l-2.3.4c0-.1.3-1.4.3-1.6C90.8 77.1 91.8 78.2 92.7 78.3M97.1 73.4c-.5.7-1.3 1-2.2.9-1.1-.1-2-.9-2.5-2-.4-1-.3-2.4.5-3.1.8-.6 2.2-.6 3.1.0.9.6 1.4 1.7 1.4 1.7C97.7 71.6 97.6 72.8 97.1 73.4M103.9 76.3c0-.1 1.3-.8 1.9-2.5.0.0 5.8-3.9 5.8-3.9s1.3 3.5 3.1 4.4L103.9 76.3v0zM122.8 69c-.6.6-1.4.8-2.3.5-.7-.2-1.5-.7-1.8-1.6l-.1-.3c-.2-.7-.2-1.7.4-2.2.6-.6 1.7-.8 2.6-.4.6.3 1.2.9 1.4 1.5C123.5 67.4 123.3 68.5 122.8 69M129.4 70.1c0 0 1.1 1 1.6 1.2l-2.4.5C129.2 70.9 129.4 70.1 129.4 70.1M148.8 70.8c-.6-.7-1.2-1.6-1.6-2.4l-.1-.1c0 0-.2-.2-.4-.1h-.1c-.5.2-1.9.6-2.1.6.0.0-1.3-.8-1.3-.8-.8-.5-1.7-1.1-2.6-1.5l-.2-.1-.2.1c-.1.1-.2.2-.3.3-.5.5-1.1.7-1.1.7-.9.3-1.7-.3-1.7-.3-1.3-.7-1.2-2.3-1.2-2.3l1.3-5.7v-.1c0 0 .1-.5-.2-.5h-.2c-1.6.1-3.3.1-5 .1h-1.9c0 0-1 .2-1 1.2.0.1-.1.3-.1.4v0c-1.2-.7-2.4-1.3-3.8-1.6-7.1-2.2-11.6 4.5-11.6 4.5-.3.4-.6.8-.8 1.2-.6 1-1 1.3-1 1.3-.3.2-5.6 3.5-5.6 3.5.0.0-1.3-4.6-5.8-6-5-1.3-10.2.2-14.7 4.4l-.1.1v.1c-.1.3-.4 1.8-.4 1.8-1.3.9-2.7 1.9-4 2.8-1.6 1.2-5.1 3.5-5.1 3.5.0.0-.9-4.2-4.1-7-.4-.3-1.2-.9-1.9-1h-.1l-.1.1c0 0-17.8 15.6-17.8 15.6C50.1 84.7 48 84 48 84l6.9-6.1c0 0 .5-.4.5-.4l.2-.2-.1-.2c-.5-.9-1-1.9-1.6-2.7-2.1-3-6.4-4.2-10.3-3-3.8 1.2-6.3 4.9-7 8.2.0.0-14.8 9.8-14.8 9.7.1-2.3.5-4.5 1.3-6.5 2.1-5.4 7.9-9.6 13.2-9.5h.1c.2.0.4-.2.5-.3.1-.2.1-.4.0-.7v-.1c-1.6-2-3-4.2-4.5-7.1L32 65h-.2c-2.3.4-4.5 1.8-5.9 3-5.6 4.7-8.7 11.3-9 19.6.0.3-4.1-7.2-5.1-12.2-1.1-4.8.2-10.3 3.2-14 .3-.4.6-.8 1-1.2.4-.5.9-1 1.2-1.6l.1-.2-.2-.2c-2.5-2.7-4.1-5-5-7.2-.1-.3-.2-.5-.3-.8-.1-.4-.3-.8-.5-1.2l-.1-.2-.3.1c-1 .4-2 1.1-3 2-4.6 4.3-6.7 9.6-6.4 15.5C2 75.4 6.6 84 15.2 92.6l-8.1 1.6h-.2v.2c-.5 1.8-1.4 3.5-2.9 5.2v0 0c-.1.1-.2.3-.2.6.0.1.1.2.3.3h.1.1l78.1-15.4-.5 3.3.4-.1c1.5-.2 2.9-.5 4.3-.8l1.9-.4L89 87l.1-.3.6-3 58.7-11.6h.1.2c.5-.1.3-1 .3-1L148.8 70.8v0zM144.9 61v-1h.5c.5.0.7.2.7.5.0.3-.2.5-.6.5H144.9zM145.9 61.3c.4-.1.8-.3.8-.8.0-.7-.7-.9-1.3-.9h-1.1v2.9h.6v-1.1h.4l.8 1.1h.8L145.9 61.3v0z"/><path class="st0" d="M145.5 63.6c1.4.0 2.5-1.1 2.5-2.5.0-1.4-1.1-2.5-2.5-2.5-1.4.0-2.5 1.1-2.5 2.5C143 62.4 144.1 63.6 145.5 63.6M143.3 61c0-1.2 1-2.2 2.2-2.2 1.2.0 2.2 1 2.2 2.2.0 1.2-1 2.2-2.2 2.2C144.2 63.3 143.3 62.3 143.3 61"/></g></svg>