<svg width="38" height="16" viewBox="0 0 38 16" fill="none" xmlns="http://www.w3.org/2000/svg">
<path d="M35.7514 14.0936H2.24861C1.68907 14.0936 1.19946 13.617 1.19946 13.0723V4.01702C1.19946 3.47233 1.68907 2.99574 2.24861 2.99574H35.7514C36.311 2.99574 36.8006 3.47233 36.8006 4.01702V13.0723C36.8006 13.617 36.311 14.0936 35.7514 14.0936Z" fill="#393B3D"/>
<path d="M36.5907 16H1.40926C0.91966 16 0.5 15.5915 0.5 15.1149V0.817021C0.5 0.408511 0.91966 0 1.40926 0H36.5907C37.0803 0 37.5 0.408511 37.5 0.885106V15.183C37.5 15.5915 37.0803 16 36.5907 16ZM1.40926 0.27234C1.05955 0.27234 0.779773 0.544681 0.779773 0.885106V15.183C0.779773 15.5234 1.05955 15.7957 1.40926 15.7957H36.5907C36.9404 15.7957 37.2202 15.5234 37.2202 15.183V0.885106C37.2202 0.544681 36.9404 0.27234 36.5907 0.27234H1.40926Z" fill="#393B3D"/>
<path d="M9.03722 11.766C8.98922 11.766 8.95722 11.7446 8.94122 11.702L8.65322 10.766C8.64789 10.75 8.63722 10.742 8.62122 10.742H6.37322C6.35722 10.742 6.34655 10.75 6.34122 10.766L6.05322 11.702C6.03722 11.7446 6.00522 11.766 5.95722 11.766H5.30922C5.25055 11.766 5.22922 11.7366 5.24522 11.678L6.99722 6.22995C7.01322 6.18729 7.04522 6.16595 7.09322 6.16595H7.89322C7.94122 6.16595 7.97322 6.18729 7.98922 6.22995L9.75722 11.678L9.76522 11.71C9.76522 11.7473 9.74122 11.766 9.69322 11.766H9.03722ZM6.54122 10.094C6.53589 10.1046 6.53589 10.1153 6.54122 10.126C6.55189 10.1313 6.56255 10.134 6.57322 10.134H8.41322C8.42389 10.134 8.43189 10.1313 8.43722 10.126C8.44789 10.1153 8.45055 10.1046 8.44522 10.094L7.51722 7.12595C7.51189 7.11529 7.50389 7.10995 7.49322 7.10995C7.48255 7.10995 7.47455 7.11529 7.46922 7.12595L6.54122 10.094ZM13.7563 11.766C13.7083 11.766 13.6763 11.7446 13.6603 11.702L13.3723 10.766C13.3669 10.75 13.3563 10.742 13.3403 10.742H11.0923C11.0763 10.742 11.0656 10.75 11.0603 10.766L10.7723 11.702C10.7563 11.7446 10.7243 11.766 10.6763 11.766H10.0283C9.96962 11.766 9.94828 11.7366 9.96428 11.678L11.7163 6.22995C11.7323 6.18729 11.7643 6.16595 11.8123 6.16595H12.6123C12.6603 6.16595 12.6923 6.18729 12.7083 6.22995L14.4763 11.678L14.4843 11.71C14.4843 11.7473 14.4603 11.766 14.4123 11.766H13.7563ZM11.2603 10.094C11.2549 10.1046 11.2549 10.1153 11.2603 10.126C11.2709 10.1313 11.2816 10.134 11.2923 10.134H13.1323C13.1429 10.134 13.1509 10.1313 13.1563 10.126C13.1669 10.1153 13.1696 10.1046 13.1643 10.094L12.2363 7.12595C12.2309 7.11529 12.2229 7.10995 12.2123 7.10995C12.2016 7.10995 12.1936 7.11529 12.1883 7.12595L11.2603 10.094ZM18.4753 11.766C18.4273 11.766 18.3953 11.7446 18.3793 11.702L18.0913 10.766C18.086 10.75 18.0753 10.742 18.0593 10.742H15.8113C15.7953 10.742 15.7847 10.75 15.7793 10.766L15.4913 11.702C15.4753 11.7446 15.4433 11.766 15.3953 11.766H14.7473C14.6887 11.766 14.6673 11.7366 14.6833 11.678L16.4353 6.22995C16.4513 6.18729 16.4833 6.16595 16.5313 6.16595H17.3313C17.3793 6.16595 17.4113 6.18729 17.4273 6.22995L19.1953 11.678L19.2033 11.71C19.2033 11.7473 19.1793 11.766 19.1313 11.766H18.4753ZM15.9793 10.094C15.974 10.1046 15.974 10.1153 15.9793 10.126C15.99 10.1313 16.0007 10.134 16.0113 10.134H17.8513C17.862 10.134 17.87 10.1313 17.8753 10.126C17.886 10.1153 17.8887 10.1046 17.8833 10.094L16.9553 7.12595C16.95 7.11529 16.942 7.10995 16.9313 7.10995C16.9207 7.10995 16.9127 7.11529 16.9073 7.12595L15.9793 10.094ZM24.044 7.14995C24.124 7.37395 24.164 7.63262 24.164 7.92595V10.39C24.164 10.8273 24.012 11.1766 23.708 11.438C23.404 11.6993 23.0066 11.83 22.516 11.83C22.2013 11.83 21.9213 11.7713 21.676 11.654C21.436 11.5366 21.2493 11.374 21.116 11.166C20.9826 10.9526 20.916 10.71 20.916 10.438V10.278C20.916 10.2246 20.9426 10.198 20.996 10.198H21.604C21.6573 10.198 21.684 10.2246 21.684 10.278V10.35C21.684 10.59 21.7613 10.7846 21.916 10.934C22.0706 11.0833 22.2706 11.158 22.516 11.158C22.772 11.158 22.9826 11.0806 23.148 10.926C23.3133 10.7713 23.396 10.566 23.396 10.31V9.30195C23.396 9.29129 23.3906 9.28329 23.38 9.27795C23.3746 9.27262 23.3666 9.27529 23.356 9.28595C23.1266 9.54729 22.7933 9.67795 22.356 9.67795C22.0413 9.67795 21.7693 9.61395 21.54 9.48595C21.316 9.35795 21.14 9.17129 21.012 8.92595C20.8626 8.64329 20.788 8.30462 20.788 7.90995C20.788 7.58995 20.8386 7.30462 20.94 7.05395C21.0626 6.74995 21.2546 6.51795 21.516 6.35795C21.7773 6.19262 22.092 6.10995 22.46 6.10995C22.8546 6.10995 23.188 6.20062 23.46 6.38195C23.732 6.56329 23.9266 6.81929 24.044 7.14995ZM23.268 8.54995C23.3533 8.37395 23.396 8.14729 23.396 7.86995C23.396 7.64595 23.3613 7.45662 23.292 7.30195C23.2226 7.13129 23.1186 7.00329 22.98 6.91795C22.8413 6.82729 22.6733 6.78195 22.476 6.78195C22.2786 6.78195 22.1106 6.82729 21.972 6.91795C21.8386 7.00329 21.74 7.12862 21.676 7.29395C21.596 7.45929 21.556 7.66462 21.556 7.90995C21.556 8.17662 21.6013 8.39529 21.692 8.56595C21.8573 8.87529 22.1186 9.02995 22.476 9.02995C22.8546 9.02995 23.1186 8.86995 23.268 8.54995ZM27.9271 7.14995C28.0071 7.37395 28.0471 7.63262 28.0471 7.92595V10.39C28.0471 10.8273 27.8951 11.1766 27.5911 11.438C27.2871 11.6993 26.8898 11.83 26.3991 11.83C26.0844 11.83 25.8044 11.7713 25.5591 11.654C25.3191 11.5366 25.1324 11.374 24.9991 11.166C24.8658 10.9526 24.7991 10.71 24.7991 10.438V10.278C24.7991 10.2246 24.8258 10.198 24.8791 10.198H25.4871C25.5404 10.198 25.5671 10.2246 25.5671 10.278V10.35C25.5671 10.59 25.6444 10.7846 25.7991 10.934C25.9538 11.0833 26.1538 11.158 26.3991 11.158C26.6551 11.158 26.8658 11.0806 27.0311 10.926C27.1964 10.7713 27.2791 10.566 27.2791 10.31V9.30195C27.2791 9.29129 27.2738 9.28329 27.2631 9.27795C27.2578 9.27262 27.2498 9.27529 27.2391 9.28595C27.0098 9.54729 26.6764 9.67795 26.2391 9.67795C25.9244 9.67795 25.6524 9.61395 25.4231 9.48595C25.1991 9.35795 25.0231 9.17129 24.8951 8.92595C24.7458 8.64329 24.6711 8.30462 24.6711 7.90995C24.6711 7.58995 24.7218 7.30462 24.8231 7.05395C24.9458 6.74995 25.1378 6.51795 25.3991 6.35795C25.6604 6.19262 25.9751 6.10995 26.3431 6.10995C26.7378 6.10995 27.0711 6.20062 27.3431 6.38195C27.6151 6.56329 27.8098 6.81929 27.9271 7.14995ZM27.1511 8.54995C27.2364 8.37395 27.2791 8.14729 27.2791 7.86995C27.2791 7.64595 27.2444 7.45662 27.1751 7.30195C27.1058 7.13129 27.0018 7.00329 26.8631 6.91795C26.7244 6.82729 26.5564 6.78195 26.3591 6.78195C26.1618 6.78195 25.9938 6.82729 25.8551 6.91795C25.7218 7.00329 25.6231 7.12862 25.5591 7.29395C25.4791 7.45929 25.4391 7.66462 25.4391 7.90995C25.4391 8.17662 25.4844 8.39529 25.5751 8.56595C25.7404 8.87529 26.0018 9.02995 26.3591 9.02995C26.7378 9.02995 27.0018 8.86995 27.1511 8.54995ZM31.8102 7.14995C31.8902 7.37395 31.9302 7.63262 31.9302 7.92595V10.39C31.9302 10.8273 31.7782 11.1766 31.4742 11.438C31.1702 11.6993 30.7729 11.83 30.2822 11.83C29.9676 11.83 29.6876 11.7713 29.4422 11.654C29.2022 11.5366 29.0156 11.374 28.8822 11.166C28.7489 10.9526 28.6822 10.71 28.6822 10.438V10.278C28.6822 10.2246 28.7089 10.198 28.7622 10.198H29.3702C29.4236 10.198 29.4502 10.2246 29.4502 10.278V10.35C29.4502 10.59 29.5276 10.7846 29.6822 10.934C29.8369 11.0833 30.0369 11.158 30.2822 11.158C30.5382 11.158 30.7489 11.0806 30.9142 10.926C31.0796 10.7713 31.1622 10.566 31.1622 10.31V9.30195C31.1622 9.29129 31.1569 9.28329 31.1462 9.27795C31.1409 9.27262 31.1329 9.27529 31.1222 9.28595C30.8929 9.54729 30.5596 9.67795 30.1222 9.67795C29.8076 9.67795 29.5356 9.61395 29.3062 9.48595C29.0822 9.35795 28.9062 9.17129 28.7782 8.92595C28.6289 8.64329 28.5542 8.30462 28.5542 7.90995C28.5542 7.58995 28.6049 7.30462 28.7062 7.05395C28.8289 6.74995 29.0209 6.51795 29.2822 6.35795C29.5436 6.19262 29.8582 6.10995 30.2262 6.10995C30.6209 6.10995 30.9542 6.20062 31.2262 6.38195C31.4982 6.56329 31.6929 6.81929 31.8102 7.14995ZM31.0342 8.54995C31.1196 8.37395 31.1622 8.14729 31.1622 7.86995C31.1622 7.64595 31.1276 7.45662 31.0582 7.30195C30.9889 7.13129 30.8849 7.00329 30.7462 6.91795C30.6076 6.82729 30.4396 6.78195 30.2422 6.78195C30.0449 6.78195 29.8769 6.82729 29.7382 6.91795C29.6049 7.00329 29.5062 7.12862 29.4422 7.29395C29.3622 7.45929 29.3222 7.66462 29.3222 7.90995C29.3222 8.17662 29.3676 8.39529 29.4582 8.56595C29.6236 8.87529 29.8849 9.02995 30.2422 9.02995C30.6209 9.02995 30.8849 8.86995 31.0342 8.54995Z" fill="white"/>
</svg>