<svg width="27" height="24" viewBox="0 0 27 24" fill="none" xmlns="http://www.w3.org/2000/svg">
<path d="M25.1316 24H1.86842C1.13158 24 0.5 23.3872 0.5 22.6723V1.22553C0.5 0.612766 1.13158 0 1.86842 0H25.1316C25.8684 0 26.5 0.612766 26.5 1.32766V22.7745C26.5 23.3872 25.8684 24 25.1316 24ZM1.86842 0.408511C1.34211 0.408511 0.921053 0.817021 0.921053 1.32766V22.7745C0.921053 23.2851 1.34211 23.6936 1.86842 23.6936H25.1316C25.6579 23.6936 26.0789 23.2851 26.0789 22.7745V1.32766C26.0789 0.817021 25.6579 0.408511 25.1316 0.408511H1.86842Z" fill="#393B3D"/>
<path d="M23.469 22H3.61971C3.00896 22 2.5 21.5955 2.5 20.9888V5.01124C2.5 4.50562 3.00896 4 3.61971 4H23.3673C23.978 4 24.487 4.40449 24.487 5.01124V21.0899C24.5888 21.5955 24.0798 22 23.469 22Z" fill="#393B3D"/>
<path d="M10.8193 7.384C10.8993 7.608 10.9393 7.86667 10.9393 8.16V10.624C10.9393 11.0613 10.7873 11.4107 10.4833 11.672C10.1793 11.9333 9.78198 12.064 9.29131 12.064C8.97665 12.064 8.69665 12.0053 8.45131 11.888C8.21131 11.7707 8.02465 11.608 7.89131 11.4C7.75798 11.1867 7.69131 10.944 7.69131 10.672V10.512C7.69131 10.4587 7.71798 10.432 7.77131 10.432H8.37931C8.43265 10.432 8.45931 10.4587 8.45931 10.512V10.584C8.45931 10.824 8.53665 11.0187 8.69131 11.168C8.84598 11.3173 9.04598 11.392 9.29131 11.392C9.54731 11.392 9.75798 11.3147 9.92331 11.16C10.0886 11.0053 10.1713 10.8 10.1713 10.544V9.536C10.1713 9.52533 10.166 9.51733 10.1553 9.512C10.15 9.50667 10.142 9.50933 10.1313 9.52C9.90198 9.78133 9.56865 9.912 9.13131 9.912C8.81665 9.912 8.54465 9.848 8.31531 9.72C8.09131 9.592 7.91531 9.40533 7.78731 9.16C7.63798 8.87733 7.56331 8.53867 7.56331 8.144C7.56331 7.824 7.61398 7.53867 7.71531 7.288C7.83798 6.984 8.02998 6.752 8.29131 6.592C8.55265 6.42667 8.86731 6.344 9.23531 6.344C9.62998 6.344 9.96331 6.43467 10.2353 6.616C10.5073 6.79733 10.702 7.05333 10.8193 7.384ZM10.0433 8.784C10.1286 8.608 10.1713 8.38133 10.1713 8.104C10.1713 7.88 10.1366 7.69067 10.0673 7.536C9.99798 7.36533 9.89398 7.23733 9.75531 7.152C9.61665 7.06133 9.44865 7.016 9.25131 7.016C9.05398 7.016 8.88598 7.06133 8.74731 7.152C8.61398 7.23733 8.51531 7.36267 8.45131 7.528C8.37131 7.69333 8.33131 7.89867 8.33131 8.144C8.33131 8.41067 8.37665 8.62933 8.46731 8.8C8.63265 9.10933 8.89398 9.264 9.25131 9.264C9.62998 9.264 9.89398 9.104 10.0433 8.784ZM15.0224 7.384C15.1024 7.608 15.1424 7.86667 15.1424 8.16V10.624C15.1424 11.0613 14.9904 11.4107 14.6864 11.672C14.3824 11.9333 13.9851 12.064 13.4944 12.064C13.1798 12.064 12.8998 12.0053 12.6544 11.888C12.4144 11.7707 12.2278 11.608 12.0944 11.4C11.9611 11.1867 11.8944 10.944 11.8944 10.672V10.512C11.8944 10.4587 11.9211 10.432 11.9744 10.432H12.5824C12.6358 10.432 12.6624 10.4587 12.6624 10.512V10.584C12.6624 10.824 12.7398 11.0187 12.8944 11.168C13.0491 11.3173 13.2491 11.392 13.4944 11.392C13.7504 11.392 13.9611 11.3147 14.1264 11.16C14.2918 11.0053 14.3744 10.8 14.3744 10.544V9.536C14.3744 9.52533 14.3691 9.51733 14.3584 9.512C14.3531 9.50667 14.3451 9.50933 14.3344 9.52C14.1051 9.78133 13.7718 9.912 13.3344 9.912C13.0198 9.912 12.7478 9.848 12.5184 9.72C12.2944 9.592 12.1184 9.40533 11.9904 9.16C11.8411 8.87733 11.7664 8.53867 11.7664 8.144C11.7664 7.824 11.8171 7.53867 11.9184 7.288C12.0411 6.984 12.2331 6.752 12.4944 6.592C12.7558 6.42667 13.0704 6.344 13.4384 6.344C13.8331 6.344 14.1664 6.43467 14.4384 6.616C14.7104 6.79733 14.9051 7.05333 15.0224 7.384ZM14.2464 8.784C14.3318 8.608 14.3744 8.38133 14.3744 8.104C14.3744 7.88 14.3398 7.69067 14.2704 7.536C14.2011 7.36533 14.0971 7.23733 13.9584 7.152C13.8198 7.06133 13.6518 7.016 13.4544 7.016C13.2571 7.016 13.0891 7.06133 12.9504 7.152C12.8171 7.23733 12.7184 7.36267 12.6544 7.528C12.5744 7.69333 12.5344 7.89867 12.5344 8.144C12.5344 8.41067 12.5798 8.62933 12.6704 8.8C12.8358 9.10933 13.0971 9.264 13.4544 9.264C13.8331 9.264 14.0971 9.104 14.2464 8.784ZM19.2256 7.384C19.3056 7.608 19.3456 7.86667 19.3456 8.16V10.624C19.3456 11.0613 19.1936 11.4107 18.8896 11.672C18.5856 11.9333 18.1882 12.064 17.6976 12.064C17.3829 12.064 17.1029 12.0053 16.8576 11.888C16.6176 11.7707 16.4309 11.608 16.2976 11.4C16.1642 11.1867 16.0976 10.944 16.0976 10.672V10.512C16.0976 10.4587 16.1242 10.432 16.1776 10.432H16.7856C16.8389 10.432 16.8656 10.4587 16.8656 10.512V10.584C16.8656 10.824 16.9429 11.0187 17.0976 11.168C17.2522 11.3173 17.4522 11.392 17.6976 11.392C17.9536 11.392 18.1642 11.3147 18.3296 11.16C18.4949 11.0053 18.5776 10.8 18.5776 10.544V9.536C18.5776 9.52533 18.5722 9.51733 18.5616 9.512C18.5562 9.50667 18.5482 9.50933 18.5376 9.52C18.3082 9.78133 17.9749 9.912 17.5376 9.912C17.2229 9.912 16.9509 9.848 16.7216 9.72C16.4976 9.592 16.3216 9.40533 16.1936 9.16C16.0442 8.87733 15.9696 8.53867 15.9696 8.144C15.9696 7.824 16.0202 7.53867 16.1216 7.288C16.2442 6.984 16.4362 6.752 16.6976 6.592C16.9589 6.42667 17.2736 6.344 17.6416 6.344C18.0362 6.344 18.3696 6.43467 18.6416 6.616C18.9136 6.79733 19.1082 7.05333 19.2256 7.384ZM18.4496 8.784C18.5349 8.608 18.5776 8.38133 18.5776 8.104C18.5776 7.88 18.5429 7.69067 18.4736 7.536C18.4042 7.36533 18.3002 7.23733 18.1616 7.152C18.0229 7.06133 17.8549 7.016 17.6576 7.016C17.4602 7.016 17.2922 7.06133 17.1536 7.152C17.0202 7.23733 16.9216 7.36267 16.8576 7.528C16.7776 7.69333 16.7376 7.89867 16.7376 8.144C16.7376 8.41067 16.7829 8.62933 16.8736 8.8C17.0389 9.10933 17.3002 9.264 17.6576 9.264C18.0362 9.264 18.3002 9.104 18.4496 8.784ZM9.99741 19C9.94941 19 9.91741 18.9787 9.90141 18.936L9.61341 18C9.60807 17.984 9.59741 17.976 9.58141 17.976H7.33341C7.31741 17.976 7.30674 17.984 7.30141 18L7.01341 18.936C6.99741 18.9787 6.96541 19 6.91741 19H6.26941C6.21074 19 6.18941 18.9707 6.20541 18.912L7.95741 13.464C7.97341 13.4213 8.00541 13.4 8.05341 13.4H8.85341C8.90141 13.4 8.93341 13.4213 8.94941 13.464L10.7174 18.912L10.7254 18.944C10.7254 18.9813 10.7014 19 10.6534 19H9.99741ZM7.50141 17.328C7.49607 17.3387 7.49607 17.3493 7.50141 17.36C7.51207 17.3653 7.52274 17.368 7.53341 17.368H9.37341C9.38407 17.368 9.39207 17.3653 9.39741 17.36C9.40807 17.3493 9.41074 17.3387 9.40541 17.328L8.47741 14.36C8.47207 14.3493 8.46407 14.344 8.45341 14.344C8.44274 14.344 8.43474 14.3493 8.42941 14.36L7.50141 17.328ZM15.0365 19C14.9885 19 14.9565 18.9787 14.9405 18.936L14.6525 18C14.6471 17.984 14.6365 17.976 14.6205 17.976H12.3725C12.3565 17.976 12.3458 17.984 12.3405 18L12.0525 18.936C12.0365 18.9787 12.0045 19 11.9565 19H11.3085C11.2498 19 11.2285 18.9707 11.2445 18.912L12.9965 13.464C13.0125 13.4213 13.0445 13.4 13.0925 13.4H13.8925C13.9405 13.4 13.9725 13.4213 13.9885 13.464L15.7565 18.912L15.7645 18.944C15.7645 18.9813 15.7405 19 15.6925 19H15.0365ZM12.5405 17.328C12.5351 17.3387 12.5351 17.3493 12.5405 17.36C12.5511 17.3653 12.5618 17.368 12.5725 17.368H14.4125C14.4231 17.368 14.4311 17.3653 14.4365 17.36C14.4471 17.3493 14.4498 17.3387 14.4445 17.328L13.5165 14.36C13.5111 14.3493 13.5031 14.344 13.4925 14.344C13.4818 14.344 13.4738 14.3493 13.4685 14.36L12.5405 17.328ZM20.0755 19C20.0275 19 19.9955 18.9787 19.9795 18.936L19.6915 18C19.6862 17.984 19.6755 17.976 19.6595 17.976H17.4115C17.3955 17.976 17.3849 17.984 17.3795 18L17.0915 18.936C17.0755 18.9787 17.0435 19 16.9955 19H16.3475C16.2889 19 16.2675 18.9707 16.2835 18.912L18.0355 13.464C18.0515 13.4213 18.0835 13.4 18.1315 13.4H18.9315C18.9795 13.4 19.0115 13.4213 19.0275 13.464L20.7955 18.912L20.8035 18.944C20.8035 18.9813 20.7795 19 20.7315 19H20.0755ZM17.5795 17.328C17.5742 17.3387 17.5742 17.3493 17.5795 17.36C17.5902 17.3653 17.6009 17.368 17.6115 17.368H19.4515C19.4622 17.368 19.4702 17.3653 19.4755 17.36C19.4862 17.3493 19.4889 17.3387 19.4835 17.328L18.5555 14.36C18.5502 14.3493 18.5422 14.344 18.5315 14.344C18.5209 14.344 18.5129 14.3493 18.5075 14.36L17.5795 17.328Z" fill="white"/>
</svg>