<svg width="28" height="24" viewBox="0 0 28 24" fill="none" xmlns="http://www.w3.org/2000/svg">
<path d="M26.1 0.200195H1.1C0.5 0.200195 0 0.700195 0 1.3002V4.8002H27.1V1.3002C27.2 0.700195 26.7 0.200195 26.1 0.200195Z" fill="#768692"/>
<path d="M26.2 24H1.3C0.6 24 0 23.3872 0 22.6723V1.22553C0 0.612766 0.6 0 1.3 0H26.2C26.9 0 27.5 0.612766 27.5 1.32766V22.7745C27.5 23.3872 26.9 24 26.2 24ZM1.3 0.408511C0.8 0.408511 0.4 0.817021 0.4 1.32766V22.7745C0.4 23.2851 0.8 23.6936 1.3 23.6936H26.2C26.7 23.6936 27.1 23.2851 27.1 22.7745V1.32766C27.1 0.817021 26.7 0.408511 26.2 0.408511H1.3Z" fill="#393B3D"/>
<path d="M10.4974 13C10.4494 13 10.4174 12.9787 10.4014 12.936L10.1134 12C10.1081 11.984 10.0974 11.976 10.0814 11.976H7.83341C7.81741 11.976 7.80674 11.984 7.80141 12L7.51341 12.936C7.49741 12.9787 7.46541 13 7.41741 13H6.76941C6.71074 13 6.68941 12.9707 6.70541 12.912L8.45741 7.464C8.47341 7.42133 8.50541 7.4 8.55341 7.4H9.35341C9.40141 7.4 9.43341 7.42133 9.44941 7.464L11.2174 12.912L11.2254 12.944C11.2254 12.9813 11.2014 13 11.1534 13H10.4974ZM8.00141 11.328C7.99607 11.3387 7.99607 11.3493 8.00141 11.36C8.01207 11.3653 8.02274 11.368 8.03341 11.368H9.87341C9.88407 11.368 9.89207 11.3653 9.89741 11.36C9.90807 11.3493 9.91074 11.3387 9.90541 11.328L8.97741 8.36C8.97207 8.34933 8.96407 8.344 8.95341 8.344C8.94274 8.344 8.93474 8.34933 8.92941 8.36L8.00141 11.328ZM15.5365 13C15.4885 13 15.4565 12.9787 15.4405 12.936L15.1525 12C15.1471 11.984 15.1365 11.976 15.1205 11.976H12.8725C12.8565 11.976 12.8458 11.984 12.8405 12L12.5525 12.936C12.5365 12.9787 12.5045 13 12.4565 13H11.8085C11.7498 13 11.7285 12.9707 11.7445 12.912L13.4965 7.464C13.5125 7.42133 13.5445 7.4 13.5925 7.4H14.3925C14.4405 7.4 14.4725 7.42133 14.4885 7.464L16.2565 12.912L16.2645 12.944C16.2645 12.9813 16.2405 13 16.1925 13H15.5365ZM13.0405 11.328C13.0351 11.3387 13.0351 11.3493 13.0405 11.36C13.0511 11.3653 13.0618 11.368 13.0725 11.368H14.9125C14.9231 11.368 14.9311 11.3653 14.9365 11.36C14.9471 11.3493 14.9498 11.3387 14.9445 11.328L14.0165 8.36C14.0111 8.34933 14.0031 8.344 13.9925 8.344C13.9818 8.344 13.9738 8.34933 13.9685 8.36L13.0405 11.328ZM20.5755 13C20.5275 13 20.4955 12.9787 20.4795 12.936L20.1915 12C20.1862 11.984 20.1755 11.976 20.1595 11.976H17.9115C17.8955 11.976 17.8849 11.984 17.8795 12L17.5915 12.936C17.5755 12.9787 17.5435 13 17.4955 13H16.8475C16.7889 13 16.7675 12.9707 16.7835 12.912L18.5355 7.464C18.5515 7.42133 18.5835 7.4 18.6315 7.4H19.4315C19.4795 7.4 19.5115 7.42133 19.5275 7.464L21.2955 12.912L21.3035 12.944C21.3035 12.9813 21.2795 13 21.2315 13H20.5755ZM18.0795 11.328C18.0742 11.3387 18.0742 11.3493 18.0795 11.36C18.0902 11.3653 18.1009 11.368 18.1115 11.368H19.9515C19.9622 11.368 19.9702 11.3653 19.9755 11.36C19.9862 11.3493 19.9889 11.3387 19.9835 11.328L19.0555 8.36C19.0502 8.34933 19.0422 8.344 19.0315 8.344C19.0209 8.344 19.0129 8.34933 19.0075 8.36L18.0795 11.328ZM13.4209 15.384C13.5009 15.608 13.5409 15.8667 13.5409 16.16V18.624C13.5409 19.0613 13.3889 19.4107 13.0849 19.672C12.7809 19.9333 12.3835 20.064 11.8929 20.064C11.5782 20.064 11.2982 20.0053 11.0529 19.888C10.8129 19.7707 10.6262 19.608 10.4929 19.4C10.3595 19.1867 10.2929 18.944 10.2929 18.672V18.512C10.2929 18.4587 10.3195 18.432 10.3729 18.432H10.9809C11.0342 18.432 11.0609 18.4587 11.0609 18.512V18.584C11.0609 18.824 11.1382 19.0187 11.2929 19.168C11.4475 19.3173 11.6475 19.392 11.8929 19.392C12.1489 19.392 12.3595 19.3147 12.5249 19.16C12.6902 19.0053 12.7729 18.8 12.7729 18.544V17.536C12.7729 17.5253 12.7675 17.5173 12.7569 17.512C12.7515 17.5067 12.7435 17.5093 12.7329 17.52C12.5035 17.7813 12.1702 17.912 11.7329 17.912C11.4182 17.912 11.1462 17.848 10.9169 17.72C10.6929 17.592 10.5169 17.4053 10.3889 17.16C10.2395 16.8773 10.1649 16.5387 10.1649 16.144C10.1649 15.824 10.2155 15.5387 10.3169 15.288C10.4395 14.984 10.6315 14.752 10.8929 14.592C11.1542 14.4267 11.4689 14.344 11.8369 14.344C12.2315 14.344 12.5649 14.4347 12.8369 14.616C13.1089 14.7973 13.3035 15.0533 13.4209 15.384ZM12.6449 16.784C12.7302 16.608 12.7729 16.3813 12.7729 16.104C12.7729 15.88 12.7382 15.6907 12.6689 15.536C12.5995 15.3653 12.4955 15.2373 12.3569 15.152C12.2182 15.0613 12.0502 15.016 11.8529 15.016C11.6555 15.016 11.4875 15.0613 11.3489 15.152C11.2155 15.2373 11.1169 15.3627 11.0529 15.528C10.9729 15.6933 10.9329 15.8987 10.9329 16.144C10.9329 16.4107 10.9782 16.6293 11.0689 16.8C11.2342 17.1093 11.4955 17.264 11.8529 17.264C12.2315 17.264 12.4955 17.104 12.6449 16.784ZM17.624 15.384C17.704 15.608 17.744 15.8667 17.744 16.16V18.624C17.744 19.0613 17.592 19.4107 17.288 19.672C16.984 19.9333 16.5867 20.064 16.096 20.064C15.7813 20.064 15.5013 20.0053 15.256 19.888C15.016 19.7707 14.8293 19.608 14.696 19.4C14.5627 19.1867 14.496 18.944 14.496 18.672V18.512C14.496 18.4587 14.5227 18.432 14.576 18.432H15.184C15.2373 18.432 15.264 18.4587 15.264 18.512V18.584C15.264 18.824 15.3413 19.0187 15.496 19.168C15.6507 19.3173 15.8507 19.392 16.096 19.392C16.352 19.392 16.5627 19.3147 16.728 19.16C16.8933 19.0053 16.976 18.8 16.976 18.544V17.536C16.976 17.5253 16.9707 17.5173 16.96 17.512C16.9547 17.5067 16.9467 17.5093 16.936 17.52C16.7067 17.7813 16.3733 17.912 15.936 17.912C15.6213 17.912 15.3493 17.848 15.12 17.72C14.896 17.592 14.72 17.4053 14.592 17.16C14.4427 16.8773 14.368 16.5387 14.368 16.144C14.368 15.824 14.4187 15.5387 14.52 15.288C14.6427 14.984 14.8347 14.752 15.096 14.592C15.3573 14.4267 15.672 14.344 16.04 14.344C16.4347 14.344 16.768 14.4347 17.04 14.616C17.312 14.7973 17.5067 15.0533 17.624 15.384ZM16.848 16.784C16.9333 16.608 16.976 16.3813 16.976 16.104C16.976 15.88 16.9413 15.6907 16.872 15.536C16.8027 15.3653 16.6987 15.2373 16.56 15.152C16.4213 15.0613 16.2533 15.016 16.056 15.016C15.8587 15.016 15.6907 15.0613 15.552 15.152C15.4187 15.2373 15.32 15.3627 15.256 15.528C15.176 15.6933 15.136 15.8987 15.136 16.144C15.136 16.4107 15.1813 16.6293 15.272 16.8C15.4373 17.1093 15.6987 17.264 16.056 17.264C16.4347 17.264 16.6987 17.104 16.848 16.784Z" fill="#393B3D"/>
</svg>
