<svg width="48" height="42" viewBox="0 0 48 42" fill="none" xmlns="http://www.w3.org/2000/svg">
<path d="M43.3989 13.8478V41M34.2405 18.8628H38.3614V24.1996H34.2405V18.8628ZM34.2405 29.2561H38.3614V35.9787H34.2405V29.2561ZM9.89177 29.2561H14.0146V35.9787H9.89177V29.2561ZM9.89177 18.8628H14.0146V24.1996H9.89177V18.8628ZM19.1208 41V31.0669C19.1208 28.6656 21.3729 26.7 24.1268 26.7C26.8814 26.7 29.135 28.6656 29.135 31.0669V41H19.1208ZM9.99317 1H38.2612L46.8548 13.6036H31.424L24.1268 7.27051L16.8319 13.6036H1.39844L9.99317 1ZM4.85693 41V13.8478V41Z" stroke="#0033A0" stroke-width="1.5" stroke-miterlimit="22.926" stroke-linejoin="round"/>
<path d="M24.1269 18.0748C25.8913 18.0748 27.3214 19.3845 27.3214 20.9998C27.3214 22.6145 25.8913 23.9238 24.1269 23.9238C22.3637 23.9238 20.9336 22.6145 20.9336 20.9998C20.9336 19.3845 22.3637 18.0748 24.1269 18.0748Z" stroke="#0033A0" stroke-width="1.5" stroke-miterlimit="22.926"/>
<path d="M2.22607 41H46.0297" stroke="#0033A0" stroke-width="1.5" stroke-miterlimit="22.926"/>
</svg>
