<svg width="92" height="84" viewBox="0 0 92 84" fill="none" xmlns="http://www.w3.org/2000/svg">
<path fill-rule="evenodd" clip-rule="evenodd" d="M0 53.7812L21.6728 31.5784C22.5215 30.709 23.6851 30.2188 24.9 30.2188H67.1C68.3149 30.2188 69.4785 30.709 70.3272 31.5784L92 53.7812V76.4718C92 80.4569 88.7694 83.6875 84.7843 83.6875H7.21569C3.23057 83.6875 0 80.4569 0 76.4718V53.7812ZM6.76471 51.9688L24.3529 33.8438H67.6471L85.2353 51.9688H62.6863V55.6324C62.6863 60.1156 59.0519 63.75 54.5686 63.75H37.4314C32.9481 63.75 29.3137 60.1156 29.3137 55.6324V51.9688H6.76471ZM3.59375 55.6562H25.875C25.875 61.9281 30.9594 67.0125 37.2313 67.0125H54.7687C61.0406 67.0125 66.125 61.9281 66.125 55.6562H88.4062V75.7812C88.4062 78.163 86.4755 80.0938 84.0938 80.0938H7.90625C5.52452 80.0938 3.59375 78.163 3.59375 75.7812V55.6562ZM47.8039 21.1562C47.8039 22.1573 46.9963 22.9687 46 22.9687C45.0037 22.9687 44.1961 22.1573 44.1961 21.1562V2.125C44.1961 1.12398 45.0037 0.3125 46 0.3125C46.9963 0.3125 47.8039 1.12398 47.8039 2.125V21.1562ZM59.4684 22.7898C59.2105 23.7567 58.2214 24.3305 57.259 24.0715C56.2967 23.8124 55.7256 22.8185 55.9835 21.8516L60.8858 3.46884C61.1437 2.50193 62.1328 1.92813 63.0952 2.18721C64.0575 2.44629 64.6286 3.44015 64.3707 4.40706L59.4684 22.7898ZM36.4099 21.8516C36.6678 22.8185 36.0967 23.8124 35.1344 24.0715C34.172 24.3305 33.1829 23.7567 32.925 22.7898L28.0227 4.40706C27.7648 3.44015 28.3359 2.44629 29.2983 2.18721C30.2606 1.92813 31.2498 2.50193 31.5076 3.46884L36.4099 21.8516Z" fill="#0033A0"/>
</svg>
