<svg width="48" height="38" viewBox="0 0 48 38" fill="none" xmlns="http://www.w3.org/2000/svg">
<path d="M37.9064 13.0273H9.85815L11.8614 5.55721H35.9054L37.9064 13.0273Z" stroke="#0033A0" stroke-width="1.5" stroke-miterlimit="10" stroke-linecap="round" stroke-linejoin="round"/>
<path d="M43.0737 14.8682C44.8358 14.8682 46.2731 16.1858 46.2731 17.7949V26.7962C46.2731 28.4035 44.8358 29.7281 43.0737 29.7281H4.69356C2.93188 29.7281 1.49078 28.4035 1.49078 26.7962V17.7949C1.49078 16.1858 2.93188 14.8682 4.69356 14.8682H4.73003L8.9557 1.00002H39.1113L43.0372 14.8682H43.0737Z" stroke="#0033A0" stroke-width="1.5" stroke-miterlimit="10" stroke-linecap="round" stroke-linejoin="round"/>
<path d="M30.1146 25.1465H17.6495V19.4304L23.7793 18.5979L30.1146 19.4304V25.1465Z" stroke="#0033A0" stroke-width="1.5" stroke-miterlimit="10" stroke-linecap="round" stroke-linejoin="round"/>
<path d="M13.3817 34.0105C13.3817 35.3977 12.1496 36.5244 10.6389 36.5244H8.91563C7.40882 36.5244 6.17664 35.3977 6.17664 34.0105V29.7286H13.3817V34.0105Z" stroke="#0033A0" stroke-width="1.5" stroke-miterlimit="10" stroke-linecap="round" stroke-linejoin="round"/>
<path d="M41.5899 34.0105C41.5899 35.3977 40.352 36.5244 38.8448 36.5244H37.1253C35.6185 36.5244 34.3795 35.3977 34.3795 34.0105V29.7286H41.5899V34.0105Z" stroke="#0033A0" stroke-width="1.5" stroke-miterlimit="10" stroke-linecap="round" stroke-linejoin="round"/>
<path d="M12.8967 22.2949C12.8967 23.8688 11.5019 25.1465 9.77896 25.1465C8.05299 25.1465 6.66089 23.8688 6.66089 22.2949C6.66089 20.714 8.05299 19.4377 9.77896 19.4377C11.5019 19.4377 12.8967 20.714 12.8967 22.2949Z" stroke="#0033A0" stroke-width="1.5" stroke-miterlimit="10" stroke-linecap="round" stroke-linejoin="round"/>
<path d="M41.1029 22.2949C41.1029 23.8688 39.7073 25.1465 37.984 25.1465C36.2619 25.1465 34.8663 23.8688 34.8663 22.2949C34.8663 20.714 36.2619 19.4377 37.984 19.4377C39.7073 19.4377 41.1029 20.714 41.1029 22.2949Z" stroke="#0033A0" stroke-width="1.5" stroke-miterlimit="10" stroke-linecap="round" stroke-linejoin="round"/>
</svg>
