<svg width="36" height="20" viewBox="0 0 36 20" fill="none" xmlns="http://www.w3.org/2000/svg"><path d="M9.37951 15.7612C9.79406 15.7612 10.1301 15.4252 10.1301 15.0106 10.1301 14.5961 9.79406 14.26 9.37951 14.26 8.96496 14.26 8.62891 14.5961 8.62891 15.0106 8.62891 15.4252 8.96496 15.7612 9.37951 15.7612z" fill="#06369e"/><path d="M16.8854 15.7612C17.2999 15.7612 17.636 15.4252 17.636 15.0106 17.636 14.5961 17.2999 14.26 16.8854 14.26 16.4708 14.26 16.1348 14.5961 16.1348 15.0106 16.1348 15.4252 16.4708 15.7612 16.8854 15.7612z" fill="#06369e"/><path d="M29.3954 15.7612C29.8099 15.7612 30.146 15.4252 30.146 15.0106 30.146 14.5961 29.8099 14.26 29.3954 14.26 28.9808 14.26 28.6448 14.5961 28.6448 15.0106 28.6448 15.4252 28.9808 15.7612 29.3954 15.7612z" fill="#06369e"/><path d="M30.2712 2H25.0169V13.0089H27.1687C26.7934 13.4342 26.5432 13.9346 26.4431 14.5101H25.5174V13.5093H20.9387v1.0008H19.8378C19.7377 13.9346 19.4875 13.4342 19.1122 13.0089h5.1541V2H23.2655V7.00403H4V13.0089H7.15254C6.67716 13.5343 6.37692 14.2349 6.37692 15.0105 6.37692 16.6618 7.72801 18.0129 9.37934 18.0129 10.8555 18.0129 12.1065 16.937 12.3317 15.5109H13.933C14.1832 16.937 15.4092 18.0129 16.8854 18.0129 18.3616 18.0129 19.6126 16.937 19.8378 15.5109H20.9387V16.5117H25.5174V15.5109H26.4431C26.6933 16.937 27.9193 18.0129 29.3955 18.0129 30.8717 18.0129 32.1227 16.937 32.3479 15.5109H33.2486C34.2244 15.5109 35 14.7353 35 13.7595V9.28087L33.0734 3.95157C32.6731 2.80065 31.5222 2 30.2712 2zM23.2655 8.00484V9.50605H5.00081V8.00484H23.2655zM5.00081 10.5069H23.2655V12.0081H5.00081V10.5069zM11.6312 13.0089H14.6836C14.3083 13.4342 14.0581 13.9346 13.958 14.5101H12.3567C12.2567 13.9346 11.9814 13.4342 11.6312 13.0089zM9.37934 17.0121C8.27845 17.0121 7.37772 16.1114 7.37772 15.0105 7.37772 13.9096 8.27845 13.0089 9.37934 13.0089 10.4802 13.0089 11.381 13.9096 11.381 15.0105 11.381 16.1114 10.4802 17.0121 9.37934 17.0121zM16.8854 17.0121C15.7845 17.0121 14.8838 16.1114 14.8838 15.0105 14.8838 13.9096 15.7845 13.0089 16.8854 13.0089 17.9863 13.0089 18.887 13.9096 18.887 15.0105 18.887 16.1114 18.0113 17.0121 16.8854 17.0121zM24.5165 15.5109H21.9395V14.5101H24.5165v1.0008zM32.2228 4.50202 33.799 8.85553 30.6215 8.23002C30.2712 8.15496 30.021 7.85472 30.021 7.50444V4.50202H32.2228zM29.3955 17.0121C28.2946 17.0121 27.3939 16.1114 27.3939 15.0105 27.3939 13.9096 28.2946 13.0089 29.3955 13.0089 30.4964 13.0089 31.3971 13.9096 31.3971 15.0105 31.3971 16.1114 30.5214 17.0121 29.3955 17.0121zM33.2736 14.5101H32.3729C32.1477 13.134 30.9718 12.0581 29.5206 12.0081H26.0178V3.00081H30.2712C30.7716 3.00081 31.222 3.20097 31.5973 3.50121H29.0202V7.47942C29.0202 8.30508 29.6207 9.03067 30.4213 9.20581L34.0242 9.9314V13.7595C34.0242 14.1848 33.6989 14.5101 33.2736 14.5101z" fill="#06369e"/></svg>