<?xml version="1.0" encoding="UTF-8" standalone="no"?>
<svg
   xmlns:dc="http://purl.org/dc/elements/1.1/"
   xmlns:cc="http://creativecommons.org/ns#"
   xmlns:rdf="http://www.w3.org/1999/02/22-rdf-syntax-ns#"
   xmlns:svg="http://www.w3.org/2000/svg"
   xmlns="http://www.w3.org/2000/svg"
   xmlns:sodipodi="http://sodipodi.sourceforge.net/DTD/sodipodi-0.dtd"
   xmlns:inkscape="http://www.inkscape.org/namespaces/inkscape"
   width="26"
   height="850"
   viewBox="0 0 26 850"
   version="1.1"
   id="svg151"
   sodipodi:docname="iconscopy.svg"
   style="fill:none"
   inkscape:version="0.92.4 (5da689c313, 2019-01-14)">
  <metadata
     id="metadata155">
    <rdf:RDF>
      <cc:Work
         rdf:about="">
        <dc:format>image/svg+xml</dc:format>
        <dc:type
           rdf:resource="http://purl.org/dc/dcmitype/StillImage" />
        <dc:title></dc:title>
      </cc:Work>
    </rdf:RDF>
  </metadata>
  <sodipodi:namedview
     pagecolor="#ffffff"
     bordercolor="#666666"
     borderopacity="1"
     objecttolerance="10"
     gridtolerance="10"
     guidetolerance="10"
     inkscape:pageopacity="0"
     inkscape:pageshadow="2"
     inkscape:window-width="1298"
     inkscape:window-height="704"
     id="namedview153"
     showgrid="false"
     fit-margin-top="2.7755576e-17"
     fit-margin-left="0"
     fit-margin-right="0"
     fit-margin-bottom="0"
     inkscape:zoom="10.721154"
     inkscape:cx="0.62663161"
     inkscape:cy="21.77915"
     inkscape:window-x="68"
     inkscape:window-y="27"
     inkscape:window-maximized="1"
     inkscape:current-layer="svg151" />
  <g
     clip-path="url(#clip0)"
     id="g144"
     transform="translate(0.0466368,-0.09675136)">
    <path
       d="M 26,285.044 H 0.910278"
       stroke-miterlimit="10"
       id="path10"
       inkscape:connector-curvature="0"
       style="stroke:#393b3d;stroke-linecap:round;stroke-linejoin:round;stroke-miterlimit:10" />
    <path
       d="M 9.04299,276 0,285.044 l 9.04299,9.043"
       stroke-miterlimit="10"
       id="path12"
       inkscape:connector-curvature="0"
       style="stroke:#393b3d;stroke-linecap:round;stroke-linejoin:round;stroke-miterlimit:10" />
    <path
       d="m 19.8835,37.4215 -4.309,-4.3097 c -0.1498,-0.1491 -0.4153,-0.1491 -0.5656,0 l -5.77684,5.7768 4.87404,4.8746 5.7774,-5.7772 c 0.1553,-0.1563 0.1553,-0.4091 0,-0.5645 z"
       id="path14"
       inkscape:connector-curvature="0"
       style="fill:#393b3d" />
    <path
       d="M 6.11721,42.0043 C 6.04184,42.0795 6,42.181 6,42.2871 c 0,0.1062 0.04184,0.2075 0.11721,0.2817 l 3.09224,3.0918 c 0.07414,0.0741 0.17643,0.1163 0.28196,0.1163 h 2.43479 c 0.1062,0 0.2069,-0.0422 0.2826,-0.1163 l 0.9128,-0.9133 -4.87337,-4.8736 z"
       id="path16"
       inkscape:connector-curvature="0"
       style="fill:#393b3d" />
    <path
       d="m 5.5,683.704 v 2.688 l 15,0.006 v -2.639"
       stroke-miterlimit="10"
       id="path18"
       inkscape:connector-curvature="0"
       style="stroke:#393b3d;stroke-linecap:round;stroke-miterlimit:10" />
    <path
       d="M 17.0862,678.989 13.0491,683.05 9,678.989"
       stroke-miterlimit="10"
       id="path20"
       inkscape:connector-curvature="0"
       style="stroke:#393b3d;stroke-linecap:round;stroke-miterlimit:10" />
    <path
       d="M 13,683 V 672"
       stroke-miterlimit="10"
       id="path22"
       inkscape:connector-curvature="0"
       style="stroke:#393b3d;stroke-linecap:round;stroke-miterlimit:10" />
    <path
       d="m 12.9656,244 1.9287,1.502 -1.5129,1.924"
       stroke-miterlimit="10"
       id="path24"
       inkscape:connector-curvature="0"
       style="stroke:#393b3d;stroke-linecap:round;stroke-linejoin:round;stroke-miterlimit:10" />
    <path
       d="m 19.8286,251.949 c 0,3.543 -2.8714,6.414 -6.414,6.414 C 9.87162,258.363 7,255.492 7,251.949 c 0,-3.543 2.87162,-6.415 6.4146,-6.415"
       stroke-miterlimit="10"
       id="path26"
       inkscape:connector-curvature="0"
       style="stroke:#393b3d;stroke-linecap:round;stroke-miterlimit:10" />
    <path
       d="m 17.5,151.5 h -8 v -6 h 8 z"
       stroke-miterlimit="10"
       id="path28"
       inkscape:connector-curvature="0"
       style="stroke:#393b3d;stroke-linecap:round;stroke-linejoin:round;stroke-miterlimit:10" />
    <path
       d="m 17.5,160.5 h -8 v -6 h 8 z"
       stroke-miterlimit="10"
       id="path30"
       inkscape:connector-curvature="0"
       style="stroke:#393b3d;stroke-linecap:round;stroke-linejoin:round;stroke-miterlimit:10" />
    <path
       d="m 5.5,156.5 h 15 v -6 h -15 z m 2.54223,-2.209 c 0.37683,0 0.6818,-0.305 0.6818,-0.683 0,-0.376 -0.30497,-0.681 -0.6818,-0.681 -0.37735,0 -0.68232,0.305 -0.68232,0.681 0,0.378 0.30497,0.683 0.68232,0.683 z"
       id="path32"
       inkscape:connector-curvature="0"
       style="clip-rule:evenodd;fill:#393b3d;fill-rule:evenodd" />
    <path
       d="m 14.3875,216.598 5.0612,-5.061"
       stroke-miterlimit="10"
       id="path34"
       inkscape:connector-curvature="0"
       style="stroke:#393b3d;stroke-linecap:round;stroke-linejoin:round;stroke-miterlimit:10" />
    <path
       d="m 15.428,211 h 4.5574 v 4.558"
       stroke-miterlimit="10"
       id="path36"
       inkscape:connector-curvature="0"
       style="stroke:#393b3d;stroke-linecap:round;stroke-linejoin:round;stroke-miterlimit:10" />
    <path
       d="m 10.9584,219.81 -4.42153,4.42"
       stroke-miterlimit="10"
       id="path38"
       inkscape:connector-curvature="0"
       style="stroke:#393b3d;stroke-linecap:round;stroke-linejoin:round;stroke-miterlimit:10" />
    <path
       d="m 6,220.211 v 4.558 h 4.5574"
       stroke-miterlimit="10"
       id="path40"
       inkscape:connector-curvature="0"
       style="stroke:#393b3d;stroke-linecap:round;stroke-linejoin:round;stroke-miterlimit:10" />
    <path
       d="m 14,710.944 v 3.556 c 0,0.206 0.1262,0.391 0.3179,0.466 0.1918,0.075 0.4099,0.024 0.5495,-0.127 l 6,-6.5 c 0.172,-0.186 0.1773,-0.472 0.0122,-0.664 l -6,-7 c -0.1361,-0.159 -0.3568,-0.217 -0.5531,-0.144 C 14.1303,700.604 14,700.791 14,701 v 4.007 c -3.3104,0.092 -5.4603,1.109 -6.77129,2.813 -1.35378,1.76 -1.72868,4.15 -1.72871,6.68 0,0.225 0.14994,0.422 0.36653,0.482 0.21659,0.06 0.44659,-0.032 0.56222,-0.225 1.41301,-2.355 3.4033,-3.29 5.05105,-3.643 0.8275,-0.177 1.5677,-0.207 2.1001,-0.192 0.1606,0.004 0.3018,0.013 0.4201,0.022 z"
       id="path42"
       inkscape:connector-curvature="0"
       style="stroke:#393b3d;stroke-linejoin:round" />
    <path
       d="M 18,127.5 H 8 v -15 H 18 Z M 9.62955,117.069 c -0.55228,0 -1,-0.448 -1,-1 0,-0.552 0.44772,-1 1,-1 h 6.49485 c 0.5523,0 1,0.448 1,1 0,0.552 -0.4477,1 -1,1 z m -1,2.916 c 0,0.552 0.44772,1 1,1 h 6.49485 c 0.5523,0 1,-0.448 1,-1 0,-0.553 -0.4477,-1 -1,-1 H 9.62955 c -0.55228,0 -1,0.447 -1,1 z m 1,4.929 c -0.55228,0 -1,-0.447 -1,-1 0,-0.552 0.44772,-1 1,-1 h 6.49485 c 0.5523,0 1,0.448 1,1 0,0.553 -0.4477,1 -1,1 z"
       id="path44"
       inkscape:connector-curvature="0"
       style="clip-rule:evenodd;fill:#393b3d;fill-rule:evenodd" />
    <path
       d="M 8,127.5 H 7.5 c 0,0.276 0.22386,0.5 0.5,0.5 z m 10,0 v 0.5 c 0.2761,0 0.5,-0.224 0.5,-0.5 z M 8,112.5 V 112 c -0.27614,0 -0.5,0.224 -0.5,0.5 z m 10,0 h 0.5 C 18.5,112.224 18.2761,112 18,112 Z M 8,128 h 10 v -1 H 8 Z M 7.5,112.5 v 15 h 1 v -15 z M 18,112 H 8 v 1 h 10 z m 0.5,15.5 v -15 h -1 v 15 z M 8.12955,116.069 c 0,0.829 0.67158,1.5 1.5,1.5 v -1 c -0.27614,0 -0.5,-0.224 -0.5,-0.5 z m 1.5,-1.5 c -0.82842,0 -1.5,0.672 -1.5,1.5 h 1 c 0,-0.276 0.22386,-0.5 0.5,-0.5 z m 6.49485,0 H 9.62955 v 1 h 6.49485 z m 1.5,1.5 c 0,-0.828 -0.6716,-1.5 -1.5,-1.5 v 1 c 0.2761,0 0.5,0.224 0.5,0.5 z m -1.5,1.5 c 0.8284,0 1.5,-0.671 1.5,-1.5 h -1 c 0,0.276 -0.2239,0.5 -0.5,0.5 z m -6.49485,0 h 6.49485 v -1 H 9.62955 Z m 0,2.916 c -0.27614,0 -0.5,-0.224 -0.5,-0.5 h -1 c 0,0.828 0.67158,1.5 1.5,1.5 z m 6.49485,0 H 9.62955 v 1 h 6.49485 z m 0.5,-0.5 c 0,0.276 -0.2239,0.5 -0.5,0.5 v 1 c 0.8284,0 1.5,-0.672 1.5,-1.5 z m -0.5,-0.5 c 0.2761,0 0.5,0.224 0.5,0.5 h 1 c 0,-0.829 -0.6716,-1.5 -1.5,-1.5 z m -6.49485,0 h 6.49485 v -1 H 9.62955 Z m -0.5,0.5 c 0,-0.276 0.22386,-0.5 0.5,-0.5 v -1 c -0.82842,0 -1.5,0.671 -1.5,1.5 z m -1,3.929 c 0,0.829 0.67158,1.5 1.5,1.5 v -1 c -0.27614,0 -0.5,-0.224 -0.5,-0.5 z m 1.5,-1.5 c -0.82842,0 -1.5,0.672 -1.5,1.5 h 1 c 0,-0.276 0.22386,-0.5 0.5,-0.5 z m 6.49485,0 H 9.62955 v 1 h 6.49485 z m 1.5,1.5 c 0,-0.828 -0.6716,-1.5 -1.5,-1.5 v 1 c 0.2761,0 0.5,0.224 0.5,0.5 z m -1.5,1.5 c 0.8284,0 1.5,-0.671 1.5,-1.5 h -1 c 0,0.276 -0.2239,0.5 -0.5,0.5 z m -6.49485,0 h 6.49485 v -1 H 9.62955 Z"
       id="path46"
       inkscape:connector-curvature="0"
       style="fill:#393b3d" />
    <path
       d="m 8.00009,421 4.00001,4 7.5,-7.5"
       stroke-miterlimit="10"
       id="path48"
       inkscape:connector-curvature="0"
       style="stroke:#393b3d;stroke-linecap:round;stroke-linejoin:round;stroke-miterlimit:10" />
    <path
       d="m 13.4667,85.2172 v 3.0656 c 0,0.0588 0.0243,0.1125 0.0675,0.1533 0.0405,0.0384 0.0972,0.0639 0.162,0.0639 h 1.2909 c 0.0621,0 0.1188,-0.023 0.1621,-0.0639 0.0405,-0.0383 0.0675,-0.0919 0.0675,-0.1533 v -3.0656 c 0,-0.0588 -0.0243,-0.1125 -0.0675,-0.1533 C 15.1087,85.0255 15.0519,85 14.9871,85 h -1.2909 c -0.0621,0 -0.1188,0.023 -0.162,0.0639 -0.0405,0.0383 -0.0675,0.0919 -0.0675,0.1533 z"
       id="path50"
       inkscape:connector-curvature="0"
       style="clip-rule:evenodd;fill:#393b3d;fill-rule:evenodd" />
    <path
       d="M 6.58516,99 H 19.4148 C 19.7375,99 20,98.7375 20,98.4148 V 86.7555 L 18.2445,85 h -1.1293 v 4.5855 H 8.8875 V 85 H 6.58516 C 6.2625,85 6,85.2625 6,85.5852 V 98.4148 C 6,98.7375 6.2625,99 6.58516,99 Z m 2.83828,-6.5871 h 7.15586 c 0.2953,0 0.5359,0.2406 0.5359,0.5359 v 4.1153 c 0,0.2953 -0.2406,0.5359 -0.5359,0.5359 H 9.42344 C 9.12813,97.6 8.8875,97.3594 8.8875,97.0641 v -4.1153 c 0,-0.2953 0.24063,-0.5359 0.53594,-0.5359 z"
       id="path52"
       inkscape:connector-curvature="0"
       style="clip-rule:evenodd;fill:#393b3d;fill-rule:evenodd" />
    <path
       d="m 18.1261,58.9792 c 0.3607,-0.1978 0.7927,0.1004 0.7356,0.5078 L 17.949,66 17.006,72.7476 c -0.0498,0.3559 -0.4475,0.5446 -0.7547,0.3582 l -4.1839,-2.5396 -1.5473,2.169 c -0.0348,0.0477 -0.0833,0.083 -0.1385,0.1009 -0.0553,0.018 -0.1147,0.0176 -0.1698,-0.001 -0.0551,-0.0185 -0.1031,-0.0544 -0.1373,-0.1026 -0.0343,-0.0481 -0.053,-0.1061 -0.0536,-0.1657 v -1.2044 c 0,-0.3087 0.0973,-0.6091 0.2773,-0.8561 l 0.6434,-0.9161 0.1913,-0.2854 3.91,-5.5451 -5.51005,4.4207 -2.89136,-2.0881 C 6.34368,65.8772 6.37171,65.4252 6.69381,65.2485 Z"
       id="path54"
       inkscape:connector-curvature="0"
       style="fill:#393b3d" />
    <path
       d="m 17.1683,653.585 c 0,3.084 -2.5,5.583 -5.5848,5.583 C 8.50012,659.168 6,656.669 6,653.585 6,650.501 8.50012,648 11.5835,648 c 3.0848,0 5.5848,2.501 5.5848,5.585 z"
       stroke-miterlimit="10"
       id="path56"
       inkscape:connector-curvature="0"
       style="stroke:#393b3d;stroke-linecap:round;stroke-miterlimit:10" />
    <path
       d="m 15.8457,657.558 3.743,3.742"
       stroke-miterlimit="10"
       id="path58"
       inkscape:connector-curvature="0"
       style="stroke:#393b3d;stroke-linecap:round;stroke-miterlimit:10" />
    <path
       d="M 14.7994,7.36768 C 14.7616,7.33042 14.7414,7.2824 14.7141,7.2392 l -6.97826,6.9435 2.98556,2.9699 6.9562,-6.9214 z"
       id="path60"
       inkscape:connector-curvature="0"
       style="fill:#0b3056" />
    <path
       d="M 14.7994,7.36768 C 14.7616,7.33042 14.7414,7.2824 14.7141,7.2392 l -6.97826,6.9435 2.98556,2.9699 6.9562,-6.9214 z"
       id="path62"
       inkscape:connector-curvature="0"
       style="fill:#393b3d" />
    <path
       d="M 20,8.02173 16.9636,5.00002 15.6753,6.28203 c 0.0439,0.02778 0.0909,0.04738 0.1296,0.08624 l 2.8778,2.86256 z"
       id="path64"
       inkscape:connector-curvature="0"
       style="fill:#0b3056" />
    <path
       d="M 20,8.02173 16.9636,5.00002 15.6753,6.28203 c 0.0439,0.02778 0.0909,0.04738 0.1296,0.08624 l 2.8778,2.86256 z"
       id="path66"
       inkscape:connector-curvature="0"
       style="fill:#393b3d" />
    <path
       d="M 9.62731,18.0642 6.86059,15.3109 6,19 Z"
       id="path68"
       inkscape:connector-curvature="0"
       style="fill:#0b3056" />
    <path
       d="M 9.62731,18.0642 6.86059,15.3109 6,19 Z"
       id="path70"
       inkscape:connector-curvature="0"
       style="fill:#393b3d" />
    <path
       d="M 6,570.999 H 20"
       stroke-miterlimit="10"
       id="path72"
       inkscape:connector-curvature="0"
       style="stroke:#393b3d;stroke-linecap:round;stroke-miterlimit:10" />
    <path
       d="M 12.9996,578 V 564"
       stroke-miterlimit="10"
       id="path74"
       inkscape:connector-curvature="0"
       style="stroke:#393b3d;stroke-linecap:round;stroke-miterlimit:10" />
    <path
       d="m 8.5,503.45 8.95,-8.95"
       stroke-miterlimit="10"
       id="path76"
       inkscape:connector-curvature="0"
       style="stroke:#393b3d;stroke-linecap:round;stroke-miterlimit:10" />
    <path
       d="m 17.4504,503.451 -8.94999,-8.95"
       stroke-miterlimit="10"
       id="path78"
       inkscape:connector-curvature="0"
       style="stroke:#393b3d;stroke-linecap:round;stroke-miterlimit:10" />
    <path
       d="M 6,476.999 19.9989,463"
       stroke-miterlimit="10"
       id="path80"
       inkscape:connector-curvature="0"
       style="stroke:#393b3d;stroke-linecap:round;stroke-miterlimit:10" />
    <path
       d="M 19.9995,477 6.00063,463.001"
       stroke-miterlimit="10"
       id="path82"
       inkscape:connector-curvature="0"
       style="stroke:#393b3d;stroke-linecap:round;stroke-miterlimit:10" />
    <path
       d="m 11,526 4.9998,-5"
       stroke-miterlimit="10"
       id="path84"
       inkscape:connector-curvature="0"
       style="stroke:#0b3056;stroke-linecap:round;stroke-miterlimit:10" />
    <path
       d="m 16,526 -4.9998,-5"
       stroke-miterlimit="10"
       id="path86"
       inkscape:connector-curvature="0"
       style="stroke:#0b3056;stroke-linecap:round;stroke-miterlimit:10" />
    <path
       d="M 19,446 H 7"
       stroke-miterlimit="10"
       id="path88"
       inkscape:connector-curvature="0"
       style="stroke:#393b3d;stroke-linecap:round;stroke-miterlimit:10" />
    <path
       d="m 10,626.999 h 6"
       stroke-miterlimit="10"
       id="path90"
       inkscape:connector-curvature="0"
       style="stroke:#393b3d;stroke-linecap:round;stroke-miterlimit:10" />
    <path
       d="m 13,630 v -6"
       stroke-miterlimit="10"
       id="path92"
       inkscape:connector-curvature="0"
       style="stroke:#393b3d;stroke-linecap:round;stroke-miterlimit:10" />
    <circle
       cx="13"
       cy="627"
       r="7"
       stroke-miterlimit="10"
       id="circle94"
       style="stroke:#393b3d;stroke-linecap:round;stroke-miterlimit:10" />
    <path
       d="m 10.8779,547.121 4.2427,-4.243"
       stroke-miterlimit="10"
       id="path96"
       inkscape:connector-curvature="0"
       style="stroke:#393b3d;stroke-linecap:round;stroke-miterlimit:10" />
    <path
       d="m 15.1213,547.121 -4.2426,-4.242"
       stroke-miterlimit="10"
       id="path98"
       inkscape:connector-curvature="0"
       style="stroke:#393b3d;stroke-linecap:round;stroke-miterlimit:10" />
    <circle
       cx="13"
       cy="545"
       r="7"
       stroke-miterlimit="10"
       id="circle100"
       style="stroke:#393b3d;stroke-linecap:round;stroke-miterlimit:10" />
    <path
       d="m 8,334 5.0001,5 L 18,334"
       stroke-miterlimit="10"
       id="path102"
       inkscape:connector-curvature="0"
       style="stroke:#393b3d;stroke-linecap:round;stroke-linejoin:round;stroke-miterlimit:10" />
    <path
       d="m 11,367 5,-5 -5,-5"
       stroke-miterlimit="10"
       id="path104"
       inkscape:connector-curvature="0"
       style="stroke:#393b3d;stroke-linecap:round;stroke-linejoin:round;stroke-miterlimit:10" />
    <path
       d="m 15,385 -5,5 5,5"
       stroke-miterlimit="10"
       id="path106"
       inkscape:connector-curvature="0"
       style="stroke:#393b3d;stroke-linecap:round;stroke-linejoin:round;stroke-miterlimit:10" />
    <path
       d="m 6,310 7.0001,7 L 20,310"
       stroke-miterlimit="10"
       id="path108"
       inkscape:connector-curvature="0"
       style="stroke:#393b3d;stroke-linecap:round;stroke-linejoin:round;stroke-miterlimit:10" />
    <path
       d="m 9,177.5 c -0.27614,0 -0.5,0.224 -0.5,0.5 v 3 c 0,0.276 0.22386,0.5 0.5,0.5 h 2 c 0.2761,0 0.5,-0.224 0.5,-0.5 v -3 c 0,-0.276 -0.2239,-0.5 -0.5,-0.5 z"
       id="path110"
       inkscape:connector-curvature="0"
       style="stroke:#393b3d;stroke-linecap:round;stroke-linejoin:round" />
    <path
       d="m 15,177.5 c -0.2761,0 -0.5,0.224 -0.5,0.5 v 3 c 0,0.276 0.2239,0.5 0.5,0.5 h 2 c 0.2761,0 0.5,-0.224 0.5,-0.5 v -3 c 0,-0.276 -0.2239,-0.5 -0.5,-0.5 z"
       id="path112"
       inkscape:connector-curvature="0"
       style="stroke:#393b3d;stroke-linecap:round;stroke-linejoin:round" />
    <path
       d="m 12,179 h 2"
       id="path114"
       inkscape:connector-curvature="0"
       style="stroke:#393b3d;stroke-linecap:round;stroke-linejoin:round" />
    <path
       d="m 9,186.5 h 8"
       id="path116"
       inkscape:connector-curvature="0"
       style="stroke:#393b3d;stroke-linecap:round" />
    <path
       d="m 9,189 h 8"
       id="path118"
       inkscape:connector-curvature="0"
       style="stroke:#393b3d;stroke-linecap:round" />
    <path
       d="M 8.43478,179 H 6 v 13 h 14 v -13 h -2.4348"
       id="path120"
       inkscape:connector-curvature="0"
       style="stroke:#393b3d;stroke-linecap:round;stroke-linejoin:round" />
    <path
       d="m 15,179 h -4 v 1.667 H 9 V 179 H 6 v 5 h 14 v -5 h -3 v 1.667 h -2 z"
       id="path122"
       inkscape:connector-curvature="0"
       style="clip-rule:evenodd;fill:#393b3d;fill-rule:evenodd" />
    <path
       d="M 8,598 H 18"
       stroke-miterlimit="10"
       id="path124"
       inkscape:connector-curvature="0"
       style="stroke:#393b3d;stroke-linecap:round;stroke-miterlimit:10" />
    <path
       d="M 13,603 V 593"
       stroke-miterlimit="10"
       id="path126"
       inkscape:connector-curvature="0"
       style="stroke:#393b3d;stroke-linecap:round;stroke-miterlimit:10" />
    <path
       d="m 13,728 c -5.6,0 -8,5 -8,5"
       id="path128"
       inkscape:connector-curvature="0"
       style="stroke:#393b3d;stroke-linecap:round;stroke-linejoin:round" />
    <path
       d="m 13,728 c 5.6,0 8,5 8,5"
       id="path130"
       inkscape:connector-curvature="0"
       style="stroke:#393b3d;stroke-linecap:round;stroke-linejoin:round" />
    <path
       d="m 13,738 c 5.6,0 8,-5 8,-5"
       id="path132"
       inkscape:connector-curvature="0"
       style="stroke:#393b3d;stroke-linecap:round;stroke-linejoin:round" />
    <path
       d="m 13,738 c -5.6,0 -8,-5 -8,-5"
       id="path134"
       inkscape:connector-curvature="0"
       style="stroke:#393b3d;stroke-linecap:round;stroke-linejoin:round" />
    <circle
       cx="13"
       cy="733"
       r="3"
       id="circle136"
       style="stroke:#393b3d;stroke-linecap:round;stroke-linejoin:round" />
    <path
       d="m 13,759.415 v -4.9"
       stroke-miterlimit="10"
       id="path138"
       inkscape:connector-curvature="0"
       style="stroke:#393b3d;stroke-linecap:round;stroke-miterlimit:10" />
    <circle
       cx="13"
       cy="756"
       r="7"
       stroke-miterlimit="10"
       id="circle140"
       style="stroke:#393b3d;stroke-linecap:round;stroke-miterlimit:10" />
    <circle
       cx="13"
       cy="752.5"
       r="0.69999999"
       id="circle142"
       style="fill:#393b3d" />
  </g>
  <defs
     id="defs149">
    <clipPath
       id="clip0">
      <rect
         width="26"
         height="767"
         id="rect146"
         x="0"
         y="0"
         style="fill:#ffffff" />
    </clipPath>
  </defs>
  <path
     inkscape:connector-curvature="0"
     style="fill:#393b3d;fill-opacity:1"
     d="m 10.750627,783.55415 c -0.46518,0 -0.8669205,-0.1714 -1.2052305,-0.49282 -0.3383097,-0.34286 -0.4863197,-0.72858 -0.4863197,-1.22143 0,-0.47143 0.16916,-0.85715 0.4863197,-1.2 0.33831,-0.34286 0.7189105,-0.51429 1.2052305,-0.51429 0.46517,0 0.84577,0.17143 1.18408,0.51429 0.33831,0.34285 0.50746,0.72857 0.50746,1.2 0,0.47143 -0.16915,0.87857 -0.50746,1.22143 -0.31717,0.32142 -0.71891,0.49282 -1.18408,0.49282 z"
     id="path157" />
  <path
     inkscape:connector-curvature="0"
     style="fill:#393b3d;fill-opacity:1"
     d="m 8.1921468,789.14685 2.8121902,-3.4072 c 0.08457,-0.1071 0.1903,-0.1714 0.31716,-0.1928 0.12687,-0.0214 0.25373,-0.0214 0.3806,0.0428 l 3.04477,0.9429 1.33206,-3.08572 c 0.0635,-0.0643 0.148,-0.12857 0.2326,-0.17143 0.1057,-0.0428 0.1903,-0.0428 0.2749,-0.0428 0.1057,0.0214 0.1903,0.0643 0.296,0.12857 0.0634,0.0643 0.1057,0.15003 0.148,0.23573 l 2.2413,5.7214 c 0.0423,0.0857 0.0423,0.1714 0.0423,0.2786 0,0.1071 -0.0211,0.1714 -0.0846,0.2357 -0.0423,0.0857 -0.1268,0.15 -0.2114,0.2143 -0.0846,0.0428 -0.1692,0.0428 -0.2537,0.0428 H 8.6361768 c -0.10572,0 -0.21144,-0.0214 -0.29602,-0.0857 -0.08458,-0.0643 -0.16915,-0.1285 -0.21144,-0.2143 -0.04229,-0.1071 -0.04229,-0.2142 -0.04229,-0.3214 0,-0.1286 0.04229,-0.2357 0.10572,-0.3214 z"
     id="path159" />
  <path
     inkscape:connector-curvature="0"
     style="fill:#393b3d;fill-opacity:1"
     d="m 21.956927,779.07584 c 0,-0.0214 0,-0.0429 -0.0212,-0.0643 0,-0.0429 0,-0.0643 -0.0211,-0.10714 -0.0212,-0.0214 -0.0212,-0.0429 -0.0423,-0.0643 -0.0212,-0.0214 -0.0212,-0.0429 -0.0423,-0.0643 v -0.0214 l -5.0958,-5.16429 c -0.0423,-0.0429 -0.0846,-0.0643 -0.1268,-0.0857 -0.0212,0 -0.0212,0 -0.0423,-0.0214 -0.0423,-0.0214 -0.0635,-0.0214 -0.1058,-0.0214 h -0.0211 -10.3607002 c -0.613182,0 -1.0995,0.49285 -1.0995,1.11429 v 18.77141 c 0,0.6214 0.486318,1.1143 1.0995,1.1143 H 20.878527 c 0.6132,0 1.0995,-0.4929 1.0995,-1.1143 z m -1.3956,-0.42858 h -3.4465 c -0.148,0 -0.2749,-0.12857 -0.2749,-0.27857 v -3.47143 z m 0.3172,14.99999 H 6.0775268 c -0.148008,0 -0.274873,-0.1286 -0.274873,-0.2786 v -18.79281 c 0,-0.15001 0.126865,-0.27858 0.274873,-0.27858 h 9.9590002 v 4.07143 c 0,0.62143 0.4863,1.11429 1.0995,1.11429 h 4.0174 v 13.88567 c 0,0.15 -0.1269,0.2786 -0.2749,0.2786 z"
     id="path161" />
  <path
     inkscape:connector-curvature="0"
     style="clip-rule:evenodd;fill:#393b3d;fill-opacity:1;fill-rule:evenodd"
     d="m 15.726957,807.18309 h 3.4719 c 0.1313,0 0.2627,0.11333 0.2252,0.26445 v 0.79333 c 0,0.15111 -0.1126,0.26444 -0.2628,0.26444 h -1.0509 v 11.01227 c 0,1.1711 -0.9383,2.1155 -2.1019,2.1155 H 8.8771066 c -1.1635396,0 -2.1018796,-0.9444 -2.1018796,-2.1155 V 808.50531 H 5.724292 c -0.150134,0 -0.262735,-0.11333 -0.262735,-0.26444 v -0.79333 c 0,-0.15112 0.112601,-0.26445 0.262735,-0.28334 h 3.6595145 v -0.92555 c 0,-0.86889 0.6943705,-1.58667 1.5764105,-1.58667 h 3.19035 c 0.86327,0 1.57639,0.69889 1.57639,1.58667 z m -4.76674,-1.47333 c -0.2815,0 -0.52547,0.24555 -0.52547,0.52889 v 0.92555 h 4.22252 v -0.92555 c 0,-0.28334 -0.24397,-0.52889 -0.52547,-0.52889 z m 5.06704,14.88442 c 0.5818,0 1.0509,-0.4722 1.0509,-1.0578 v -11.03107 h -9.23322 v 11.03107 c 0,0.5856 0.46917,1.0578 1.0509396,1.0578 z m -4.89814,-1.0578 c 0.30027,0 0.52547,-0.2455 0.52547,-0.5289 v -8.49995 c 0,-0.30222 -0.24397,-0.52889 -0.52547,-0.52889 -0.30027,0 -0.52547,0.24556 -0.52547,0.52889 v 8.49995 c 0,0.2834 0.24397,0.5289 0.52547,0.5289 z m 2.64612,0 c 0.30027,0 0.52547,-0.2455 0.52547,-0.5289 v -8.49995 c 0,-0.30222 -0.24397,-0.52889 -0.52547,-0.52889 -0.30027,0 -0.52547,0.24556 -0.52547,0.52889 v 8.49995 c 0,0.2834 0.24397,0.5289 0.52547,0.5289 z"
     id="path1038" />
  <g
     style="fill:none;stroke:#000000;stroke-opacity:0.80392158"
     id="g1056"
     transform="translate(3.358744,830.32799)">
    <path
       id="path1042"
       stroke-miterlimit="10"
       d="m 6,8.99902 h 6"
       inkscape:connector-curvature="0"
       style="stroke:#000000;stroke-linecap:round;stroke-miterlimit:10;stroke-opacity:0.80392158" />
    <circle
       id="circle1044"
       stroke-miterlimit="10"
       r="7"
       cy="9"
       cx="9"
       style="stroke:#000000;stroke-linecap:round;stroke-miterlimit:10;stroke-opacity:0.80392158" />
  </g>
</svg>
