<?xml version="1.0" encoding="UTF-8" standalone="no"?>
<svg
   xmlns:dc="http://purl.org/dc/elements/1.1/"
   xmlns:cc="http://creativecommons.org/ns#"
   xmlns:rdf="http://www.w3.org/1999/02/22-rdf-syntax-ns#"
   xmlns:svg="http://www.w3.org/2000/svg"
   xmlns="http://www.w3.org/2000/svg"
   viewBox="0 0 1122.52 793.70667"
   height="793.70667"
   width="1122.52"
   xml:space="preserve"
   id="svg2"
   version="1.1"><metadata
     id="metadata8"><rdf:RDF><cc:Work
         rdf:about=""><dc:format>image/svg+xml</dc:format><dc:type
           rdf:resource="http://purl.org/dc/dcmitype/StillImage" /></cc:Work></rdf:RDF></metadata><defs
     id="defs6"><clipPath
       id="clipPath20"
       clipPathUnits="userSpaceOnUse"><path
         id="path18"
         d="M 0,0 H 8409 V 5951 H 0 Z" /></clipPath><radialGradient
       id="radialGradient28"
       spreadMethod="pad"
       gradientTransform="matrix(0,3702.33,-3702.33,0,4193.74,2957.18)"
       gradientUnits="userSpaceOnUse"
       r="1"
       cy="0"
       cx="0"
       fy="0"
       fx="0"><stop
         id="stop22"
         offset="0"
         style="stop-opacity:1;stop-color:#ffffff" /><stop
         id="stop24"
         offset="0.527466"
         style="stop-opacity:1;stop-color:#fbfbfa" /><stop
         id="stop26"
         offset="1"
         style="stop-opacity:1;stop-color:#e9edef" /></radialGradient></defs><g
     transform="matrix(1.3333333,0,0,-1.3333333,0,793.70667)"
     id="g10"><g
       transform="scale(0.1)"
       id="g12"><g
         id="g14"><g
           clip-path="url(#clipPath20)"
           id="g16"><path
             id="path30"
             style="fill:url(#radialGradient28);fill-opacity:1;fill-rule:nonzero;stroke:none"
             d="M 0,0 H 8409 V 5951 H 0 Z" /></g></g><path
         id="path32"
         style="fill:#231f20;fill-opacity:1;fill-rule:evenodd;stroke:none"
         d="M 1988.97,1204.33 1502.14,393.609 h 233.31 l 72.44,118.403 h 497.98 l -89.84,156.718 h -318.29 l 190.13,351.72 32.75,-2.79 344.75,-624.051 h 224.95 l -453.4,810.721 h -247.95" /><path
         id="path34"
         style="fill:#231f20;fill-opacity:1;fill-rule:evenodd;stroke:none"
         d="M 2719.58,963.34 V 631.82 c 0,-131.64 106.57,-238.898 238.89,-238.211 h 666.54 v 156.02 h -640.07 c -39.7,0 -70.35,31.351 -70.35,69.652 v 356.59 c 0,39.009 30.65,70.359 70.35,70.359 l 640.07,0.7 v 155.99 h -666.54 c -132.32,0 -238.89,-107.95 -238.89,-239.58" /><path
         id="path36"
         style="fill:#231f20;fill-opacity:1;fill-rule:evenodd;stroke:none"
         d="m 4519.28,610.93 c -0.69,-38.309 -31.33,-69.66 -70.33,-70.36 h -117.02 -303.66 c -39,0.7 -69.65,32.051 -69.65,70.36 v 591.99 h -195.7 v -571.1 c -0.7,-131.64 107.25,-238.898 238.89,-238.211 h 330.12 143.49 C 4607.04,392.922 4714.3,500.18 4715,631.82 v 571.1 H 4519.28 V 610.93" /><path
         id="path38"
         style="fill:#231f20;fill-opacity:1;fill-rule:evenodd;stroke:none"
         d="m 3756.65,1769.84 c -146.26,32.06 -286.95,78.03 -417.9,142.81 l 417.9,867.12 452.71,939.54 h 122.57 122.59 l 452.71,-939.54 417.89,-867.12 c -130.94,-64.78 -271.62,-110.75 -417.89,-142.81 -185.27,-39.68 -380.27,-56.39 -575.3,-57.08 -195.01,0.69 -390.02,17.4 -575.28,57.08 z M 2517.6,3565.39 c 0,1184.02 557.89,1649.27 1239.05,1796.23 135.11,29.24 275.8,45.97 417.19,52.93 L 3756.65,4239.59 3550.49,3658.71 3294.18,1936.32 c -454.1,245.17 -776.58,729.21 -776.58,1629.07 z m 1735.64,1852.64 c 26.46,0.7 52.23,1.4 78.69,1.4 25.78,0 52.24,-0.7 78.71,-1.4 l 22.98,-1435.45 h -101.69 -101.68 z m 653.99,-56.41 c 681.16,-146.96 1239.05,-612.21 1239.05,-1796.23 0,-899.86 -322.49,-1383.9 -776.59,-1629.07 l -256.3,1722.39 -206.16,580.88 -417.19,1174.96 c 141.39,-6.96 282.07,-23.69 417.19,-52.93 z m 0,-3742.9 c 963.94,153.94 1508.59,741.77 1508.59,1946.67 0,1205.61 -544.65,1793.43 -1508.59,1947.36 -177.61,28.55 -369.83,42.49 -575.3,42.49 -205.45,0 -397.68,-13.94 -575.28,-42.49 C 2793.41,5358.82 2248.06,4771 2248.06,3565.39 c 0,-1204.9 545.35,-1792.73 1508.59,-1946.67 177.6,-28.56 369.83,-41.79 575.28,-41.79 205.47,0 397.69,13.23 575.3,41.79" /><path
         id="path40"
         style="fill:#231f20;fill-opacity:1;fill-rule:evenodd;stroke:none"
         d="m 6539.09,1017.66 344.77,-624.051 h 224.95 L 6656.09,1204.33 H 6407.46 L 5920.61,393.609 h 233.32 l 72.44,118.403 h 498.69 L 6635.2,668.73 h -318.99 l 190.14,351.72 32.74,-2.79" /><path
         id="path42"
         style="fill:#231f20;fill-opacity:1;fill-rule:evenodd;stroke:none"
         d="m 5658.74,1202.92 -751.51,0.69 h -38.3 V 393.609 h 38.3 156.72 v 653.321 h 541.85 c 31.34,0 57.11,-25.78 57.81,-57.121 V 875.582 c -0.7,-31.344 -26.47,-57.102 -57.81,-57.102 h -470.82 l 42.48,-156.011 428.34,-0.707 c 31.34,0 57.11,-25.071 57.81,-57.114 V 393.609 h 182.48 v 199.2 c -0.7,59.203 -42.49,134.429 -100.29,146.98 57.8,13.211 112.13,63.352 112.81,122.57 v 140.681 c -0.68,110.05 -89.82,199.88 -199.87,199.88" /></g></g></svg>