<svg width="868" height="620" viewBox="0 0 868 620" fill="none" xmlns="http://www.w3.org/2000/svg"><path d="M0 0h868v620H0z" fill="#fff"/><path fill-rule="evenodd" clip-rule="evenodd" d="M416.606 306.55H450.872V314.989H416.606V306.55zM420.837 318.364H446.853V335.874H420.837V318.364zM382.764 267.311H484.927V271.531H382.764V267.311zM377.264 275.328H490.214V279.547H377.264V275.328zM377.053 259.506H490.003V263.725H377.053V259.506zM451.507 288.619C445.796 293.682 445.796 302.964 445.796 302.964H433.528 421.471C421.471 302.964 421.471 293.682 415.76 288.619 411.742 285.032 406.877 284.188 406.877 284.188 403.704 283.556 403.704 283.134 403.704 282.923H431.201 463.14C463.14 282.923 463.14 283.556 459.967 284.188 460.391 284.399 455.526 285.032 451.507 288.619zM383.187 283.134H395.455C395.455 290.306 390.801 293.682 383.187 291.994V283.134zM426.548 166.261C431.413 156.556 432.47 142.211 433.739 142 435.008 142.211 435.855 156.767 440.719 166.261 445.373 175.332 455.314 183.138 454.68 183.981 454.045 185.036 448.546 182.294 445.796 181.028 441.354 178.918 437.758 177.442 437.758 177.442 437.758 177.442 436.066 200.437 441.566 221.744 446.219 239.043 457.218 255.076 458.275 256.341H444.104L442.835 254.232C439.027 247.481 436.278 241.785 433.739 231.659 430.99 241.574 428.24 247.481 424.433 254.232L423.164 256.341H408.992C410.049 254.865 421.048 239.043 425.702 221.744 431.413 200.437 429.509 177.442 429.509 177.442 429.509 177.442 425.913 179.129 421.471 181.028 418.722 182.294 413.222 185.036 412.588 183.981 412.165 183.138 422.106 175.332 426.548 166.261zM382.764 256.341C382.764 254.654 381.706 231.237 376.418 212.883 370.496 192.842 358.228 180.817 359.074 179.551 359.92 178.496 369.861 180.395 377.264 185.669 385.302 191.154 393.128 200.226 392.494 200.858 392.071 201.28 389.532 198.96 384.456 197.272 379.379 195.373 377.053 195.795 377.053 195.795 377.053 195.795 385.725 209.93 389.955 225.33 393.551 238.199 395.455 254.865 395.455 256.341H382.764zM484.715 256.341C484.715 254.654 485.561 231.237 491.06 212.883 496.983 192.842 509.251 180.817 508.405 179.551 507.77 178.496 497.618 180.395 490.214 185.669 482.177 191.154 474.351 200.226 474.985 200.858 475.408 201.28 477.946 198.96 482.811 197.272 488.099 195.373 490.214 195.795 490.214 195.795 490.214 195.795 481.542 209.93 477.312 225.33 473.716 238.199 471.812 254.865 471.812 256.341H484.715zM484.292 283.134H472.024C472.024 290.306 476.677 293.682 484.292 291.994V283.134z" fill="#000"/><path d="M614.422 408.258 603.657 436.198H624.343L614.422 408.258zM597.747 451.34C596.059 455.393 594.159 460.724 594.159 464.99 594.159 469.256 598.169 470.109 601.336 470.749L606.401 471.175V475.227H574.951V471.388C581.283 470.109 583.816 468.616 586.56 462.857 587.404 461.151 588.249 459.018 589.093 456.459L591.204 451.127 611.256 399.941 609.357 394.395H623.077L643.973 451.127 647.562 460.938C648.406 463.071 649.672 467.336 651.572 469.042 653.05 470.535 655.372 470.962 660.226 471.175V475.227H622.232V471.175C628.987 470.962 634.053 470.749 634.053 466.27 634.053 463.71 632.997 459.871 631.52 456.672L629.62 451.127 626.454 441.743H601.124L597.747 451.34zM514.794 400.58C512.05 400.58 509.094 401.007 507.406 401.007V437.477H515.005C518.804 437.477 522.392 437.051 525.981 435.345 529.991 433.212 533.368 428.733 533.368 419.562 533.368 404.633 522.603 400.58 514.794 400.58zM507.406 451.34V459.232C507.406 469.469 508.461 471.388 515.638 471.388H521.337V475.441H481.021V471.388C492.841 471.815 493.686 468.616 493.686 461.578V451.34 410.818C493.686 402.713 492.419 402.713 481.021 402.073V398.021C488.831 397.168 499.174 396.102 512.683 396.102 518.804 396.102 547.511 396.102 547.511 418.922 547.511 428.093 543.289 433.852 535.479 437.691 533.791 438.544 532.102 438.97 530.836 439.61 532.313 441.103 533.58 442.383 534.846 444.089 535.901 445.795 537.168 447.928 538.856 451.554L541.389 457.099C547.3 469.256 550.466 471.602 557.009 472.881V476.934C545.611 477.36 536.535 473.095 529.147 461.578 528.092 460.085 525.77 455.819 523.448 451.554 521.337 447.501 519.015 443.662 518.171 442.169H507.406V451.34v0zM227.728 408.258 216.963 436.198H237.648L227.728 408.258zM211.052 451.34C209.575 455.393 207.675 460.724 207.675 464.99 207.675 469.256 211.475 470.109 214.852 470.749L219.707 471.175V475.227H188.467V471.388C195.011 470.109 197.332 468.616 200.076 462.857L202.609 456.459 204.72 451.127 224.984 399.941 223.084 394.395H236.804L257.701 451.127 261.289 460.938C262.133 463.071 263.4 467.336 265.299 469.042 266.988 470.535 269.099 470.962 274.165 471.175V475.227H235.749V471.175C242.292 470.962 247.569 470.749 247.569 466.27 247.569 463.71 246.302 459.871 245.036 456.672L243.136 451.127 239.759 441.743H214.641L211.052 451.34zm592.707.0V459.658C803.759 469.256 806.292 470.748 817.479 471.388V475.441H777.586V471.388C787.084 470.748 787.295 470.535 788.351 468.616 790.25 465.63 790.25 456.032 790.25 452.193V412.737C790.25 403.14 788.351 401.86 776.952 401.007V396.955H816.846V401.007C803.759 401.434 803.548 403.353 803.548 416.363V451.34H803.759zM717.428 451.34V460.511C717.428 465.843 717.851 468.189 719.75 469.469 720.806 470.109 722.072 470.535 723.972 470.749 725.872 470.962 728.404 471.175 731.782 471.175V475.227H688.933V471.175C692.732 470.962 695.265 470.749 697.165 470.749 699.065 470.322 700.542 470.109 701.387 469.469 703.075 468.402 703.497 466.056 703.497 461.364V451.34 402.073H690.622C685.556 402.073 683.445 402.5 682.178 403.353 681.123 403.993 680.49 404.846 679.857 406.552 679.223 408.258 678.59 410.818 677.113 415.297H673.313L675.002 394.609H678.168C679.434 396.741 680.49 396.955 682.601 397.168H685.978 735.37C741.069 397.168 741.702 396.741 742.547 394.609H745.713L747.613 415.297H743.602C740.858 402.287 738.325 402.073 731.782 402.073H717.428V451.34v0zm-307.54.0V463.071C409.888 470.322 410.31 470.322 417.487 470.322H430.996C438.806 470.322 442.816 469.042 446.193 455.393H450.415L448.515 475.014H383.503V470.962C395.112 471.388 395.957 468.189 395.957 461.151V450.914v-40.31C395.957 401.86 393.635 400.367 383.503 400.58v-3.625H445.138L445.982 414.87H441.972C439.861 402.926 437.117 402.073 428.674 402.073H409.677V433.212h18.786C434.795 433.212 436.484 433.212 437.539 423.614H441.761V448.141H437.539C437.117 438.33 435.85 437.904 427.196 437.904H409.677V451.34H409.888zm-59.524.0C350.575 452.62 350.786 454.113 350.786 455.393 350.786 467.336 341.288 478 326.512 478 324.19 478 322.713 477.787 320.602 477.573 318.491 477.147 315.747 476.294 311.103 475.014 310.259 474.587 309.626 474.587 308.993 474.587 307.515 474.587 307.093 475.014 307.093 476.294H303.294L300.972 456.032H305.193C310.47 471.388 321.446 473.308 325.035 473.308 329.889 473.308 339.599 470.109 339.599 459.871 339.599 456.459 338.544 453.686 336.644 451.127 333.478 446.861 327.779 443.449 319.969 438.544 304.138 428.733 301.183 421.482 301.183 414.443 301.183 402.713 311.737 394.182 322.502 394.182 326.723 394.182 330.523 394.822 333.9 396.102 334.955 396.528 338.544 398.021 339.177 398.021 339.599 398.021 340.232 397.595 341.288 396.315H345.087L346.987 415.083H342.765C338.966 405.059 332.844 398.874 324.19 398.874 317.436 398.874 312.37 403.993 312.37 409.751 312.37 413.377 313.425 415.723 316.591 418.709 318.28 420.202 320.602 422.121 323.557 424.041L334.744 431.506C338.332 433.852 341.71 436.198 344.454 439.397 347.198 442.809 349.52 446.648 350.364 451.34zM70.8967 451.34 70.0524 460.938C69.8413 461.791 69.8413 464.35 69.8413 466.27 69.8413 471.175 76.5958 471.175 80.8174 471.175V475.227H50V471.175C63.2979 470.535 63.2979 469.895 64.3533 456.246L64.7755 451.127 68.1527 409.112C68.5749 401.647 67.3084 401.647 57.1766 401.007V396.955H83.3503L106.569 451.127 108.258 455.179 110.157 451.127 133.587 396.955H159.338V401.007C156.172 401.007 154.272 401.007 152.584 401.22 151.106 401.647 150.051 401.86 149.418 402.5 148.151 403.78 147.94 406.552 148.362 412.524L150.895 451.34 151.317 458.378C151.951 468.616 152.162 471.815 163.771 471.388V475.441H125.988V471.388C128.732 471.175 132.743 470.962 135.275 470.109 137.386 469.256 138.653 467.976 138.653 465.203 138.653 464.137 138.231 460.511 138.231 459.445L137.808 451.554 135.275 408.898 116.701 451.554 106.358 475.654H102.558L92.4267 451.554 74.485 408.898 70.8967 451.34z" fill="#000"/></svg>