<svg id="Layer_1" xmlns="http://www.w3.org/2000/svg" xmlns:xlink="http://www.w3.org/1999/xlink" viewBox="0 0 150 150" style="enable-background:new 0 0 150 150"><style>.st0{fill:url(#SVGID_1_)}.st1{fill:url(#SVGID_2_)}.st2{fill:none;stroke:#ec008c;stroke-width:.01304883;stroke-miterlimit:22.926}.st3{stroke:#000;stroke-width:.01304883;stroke-miterlimit:22.926}</style><linearGradient id="SVGID_1_" gradientUnits="userSpaceOnUse" x1="-47.8641" y1="365.5355" x2="-47.8641" y2="358.447" gradientTransform="matrix(21.3394 0 0 -21.3394 1098.327 7799.9653)"><stop offset="0" style="stop-color:#e8e8e8"/><stop offset="1" style="stop-color:#9c9c9c"/></linearGradient><path class="st0" d="M110.5 1H43.4C38.2 1 34 5.2 34 10.4v129.5c0 5.2 4.2 9.4 9.4 9.4.0.0.0.0.0.0h67.2c2.5.0 4.8-1 6.6-2.8 1.8-1.8 2.7-4.2 2.7-6.7V10.4C119.9 5.2 115.7 1 110.5 1zm6 138.9c0 1.6-.6 3.1-1.7 4.3-1.1 1.1-2.6 1.8-4.2 1.8H43.4c-1.6.0-3.1-.6-4.3-1.8-1.1-1.1-1.8-2.7-1.8-4.3V10.4c0-3.3 2.7-6.1 6.1-6.1h67.1c3.4.0 6 2.7 6 6.1V139.9v0z"/><linearGradient id="SVGID_2_" gradientUnits="userSpaceOnUse" x1=".5563" y1="-111.585" x2="4.0199" y2="-118.8346" gradientTransform="matrix(21.3394 0 0 -21.3394 31.3576 -2376.363)"><stop offset=".08299999" style="stop-color:#fff"/><stop offset=".611" style="stop-color:#a8a8a8"/><stop offset="1" style="stop-color:#fff"/></linearGradient><path class="st1" d="M112.3 141.8c.5-.5.7-1.2.7-1.9V10.4c0-1.5-1.1-2.7-2.6-2.7h-67.1c-1.5.0-2.7 1.2-2.7 2.7v129.5c0 1.5 1.2 2.7 2.7 2.7.0.0.0.0.0.0h67.2C111.2 142.6 111.8 142.3 112.3 141.8"/><path class="st2" d="M116.4 145.8c-1.6 1.6-3.6 2.4-5.8 2.4H43.4c-2.2.0-4.3-.9-5.9-2.4-1.6-1.6-2.4-3.7-2.4-5.9V10.4c0-4.6 3.7-8.3 8.3-8.3h67.1c4.6.0 8.3 3.7 8.3 8.3v129.5C118.8 142.1 118 144.2 116.4 145.8z"/><g><path class="st3" d="M45.6 138.6h2.2c-.1-.4-.2-.8-.2-1.2v-7c0-.5.3-.5.6-.2l7.2 8.4h2.2l-7.4-8.7c-.2-.2-.2-.5.1-.5h.8c2 0 3.7-1.6 3.7-3.7.0-2-1.6-3.7-3.7-3.7h-5.3c.1.3.2.6.2 1.2v14.2C45.8 137.8 45.7 138.2 45.6 138.6v0zM47.5 123.6h3.4c1.1.0 2 .9 2 2 0 1.1-.9 2-2 2h-3.4v-4 0zM93.7 66.9c-3 7.4-9.8 9.8-9.8 9.8l2.5 5.1c0 0 .3-.1.9-.3 1.5 1.7 7.5 9.2 7.8 20.9.0.0.4 4.8-3.9 8.2h13.1c0 0-1.7-1.1-2.4-4.1-.7-3-.5-8.4-3.4-14.8-2.3-5.2-5.5-10.5-6.7-12.4 3.5-2.1 7.8-5.9 10.1-12.2 4.4-11.8-4.1-20.6-12-22.2.0.0 2.2 4 2.5 6.9C92.5 51.8 97.5 57.3 93.7 66.9v0zM105.6 19.5c-.6-.4-2.4-2.1-3.1-2.6-.5-.4-1.4-3.4 1.3-3.4 1.3.0 2.5 1 3 1.3l.8-1.9c-.5-.1-.9-.2-1.3-.4-.5-.2-1.5-.6-2.4-.6-.9.0-3.5.5-3.6 3.3-.1 2.3 1.4 3.4 2 3.8.8.6 2.9 2.2 3.8 3.5.9 1.3 1.4 4-1.9 4.4-1.1.0-2.4-.6-3.1-1l.3 2.3c.7-.1 1.1.0 1.4.1.5.1 1.2.2 1.9.2.7.0 4-.6 4-3.9C108.4 21.5 106.4 20.1 105.6 19.5v0zM93 139.1c1.8.0 3.4.0 4.8-1l-.1-2c-1.2 1.2-2.9 1.4-4.7 1.4-3.7.0-6.7-3.4-6.7-7.1.0-3.7 3-6.9 6.7-6.9 1.7.0 3.2.5 4.5 1.5l-.2-2c-1.3-.8-2.6-1.1-4.3-1.1-4.6.0-8.3 4-8.3 8.5C84.7 135.1 88.4 139.1 93 139.1zM65.1 138.8c4.6.0 8.3-3.7 8.3-8.3.0-4.6-3.7-8.3-8.3-8.3s-8.3 3.7-8.3 8.3C56.8 135.1 60.6 138.8 65.1 138.8zM65.1 123.8c3.7.1 6.6 3.2 6.5 6.9-.1 3.6-3 6.4-6.5 6.5-3.7.0-6.7-3-6.7-6.7C58.4 126.8 61.4 123.8 65.1 123.8v0zM107.2 138.8l1.2-2c-.8.4-2.6.4-3.7.4-1.1.0-1.6-.6-1.6-1v-5.5c0-.7.4-.9.9-.9h2.9v-1.7h-2.9c-.5.0-.9-.2-.9-.9v-2.6c0-.5.5-1 1.6-1 1.1.0 2.1.0 2.9.4l-.5-2h-6c.1.3.2.6.2 1.2v14.2c0 .4-.1.8-.2 1.2L107.2 138.8v0zM78.3 137.6c0 .4-.1.8-.2 1.2h2.2c-.1-.4-.2-.8-.2-1.2h0V130l4.6-7.9h-1.9l-3.4 6-3.4-6h-1.9l4.4 7.9L78.3 137.6v0zM78.6 83.9c-.4-1.2-1.7-3.9-2.3-4.9-2.4.4-4.7.5-6.5.5v-1.3c-.8.3-4.6.8-6.1 1v26.3c0 2.8-1.2 4.1-2 5.3h10.2c-.8-1.2-2-2.5-2-5.3V84.6C72.9 84.7 76 84.4 78.6 83.9v0zM79.9 25.4V12.6c0-.6.1-.9.2-1.2h-2.2c.1.3.2.6.2 1.2v14.2c0 .4-.1.8-.2 1.2h6l1.2-2c-.8.4-2.6.4-3.7.4C80.4 26.5 79.9 25.9 79.9 25.4zM66.2 11.4c-4.6-.1-8.4 3.6-8.4 8.2s3.6 8.4 8.2 8.4c.1.0.2.0.3.0 4.6-.1 8.2-3.9 8.2-8.5C74.3 15.1 70.7 11.5 66.2 11.4v0zM66.2 26.4c-3.7.1-6.8-2.8-6.9-6.5-.1-3.7 2.8-6.8 6.5-6.9.1.0.2.0.3.0 3.7.1 6.6 3.2 6.5 6.9C72.7 23.4 69.8 26.3 66.2 26.4zM91.3 25.4v-12.9c0-.6.1-.9.2-1.2h-2.2c.1.3.2.6.2 1.2v14.2c0 .4-.1.8-.2 1.2h6l1.2-2c-.8.4-2.6.4-3.7.4C91.9 26.5 91.3 25.9 91.3 25.4v0zM51.2 18.7h.8c2-.1 3.6-1.7 3.6-3.8-.1-2-1.6-3.5-3.6-3.6h-5.3c.1.3.2.6.2 1.2v14.2c0 .4-.1.8-.2 1.2h2.2v0c-.1-.4-.2-.8-.2-1.2v-7c0-.5.3-.5.6-.2l7.2 8.4h2.2l-7.4-8.8C50.9 19 50.9 18.7 51.2 18.7v0zM48.6 17v-4H52c1.1.0 2 1 1.9 2.1.0 1.1-.9 1.9-1.9 1.9H48.6v0z"/><path class="st3" d="M49.6 104.2h10.2c-.8-1.2-2-2.5-2-5.3V78C64.7 78 70.4 76.9 75 75c7 7.5 7.8 18.4 8 21.4.1 3-1.4 5.6-3.8 7.8h13.3c-2-1.1-2.8-4-2.9-6.7-1.3-12.5-8.3-22.2-10-24.7 7.9-4.7 11.4-12 11.4-18.7.0-11.1-9.8-16.4-18.3-16.4H50.2c.8 1.2 1.4 1.7 1.4 4.4V99C51.7 101.7 50.5 103 49.6 104.2v0zM57.8 41.7H71c9.1.0 12.1 5.8 12 11.9C82.4 70.4 65.6 73 57.8 73V41.7v0z"/><path class="st3" d="M110.5 6.6H43.4c-2.1.0-3.8 1.7-3.8 3.8v129.5c0 1 .4 2 1.1 2.7.7.7 1.7 1.1 2.7 1.1h67.2c1 0 1.9-.4 2.6-1.1.7-.7 1-1.7 1-2.7V10.4C114.3 8.3 112.6 6.6 110.5 6.6v0zM112 140.2c0 .8-.6 1.4-1.4 1.4H43.4c-.4.0-.7-.1-1-.4-.3-.3-.4-.6-.4-1v-21.2h70V140.2v0zM112 116.3H42V32.8l70-.1v83.6.0zM112 30H42V10.1c0-.4.1-.7.4-1s.6-.4 1-.4h67.2c.8.0 1.4.6 1.4 1.4V30v0z"/><path class="st3" d="M77.2 44.1h-14.9c.8 1.2 1.4 1.7 1.4 4.4V71c2-.2 4.7-1.1 6.1-1.6V48.1h10.8C80 46.6 78.4 44.9 77.2 44.1z"/></g></svg>