<svg id="Layer_1" xmlns="http://www.w3.org/2000/svg" xmlns:xlink="http://www.w3.org/1999/xlink" viewBox="0 0 150 150" style="enable-background:new 0 0 150 150"><style>.st0{fill:#fff38d}.st1{fill:#cc2132}.st2{fill:#fff}</style><g><path class="st0" d="M43.3 125.3"/><g><path d="M13.8 111.2c-7.1.0-12.8-5.8-12.8-13 0-7.1 5.7-13 12.8-13 4.7.0 8.8 2.5 11 6.3l-4.5 2.7c-1.3-2.1-3.8-3.7-6.5-3.7-4.1.0-7.6 3.6-7.6 7.7.0 4.1 3.6 7.7 7.6 7.7 2.7.0 5.2-1.5 6.5-3.8l4.6 2.7C22.6 108.7 18.5 111.2 13.8 111.2zM32.4 110.6h-5.5V86h5.5V110.6zM47.2 110.6h-5.5V91.2H34V86h21v5.2h-7.8V110.6v0zM61.8 97.3h5.9c2.1.0 3.9-.8 3.9-3.2.0-2.4-1.7-3.3-3.9-3.3h-5.9v6.5zm0 4.5v8.8h-5.3V86h12c5.3.0 8.4 2.9 8.4 8 0 4-2 6.6-5.4 7.4l6.5 9.2h-6.2l-5.7-8.8H61.8zM91.6 111.3c-7.2.0-13-5.9-13-13 0-7.1 5.8-13 13-13 7.2.0 13.2 5.8 13.2 13C104.8 105.5 98.8 111.3 91.6 111.3zm0-20.5c-4.2.0-7.5 3.4-7.5 7.6.0 4.1 3.4 7.5 7.5 7.5 4.2.0 7.5-3.3 7.5-7.5C99.2 94.2 95.8 90.8 91.6 90.8zM114.4 83.2c0 1.2-1.1 2.1-2.3 2.1-1.2.0-2.1-.9-2.1-2.1.0-1.2 1-2.2 2.2-2.2.0.0.0.0.0.0C113.4 81 114.4 82 114.4 83.2zM122.2 83.2c0 1.2-1 2.1-2.3 2.1-1.2.0-2.1-.9-2.1-2.1.0-1.2.9-2.2 2.1-2.2C121.2 81 122.2 82 122.2 83.2zM112.1 90.9v4.6h11.7v4.5h-11.7v5.5h13.3v5.1h-18.6V86h18.6v4.9H112.1v0 0zM132.7 94.4v16.2h-5.3V86h6.5l9.8 16.6V86h5.4v24.6h-6.6L132.7 94.4v0z"/><path class="st1" d="M99.6 73.6V24.2H50.3v49.4H99.6v0z"/><path class="st2" d="M51.9 72l23-19.8L98 72 75 41.6 51.9 72v0z"/><path class="st2" d="M75 25.9 52 56.2l23-19.8 23 19.8L75 25.9v0z"/></g></g></svg>