<svg id="Layer_1" xmlns="http://www.w3.org/2000/svg" xmlns:xlink="http://www.w3.org/1999/xlink" viewBox="0 0 150 150" style="enable-background:new 0 0 150 150"><style>.st0{fill:#f2cb59}.st1{fill:#b0b2b4}</style><path class="st0" d="M22.8 59.8c3.2 2.1 7.8 8.6 9.1 12.1C30.6 75.5 26 82 22.8 84.1V59.8z"/><path class="st1" d="M15.9 64.4c1.7.0 3.8.7 5.5 1.9v-7.3c-1.7-1-3.7-1.7-6.1-1.7-8.1.0-14.6 6.6-14.6 14.6.0 8.1 6.5 14.6 14.6 14.6 2.4.0 4.4-.6 6.1-1.6v-7.3c-1.7 1.2-3.8 1.9-5.5 1.9-4.6.0-7.9-3.3-7.9-7.5C8 67.7 11.4 64.4 15.9 64.4zM124.7 70v14.9h5.1V70.2c0-2 1.7-3.7 3.7-3.7h2.4v-4.9h-2.6C128.6 61.7 124.8 65.4 124.7 70v0zM147.3 80c-2 0-3.7-1.7-3.7-3.7v-9.8h5.7v-4.9h-5.7V57h-5.1v19.5c.2 4.6 4 8.2 8.6 8.3h2.6V80H147.3v0zM85.9 61.2c-2.5.0-4.9 1.1-6.5 3.1-1.6-1.9-4-3.1-6.6-3.1-4.5.0-8.2 3.5-8.4 7.9v15.7h5.2v-15c0-2.1 1.6-3.7 3.6-3.7 1.7.0 3.6 1.1 3.6 4.3v14.5h5.1V70.4c0-3 1.9-4.3 3.6-4.3 2.2.0 3.6 1.5 3.6 3.7v15.1h5.1V69.2C94 64.7 90.3 61.2 85.9 61.2zM109.3 61.3c-6.6.0-11.8 5.3-11.8 12 0 7 5 12.1 11.9 12.1 2.7.0 5.1-1 6.6-2.7v2.2h5.1V73.4C121.2 66.3 116.2 61.3 109.3 61.3zm7 12c0 4.2-2.8 7.1-6.9 7.1-3.8.0-7-3.2-7-7.1.0-3.9 3.1-7.1 7-7.1C113.2 66.2 116.3 69.4 116.3 73.3zM52.4 71c-5-.6-6-1.5-6-2.8.0-2.1 3.2-2.4 4.7-2.4 2.5.0 4.9 1 6.6 2.4l3.3-3.3c-1.3-1.1-4.4-3.7-10.6-3.7-6.1.0-9.4 3.7-9.4 7.2.0 4.2 3.2 6.5 9.9 7.2 2.8.3 4.9.7 4.9 2.6.0 3.6-9 3.2-12.6-.8l-3.6 3.6c.3.4 4.5 4.2 10.8 4.2 7.5.0 10.9-3.7 10.9-7.1C61.2 74 58.4 71.7 52.4 71v0z"/></svg>