<?xml version="1.0" encoding="UTF-8" standalone="no"?>
<svg
   xmlns:dc="http://purl.org/dc/elements/1.1/"
   xmlns:cc="http://creativecommons.org/ns#"
   xmlns:rdf="http://www.w3.org/1999/02/22-rdf-syntax-ns#"
   xmlns:svg="http://www.w3.org/2000/svg"
   xmlns="http://www.w3.org/2000/svg"
   viewBox="0 0 274.66666 422.66666"
   height="422.66666"
   width="274.66666"
   xml:space="preserve"
   id="svg2"
   version="1.1"><metadata
     id="metadata8"><rdf:RDF><cc:Work
         rdf:about=""><dc:format>image/svg+xml</dc:format><dc:type
           rdf:resource="http://purl.org/dc/dcmitype/StillImage" /></cc:Work></rdf:RDF></metadata><defs
     id="defs6" /><g
     transform="matrix(1.3333333,0,0,-1.3333333,0,422.66667)"
     id="g10"><g
       transform="scale(0.1)"
       id="g12"><path
         id="path14"
         style="fill:#ed1c24;fill-opacity:1;fill-rule:nonzero;stroke:none"
         d="M 412.141,147.406 H 211.078 c -60.109,-0.566 -51.648,53.047 -51.648,53.047 v 43.184 H 15.793 V 90.1016 c 0,0 -1.5821,-86.81644 80.1093,-86.81644 H 159.43 v 1.62109 h 320.457 c 93.562,0 101.238,115.17575 101.238,115.17575 l -1.062,477.637 H 437.57 V 174.848 c 0,0 2.637,-27.442 -25.429,-27.442" /><path
         id="path16"
         style="fill:#ed1c24;fill-opacity:1;fill-rule:nonzero;stroke:none"
         d="m 1230.99,590.98 h -59.92 L 1020.68,270.395 872.211,590.98 H 807.004 646.781 V 6.74219 H 807.004 V 335.102 L 948.84,18.3242 h 132.09 L 1230.99,328.07 V 6.74219 h 160.27 V 590.98 h -160.27" /><path
         id="path18"
         style="fill:#ed1c24;fill-opacity:1;fill-rule:nonzero;stroke:none"
         d="m 1874.8,162.484 h -243.73 c -27.78,2.383 -25.06,32.715 -25.06,32.715 v 200.86 c -1.45,51.289 39.96,41.855 39.96,41.855 l 224.41,0.977 c 0,0 32.62,0.898 32.39,-34.219 v -40.84 h 155.86 v 83.516 c -0.57,166.972 -146.39,146.191 -146.39,146.191 H 1588.27 C 1434.84,593.188 1449.88,437.914 1449.88,437.914 h 0.51 V 162.484 C 1452.47,-15.6602 1606.01,6.74219 1606.01,6.74219 h 296.76 c 147.52,0 155.86,136.79681 155.86,136.79681 v 91.016 h -155.86 v -39.356 c 0,0 1.87,-31.289 -27.97,-32.715" /><path
         id="path20"
         style="fill:#ed1c24;fill-opacity:1;fill-rule:nonzero;stroke:none"
         d="M 1020.68,1979.78 7.27734,3168.44 C 6.28125,3163.59 5.83203,3098.02 5.83203,3092.7 V 967.25 l 1.61328,-0.898 c -0.2539,-2.188 -0.63672,-4.18 -0.63672,-6.504 0,-31.524 25.76171,-57.403 57.40231,-57.403 15.2344,0 29.211,6.215 39.4731,16.016 l 0.656,-0.371 916.34,1061.69" /><path
         id="path22"
         style="fill:#ed1c24;fill-opacity:1;fill-rule:nonzero;stroke:none"
         d="m 1020.68,1979.78 1013.59,1188.66 c 0.9,-4.85 1.64,-70.42 1.64,-75.74 V 967.25 l -1.74,-0.898 c 0.28,-2.188 0.55,-4.18 0.55,-6.504 0,-31.524 -25.82,-57.403 -57.32,-57.403 -15.47,0 -29.2,6.215 -39.54,16.016 l -0.64,-0.371 -916.54,1061.69" /><path
         id="path24"
         style="fill:#ed1c24;fill-opacity:1;fill-rule:nonzero;stroke:none"
         d="m 1776.25,864.926 c -117.18,150.704 -551.14,704.574 -648.66,807.804 -113.48,120.17 -193.692,-3.48 -193.692,-3.48 l -652.585,-807.762 0.085,-0.175 c -11.914,-12.657 -19.441,-29.336 -19.441,-47.872 0,-38.164 31.168,-69.238 69.324,-69.238 2.836,0 5.41,0.43 8.047,0.938 l 0.266,-0.645 H 1719.72 l 0.21,0.899 c 3.44,-0.762 6.71,-1.192 10.28,-1.192 38.28,0 69.25,31.074 69.25,69.238 0,20.508 -8.94,38.77 -23.21,51.485" /></g></g></svg>