<?xml version="1.0" encoding="utf-8"?>
<!-- Generator: Adobe Illustrator 24.0.1, SVG Export Plug-In . SVG Version: 6.00 Build 0)  -->
<svg version="1.1" id="Layer_1" xmlns="http://www.w3.org/2000/svg" xmlns:xlink="http://www.w3.org/1999/xlink" x="0px" y="0px"
	 viewBox="0 0 678 277" style="enable-background:new 0 0 678 277;" xml:space="preserve">
<style type="text/css">
	.st0{fill-rule:evenodd;clip-rule:evenodd;fill:#1D519F;}
</style>
<g>
	<path class="st0" d="M231.5,109.2l-13.8,34.6c0,0-5.3,12.3,7.2,14.1h75.1c0,0,7.2-3.1,7.8-10.1h-61.2c0,0-4.5-0.1-5.5-2
		c-1.1-1.9-0.3-3.3,0.1-4.7c0.4-1.4,12.9-32,12.9-32L231.5,109.2L231.5,109.2z M329.7,109.1H352l-19.4,48.8h-21.5L329.7,109.1
		L329.7,109.1z M338.6,158h23.1l7.7-19.4h53.8c0,0,5.5-1.3,7.6-8h-58.2l3.6-9.2c0,0,0.7-3.2,5.5-3.7c4.7-0.5,60.9,0,60.9,0
		s7.1-3.3,7-8.7H367c0,0-8.3-0.5-12.6,8.6C350.2,126.7,338.6,158,338.6,158L338.6,158z M406.8,158c0,0,61.4-46.5,62.9-47.3
		c1.5-0.8,4.7-2.6,9.8-1.6c5,1,7.1,6.7,7.1,6.7l12.3,37.2c0,0,1,1.9,0.4,3.4c-0.6,1.5-2.1,1.6-2.1,1.6h-45.6l-1.6-8.6h20.2
		c0,0,0.9,0.1,1.8-0.8c0.9-0.9,0.2-3.3,0.2-3.3s-4-13.3-4.4-14.6c-0.4-1.3-1.2-2.3-2.6-2.5c-1.4-0.2-2.7,0.6-3.7,1.3L423.1,158
		H406.8L406.8,158z M505.1,158l17.2-43.2c0,0,3-8.9,11.7-5.4l42,29.3c0,0,4,2.7,5.9-0.7l11.6-29.1h22.8l-16.2,40.2
		c0,0-2.7,7.5-7.9,9.1c-5.2,1.6-10.6-3.2-10.6-3.2L543.1,128c0,0-1.7-1.4-2.9-0.9c-1.2,0.5-1.5,2-1.8,3c-0.4,1-11.1,28-11.1,28
		S505.1,158.1,505.1,158z"/>
	<path class="st0" d="M138.4,85.2l0.1,0.1l0.1,0.1l0.1,0.1l0.1,0l0.2,0l0.1,0l0.2,0l0.1,0l0.3,0l0.3,0l0.3,0h0.3l1.4,0.4l1.5,0.4
		l1.4,0.4l1.4,0.5l1.4,0.5l1.4,0.5l0.7,0.3l0.7,0.3l0.7,0.3l0.7,0.3l0.7,0.3l0.7,0.3l0.7,0.3l0.7,0.3l0.7,0.3l0.7,0.3l0.7,0.3
		l0.7,0.3l0.7,0.3l0.7,0.4l0.7,0.3l0.7,0.4l0.6,0.4l0.7,0.4l0.6,0.4l0.6,0.4l0.2,0.1l0.2,0.1l0.2,0.1l0.2,0.1l0.2,0.1l0.2,0.1
		l0.2,0.1l0.2,0.1l0.4,0.3l0.4,0.3l0.2,0.1l0.2,0.1l0.2,0.1l0.2,0.1l0.4,0.3l0.4,0.2l0.4,0.2l0.4,0.2l0.4,0.2l0.4,0.3l0.2,0.1
		l0.2,0.2l0.2,0.2l0.2,0.2l0.4,0.3l0.4,0.3l0.4,0.3l0.4,0.3l0.4,0.3l0.4,0.3l0.4,0.3l0.4,0.3l5.2,4.9l0,0.1l0,0.1l0,0.1l0,0.1
		l0.1,0.1l0.1,0.1l0.1,0.1l0.1,0.1l0.1,0.1l0.1,0.1l0.2,0.2l0.2,0.2l0.1,0.1l0.1,0.1l0,0l0,0.1l0,0.1v0.1l0.2,0.1l0.1,0.1l0.1,0.1
		l0.1,0.1l0.2,0.3l0.2,0.3l0.2,0.3l0.2,0.3l0.1,0.1l0.1,0.1l0.1,0.1l0.2,0.1l0.1,0.2l0.1,0.2l0.1,0.2l0.1,0.2l0.1,0.2l0.1,0.3
		l0.1,0.3l0.1,0.3l0.1,0l0.1,0.1l0.1,0.1l0.1,0.1l0.1,0.2l0.1,0.2l0.2,0.4l0.2,0.4l0.5,0.5l0.5,0.8l0.5,0.9l0.4,0.9l0.4,0.9l0.4,0.9
		l0.4,0.9l0.3,1l0.3,1l0.3,1l0.3,1l0.2,1l0.2,1l0.2,1l0.2,1l0.1,1l0.1,1l0.1,1l0.1,1.1l0,1l0,1.1v1.1l0,1.1l-0.1,1.1l-0.1,1.1
		l-0.1,1.1l-0.1,1l-0.2,1l-0.2,1l-0.2,1l-0.2,1l-0.3,1l-0.3,1l-0.2,0.6l-0.2,0.6l-0.2,0.6l-0.2,0.6l-0.2,0.6l-0.2,0.6l-0.3,0.6
		l-0.3,0.6l-0.3,0.6l-0.3,0.6l-0.3,0.6l-0.3,0.6l-0.3,0.6l-0.3,0.6l-0.3,0.6l-0.4,0.6L181,156l-0.4,0.6l-0.4,0.6l-0.4,0.5l-0.4,0.5
		l-0.4,0.5l-0.4,0.5l-0.4,0.5l-0.5,0.5l-0.5,0.5l-0.5,0.5l-0.5,0.5l-0.5,0.5l-0.5,0.5l-0.5,0.5l-0.5,0.5h-0.2l-0.3,0.4l-0.3,0.4
		l-0.1,0.2l-0.1,0.2L173,165l-0.1,0.2l-0.2,0.2l-0.2,0.2l-0.2,0.1l-0.2,0.1l-0.2,0.1l-0.2,0.1l-0.2,0.1l-0.2,0.1l-0.1,0.2l-0.1,0.2
		l-0.1,0.1l-0.1,0.1l-0.1,0.1l-0.1,0.1l-0.1,0.1l-0.1,0.1l-0.3,0.2l-0.3,0.2l-0.1,0.1l-0.1,0.1l-0.1,0.2l-0.1,0.2l-0.1,0l-0.1,0
		l-0.1,0l-0.1,0.1l-0.1,0.2l-0.1,0.2l-0.1,0.1l-0.1,0.1l-0.1,0.1l-0.1,0.1l-0.1,0.1l-0.1,0l-0.1,0l-0.1,0l-0.2,0.2l-0.2,0.2
		l-0.2,0.2l-0.2,0.2l-0.5,0.3l-0.5,0.3l-0.5,0.3l-0.5,0.3l-0.2,0.2l-0.2,0.2l-0.2,0.2l-0.2,0.2l-0.2,0.1l-0.2,0.1l-0.2,0.1l-0.2,0.1
		l-0.3,0.2l-0.3,0.2l-0.3,0.2l-0.3,0.2l-0.2,0.1l-0.2,0.1l-0.2,0.1l-0.2,0.1l-0.5,0.5l-0.7,0.3l-0.8,0.4l-0.7,0.4l-0.7,0.4l-0.7,0.3
		l-0.7,0.3l-0.7,0.3l-0.7,0.3l-0.7,0.3l-0.7,0.3l-0.8,0.3l-0.8,0.3l-0.8,0.3l-0.8,0.3l-0.8,0.2l-0.8,0.2l-0.4,0.2l-0.4,0.2l-0.4,0.1
		l-0.4,0.1l-0.4,0.1l-0.4,0.1l-0.4,0.1l-0.4,0.1l-0.3,0.1l-0.3,0.1l-0.3,0.1l-0.3,0.1l-0.3,0.1l-0.3,0.1l-0.1,0l-0.1,0l-0.1,0
		l-0.1,0l-0.2,0.1l-0.2,0.1l-0.2,0.1l-0.2,0.1l-0.2,0.1l-0.2,0l-0.2,0l-0.2,0l-0.2,0l-0.2,0l-0.2,0l-0.2,0.1l-0.2,0.1l-0.2,0.1
		l-0.2,0.1l-0.2,0.1l-0.8,0.2l-0.9,0.2l-0.9,0.2l-0.9,0.2l-0.9,0.2l-0.9,0.2l-0.9,0.1l-0.9,0.1l-0.9,0.1l-0.9,0.1l-0.9,0.1l-0.9,0.1
		l-0.9,0.1l-0.9,0.1l-0.9,0.1l-0.9,0.1l-0.9,0l-0.9,0l-0.9,0l-0.9,0l-0.9,0l-0.9,0h-0.9l-0.9,0l-0.9,0l-0.9,0l-0.9,0l-0.9,0
		l-0.9-0.1l-0.9-0.1l-0.9-0.1l-0.9-0.1l-1.4-0.2l-1.4-0.2l-1.4-0.2l-1.4-0.2l-1.4-0.3l-1.4-0.3l-1.4-0.3l-1.4-0.3l-1.4-0.3l-1.4-0.3
		l-1.4-0.4l-1.4-0.4l-1.3-0.4l-1.3-0.4l-1.3-0.5l-1.3-0.5l-0.4-0.2l-0.4-0.2l-0.4-0.2l-0.4-0.2l-0.2-0.1l-0.2-0.1l-0.2-0.1l-0.2-0.1
		l-0.2,0l-0.2,0l-0.2,0l-0.2,0l-0.4-0.3l-0.4-0.3l-0.4-0.3l-0.5-0.3l-0.2-0.1l-0.2-0.1l-0.2-0.1l-0.2-0.1l-0.2-0.1l-0.2-0.1
		l-0.3-0.1l-0.3-0.1l-1.1-0.7l-1.1-0.7l-1.1-0.7l-1.1-0.7l-1.1-0.7l-1.1-0.7l-0.6-0.4l-0.5-0.4l-0.5-0.4l-0.5-0.4l-0.5-0.4l-0.5-0.4
		l-0.5-0.4l-0.5-0.4l-0.5-0.4l-0.5-0.4l-0.5-0.4l-0.5-0.4l-0.5-0.4l-0.5-0.5l-0.5-0.5l-0.5-0.5l-0.5-0.5l-0.5-0.5l-0.5-0.5l-0.5-0.5
		l0-0.1l-0.1-0.1l-0.1-0.1l-0.1-0.1l-0.3-0.2l-0.3-0.2l-0.3-0.2l-0.3-0.3l-0.1-0.1l-0.1-0.2l-0.1-0.2l-0.1-0.2l-0.2-0.1l-0.1-0.1
		l-0.1-0.2l-0.1-0.1l-0.2-0.3l-0.2-0.3l-0.1-0.2l-0.1-0.2l-0.1-0.2l-0.1-0.1l-0.1-0.2l-0.2-0.1l-0.2-0.1l-0.2-0.1l-0.1-0.3l-0.1-0.3
		l-0.1-0.3l-0.1-0.3l-0.2-0.3l-0.2-0.3l-0.2-0.3l-0.2-0.3l-0.1,0l-0.1-0.1l-0.1-0.1l0-0.1l-0.1-0.2l-0.1-0.2l0-0.1l0-0.1l0-0.1
		l-0.1-0.1l-0.1-0.1l-0.1-0.1l-0.1-0.1l-0.1,0l0-0.2l0-0.2l0-0.2l-0.1-0.1l-0.1-0.2l-0.1-0.1l-0.1-0.1l-0.1-0.1l-0.2-0.3l-0.2-0.3
		l-0.1-0.2l-0.1-0.2l-0.1-0.2l0-0.2l-0.2-0.2l-0.4-0.9l-0.4-0.9l-0.4-0.9l-0.4-0.9l-0.3-0.9l-0.3-0.9l-0.3-0.9l-0.3-0.9l-0.2-1
		l-0.2-1l-0.2-1l-0.2-1l-0.2-1l-0.1-1l-0.1-1l-0.1-1l-0.1-1l0-1l0-1v-1l0-1l0-1l0.1-1l0.1-1l0.1-1l0.1-1l0.2-1l0.2-1l0.2-1l0.2-1
		l0.3-0.9l0.3-0.9l0.2-0.6l0.2-0.6l0.3-0.6l0.3-0.6l0.3-0.6l0.3-0.6l0.3-0.6l0.3-0.6l0.3-0.6l0.3-0.6l0.3-0.6l0.4-0.6l0.4-0.6
		l0.4-0.6l0.4-0.6l0.4-0.6l0.4-0.6l0.4-0.6l0.4-0.6l0.4-0.6l0.5-0.6l0.5-0.6l0.5-0.6l0.5-0.6l0.5-0.6l0.5-0.6l0.5-0.5l0.5-0.5
		l0.5-0.5l0.5-0.5l0.5-0.5l0.5-0.5l0.2-0.1l0.2-0.1l0.1-0.1l0.1-0.1l0.1-0.1l0.1-0.1l0.1-0.1l0.1-0.1l0.2-0.2l0.2-0.2l0.1-0.1
		l0.1-0.1l0.1-0.1l0.1-0.1l0.1-0.2l0.1-0.2l0.1-0.1l0.1-0.1l0.3-0.2l0.3-0.2l0.3-0.2l0.3-0.2l0.1-0.1l0.1-0.1l0.1-0.1l0.1-0.1
		l0.3-0.2l0.3-0.2l0.3-0.2l0.3-0.2l0.3-0.2l0.3-0.1l0.3-0.1l0.3-0.1l0.1-0.1l0.1-0.1l0.1-0.1l0.1-0.1l0.2-0.2l0.3-0.2l0.3-0.2
		l0.2-0.2l0.1-0.1l0.1-0.1l0.1-0.1l0.1-0.1l0.2,0l0.2-0.1l0.2-0.1l0.2-0.1l0.3-0.2l0.3-0.2l0.3-0.2l0.3-0.2l0.2-0.1l0.2-0.1l0.2-0.1
		l0.2,0l0.1-0.1l0.1-0.1l0.1-0.1l0.1-0.1l0.3-0.2l0.3-0.2l0.3-0.2l0.3-0.1l0.3-0.2l0.3-0.2l0.7-0.4l0.7-0.4l0.7-0.3l0.7-0.3l0.7-0.3
		l0.7-0.3l0.7-0.3l0.7-0.3l0-0.1l0-0.1l0-0.1l0,0l0,0l0.1,0l0,0h0.1l0.2,0l0.3,0l0.8-0.4l0.9-0.4l0.9-0.4l0.9-0.3l0.9-0.3l0.9-0.3
		l0.9-0.3l0.9-0.3l0.9-0.3l0.9-0.3l0.9-0.3l0.9-0.2l0.9-0.2l0.9-0.2l0.9-0.2l0.9-0.2l0.1-0.1l0.1,0l0.1,0l0.1,0l0.1,0l0.1,0l0.1,0
		l0.1,0l0.2,0l0.2,0h0.1l0.1,0l0.1,0l0.1,0l0.9-0.2l0.9-0.2l0.9-0.2l0.9-0.2l0.9-0.2l0.9-0.1l0.9-0.1l0.9-0.1l0.9-0.1l0.9-0.1
		L114,84l0.9-0.1l0.9-0.1l1-0.1l0.9,0l1,0l1,0l1,0h1h1l0.9,0l1,0l0.9,0l0.9,0l0.9,0.1l0.9,0.1l0.9,0.1l0.9,0.1l0.9,0.1l0.9,0.1
		l0.9,0.1l0.9,0.1l0.6,0.1l0.6,0.1l0.6,0.1l0.6,0.1l0.6,0.1l0.6,0.1l0.6,0.1L138.4,85.2L138.4,85.2z M144.3,90.9l-1-0.3l-1-0.3
		l-1-0.3l-1-0.3l-1.1-0.3L138,89l-1.1-0.3l-1.1-0.3l-1.1-0.2l-1.1-0.2l-1.1-0.2l-1.1-0.2l-1.1-0.2l-1.1-0.2l-1.1-0.1l-1.1-0.1
		l-1.5-0.1l-1.5-0.1l-1.4,0l-1.5,0h-1.4l-1.4,0l-0.7,0l-0.7,0l-0.7,0l-0.7,0l-0.7,0l-0.7,0l-0.7,0.1l-0.7,0.1l-0.7,0.1l-0.7,0.1
		l-0.7,0.1l-0.7,0.1l-0.7,0.1l-0.7,0.1l-0.7,0.1l-0.7,0.1l-0.7,0.1l-0.7,0.1l-0.7,0.1l-0.7,0.2l-0.2,0.1l-0.2,0.1l-0.2,0.1l-0.2,0.1
		l-0.4,0.1l-0.4,0.1l-0.4,0.1l-0.4,0.1l-0.2,0.1l-0.2,0.1l-0.2,0.1l-0.2,0.1l-0.6,0.2l-0.6,0.2L99.2,90l-0.6,0.2l-0.6,0.2l-0.6,0.2
		l-0.6,0.2l-0.6,0.2l-0.7,0.3L95,91.4l-0.6,0.3L93.7,92l-0.6,0.3l-0.6,0.3l-0.6,0.3l-0.6,0.3l-0.6,0.3l-0.6,0.3l-0.6,0.3l-0.6,0.4
		L88,94.9l-0.6,0.4l-0.6,0.4L86.2,96l-0.4,0.2l-0.4,0.2l-0.2,0.1l-0.2,0.1l-0.2,0.2L84.8,97l-0.1,0.1l-0.1,0.1l-0.1,0.1l-0.1,0.1
		l-0.2,0.1l-0.2,0.1l-0.1,0l-0.1,0.1l-0.1,0.1l-0.1,0.1l-0.1,0.1l-0.1,0.1L83.2,98l-0.1,0.1l-0.3,0.2l-0.3,0.2l-0.3,0.2l-0.3,0.2
		L81.8,99l-0.3,0.2l-0.3,0.2L81,99.5l-0.2,0.2l-0.2,0.2l-0.2,0.2l-0.2,0.2l-0.4,0.3l-0.4,0.3l-0.2,0.2l-0.2,0.2l-0.2,0.2l-0.2,0.2
		l-0.2,0.2l-0.2,0.2l-0.2,0.2l-0.2,0.2l-0.2,0.1l-0.2,0.1l-0.2,0.1L77,103l-0.1,0.1l-0.2,0.1l-0.1,0.1l-0.1,0.1l-0.3,0.3l-0.3,0.3
		l-0.3,0.3l-0.3,0.3l-0.5,0.6l-0.6,0.6l-0.3,0.3l-0.3,0.3l-0.3,0.3l-0.3,0.3l0,0.1l0,0.1l0,0.1l-0.1,0.1l-0.1,0.1l-0.1,0.1l-0.1,0.1
		l-0.1,0.1l-0.1,0.1l-0.1,0.1l-0.1,0.1l-0.1,0.1l-0.1,0.1l0,0.1l0,0.1l0,0.1l-0.2,0.1l-0.1,0.1l-0.1,0.1l-0.1,0.1l-0.1,0.1l-0.1,0.1
		l-0.1,0.1l-0.1,0.1l-0.1,0.1l-0.1,0.1l-0.1,0.1l-0.1,0.1l-0.1,0.1l-0.1,0.1l-0.1,0.1l-0.2,0.1l-0.5,1l-0.5,0.9l-0.6,0.9l-0.5,0.9
		l-0.3,0.5l-0.3,0.5l-0.2,0.5l-0.2,0.5l-0.2,0.5l-0.2,0.5l-0.2,0.5l-0.2,0.5l-0.1,0.1l-0.1,0.1l-0.1,0.1l-0.1,0.2l-0.1,0.2l-0.1,0.2
		l-0.1,0.2l-0.1,0.2l-0.1,0.3l-0.1,0.3l-0.1,0.2l-0.1,0.1l-0.1,0.1l-0.1,0.1l-0.3,1.1l-0.3,1.1l-0.3,1.1l-0.3,1.2l-0.1,0.6l-0.1,0.6
		l-0.1,0.6l-0.1,0.6l-0.1,0.6l-0.1,0.6l-0.1,0.6l-0.1,0.6l-0.1,0.6l-0.1,0.6l0,0.6l0,0.6l0,0.6l0,0.6l0,0.6l0,0.6l0,0.6l0,0.6l0,0.6
		l0.1,0.6l0.1,0.6l0.1,0.6l0.1,0.6l0.1,0.6l0.2,1l0.2,1l0.2,1l0.3,1l0.1,0.5l0.1,0.5l0.1,0.5l0.1,0.5l0.2,0.5l0.2,0.5l0.2,0.5
		l0.2,0.4l0.1,0.4l0.1,0.3l0.1,0.4l0.2,0.3l0.2,0.3l0.2,0.3l0.2,0.3l0.2,0.3l0.4,0.7l0.4,0.7l0.2,0.4l0.2,0.4l0.2,0.4l0.1,0.4
		l0.1,0.1l0.1,0.1l0.1,0.1l0.1,0.1l0.1,0.1l0.1,0.1l0,0.1l0,0.1L69,154l0.1,0.2l0.1,0.1l0.1,0.1l0.1,0.1l0.1,0.1l0.1,0.3l0.1,0.2
		l0.1,0.2l0.1,0.2l0.1,0.2l0.1,0.2l0.1,0.2l0.1,0.3l0.1,0l0.1,0l0.1,0l0,0l0.1,0.1l0.1,0.1l0.1,0.2l0.1,0.2l0.1,0.1l0.1,0.1l0.1,0.1
		l0.1,0l0,0h0.1l0,0l0.1,0l0.1,0l0.1,0l0.1,0l0.1,0l1.6-3.3l1.6-3.3l1.6-3.3l1.6-3.3l1.6-3.3l1.6-3.3l1.6-3.3l1.6-3.3l1.6-3.3
		l1.6-3.3l1.6-3.3l1.6-3.3l1.6-3.3l1.6-3.3l1.6-3.3l1.6-3.3h24.7l0.2,0.2l-0.2,0.2l-0.3,0.6l-0.3,0.6l-0.3,0.6l-0.3,0.6l-0.3,0.6
		l-0.3,0.6l-0.3,0.6l-0.3,0.6l-0.3,0.6l-0.3,0.6l-0.3,0.6l-0.3,0.6l-0.3,0.6l-0.3,0.6l-0.3,0.6l-0.3,0.6l-0.4,0.7l-0.4,0.8l-0.4,0.8
		l-0.4,0.8l-0.4,0.8l-0.4,0.8l-0.4,0.8l-0.4,0.8l-0.4,0.8l-0.3,0.8l-0.3,0.8l-0.3,0.8l-0.4,0.8l-0.3,0.8l-0.3,0.8l-0.4,0.7l-0.5,0.2
		l-0.3,0.6l-0.3,0.6l-0.3,0.6l-0.3,0.6l-0.3,0.6l-0.3,0.6l-0.4,0.6l-0.4,0.6l-0.4,0.6l-0.4,0.6l-0.4,0.6l-0.4,0.5l-0.4,0.5l-0.4,0.5
		l-0.4,0.5l-0.4,0.5l0,0.1l0,0.1l0,0.1l0,0.1l-0.1,0.1l-0.1,0.1l-0.1,0.1l-0.1,0.1l-0.1,0.1l-0.1,0.1l-0.1,0.1l-0.1,0.1l-0.1,0.1
		l-0.1,0.1l-0.1,0.1l-0.1,0.1l0,0.1l0,0.1l0,0.1l0,0.1l-6.1,6.1h-0.1l-0.1,0l-0.1,0l-0.1,0.1l-0.2,0.2l-0.2,0.2l-0.2,0.2l-0.2,0.2
		l-0.1,0.1l-0.1,0.1l-0.1,0.1l-0.1,0l-0.1,0.1l-0.1,0.1l-0.1,0.1l-0.1,0.1l-0.2,0.2l-0.3,0.2l-0.1,0.1l-0.1,0.1L95,146l-0.1,0.1
		l-0.1,0.1l-0.1,0.1l-0.1,0.2l-0.1,0.2l-0.2,0.1l-0.2,0.1l-0.2,0.1l-0.2,0.1l-0.2,0.1l-0.2,0.1l-0.2,0.1l-0.2,0.2l-0.4,0.3l-0.4,0.3
		l-0.4,0.4l-0.4,0.4l-0.8,0.4l-0.8,0.4l-0.8,0.4l-0.8,0.4l-0.8,0.4l-0.8,0.4l-0.8,0.4l-0.8,0.4l-0.8,0.4l-0.8,0.4l-0.8,0.4l-0.8,0.4
		l-0.8,0.3l-0.8,0.4l-0.8,0.3l-0.8,0.3l-0.2,0.1l-0.2,0.1l-0.2,0.1l-0.2,0l-0.4,0.1l-0.4,0.1l-0.2,0l-0.2,0.1l-0.2,0.1l-0.1,0.1
		l-0.1,0.1L76,156l-0.1,0.1l0,0.1l-0.1,0.1l0,0.1l26.8,0.2l-0.1,0.4l-0.1,0.4l-0.1,0.4l-0.1,0.4l-0.3,0.7l-0.3,0.7l-0.3,0.7
		l-0.3,0.7l-0.3,0.7l-0.3,0.7l-0.1,0.1l-0.1,0.1l0,0.1l0,0.1l-0.1,0.2l-0.1,0.2l0,0.1l0,0.1l0,0.1l-0.1,0.1l-0.1,0.1l-0.1,0.1
		l-0.1,0.1l-0.1,0.1L77.7,164v0.2l0.2,0.3l0.2,0.3l0.2,0.3l0.3,0.3l0.1,0.1l0.1,0.1l0.1,0.1l0.2,0.1l0.2,0.1l0.2,0.1l0.2,0.1
		l0.2,0.1l0.1,0.2l0.1,0.2l0.1,0.1l0.1,0.1l0.1,0.1l0.1,0.1l0.1,0.1l0.1,0.1l0.3,0.2l0.3,0.2l0.1,0.1l0.1,0.1l0.1,0.2l0.1,0.2H82
		l0.1,0l0.1,0l0.1,0l0.1,0.1l0.1,0.1l0.1,0.1l0.1,0.1l0.1,0l0.1,0l0.1,0l0.1,0l0.1,0.2l0.1,0.1l0.1,0.1l0.1,0.1l0.2,0.1l0.1,0.1
		l0.2,0.1l0.1,0.1l0.2,0.1l0.1,0.1l0.2,0.1l0.1,0.1l0.1,0.1l0.1,0.1l0.1,0.1l0.1,0.2l0.2,0.1l0.2,0.1l0.2,0.1l0.2,0.1l0.4,0.2
		l0.4,0.2l0.2,0.1l0.2,0.1l0.2,0.1l0.2,0.1l0.2,0.1l0.2,0.1l0.2,0.1l0.2,0l0.2,0.2l0.2,0.2l0.2,0.1l0.2,0.1l0.4,0.2l0.4,0.2l0.4,0.2
		l0.4,0.2l0.4,0.2l0.4,0.2l0.8,0.3l0.8,0.3l0.4,0.2l0.4,0.2l0.4,0.2l0.4,0.2l1.3,0.5l1.3,0.5l1.3,0.5l1.3,0.4l1.3,0.4l1.4,0.4
		l1.4,0.3l1.4,0.3l1.4,0.3l1.4,0.2l1.5,0.2l1.5,0.2l1.5,0.2l1.5,0.1l1.5,0.1l1.5,0.1l1.5,0l1.5,0h1.5l1.5,0l1.5-0.1l1.5-0.1l1.5-0.1
		l1.5-0.2l1.4-0.2l1.4-0.2l1.4-0.2l1.4-0.3l1.4-0.3l1.4-0.3l1.3-0.4l1.3-0.4l0.4-0.1l0.4-0.1l0.4-0.1l0.4-0.1l0.4-0.1l0.4-0.1
		l0.4-0.1l0.4-0.1l0.3-0.2l0.2-0.1l0.2-0.1l0.2-0.1l0.2-0.1l0.2,0l0.1,0l0.1,0l0.1,0h0.1l0.1,0l0.1,0l0.1,0l0.1,0l0.1-0.1l0.1-0.1
		l0.1,0l0.1,0l0.1,0l0.1,0l0.1,0h0.1l0.1,0l0.1,0l0.6-0.3l0.6-0.4l0.7-0.4l0.7-0.3l0.7-0.3l0.7-0.3l0.7-0.3l0.7-0.3l0.1-0.1l0.1-0.1
		l0.1-0.1l0.1-0.1l0.2-0.1l0.2-0.1l0.3-0.1l0.3-0.1l0.3-0.1l0.3-0.1l0.4-0.3l0.4-0.3l0.4-0.3l0.4-0.3l0.4-0.3l0.4-0.3l0.4-0.3
		l0.4-0.3l0.3-0.2l0.3-0.2l0.3-0.2l0.3-0.2l0.3-0.2l0.3-0.1l0.3-0.1l0.3-0.1l0.1-0.2l0.1-0.2l0.1-0.1l0.1-0.1l0.1-0.1l0.1-0.1
		l0.1-0.1l0.1-0.1l0.2-0.2l0.3-0.2l0.1-0.1l0.1-0.1l0.1-0.1l0.1-0.1l0.1,0l0.1-0.1l0.1-0.1l0.1-0.1l0.2-0.2l0.2-0.2l0.2-0.2l0.2-0.2
		l0.1-0.1l0.1-0.1l0.1-0.1l0.1,0l0.9-0.8l0.9-0.8l0.4-0.4l0.4-0.4l0.4-0.4l0.4-0.4l0.4-0.4l0.4-0.4l0.4-0.4l0.4-0.4l0.4-0.5l0.4-0.5
		l0.4-0.5l0.4-0.5l0-0.1l0-0.1l0-0.1l0.1-0.1l0.1-0.1l0.1-0.1l0.1-0.1l0.1-0.1l0.1-0.1l0.1-0.1l0-0.1l0-0.1l0-0.1l0-0.1l0.2-0.1
		l0.2-0.1l0.1-0.1l0.1-0.2l0.1-0.2l0.1-0.2l0.1-0.2l0.1-0.2l0.2-0.3l0.2-0.3l0.1-0.2l0.1-0.1l0.1-0.1l0.1-0.1l0.6-1l0.6-1l0.6-1
		l0.5-1l0.5-1.1l0.5-1.1l0.5-1.1l0.4-1.1l0.4-1.1l0.4-1.2l0.3-1.2l0.3-1.2l0.2-1.2l0.2-1.2l0.2-1.2l0.1-1.2l0.1-1.2l0.1-1.2l0-1.2
		v-1.2l0-1.2l-0.1-1.2l-0.1-1.2l-0.1-1.2l-0.2-1.2l-0.2-1.2l-0.3-1.2l-0.3-1.2l-0.3-1.2l-0.4-1.1l-0.4-1.1l-0.4-1.1l-0.2-0.4
		l-0.2-0.4l-0.2-0.4l-0.2-0.4l-0.4-0.7l-0.4-0.7l-0.4-0.8l-0.4-0.7l-0.4-0.8l-0.4-0.8l-0.2-0.4l-0.2-0.4l-0.1-0.2l-0.1-0.2l-0.1-0.2
		l-0.2-0.2l-0.1,0l-0.1,0l0,0l0,0l0,0l0,0l-0.1,0l-0.1,0l-0.5,1l-0.5,0.9l-0.5,1l-0.5,0.9l-0.5,1l-0.5,1l-0.5,0.9l-0.5,1l-0.5,1
		l-0.5,0.9l-0.5,1l-0.5,1l-0.5,0.9l-0.5,1l-0.5,1l-0.5,0.9l-0.2,0.3l-0.1,0.2l-0.1,0.2l-0.1,0.2l-0.1,0.2l-0.1,0.2l-0.1,0.2
		l-0.2,0.3l-0.1,0.1l-0.1,0.1l-0.1,0.1l-0.1,0.1l-0.1,0.2l-0.1,0.2l-0.1,0.2l-0.1,0.2l-0.1,0.1l-0.1,0.1l-0.1,0.1l-0.1,0.1l-0.1,0.1
		l-0.1,0.1l-0.1,0.1l-0.1,0.1l-0.2,0.2l-0.2,0.2l-0.1,0.1l-0.1,0.1l-0.1,0.1l-0.1,0.1l-0.1,0.1l0,0.1l0,0.1l0,0.1l-0.4,0.4l-0.4,0.4
		l-0.4,0.4l-0.4,0.4l-0.8,0.8l-0.8,0.8l-0.8,0.8l-0.8,0.8l-0.4,0.4l-0.4,0.4l-0.4,0.4l-0.4,0.4l-0.1,0l-0.1,0.1l-0.1,0.1l-0.1,0.1
		l-0.3,0.2l-0.3,0.2l-0.3,0.2l-0.3,0.2l-0.3,0.2l-0.3,0.2l-0.2,0l-0.2,0.1l-0.2,0.1l-0.2,0.1l-0.2,0.1L149,140l-0.2,0.1l-0.2,0.1
		l-0.2,0.1l-0.2,0.1l-0.2,0.1l-0.2,0.1l-0.2,0.1l-0.2,0.1l-0.2,0.1l-0.2,0l0,0.1l0,0.1l0,0l0,0l-0.1,0.1l-0.1,0.1l-0.1,0l-0.1,0
		l-0.1,0l-0.1,0l-0.1,0l-0.1,0l-0.1,0l-0.1,0l-0.1,0.1l-0.1,0.1l0,0l0,0.1l0,0l0,0.1l-0.3,0.2l-0.3,0.2l-0.3,0.2l-0.3,0.2l-0.6,0.3
		l-0.6,0.3l-0.6,0.3l-0.6,0.3l-0.3,0.1l-0.3,0.2l-0.3,0.2l-0.3,0.2l-0.1,0.1l-0.1,0.1l-0.2,0.1l-0.2,0l-0.3,0.1l-0.3,0.1l-0.1,0
		l-0.1,0.1l-0.1,0.1L139,145l0,0l-0.1,0.1l0,0l0,0.1l0,0.1l0,0.1l0,0.1l0,0.1l18.1,0.2l-0.1,0.4l-0.1,0.4l-0.1,0.3l-0.1,0.3
		l-0.2,0.3l-0.2,0.3l-0.2,0.3l-0.2,0.3l0,0.2l0,0.2l-0.1,0.2l-0.1,0.1l-0.1,0.3l-0.1,0.2l-0.2,0.2l-0.2,0.2l-0.2,0.2l-0.2,0.3h-20.9
		l-0.2-0.2l1.4-2.9l1.4-2.9l1.4-2.9l1.4-2.9l1.4-2.9l1.4-2.9l1.4-2.9l1.4-2.9l1.4-2.9l1.4-2.9l1.4-2.9l1.4-2.9l1.4-2.9l1.4-2.9
		l1.4-2.9l1.4-2.9h8.9l-0.1-0.2l-0.1-0.2l-0.1-0.2l-0.2-0.2l-0.2-0.2l-0.2-0.2l-0.2-0.2l-0.2-0.2l-0.4-0.4l-0.5-0.4l-0.4-0.4
		l-0.4-0.4h-0.2l-0.5-0.4l-0.5-0.4l-0.5-0.4l-0.5-0.4L159,99l-0.5-0.4l-0.5-0.4l-0.5-0.4l-0.5-0.4l-0.5-0.4l-0.5-0.3l-0.5-0.3
		l-0.5-0.3l-0.5-0.3l-0.5-0.3l-0.5-0.3l-0.6-0.3l-0.6-0.3l-0.6-0.3l-0.6-0.3l-0.6-0.3l-0.6-0.3l-0.6-0.3l-0.6-0.3l-0.6-0.3l-0.6-0.3
		l-0.6-0.3l-0.6-0.2l-0.6-0.2l-0.6-0.2l-0.6-0.2L144.3,90.9L144.3,90.9z M149.7,104.2h-21.4l-1.6,3.2l-1.6,3.2l-1.6,3.2l-1.6,3.2
		l-1.6,3.2l-1.6,3.2l-1.6,3.2l-1.6,3.2l-1.6,3.2l-1.6,3.2l-1.6,3.2l-1.6,3.2l-1.6,3.2l-1.6,3.2l-1.6,3.2l-1.6,3.2v0.5h26.6l0.1-0.4
		l0.2-0.4l0.2-0.3l0.2-0.3l0.4-0.7l0.4-0.7l0.2-0.3l0.2-0.3l0.1-0.3l0.1-0.3l0.1-0.3l0.1-0.3l0-0.2l0-0.2l0-0.2l0-0.2h-22.4
		l-0.5-0.5l0.9-0.3l0.9-0.3l0.9-0.3l0.9-0.3l0.4-0.2l0.4-0.2l0.4-0.2l0.4-0.2l0.4-0.2l0.4-0.2l0.4-0.2l0.4-0.3l0.4-0.1l0.3-0.1
		l0.3-0.1l0.3-0.2l0.7-0.3l0.6-0.3l0.6-0.3l0.6-0.3l0.6-0.4l0.6-0.3l0.1-0.1l0.1-0.1l0.1-0.1l0.1-0.1l0.2-0.1l0.2-0.1l0.2-0.1
		l0.2-0.1l0.1-0.1l0.1-0.1l0.1-0.1l0-0.1l0.3-0.2l0.3-0.2l0.3-0.2l0.3-0.2l0.3-0.2l0.3-0.1l0.3-0.1l0.3-0.1l0.1-0.2l0.1-0.2l0.1-0.1
		l0.1-0.1l0.1-0.1l0.1-0.1l0.1-0.1l0.1-0.1l0.3-0.2l0.3-0.2l0.1-0.1l0.1-0.1l0.1-0.1l0.1-0.1l0.1,0l0.1,0l0.1,0l0.1-0.1l0.1-0.2
		l0.1-0.2l0.1-0.1l0.1-0.1l0.1-0.1l0.1-0.1l0.1-0.1l0.1,0l0.1,0l0.1,0l0.8-0.8l0.8-0.8l0.7-0.7l0.7-0.7l0.7-0.7l0.7-0.7l0.7-0.8
		l0.8-0.8l0-0.1l0-0.1l0.1-0.1l0.1-0.1l0.1-0.1l0.1-0.1l0.3-0.3l0.4-0.3l0-0.1l0-0.1l0-0.1l0-0.1l0-0.1l0.1-0.1l0.1-0.1l0.1-0.1
		l0.1-0.2l0.1-0.1l0-0.1l0-0.1l0-0.1l0-0.1l0.3-0.3l0.2-0.3l0.2-0.3l0.2-0.3l0.2-0.3l0.2-0.3l0.2-0.3l0.2-0.3l0.4-0.6l0.4-0.6
		l0.2-0.3l0.2-0.3l0.2-0.3l0.2-0.3l0.2-0.4l0.2-0.4l0.2-0.4l0.2-0.4l0.2-0.3l0.2-0.4l0.2-0.4l0.3-0.3l0.6-1.2l0.6-1.2l0.6-1.2
		l0.6-1.2l0.6-1.2l0.6-1.2l0.6-1.2l0.6-1.2l0.6-1.2l0.6-1.2l0.6-1.2l0.6-1.2l0.6-1.2l0.6-1.2l0.6-1.2L149.7,104.2z"/>
</g>
</svg>
