<svg id="Layer_1" xmlns="http://www.w3.org/2000/svg" xmlns:xlink="http://www.w3.org/1999/xlink" viewBox="0 0 150 150" style="enable-background:new 0 0 150 150"><style>.st0{fill:#e92128}.st1{fill:#231f20}.st2{fill:#010101}</style><g><g><path class="st0" d="M64.2 23.7c-1.3.0-2.1.1-2.1.1 18.8 4.2 22.2 24 22.2 24C87.2 63.9 75.7 74 75.7 74c34.1-3.3 28-35 28-35-4.8 10.8-9 13.4-9 13.4C92.3 25.8 71 23.7 64.2 23.7v0z"/><g><g><path class="st0" d="M75.5 30.9c-34.1 3.3-28 35-28 35 4.8-10.8 9-13.4 9-13.4C59 79 80.2 81.2 87 81.2c1.3.0 2.1-.1 2.1-.1-18.8-4.2-22.2-24-22.2-24C64 41.1 75.5 30.9 75.5 30.9v0z"/></g></g></g><g><path class="st1" d="M2 99h27.7c0 0 5.3 2.2 5.5 6.6V121c0 0-.9 4.2-5.1 4.6H2v-16.7h9.5v10.3h15c0 0 1.2-.6 1.2-2.1v-8.9c0 0-.6-2.3-3.3-2.3H2V99z"/><path class="st1" d="M46.9 99h23.2v6.8H41.1C41.1 105.8 42.7 100.2 46.9 99z"/><path class="st1" d="M41.1 108.4H70.1V115.6H50.3V125.7H41.1z"/><path class="st2" d="M116.8 99.9h8.2v25.8H116.8z"/><path class="st2" d="M136.3 113.9H126.5L139.1 125.7H149z"/><path class="st0" d="M126.7 111.8H135.8L149 100.1h-9.5z"/><path class="st2" d="M107.5 99v6.8H77.4c0 0 .4-5.7 7.9-6.8H107.5z"/><path class="st2" d="M77.4 108.4h22.3c0 0 9.2 1.4 9.2 8.9.0 7.6-6.3 8-8.3 8.3H78.1v-5.7h20.7c0 0 2.3-.1 2.3-2.3s-2.1-2.1-2.1-2.1H85.1C85.1 115.5 77.1 113.4 77.4 108.4z"/></g></g><path class="st0" d="M75.5 21.3c8.3.0 16.1 3.2 21.9 9.1 5.9 5.9 9.1 13.7 9.1 21.9s-3.2 16.1-9.1 21.9c-5.9 5.9-13.7 9.1-21.9 9.1s-16.1-3.2-21.9-9.1c-5.9-5.9-9.1-13.7-9.1-21.9s3.2-16.1 9.1-21.9C59.4 24.5 67.2 21.3 75.5 21.3M75.5 16.7c-19.7.0-35.7 16-35.7 35.7C39.8 72 55.8 88 75.5 88c19.7.0 35.7-16 35.7-35.7S95.2 16.7 75.5 16.7v0z"/></svg>