<svg id="Layer_1" xmlns="http://www.w3.org/2000/svg" xmlns:xlink="http://www.w3.org/1999/xlink" viewBox="0 0 150 150" style="enable-background:new 0 0 150 150"><style>.st0{fill:#ed1c24}.st1{fill:#fff}</style><g><path class="st0" d="M1.8 61.6H149.3V89.7H1.8L15.2 75.5z"/><path class="st1" d="M119.2 67.3H117l-7 16.5h2.8l1.9-4.6h6.5l1.9 4.6h2.7L119.2 67.3v0zM115.7 76.7l2.3-6 2.5 6H115.7z"/><path class="st1" d="M1e2 67.3h3.9c2.9.0 4.7 1.4 5.6 3.2.3.7.5 1.4.5 2.2s-.1 1.5-.5 2.2c-.8 1.7-2.4 2.9-5 3.1l5.1 5.8h-3.2l-5.4-6.3-1.8-2h2.7 2.2c1.7.0 2.8-.7 3.3-1.7.2-.4.3-.8.3-1.2.0-.4-.1-.8-.3-1.2-.5-1-1.6-1.8-3.4-1.8h-3.9L1e2 67.3v0z"/><path class="st1" d="M90.6 81.6h8.3v2.2H90.6z"/><path class="st1" d="M90.6 67.3h8.3v2.2H90.6z"/><path class="st1" d="M90.6 74.6h8.3v2.2H90.6z"/><path class="st1" d="M87.4 80.4 77.8 67.3H75.6V83.8h2v-13L87.2 83.8H89.5V67.3H87.4z"/><path class="st1" d="M51 83.8h2.5V76.6H60.9V83.8H63.3V67.3H60.9V74.4H53.5V67.3H51z"/><path class="st1" d="M48.2 77.2c-.3-1.5-2.3-2.5-4-3-2.4-.7-5.2-.9-5.2-2.6.0-.4.1-.8.3-1.2 1.1-1.8 4.4-1.7 5.6.0.2.2.2.6.3.9h2.7c0-.6-.2-1.1-.4-1.5-.3-.6-.7-1-1.2-1.4-.5-.4-1.1-.7-1.8-.9-.7-.2-1.5-.3-2.4-.3-.9.0-1.7.1-2.4.3-.7.2-1.4.5-1.9.9s-.9.9-1.2 1.4c-.3.6-.4 1.2-.4 1.9.0.6.1 1.1.3 1.5.2.4.5.9 1 1.2.4.4 1 .6 1.7.9.7.3 1.5.5 2.5.6.7.1 1.3.3 1.8.4 1.6.4 2.2 1.4 2.1 2.4-.1 1.3-1.2 2.5-3.2 2.7-1.9.1-4-.4-4.1-2.8h-2.6c0 .8.2 1.4.4 2 .3.6.7 1.2 1.2 1.6.5.4 1.2.7 1.9.9s1.6.3 2.5.3c1 0 1.9-.1 2.7-.3s1.5-.5 2.1-.9c.6-.4 1-.9 1.3-1.5C48.3 79.8 48.4 78.4 48.2 77.2z"/><path class="st1" d="M130.6 74.9 126.4 67.3H123.2L129.2 77.6V83.8H131.9V77.6L137.9 67.3H134.6z"/><path class="st1" d="M70.7 67.3h4.5L67.9 83.8H63.4z"/><path class="st1" d="M28.2 62.1 14.8 75.4v0L28.2 88.7 23.9 75.4z"/></g></svg>