<?xml version="1.0" encoding="utf-8"?>
<!-- Svg Vector Icons : http://www.onlinewebfonts.com/icon -->
<!DOCTYPE svg PUBLIC "-//W3C//DTD SVG 1.1//EN" "http://www.w3.org/Graphics/SVG/1.1/DTD/svg11.dtd">
<svg version="1.1" xmlns="http://www.w3.org/2000/svg" xmlns:xlink="http://www.w3.org/1999/xlink" x="0px" y="0px" viewBox="0 0 1000 1000" enable-background="new 0 0 1000 1000" xml:space="preserve">
<metadata> Svg Vector Icons : http://www.onlinewebfonts.com/icon </metadata>
<g><path d="M500.1,71.1c32,1.1,64,1.8,96,3.5c46.1,2.4,91.9,7.8,137,17.7c38.3,8.4,75.4,20.2,110.3,38.5c65.2,34.1,108,86.7,129,157c7.6,25.5,12.2,51.5,14.8,77.9c3.6,36.7,3.4,73.4,1.1,110.1c-2.6,41.8-7.4,83.3-14.4,124.5c-7.3,43.2-17.7,85.6-34.5,126.2c-14.3,34.5-32.9,66.2-58.4,93.7c-26.5,28.6-58.2,49.9-93.8,65.4c-28.2,12.3-57.5,20.7-87.6,26.9c-31.7,6.5-63.7,10.3-95.9,12.7c-45.8,3.4-91.6,4.3-137.5,3.1c-24.1-0.6-48.1-1.6-72.1-3.3c-47.7-3.4-94.9-10.4-140.8-24.5c-32.3-9.9-62.8-23.5-90.8-42.7C125,832,96.4,798.2,74.9,758.1c-18.1-33.9-30.3-70-39.4-107.2c-8-32.7-13.4-65.8-17.5-99.1c-5-40.8-8.1-81.7-8-122.8c0.1-33.8,2.4-67.5,8.7-100.8c7.5-39.5,20.3-77,42.4-111c23.5-36.1,54.9-63.5,92.4-84.1c31-17,64.1-28.6,98.3-37.1c30.8-7.7,62-12.8,93.4-16.4c51.5-5.9,103.1-7.7,154.9-7.8C500.1,71.5,500.1,71.3,500.1,71.1z M499.9,112.2c-37.1,0.6-74.2,1.8-111.2,5.2c-28.5,2.6-56.8,6.6-84.8,12.8c-30.6,6.8-60.2,16.2-88.3,30.3c-42.2,21.2-75.7,51.5-98.6,93.2c-18.1,33-27.8,68.7-33.3,105.7c-3.7,24.7-5.3,49.6-5.5,74.5c-0.4,42.5,2,84.8,7.5,127c4,30.4,9.3,60.5,16.9,90.1c9.1,35.1,21.2,69,39.4,100.5c21.6,37.3,50.5,67.3,87.9,88.9c27.6,16,57.4,26.5,88.3,33.8c41.6,9.8,84,14.2,126.6,15.6c29.6,0.9,59.3,1,89,0.7c39.1-0.4,78.1-3.4,116.8-9.9c27.2-4.6,53.9-11.2,79.7-21c52.9-20.3,94.8-53.9,124.1-102.8c17.8-29.8,30-61.9,39.2-95.2c8.7-31.7,14.5-63.9,19-96.4c4.1-30,6.8-60.2,8.2-90.4c1.5-32.4,1.3-64.7-1.9-97c-2.7-27-7.5-53.7-15.8-79.6c-19-59.1-55-104.1-109.9-133.6c-28.5-15.3-58.8-25.5-90.1-32.8c-40.9-9.6-82.5-14.4-124.4-16.7C552.4,113.6,526.2,113.1,499.9,112.2z"/><path d="M503.2,843.8c-31.1,0-58.4-1.1-85.6-4.2c-37.2-4.3-73.4-12.2-107.9-27.2c-52.8-23-92.4-60.4-119.7-110.9c-17.5-32.2-28.8-66.6-36.8-102.3c-6.5-29.1-10.5-58.5-13.3-88.1c-2.6-27.3-3.7-54.7-2.5-82.1c1.7-39.5,7.8-78.1,22.7-115c22.5-55.6,61.8-94.9,116-119.8c28.3-13,58-21.3,88.6-26.8c53-9.5,106.6-11.3,160.3-10.2c23.2,0.5,46.3,1.8,69.4,4.4c43,4.8,85.1,13.4,125,31c36.7,16.2,68,39.3,92,71.8c19,25.8,31.4,54.6,39.2,85.5c9.1,35.7,11.9,72.1,11.4,108.8c-0.4,27.1-2.7,54.2-6.1,81.1c-4.3,34-10.7,67.5-21.1,100.2c-10.7,33.6-25.3,65.3-46.4,93.8c-29.5,40-68.1,67.6-114.5,84.8c-23.8,8.8-48.3,14.6-73.4,18.4C567,842.1,533.3,843.7,503.2,843.8z M676.3,216.2c-0.1,1.5-0.1,2-0.1,2.5c0.2,21.8,0.4,43.6,0.7,65.4c0.8,52.2,1.8,104.3,2.3,156.5c0.4,35.9-6.6,70.5-22.1,103c-14.9,31.1-30.7,61.9-46.6,92.5c-28.1,54-56.6,107.7-88.4,159.7c-0.6,1-1,2-1.4,3.1c-0.9,3,0,5.2,3,6c2.7,0.7,5.5,1.2,8.2,1.1c17.6-1.1,35.3-1.9,52.9-3.6c22.8-2.2,45.1-7,66.8-14.2c42.1-13.9,77.3-37.6,104.3-73c20.6-27,34.4-57.3,44.2-89.6c10.2-33.6,15.8-68.1,19-103c3.1-33.7,4.1-67.4,1-101.2c-2.1-23.3-6.2-46.3-13.2-68.6c-17-54.4-49.5-96.1-100.5-122.5C696.9,225.2,686.7,221,676.3,216.2z M326,223c-3.4,1.2-6.3,2.1-9.1,3.2c-27,9.8-51.5,23.8-72.2,44c-23.9,23.3-39.5,51.6-49.6,83.2c-10.9,34.3-14.7,69.7-15.1,105.6c-0.4,37.2,2.4,74.1,8.9,110.8c5.1,29.1,12.5,57.5,23.6,85c12.2,30.1,28.5,57.7,51.1,81.2c30.1,31.3,67,50.5,108.8,61.1c18.6,4.8,37.5,8,56.6,9.5c13.8,1.1,27.6,1.9,41.4,2.5c3,0.1,6.2-1,9.1-2c2-0.7,2.6-2.2,1.2-4.4c-3.3-5.1-6.5-10.4-9.6-15.7c-43-74.4-82.2-150.9-121.4-227.4c-18.7-36.4-27.1-75.3-26.7-116.2c0.3-27.3,0-54.6,0.3-81.9c0.5-40.9,1.4-81.7,2.1-122.6C325.4,233.8,325.8,228.6,326,223z M373.4,207.2c0.5,1.3,0.7,2,1,2.8c26.5,67.4,53,134.8,79.4,202.2c6.2,15.8,12.7,31.5,18.2,47.4c6,17.3,11.1,35,16.7,52.4c0.7,2.3,1.9,4.5,3.3,6.4c3.2,4.5,10.3,5.3,14.6,1.8c0.8-0.7,1.5-1.7,2-2.7c0.9-1.9,1.5-3.9,2.3-5.8c6.9-14.9,14.6-29.5,20.6-44.8c33.3-85.5,66.2-171.3,99.3-256.9c0.3-0.9,0.6-1.7,1-2.9C545.6,194.7,459.7,194.7,373.4,207.2z"/></g>
</svg>