<svg id="Layer_1" xmlns="http://www.w3.org/2000/svg" xmlns:xlink="http://www.w3.org/1999/xlink" viewBox="0 0 150 150" style="enable-background:new 0 0 150 150"><style>.st0{fill:#ed1c24}</style><g><g><path class="st0" d="M105 65.4c-2.6-.1-5.4 1.4-8.3 4.4-.7.4-1 .3-1.1-.3-1.1-2.6-2.5-4-4.1-4.2-2.1-.2-3.6.7-4.6 2.4l-2.5-2.3H78v20.8h6.8v-13c.2-.8.7-1.2 1.4-1.2.8.0 1.3.4 1.5 1.2v13h7.7v-4.1c.1-1 .5-1.3 1.1-.9 2.4 3.2 5.1 5 8 5.3 2.8.3 5.7-.4 8.8-2.3.5-.4.8-.4 1 0v2h7.9V59.2h-7.9v10c-.2.7-.6.8-1.2.3C111 66.7 108.3 65.3 105 65.4zM111.8 79.2c-.4-.4-.8-.4-1.3.0-1 1.1-2.4 1.5-4.1 1.3-1.7-.4-2.4-1.2-2.1-2.5l10.2-3.2v6.1c-.2.4-.5.4-1 0L111.8 79.2zM107.3 72.9l-4.6 1.6c.2-2.2.9-3.4 2.1-3.7C106.2 70.8 107 71.6 107.3 72.9z"/><path class="st0" d="M132.5 59.2h-8v27.1h8c0-.4.0-.7.0-1.1.2-.6.5-.7 1-.5 3 2.4 5.6 2.6 7.8.6.6-.3.9-.3 1.1.0.1.1.2.4.3 1.1h6.9V70.3c-.6-1.6-1.6-2.8-3.1-3.8-1.5-1-3.1-1.4-5-1.3-1.8.1-3.1.3-4 .7-.9.3-1.6.6-2.2.8v3.6c0 1 .4 1.3 1.3 1.1 2.3-.9 4.1-1.1 5.5-.6.9.6.9 1.3.0 1.9-4.5.0-7.7 1.9-9.8 5.5L132.5 59.2v0zM142.6 77.9v2.6c-.9.6-1.6.6-2.2.0C139.9 79.6 140.6 78.8 142.6 77.9z"/><path class="st0" d="M48.5 66.2c.6.0.8.2.6.7l-9.4 13.4v6.1h18.7v-1.2c.1-.6.4-.8.9-.6 3.1 2.4 5.7 2.6 7.8.6.6-.3 1-.3 1.1.0.1.1.2.4.3 1.1h6.8v-16c-.6-1.6-1.6-2.8-3.1-3.8-1.5-1-3.2-1.4-5-1.3-1.8.1-3.2.3-4 .7-.9.3-1.6.6-2.2.8v3.6c0 1 .4 1.3 1.3 1.1 2.2-.9 4.1-1.1 5.5-.6.9.6.9 1.3.0 1.9-4.9.0-8.4 2.2-10.4 6.7H52c-.8-.1-1.1-.4-.7-1l8.6-12.2v-6.9H41.2v7C41.2 66.2 48.5 66.2 48.5 66.2zM68.6 77.9v2.6c-.9.6-1.6.6-2.2.0C65.8 79.6 66.6 78.8 68.6 77.9z"/><path class="st0" d="M1.5 67.2c-.3.6-.2 1 .3 1l14.1.1c.8-.1 1.3.0 1.4.3l4.3 3.1 9.4-9c.3-.3.3-.6.0-.8l-5.2-3-15.6-.1L1.5 67.2z"/><path class="st0" d="M31.1 79.5c.3-.6.2-1-.3-1h-14.1c-.8.0-1.2-.1-1.4-.3l-4.3-3.1-9.3 9.1c-.3.3-.3.6.0.8l5.1 3H22.3l8.8-8.5z"/></g></g></svg>