<svg id="Layer_1" xmlns="http://www.w3.org/2000/svg" xmlns:xlink="http://www.w3.org/1999/xlink" viewBox="0 0 150 150" style="enable-background:new 0 0 150 150"><style>.st0{fill:#fff}</style><path class="st0" d="M14.4 69c8.8.0 21.1.8 27 3.2.5.2 1 .4 1 .8.0.5-1.2.9-2.3 1.3-4.3 1.4-12.1 2.9-23.4 3.7L6.1 67.5c-.8.0-1.7.0-2.5.1l10.9 10.9-2.9 4.3c17.6-2.8 25.5-5.6 29-7.2.8-.3 2.9-1.3 2.9-2.6.0-.8-.7-1.2-1.7-1.7-3.6-1.6-9.7-2.6-15.7-3.1-6.2-.6-14.5-.8-19.1-.7l9.8 9.8c1.9-.1 3.7-.3 5.5-.5L14.4 69z"/><path d="M13 83.8C6.1 82.5.9 78 .9 72.6c0-1.3.3-2.5.8-3.7C10 70.3 13.2 78.1 13 83.8v0zM17.2 84.2c.1.0.3.0.4.0-.3-8.8.9-19.3 1.6-23.1-1.3-.1-2.7-.1-4 0 .7 3.8 1.9 14.4 1.6 23.1C16.9 84.2 17.1 84.2 17.2 84.2zM18.4 84.2c.3.0.4.0.7-.1-.4-11 4-18 6.4-21.5-1-.4-2.1-.8-3.2-1.1C20.1 65.4 18.5 74.5 18.4 84.2v0zM19.9 84.1c.1.0.4.0.7-.1.0-11.9 7.3-15.9 10.3-17.6-.7-.8-1.6-1.5-2.5-2.1C20.5 71 19.7 77.5 19.9 84.1v0zM21.4 83.8c6.9-1.3 12.1-5.9 12.1-11.2.0-1.3-.3-2.5-.8-3.7C24.4 70.3 21.2 78.1 21.4 83.8v0zM16 84.2c-.3.0-.4.0-.7-.1.4-11-4-18-6.4-21.5 1-.4 2.1-.8 3.2-1.1C14.3 65.4 15.9 74.5 16 84.2zM14.5 84.1c-.1.0-.4.0-.7-.1.0-11.9-7.3-15.9-10.3-17.6.7-.8 1.6-1.5 2.5-2.1C13.9 71 14.7 77.5 14.5 84.1v0zM53.7 78.7l6.3-13h7.1l6.4 13H62.3L60.9 76h6.6l-3.8-7.7-5.2 10.4H53.7v0zM38.1 79H49c3.6.0 6.5-2.9 6.5-6.5.0-3.6-2.9-6.5-6.5-6.5H38.1V79v0zM42.8 76.3v-7.6H47c2.1.0 3.8 1.7 3.8 3.8.0 2.1-1.7 3.8-3.8 3.8H42.8v0zM107.9 65.7l-3.5 8.2-2.6-5.5 1.2-2.8h-6.4l1.3 2.7-2.7 5.6-3.5-8.2H74v13h14.1V76H79v-2.3h8v-2.9h-8v-2.2h9.9l4.2 10.1h3.8l3-6.2 3 6.3h3.8l5.4-13.1L107.9 65.7v0 0zM138.5 64.5c-4.6.0-8.4 2.5-9.3 5.9-.9-3.4-4.7-5.9-9.3-5.9-5.3.0-9.5 3.3-9.5 7.5.0 4.1 4.3 7.5 9.5 7.5 4.6.0 8.4-2.5 9.3-5.9.9 3.4 4.7 5.9 9.3 5.9 5.3.0 9.5-3.3 9.5-7.5C148 67.8 143.7 64.5 138.5 64.5zM138.5 76.8c-2.4.0-4.4-2.2-4.4-4.9.0-2.7 2-4.9 4.4-4.9s4.4 2.2 4.4 4.9C142.9 74.6 140.9 76.8 138.5 76.8zM119.8 76.8c-2.4.0-4.4-2.2-4.4-4.9.0-2.7 2-4.9 4.4-4.9s4.4 2.2 4.4 4.9C124.2 74.6 122.2 76.8 119.8 76.8z"/></svg>