<svg id="Layer_1" xmlns="http://www.w3.org/2000/svg" xmlns:xlink="http://www.w3.org/1999/xlink" viewBox="0 0 150 150" style="enable-background:new 0 0 150 150"><style>.st0{fill:#e92128}.st1{fill:#231f20}.st2{fill:#bdbcbc}.st3{clip-path:url(#SVGID_2_)}.st4{fill:url(#SVGID_3_)}.st5{fill:url(#SVGID_4_);stroke:#6d0115;stroke-width:.1181}.st6{fill:#6d0115}.st7{fill:#1a1a1a}.st8{fill:url(#SVGID_5_)}.st9{fill:url(#SVGID_6_)}.st10{fill:url(#SVGID_7_)}.st11{fill:url(#SVGID_8_)}</style><path class="st0" d="M75.5 21.3c8.3.0 16.1 3.2 21.9 9.1 5.9 5.9 9.1 13.7 9.1 21.9s-3.2 16.1-9.1 21.9c-5.9 5.9-13.7 9.1-21.9 9.1s-16.1-3.2-21.9-9.1c-5.9-5.9-9.1-13.7-9.1-21.9s3.2-16.1 9.1-21.9C59.4 24.5 67.2 21.3 75.5 21.3M75.5 16.7c-19.7.0-35.7 16-35.7 35.7C39.8 72 55.8 88 75.5 88c19.7.0 35.7-16 35.7-35.7S95.2 16.7 75.5 16.7v0z"/><path class="st1" d="M149 74.9c0 40.8-33 73.8-73.8 73.8-40.8.0-73.8-33-73.8-73.8.0-40.8 33-73.8 73.8-73.8C116 1.1 149 34.1 149 74.9"/><path class="st2" d="M146.4 74.9c0 39.3-31.9 71.2-71.2 71.2C35.9 146.1 4 114.2 4 74.9 4 35.6 35.9 3.7 75.2 3.7 114.5 3.7 146.4 35.6 146.4 74.9"/><path class="st1" d="M17.9 39c0 .1-7.9 1.3-7.9 1.3.0.2-.4 40.6 6.8 38.6 4.7-2.2 2.2-28.6 2.2-25 0 4.9.5 13 2.4 25.8 2.1 14.3 1.2 16.1 2.2 19.2-2.3-2.3-5.9-3.3-5.9-3.3l5.1 17.3h3.8c0 0 .1-1.2.1-1.2.1.0 3.7.3 6.2 4.8 14.4 26.3 52.2 16.2 42.3 16.8l15.6-1.9c-45.7 7.8-54.3-13.2-56.6-17.5-1.4-2.1-5.6-4.3-8.2-3.1.0.0 6.3.3 6.1-1.4 2 1.9-4.9-3.1-4.9-3.1l.3 1.1c1.1.1.6-1.1 1.7-1.2l-1.4-.6c-.2-.2.8-1.4-2.6-24.4-1.9-12.6-1.5-22.5-1.5-27.4.0-4.7-.3-5.1-.3-5.1l-2.8-1.8-.5-.1c-.8-.2-1.5-.4-1.9-.6.2-.3.3-.6.3-1.2.0-.5-.1-1.2-.1-2.2-.1-1.2-.1-5.6-.2-4.1-8.9 77 3.4-8.6 1.9-7l.9-1c4.2-4.8 18.8-16.1 56.4-17 39.8-.9 40 13.6 40.1 13.8l10.3 5.1c-.1-.2-13.5-22.5-54-21.5-38.1.9-49.4 13.9-53.7 18.9l-.8 1c-1.8 1.9-3.8 1.9-3.8 4.7.0 1.5-1.7 3.5-1.6 4.7C18.9 49.2 17.2 44.9 17.9 39v0zM126.9 35.3c-.9.4-.7 1.8-.6 3.7.1 1.5.3 3.1.0 4.3l1 .3c.3-1.3.2-3.1.0-4.6-.1-1-.2-2.5.0-2.7.0.0.3 11 2.6 13.6 3.6 4.2 1.8 1.8 1.8 9 0 3.6 2.7 7.7 2.6 9.2-1.3-1.7-1.7-6-2-9.9-.4-4.5-.7-8.4-2.3-9.7 2-1.7-4.9-10.9-4.4-4.7.3 2.2-.7-4.9-2.3-7.2-4.7-7.3-14.4-15.9-48.3-17-31-1.1-46.4 11.7-50.4 15.5l.5-.9-5-2.6-1.4 15.1 2.2-3.4c0 0 3.5-6.3 3.5-6.5.5-.6 15.2-17.5 50.6-16.2 37.6 1.3 44.5 12 47.5 16.6 1.4 2.2 1.8 4.7 2.1 6.8.4 2.9.8 5.6 4.1 5.1.3.0.5.0.8.2 1.3 1 1.6 5.1 2 9 .5 5.2.9 10.1 3.3 11.3l.7.3.1-.7c.1-1 2.2-23.5-4.2-30.8C128.5 35.4 127.5 35 126.9 35.3v0zM140.5 54c-.6-3-1.6-5.9-2.9-8.7C138.3 47 139.5 49.9 140.5 54zM137.6 45.3c-.1-.3-.3-.7-.5-1C137.3 44.6 137.5 45 137.6 45.3zM134.4 37.8c8.4 8.1 6.9 29.1 6.9 29.1l-4.1-4.8v20.3l-2.8 5.7c-5 27-17 50.7-63.9 49.5-46.9-1.3-54.2-26.3-58.6-50.1-4.4-23.8 1.9-49.8 1.9-49.8C-.1 79 16.3 110 16.3 110s7.9 29.2 56.4 28.9c48.5-.3 56.1-27.3 56.1-27.3l.9 6.8c0 0 11.3-10.3 14.7-31.9C146.1 75.6 139.3 42.6 134.4 37.8v0zM137.2 44.3c-.2-.3-.3-.5-.3-.5C137 43.9 137.1 44.1 137.2 44.3"/><g transform="matrix(.49485 0 0 -.49485 -261.408 458.006)"><g><defs><path id="SVGID_1_" d="M811.8 796.6c.1-.5.1-1 .2-1.5C813.6 778.8 814.3 783.1 811.8 796.6zM568.2 864.9c0 0 13 12 22.2 20.8C590.4 885.7 578.1 878.7 568.2 864.9zM564.8 706.3c7.3-14.8 14.6-24.4 14.6-24.4S572.5 692.2 564.8 706.3zM805.1 848.5l-2.4 7 21.5-7.7-20.8 10.7 21.2 12.6-23.3-9.5 3.7 23.3-7.6-22.5-5.5 1.5c-11.5 17.1-27.2 25.6-47.1 35.1-36.9 17.7-86 13-86 13s58-.7 102.4-27c9.2-5.4 16.8-13 23.2-21.5l-9.6-.5 11-1.4c1-1.5 2-2.9 3-4.4l-12.7-7.4 13.8 5.8c1.4-2.3 2.8-4.6 4-7l-5.4-17 6.4 15.2c9.5-18.4 14.5-38 16.9-50.1-2.7 25.4-7.3 43.5-13.9 57.1l.5 1.1c0 0 24.1-31.5 19.7-83-4.3-51.6-16.7-69.8-29-82.4l-.6 6.3c0 0-17.9-53.5-106.7-52.2-88.8 1.3-95.6 30.2-95.6 30.2l-4.9 2.5c0 0-21 16.3-33.9 59.8-13 43.4-.6 78.6-.6 78.6s-6.8-28.9-1.8-58.5c2.6-15.3 11.7-34.7 20-49.8-6.1 12.2-12.2 28-14.4 44.8-4.9 37.1-3.7 62.3 2.5 81.1 6.2 18.9 9.9 27 9.9 27s-25.9-30.2-26.5-94.4c-.6-64.2 53.7-108.2 77.7-117.6 24.1-9.4 1e2-22 145.6 10.1 45.7 32.1 42.6 40.3 57.4 69.8C831.7 756.7 825.5 816.5 805.1 848.5v0zM794.3 860.3c0 .1-.1.2-.1.2l.5-.1L794.3 860.3zM796.5 856.5c-.3.5-.5 1-.8 1.5l1.5.6L796.5 856.5v0zM579.3 859.2c3.7 6.3 22.8 17.6 22.8 17.6s-10.5-6.3-22.2-20.1c-11.7-13.8 4.3 1.3 25.9 15.7 21.6 14.5 51.8 13.2 51.8 13.2s-9.9 7.5-47.5-4.4l36.4 15.7c0 0-55.5-12-71.6-34.6C559 839.7 575.6 852.9 579.3 859.2v0zM765.1 861.2c6.8-7.1 11.7-13.3 11.7-13.3S774.8 854.3 765.1 861.2zM554 768.7c6.8-66.7 35.2-95 35.2-95s21.6-21.4 88.8-24.5c67.2-3.1 88.8 23.3 90.7 27.7 1.8 4.4-8.6-2.5-11.7-1.3-3.1 1.3 9.9 24.5 9.9 24.5-6.8-25.2 3.7 3.8 10.5.6 6.8-3.1-13.6-11.3-6.8-17.6 6.8-6.3 21 38.4 30.2 58.5 9.3 20.1 6.2 40.9 5.6 54.1-.6 13.2-3.7 18.9-3.7 18.9l-1.9-31.5c0 0 1.2-4.4-8.6 17.6l-8 21.4c-5.6-98.1-27.8-135.2-27.8-135.2s-8-24.5-72.8-25.2c-64.8-.6-74 16.4-74 16.4-21 27.7-33.3 86.8-30.2 125.8 3.1 39 0 49.7 27.8 61.6 27.8 11.9 69.7 13.2 69.7 13.2 50.4 1.4 75.7-8.5 88.2-17.5-1.6 1.7-3.3 3.3-5 4.9-9.3 8.8-95 27-140.1 9.4-45-17.6-48.1-34.6-45-86.2 3.1-51.6 19.1-94.4 30.2-110.7 11.1-16.4 50.6-21.4 50.6-21.4-53.7 1.3-59.8 29.6-62.9 34.6-3.1 5-12.3 15.1-14.2 6.9-1.8-8.2-18.4 41.8-15.4 44.3 3.1 2.5 22.1-25.5 22.1-25.5s-6.8 13.8-13.6 52.8c-6.8 39 3.7 58.5-3.1 59.8-6.8 1.3 8.4-57.5-11-60.2-5.5-.7-.9 52 1.5 62.7 2.5 10.7 5.2 13.8 5.2 13.8S547.2 835.3 554 768.7"/></defs><clipPath id="SVGID_2_"><use xlink:href="#SVGID_1_" style="overflow:visible"/></clipPath><g class="st3"><linearGradient id="SVGID_3_" gradientUnits="userSpaceOnUse" x1="-4196.4209" y1="1566.7408" x2="-4162.9517" y2="1598.7354" gradientTransform="matrix(2.0754 0 0 2.0754 9247.7891 -2611.9712)"><stop offset="0" style="stop-color:#8c8c8c"/><stop offset=".5" style="stop-color:#464646"/><stop offset=".75" style="stop-color:#fff"/><stop offset="1" style="stop-color:#fff"/></linearGradient><path class="st4" d="M811.8 796.6C811.9 796.4 811.8 796.6 811.8 796.6zM568.2 864.9c0 0 13 12 22.2 20.8C590.4 885.7 578.1 878.7 568.2 864.9zM564.8 706.3c7.3-14.8 14.6-24.4 14.6-24.4S572.5 692.2 564.8 706.3zM805.1 848.5l-2.4 7 21.5-7.7-20.8 10.7 21.2 12.6-23.3-9.5 3.7 23.3-7.6-22.5-5.5 1.5c-11.5 17.1-27.2 25.6-47.1 35.1-36.9 17.7-86 13-86 13s58-.7 102.4-27c9.2-5.4 16.8-13 23.2-21.5l-9.6-.5 11-1.4c1-1.5 2-2.9 3-4.4l-12.7-7.4 13.8 5.8c1.4-2.3 2.8-4.6 4-7l-5.4-17 6.4 15.2c9.5-18.4 14.5-38 16.9-50.1-2.7 25.4-7.3 43.5-13.9 57.1l.5 1.1c0 0 24.1-31.5 19.7-83-4.3-51.6-16.7-69.8-29-82.4l-.6 6.3c0 0-17.9-53.5-106.7-52.2-88.8 1.3-95.6 30.2-95.6 30.2l-4.9 2.5c0 0-21 16.3-33.9 59.8-13 43.4-.6 78.6-.6 78.6s-6.8-28.9-1.8-58.5c2.6-15.3 11.7-34.7 20-49.8-6.1 12.2-12.2 28-14.4 44.8-4.9 37.1-3.7 62.3 2.5 81.1 6.2 18.9 9.9 27 9.9 27s-25.9-30.2-26.5-94.4c-.6-64.2 53.7-108.2 77.7-117.6 24.1-9.4 1e2-22 145.6 10.1 45.7 32.1 42.6 40.3 57.4 69.8C831.7 756.7 825.5 816.5 805.1 848.5v0zM794.3 860.3c0 .1-.1.2-.1.2l.5-.1L794.3 860.3zM796.5 856.5c-.3.5-.5 1-.8 1.5l1.5.6L796.5 856.5v0zM579.3 859.2c3.7 6.3 22.8 17.6 22.8 17.6s-10.5-6.3-22.2-20.1c-11.7-13.8 4.3 1.3 25.9 15.7 21.6 14.5 51.8 13.2 51.8 13.2s-9.9 7.5-47.5-4.4l36.4 15.7c0 0-55.5-12-71.6-34.6C559 839.7 575.6 852.9 579.3 859.2v0zM765.1 861.2c6.8-7.1 11.7-13.3 11.7-13.3S774.8 854.3 765.1 861.2zM554 768.7c6.8-66.7 35.2-95 35.2-95s21.6-21.4 88.8-24.5c67.2-3.1 88.8 23.3 90.7 27.7 1.8 4.4-8.6-2.5-11.7-1.3-3.1 1.3 9.9 24.5 9.9 24.5-6.8-25.2 3.7 3.8 10.5.6 6.8-3.1-13.6-11.3-6.8-17.6 6.8-6.3 21 38.4 30.2 58.5 9.3 20.1 6.2 40.9 5.6 54.1-.6 13.2-3.7 18.9-3.7 18.9l-1.9-31.5c0 0 1.2-4.4-8.6 17.6l-8 21.4c-5.6-98.1-27.8-135.2-27.8-135.2s-8-24.5-72.8-25.2c-64.8-.6-74 16.4-74 16.4-21 27.7-33.3 86.8-30.2 125.8 3.1 39 0 49.7 27.8 61.6 27.8 11.9 69.7 13.2 69.7 13.2 50.4 1.4 75.7-8.5 88.2-17.5-1.6 1.7-3.3 3.3-5 4.9-9.3 8.8-95 27-140.1 9.4-45-17.6-48.1-34.6-45-86.2 3.1-51.6 19.1-94.4 30.2-110.7 11.1-16.4 50.6-21.4 50.6-21.4-53.7 1.3-59.8 29.6-62.9 34.6-3.1 5-12.3 15.1-14.2 6.9-1.8-8.2-18.4 41.8-15.4 44.3 3.1 2.5 22.1-25.5 22.1-25.5s-6.8 13.8-13.6 52.8c-6.8 39 3.7 58.5-3.1 59.8-6.8 1.3 8.4-57.5-11-60.2-5.5-.7-.9 52 1.5 62.7 2.5 10.7 5.2 13.8 5.2 13.8S547.2 835.3 554 768.7"/></g></g></g><radialGradient id="SVGID_4_" cx="-2217.4329" cy="-507.5305" r="5.7847" gradientTransform="matrix(8.4746 0 0 9.0585 18867.0156 4674.0684)" gradientUnits="userSpaceOnUse"><stop offset="0" style="stop-color:#e60a47"/><stop offset="1" style="stop-color:#7c0626"/></radialGradient><path class="st5" d="M79.7 128.5c.1.0 7.7-.4 14.3-1.9 5.8-1.3 10.9-3.8 10.9-3.8v0 0c0 0 2.9-1.2 4.6-2.9 1.8-1.7 2.6-3.9 2.6-3.9.0-.1 3.1-8.4 5.5-17.2 2.2-8.1 3.6-17.1 3.7-17.2.0-.1 1.8-9.2 2.3-18.8.4-8.1-.4-17.3-.4-17.4.0-.1-.4-5.5-2.6-9.1-2-3.2-5.8-4.8-5.8-4.8v0 0c0 0-4.5-2.2-12.8-4.1-6.7-1.5-15.9-2.5-23.6-2.6-8.8-.2-18.2.4-25.2 1.6-8.4 1.4-13.9 3.6-13.9 3.6v0 0c-.1.0-5.5 1.5-8.4 5.1-2.9 3.7-3.4 9.8-3.4 9.8v0c0 .1-.6 5.3-.6 11.7.0 1.1.0 2.3.1 3.5.3 8.5 1.8 18 1.8 18.1.0.1 2 11.2 4.3 20.6 1.7 6.9 3.9 13.1 4 13.1v0 0c0 0 .8 3.1 2 5.3 1.1 1.9 2.7 3 2.7 3v0 0c0 0 1.1.9 2.7 1.8 1.9 1 4.4 2.2 4.6 2.2.2.1 5.8 2.2 13.2 3.2C69.9 128.7 79.6 128.5 79.7 128.5z"/><path class="st6" d="M46.2 122.6c-.3-.2-.5-.2-.5-.2.0.0-.1-.1-.3-.1l-.1-.3c-1.3-7.3-3.3-20.7-4-37-.8-19.2-.8-42.6-.7-54v-.8c.2-.1.5-.2.7-.2v.8C41.3 42 41.2 65.6 42 84.9c.7 16.6 2.8 30.1 4.1 37.3L46.2 122.6v0z"/><path class="st6" d="M48.4 123.5c-.3-.1-.5-.2-.8-.3l-.1-.5c-1-6.9-2.7-20.9-3.5-38.9-.9-19.1-.7-43.1-.6-54v-.6c.2-.1.5-.1.7-.2v.7c-.1 10.8-.3 34.9.6 54.1.8 18.4 2.6 32.6 3.5 39.3L48.4 123.5zM64.8 26.3c.2 21.1.7 82.1.8 99.8v1.5c-.2.0-.5-.1-.7-.1v-1.4c-.1-17.7-.7-78.5-.8-99.7v-.6c.2.0.5.0.7-.1V26.3zM73.8 26l.3 100.6v1.4c-.2.0-.5.0-.7.0v-1.6c-.1-21-.3-82.4-.3-100.6v-.5h.7V26v0zM77.3 26.1l-.5 100.5v1.4c-.2.0-.5.0-.7.0v-1.1c.1-17.8.4-80.3.5-100.9v-.7c.2.0.5.0.7.0V26.1zM86.7 126.2c.5-8.3 1.4-25.8 1.8-45.6.4-20.2.2-43.2.1-54v-.7c.3.0.6.1.8.1v.9c.1 10.9.3 33.7-.1 53.8-.4 19.7-1.3 37.1-1.8 45.4l-.1 1.2c-.3.0-.5.1-.8.1L86.7 126.2zM110.5 118c-.3.4-.7.9-1.1 1.3l.3-1.8c1.5-7.5 3.3-19.2 4.3-32.9 1.1-16.3 1.3-38.5 1.2-51.2v-1.2c.3.2.5.3.8.5v1.6c0 12.8-.1 34.4-1.2 50.3-.9 13.4-2.7 24.9-4.2 32.5L110.5 118zM118.5 90.7c.7-5.2 1.2-10.5 1.5-15.8.8-12.4.9-26.5.8-35.4v-1.5c.3.8.6 1.6.9 2.4v1.4c.1 9 0 21.8-.8 33.2-.2 2.3-.4 4.7-.6 7l-.3 2.5c-.6 3.1-1.3 6.2-2 9.3L118.5 90.7v0z"/><path class="st6" d="M107.5 120.7c-.3.2-.6.4-.9.6l.3-1.4c1.4-7.7 3.6-21.6 4.4-37.8.9-17.8.9-38.9.9-49.8v-1.5c.2.1.5.2.8.3v1.4c.1 10.9.1 31.9-.9 49.6-.8 15.7-2.9 29.4-4.3 37.2L107.5 120.7v0zM97.2 124.2c.7-7.2 1.9-22 2.4-39.8.7-20.1.7-43.8.6-55.3v-1.6c.3.1.6.1.9.2v1.6c0 11.5.0 35.2-.6 55.2-.6 17.7-1.8 32.5-2.4 39.7L98 125c-.3.1-.6.2-.9.3L97.2 124.2zM94.4 124.9c.7-6.1 1.9-17.8 2.4-33.2.7-22.3.6-50.4.5-63.4v-1.4c.3.0.6.1.8.1v1.5c.1 13.1.2 41-.5 63.2-.5 15.1-1.6 26.7-2.4 32.9l-.1 1.1c-.3.1-.6.1-.9.2L94.4 124.9v0zM92 125.4c.6-6.4 1.5-19.1 2-34.6.6-21.6.5-49 .3-63.3v-1c.3.0.6.1.8.1v1.4c.2 14.4.3 41.4-.3 62.9-.5 15.2-1.4 27.8-2 34.3l-.1 1.2c-.3.1-.6.1-.9.2L92 125.4v0zM89.3 125.9c.5-7.5 1.4-23.2 1.8-40 .5-22.3.6-47.3.5-58.9v-.9c.3.0.6.1.8.1v1c0 11.8.0 36.5-.5 58.8-.4 16.6-1.3 32.1-1.8 39.7l-.1 1.1c-.3.1-.5.1-.8.1L89.3 125.9v0zM86.4 26.6c0 11.9-.2 39-.5 62.1-.2 12.4-.6 24.8-1.1 37.2l-.1 1.5c-.2.0-.5.0-.7.1l.1-1.3c.3-7.2.8-21.3 1.1-37.5.4-23.2.5-50.5.5-62.3v-.8c.2.0.5.0.7.0V26.6v0zM83 26.1c.1 10.5.2 31.2.1 50.6-.1 21-.6 41.1-.8 49.8v1.2c-.2.0-.5.0-.7.0v-1c.2-8.5.7-28.8.8-50 .1-19.3.0-39.8-.1-50.4v-.8c.2.0.5.0.7.0V26.1v0zM80.2 26c.1 12.1.3 33.7.2 54.1-.1 19-.5 37.2-.7 46.7v1H79v-1.2c.2-9.5.6-27.6.7-46.5.1-20.3-.1-41.8-.2-53.9v-.9h.7V26v0zM55.6 125.9c-.2-.1-.5-.1-.7-.2v-.5c-.6-6.3-1.8-20.5-2.2-37.2-.6-21.3-.4-47.8-.3-60.3v-.5c.2.0.5-.1.7-.1v.6c-.2 12.5-.4 39.1.3 60.4.5 16.9 1.7 31.2 2.3 37.4L55.6 125.9v0zM50.9 124.5c-.3-.1-.5-.2-.7-.3l-.1-.5c-1.1-8.9-3.1-28.1-3.8-48.4-.6-17.2-.1-36.5.2-46.1v-.7c.2-.1.5-.1.7-.2v.6c-.3 9.6-.8 29-.3 46.4.7 20.6 2.8 40.1 3.8 48.8L50.9 124.5v0zM31.1 89c-.9-4.1-1.3-7.2-1.4-7.2L29.6 80c-.5-6.2-.9-13.1-1-19.1-.1-7-.1-14 0-19.2V41c.2-.8.5-1.6.8-2.4l-.1 3.7c-.1 5.2-.1 11.9.0 18.6.1 7.5.8 16.6 1.4 23.8L31.1 89v0zM37.1 111.1c-.5-1.4-1-3.1-1.6-4.9l-.4-2.4c-1.1-6.4-2-13.2-2.3-18.5-1.4-17.4-1.5-37.5-1.4-48.2v-2c.2-.2.4-.5.7-.7v1.9C32 46.8 32 67.4 33.5 85.3c.3 6.1 1.6 14.4 2.9 21.6L37.1 111.1zM40.6 114.8c-1.4-7.1-3.2-17.5-4.1-29.4C35 67 35.1 45.2 35.2 34.5v-2.2c-.2.1-.4.2-.7.4v1.9c-.1 10.8-.2 32.5 1.2 51 .9 11.9 2.7 22.2 4.1 29.3l.9 4.2c.2.2.3.3.5.5.1.1.3.2.4.4L40.6 114.8v0zM53.2 124.8c-.6-5.8-1.8-17.6-2.3-31.8-.8-23.4-.8-52.6-.8-64.8v-.6c-.2.0-.5.1-.7.1v.5c0 12.2.0 41.3.8 64.7.5 13.9 1.6 25.5 2.2 31.5l.1.5c.2.1.5.2.7.2L53.2 124.8v0z"/><path class="st6" d="M38.4 30.9c-.3.1-.5.2-.7.3v1C37.4 43.2 37.1 65 38 79.4c1.2 20.4 3.8 34.8 5 41l.1.6c.3.2.6.3.8.5l-.2-.7c-1.2-5.9-3.9-20.5-5.1-41.4-.9-14.4-.6-36.5-.3-47.3L38.4 30.9M56 26.6l-.7.1v.6c-.1 11.4-.3 33.9.1 53.6.4 18.7 1.5 35.8 2.1 44.3l.1 1.2c.2.0.5.1.7.1l-.1-1c-.6-8.3-1.8-25.6-2.2-44.6-.4-19.7-.2-42.3-.1-53.6L56 26.6v0zM59 26.2c-.2.0-.5.1-.7.1v.6c-.2 9.3-.4 28.5-.1 47.6.4 21.7 1.6 42.3 2.1 51.3l.1 1.1c.2.0.5.1.7.1l-.1-1.2c-.5-9-1.7-29.5-2.1-51.3-.4-19.1-.1-38.4.1-47.6V26.2v0zM61.9 25.9c-.2.0-.5.0-.7.1v.6c-.1 10-.2 30.9.1 51.2.2 19.7.8 39.2 1.1 48.1v1.3c.2.0.5.1.7.1v-1.4c-.3-8.9-.9-28.4-1.1-48.1-.2-20.4-.1-41.4-.1-51.3V25.9v0zM67.9 25.5c-.2.0-.5.0-.7.0v.4c.1 18.3.5 80.5.7 100.7v1.2c.2.0.5.0.7.1v-1.2c-.1-20.1-.5-82.5-.7-100.8V25.5v0zM70.8 25.3c-.2.0-.5.0-.7.0v.7l.2 100.2v1.7c.2.0.3.0.4.0.0.0.1.0.3.0v-1.7c0-18.7-.1-80.9-.2-100.2V25.3v0zM99.6 123.3c1-8.5 2.8-26 3.6-47 .6-15.6.1-36.6-.2-47.1l-.1-1.1c.3.1.6.1.9.2v1.2c.3 10.6.7 31.4.2 46.9-.8 21-2.6 38.5-3.6 47l-.1 1c-.3.1-.6.2-.9.3L99.6 123.3v0z"/><path class="st6" d="M103.1 122.1c.8-7.4 2.2-22 3.1-40.1.8-17.5.8-40 .7-52v-.9c-.3-.1-.6-.2-.8-.2v1c.1 11.9.1 34.5-.7 52-.9 18.4-2.3 33.1-3.1 40.4l-.2 1.3c.3-.1.5-.3.9-.4L103.1 122.1v0zM105.7 120.5c1-6.6 2.3-17.4 3.1-31.2 1.1-20.5 1.3-46.7 1.4-58.4v-.8c-.2-.1-.5-.2-.8-.3v.8c0 11.6-.2 37.9-1.4 58.6-.8 14.3-2.2 25.4-3.2 31.9l-.2 1.3c.3-.2.6-.3.9-.5L105.7 120.5v0zM113 111.9c0 0 .8-2.1 1.7-5l.4-2.3c1.1-7.6 2.3-17.1 3.1-27.5 1.1-13.7.8-30.4.5-40.5l-.1-1.9c-.3-.3-.6-.6-.9-.8l.1 1.5c.3 9.9.6 27.4-.5 41.6-.9 12-2.4 22.9-3.7 31L113 111.9v0z"/><g><g><path class="st7" d="M53.9 81.9v-7.2h-6.2V56.5h8.1v-7.3H38.9l1.5 56h7.4l-.2-23.2L53.9 81.9zM58.7 49.1l.9 56h7.6l.2-56H58.7zM107.9 105.1l1.6-49h6v-7.1H94.6v7.1h6l-.2 49H107.9zM79 75l.1-19h4.3c1.9 4.2 3.2 9.8 4.2 19H79v0zM72.2 105.1h7.1V82h8.5c.7 4.1.8 16.7.9 23.2h6.9c.6-28.6-1.4-44.8-6.9-56H71.5L72.2 105.1v0z"/></g><g transform="matrix(1.3933 0 0 1.65445 79.237 96.43)"><radialGradient id="SVGID_5_" cx="-1309.9164" cy="-215.6467" r="3.2469" gradientTransform="matrix(16.4516 0 0 14.2745 21549.3984 3065.978)" gradientUnits="userSpaceOnUse"><stop offset="0" style="stop-color:#d3d1d2"/><stop offset=".5" style="stop-color:#c9c7c8"/><stop offset="1" style="stop-color:#8d8b8c"/></radialGradient><path class="st8" d="M-17.5-13.8H-22v-11h5.8v-4.4h-12.1l1.1 33.9h5.3l-.1-14h4.5V-13.8z"/><radialGradient id="SVGID_6_" cx="-1309.9164" cy="-215.6467" r="3.247" gradientTransform="matrix(16.4516 0 0 14.2745 21549.3984 3065.978)" gradientUnits="userSpaceOnUse"><stop offset="0" style="stop-color:#d3d1d2"/><stop offset=".5" style="stop-color:#c9c7c8"/><stop offset="1" style="stop-color:#8d8b8c"/></radialGradient><path class="st9" d="M-7.8-29.2h-6.3l.7 33.9h5.5L-7.8-29.2z"/><radialGradient id="SVGID_7_" cx="-1309.9164" cy="-215.6467" r="3.2468" gradientTransform="matrix(16.4516 0 0 14.2745 21549.3984 3065.978)" gradientUnits="userSpaceOnUse"><stop offset="0" style="stop-color:#d3d1d2"/><stop offset=".5" style="stop-color:#c9c7c8"/><stop offset="1" style="stop-color:#8d8b8c"/></radialGradient><path class="st10" d="M16 4.7h5.3l1.1-29.6h4.3v-4.3h-15v4.3h4.3L16 4.7z"/><radialGradient id="SVGID_8_" cx="-1309.9164" cy="-215.6467" r="3.2467" gradientTransform="matrix(16.4516 0 0 14.2745 21549.3984 3065.978)" gradientUnits="userSpaceOnUse"><stop offset="0" style="stop-color:#d3d1d2"/><stop offset=".5" style="stop-color:#c9c7c8"/><stop offset="1" style="stop-color:#8d8b8c"/></radialGradient><path class="st11" d="M.5-13.5.6-25h3.1c1.4 2.6 2.3 5.9 3 11.5H.5zM-4.4 4.7h5.1l.1-14h6.1c.5 2.5.6 10.1.6 14h4.9c.5-17.3-1-27.1-5-33.9H-4.8L-4.4 4.7z"/></g></g></svg>