<svg id="Layer_1" xmlns="http://www.w3.org/2000/svg" xmlns:xlink="http://www.w3.org/1999/xlink" viewBox="0 0 150 150" style="enable-background:new 0 0 150 150"><style>.st0{fill:#425e99}.st1{fill:#fff}</style><g><path class="st0" d="M75.2 103.8c40.7.0 73.8-12.5 73.8-27.9S116 48 75.2 48C34.4 48 1.4 60.5 1.4 75.9 1.4 91.4 34.4 103.8 75.2 103.8v0z"/><path class="st1" d="M75.2 101c-39.1.0-70.9-11.1-70.9-25 0-13.9 31.8-25.1 70.9-25.1 39.2.0 71 11.3 71 25.1C146.2 89.8 114.4 101 75.2 101z"/><path class="st0" d="M75.2 99c37.9.0 68.7-10.3 68.7-23.1.0-12.7-30.8-23-68.7-23-38 0-68.7 10.3-68.7 23C6.5 88.7 37.2 99 75.2 99v0z"/><path class="st1" d="M93.2 80.6c3.2-3 5-6.2 9.7-6.2 2.8.0 3.5 2.3 4 3.2l6.1-10.4h3.8l-10.2 18c-.2.4-.7 1.1-.6 1.7.1.9 1.2.7.8.7 2-.1 5.8-4 6.7-4.9.2-.2.5-.7.7-.7.2.0.6.2.6.5.0.2-.4.9-.8 1.3-1.9 2.4-5 6-8.6 6.1-1.8.0-2.4-.7-2.7-2.1-.8.7-3.6 2-6.4 2-2.3.0-3.3-1.4-3.8-2.5-.4-.9-.6-2.2-.3-3.6-1.3.7-2.5.8-4.2.7-2 0-3.2-1-3.9-3.3-2.3 4.2-2.4 4.3-4.7 8.7h-4l5.2-8.8c.7-1.2 1-2.1 1.2-3.1.1-.6-.3-1.1-.9-1.1-.7.0-1.8.7-2.8 1.7.0.0-2.7 2.9-4.6 5.8-1.9 2.8-5 5.9-8.5 5.9-2.5.0-4.8-1.4-5.3-4 0 0-.2.6-2.5 1.9-.2.1-.7.4-.8.3-.4-.4-.7-.9-.7-1.2.1.0.4-.2 1.3-.9 1.8-1.3 2.1-2.4 2.1-2.4.4-.9 1.2-2.3 1.7-3.3 1.4-2.9 3.9-5.8 7.9-5.9.7.0.9.3 1 .5.4.3.2.9.2.9-2.9.4-4.8 2.1-6 3.7-.7 1-1.5 2.8-1.6 4-.3 2.1.7 3.6 2.2 3.9 2.8.4 5-1.6 6.9-4.7.5-.8.8-2.9.8-4 0-1.1-.6-2.3-1.1-2.8.0-.8.5-1.3 1.1-1.3.2.0.4.0.6.2 1 1 1.5 2.8 1.5 4.1.0.5.0 1-.1 1.4 2-2.4 4.5-5.6 6.5-6.2.4-.2.8-.2 1.1-.2 3.6-.1 3.1 3.1 3.1 3.1 1.9-2.2 3.2-3 5-2.9 1.9.1 2.6 1.4 2.6 2.5.0 1.2-1 2.7-2.5 2.7-1.4.0-2.2-.7-2.6-1.9-.9.3-1.3 1-1.5 2.2-.3 1.6.9 2.8 2.4 2.8C91.1 82.6 92.3 81.4 93.2 80.6v0zM96.1 60c0 1.5-5.3 4.4-9.9 4.4-7 0-14.4-3.4-17.8-4.1-3.7-.9-7-1.6-9.6-1.6-9.2.0-13.3 4-13.1 7.6.1 1.5 1.3 2.4 3 2.1 1.9-.3 4.6-2.1 5.2-3.7.1-.3.5-.4.7-.3.3.2.2.6.2.6-.2 1.9-3.1 7-8 7-2.8.0-4.6-2.6-4.6-5.1.0-4.7 4.9-9.5 16.7-9.5 2.2.0 4.8.2 7.5.7 3.2.6 11.1 1.9 17.6 2 2.4.0 5.4.1 7.9-.3 2.6-.4 2-.5 3.1-.5C96.1 59.3 96.1 59.7 96.1 60v0z"/><path class="st0" d="M103.1 76.6c-1.7-.2-3.8 1.2-5.5 3.3-.9 1-1.8 3-1.9 4.2-.2 1.2.1 2.4.6 2.7.4.3 2.3 1.3 5.3-1.7 1.7-1.7 3.3-4.4 3.3-4.4l-.5-.1C105.4 78.8 105.2 76.8 103.1 76.6z"/><path class="st1" d="M68.3 71c0 .5.7 1 1.3 1-.1.5-.1.8-.3.7-1.4.0-2-1.4-2-1.4-1.9.3-3.8.6-7.5 1-9.5 15.3-12.4 17.9-18.2 17.9-4.1.0-7.8-2.7-7.9-7.6.0-3 2.3-6.6 6.8-7.7.5.0.7.2.7.5.0.2-.2.4-.6.6-1.3.5-3.5 3-3.5 5.3.0 1.8 1.1 3.7 3 4.1.5.1 1 .1 1.5.1 4.6.0 9.8-5.2 15.4-13.1-.9.0-4.8.5-5.7 1.6-.4.3-.7.1-.8-.2.0-.1.1-.4.3-.6 1.5-1.7 6.1-2.1 7.2-2.2 4.3-6.6 9.8-10.7 10.9-10.6.2.0.6.3.4.8.0.1-.5.6-.7.8-1 .9-4.2 3-7.7 8.9 2.9-.1 6.2-.7 6.2-.7s-.2-.6-.2-1.1c.1-2 1.3-3.3 2.9-3 .9.1 1.4.9 1.4 1.6.0.8-.6 2-1.2 2.6C69.4 70.4 68.9 70.7 68.3 71v0z"/><path class="st0" d="M68.1 69.9c0 0 .5.0 1.2-.8.3-.3.8-1.1.7-1.7.0-.3-.2-.6-.5-.6-.7.1-1.1.5-1.3 1.2C67.8 68.8 67.9 69.4 68.1 69.9v0z"/></g></svg>