<svg id="Layer_1" xmlns="http://www.w3.org/2000/svg" xmlns:xlink="http://www.w3.org/1999/xlink" viewBox="0 0 150 150" style="enable-background:new 0 0 150 150"><style>.st0{fill:#397db7}.st1{fill:#fff}</style><path class="st0" d="M115.4 37.3c7.4 4.1 15.8 11.2 15 20.7-1 8.8-9.2 15-16.6 18.7C92.3 87 62.1 87.3 39.9 78.3c-7.5-3.1-15.9-8.5-19.1-16.5-2.4-6.6.5-13.5 5.5-18.1 10.3-9.4 23.5-12.6 37.1-14.5 14.7-1.8 30.2-.2 43.4 4.3C109.7 34.6 112.6 35.8 115.4 37.3zM139.7 96.3v21.3h-4.6v-6.1h-10.6v6.1h-4.6v-16.7c0-3 1.2-4.6 4.6-4.6H139.7v0z"
	/><path class="st1" d="M135.1 100.2h-8.7c-1.5.1-1.9.4-1.9 2.2v4.9h10.6V100.2v0z"/><path class="st0" d="M115.3 100.9v11.5c0 3.7-2.1 5.2-4.6 5.2H96V96.3h14.6C114.6 96.3 115.3 98.8 115.3 100.9z"/><path class="st1" d="M110.6 102.2c0-1.2-.7-2-2-2h-8v13.3h8c1.8-.1 2-1.2 2-2V102.2z"/><path class="st0" d="M1.5 96.3h4.6v8.4h10.4v-8.4h4.6v21.3h-4.6v-8.7H6.2v8.7H1.5V96.3zm27.6.0 5.8 8.7 5.7-8.7h5.6l-9.1 13.6v7.7h-4.6v-7.7l-9.1-13.6H29.1zM72.3 96.3h14.9c2.1.0 4.2.3 4.1 4.6v16.7h-4.6v-15.2c0-1.8-.2-2.2-1.7-2.2h-8.1v17.4h-4.6V96.3zM144.4 96.3h4.6v21.3h-4.6V96.3zM48.6 117.6h14.9c3 0 4.2-.9 4.1-5.1V96.3H63v15.2c0 1.8-.2 2-1.7 2h-8.1V96.3h-4.6L48.6 117.6v0z"/><path class="st1" d="M86.8 63.1c.8 4.3-1.4 7.9-3.3 11.5-2.1 3.3-5.6 6.1-9.7 5.6-9.1-.1-18.2-1.5-27-4.1-.4-.1-.8-.4-1-.7-.2-.5.1-.9.4-1.3 7.7-6.3 17-9.2 26.1-12.2 3.4-1 7-2 10.8-1.5C84.6 60.6 86.2 61.6 86.8 63.1zM118.7 44.6c4.3 3.6 8.3 8.4 6.9 14.3-2.2 8.7-11.6 13.3-19.2 16.3-4.1 1.4-8.2 2.8-12.7 3.2-.3.0-.7.0-.8-.4l.1-.5c6.4-7.2 11.2-15.2 15.4-23.4 2-3.7 3.8-7.5 5.5-11.2.2-.2.5-.4.8-.5C116.3 42.5 117.4 43.7 118.7 44.6zM57.6 35.3l-.1.5c-9.2 10.5-15.3 22.6-21 34.7-1.1 1.1-2.2-.4-3.2-.8-5.1-3.4-9.7-8.8-8.4-15.2 2.1-8.4 10.8-12.9 18-15.9 4.3-1.7 8.8-2.9 13.4-3.6C56.7 34.9 57.3 34.9 57.6 35.3v0zM103.3 37c.5.3 1.2.4 1.5.9.3.6-.3 1-.6 1.4-7.3 5.7-15.6 8.8-24 11.6-4.3 1-8.7 2.9-13.5 1.9-1.2-.3-2.2-1.1-2.8-2.1-1.2-3.3.4-6.7 1.8-9.6 1.9-3.6 5.1-7.8 9.7-7.9C85.2 33.1 94.5 34.5 103.3 37v0z"/></svg>