<?xml version="1.0" encoding="UTF-8" standalone="no"?>
<svg
   xmlns:dc="http://purl.org/dc/elements/1.1/"
   xmlns:cc="http://creativecommons.org/ns#"
   xmlns:rdf="http://www.w3.org/1999/02/22-rdf-syntax-ns#"
   xmlns:svg="http://www.w3.org/2000/svg"
   xmlns="http://www.w3.org/2000/svg"
   viewBox="0 0 257.01334 257.01334"
   height="257.01334"
   width="257.01334"
   xml:space="preserve"
   id="svg2"
   version="1.1"><metadata
     id="metadata8"><rdf:RDF><cc:Work
         rdf:about=""><dc:format>image/svg+xml</dc:format><dc:type
           rdf:resource="http://purl.org/dc/dcmitype/StillImage" /></cc:Work></rdf:RDF></metadata><defs
     id="defs6" /><g
     transform="matrix(1.3333333,0,0,-1.3333333,0,257.01333)"
     id="g10"><g
       transform="scale(0.1)"
       id="g12"><path
         id="path14"
         style="fill:#ffffff;fill-opacity:1;fill-rule:evenodd;stroke:none"
         d="M 0,1927.56 H 1927.56 V 0 H 0 v 1927.56" /><path
         id="path16"
         style="fill:#231f20;fill-opacity:1;fill-rule:evenodd;stroke:none"
         d="m 1378.26,615.828 c -6.21,6.18 -13.71,9.266 -22.51,9.266 -8.74,0 -16.2,-3.086 -22.37,-9.266 -6.21,-6.199 -9.31,-13.672 -9.31,-22.414 0,-8.832 3.07,-16.344 9.22,-22.547 6.17,-6.234 13.66,-9.347 22.46,-9.347 8.8,0 16.3,3.113 22.51,9.347 6.2,6.231 9.3,13.746 9.3,22.547 0,8.77 -3.1,16.242 -9.3,22.414 v 0 z m -3.17,-41.89 c -5.3,-5.368 -11.75,-8.047 -19.34,-8.047 -7.59,0 -14.04,2.679 -19.34,8.047 -5.28,5.367 -7.93,11.859 -7.93,19.476 0,7.559 2.66,14.008 7.97,19.344 5.34,5.367 11.77,8.051 19.3,8.051 7.56,0 14.01,-2.684 19.34,-8.051 5.32,-5.336 7.97,-11.785 7.97,-19.344 0,-7.617 -2.65,-14.109 -7.97,-19.476 v 0 0" /><path
         id="path18"
         style="fill:#231f20;fill-opacity:1;fill-rule:evenodd;stroke:none"
         d="M 674.074,1783.5 V 562.832 H 1275.35 V 1783.5 H 674.074 Z M 1244.56,593.625 H 704.859 V 1752.71 h 539.701 v -1159.085 0" /><path
         id="path20"
         style="fill:#231f20;fill-opacity:1;fill-rule:evenodd;stroke:none"
         d="M 759.277,1697.98 H 952.383 V 1173.89 L 759.504,938.453 759.277,1697.98 v 0" /><path
         id="path22"
         style="fill:#231f20;fill-opacity:1;fill-rule:evenodd;stroke:none"
         d="M 1190.14,1697.98 H 997.039 v -524.09 l 192.881,-235.437 0.22,759.527 v 0" /><path
         id="path24"
         style="fill:#231f20;fill-opacity:1;fill-rule:evenodd;stroke:none"
         d="m 1582.78,341.168 h 26.04 V 148.637 h -26.04 v 192.531 0" /><path
         id="path26"
         style="fill:#231f20;fill-opacity:1;fill-rule:evenodd;stroke:none"
         d="m 1582.78,409.465 h 26.04 v -44.348 h -26.04 v 44.348 0" /><path
         id="path28"
         style="fill:#231f20;fill-opacity:1;fill-rule:evenodd;stroke:none"
         d="m 1641.39,408.922 h 26.04 V 148.809 h -26.04 v 260.113 0" /><path
         id="path30"
         style="fill:#231f20;fill-opacity:1;fill-rule:evenodd;stroke:none"
         d="m 806.348,341.398 h 24.636 V 316.41 c 14.086,20.836 24.883,29.211 46.352,29.211 25.348,0 46.816,-10.555 62.301,-29.211 1.761,-2.469 3.168,-4.93 4.929,-7.398 1.055,2.468 2.465,4.578 3.872,7.398 13.378,18.656 38.371,29.211 60.892,29.211 20.78,0 35.87,-3.851 54.88,-22.863 15.49,-15.481 19.02,-41.551 19.02,-64.078 v 0 -109.817 h -26.05 v 107.356 0 c 0,14.082 -2.63,32.836 -11.08,44.808 -10.56,14.778 -20.22,19.606 -38.18,19.606 -16.537,0 -33.084,-8.449 -42.58,-21.82 -8.449,-11.973 -8.102,-28.512 -8.102,-42.594 v 0 -107.356 h -26.043 v 110.168 0 c 0,14.438 -0.707,25.699 -9.156,38.371 -9.855,14.078 -26.043,23.231 -43.297,23.231 -16.187,0 -27.344,-11.235 -37.195,-24.606 -8.801,-12.672 -9.156,-26.398 -9.156,-41.183 v 0 -105.981 h -26.043 v 192.535 0" /><path
         id="path32"
         style="fill:#231f20;fill-opacity:1;fill-rule:evenodd;stroke:none"
         d="m 165.625,414.063 c -75.3281,0 -137.2773,-59.836 -137.2773,-135.165 0,-74.621 64.414,-133.398 137.2773,-133.398 75.32,0 137.625,59.836 137.625,135.16 0,74.625 -64.066,133.403 -137.625,133.403 v 0 z m 0.352,-243.575 c -59.133,0 -111.5864,48.219 -111.5864,108.41 0,60.899 50.3394,110.176 111.5864,110.528 v 0 -0.352 0 c 59.484,0 111.226,-48.226 111.226,-108.414 0,-61.246 -49.98,-110.172 -111.226,-110.172 v 0 0" /><path
         id="path34"
         style="fill:#231f20;fill-opacity:1;fill-rule:evenodd;stroke:none"
         d="m 1450.62,345.551 c -28.51,0 -60.19,-13.371 -72.87,-40.121 v 0 103.48 H 1351.7 V 148.793 h 24.64 v 33.082 0 c 15.14,-24.992 48.93,-37.66 76.74,-37.66 28.16,0 52.09,7.387 78.84,37.66 10.56,11.617 22.88,36.254 22.88,64.063 0,57.027 -48.22,99.613 -104.18,99.613 v 0 z m 4.61,-176.746 c -42.25,0 -79.25,31.566 -79.25,74.515 0,21.118 5.29,38.715 20.42,53.852 14.44,14.781 34.14,23.226 54.92,23.226 42.93,0 77.43,-31.675 77.43,-75.328 0,-41.879 -31.64,-76.265 -73.52,-76.265 v 0 0" /><path
         id="path36"
         style="fill:#231f20;fill-opacity:1;fill-rule:evenodd;stroke:none"
         d="M 570.785,408.91 V 307.887 c -15.84,24.996 -45.758,37.664 -74.621,37.664 -55.965,0 -103.484,-42.586 -103.484,-99.965 0,-28.16 11.617,-53.5 21.117,-61.602 27.105,-28.507 52.801,-39.769 80.609,-39.769 33.438,0 58.43,12.668 77.785,39.769 v 0 -35.191 h 24.645 V 408.91 H 570.785 Z M 495.109,169.047 c -42.242,0 -76.382,34.496 -76.382,76.73 0,41.536 34.847,74.621 75.679,74.621 41.891,0 77.082,-32.027 77.082,-74.621 0,-42.234 -34.144,-76.73 -76.379,-76.73 v 0 0" /><path
         id="path38"
         style="fill:#231f20;fill-opacity:1;fill-rule:evenodd;stroke:none"
         d="m 1797.48,169.047 c -35.55,0 -71.1,29.922 -72.51,66.527 v 0 0.231 l 174.24,-0.231 v 0 c -0.7,27.809 -4.58,50.332 -22.53,72.504 -19.36,23.59 -47.16,37.313 -77.43,37.313 -55.97,0 -100.32,-44.696 -100.32,-100.668 0,-56.317 44.7,-100.664 101.02,-100.664 33.13,0 65.33,18.765 83.44,46.527 v 0 l -20.66,13.484 v 0 c -13.34,-22.047 -39.43,-35.023 -65.25,-35.023 v 0 z m 2.12,151.582 c 35.55,0 66.88,-27.106 73.56,-61.246 v 0 h -148.19 v 0 c 6.34,35.551 38.37,61.246 74.63,61.246 v 0 0" /><path
         id="path40"
         style="fill:#231f20;fill-opacity:1;fill-rule:evenodd;stroke:none"
         d="m 1220.23,347.762 c -56.31,0 -101.02,-45.754 -101.02,-101.719 0,-55.27 46.47,-99.617 101.02,-99.617 55.62,0 99.97,47.164 99.97,102.074 0,53.508 -46.47,99.262 -99.97,99.262 v 0 z m 0,-176.344 c -41.18,0 -74.97,33.437 -74.97,74.625 0,41.879 32.38,76.727 74.97,76.727 19.01,0 37.67,-8.094 51.39,-21.114 15.49,-14.789 22.54,-32.031 22.54,-53.156 0,-41.883 -30.99,-77.082 -73.93,-77.082 v 0 0" /><path
         id="path42"
         style="fill:#231f20;fill-opacity:1;fill-rule:evenodd;stroke:none"
         d="m 343.59,408.922 h 26.047 V 148.809 H 343.59 v 260.113 0" /><path
         id="path44"
         style="fill:#231f20;fill-opacity:1;fill-rule:evenodd;stroke:none"
         d="m 766.914,316.41 c -10.254,18.61 -37.059,29.531 -58.703,29.531 -30.27,0 -69.883,-15.043 -70.574,-53.855 1.812,-23.672 13.082,-41.672 65.293,-53.496 19.008,-5.281 48.152,-13.785 49.711,-36.961 1.597,-23.766 -27.532,-32.031 -46.192,-32.031 -19.707,0 -39.144,10.078 -49.105,29.09 v 0 l -19.016,-16.297 v 0 c 9.985,-24.231 39.344,-37.786 65.656,-37.786 35.903,0 74.704,12.43 74.704,61.247 0,34.851 -37.391,47.164 -66.25,56.316 -16.895,5.285 -50.625,8.133 -48.758,32.031 1.812,23.117 26.933,26.75 41.715,26.75 16.898,0 37.972,-7.254 44.316,-20.84 v 0 l 17.203,16.301 v 0" /><path
         id="path46"
         style="fill:#231f20;fill-opacity:1;fill-rule:evenodd;stroke:none"
         d="M 759.504,846.41 759.277,647.418 H 952.383 V 1032.05 L 759.504,846.41 v 0" /><path
         id="path48"
         style="fill:#231f20;fill-opacity:1;fill-rule:evenodd;stroke:none"
         d="m 1189.92,846.41 -1.69,-198.992 H 997.039 V 1032.05 L 1189.92,846.41 v 0" /><path
         id="path50"
         style="fill:#231f20;fill-opacity:1;fill-rule:evenodd;stroke:none"
         d="m 1369.9,576.492 c -0.14,0.289 -0.24,0.895 -0.3,1.817 -0.06,0.921 -0.08,1.789 -0.08,2.597 v 0 2.551 0 c 0,1.762 -0.64,3.563 -1.91,5.414 -1.27,1.844 -3.28,2.984 -6.02,3.418 2.17,0.344 3.86,0.91 5.07,1.688 2.27,1.472 3.41,3.765 3.41,6.878 0,4.387 -1.8,7.329 -5.4,8.833 -2.03,0.835 -5.2,1.253 -9.53,1.253 v 0 h -12.2 v -34.882 h 6.15 v 13.761 h 4.84 v 0 c 3.26,0 5.54,-0.375 6.84,-1.125 2.19,-1.297 3.29,-3.968 3.29,-8.007 v 0 -2.77 l 0.13,-1.125 v 0 c 0.03,-0.145 0.06,-0.273 0.09,-0.387 0.02,-0.117 0.05,-0.234 0.08,-0.347 v 0 h 5.76 l -0.22,0.433 z m -9.43,18.391 c -1.3,-0.516 -3.25,-0.778 -5.84,-0.778 v 0 h -5.54 v 12.637 h 5.23 v 0 c 3.41,0 5.88,-0.429 7.42,-1.297 1.55,-0.867 2.32,-2.57 2.32,-5.105 0,-2.688 -1.2,-4.504 -3.59,-5.457 v 0 0" /></g></g></svg>