<?xml version="1.0" encoding="UTF-8" standalone="no"?>
<!-- Created with Inkscape (http://www.inkscape.org/) -->

<svg
   xmlns:dc="http://purl.org/dc/elements/1.1/"
   xmlns:cc="http://creativecommons.org/ns#"
   xmlns:rdf="http://www.w3.org/1999/02/22-rdf-syntax-ns#"
   xmlns:svg="http://www.w3.org/2000/svg"
   xmlns="http://www.w3.org/2000/svg"
   xmlns:sodipodi="http://sodipodi.sourceforge.net/DTD/sodipodi-0.dtd"
   xmlns:inkscape="http://www.inkscape.org/namespaces/inkscape"
   width="500"
   height="500"
   id="svg2"
   version="1.1"
   inkscape:version="0.47 r22583"
   sodipodi:docname="New document 1">
  <defs
     id="defs4">
    <inkscape:perspective
       sodipodi:type="inkscape:persp3d"
       inkscape:vp_x="0 : 526.18109 : 1"
       inkscape:vp_y="0 : 1000 : 0"
       inkscape:vp_z="744.09448 : 526.18109 : 1"
       inkscape:persp3d-origin="372.04724 : 350.78739 : 1"
       id="perspective10" />
    <inkscape:perspective
       id="perspective2824"
       inkscape:persp3d-origin="0.5 : 0.33333333 : 1"
       inkscape:vp_z="1 : 0.5 : 1"
       inkscape:vp_y="0 : 1000 : 0"
       inkscape:vp_x="0 : 0.5 : 1"
       sodipodi:type="inkscape:persp3d" />
    <inkscape:perspective
       id="perspective2838"
       inkscape:persp3d-origin="0.5 : 0.33333333 : 1"
       inkscape:vp_z="1 : 0.5 : 1"
       inkscape:vp_y="0 : 1000 : 0"
       inkscape:vp_x="0 : 0.5 : 1"
       sodipodi:type="inkscape:persp3d" />
    <inkscape:perspective
       id="perspective2875"
       inkscape:persp3d-origin="0.5 : 0.33333333 : 1"
       inkscape:vp_z="1 : 0.5 : 1"
       inkscape:vp_y="0 : 1000 : 0"
       inkscape:vp_x="0 : 0.5 : 1"
       sodipodi:type="inkscape:persp3d" />
    <inkscape:perspective
       id="perspective2913"
       inkscape:persp3d-origin="0.5 : 0.33333333 : 1"
       inkscape:vp_z="1 : 0.5 : 1"
       inkscape:vp_y="0 : 1000 : 0"
       inkscape:vp_x="0 : 0.5 : 1"
       sodipodi:type="inkscape:persp3d" />
    <inkscape:perspective
       id="perspective2973"
       inkscape:persp3d-origin="0.5 : 0.33333333 : 1"
       inkscape:vp_z="1 : 0.5 : 1"
       inkscape:vp_y="0 : 1000 : 0"
       inkscape:vp_x="0 : 0.5 : 1"
       sodipodi:type="inkscape:persp3d" />
  </defs>
  <sodipodi:namedview
     id="base"
     pagecolor="#ffffff"
     bordercolor="#666666"
     borderopacity="1.0"
     inkscape:pageopacity="0.0"
     inkscape:pageshadow="2"
     inkscape:zoom="0.62390623"
     inkscape:cx="-176.35568"
     inkscape:cy="129.91462"
     inkscape:document-units="px"
     inkscape:current-layer="layer1"
     showgrid="false"
     showguides="true"
     inkscape:guide-bbox="true"
     inkscape:window-width="1680"
     inkscape:window-height="978"
     inkscape:window-x="-4"
     inkscape:window-y="-4"
     inkscape:window-maximized="1" />
  <metadata
     id="metadata7">
    <rdf:RDF>
      <cc:Work
         rdf:about="">
        <dc:format>image/svg+xml</dc:format>
        <dc:type
           rdf:resource="http://purl.org/dc/dcmitype/StillImage" />
        <dc:title></dc:title>
      </cc:Work>
    </rdf:RDF>
  </metadata>
  <g
     inkscape:label="Layer 1"
     inkscape:groupmode="layer"
     id="layer1"
     transform="translate(-162.625,-361.70521)">
    <g
       id="g2979"
       transform="translate(17.984375,-44.296198)">
      <path
         id="path2860"
         transform="translate(0,308.2677)"
         d="m 203.03125,459.75 -40.40625,93.6875 53.5625,0 4.4375,-10.15625 34.125,0 4.09375,10.15625 53.8125,0 L 274.5,459.75 l -71.46875,0 z m 35.375,42.90625 8.15625,20.25 -17.03125,0 8.875,-20.25 z"
         style="fill:#0093dd;fill-opacity:1;stroke:none" />
      <path
         style="fill:#0093dd;fill-opacity:1;stroke:none"
         d="m 517.03125,768.0177 -40.40625,93.6875 53.5625,0 4.4375,-10.15625 34.125,0 4.09375,10.15625 53.8125,0 -38.15625,-93.6875 -71.46875,0 z m 35.375,42.90625 8.15625,20.25 -17.03125,0 8.875,-20.25 z"
         id="path2891" />
      <path
         transform="translate(0,308.2677)"
         id="path2893"
         d="m 289.15617,459.73654 38.63833,93.69165 64.9023,0 39.90103,-93.69165 -56.82108,0 -15.40483,36.61803 -15.65736,-36.61803 -55.55839,0 z"
         style="fill:#0093dd;fill-opacity:1;stroke:none" />
      <path
         transform="translate(0,308.2677)"
         id="path2895"
         d="m 446.48743,459.73654 55.81092,0 -39.90102,93.69165 -55.81093,0 39.90103,-93.69165 z"
         style="fill:#0093dd;fill-opacity:1;stroke:none" />
      <path
         sodipodi:nodetypes="cccscsccc"
         transform="translate(0,308.2677)"
         id="path2899-4"
         d="m 393.96875,448.6875 c 107.7297,-0.4116 195.51647,-67.23423 197.59375,-150.25 -22.57913,-8.12864 -34.93283,-11.41513 -58.375,-15.65625 7.53173,13.51853 11.6875,28.36485 11.6875,43.9375 0,62.62455 -67.68858,113.44147 -150.90625,113.84375 -83.21767,-0.40228 -150.5,-51.2192 -150.5,-113.84375 0,-15.57265 4.15577,-30.41897 11.6875,-43.9375 -23.44217,4.24112 -35.79587,7.52761 -58.375,15.65625 2.07728,83.01577 89.4578,149.8384 197.1875,150.25 z"
         style="fill:#0093dd;fill-opacity:1;stroke:none" />
      <path
         sodipodi:nodetypes="cccsccscccc"
         id="path2844"
         transform="translate(0,308.2677)"
         d="m 393.875,179.15625 c -7.75361,6.62182 -14.18112,15.91496 -19.375,27.65625 -103.81006,14.10488 -166.45437,50.52624 -209.84375,96.84375 70.06174,-36.88759 165.69836,-43.3801 194.21875,-23.875 24.69804,16.89101 26.03241,95.62972 35.09375,154.1875 l 0.40625,0 c 9.06134,-58.55778 10.39571,-137.29649 35.09375,-154.1875 28.52039,-19.5051 124.15701,-13.01259 194.21875,23.875 -43.38938,-46.31751 -106.03369,-82.73887 -209.84375,-96.84375 -5.19388,-11.74129 -11.62139,-21.03443 -19.375,-27.65625 l -0.59375,0 z"
         style="fill:#0093dd;fill-opacity:1;stroke:none" />
      <path
         id="path2897"
         transform="translate(0,308.2677)"
         d="m 392.375,142.03125 0,0.0312 c -91.15785,1.16322 -167.31046,49.90202 -188.8125,115.5 50.96996,-33.45013 106.30856,-52.46845 164.125,-58.9375 6.99649,-13.38689 15.77537,-24.26884 26.5,-32.375 10.71551,8.10458 19.47662,18.99645 26.46875,32.375 57.81644,6.46905 113.15504,25.48737 164.125,58.9375 -21.50204,-65.59798 -97.65465,-114.33678 -188.8125,-115.5 l 0,-0.0312 c -0.0834,-8e-5 -0.16656,0 -0.25,0 -0.5102,0 -1.02196,-0.003 -1.53125,0 -0.51966,-0.003 -1.04189,0 -1.5625,0 -0.0834,0 -0.1666,-8e-5 -0.25,0 z"
         style="fill:#0093dd;fill-opacity:1;stroke:none" />
    </g>
  </g>
</svg>
