<?xml version="1.0" encoding="UTF-8" standalone="no"?>
<svg
   xmlns:dc="http://purl.org/dc/elements/1.1/"
   xmlns:cc="http://creativecommons.org/ns#"
   xmlns:rdf="http://www.w3.org/1999/02/22-rdf-syntax-ns#"
   xmlns:svg="http://www.w3.org/2000/svg"
   xmlns="http://www.w3.org/2000/svg"
   viewBox="0 0 793.70135 1122.52"
   height="1122.52"
   width="793.70135"
   xml:space="preserve"
   id="svg2"
   version="1.1"><metadata
     id="metadata8"><rdf:RDF><cc:Work
         rdf:about=""><dc:format>image/svg+xml</dc:format><dc:type
           rdf:resource="http://purl.org/dc/dcmitype/StillImage" /></cc:Work></rdf:RDF></metadata><defs
     id="defs6"><clipPath
       id="clipPath18"
       clipPathUnits="userSpaceOnUse"><path
         id="path16"
         d="M 0,841.89 H 595.276 V 0 H 0 Z" /></clipPath></defs><g
     transform="matrix(1.3333333,0,0,-1.3333333,0,1122.52)"
     id="g10"><g
       id="g12"><g
         clip-path="url(#clipPath18)"
         id="g14"><g
           transform="translate(251.7065,425.543)"
           id="g20"><path
             id="path22"
             style="fill:#2d2c2e;fill-opacity:1;fill-rule:nonzero;stroke:none"
             d="m 0,0 c 0,0 0.095,-0.951 1.141,-0.951 1.047,0 2.045,-0.095 2.473,0.713 0.428,0.809 0.095,1.76 -1.379,1.76 C 0.761,1.522 0.047,0.761 0,0" /></g><g
           transform="translate(361.8828,419.4717)"
           id="g24"><path
             id="path26"
             style="fill:#2d2c2e;fill-opacity:1;fill-rule:nonzero;stroke:none"
             d="m 0,0 c -1.268,-0.824 -2.409,-2.474 -3.867,-1.966 -1.459,0.507 -0.064,1.395 -0.064,1.395 0,0 2.663,2.537 3.615,2.473 C 0.635,1.838 1.269,0.824 0,0 m -13.633,3.106 c -3.107,-2.663 -5.58,-4.121 -6.214,-3.55 0,0.19 0.681,1.017 1.188,2.031 0.508,1.015 3.064,5.004 4.329,6.91 h 4.94 c 0,0 -1.135,-2.727 -4.243,-5.391 M -32.72,-0.951 c -2.663,-0.571 -1.205,2.029 -1.205,2.029 2.156,2.79 3.678,1.078 4.059,0.697 0.381,-0.38 -0.191,-2.156 -2.854,-2.726 m -19.657,0.697 -2.22,-1.649 c -3.614,-1.078 -1.902,1.84 -1.902,1.84 l 1.902,1.458 c 0.634,0.507 1.522,0.887 2.283,0.253 0.761,-0.633 -0.063,-1.902 -0.063,-1.902 m -45.022,0.697 c -0.063,-0.887 -3.298,-2.663 -4.439,-2.853 -1.141,-0.191 -0.317,1.586 -0.317,1.586 0.824,1.014 1.141,1.013 2.663,1.902 1.522,0.888 2.156,0.253 2.093,-0.635 M 15.663,-1.903 H 4.059 c -1.585,0 -0.127,1.902 0.571,3.868 0.697,1.966 -2.41,2.981 -5.2,2.537 -2.79,-0.444 -8.815,-4.313 -10.209,-5.073 -1.395,-0.761 -0.445,0.76 -0.445,0.76 2.474,3.425 5.517,8.245 5.517,8.245 H 6.469 c 0.951,1.077 1.267,2.219 1.267,2.219 H -4.375 c 0,0 0.951,1.585 1.712,2.472 0.761,0.888 0.127,1.206 0.127,1.206 h -3.171 l -2.6,-3.678 h -4.502 l 2.283,3.678 h -4.502 c -0.126,-1.078 -1.903,-3.742 -1.903,-3.742 l -17.691,0.064 -0.697,-2.283 h 17.311 c 0,0 -1.586,-2.473 -4.122,-5.77 -2.537,-3.297 -6.088,-5.074 -8.37,-5.644 -2.283,-0.571 -1.332,0.761 -1.332,0.761 5.897,2.282 4.883,6.912 1.332,7.038 -3.552,0.127 -5.518,-3.931 -6.342,-5.516 -0.824,-1.585 -2.093,-1.84 -2.093,-1.84 -2.091,0 -1.521,0.889 0.445,3.235 1.808,2.158 -2.6,1.585 -2.6,1.585 -0.317,1.141 -1.712,1.585 -2.726,1.268 -1.015,-0.317 -2.981,-2.029 -3.996,-2.79 -1.014,-0.76 -0.887,-0.127 -0.887,-0.127 0.824,3.805 -2.601,3.552 -3.995,3.361 -1.395,-0.19 -0.254,1.332 -0.254,1.332 l 4.883,8.053 h -4.123 c -1.711,-3.932 -9.067,-13.824 -9.764,-14.712 -0.697,-0.887 -1.713,-0.57 -2.917,-0.633 -1.205,-0.064 -1.649,2.345 -2.347,4.248 -0.697,1.903 -3.234,1.268 -4.375,0.824 -1.141,-0.443 -0.888,0 -1.648,0.698 -0.761,0.697 -2.791,0.063 -3.869,-0.507 -1.078,-0.57 -1.078,-0.254 -1.078,-0.254 -1.648,2.029 -6.721,-0.19 -6.721,-0.19 0,0 -7.736,-3.679 -8.941,-4.059 -1.205,-0.38 -0.444,1.142 -0.444,1.142 1.332,1.585 1.142,2.536 1.142,2.536 -0.445,2.156 -2.854,3.044 -6.849,1.268 -3.995,-1.775 -6.912,-4.248 -9.321,-5.39 -2.41,-1.141 -0.888,1.332 -0.888,1.332 l 1.966,3.614 -3.108,0.064 c 0,0 -3.487,-2.727 -4.502,-3.234 -1.014,-0.507 -0.951,0 -0.951,0 -0.824,1.712 -4.756,4.375 -6.658,5.263 -1.902,0.888 -0.317,2.283 -0.317,2.283 4.185,2.917 11.794,4.312 11.794,4.312 l 2.6,4.121 c -7.99,-0.443 -14.077,-3.741 -18.199,-6.784 -4.122,-3.044 -1.268,-4.63 -0.063,-5.39 1.205,-0.762 5.643,-2.917 5.643,-2.917 0,0 1.015,-0.381 0.698,-1.268 -0.634,-1.523 -2.854,-1.458 -2.854,-1.458 l -15.789,-0.254 v -3.044 c 0,0 11.287,0.254 14.966,0.254 3.677,0 6.911,1.267 7.926,1.775 1.014,0.507 1.141,0.57 1.141,0.57 1.015,0 0.825,-2.79 2.79,-2.79 2.98,0 4.819,1.586 5.961,2.157 1.141,0.57 1.268,-0.635 1.268,-0.635 0.634,-2.219 3.868,-1.649 5.327,-1.204 1.458,0.443 3.17,1.521 3.17,1.521 0.761,0 -0.063,-1.712 1.966,-1.712 0.951,0 1.458,0.254 3.932,1.332 2.473,1.078 5.58,2.409 7.735,3.742 2.157,1.331 1.269,-0.635 1.269,-0.635 0,0 -1.712,-2.79 -2.283,-3.678 -0.571,-0.888 3.107,-0.507 3.107,-0.507 0,0 2.029,3.424 2.283,3.868 0.253,0.444 0.761,1.649 2.473,1.649 1.712,0 0.951,-1.269 0.951,-1.269 l -2.283,-4.375 h 3.488 c 0,0 1.268,2.79 2.6,4.312 1.331,1.522 2.156,0.444 2.726,-0.951 0.571,-1.395 2.22,-3.678 5.264,-3.678 3.043,0 3.741,0.824 4.756,1.014 1.015,0.191 1.521,-1.141 5.263,-0.887 3.741,0.254 7.925,3.487 9.511,5.01 1.585,1.521 2.283,1.395 2.537,0.317 0.252,-1.078 -2.157,-3.044 -2.157,-3.488 0,-0.445 0.191,-2.347 3.552,-2.347 3.36,0 3.36,1.84 4.692,1.84 1.331,0 1.331,-1.586 3.805,-1.586 2.473,0 4.121,0.635 5.009,1.015 0.888,0.38 1.459,1.205 2.093,1.078 0.633,-0.127 0.697,-1.458 2.092,-1.458 1.395,0 4.566,1.648 5.517,2.155 0.951,0.508 1.522,-0.127 1.522,-0.127 0,-0.951 0.825,-2.282 2.029,-2.282 1.204,0 1.902,0.507 2.536,0.76 0.635,0.254 1.839,0.698 2.41,1.206 0.57,0.507 0.761,0.316 0.761,0.316 0.317,-1.838 1.839,-2.473 3.551,-2.473 1.713,0 3.107,1.205 3.615,1.396 0.507,0.19 0.888,1.077 1.585,-0.064 C 1.205,-5.073 3.615,-5.2 3.615,-5.2 l 11.16,0.063 c 0,0 0.761,1.585 1.079,2.093 0.317,0.507 -0.191,1.141 -0.191,1.141" /></g></g></g></g></svg>