<?xml version="1.0" encoding="UTF-8" standalone="no"?>
<svg
   xmlns:dc="http://purl.org/dc/elements/1.1/"
   xmlns:cc="http://creativecommons.org/ns#"
   xmlns:rdf="http://www.w3.org/1999/02/22-rdf-syntax-ns#"
   xmlns:svg="http://www.w3.org/2000/svg"
   xmlns="http://www.w3.org/2000/svg"
   viewBox="0 0 266.66666 266.66666"
   height="266.66666"
   width="266.66666"
   xml:space="preserve"
   id="svg2"
   version="1.1"><metadata
     id="metadata8"><rdf:RDF><cc:Work
         rdf:about=""><dc:format>image/svg+xml</dc:format><dc:type
           rdf:resource="http://purl.org/dc/dcmitype/StillImage" /></cc:Work></rdf:RDF></metadata><defs
     id="defs6" /><g
     transform="matrix(1.3333333,0,0,-1.3333333,0,266.66667)"
     id="g10"><g
       transform="scale(0.1)"
       id="g12"><path
         id="path14"
         style="fill:#ffffff;fill-opacity:1;fill-rule:nonzero;stroke:none"
         d="M 2000,0 H 0 V 2000 H 2000 V 0" /><path
         id="path16"
         style="fill:#231f20;fill-opacity:1;fill-rule:nonzero;stroke:none"
         d="m 1637.33,1094.02 -546.7,546.69 c -24.02,24.02 -55.95,37.25 -89.93,37.26 -33.973,0 -65.915,-13.23 -89.942,-37.26 L 364.066,1094.02 c -49.57,-49.59 -49.574,-130.274 -0.007,-179.86 L 910.758,367.461 c 24.015,-24.023 55.949,-37.254 89.922,-37.254 33.98,0 65.92,13.231 89.95,37.254 l 546.7,546.699 c 49.58,49.578 49.58,130.27 0,179.86 z M 1630.1,921.379 1083.4,374.688 c -22.09,-22.098 -51.47,-34.278 -82.72,-34.266 -31.242,0 -60.614,12.168 -82.696,34.266 L 371.277,921.379 c -45.586,45.601 -45.578,119.821 0.016,165.421 l 546.684,546.7 c 22.101,22.09 51.476,34.25 82.723,34.25 31.25,0 60.62,-12.16 82.7,-34.25 l 546.7,-546.7 c 45.61,-45.61 45.61,-119.82 0,-165.421" /><path
         id="path18"
         style="fill:#231f20;fill-opacity:1;fill-rule:nonzero;stroke:none"
         d="m 997.691,763.461 h 27.079 v 14.719 h -27.079 v -14.719" /><path
         id="path20"
         style="fill:#231f20;fill-opacity:1;fill-rule:nonzero;stroke:none"
         d="m 1202.17,771.449 h 7.24 l -3.61,6.516 z" /><path
         id="path22"
         style="fill:#231f20;fill-opacity:1;fill-rule:nonzero;stroke:none"
         d="m 1238.58,778.461 v -3.738 h 27.05 l -0.01,3.738 h -27.04" /><path
         id="path24"
         style="fill:#231f20;fill-opacity:1;fill-rule:nonzero;stroke:none"
         d="m 832.887,917.457 c 0.254,0.84 0.39,1.699 0.39,2.656 0,5.293 -3.281,7.938 -9.824,7.938 h -56.289 c -4.844,0 -8.273,-0.36 -10.273,-1.035 -2.813,-1.094 -4.688,-3.125 -5.625,-6.102 l -5.43,-17.051 h 82.625 l 4.426,13.594" /><path
         id="path26"
         style="fill:#231f20;fill-opacity:1;fill-rule:nonzero;stroke:none"
         d="m 736.871,763.461 h 27.07 v 14.719 h -27.07 v -14.719" /><path
         id="path28"
         style="fill:#231f20;fill-opacity:1;fill-rule:nonzero;stroke:none"
         d="m 950.563,763.461 h 27.089 v 14.719 h -27.089 v -14.719" /><path
         id="path30"
         style="fill:#231f20;fill-opacity:1;fill-rule:nonzero;stroke:none"
         d="m 1209.36,861.637 -2.59,-6.914 c -0.57,-1.758 -0.83,-3.391 -0.83,-4.864 0,-4.464 2.29,-6.691 6.84,-6.691 h 68.77 l 9.43,26.965 h -69.15 c -6.29,0 -10.45,-2.832 -12.47,-8.496" /><path
         id="path32"
         style="fill:#231f20;fill-opacity:1;fill-rule:nonzero;stroke:none"
         d="m 1081.25,1594.78 c -44.49,44.49 -116.617,44.48 -161.098,0 L 410.016,1084.64 c -44.493,-44.49 -44.493,-116.617 0,-161.101 L 920.152,413.398 c 44.481,-44.492 116.608,-44.472 161.098,0 l 510.13,510.141 c 44.5,44.484 44.5,116.611 0.01,161.101 z m 69.16,-434.85 c 90.47,55.05 146.48,-21.84 164.14,-52.2 -7.03,-3.48 -13.53,-6.44 -19.61,-8.89 -28.67,-11.63 -47.87,-12.84 -68.02,-10.23 -6.24,0.82 -12.57,2 -19.33,3.33 -5.05,125.85 -88.36,38.18 -102.65,22.14 -0.27,0.05 -0.53,0.12 -0.8,0.16 3.64,6.6 15.81,25.11 46.27,45.69 z m -484.965,30.57 c 0,0 55.157,14.14 104.649,-2.32 13.144,-24.96 25.547,-47.72 33.965,-62.97 -3.457,-0.64 -6.848,-1.31 -10.079,-1.98 -15.312,-3.23 -28.925,-6.9 -40.91,-10.71 -15.449,43.95 -87.625,77.98 -87.625,77.98 z m 16.668,-343.777 36.778,106.504 4.699,12.472 h 134.824 c 16.883,0 25.34,-6.953 25.34,-20.898 0,-5.227 -1.348,-11.719 -4.031,-19.512 l -20.93,-59.101 H 732.164 l -3.418,-10.305 c -0.937,-2.539 -1.406,-4.695 -1.406,-6.453 0,-4.2 2.683,-6.262 8.027,-6.262 h 115.41 L 837.496,805.504 H 713.07 c -23.582,0 -35.379,7.371 -35.379,22.109 0,4.129 1.465,10.516 4.422,19.11 z m 338.187,60.859 c 0.93,1.34 -3.42,-11.141 -13.07,-37.449 h -80.613 l -22.929,-64.629 h -43.809 l 56.699,160.43 H 1040.8 l -13.07,-37.883 h -80.8 l -7.266,-20.469 z M 723.961,761.293 c -0.586,-1.152 -1.348,-2.148 -2.285,-2.969 -0.949,-0.84 -2.051,-1.472 -3.293,-1.972 -1.25,-0.469 -2.528,-0.692 -3.836,-0.692 h -34.649 v 7.625 h 37.04 v 3.672 h -28.563 c -1.34,0 -2.637,0.227 -3.898,0.695 -1.25,0.469 -2.364,1.121 -3.329,1.953 -0.957,0.868 -1.738,1.883 -2.324,3.036 -0.586,1.183 -0.859,2.472 -0.859,3.839 0,1.493 0.332,2.813 1.015,4.012 0.665,1.164 1.543,2.141 2.625,2.961 1.086,0.828 2.297,1.434 3.665,1.856 1.367,0.457 2.742,0.664 4.16,0.664 h 33.328 V 778.5 h -36.445 v -3.777 h 28.156 c 1.445,0 2.812,-0.246 4.082,-0.743 1.269,-0.527 2.371,-1.21 3.289,-2.089 0.918,-0.84 1.64,-1.875 2.18,-3.059 0.546,-1.199 0.82,-2.441 0.82,-3.758 0,-1.386 -0.293,-2.656 -0.879,-3.781 z m 48.047,3.789 c 0,-1.269 -0.274,-2.469 -0.801,-3.574 -0.547,-1.113 -1.269,-2.09 -2.187,-2.93 -0.86,-0.867 -1.915,-1.531 -3.086,-2.012 -1.172,-0.476 -2.395,-0.742 -3.672,-0.742 h -23.555 c -1.387,0 -2.637,0.266 -3.848,0.723 -1.191,0.48 -2.226,1.133 -3.086,2.031 -0.871,0.86 -1.554,1.906 -2.031,3.059 -0.508,1.199 -0.762,2.508 -0.762,3.906 v 11.523 c 0,1.317 0.293,2.539 0.899,3.633 0.625,1.114 1.434,2.059 2.461,2.852 1.015,0.801 2.176,1.414 3.476,1.855 1.278,0.457 2.637,0.684 4.024,0.684 h 22.547 c 1.281,0 2.492,-0.274 3.664,-0.82 1.133,-0.54 2.168,-1.243 3.047,-2.141 0.886,-0.899 1.582,-1.914 2.109,-3.074 0.527,-1.192 0.801,-2.434 0.801,-3.684 z m 45.996,13.098 h -34.277 v -3.34 h 34.187 v -7.629 H 783.727 V 755.66 h -7.618 v 20.574 c 0,1.731 0.321,3.164 0.938,4.426 0.625,1.219 1.445,2.235 2.488,3.016 1.067,0.773 2.258,1.359 3.664,1.73 1.395,0.379 2.871,0.567 4.434,0.567 h 30.371 z m 47.559,0.222 H 847.77 V 755.66 h -7.676 v 22.742 h -17.922 v 7.766 h 43.391 z m 72.949,-0.222 h -34.278 v -3.34 h 34.18 v -7.629 h -34.18 V 755.66 h -7.617 v 20.574 c 0,1.731 0.313,3.164 0.918,4.426 0.613,1.219 1.465,2.235 2.488,3.016 1.075,0.773 2.278,1.359 3.665,1.73 1.394,0.379 2.871,0.567 4.453,0.567 h 30.371 z m 47.187,-13.098 c 0,-1.269 -0.285,-2.469 -0.82,-3.574 -0.539,-1.113 -1.262,-2.09 -2.149,-2.93 -0.898,-0.867 -1.933,-1.531 -3.105,-2.012 -1.172,-0.476 -2.402,-0.742 -3.672,-0.742 h -23.555 c -1.386,0 -2.668,0.266 -3.847,0.723 -1.192,0.48 -2.207,1.133 -3.067,2.031 -0.879,0.86 -1.562,1.906 -2.07,3.059 -0.508,1.199 -0.742,2.508 -0.742,3.906 v 11.523 c 0,1.317 0.293,2.539 0.918,3.633 0.605,1.114 1.414,2.059 2.43,2.852 1.027,0.801 2.187,1.414 3.488,1.855 1.297,0.457 2.637,0.684 4.004,0.684 h 22.578 c 1.269,0 2.469,-0.274 3.633,-0.82 1.172,-0.54 2.195,-1.243 3.074,-2.141 0.871,-0.899 1.582,-1.914 2.101,-3.074 0.547,-1.192 0.801,-2.434 0.801,-3.684 z m 47.131,0 c 0,-1.269 -0.27,-2.469 -0.81,-3.574 -0.56,-1.113 -1.25,-2.09 -2.16,-2.93 -0.89,-0.867 -1.95,-1.531 -3.1,-2.012 -1.18,-0.476 -2.4,-0.742 -3.69,-0.742 h -23.543 c -1.359,0 -2.656,0.266 -3.847,0.723 -1.192,0.48 -2.207,1.133 -3.086,2.031 -0.86,0.86 -1.563,1.906 -2.051,3.059 -0.48,1.199 -0.742,2.508 -0.742,3.906 v 11.523 c 0,1.317 0.301,2.539 0.918,3.633 0.605,1.114 1.414,2.059 2.449,2.852 1.016,0.801 2.168,1.414 3.469,1.855 1.308,0.457 2.644,0.684 4.023,0.684 h 22.56 c 1.27,0 2.48,-0.274 3.63,-0.82 1.16,-0.54 2.19,-1.243 3.07,-2.141 0.88,-0.899 1.6,-1.914 2.11,-3.074 0.53,-1.192 0.8,-2.434 0.8,-3.684 z m 47.49,13.32 h -17.78 V 755.66 h -7.7 v 22.742 h -17.91 v 7.766 h 43.39 z m -9.83,91.731 -22.91,-64.629 h -43.81 l 56.68,160.43 h 124.23 l -13.06,-37.883 h -80.82 l -7.23,-20.469 h 80.59 c 0.96,1.34 -3.4,-11.141 -13.04,-37.449 z m 59.01,-108.067 c -0.26,-0.988 -0.6,-1.847 -1.05,-2.687 -0.48,-0.801 -0.99,-1.492 -1.64,-2.098 -0.63,-0.586 -1.36,-1.066 -2.17,-1.398 -0.83,-0.313 -1.71,-0.477 -2.67,-0.477 -1.91,0 -3.5,0.547 -4.79,1.668 -1.27,1.106 -2.28,2.649 -3,4.649 l -4.67,16.711 -5.04,-16.582 c -0.59,-1.934 -1.58,-3.457 -3,-4.61 -1.43,-1.113 -3.13,-1.672 -5.12,-1.672 -0.96,0 -1.86,0.176 -2.68,0.52 -0.83,0.34 -1.56,0.801 -2.18,1.394 -0.61,0.598 -1.14,1.289 -1.56,2.082 -0.44,0.789 -0.72,1.668 -0.9,2.606 l -4.55,23.996 h 8.12 l 4.13,-22.512 5.12,17.219 c 0.58,1.922 1.53,3.406 2.92,4.492 1.4,1.082 3.08,1.621 5.09,1.621 1.73,0 3.2,-0.519 4.38,-1.562 1.19,-1.035 2.07,-2.422 2.59,-4.153 l 5.14,-17.175 4.33,22.07 h 7.79 z m 51.62,16.395 h -35.11 v -3.621 h 35.11 v -7.883 h -35.11 v -3.269 h 35.11 V 755.57 H 1149 c -1.41,0 -2.75,0.227 -4.04,0.715 -1.32,0.477 -2.48,1.16 -3.45,2.02 -1,0.859 -1.8,1.914 -2.37,3.097 -0.61,1.211 -0.89,2.539 -0.89,3.985 v 11.093 c 0,1.532 0.26,2.918 0.84,4.161 0.55,1.199 1.34,2.226 2.31,3.054 0.98,0.84 2.12,1.477 3.44,1.934 1.3,0.43 2.71,0.656 4.24,0.656 h 32.04 z m 36.83,-22.801 -4.61,8.028 h -15.14 l -4.22,-8.028 h -8.74 l 11.87,22.949 c 0.63,1.161 1.19,2.215 1.77,3.145 0.56,0.937 1.18,1.758 1.84,2.402 0.64,0.653 1.41,1.153 2.25,1.512 0.84,0.344 1.83,0.5 2.95,0.5 1.11,0 2.07,-0.156 2.87,-0.527 0.8,-0.344 1.51,-0.86 2.16,-1.524 0.62,-0.664 1.2,-1.484 1.76,-2.461 0.56,-0.937 1.14,-2.023 1.78,-3.254 l 11.89,-22.742 z m 55.54,0 h -7.86 v 11.445 h -27.05 V 755.66 h -8.07 v 30.469 l 33.39,-0.039 c 1.22,0 2.39,-0.274 3.52,-0.793 1.14,-0.527 2.13,-1.231 2.97,-2.098 0.88,-0.859 1.55,-1.867 2.07,-3.019 0.49,-1.16 0.75,-2.352 0.75,-3.602 0,-0.957 -0.16,-1.875 -0.44,-2.793 -0.31,-0.898 -0.73,-1.75 -1.29,-2.558 0.63,-0.754 1.13,-1.575 1.47,-2.5 0.35,-0.93 0.54,-1.829 0.54,-2.676 z m 50.17,5.633 c -0.59,-1.152 -1.36,-2.148 -2.3,-2.969 -0.95,-0.84 -2.05,-1.472 -3.29,-1.972 -1.24,-0.469 -2.53,-0.692 -3.86,-0.692 h -34.6 v 7.625 h 37.01 v 3.672 h -28.55 c -1.35,0 -2.66,0.227 -3.91,0.695 -1.25,0.469 -2.38,1.121 -3.34,1.953 -0.96,0.868 -1.71,1.883 -2.32,3.036 -0.55,1.183 -0.86,2.472 -0.86,3.839 0,1.493 0.34,2.813 1.02,4.012 0.67,1.164 1.54,2.141 2.64,2.961 1.07,0.828 2.28,1.434 3.66,1.856 1.36,0.457 2.76,0.664 4.16,0.664 h 33.34 V 778.5 H 1286 v -3.777 h 28.14 c 1.46,0 2.84,-0.246 4.1,-0.743 1.27,-0.527 2.36,-1.21 3.27,-2.089 0.92,-0.84 1.66,-1.875 2.2,-3.059 0.53,-1.199 0.8,-2.441 0.8,-3.758 0,-1.386 -0.29,-2.656 -0.85,-3.781 z m 33.47,172.461 -45.24,-128.25 h -134.9 c -7.38,0 -12.86,2.41 -16.45,7.226 -2.95,4.161 -4.43,9.383 -4.43,15.684 0,4.297 0.65,8.25 2.01,11.883 l 17.27,49.641 c 4.16,12.078 12.66,18.132 25.54,18.132 h 103.33 l 3.01,9.473 c 0.39,1.191 0.61,2.344 0.61,3.43 0,4.695 -3.01,7.078 -9.07,7.078 h -110.38 l 13.3,37.648 h 135.89 c 14.21,0 21.32,-7.109 21.32,-21.289 0,-3.75 -0.62,-7.324 -1.81,-10.656 z m -224.29,84.106 c -202.863,90.98 -314.836,81.32 -406.996,72.68 8.41,3.66 18.32,7.5 29.797,11.17 12.117,3.9 25.957,7.68 41.679,10.92 3.946,0.83 8.086,1.63 12.344,2.41 36.445,6.53 85.008,10.8 146.563,7.55 -2.696,1.76 -5.352,3.48 -8.008,5.18 -3.555,2.28 -7.082,4.48 -10.606,6.62 -166.32,101.71 -275.851,63.19 -275.851,63.19 0,0 0,28.28 63.586,77.74 53.32,41.45 252.304,-102.44 315.202,-150.07 7.27,-5.48 12.71,-9.69 15.91,-12.19 0.96,-0.72 1.7,-1.3 2.25,-1.75 18.79,-3.04 38.47,-6.76 59.01,-11.2 5.66,-1.21 11.39,-2.48 17.17,-3.82 10.64,-2.45 21.5,-5.1 32.57,-7.93 l 0.28,-0.06 0.25,-0.05 c 11.27,-1.78 20.91,-3.74 30.25,-5.66 3.29,-0.68 6.48,-1.32 9.61,-1.94 33.46,-6.59 58.88,-8.64 111.86,17.47 13.61,6.69 28.99,15.22 46.79,25.99 8.67,-80.61 -28.88,-198.098 -233.66,-106.25" /></g></g></svg>