<svg id="Layer_1" xmlns="http://www.w3.org/2000/svg" xmlns:xlink="http://www.w3.org/1999/xlink" viewBox="0 0 150 150" style="enable-background:new 0 0 150 150"><style>.st0{fill:#cc2229}</style><g><path class="st0" d="M49.3 70l10.6-15.5c.4-.6-.1-1.3-.9-1.3l-8.2-.1c-.6.0-1.8.8-2.4 1.4l-3.7 4.8-5.1 6.7V54.4c0-.8-.8-1.3-1.3-1.3H29c-.6.0-1.2.2-1.3 1.4.0 1.2 1.4 1.4 1.4 1.7v31c0 .6.8 1.5 1.4 1.5h8c.6.0 1.1-.8 1.1-1.4v-12.9l5.1 6.4 5.4 6.7c.4.5 1.3 1.3 2.2 1.3l8.7-.1c.8.0.8-1 .5-1.3C57.6 81.7 53.4 75.9 49.3 70zM79.5 53.2h-9.3c-1.1.0-1.3.6-1.5 1.3.2 1.3 1.5 1.6 1.5 1.6v31.3c0 .8.5 1.4 1.2 1.4h3.3 5c.9.0 1.2-.5 1.2-1.3v-33C80.8 53.7 80.2 53.2 79.5 53.2z"/><path class="st0" d="M107.7 37.2c-9.9-2.5-21-3.9-32.7-3.9-.1.0-.2.0-.3.0-10.6.0-20.8 1.2-30 3.3C19 42.5 1 55.6 1 70.8 1 86 19 99.2 44.8 105.1c9.2 2.1 19.3 3.3 30 3.3H75c11.7.0 22.8-1.4 32.7-3.9 24.5-6.1 41.3-18.9 41.3-33.6C149 56.1 132.1 43.3 107.7 37.2v0zM107.7 96.3C98 98.5 86.8 99.8 75 99.8c-.1.0-.2.0-.3.0-10.7.0-20.9-1.1-30-3-22.7-4.7-38.4-14.6-38.4-26s15.7-21.3 38.4-26c9.1-1.9 19.2-3 30-3H75c11.8.0 23 1.3 32.7 3.5 21.4 4.9 35.9 14.5 35.9 25.4S129.1 91.4 107.7 96.3v0z"/><path class="st0" d="M114.1 54.5c-.3-.7-.8-1.3-1.5-1.3H1e2c-.4.0-1.1.4-1.1 1 0 1.8 1.8 1.7 1.7 2L90.1 87.4c-.2.5.3 1.5.9 1.5l7.4-.1c.6.0 1.6-.5 1.8-1.3l3.5-10.5c1.2-3.5 2.4-7 3.5-10.5.1-.1.2-.2.4-.2.3.0.6.1.6.3l6.8 21c.1.5 1.1 1.2 1.6 1.2l7.7.1c.4.0 1-.9.8-1.3L114.1 54.5v0z"/></g></svg>