<?xml version="1.0" encoding="utf-8"?>
<!-- Generator: Adobe Illustrator 19.2.1, SVG Export Plug-In . SVG Version: 6.00 Build 0)  -->
<svg version="1.1" id="layer" xmlns="http://www.w3.org/2000/svg" xmlns:xlink="http://www.w3.org/1999/xlink" x="0px" y="0px"
	 viewBox="0 0 652 652" style="enable-background:new 0 0 652 652;" xml:space="preserve">
<style type="text/css">
	.st0{fill:#FFCB05;}
</style>
<g>
	<path d="M296.9,269.8c8.7-1.3,17.7-0.9,26.3,0.9c4.8,1.1,9.7,2.2,13.9,4.8c13,7.7,23.1,20.2,27,34.8c4.4,14.8,2.5,31.3-4.8,44.8
		c-5.6,10.1-14.2,18.6-24.4,23.9c-14,7.3-31.2,8.3-45.9,2.8c-14-5.1-25.6-16-32-29.4c-6.8-14-7.2-30.7-2.1-45.4
		C261.2,288.4,277.6,273.5,296.9,269.8"/>
	<path class="st0" d="M285.8,278.7c11.1-5.3,24.1-6.6,35.8-2.9c13.2,4,24.3,14.6,28.9,27.6c4.1,11,3.4,23.8-2.2,34.1
		c-5.6,10.6-16.7,18.4-28.8,19.2c-5.6,0.5-11.1-1.4-16.4-2.9c7.4,4.7,16.9,5.8,25.3,3.2c12.5-3.7,22.4-14.2,26.3-26.5
		c3.8-11.7,2.2-25-3.7-35.7c-3.5-6.9-9.5-11.8-14.7-17.2c20.3,11.8,27.6,40.1,17.1,60.8c-6.1,12.6-18.8,22.2-33.1,23.1
		c-9.6,0.6-19.7-2.7-26.8-9.4c-8.7-7.9-12.3-20.6-9.2-31.9c2.1-8.2,8.4-15.3,16.3-18.5c4.9-2.1,10.3-1.1,15.4-0.5
		c-5.9-2.9-13-3.1-19.3-1.3c-4.6,1.7-8.7,4.7-12,8.4c-6.4,7.1-8.8,17.3-7.5,26.7c0.7,5.9,3.5,11.2,5.7,16.6
		c-7.2-9.9-9.4-23.4-5.3-35c4.3-12.8,16.5-23.1,30.3-23.1c11.3,0,21.7,8.6,24.7,19.4c1.4,5.4,0.7,11.3-2.2,16.1
		c-2.1,3.4-14-4.7-16.8-1.8c7.8-1,21.8,2.4,23.3-5c3.1-13.8-6-28-18.6-33.2c-8.4-3.9-18-2.7-26.6-0.5c8.6-4.3,18.9-5.2,28-1.6
		c13.7,5,23.4,19.4,22.5,34c-0.4,10.2-7,20-16.5,23.9c-4.4,1.9-9.2,1.5-13.9,1.9c11,4,23.6-1.7,29.5-11.3c5.4-8.1,6.5-18.6,3.8-27.9
		c-3.7-13-14.2-23.8-27.2-27.4c-8.9-2.8-18.8-3-27.7,0c-8,2.6-14.9,7.9-20.7,13.9c-4.4,4.6-7.3,10.3-10.5,15.6
		C263.3,296.2,273.2,284.9,285.8,278.7"/>
	<path d="M504.6,284.5c9.2,0,18.4-0.1,27.7-0.1c0,21.6,0,43.3,0.2,65c-0.1,5.9-0.3,12.6-4.4,17.2c-3.8,4.5-9.9,5.6-15.5,5.7
		c-18.8,0-37.8,0.1-56.6,0.1c-0.1-29.3-0.1-58.5-0.1-87.7c9.3-0.1,18.6-0.1,27.9,0c0,21.9,0.1,43.9,0.2,65.8
		c6.9,0.1,13.8,0,20.6-0.1C504.6,328.4,504.2,306.4,504.6,284.5"/>
	<path d="M543.5,284.4c23.9,0,47.9-0.1,71.8-0.3c8-0.4,16-0.4,23.9-0.1c-4.9,6.6-10.5,12.8-15.4,19.3c-1.2,1.6-2.9,3-4.9,2.9
		c-15.9,0-31.8,0.1-47.6,0.2c-0.1,4-0.1,7.9,0,12c16.7,0.1,33.4,0,50.1,0c0.1,12.4,0.1,24.8,0.1,37.3c-0.2,4.9-1.4,10.3-5.3,13.6
		c-3,2.5-7.2,2.8-10.9,2.9c-20.6,0.1-41.1,0-61.7,0.1c-0.3-7.4-0.3-14.8,0.2-22.2c16.7,0.1,33.4,0.1,50.1-0.2
		c-0.1-3.1-0.1-6.2-0.1-9.3c-16.7-0.4-33.5,0.6-50.2,0.3C543.4,322,543.4,303.2,543.5,284.4"/>
	<path d="M399.4,285.2c11,0,21.9-0.1,32.8,0.1c-8.1,21.7-16.3,43.4-24.4,65.2c13.3,0.4,26.7,0,40.1,0.1c-0.3,6.4-1,13.7-6,18.2
		c-4.5,4.2-11.1,3.8-16.9,4c-20.2,0.1-40.3,0.2-60.5,0.1C376,343.7,387.8,314.5,399.4,285.2"/>
	<path d="M90.3,286.3c19.2-0.2,38.5-0.1,57.8-0.2V353c0,7.1-3.5,14.4-9.8,18c-3.9,2.4-8.8,3.1-13.3,3.1H75.1
		c5.2-6.5,10.5-13,15.8-19.4c0.9-1.1,2-2.5,3.6-2.4c8.6-0.4,17.1,0.1,25.7-0.4c-0.2-14.4-0.2-28.8,0-43.2c-4.1,0.1-8.2-0.4-12.2,0.3
		c-1,0.1-1.6,1.1-2.2,1.7c-16.2,19.8-32.7,39.5-48.9,59.3c-1.2,1.4-2.4,2.8-3.8,4c-12.4,0.8-24.9,0.1-37.3,0.6
		c8.4-11,17.6-21.4,26.2-32.3c14.6-17.7,28.9-35.4,43.4-53.1C86.4,287.6,88.1,286.1,90.3,286.3"/>
	<path d="M161.9,286.2c22.8-0.3,45.6,0,68.4-0.5c6.2,0,12.4-0.1,18.7,0.1c-2.7,7.4-5.5,14.7-8.3,22.2c-16.9,0.2-33.8,0.1-50.7,0.3
		v10.9c12.2-0.1,24.5,0.2,36.7-0.3c4.7-0.2,9.4,0.2,14,0.2c0,7.3,0.1,14.7,0,22c-16.9,0.1-33.8,0.1-50.7,0.2c0.1,3.5,0,7,0.1,10.5
		c17,0.1,34-0.1,50.8-0.1c-0.4,6.4-1.3,13.7-6.4,18.2c-3.7,3.6-9.1,4-14,4.1c-19.5,0-38.9,0.2-58.4-0.1
		C161.9,344.6,161.9,315.4,161.9,286.2"/>
</g>
</svg>
