<?xml version="1.0" encoding="UTF-8" standalone="no"?>
<svg
   xmlns:dc="http://purl.org/dc/elements/1.1/"
   xmlns:cc="http://creativecommons.org/ns#"
   xmlns:rdf="http://www.w3.org/1999/02/22-rdf-syntax-ns#"
   xmlns:svg="http://www.w3.org/2000/svg"
   xmlns="http://www.w3.org/2000/svg"
   viewBox="0 0 257.33334 257.33334"
   height="257.33334"
   width="257.33334"
   xml:space="preserve"
   id="svg2"
   version="1.1"><metadata
     id="metadata8"><rdf:RDF><cc:Work
         rdf:about=""><dc:format>image/svg+xml</dc:format><dc:type
           rdf:resource="http://purl.org/dc/dcmitype/StillImage" /></cc:Work></rdf:RDF></metadata><defs
     id="defs6" /><g
     transform="matrix(1.3333333,0,0,-1.3333333,0,257.33333)"
     id="g10"><g
       transform="scale(0.1)"
       id="g12"><path
         id="path14"
         style="fill:#ffffff;fill-opacity:1;fill-rule:evenodd;stroke:none"
         d="M 0,1927.56 H 1927.56 V 0 H 0 v 1927.56" /><path
         id="path16"
         style="fill:#ffffff;fill-opacity:1;fill-rule:evenodd;stroke:none"
         d="m 88.8086,963.781 c 0,245.339 390.3714,444.209 874.9724,444.209 484.599,0 874.969,-198.87 874.969,-444.209 0,-245.336 -390.37,-444.215 -874.969,-444.215 -484.601,0 -874.9724,198.879 -874.9724,444.215" /><path
         id="path18"
         style="fill:#db1c30;fill-opacity:1;fill-rule:evenodd;stroke:none"
         d="m 963.781,1327.23 c 494.699,0 794.199,-202.43 794.199,-363.449 0,-161.023 -299.5,-363.449 -794.199,-363.449 -494.707,0 -794.203,202.426 -794.203,363.449 0,161.019 299.496,363.449 794.203,363.449" /><path
         id="path20"
         style="fill:#231f20;fill-opacity:1;fill-rule:evenodd;stroke:none"
         d="m 963.781,1411.77 c 484.129,0 878.739,-198.72 878.739,-447.989 0,-249.273 -394.61,-447.984 -878.739,-447.984 -484.129,0 -878.7419,198.711 -878.7419,447.984 0,249.269 394.6129,447.989 878.7419,447.989 z m 0,-7.55 c -485.07,0 -871.2029,-199.04 -871.2029,-440.439 0,-241.398 386.1329,-440.445 871.2029,-440.445 485.069,0 871.199,199.047 871.199,440.445 0,241.399 -386.13,440.439 -871.199,440.439" /><path
         id="path22"
         style="fill:#231f20;fill-opacity:1;fill-rule:evenodd;stroke:none"
         d="m 1761.75,963.781 c 0,-164.926 -303.67,-367.218 -797.969,-367.218 -494.297,0 -797.972,202.292 -797.972,367.218 0,164.919 303.675,367.219 797.972,367.219 494.299,0 797.969,-202.3 797.969,-367.219 z m -7.54,0 c 0,157.119 -295.32,359.679 -790.429,359.679 -495.113,0 -790.433,-202.56 -790.433,-359.679 0,-157.121 295.32,-359.679 790.433,-359.679 495.109,0 790.429,202.558 790.429,359.679" /><path
         id="path24"
         style="fill:#db1c30;fill-opacity:1;fill-rule:evenodd;stroke:none"
         d="m 983.973,1367.61 c 0,-11.15 -9.043,-20.19 -20.192,-20.19 -11.152,0 -20.191,9.04 -20.191,20.19 0,11.15 9.039,20.19 20.191,20.19 11.149,0 20.192,-9.04 20.192,-20.19" /><path
         id="path26"
         style="fill:#db1c30;fill-opacity:1;fill-rule:evenodd;stroke:none"
         d="m 917.277,1367.05 c 0.391,-11.14 -8.328,-20.5 -19.472,-20.88 -11.149,-0.39 -20.496,8.33 -20.883,19.47 -0.391,11.15 8.328,20.5 19.473,20.89 11.144,0.38 20.496,-8.33 20.882,-19.48" /><path
         id="path28"
         style="fill:#db1c30;fill-opacity:1;fill-rule:evenodd;stroke:none"
         d="m 850.656,1363.93 c 0.782,-11.13 -7.605,-20.78 -18.734,-21.55 -11.121,-0.78 -20.77,7.6 -21.547,18.73 -0.777,11.12 7.609,20.77 18.73,21.55 11.125,0.78 20.774,-7.61 21.551,-18.73" /><path
         id="path30"
         style="fill:#db1c30;fill-opacity:1;fill-rule:evenodd;stroke:none"
         d="m 784.188,1358.45 c 1.359,-11.07 -6.512,-21.15 -17.583,-22.51 -11.066,-1.36 -21.14,6.51 -22.5,17.58 -1.355,11.07 6.512,21.14 17.583,22.5 11.066,1.36 21.14,-6.51 22.5,-17.57" /><path
         id="path32"
         style="fill:#db1c30;fill-opacity:1;fill-rule:evenodd;stroke:none"
         d="m 718.059,1349.78 c 1.746,-11.02 -5.77,-21.36 -16.786,-23.1 -11.011,-1.75 -21.355,5.77 -23.097,16.78 -1.746,11.02 5.769,21.36 16.781,23.1 11.016,1.75 21.359,-5.77 23.102,-16.78" /><path
         id="path34"
         style="fill:#db1c30;fill-opacity:1;fill-rule:evenodd;stroke:none"
         d="m 652.328,1338.49 c 2.32,-10.9 -4.644,-21.63 -15.555,-23.95 -10.906,-2.31 -21.625,4.65 -23.945,15.55 -2.32,10.91 4.645,21.64 15.555,23.96 10.902,2.31 21.629,-4.65 23.945,-15.56" /><path
         id="path36"
         style="fill:#db1c30;fill-opacity:1;fill-rule:evenodd;stroke:none"
         d="m 587.219,1324.02 c 2.886,-10.77 -3.504,-21.84 -14.278,-24.73 -10.773,-2.88 -21.843,3.51 -24.73,14.28 -2.883,10.77 3.508,21.84 14.277,24.73 10.774,2.89 21.844,-3.5 24.731,-14.28" /><path
         id="path38"
         style="fill:#db1c30;fill-opacity:1;fill-rule:evenodd;stroke:none"
         d="m 522.973,1306.11 c 3.445,-10.6 -2.356,-21.99 -12.965,-25.44 -10.606,-3.45 -21.996,2.36 -25.442,12.97 -3.449,10.6 2.36,21.99 12.965,25.44 10.606,3.44 21.996,-2.36 25.442,-12.97" /><path
         id="path40"
         style="fill:#db1c30;fill-opacity:1;fill-rule:evenodd;stroke:none"
         d="m 459.91,1284.43 c 3.996,-10.41 -1.203,-22.09 -11.613,-26.09 -10.414,-3.99 -22.09,1.21 -26.086,11.62 -4,10.41 1.199,22.09 11.613,26.09 10.41,3.99 22.09,-1.21 26.086,-11.62" /><path
         id="path42"
         style="fill:#db1c30;fill-opacity:1;fill-rule:evenodd;stroke:none"
         d="m 398.156,1259.24 c 4.887,-10.02 0.723,-22.11 -9.301,-27 -10.019,-4.89 -22.109,-0.72 -27,9.3 -4.886,10.02 -0.722,22.11 9.301,27 10.024,4.89 22.11,0.73 27,-9.3" /><path
         id="path44"
         style="fill:#db1c30;fill-opacity:1;fill-rule:evenodd;stroke:none"
         d="m 338.547,1229.29 c 5.742,-9.56 2.652,-21.96 -6.906,-27.71 -9.559,-5.74 -21.969,-2.65 -27.711,6.91 -5.742,9.56 -2.649,21.97 6.91,27.71 9.558,5.74 21.965,2.65 27.707,-6.91" /><path
         id="path46"
         style="fill:#db1c30;fill-opacity:1;fill-rule:evenodd;stroke:none"
         d="m 282.063,1193.85 c 6.55,-9.02 4.554,-21.65 -4.469,-28.21 -9.024,-6.55 -21.649,-4.55 -28.203,4.47 -6.555,9.03 -4.555,21.65 4.468,28.21 9.02,6.55 21.649,4.55 28.204,-4.47" /><path
         id="path48"
         style="fill:#db1c30;fill-opacity:1;fill-rule:evenodd;stroke:none"
         d="m 229.305,1153.01 c 7.883,-7.89 7.883,-20.67 0,-28.56 -7.887,-7.89 -20.672,-7.89 -28.555,0 -7.887,7.89 -7.887,20.67 0,28.56 7.883,7.88 20.668,7.88 28.555,0" /><path
         id="path50"
         style="fill:#db1c30;fill-opacity:1;fill-rule:evenodd;stroke:none"
         d="m 183.488,1104.52 c 9.133,-6.4 11.352,-18.99 4.957,-28.13 -6.398,-9.13 -18.988,-11.35 -28.125,-4.95 -9.132,6.4 -11.351,18.98 -4.957,28.12 6.395,9.13 18.989,11.35 28.125,4.96" /><path
         id="path52"
         style="fill:#db1c30;fill-opacity:1;fill-rule:evenodd;stroke:none"
         d="m 147.57,1048.18 c 10.547,-3.63 16.149,-15.12 12.52,-25.66 -3.633,-10.55 -15.121,-16.15 -25.664,-12.52 -10.547,3.63 -16.149,15.12 -12.52,25.67 3.629,10.54 15.121,16.15 25.664,12.51" /><path
         id="path54"
         style="fill:#db1c30;fill-opacity:1;fill-rule:evenodd;stroke:none"
         d="m 984,559.949 c 0,-11.152 -9.039,-20.191 -20.187,-20.191 -11.153,0 -20.192,9.039 -20.192,20.191 0,11.149 9.039,20.192 20.192,20.192 11.148,0 20.187,-9.043 20.187,-20.192" /><path
         id="path56"
         style="fill:#db1c30;fill-opacity:1;fill-rule:evenodd;stroke:none"
         d="m 917.305,560.508 c -0.387,-11.145 -9.739,-19.863 -20.887,-19.477 -11.141,0.391 -19.859,9.742 -19.473,20.887 0.391,11.141 9.743,19.863 20.883,19.473 11.145,-0.391 19.867,-9.739 19.477,-20.883" /><path
         id="path58"
         style="fill:#db1c30;fill-opacity:1;fill-rule:evenodd;stroke:none"
         d="m 850.684,563.633 c -0.782,-11.125 -10.426,-19.512 -21.551,-18.731 -11.125,0.778 -19.512,10.426 -18.735,21.551 0.778,11.121 10.426,19.508 21.551,18.731 11.121,-0.778 19.512,-10.426 18.735,-21.551" /><path
         id="path60"
         style="fill:#db1c30;fill-opacity:1;fill-rule:evenodd;stroke:none"
         d="m 784.207,569.113 c -1.355,-11.066 -11.43,-18.937 -22.5,-17.578 -11.07,1.36 -18.937,11.434 -17.582,22.504 1.363,11.07 11.438,18.938 22.504,17.578 11.066,-1.355 18.937,-11.429 17.578,-22.504" /><path
         id="path62"
         style="fill:#db1c30;fill-opacity:1;fill-rule:evenodd;stroke:none"
         d="m 718.078,577.781 c -1.742,-11.011 -12.086,-18.527 -23.101,-16.785 -11.016,1.746 -18.528,12.086 -16.786,23.106 1.747,11.011 12.086,18.527 23.102,16.781 11.016,-1.742 18.531,-12.086 16.785,-23.102" /><path
         id="path64"
         style="fill:#db1c30;fill-opacity:1;fill-rule:evenodd;stroke:none"
         d="m 652.344,589.066 c -2.321,-10.906 -13.043,-17.871 -23.949,-15.55 -10.911,2.316 -17.872,13.039 -15.551,23.949 2.316,10.906 13.039,17.867 23.945,15.551 10.906,-2.321 17.871,-13.039 15.555,-23.95" /><path
         id="path66"
         style="fill:#db1c30;fill-opacity:1;fill-rule:evenodd;stroke:none"
         d="m 587.23,603.535 c -2.886,-10.769 -13.957,-17.164 -24.73,-14.277 -10.77,2.887 -17.164,13.957 -14.277,24.73 2.886,10.77 13.957,17.164 24.73,14.282 10.77,-2.891 17.164,-13.961 14.277,-24.735" /><path
         id="path68"
         style="fill:#db1c30;fill-opacity:1;fill-rule:evenodd;stroke:none"
         d="m 522.98,621.449 c -3.445,-10.609 -14.835,-16.41 -25.441,-12.965 -10.605,3.446 -16.41,14.836 -12.965,25.442 3.446,10.609 14.836,16.41 25.446,12.965 10.601,-3.446 16.406,-14.84 12.96,-25.442" /><path
         id="path70"
         style="fill:#db1c30;fill-opacity:1;fill-rule:evenodd;stroke:none"
         d="m 459.914,643.129 c -4,-10.414 -15.676,-15.613 -26.086,-11.613 -10.41,3.996 -15.613,15.672 -11.617,26.086 3.996,10.41 15.68,15.609 26.09,11.613 10.41,-3.996 15.609,-15.676 11.613,-26.086" /><path
         id="path72"
         style="fill:#db1c30;fill-opacity:1;fill-rule:evenodd;stroke:none"
         d="m 398.156,668.32 c -4.89,-10.023 -16.98,-14.183 -27,-9.297 -10.023,4.891 -14.187,16.977 -9.301,27 4.891,10.024 16.977,14.184 27,9.297 10.024,-4.886 14.188,-16.976 9.301,-27" /><path
         id="path74"
         style="fill:#db1c30;fill-opacity:1;fill-rule:evenodd;stroke:none"
         d="m 338.543,698.266 c -5.746,-9.559 -18.148,-12.649 -27.707,-6.907 -9.559,5.746 -12.652,18.149 -6.906,27.707 5.742,9.559 18.148,12.653 27.703,6.911 9.558,-5.747 12.656,-18.153 6.91,-27.711" /><path
         id="path76"
         style="fill:#db1c30;fill-opacity:1;fill-rule:evenodd;stroke:none"
         d="m 282.055,733.711 c -6.559,-9.023 -19.184,-11.023 -28.207,-4.469 -9.024,6.555 -11.02,19.184 -4.469,28.203 6.559,9.024 19.184,11.024 28.207,4.469 9.019,-6.555 11.019,-19.184 4.469,-28.203" /><path
         id="path78"
         style="fill:#db1c30;fill-opacity:1;fill-rule:evenodd;stroke:none"
         d="m 229.289,774.555 c -7.887,-7.887 -20.672,-7.887 -28.555,0 -7.886,7.883 -7.886,20.668 0,28.554 7.883,7.883 20.668,7.883 28.555,0 7.887,-7.886 7.887,-20.671 0,-28.554" /><path
         id="path80"
         style="fill:#db1c30;fill-opacity:1;fill-rule:evenodd;stroke:none"
         d="m 183.465,823.043 c -9.137,-6.398 -21.727,-4.18 -28.121,4.957 -6.399,9.133 -4.18,21.727 4.957,28.121 9.133,6.395 21.726,4.176 28.121,-4.961 6.394,-9.133 4.18,-21.722 -4.957,-28.117" /><path
         id="path82"
         style="fill:#db1c30;fill-opacity:1;fill-rule:evenodd;stroke:none"
         d="m 147.547,879.371 c -10.547,-3.629 -22.039,1.977 -25.668,12.524 -3.629,10.539 1.976,22.031 12.519,25.664 10.543,3.629 22.036,-1.977 25.665,-12.52 3.628,-10.543 -1.973,-22.035 -12.516,-25.668" /><path
         id="path84"
         style="fill:#db1c30;fill-opacity:1;fill-rule:evenodd;stroke:none"
         d="m 129.898,943.602 c -11.144,-0.391 -20.496,8.328 -20.882,19.476 -0.391,11.137 8.328,20.488 19.472,20.883 11.145,0.387 20.496,-8.332 20.883,-19.477 0.391,-11.144 -8.328,-20.492 -19.473,-20.882" /><path
         id="path86"
         style="fill:#db1c30;fill-opacity:1;fill-rule:evenodd;stroke:none"
         d="m 1799.1,983.961 c 11.15,-0.395 19.86,-9.746 19.47,-20.883 -0.39,-11.148 -9.73,-19.867 -20.88,-19.476 -11.14,0.39 -19.86,9.738 -19.48,20.882 0.4,11.145 9.75,19.864 20.89,19.477" /><path
         id="path88"
         style="fill:#db1c30;fill-opacity:1;fill-rule:evenodd;stroke:none"
         d="m 1793.19,917.559 c 10.54,-3.633 16.15,-15.125 12.52,-25.664 -3.63,-10.547 -15.12,-16.153 -25.67,-12.524 -10.54,3.633 -16.15,15.125 -12.51,25.668 3.63,10.543 15.11,16.149 25.66,12.52" /><path
         id="path90"
         style="fill:#db1c30;fill-opacity:1;fill-rule:evenodd;stroke:none"
         d="m 1767.29,856.121 c 9.14,-6.394 11.35,-18.988 4.96,-28.121 -6.4,-9.137 -18.99,-11.355 -28.12,-4.957 -9.14,6.395 -11.36,18.984 -4.97,28.117 6.4,9.137 19,11.356 28.13,4.961" /><path
         id="path92"
         style="fill:#db1c30;fill-opacity:1;fill-rule:evenodd;stroke:none"
         d="m 1726.86,803.109 c 7.88,-7.886 7.88,-20.671 0,-28.554 -7.89,-7.887 -20.68,-7.887 -28.56,0 -7.89,7.883 -7.89,20.664 0,28.554 7.88,7.883 20.67,7.883 28.56,0" /><path
         id="path94"
         style="fill:#db1c30;fill-opacity:1;fill-rule:evenodd;stroke:none"
         d="m 1678.21,757.445 c 6.55,-9.019 4.55,-21.648 -4.47,-28.203 -9.03,-6.554 -21.65,-4.554 -28.2,4.469 -6.56,9.019 -4.56,21.648 4.46,28.203 9.02,6.555 21.65,4.555 28.21,-4.469" /><path
         id="path96"
         style="fill:#db1c30;fill-opacity:1;fill-rule:evenodd;stroke:none"
         d="m 1623.66,719.066 c 5.75,-9.558 2.65,-21.961 -6.91,-27.707 -9.56,-5.742 -21.96,-2.652 -27.7,6.907 -5.75,9.558 -2.66,21.964 6.9,27.711 9.56,5.742 21.97,2.648 27.71,-6.911" /><path
         id="path98"
         style="fill:#db1c30;fill-opacity:1;fill-rule:evenodd;stroke:none"
         d="m 1565.73,686.023 c 4.89,-10.023 0.73,-22.109 -9.29,-27 -10.03,-4.886 -22.12,-0.726 -27,9.297 -4.89,10.024 -0.73,22.114 9.29,27 10.02,4.887 22.11,0.727 27,-9.297" /><path
         id="path100"
         style="fill:#db1c30;fill-opacity:1;fill-rule:evenodd;stroke:none"
         d="m 1505.38,657.602 c 3.99,-10.414 -1.21,-22.09 -11.62,-26.086 -10.41,-4 -22.09,1.199 -26.08,11.613 -4,10.41 1.2,22.09 11.61,26.086 10.41,3.996 22.09,-1.203 26.09,-11.613" /><path
         id="path102"
         style="fill:#db1c30;fill-opacity:1;fill-rule:evenodd;stroke:none"
         d="m 1443.02,633.926 c 3.44,-10.606 -2.36,-21.996 -12.97,-25.442 -10.6,-3.445 -22,2.356 -25.44,12.965 -3.45,10.602 2.35,21.996 12.96,25.442 10.61,3.445 22,-2.356 25.45,-12.965" /><path
         id="path104"
         style="fill:#db1c30;fill-opacity:1;fill-rule:evenodd;stroke:none"
         d="m 1379.36,613.988 c 2.89,-10.773 -3.5,-21.843 -14.27,-24.73 -10.77,-2.887 -21.84,3.508 -24.73,14.277 -2.89,10.774 3.5,21.844 14.28,24.735 10.77,2.882 21.84,-3.512 24.72,-14.282" /><path
         id="path106"
         style="fill:#db1c30;fill-opacity:1;fill-rule:evenodd;stroke:none"
         d="m 1314.75,597.465 c 2.31,-10.91 -4.64,-21.633 -15.55,-23.949 -10.91,-2.321 -21.63,4.644 -23.95,15.55 -2.32,10.911 4.64,21.629 15.55,23.95 10.91,2.316 21.63,-4.645 23.95,-15.551" /><path
         id="path108"
         style="fill:#db1c30;fill-opacity:1;fill-rule:evenodd;stroke:none"
         d="m 1249.39,584.102 c 1.75,-11.02 -5.76,-21.36 -16.78,-23.106 -11.01,-1.742 -21.36,5.774 -23.1,16.785 -1.74,11.016 5.77,21.36 16.78,23.102 11.02,1.746 21.36,-5.77 23.1,-16.781" /><path
         id="path110"
         style="fill:#db1c30;fill-opacity:1;fill-rule:evenodd;stroke:none"
         d="m 1183.46,574.039 c 1.36,-11.07 -6.51,-21.144 -17.58,-22.504 -11.07,-1.359 -21.14,6.512 -22.5,17.578 -1.36,11.075 6.51,21.149 17.58,22.504 11.07,1.36 21.15,-6.508 22.5,-17.578" /><path
         id="path112"
         style="fill:#db1c30;fill-opacity:1;fill-rule:evenodd;stroke:none"
         d="m 1117.19,566.453 c 0.78,-11.125 -7.61,-20.773 -18.73,-21.551 -11.13,-0.781 -20.78,7.606 -21.55,18.731 -0.78,11.125 7.61,20.773 18.73,21.551 11.13,0.777 20.77,-7.61 21.55,-18.731" /><path
         id="path114"
         style="fill:#db1c30;fill-opacity:1;fill-rule:evenodd;stroke:none"
         d="m 1050.64,561.918 c 0.39,-11.145 -8.33,-20.496 -19.47,-20.887 -11.15,-0.386 -20.5,8.332 -20.88,19.477 -0.4,11.144 8.32,20.492 19.47,20.883 11.14,0.39 20.49,-8.332 20.88,-19.473" /><path
         id="path116"
         style="fill:#db1c30;fill-opacity:1;fill-rule:evenodd;stroke:none"
         d="m 943.621,1367.61 c 0,11.15 9.039,20.19 20.192,20.19 11.148,0 20.187,-9.04 20.187,-20.19 0,-11.15 -9.039,-20.19 -20.187,-20.19 -11.153,0 -20.192,9.04 -20.192,20.19" /><path
         id="path118"
         style="fill:#db1c30;fill-opacity:1;fill-rule:evenodd;stroke:none"
         d="m 1010.31,1367.05 c 0.39,11.15 9.74,19.86 20.88,19.48 11.15,-0.39 19.87,-9.74 19.48,-20.89 -0.39,-11.14 -9.74,-19.86 -20.88,-19.47 -11.15,0.38 -19.87,9.74 -19.48,20.88" /><path
         id="path120"
         style="fill:#db1c30;fill-opacity:1;fill-rule:evenodd;stroke:none"
         d="m 1076.93,1363.93 c 0.78,11.12 10.43,19.51 21.55,18.73 11.13,-0.78 19.51,-10.43 18.73,-21.55 -0.77,-11.13 -10.42,-19.51 -21.55,-18.73 -11.12,0.77 -19.51,10.42 -18.73,21.55" /><path
         id="path122"
         style="fill:#db1c30;fill-opacity:1;fill-rule:evenodd;stroke:none"
         d="m 1143.4,1358.45 c 1.36,11.06 11.44,18.93 22.5,17.57 11.07,-1.36 18.94,-11.43 17.58,-22.5 -1.35,-11.07 -11.43,-18.94 -22.5,-17.58 -11.07,1.36 -18.94,11.44 -17.58,22.51" /><path
         id="path124"
         style="fill:#db1c30;fill-opacity:1;fill-rule:evenodd;stroke:none"
         d="m 1209.53,1349.78 c 1.74,11.01 12.09,18.53 23.1,16.78 11.01,-1.74 18.53,-12.08 16.78,-23.1 -1.74,-11.01 -12.08,-18.53 -23.1,-16.78 -11.01,1.74 -18.53,12.08 -16.78,23.1" /><path
         id="path126"
         style="fill:#db1c30;fill-opacity:1;fill-rule:evenodd;stroke:none"
         d="m 1275.26,1338.49 c 2.32,10.91 13.04,17.87 23.95,15.56 10.91,-2.32 17.87,-13.05 15.55,-23.96 -2.31,-10.9 -13.04,-17.86 -23.95,-15.55 -10.9,2.32 -17.87,13.05 -15.55,23.95" /><path
         id="path128"
         style="fill:#db1c30;fill-opacity:1;fill-rule:evenodd;stroke:none"
         d="m 1340.37,1324.02 c 2.88,10.78 13.95,17.17 24.73,14.28 10.77,-2.89 17.16,-13.96 14.28,-24.73 -2.89,-10.77 -13.96,-17.16 -24.74,-14.28 -10.76,2.89 -17.16,13.96 -14.27,24.73" /><path
         id="path130"
         style="fill:#db1c30;fill-opacity:1;fill-rule:evenodd;stroke:none"
         d="m 1404.62,1306.11 c 3.44,10.61 14.83,16.41 25.44,12.97 10.6,-3.45 16.41,-14.84 12.96,-25.44 -3.44,-10.61 -14.84,-16.42 -25.44,-12.97 -10.61,3.45 -16.41,14.84 -12.96,25.44" /><path
         id="path132"
         style="fill:#db1c30;fill-opacity:1;fill-rule:evenodd;stroke:none"
         d="m 1467.68,1284.43 c 4,10.41 15.67,15.61 26.09,11.62 10.41,-4 15.61,-15.68 11.61,-26.09 -4,-10.41 -15.68,-15.61 -26.09,-11.62 -10.41,4 -15.61,15.68 -11.61,26.09" /><path
         id="path134"
         style="fill:#db1c30;fill-opacity:1;fill-rule:evenodd;stroke:none"
         d="m 1529.43,1259.24 c 4.89,10.03 16.98,14.19 27,9.3 10.03,-4.89 14.19,-16.98 9.3,-27 -4.89,-10.02 -16.98,-14.19 -27,-9.3 -10.02,4.89 -14.18,16.98 -9.3,27" /><path
         id="path136"
         style="fill:#db1c30;fill-opacity:1;fill-rule:evenodd;stroke:none"
         d="m 1589.04,1229.29 c 5.75,9.56 18.15,12.65 27.71,6.91 9.56,-5.74 12.65,-18.15 6.91,-27.71 -5.75,-9.56 -18.15,-12.65 -27.71,-6.91 -9.56,5.75 -12.65,18.15 -6.91,27.71" /><path
         id="path138"
         style="fill:#db1c30;fill-opacity:1;fill-rule:evenodd;stroke:none"
         d="m 1645.53,1193.85 c 6.55,9.02 19.18,11.02 28.2,4.47 9.02,-6.56 11.02,-19.18 4.47,-28.21 -6.56,-9.02 -19.18,-11.02 -28.21,-4.47 -9.02,6.56 -11.02,19.19 -4.46,28.21" /><path
         id="path140"
         style="fill:#db1c30;fill-opacity:1;fill-rule:evenodd;stroke:none"
         d="m 1698.29,1153.01 c 7.88,7.88 20.66,7.88 28.55,0 7.89,-7.89 7.89,-20.67 0,-28.56 -7.89,-7.89 -20.67,-7.89 -28.55,0 -7.89,7.89 -7.89,20.67 0,28.56" /><path
         id="path142"
         style="fill:#db1c30;fill-opacity:1;fill-rule:evenodd;stroke:none"
         d="m 1744.11,1104.52 c 9.13,6.39 21.72,4.17 28.12,-4.96 6.39,-9.14 4.17,-21.72 -4.96,-28.12 -9.14,-6.4 -21.73,-4.18 -28.13,4.95 -6.39,9.14 -4.17,21.73 4.97,28.13" /><path
         id="path144"
         style="fill:#db1c30;fill-opacity:1;fill-rule:evenodd;stroke:none"
         d="m 1780.02,1048.18 c 10.54,3.64 22.03,-1.97 25.66,-12.51 3.63,-10.55 -1.97,-22.04 -12.52,-25.67 -10.54,-3.63 -22.03,1.97 -25.66,12.52 -3.63,10.54 1.97,22.03 12.52,25.66" /><path
         id="path146"
         style="fill:#ffffff;fill-opacity:1;fill-rule:evenodd;stroke:none"
         d="m 315.949,823.09 h 87.227 c 36.465,0 62.125,38.906 62.125,70.922 0,30.554 -14.391,48.738 -30.969,57.773 l -6.594,3.59 6.414,3.91 c 14.891,9.067 24.504,34.004 24.504,51.025 0,21.55 -12.961,51.36 -42.019,60.98 l 1.058,2.98 c 7.586,-2.54 13.743,-6.11 18.391,-9.4 4.867,-3.45 8.082,-6.6 9.562,-7.95 3.727,-3.39 10.122,-9.25 15.899,-15.79 5.019,-5.67 9.144,-10.99 12.031,-15.26 8.567,-12.7 12.559,-27.577 12.559,-39.694 0,-16.895 -9.008,-41.699 -24.02,-52.469 l -1,-0.719 11.399,-11.398 c 11.711,-10.942 20.269,-27.781 20.269,-51.711 0,-33.09 -26.465,-74.207 -65.41,-74.207 H 334.77 l -23.149,23.09 z m 70.508,32.387 h -27.48 v 83.914 h 30.91 c 13.504,0 24.707,-12.332 29.027,-28.078 -1.582,0.429 -3.195,0.66 -4.832,0.66 h -27.625 z m 0,116.425 c -1.043,-0.082 -2.117,-0.125 -3.215,-0.125 h -24.265 v 70.233 h 24.265 c 14.582,0 27.742,-9.86 30.418,-28.12 -2.031,0.47 -4.117,0.7 -6.222,0.7 h -20.981 v -42.688" /><path
         id="path148"
         style="fill:#ffffff;fill-opacity:1;fill-rule:evenodd;stroke:none"
         d="m 599.848,816.891 c 40.711,0 75.414,33.808 75.414,74.961 v 181.068 l 4.332,4.33 23.148,-23.09 V 867.715 c 0,-43.004 -36.211,-78.246 -78.699,-78.246 -18.32,0 -37.43,7.601 -56.418,21.773 -13.41,10.016 -26.687,27.262 -28.758,31.641 -0.754,1.594 -3.961,6.914 -7.449,14.035 l 1.684,0.453 c 12.789,-23.965 38.289,-40.48 66.746,-40.48 z m -26.582,260.359 23.152,-23.09 0.004,-186.445 c 0,-2.055 0.226,-4.07 0.652,-6.008 -16.722,1.324 -28.129,14.594 -28.129,30.145 l -0.007,181.068 4.328,4.33" /><path
         id="path150"
         style="fill:#ffffff;fill-opacity:1;fill-rule:evenodd;stroke:none"
         d="m 753.633,844.652 c -0.809,1.703 -4.223,7.328 -7.766,14.825 l 1.754,0.562 c 12.422,-25.398 39,-43.172 68.524,-43.172 51.441,0 74.89,29.824 74.89,74.985 v 57.925 l 4.332,4.332 23.153,-23.093 v -63.301 c 0,-46.766 -24.723,-78.242 -78.176,-78.242 -19.352,0 -37.809,7.48 -56.946,21.773 -14.011,10.465 -27.683,29.012 -29.765,33.406 z m 92.98,46.821 -23.152,23.093 4.332,4.329 h 25.387 v -27.047 l 0.004,-0.375 z m -61.902,0.355 v 113.802 c 0,18 12.742,33.37 31.055,34.99 20.168,1.77 34.703,-11.33 37.074,-29.64 -3.742,1.44 -7.988,2.63 -12.59,2.23 -16.477,-1.45 -28.059,-15.483 -28.059,-31.71 V 867.695 c 0,-3.058 0.512,-6.086 1.465,-8.984 -17.074,2.566 -28.945,17.539 -28.945,33.117 z m 88.852,173.662 c 6.55,-5.04 13.492,-10.79 20.613,-19.1 6.504,-7.59 11.234,-15.01 14.547,-21.11 6.562,-12.08 9.797,-26.921 9.797,-43.78 v -4.34 h -45.043 l -23.153,23.09 4.336,4.34 h 36.375 v 1.04 c 0,34.64 -13.789,60.38 -43.738,70.4 l 0.75,3.17 c 10.238,-3.38 18.348,-8.28 25.516,-13.71" /><path
         id="path152"
         style="fill:#ffffff;fill-opacity:1;fill-rule:evenodd;stroke:none"
         d="m 1038.38,907.922 h -33.02 l 27.22,120.448 c 1.71,7.38 7.05,7.18 8.47,-0.09 l 11.6,-57.198 z m 42.23,-89.16 4.32,4.328 h 43.5 l -57.52,250 3.23,4.07 23.16,-23.1 61.59,-258.388 h -55.14 z m -56.79,24.797 -10.82,-47.887 h -53.871 l -23.047,22.988 5.703,4.43 h 44.391 L 997,870.98 h 75.95 l 5.57,-27.425 -54.7,0.004" /><path
         id="path154"
         style="fill:#ffffff;fill-opacity:1;fill-rule:evenodd;stroke:none"
         d="m 1199.4,818.273 4.33,4.329 h 43.02 v 212.568 h 53.16 v 37.75 l 4.34,4.33 23.15,-23.09 v -46.41 h -53.17 V 795.18 h -51.68 z m -30.02,189.477 -23.15,23.09 4.33,4.33 h 51.69 v -27.42 h -32.87" /><path
         id="path156"
         style="fill:#ffffff;fill-opacity:1;fill-rule:evenodd;stroke:none"
         d="m 1363.93,1007.75 -23.15,23.09 4.33,4.33 h 51.68 v -27.42 z m 134.86,69.5 23.15,-23.09 v -46.41 h -53.16 V 795.18 h -51.69 l -23.15,23.093 4.33,4.329 h 43.03 v 212.568 h 53.16 v 37.75 l 4.33,4.33" /><path
         id="path158"
         style="fill:#ffffff;fill-opacity:1;fill-rule:evenodd;stroke:none"
         d="m 1592.89,1077.25 23.15,-23.09 V 795.672 h -51.69 l -23.15,23.09 4.34,4.328 h 43.02 v 249.83 l 4.33,4.33" /><path
         id="path160"
         style="fill:#9c8dce;fill-opacity:1;fill-rule:evenodd;stroke:none"
         d="m 463.594,1010.31 c 0,13.67 -4.938,30.76 -15.649,44.51 3.754,-3.46 8.879,-8.35 13.602,-13.69 5.019,-5.67 9.144,-10.99 12.031,-15.26 8.567,-12.7 12.559,-27.577 12.559,-39.694 0,-16.895 -9.008,-41.699 -24.02,-52.469 l -1,-0.719 11.399,-11.398 c 11.711,-10.942 20.269,-27.781 20.269,-51.711 0,-33.09 -26.465,-74.207 -65.41,-74.207 H 334.77 l -22.54,22.48 h 90.946 c 40.191,0 67.062,42.231 67.062,75.86 0,31.847 -14.89,51.558 -32.644,61.605 16.367,10.676 26,36.996 26,54.693 z M 386.457,860.414 h -22.543 v 74.039 h 25.973 c 9.906,0 19.508,-9.285 23.734,-22.48 h -27.164 z m -3.215,176.656 c 11.582,0 22.539,-7.44 25.309,-22.5 l -1.113,0.02 h -20.981 v -37.727 c -1.043,-0.097 -2.113,-0.148 -3.215,-0.148 h -19.328 v 60.355 h 19.328" /><path
         id="path162"
         style="fill:#9c8dce;fill-opacity:1;fill-rule:evenodd;stroke:none"
         d="m 596.422,867.715 0.019,-0.985 c -13.566,1.567 -22.558,12.438 -22.558,25.122 l -0.008,184.788 22.543,-22.48 z m -51.031,-34.184 c 14.464,-13.367 33.73,-21.582 54.457,-21.582 43.379,0 80.355,35.965 80.355,79.903 v 184.788 l 22.539,-22.48 V 867.715 c 0,-43.004 -36.211,-78.246 -78.699,-78.246 -18.32,0 -37.43,7.601 -56.418,21.773 -8.359,6.242 -16.664,15.293 -22.234,22.289" /><path
         id="path164"
         style="fill:#9c8dce;fill-opacity:1;fill-rule:evenodd;stroke:none"
         d="m 761.145,833.789 c 14.628,-13.535 34.136,-21.863 55,-21.863 54.464,0 79.832,32.347 79.832,79.926 V 953.5 l 22.543,-22.484 v -63.301 c 0,-46.766 -24.723,-78.242 -78.176,-78.242 -19.352,0 -37.809,7.48 -56.946,21.773 -8.324,6.215 -16.527,15.285 -22.253,22.543 z m 62.929,80.168 h 24.164 v -22.484 h -1.625 z m -7.879,121.743 c 16.446,1.44 28.485,-8.41 31.375,-23.07 -2.312,0.53 -4.761,0.8 -7.32,0.58 -16.477,-1.45 -28.059,-15.483 -28.059,-31.71 V 867.695 c 0,-1.254 0.086,-2.5 0.254,-3.738 -13.547,2.992 -22.797,15.266 -22.797,27.871 v 113.802 c 0,15.66 11.004,28.7 26.547,30.07 z m 34.743,-36.059 h 45.039 v 5.989 c 0,23.33 -6.102,43 -18.747,56.98 5.458,-4.37 11.141,-9.44 16.946,-16.22 6.504,-7.59 11.234,-15.01 14.547,-21.11 6.562,-12.08 9.797,-26.921 9.797,-43.78 v -4.34 h -45.043 l -22.539,22.481" /><path
         id="path166"
         style="fill:#9c8dce;fill-opacity:1;fill-rule:evenodd;stroke:none"
         d="m 1039.49,912.859 h -27.95 l 25.23,111.661 13.22,-65.188 z m 41.72,-94.707 h 53.42 L 1075.3,1076 l 22,-21.94 61.59,-258.388 h -55.14 z m -144.616,0 h 53.531 l 10.825,47.887 h 67.97 l 4.56,-22.484 -49.66,0.004 -10.82,-47.887 h -53.871 l -22.535,22.48" /><path
         id="path168"
         style="fill:#9c8dce;fill-opacity:1;fill-rule:evenodd;stroke:none"
         d="m 1200.01,817.66 h 51.68 v 212.57 h 53.17 v 46.41 l 22.54,-22.48 v -46.41 h -53.17 V 795.18 h -51.68 z m -53.16,212.57 h 50.46 v -22.48 h -27.93 l -22.53,22.48" /><path
         id="path170"
         style="fill:#9c8dce;fill-opacity:1;fill-rule:evenodd;stroke:none"
         d="m 1341.39,1030.23 h 50.47 v -22.48 h -27.93 z m 53.16,-212.57 h 51.68 v 212.57 h 53.17 v 46.41 l 22.54,-22.48 v -46.41 h -53.16 V 795.18 h -51.69 l -22.54,22.48" /><path
         id="path172"
         style="fill:#9c8dce;fill-opacity:1;fill-rule:evenodd;stroke:none"
         d="m 1541.81,818.152 h 51.69 v 258.488 l 22.54,-22.48 V 795.672 h -51.69 l -22.54,22.48" /><path
         id="path174"
         style="fill:#231f20;fill-opacity:1;fill-rule:evenodd;stroke:none"
         d="m 310.141,818.758 5.379,5.375 h 87.656 c 35.683,0 61.082,38.207 61.082,69.879 0,30.172 -14.18,48.004 -30.422,56.851 l -8.191,4.461 7.964,4.852 c 14.465,8.812 24,33.32 24,50.134 0,21.5 -13.093,51.24 -42.316,60.31 l 1.754,4.95 c 16.312,-5.17 26.308,-15.15 29.305,-17.87 3.73,-3.4 10.16,-9.29 15.976,-15.88 5.055,-5.71 9.211,-11.06 12.113,-15.37 8.688,-12.87 12.743,-27.954 12.743,-40.274 0,-17.113 -9.094,-42.285 -24.457,-53.317 l 10.515,-10.519 c 11.938,-11.152 20.586,-28.262 20.586,-52.461 0,-33.434 -26.723,-75.254 -66.453,-75.254 H 334.34 Z M 387.5,910.926 V 854.43 h -29.57 v 86.008 h 31.957 c 14.734,0 26.527,-13.899 30.508,-30.704 -2.051,0.778 -4.168,1.192 -6.313,1.192 z m 0,102.614 v -42.587 c -1.375,-0.148 -2.789,-0.223 -4.258,-0.223 H 357.93 v 72.32 h 25.312 c 15.524,0 29.442,-10.82 31.653,-30.56 -2.403,0.7 -4.915,1.05 -7.457,1.05 H 387.5" /><path
         id="path176"
         style="fill:#231f20;fill-opacity:1;fill-rule:evenodd;stroke:none"
         d="m 533.637,858.602 c 12.484,-24.047 37.875,-40.668 66.211,-40.668 40.148,0 74.367,33.355 74.367,73.918 v 181.498 l 5.379,5.37 24.195,-24.13 V 867.715 c 0,-43.594 -36.691,-79.293 -79.746,-79.293 -18.613,0 -37.938,7.719 -57.043,21.984 -13.52,10.094 -26.918,27.469 -29.078,32.032 -0.793,1.675 -4.301,7.472 -7.992,15.156 z m 34.254,214.748 5.375,5.37 24.195,-24.13 0.008,-186.875 c 0,-2.461 0.332,-4.856 0.965,-7.137 -18.059,0.699 -30.536,14.746 -30.536,31.274 l -0.007,181.498" /><path
         id="path178"
         style="fill:#231f20;fill-opacity:1;fill-rule:evenodd;stroke:none"
         d="m 1053.72,971.066 -14.51,-64.187 h -35.16 l 27.51,121.721 c 1.98,8.54 8.9,8.2 10.51,-0.12 z m 49.6,-176.441 -24.19,24.133 5.37,5.375 h 42.61 l -57.33,249.217 4.27,5.37 24.2,-24.13 61.96,-259.965 z m -23.53,47.887 h -55.13 l -10.83,-47.887 h -55.131 l -24.195,24.133 6.922,5.375 h 43.918 l 10.824,47.89 h 77.642 l 5.98,-29.511" /><path
         id="path180"
         style="fill:#231f20;fill-opacity:1;fill-rule:evenodd;stroke:none"
         d="m 1222.11,794.133 -24.19,24.137 5.38,5.375 h 42.4 l 0.01,212.565 h 53.16 v 37.14 l 5.38,5.37 24.19,-24.13 v -47.89 h -53.16 V 794.133 Z M 1203.3,1006.7 h -34.35 l -24.2,24.14 5.38,5.37 h 53.17 v -29.51" /><path
         id="path182"
         style="fill:#231f20;fill-opacity:1;fill-rule:evenodd;stroke:none"
         d="m 1397.84,1006.7 h -34.34 l -24.2,24.14 5.38,5.37 h 53.16 z m 95.57,66.65 5.38,5.37 24.19,-24.13 v -47.89 h -53.16 V 794.133 h -53.16 l -24.2,24.137 5.38,5.375 h 42.41 v 212.565 h 53.16 v 37.14" /><path
         id="path184"
         style="fill:#231f20;fill-opacity:1;fill-rule:evenodd;stroke:none"
         d="m 1587.51,1073.35 5.38,5.37 24.19,-24.13 V 794.625 h -53.16 l -24.19,24.133 5.37,5.375 h 42.41 v 249.217" /><path
         id="path186"
         style="fill:#231f20;fill-opacity:1;fill-rule:evenodd;stroke:none"
         d="m 782.777,810.406 c -14.144,10.559 -27.929,29.235 -30.089,33.801 -0.844,1.785 -4.555,7.871 -8.27,15.902 l 3.75,1.2 c 12.082,-25.493 38.559,-43.399 67.977,-43.399 50.804,0 73.847,29.293 73.847,73.942 v 58.359 l 5.375,5.375 24.196,-24.137 v -63.734 c 0,-47.281 -25.125,-79.293 -79.219,-79.293 -19.645,0 -38.317,7.601 -57.567,21.984 z m 71.453,80.024 h -8.05 l -24.196,24.136 5.375,5.372 h 26.868 v -28.086 z m -39.007,-32.965 c -18.516,1.859 -31.559,17.762 -31.559,34.363 v 113.802 c 0,18.5 13.109,34.37 32.012,36.03 21.394,1.88 36.676,-12.55 38.39,-32.29 -4.089,1.68 -8.707,3.24 -13.722,2.8 -15.891,-1.4 -27.11,-14.932 -27.11,-30.67 V 867.695 c 0,-3.5 0.7,-6.972 1.989,-10.23 z m 32.062,223.075 c 10.891,-3.43 19.43,-8.55 26.91,-14.22 6.578,-5.06 13.586,-10.86 20.77,-19.25 6.562,-7.65 11.336,-15.14 14.676,-21.29 6.664,-12.27 9.922,-27.292 9.922,-44.28 v -5.387 h -46.52 l -24.195,24.137 5.379,5.38 h 35.765 c 0,34.69 -13.906,60.09 -43.933,69.7 l 1.226,5.21" /><path
         id="path188"
         style="fill:#ffffff;fill-opacity:1;fill-rule:evenodd;stroke:none"
         d="m 363.305,935.063 v -75.254 h 26.582 c 16.863,0 26.582,18.531 26.582,37.625 0,20.523 -12.817,37.629 -26.582,37.629 z m 0,102.617 v -61.571 h 19.937 c 16.863,0 26.582,11.692 26.582,30.781 0,20.52 -12.82,30.79 -26.582,30.79 z m 73.101,-82.094 c 17.953,-9.785 33.227,-29.414 33.227,-61.574 0,-33.43 -26.723,-75.254 -66.457,-75.254 h -93.035 v 259.962 h 86.39 c 46.52,0 66.453,-41.04 66.453,-68.41 0,-17.888 -9.929,-44.587 -26.578,-54.724" /><path
         id="path190"
         style="fill:#ffffff;fill-opacity:1;fill-rule:evenodd;stroke:none"
         d="m 626.43,891.852 v 186.868 h 53.164 V 891.852 c 0,-43.594 -36.692,-79.293 -79.746,-79.293 -43.051,0 -79.743,35.699 -79.743,79.293 v 186.868 h 53.161 l 0.011,-186.868 c 0,-14.047 10.782,-25.926 26.571,-25.926 15.789,0 26.582,11.879 26.582,25.926" /><path
         id="path192"
         style="fill:#ffffff;fill-opacity:1;fill-rule:evenodd;stroke:none"
         d="m 848.848,891.852 v 22.714 h -26.864 v 41.028 l 73.383,-0.008 v -63.734 c 0,-47.282 -25.129,-79.317 -79.222,-79.317 -43.047,0 -80.266,35.723 -80.266,79.317 v 113.778 c 0,43.6 37.219,79.3 80.266,79.3 54.093,0 79.222,-32.02 79.222,-79.3 v -5.38 h -46.519 v 5.38 c 0,18.72 -13.371,32.37 -32.703,30.67 -15.887,-1.39 -27.106,-14.72 -27.106,-30.67 V 891.828 c 0,-14.047 11.219,-27.656 27.106,-29.051 19.332,-1.703 32.703,10.352 32.703,29.075" /><path
         id="path194"
         style="fill:#ffffff;fill-opacity:1;fill-rule:evenodd;stroke:none"
         d="m 1060.16,912.254 -23.36,115.156 -26.03,-115.156 z m -125.656,-93.496 66.456,259.962 h 73.09 l 59.81,-259.962 h -54.73 l -9.72,47.89 h -68.95 l -10.823,-47.89 h -55.133" /><path
         id="path196"
         style="fill:#ffffff;fill-opacity:1;fill-rule:evenodd;stroke:none"
         d="m 1251.08,818.27 h -53.16 v 212.57 h -53.17 v 47.88 h 159.5 v -47.88 h -53.17 V 818.27" /><path
         id="path198"
         style="fill:#ffffff;fill-opacity:1;fill-rule:evenodd;stroke:none"
         d="m 1445.63,818.27 h -53.17 v 212.57 h -53.16 v 47.88 h 159.49 v -47.88 h -53.16 V 818.27" /><path
         id="path200"
         style="fill:#ffffff;fill-opacity:1;fill-rule:evenodd;stroke:none"
         d="m 1539.73,1078.72 h 53.16 V 818.758 h -53.16 v 259.962" /><path
         id="path202"
         style="fill:#9c8dce;fill-opacity:1;fill-rule:evenodd;stroke:none"
         d="m 978.711,1194.06 v -43.66 h 43.209 c 13.63,0 21.83,9.82 21.83,21.83 0,12.01 -8.2,21.83 -21.83,21.83 z m 0,67.71 v -38.91 h 43.209 c 12.07,0 19.46,8.75 19.46,19.46 0,10.69 -7.39,19.45 -19.46,19.45 z m -83.434,-68.75 v 40.13 h 24.036 v -10.29 h 27.039 v 38.91 h -64.93 v -13.07 h -24.039 v 12.03 25.09 h 164.537 c 25.34,0 45.88,-20.55 45.88,-45.88 0,-11.58 -4.29,-22.15 -11.37,-30.23 l -0.64,-0.73 0.68,-0.69 c 8.48,-8.69 13.7,-20.58 13.7,-33.68 0,-26.65 -21.6,-48.25 -48.25,-48.25 H 857.383 l -0.004,25.09 v 12.01 h 24.043 v -13.06 h 64.93 v 43.66 h -27.039 v -10.29 h -24.036 v 9.25" /><path
         id="path204"
         style="fill:#231f20;fill-opacity:1;fill-rule:evenodd;stroke:none"
         d="m 1021.92,1151.45 c 13.01,0 20.79,9.3 20.79,20.78 0,11.48 -7.78,20.79 -20.79,20.79 h -42.166 v -41.57 z m 0,72.45 c 11.45,0 18.41,8.25 18.41,18.42 0,10.16 -6.96,18.41 -18.41,18.41 h -42.166 v -36.83 z m -101.561,-30.88 v -10.29 H 894.23 v 51.47 h 26.129 v -10.3 h 24.946 v 36.83 h -62.836 v -13.07 h -26.137 l 0.008,13.07 v 26.13 h 165.58 c 25.92,0 46.92,-21.01 46.92,-46.92 0,-11.84 -4.39,-22.66 -11.63,-30.92 8.67,-8.88 14,-21.02 14,-34.41 0,-27.23 -22.06,-49.3 -49.29,-49.3 H 856.34 l -0.008,26.14 v 13.06 h 26.137 v -13.06 h 62.836 v 41.57 h -24.946" /></g></g></svg>