<?xml version="1.0" encoding="UTF-8" standalone="no"?>
<svg
   xmlns:dc="http://purl.org/dc/elements/1.1/"
   xmlns:cc="http://creativecommons.org/ns#"
   xmlns:rdf="http://www.w3.org/1999/02/22-rdf-syntax-ns#"
   xmlns:svg="http://www.w3.org/2000/svg"
   xmlns="http://www.w3.org/2000/svg"
   viewBox="0 0 648 304"
   height="304"
   width="648"
   xml:space="preserve"
   id="svg2"
   version="1.1"><metadata
     id="metadata8"><rdf:RDF><cc:Work
         rdf:about=""><dc:format>image/svg+xml</dc:format><dc:type
           rdf:resource="http://purl.org/dc/dcmitype/StillImage" /></cc:Work></rdf:RDF></metadata><defs
     id="defs6" /><g
     transform="matrix(1.3333333,0,0,-1.3333333,0,304)"
     id="g10"><g
       transform="scale(0.1)"
       id="g12"><path
         id="path14"
         style="fill:#000000;fill-opacity:1;fill-rule:evenodd;stroke:none"
         d="m 1329.87,639.785 c -1.69,-24.976 -11.32,-44.844 -28.91,-59.558 -17.58,-14.747 -40.49,-22.055 -68.73,-22.055 -32.54,0 -57.9,10.137 -75.91,30.465 -18.09,20.301 -27.14,48.742 -27.14,85.383 0,37.418 9.21,66.066 27.64,85.98 18.39,19.91 44.89,29.879 79.43,29.879 28.11,0 50.26,-6.84 66.53,-20.535 16.23,-13.66 25.18,-33.02 26.8,-58.004 h -44.64 c -1.9,12.437 -6.98,21.902 -15.25,28.406 -8.25,6.559 -19.41,9.817 -33.44,9.817 -19.91,0 -35.04,-6.438 -45.4,-19.282 -10.35,-12.855 -15.55,-31.566 -15.55,-56.261 0,-23.879 5.16,-42.344 15.47,-55.368 10.31,-13.058 24.94,-19.566 44,-19.566 13.73,0 24.98,3.5 33.73,10.488 8.8,7.055 14.45,17.071 17.04,30.211 z m 72.65,34.235 c 0,-24.168 5.42,-42.977 16.15,-56.387 10.79,-13.391 25.79,-20.067 45.1,-20.067 19.53,0 34.71,6.676 45.57,20.067 10.86,13.41 16.23,32.219 16.23,56.387 0,24.179 -5.37,42.988 -16.23,56.386 -10.86,13.403 -26.04,20.078 -45.57,20.078 -19.31,0 -34.31,-6.675 -45.1,-20.035 -10.73,-13.355 -16.15,-32.168 -16.15,-56.429 z m -46.1,0 c 0,35.546 9.68,63.703 29.03,84.543 19.36,20.832 45.48,31.316 78.32,31.316 32.85,0 58.96,-10.484 78.46,-31.367 19.44,-20.871 29.16,-49.063 29.16,-84.492 0,-35.454 -9.72,-63.645 -29.16,-84.532 -19.5,-20.883 -45.61,-31.316 -78.46,-31.316 -32.84,0 -58.96,10.433 -78.32,31.316 -19.35,20.887 -29.03,49.078 -29.03,84.532 z m 240.67,-41.84 h 44.63 c 1.69,-12.008 6.64,-20.918 14.8,-26.805 8.16,-5.785 19.9,-8.695 35.33,-8.695 13.15,0 23.04,2.359 29.71,7.054 6.69,4.602 10.02,11.539 10.02,20.707 0,13.36 -19.18,24.344 -57.49,33.137 -0.5,0.086 -0.96,0.219 -1.34,0.301 -1.02,0.207 -2.54,0.551 -4.61,1.055 -20.54,4.484 -35.16,9.515 -43.87,15.086 -7.82,4.949 -13.73,11.668 -17.8,20.078 -4.1,8.414 -6.13,18.308 -6.13,29.765 0,21.422 7.32,37.825 21.82,49.242 14.53,11.372 35.5,17.075 62.97,17.075 25.7,0 45.78,-6.086 60.23,-18.227 14.5,-12.172 22.1,-29.246 22.96,-51.351 h -43.5 c -0.8,10.652 -4.86,18.761 -12.21,24.312 -7.4,5.57 -17.88,8.363 -31.49,8.363 -11.88,0 -21.01,-2.277 -27.43,-6.937 -6.39,-4.652 -9.64,-11.192 -9.64,-19.781 0,-11.661 12.5,-20.321 37.49,-26.121 6.76,-1.606 12.05,-2.829 15.85,-3.715 15.98,-4.094 27.39,-7.309 34.07,-9.551 6.72,-2.285 12.59,-4.824 17.58,-7.656 8.92,-4.981 15.63,-11.536 20.12,-19.731 4.48,-8.242 6.72,-18.058 6.72,-29.512 0,-22.906 -7.69,-40.613 -23.11,-53.21 -15.44,-12.602 -37.16,-18.891 -65.23,-18.891 -27.68,0 -49.36,6.422 -65.1,19.266 -15.72,12.808 -24.16,31.066 -25.35,54.742 z m 214,-67.922 v 219.918 h 159.73 v -38.258 h -115.05 v -46.871 h 105.2 v -37.621 h -105.2 v -56.551 h 120.41 v -40.617 z m 391.06,75.527 c -1.69,-24.976 -11.32,-44.844 -28.87,-59.558 -17.58,-14.747 -40.54,-22.055 -68.76,-22.055 -32.56,0 -57.88,10.137 -75.92,30.465 -18.09,20.301 -27.14,48.742 -27.14,85.383 0,37.418 9.26,66.066 27.65,85.98 18.39,19.91 44.89,29.879 79.42,29.879 28.11,0 50.25,-6.84 66.53,-20.535 16.23,-13.66 25.23,-33.02 26.79,-58.004 h -44.63 c -1.9,12.437 -6.97,21.902 -15.26,28.406 -8.25,6.559 -19.4,9.817 -33.43,9.817 -19.91,0 -35.05,-6.438 -45.4,-19.282 -10.31,-12.855 -15.51,-31.566 -15.51,-56.261 0,-23.879 5.11,-42.344 15.43,-55.368 10.35,-13.058 24.98,-19.566 43.99,-19.566 13.75,0 24.98,3.5 33.74,10.488 8.79,7.055 14.45,17.071 17.03,30.211 z m 36.1,-75.527 v 219.918 h 45.52 v -81.965 h 90.71 v 81.965 h 45.57 V 564.258 h -45.57 v 97.504 h -90.71 v -97.504 z m 309.02,175.875 -30.44,-93.621 h 61.04 z m -26.29,44.043 h 52.23 l 79.3,-219.918 H 2605 l -14.91,45.23 h -85.21 l -14.47,-45.23 h -47.62 z m 198.53,-180.188 h 36.3 c 20.97,0 36.24,5.5 45.62,16.485 9.41,10.941 14.07,28.863 14.07,53.511 0,24.563 -4.36,42.641 -13.1,54.188 -8.8,11.543 -22.44,17.328 -41.09,17.328 h -41.8 z m -44.34,-39.73 v 219.918 h 86.14 c 33.73,0 58.88,-9.129 75.45,-27.352 16.57,-18.176 24.9,-45.82 24.9,-82.84 0,-20.082 -3.09,-37.793 -9.18,-53.14 -6.12,-15.332 -15.05,-27.676 -26.67,-37.024 -8.75,-6.972 -18.68,-11.953 -29.84,-15 -11.16,-3.007 -26.75,-4.562 -46.88,-4.562 z m 258.89,109.762 c 0,-24.168 5.42,-42.977 16.15,-56.387 10.74,-13.391 25.78,-20.067 45.1,-20.067 19.48,0 34.7,6.676 45.57,20.067 10.81,13.41 16.22,32.219 16.22,56.387 0,24.179 -5.41,42.988 -16.22,56.386 -10.87,13.403 -26.09,20.078 -45.57,20.078 -19.32,0 -34.36,-6.675 -45.1,-20.035 -10.73,-13.355 -16.15,-32.168 -16.15,-56.429 z m -46.11,0 c 0,35.546 9.68,63.703 29.04,84.543 19.35,20.832 45.43,31.316 78.32,31.316 32.79,0 58.96,-10.484 78.4,-31.367 19.49,-20.871 29.2,-49.063 29.2,-84.492 0,-35.454 -9.71,-63.645 -29.2,-84.532 -19.44,-20.883 -45.61,-31.316 -78.4,-31.316 -32.89,0 -58.97,10.433 -78.32,31.316 -19.36,20.887 -29.04,49.078 -29.04,84.532 z m 296,13.992 h 53.22 c 11.49,0 19.94,2.324 25.4,7.023 5.4,4.684 8.11,12.004 8.11,22.106 0,9.547 -2.66,16.773 -7.91,21.722 -5.23,4.946 -13.14,7.395 -23.53,7.395 h -55.29 z m -45.27,-123.754 v 219.918 h 106.68 c 23.93,0 41.72,-5.164 53.22,-15.434 11.58,-10.23 17.33,-25.902 17.33,-47 0,-13.398 -2.79,-24.637 -8.46,-33.597 -5.57,-8.961 -13.7,-15.098 -24.26,-18.344 9.59,-3.391 16.36,-8.543 20.46,-15.516 4.01,-7.019 6.29,-17.84 6.92,-32.59 l 0.89,-25.902 v -0.938 c 0.27,-13.105 3.14,-21.085 8.55,-23.839 v -6.758 h -49.67 c -1.57,3.125 -2.74,6.887 -3.59,11.453 -0.8,4.516 -1.39,9.934 -1.52,16.187 l -0.64,23.125 c -0.5,13.61 -3.04,22.825 -7.69,27.555 -4.65,4.817 -12.97,7.18 -25.02,7.18 h -47.93 v -85.5 z m 300.1,175.875 -30.47,-93.621 h 61.03 z m -26.29,44.043 h 52.24 l 79.29,-219.918 h -47.5 l -14.92,45.23 h -85.21 l -14.46,-45.23 h -47.68 z M 3556.58,632.18 h 44.63 c 1.7,-12.008 6.64,-20.918 14.8,-26.805 8.16,-5.785 19.91,-8.695 35.38,-8.695 13.14,0 23.04,2.359 29.71,7.054 6.64,4.602 9.97,11.539 9.97,20.707 0,13.36 -19.15,24.344 -57.48,33.137 -0.51,0.086 -0.96,0.219 -1.31,0.301 -1.01,0.207 -2.58,0.551 -4.65,1.055 -20.54,4.484 -35.17,9.515 -43.88,15.086 -7.77,4.949 -13.69,11.668 -17.79,20.078 -4.05,8.414 -6.12,18.308 -6.12,29.765 0,21.422 7.3,37.825 21.8,49.242 14.55,11.372 35.56,17.075 63.03,17.075 25.65,0 45.73,-6.086 60.23,-18.227 14.46,-12.172 22.1,-29.246 22.9,-51.351 h -43.44 c -0.85,10.652 -4.91,18.761 -12.27,24.312 -7.34,5.57 -17.88,8.363 -31.48,8.363 -11.88,0 -20.96,-2.277 -27.4,-6.937 -6.42,-4.652 -9.63,-11.192 -9.63,-19.781 0,-11.661 12.47,-20.321 37.46,-26.121 6.75,-1.606 12.09,-2.829 15.84,-3.715 15.98,-4.094 27.43,-7.309 34.07,-9.551 6.76,-2.285 12.59,-4.824 17.58,-7.656 8.92,-4.981 15.64,-11.536 20.16,-19.731 4.48,-8.242 6.72,-18.058 6.72,-29.512 0,-22.906 -7.69,-40.613 -23.12,-53.21 -15.47,-12.602 -37.19,-18.891 -65.25,-18.891 -27.65,0 -49.38,6.422 -65.06,19.266 -15.77,12.808 -24.21,31.066 -25.4,54.742" /><path
         id="path16"
         style="fill:#e00109;fill-opacity:1;fill-rule:evenodd;stroke:none"
         d="m 2432.3,854.121 c -23.67,-0.047 -50.51,1.262 -76.71,5.285 -8.41,36.34 -13.23,65.766 -16.91,102.922 -39.11,5.738 -81.25,16.988 -125.12,33.43 -21.34,-28.66 -41.97,-53.809 -70.25,-76.289 -1.52,-1.231 -73.63,29.117 -130.69,75.015 11.45,34.996 21.43,63.196 37.37,96.546 -30.74,24.38 -62.47,55.25 -91.72,91.64 -33.14,-14.8 -61.8,-24.48 -98.15,-30.6 -1.99,-0.34 -49.58,60.69 -76.33,128.11 27.97,25.36 48.94,43.87 79.97,65.6 -16.06,42.9 -25.87,79.68 -33.22,125.78 -37.63,3.09 -66.11,5.5 -102.34,18.09 -1.18,0.44 -5.58,32.42 -5.7,74.28 0.12,41.84 4.52,73.79 5.7,74.21 36.23,12.64 64.71,15.05 102.34,18.14 7.35,46.11 17.16,82.84 33.22,125.78 -31.03,21.73 -52,40.24 -79.97,65.61 26.75,67.41 74.34,128.4 76.33,128.07 36.35,-6.09 65.01,-15.77 98.15,-30.6 29.25,36.43 60.98,67.29 91.72,91.67 -15.94,33.31 -25.92,61.5 -37.37,96.5 57.06,45.95 129.17,76.3 130.69,75.07 28.28,-22.49 48.91,-47.63 70.25,-76.34 43.87,16.48 86.01,27.73 125.12,33.47 3.68,37.16 8.5,66.54 16.91,102.94 26.2,3.96 53.04,5.28 76.71,5.28 23.63,0 50.5,-1.32 76.67,-5.28 8.46,-36.4 13.28,-65.78 16.96,-102.94 39.12,-5.74 81.2,-16.99 125.06,-33.47 21.43,28.71 42.01,53.85 70.29,76.34 1.49,1.23 73.59,-29.12 130.7,-75.07 -11.46,-35 -21.48,-63.19 -37.32,-96.5 30.68,-24.38 62.47,-55.24 91.63,-91.67 33.19,14.83 61.8,24.51 98.15,30.6 2.02,0.33 49.66,-60.66 76.33,-128.07 -27.94,-25.37 -48.91,-43.88 -79.93,-65.61 16.06,-42.94 25.91,-79.67 33.18,-125.78 37.62,-3.09 66.15,-5.5 102.37,-18.14 1.19,-0.42 5.55,-32.37 5.72,-74.21 -0.17,-41.86 -4.53,-73.84 -5.72,-74.28 -36.22,-12.59 -64.75,-15 -102.37,-18.09 -7.27,-46.1 -17.12,-82.88 -33.18,-125.78 31.02,-21.73 51.99,-40.24 79.93,-65.6 -26.67,-67.42 -74.31,-128.45 -76.33,-128.11 -36.35,6.12 -64.96,15.8 -98.15,30.6 -29.16,-36.39 -60.95,-67.26 -91.63,-91.64 15.84,-33.35 25.86,-61.55 37.32,-96.546 -57.11,-45.898 -129.21,-76.246 -130.7,-75.015 -28.28,22.48 -48.86,47.629 -70.29,76.289 -43.86,-16.442 -85.94,-27.692 -125.06,-33.43 -3.68,-37.156 -8.5,-66.582 -16.96,-102.922 -26.17,-4.023 -53.04,-5.332 -76.67,-5.285 z m -2.07,1176.309 c 254.87,0 462.75,-207.82 462.75,-462.7 0,-254.84 -207.88,-462.67 -462.75,-462.67 -254.83,0 -462.71,207.83 -462.71,462.67 0,254.88 207.88,462.7 462.71,462.7 z m -290.21,-225.37 198.86,1.39 93.71,-338.94 92.36,338.18 194.89,0.13 -169.65,-548.21 -240.77,2.36 -169.4,545.09" /><path
         id="path18"
         style="fill:#000000;fill-opacity:1;fill-rule:evenodd;stroke:none"
         d="M 9.02734,458.078 H 261.867 l 72.871,-204.402 h -0.082 l 69.313,204.402 H 654.75 L 478.277,12.5352 188.41,13.543 9.02734,458.078" /><path
         id="path20"
         style="fill:#000000;fill-opacity:1;fill-rule:evenodd;stroke:none"
         d="M 1053.1,14.1289 1031.41,77.3203 854.984,77.1055 833.848,14.5469 H 584.887 L 737.402,458.281 1144.68,456.461 1300.45,14.5469 Z M 992.52,186.578 941.719,322.809 v -0.204 l -47.938,-135.941 98.739,-0.086" /><path
         id="path22"
         style="fill:#000000;fill-opacity:1;fill-rule:evenodd;stroke:none"
         d="M 3182.69,17.2227 3161,80.4102 2984.57,80.2461 2963.44,17.6406 h -248.95 l 152.5,443.7184 407.3,-1.808 155.75,-441.9104 z m -60.57,172.4493 -50.82,136.226 v -0.168 l -47.92,-135.976 98.74,-0.082" /><path
         id="path24"
         style="fill:#000000;fill-opacity:1;fill-rule:evenodd;stroke:none"
         d="m 1358.71,124.313 253.01,-1.02 c 2.37,-21.938 20.89,-41.25 50.9,-43.875 43.99,-3.8477 67.42,29.543 62.13,54.059 -7.48,34.796 -35.08,39.66 -91.89,39.062 -52.96,-0.59 -82.01,-0.887 -150.18,-0.039 -39.43,0.457 -86.65,13.648 -109.59,49.496 -28.92,45.219 -22.11,74.129 -22.83,106.766 -1.15,49.113 10.94,78.492 40.45,102.332 17.74,14.414 43.58,27.558 71.47,32.039 34.24,5.539 104.24,6.758 209.52,6.758 74.39,0 126.68,-1.903 156.78,-5.621 46.45,-5.747 77.85,-17.707 95.14,-34.997 17.37,-17.335 34.58,-41.3 34.58,-82.214 0,-3.797 0.2,9.211 -0.05,-1.141 l -248.33,0.852 c 0.72,24.851 -17.11,48.058 -48.81,51.691 -19.7,2.285 -31.78,-2.793 -40.96,-8.031 -28.91,-16.653 -29.72,-54.692 -3.89,-73.672 9.17,-6.77 30.9,-13.481 74.23,-12.09 92.06,2.961 161.13,0.852 175.74,-0.934 42.66,-5.117 85.01,-38.796 97.09,-74.597 6,-17.84 4.78,-43.024 5.92,-75.614 2.04,-57.4058 -9.3,-80.23 -24.22,-99.5894 C 1930.56,35.2539 1923.41,31.7422 1907.68,23.1992 1891.36,14.418 1866.52,10.4063 1836.21,9.50781 1802.69,8.5 1740.64,5.53906 1649.81,5.53906 c -76.17,0 -130.61,0.92188 -167.05,2.91407 -34.69,1.86717 -58.83,6.24997 -85.8,30.05857 -21,18.5469 -35.63,55.2813 -36.13,61.1524 l -2.12,24.6489" /><path
         id="path26"
         style="fill:#000000;fill-opacity:1;fill-rule:evenodd;stroke:none"
         d="m 2054.88,124.563 253.02,-1.004 c 2.36,-21.942 20.87,-41.2543 50.89,-43.8793 44,-3.8477 67.41,29.5473 62.13,54.0583 -7.47,34.785 -35.08,39.649 -91.88,39.063 -52.97,-0.602 -82,-0.887 -150.19,-0.047 -39.43,0.469 -86.64,13.656 -109.6,49.496 -28.91,45.227 -22.1,74.141 -22.82,106.762 -1.14,49.125 10.95,78.492 40.45,102.336 17.76,14.414 43.58,27.519 71.47,32.039 34.24,5.5 104.28,6.769 209.53,6.769 74.39,0 126.67,-1.906 156.76,-5.668 46.46,-5.703 77.86,-17.711 95.15,-34.961 17.37,-17.324 34.58,-41.289 34.58,-82.207 0,-3.808 0.21,9.215 -0.05,-1.136 L 2406,347.023 c 0.72,24.848 -17.12,48.059 -48.82,51.7 -19.7,2.277 -31.79,-2.793 -40.95,-8.075 -28.91,-16.621 -29.72,-54.664 -3.9,-73.64 9.18,-6.758 30.9,-13.477 74.23,-12.09 92.05,2.926 161.12,0.801 175.74,-0.922 42.66,-5.117 85.01,-38.844 97.1,-74.605 6,-17.832 4.77,-43.028 5.92,-75.618 2.02,-57.4019 -9.3,-80.2261 -24.23,-99.5777 -14.36,-18.6914 -21.51,-22.1875 -37.24,-30.7305 -16.3,-8.7929 -41.16,-12.8085 -71.47,-13.69527 -33.52,-1.01562 -95.57,-3.97656 -186.4,-3.97656 -76.17,0 -130.61,0.93359 -167.04,2.92187 -34.71,1.85546 -58.83,6.25396 -85.81,30.05076 -21,18.5586 -35.63,55.2813 -36.13,61.1133 l -2.12,24.6841" /><path
         id="path28"
         style="fill:#000000;fill-opacity:1;fill-rule:evenodd;stroke:none"
         d="m 3494.17,462.844 254.96,-0.031 -1.02,-329.563 227.44,0.457 0.31,-115.5976 -480.68,0.9687 c 0,0 -2.82,443.7659 -1.01,443.7659" /><path
         id="path30"
         style="fill:#000000;fill-opacity:1;fill-rule:evenodd;stroke:none"
         d="m 4048.36,460.5 254.96,-0.051 -1.02,-329.562 227.45,0.468 0.29,-115.5972 -480.66,0.9727 c 0,0 -2.84,443.7695 -1.02,443.7695" /><path
         id="path32"
         style="fill:#000000;fill-opacity:1;fill-rule:evenodd;stroke:none"
         d="m 4611.07,461.035 h 244.52 V 17.8555 H 4611.07 V 461.035" /></g></g></svg>