<svg id="Layer_1" xmlns="http://www.w3.org/2000/svg" xmlns:xlink="http://www.w3.org/1999/xlink" viewBox="0 0 150 150" style="enable-background:new 0 0 150 150"><path d="M37.8 75.6H24.7c-.2.0-.4-.1-.6-.4v-2.6c0-.4.2-.6.6-.6h13.2c.1.1.2.1.3.1.2.1.3.3.3.5v2.6L37.8 75.6zM17.2 73h-14v-1h14l.6.4L17.2 73v0zM59.4 72.8c-.1.1-.2.2-.3.2H45.2v-1h13.9c.1.0.3.1.5.4C59.5 72.5 59.5 72.7 59.4 72.8zM19.8 71.8c0-1-.5-1.5-1.5-1.5H1v7.1h2.2v-2.8h15.1c1 0 1.5-.5 1.5-1.6V71.8v0zM40.4 71.8c0-1-.5-1.5-1.5-1.5H23.4c-1 0-1.5.5-1.5 1.5v3.9c0 1.1.5 1.7 1.5 1.7h15.4c1 0 1.5-.6 1.5-1.7V71.8H40.4zm21.4 3.5c0-.4-.2-.8-.6-1.2.4-.2.6-.6.6-1.1v-1.2c0-1-.5-1.5-1.6-1.5H43.1v7.1h2.1v-2.8h13.7c.1.1.2.2.4.4.2.2.3.3.3.5v2h2.2L61.8 75.3v0 0zM82.9 74.6c0-1.1-.5-1.6-1.6-1.6H66.8c-.1.0-.3-.2-.6-.6l.3-.3c.1-.1.2-.2.4-.2H83v-1.7H65.7c-1 0-1.5.5-1.5 1.5V73c0 1.1.5 1.6 1.5 1.6h14.5c.4.0.6.2.6.6-.1.1-.2.2-.3.3-.1.1-.2.2-.4.2h-16v1.8h17.1c1.1.0 1.6-.6 1.6-1.7V74.6H82.9zM104.1 75.6h-16l-.3-.4v-2.6c0-.2.1-.4.3-.6h16v-1.7H87.2c-1.1.0-1.6.5-1.6 1.5v3.9c0 1.1.5 1.7 1.6 1.7h16.9V75.6v0zM124.8 70.3h-2V73h-14.5v-2.7h-2.1v7.1h2.1v-2.8h14.5v2.8h2V70.3zM146.2 75.6h-16.6v-1h16.6V73h-16.6v-1h16.6v-1.7h-18.8v7.1h18.8V75.6v0zM147.7 70.3c-.6.0-1 .4-1 1s.4 1 1 1c.6.0 1-.4 1-1S148.3 70.3 147.7 70.3zM147.7 70.4c.5.0.8.4.8.9.0.5-.4.9-.8.9-.5.0-.8-.4-.8-.9S147.2 70.4 147.7 70.4zM147.5 71.3h.2l.3.5h.2l-.3-.5c.2.0.3-.1.3-.3.0-.2-.1-.3-.4-.3h-.4v1.2h.1L147.5 71.3v0 0zM147.5 71.2v-.4h.3c.1.0.3.0.3.2.0.2-.2.2-.3.2H147.5z"/></svg>