<?xml version="1.0" encoding="UTF-8" standalone="no"?>
<svg
   xmlns:dc="http://purl.org/dc/elements/1.1/"
   xmlns:cc="http://creativecommons.org/ns#"
   xmlns:rdf="http://www.w3.org/1999/02/22-rdf-syntax-ns#"
   xmlns:svg="http://www.w3.org/2000/svg"
   xmlns="http://www.w3.org/2000/svg"
   viewBox="0 0 257 257"
   height="257"
   width="257"
   xml:space="preserve"
   id="svg2"
   version="1.1"><metadata
     id="metadata8"><rdf:RDF><cc:Work
         rdf:about=""><dc:format>image/svg+xml</dc:format><dc:type
           rdf:resource="http://purl.org/dc/dcmitype/StillImage" /></cc:Work></rdf:RDF></metadata><defs
     id="defs6" /><g
     transform="matrix(1.3333333,0,0,-1.3333333,0,257)"
     id="g10"><g
       transform="scale(0.1)"
       id="g12"><path
         id="path14"
         style="fill:#ffffff;fill-opacity:1;fill-rule:evenodd;stroke:none"
         d="M 0,1927.53 H 1927.52 V 0 H 0 v 1927.53 0" /><path
         id="path16"
         style="fill:#323797;fill-opacity:1;fill-rule:nonzero;stroke:none"
         d="M 672.266,1438.51 H 932.828 V 950.313 C 667.008,983.195 697.281,1242.43 734.121,1300.33 h 109.223 c -82.903,-31.58 -159.231,-281.61 69.746,-328.99 36.836,468.49 -192.129,443.48 -240.824,467.17" /><path
         id="path18"
         style="fill:#323797;fill-opacity:1;fill-rule:nonzero;stroke:none"
         d="M 1228.93,1438.51 H 968.363 V 950.313 c 265.837,32.882 235.567,292.117 198.727,350.017 h -109.24 c 82.91,-31.58 159.24,-281.61 -69.741,-328.99 -36.855,468.49 192.121,443.48 240.821,467.17" /><path
         id="path20"
         style="fill:#323797;fill-opacity:1;fill-rule:nonzero;stroke:none"
         d="m 131.734,794.016 h 303.989 l 33.554,-79.942 c 0,0 -40.468,61.844 -159.898,41.446 0,0 0,-219.766 0,-236.875 0,-17.102 22.707,-29.61 22.707,-29.61 h -95.734 c 0,0 21.339,7.879 21.339,29.61 0,21.707 0,237.539 0,237.539 C 132.727,776.563 97.8477,718.02 97.8477,718.02 l 33.8863,75.996" /><path
         id="path22"
         style="fill:#323797;fill-opacity:1;fill-rule:nonzero;stroke:none"
         d="m 726.223,794.016 h 303.987 l 33.56,-79.942 c 0,0 -40.47,61.844 -159.887,41.446 0,0 0,-219.766 0,-236.875 0,-17.102 22.703,-29.61 22.703,-29.61 h -95.742 c 0,0 21.34,7.879 21.34,29.61 0,21.707 0,237.539 0,237.539 C 727.211,776.563 692.34,718.02 692.34,718.02 l 33.883,75.996" /><path
         id="path24"
         style="fill:#323797;fill-opacity:1;fill-rule:nonzero;stroke:none"
         d="m 532.777,794.016 h 96.067 c 0,0 -23.364,-10.528 -23.364,-33.899 0,-23.359 0,-224.363 0,-241.472 0,-17.102 22.7,-29.61 22.7,-29.61 h -95.735 c 0,0 21.348,7.879 21.348,29.61 0,21.707 0,220.093 0,242.148 0,22.031 -21.016,33.223 -21.016,33.223" /><path
         id="path26"
         style="fill:#323797;fill-opacity:1;fill-rule:nonzero;stroke:none"
         d="m 1381.72,523.672 c -24.47,39.406 -156.3,268.312 -156.3,268.312 0,0 -138.13,-225.41 -157.14,-253.8 -18.98,-28.399 -49.94,-46.727 -49.94,-46.727 h 82.99 c 0,0 -17.37,12.363 -0.8,41.016 3.01,5.222 8.81,14.695 16.27,26.66 h 190.49 c 9.08,-15.832 16.01,-27.969 18.83,-33.039 12.69,-22.879 -16.92,-37.059 -16.92,-37.059 h 105.12 c -4.69,0.965 -15.25,6.68 -32.6,34.637 z m -244.28,68.359 c 34.45,54.59 79.13,124.207 79.13,124.207 0,0 39.84,-68.816 71.77,-124.207 z m 276.88,-102.996 c 1.91,-0.402 2.83,0 2.83,0 h -2.83" /><path
         id="path28"
         style="fill:#323797;fill-opacity:1;fill-rule:nonzero;stroke:none"
         d="m 1730.98,791.047 c 0,0 32.89,-8.559 32.89,-40.137 V 582.891 l -231.62,211.445 -74.57,0.09 c 17.21,-3.86 33.75,-19.102 46.29,-33.899 V 529.836 c 0,-30.93 -32.91,-39.492 -32.91,-39.492 h 98.71 c 0,0 -32.91,8.562 -32.91,40.136 v 189.364 l 259.92,-230.809 v 63.809 l -0.72,0.672 h 0.72 c 0,0 0,167.129 0,198.047 0,30.925 32.89,39.484 32.89,39.484 h -98.69" /></g></g></svg>