<svg id="Layer_1" xmlns="http://www.w3.org/2000/svg" xmlns:xlink="http://www.w3.org/1999/xlink" viewBox="0 0 150 150" style="enable-background:new 0 0 150 150"><style>.st0{fill:#fffac3}.st1{fill:#2b6352}</style><path class="st0" d="M148.7 75.3c0 21.2-32.8 38.4-73.2 38.4-40.4.0-73.2-17.2-73.2-38.4s32.8-38.4 73.2-38.4C116 36.9 148.7 54.1 148.7 75.3v0z"/><path class="st1" d="M145.7 75.3c0 19.5-31.4 35.2-70.2 35.2-38.8.0-70.2-15.8-70.2-35.2C5.3 55.8 36.7 40 75.5 40 114.3 40 145.7 55.8 145.7 75.3zM75.5 42.8c-37.2.0-67.4 14.5-67.4 32.5.0 17.9 30.2 32.5 67.4 32.5 37.2.0 67.4-14.5 67.4-32.5C143 57.3 112.8 42.8 75.5 42.8v0z"/><path class="st1" d="M141.2 75.3c0 17-29.4 30.7-65.7 30.7C39.2 106 9.8 92.2 9.8 75.3c0-17 29.4-30.7 65.7-30.7C111.8 44.5 141.2 58.3 141.2 75.3zM117.6 60.9h-11.3l-1.4 3.9h7.3l-8.3 2.9-.5 1.6 12.8-4.2L117.6 60.9v0zM45.8 67.8h-4.6c0 0 4.3-11.3 4.6-12.2.6-1.5 1-1.4 1-1.4h-6.3c.8.4.1 1.9.1 1.9s-5.1 14.1-5.4 14.8c-.4.7-.6.8-.6.8h11l1.5-4.2C46.8 67.9 45.8 67.8 45.8 67.8v0zM65 71.6h5.2c0 0-.4-.5-.1-1.1.3-.8 3-8.3 3-8.3l1.2 9.4H79L85.1 55c0 0 .3-.8.6-.8h-5c0 0 .1.6.0 1-.2.4-3 8-3 8l-1.1-9h-5.3c0 0 .3.4.1.9l-5.7 15.6C65.7 70.7 65.3 71.6 65 71.6v0zM88.7 54.2c0 0 .4.7-.1 2.3-.6 1.6-5.1 13.8-5.1 13.8s-.4 1.1-.8 1.4h7.1c0 0 8.6.3 11.2-8.7.0.0 3.4-8.9-6.4-8.8H88.7v0 0zM89.4 67.6c0 0 0 0 .8.0 1.2.0 3.4-.3 4.9-3.9 2.5-6-1-5.8-1-5.8h-1.3L89.4 67.6zM26.5 85.7h11.3l1.4-3.9h-7.3l8.3-2.9.6-1.6L28 81.5 26.5 85.7v0zM46.3 93c-.2.0-.2-.6-.2-.6l2.1-5.5c0 0 2.6 5.1 2.8 5.4C51.1 92.7 51 93 51 93h6.2c-.6.0-1.2-1.1-1.2-1.1l-3.1-5.5c4.3.0 5.7-4.3 5.7-4.3 2.1-6.8-5-6.6-5-6.6h-7.3c.5.6.1 1.8.1 1.8s-4.5 13-4.9 14c-.4 1-1 1.7-1 1.7L46.3 93v0zM50.7 79.5 49.5 83h1.1c0 0 2.2.2 3-1.5.0.0.9-2-1.7-2C51.3 79.5 50.7 79.5 50.7 79.5v0zM110.2 93c-.4.0-.1-1.1-.1-1.1l1.9-5c0 0 2.5 5.1 2.7 5.4.2.4.1.6.1.6h6.4c-.6.0-1.2-1.1-1.2-1.1l-3.1-5.5c4.3.0 5.6-4.1 5.6-4.1 2.3-7.1-4.9-6.8-4.9-6.8h-7.2c.5.6.1 1.8.1 1.8s-4.7 13-5.1 14c-.2.6-.6 1.2-1 1.6L110.2 93v0zM114.4 83.1c0 0 2.2.2 2.8-1.5.8-2-1.2-1.9-1.2-1.9h-1.6l-1.2 3.5L114.4 83.1v0zM66.3 93.4c6.4.0 10.2-6.3 10.2-10.7.0-4.7-1.9-7.6-6.4-7.6-5.6.0-9.3 4.3-10.3 9.6C58.9 89.5 61.7 93.4 66.3 93.4zM66.7 89.3c1.6.3 3.3-.9 4.3-4.5 1.4-5.5-1.2-5.6-1.6-5.6C67.9 79 66 80.6 65.2 84 64.9 85.5 64.5 88.9 66.7 89.3v0zM77.9 75.5c0 0 .4.2.4 1.4V92c0 0-.1.8-.4 1h4.7c0 0 0-.4.5-.9.5-.6 10.3-13.8 10.3-13.8s2.2-2.8 2.8-2.8h-6.8c0 0 .5.4.1 1-.4.6-6.4 9.7-6.4 9.7l.1-9.1c0 0 0-1.5.6-1.6L77.9 75.5v0zM106.6 79.7l1.5-4.1H96.6c0 0 .4.4-.1 1.8-.5 1.5-5.2 14-5.2 14S90.5 93 90.3 93h11.8l1.4-4.2c0 0-.2.2-1.3.2h-5l1.1-2.8h3.9c0 0 .8-.1 1 .2l1.6-4.5c0 0-.1.4-1.2.4h-3.8l1.1-3.1h4.8C105.7 79.3 106.3 79.2 106.6 79.7v0zM46.7 71.6h5.7c0 0 0-.4.1-.7.3-.5 1-1.7 1-1.7h5.7v1.5c0 0 0 .5-.4.9h5.7c0 0-.4-.2-.5-.9l-.7-15.4c0 0 0-1 .4-1.2h-5.6c0 0 .4.5-.4 1.6-.8 1.1-10.3 15.3-10.3 15.3S47.2 71.4 46.7 71.6v0zM59.1 60.1 56 65.2h3.2L59.1 60.1z"/></svg>