<svg id="Layer_1" xmlns="http://www.w3.org/2000/svg" xmlns:xlink="http://www.w3.org/1999/xlink" viewBox="0 0 150 150" style="enable-background:new 0 0 150 150"><style>.st0{fill:#903035}.st1{fill:#cc2229}.st2{fill:#b3b3b3;stroke:#b3b3b3;stroke-width:.02993905}.st3{fill:#4d4d4d;stroke:#4d4d4d;stroke-width:.02993905}.st4{fill:url(#SVGID_1_)}.st5{fill:url(#SVGID_2_)}.st6{fill:url(#SVGID_3_)}</style><g><path class="st0" d="M117.5 19.6c-8.3-2.1-32.1-4.2-57.5-2.6-24.9 1.6-25.4 13.2-26.4 21.5-1 8.3.8 50.7.8 50.7s25.1 3.4 40.9 3.3c15.8-.2 41 2.4 43.5-15.7C121.4 57.9 117.5 19.6 117.5 19.6v0z"/><g><path class="st0" d="M71.1 110.4v-3.1H40.5v17.6H71v-3.1H47.8v-4.1h22v-3.1h-22v-4.1L71.1 110.4zM28.7 115.1c0 0-14.1-.5-16.2-.5S9 114.1 9 112c0-1.4 1.9-1.5 3.6-1.6v0h20.1v-3.1H9.1c0 0-7.1-.3-7.1 4.9.0 4.3 2.5 5.3 6.3 5.3s13.7.6 15.5.6c0 0 2.5.2 2.5 1.9.0 1-.6 1.7-1.8 1.7H2.3v3.1h25.5c1.4.0 5.4-.6 5.4-4.9C33.2 116 31 115.4 28.7 115.1v0zM149.3 107.4h-31.5v3.7h12.3v13.9h6.7V111h12.5V107.4zM85.6 107.3c-3.4.0-6.6 2.3-6.6 5v12.6h6.2v-6.7h18.7v6.6h6.2v-17.6L85.6 107.3v0zM85.2 115.2v-1.3c0-1.4 1.3-3.2 3.6-3.2h15.1v4.5H85.2v0z"/></g><path class="st1" d="M116.7 18.8c-8.3-2.1-32.1-4.2-57.5-2.6-24.9 1.6-25.4 13.2-26.4 21.5s.8 50.7.8 50.7 25.1 3.4 40.9 3.3 41 2.4 43.5-15.7C120.6 57.1 116.7 18.8 116.7 18.8v0z"/><g><path class="st2" d="M35.9 38c0 0-.2-11.1 5.7-14.5 7.2-4.1 26.1-7.8 71.7-2.1.0.0.5 14.5.5 15.5.0.0-33.9-2.9-40.1-2.4-4.4.3-2.3 2.7.0 3 0 0 34.2 5.6 40.1 6.9v6C113.9 50.4 60.3 39.8 35.9 38v0zM35.7 42.1c0 0 60.1 9.3 78.2 13.7v5.4c0 0-61.1-13.7-77.9-15.3L35.7 42.1v0zM35.9 50.4c0 0 58.8 9.1 77.9 16.6.0.0 1.6 12.4-4.7 16.3-8.9 5.6-42.5 5.4-72.5 1.8.0.0-.8-14.2.0-21.2.0.0 33.2 2.5 40.4 3.4 4.1.5 4.1-1.6 1.6-3.1.0.0-32.1-8.8-42.5-10.1L35.9 50.4v0z"/></g><g><path class="st3" d="M37.5 39.5c0 0-.2-11.1 5.7-14.5 7.2-4.1 26.1-7.8 71.7-2.1.0.0.5 14.5.5 15.5.0.0-33.9-2.9-40.1-2.4-4.4.3-2.3 2.7.0 3 0 0 34.2 5.6 40.1 6.9v6C115.4 51.9 61.8 41.3 37.5 39.5v0zM37.2 43.7c0 0 60.1 9.3 78.2 13.7v5.4c0 0-61.1-13.7-77.9-15.3L37.2 43.7zM37.5 51.9c0 0 58.8 9.1 77.9 16.6.0.0 1.6 12.4-4.7 16.3-8.9 5.6-42.5 5.4-72.5 1.8.0.0-.8-14.2.0-21.2.0.0 33.2 2.5 40.4 3.4 4.1.5 4.1-1.6 1.6-3.1.0.0-32.1-8.8-42.5-10.1L37.5 51.9v0z"/></g><linearGradient id="SVGID_1_" gradientUnits="userSpaceOnUse" x1="-109.5277" y1="235.5842" x2="-102.8413" y2="235.5842" gradientTransform="matrix(11.6728 0 0 -11.6728 1315.0824 2785.1304)"><stop offset="0" style="stop-color:#929496"/><stop offset=".07" style="stop-color:#97999b"/><stop offset=".165" style="stop-color:#a4a6a8"/><stop offset=".274" style="stop-color:#bbbdbf"/><stop offset=".393" style="stop-color:#dcddde"/><stop offset=".489" style="stop-color:#fff"/><stop offset=".565" style="stop-color:#f8f8f8"/><stop offset=".661" style="stop-color:#eaeaeb"/><stop offset=".768" style="stop-color:#d4d5d7"/><stop offset=".881" style="stop-color:#b6b8ba"/><stop offset="1" style="stop-color:#929496"/></linearGradient><path class="st4" d="M36.7 38.7c0 0-.2-11.1 5.7-14.5 7.2-4.1 26.1-7.8 71.7-2.1.0.0.5 14.5.5 15.5.0.0-33.9-2.9-40.1-2.4-4.4.3-2.3 2.7.0 3 0 0 34.2 5.6 40.1 6.9v6C114.6 51.2 61 40.5 36.7 38.7z"/><linearGradient id="SVGID_2_" gradientUnits="userSpaceOnUse" x1="-109.5277" y1="234.1054" x2="-102.8413" y2="234.1054" gradientTransform="matrix(11.6728 0 0 -11.6728 1315.0824 2785.1304)"><stop offset="0" style="stop-color:#929496"/><stop offset=".07" style="stop-color:#97999b"/><stop offset=".165" style="stop-color:#a4a6a8"/><stop offset=".274" style="stop-color:#bbbdbf"/><stop offset=".393" style="stop-color:#dcddde"/><stop offset=".489" style="stop-color:#fff"/><stop offset=".565" style="stop-color:#f8f8f8"/><stop offset=".661" style="stop-color:#eaeaeb"/><stop offset=".768" style="stop-color:#d4d5d7"/><stop offset=".881" style="stop-color:#b6b8ba"/><stop offset="1" style="stop-color:#929496"/></linearGradient><path class="st5" d="M36.5 42.9c0 0 60.1 9.3 78.2 13.7V62c0 0-61.1-13.7-77.9-15.3L36.5 42.9v0z"/><linearGradient id="SVGID_3_" gradientUnits="userSpaceOnUse" x1="-109.5277" y1="232.6206" x2="-102.8376" y2="232.6206" gradientTransform="matrix(11.6728 0 0 -11.6728 1315.0824 2785.1304)"><stop offset="0" style="stop-color:#929496"/><stop offset=".07" style="stop-color:#97999b"/><stop offset=".165" style="stop-color:#a4a6a8"/><stop offset=".274" style="stop-color:#bbbdbf"/><stop offset=".393" style="stop-color:#dcddde"/><stop offset=".489" style="stop-color:#fff"/><stop offset=".565" style="stop-color:#f8f8f8"/><stop offset=".661" style="stop-color:#eaeaeb"/><stop offset=".768" style="stop-color:#d4d5d7"/><stop offset=".881" style="stop-color:#b6b8ba"/><stop offset="1" style="stop-color:#929496"/></linearGradient><path class="st6" d="M36.7 51.2c0 0 58.8 9.1 77.9 16.6.0.0 1.6 12.4-4.7 16.3-8.9 5.6-42.5 5.4-72.5 1.8.0.0-.8-14.2.0-21.2.0.0 33.2 2.5 40.4 3.4 4.1.5 4.1-1.6 1.6-3.1.0.0-32.1-8.8-42.5-10.1L36.7 51.2v0z"/><g><path class="st1" d="M70.3 109.7v-3.1H39.7v17.6h30.5v-3.1H47v-4.1h22v-3.1H47v-4.1H70.3zM27.9 114.3c0 0-14.1-.5-16.2-.5-2.1.0-3.5-.5-3.5-2.6.0-1.4 1.9-1.5 3.6-1.6v0H32v-3.1H8.3c0 0-7.1-.3-7.1 4.9.0 4.3 2.5 5.3 6.3 5.3s13.7.6 15.5.6c0 0 2.5.2 2.5 1.9.0 1-.6 1.7-1.8 1.7H1.5v3.1H27c1.4.0 5.4-.6 5.4-4.9C32.4 115.2 30.2 114.6 27.9 114.3v0zM148.6 106.6H117v3.7h12.3v13.9h6.7v-13.9h12.5L148.6 106.6zM84.9 106.6c-3.4.0-6.6 2.3-6.6 5v12.6h6.2v-6.7h18.7v6.6h6.2v-17.6L84.9 106.6v0zM84.5 114.5v-1.3c0-1.4 1.3-3.2 3.6-3.2h15.1v4.5H84.5v0z"/></g></g></svg>