<svg id="Layer_1" xmlns="http://www.w3.org/2000/svg" xmlns:xlink="http://www.w3.org/1999/xlink" viewBox="0 0 150 150" style="enable-background:new 0 0 150 150"><style>.st0{fill:#234b8d}.st1{fill:#fadf3c}.st2{fill:#fff}.st3{fill:none;stroke:#000;stroke-width:.01310697;stroke-miterlimit:2.613}</style><g><path class="st0" d="M1.5 60.3h147.2v31.8H1.5V60.3z"/><path class="st1" d="M16 76.1l4.8-1 1.9-.3v-.1l-1.9-.4-4.8-1-1.5-4.2-1.5 4.2-6.6 1.4 6.6 1.4 1.5 4.1L16 76.1v0zM20.8 77.8 19.9 78l.8.2 1.9.3.2.1.7 1.9.7-1.9 2-.4 1.1-.2-1.1-.3-2-.4-.7-2-.7 2-.2.1L20.8 77.8v0zM28.8 73.5l.4 1.1.3.8.7-1.9 1.8-.3 1.4-.3L32 72.6l-1.8-.3-.7-2-.3.8-.4 1.1-2.4.5-.7.1.7.2L28.8 73.5v0zM18.8 82 18 80.1 17.4 82l-3.1.7 3.1.6.7 1.9.7-1.9 2-.4 1.1-.2-1.1-.2L18.8 82v0z"/><path class="st1" d="M32 69.6c-.9-.5-1.8-1-2.8-1.4-.8-.3-1.8-.6-2.8-.8-1.2-.3-2.4-.5-3.7-.6-.7-.1-1.3-.1-1.9-.1-9 0-16.2 4.6-16.2 10.3.0 5.7 7.3 10.3 16.2 10.3.6.0 1.2.0 1.9-.1 1.3-.1 2.5-.3 3.7-.6 1-.2 1.9-.5 2.8-.8 1-.4 1.9-.8 2.8-1.4 3.1-1.9 4.9-4.5 4.9-7.4C36.9 74.1 35 71.5 32 69.6zM32 82.8c-.8.6-1.8 1.1-2.8 1.5-.8.3-1.8.6-2.8.9-1.2.3-2.4.5-3.7.6-.7.1-1.3.1-1.9.1-8.3.0-15-4.1-15-9 0-5 6.7-9 15-9 .6.0 1.2.0 1.9.1 1.3.1 2.5.3 3.7.6 1 .2 1.9.5 2.8.9 1 .4 1.9.9 2.8 1.5 2.3 1.6 3.8 3.6 3.8 5.9.0.3-.1.7-.1 1.1l.1.1h-.2C35.2 79.8 33.9 81.5 32 82.8v0z"/><path class="st1" d="M27.1 81.4l-.7-1.9v-.1l-.7 1.9-3 .7 3 .6.7 1.9v-.1l.7-1.8 2.1-.4 1-.2-1-.2L27.1 81.4zM32.7 77.3 32 75.5l-.1-.1-.7 2-2 .4-1 .3 1 .2 2 .4.7 1.9.1-.1.7-1.9 2.9-.6.1-.1L32.7 77.3v0z"/><path class="st2" d="M71.5 77.7c0 .6.1 1.8-.3 2.2-.3.4-.6.7-1.4.7H65c-.7.0-1.3-.1-1.6-.6-.3-.5-.2-2.2-.2-2.5v-7.4h-3.9v8.4c0 1.2.2 2.4.5 3.1.2.3.6.8.8 1.1.1.1.3.3.6.4.3.2.7.2.9.2h10.5c.5.0 1.2-.2 1.6-.7.4-.5.5-.8.6-1.1.2-.5.3-2 .3-2.9v-8.6h-3.7L71.5 77.7v0 0zM58.2 78.1c-.1-.6-.2-1.1-.7-1.6-.3-.4-.7-.7-1.1-.8-.5-.3-1.3-.4-1.6-.4h-8c-.6.0-1.4-.2-1.4-1 0-.7.3-1.2.8-1.2h7.1c.6.0 1 .2 1 .7v.4h3.8v-.5c0-.1-.1-.6-.2-1.1-.1-.3-.2-.7-.3-.8-.1-.2-.6-.8-.8-1-.3-.2-1.1-.5-1.8-.5H44.7c-.5.0-1.4.2-1.9.6-.4.3-1 1-1.2 1.5-.2.6-.3.9-.2 2.3.0.7.2 1.5.5 2.2.4.8 1.9 1.4 2.6 1.4l8.3.1c1.2.0 1.6.4 1.7 1.2.0.2.1 1-1.1 1.2l-7 .1c-.6.0-1.2-.5-1.2-1.1h-3.9v.6c0 .7.1 1.1.3 1.5.1.1.3.6.7.8.4.3 1.1.6 1.2.6 1 .3 1.1.2 1.8.2H55c.8.0 2-.5 2.2-.8.1-.1.6-.5.8-1 .2-.5.4-1.4.3-1.8C58.3 79 58.4 78.9 58.2 78.1v0zM140.2 70.1v7.4c0 .6.1 1.8-.3 2.3-.3.4-.6.7-1.4.7h-4.7c-.8.0-1.4-.1-1.6-.6-.3-.5-.3-2.1-.3-2.4v-7.4h-3.8v8.4c0 1.2.2 2.4.4 3.1.2.3.6.8.8 1.1.1.1.3.3.7.4.3.2.7.2.8.2h10.6c.5.0 1.1-.2 1.5-.7.4-.5.5-.9.6-1.1.2-.4.3-2 .3-2.9V70H140.2V70.1zM92.5 79.4c0-.3-.1-.6-.2-1-.2-.3-.4-.7-.6-1-.3-.4-1-.8-1.5-.9.4.0 1.5-.8 1.6-1.2.3-.4.6-1.2.5-2.3-.1-.8-.9-1.8-1.1-2-.5-.4-1.8-.8-2.6-.8H77v13.3h11.8c1 0 2.3-.6 2.7-1 .4-.4.7-.9.8-1.2C92.6 80.6 92.6 80.1 92.5 79.4zM80.9 73.1h6.7c.5.0 1 .4 1 1 0 .6-.5 1.1-1 1.1h-6.7V73.1v0zM87.8 80.3h-6.9V78h6.8c.5.0 1.1.3 1.1 1.2C88.7 80.1 88.1 80.3 87.8 80.3v0zM126 71.5c-.2-.3-.8-.7-1.5-.9-.6-.2-1.2-.3-1.9-.3h-11.3v13.3h3.7v-3.9h6.5c1.2.0 1.6 1.5 1.6 1.7v2.2h3.7v-1.9c0-.3-.1-.8-.2-1.4-.2-.5-.6-1.2-.8-1.5-.5-.6-1-.7-1-.7 1.4-.6 1.9-2.2 1.9-2.5.0-.1.1-.5.1-1.1.0-.5-.2-1.5-.3-1.8C126.2 71.5 126.3 71.8 126 71.5v0zM123.2 75c-.1 1.2-1 1.6-1.6 1.6l-2.4-.1h-4v-3.2h6.5C122.3 73.3 123.3 73.7 123.2 75v0zM101.3 70.2h-2.6L92.3 83l-.2.5h3.7l1.4-2.7h8.4l1.4 2.7h3.8L104 70.2H101.3v0zM101.3 77.6H99l2.3-4.5.1-.2 2.2 4.7H101.3v0 0z"/><path class="st3" d="M98.4 84.5v0"/></g></svg>