<svg id="Layer_1" xmlns="http://www.w3.org/2000/svg" xmlns:xlink="http://www.w3.org/1999/xlink" viewBox="0 0 150 150" style="enable-background:new 0 0 150 150"><style>.st0{fill:none}.st1{fill:#d52b1e}.st2{fill:#003478}</style><g><path class="st0" d="M1.2 59.9h148.2v28.8H1.2V59.9z"/><path class="st1" d="M9.8 64.4c-3.7 2.5-7.7 4.1-8.4 4.4l18.5 12.9c0 0 0 0 0 .1v0c0 0 0 0 0 .1l-.8.5c0 0-.1.0-.1.0l-6.8-4.6C9.6 76 6.8 76.4 4.9 77c-1.9.6-3.2 1.5-3.6 1.7.2.1 14 9.8 14.1 9.8.3-.3 2.3-2.1 6.6-4.7 4.5-2.8 7.1-3.7 7.7-3.9l-18.5-13c0 0 0 0 0-.1v0c0 0 0 0 0-.1l.8-.5c0 0 .1.0.1.0.0.0 2.5 1.6 7 4.8 4.2 2.9 10-.6 10.8-1.1-.2-.1-14.2-9.9-14.3-9.9C15.2 60.3 12.6 62.5 9.8 64.4z"/><path class="st2" d="M79.1 66.5v4.1h9.2c0 0 .1.0.1.1.0.0.0.0.0.1l-9.6 8.9v3.5h19.3v-4.1h-9.6c0 0-.1.0-.1.0.0.0.0-.1.0-.1.0.0 9.7-8.9 9.7-8.9v-3.5C98 66.5 79.2 66.5 79.1 66.5v0zM71.3 66.5v10.6c0 1.5-1.4 2.5-3.6 2.5-2.3.0-3.6-.9-3.6-2.5V66.5h-5.9v10.9c0 2.3.6 3.8 1.9 4.7 1.4 1 3.9 1.5 7.7 1.5 3.8.0 6.2-.5 7.7-1.5 1.3-.9 1.9-2.4 1.9-4.7V66.5C77.3 66.5 71.3 66.5 71.3 66.5zm41.8.0V77c0 1.6-1.4 2.5-3.6 2.5-2.3.0-3.6-.9-3.6-2.5V66.5H1e2v10.9c0 2.3.6 3.8 1.9 4.7 1.4 1 3.9 1.5 7.7 1.5 3.8.0 6.2-.5 7.7-1.5 1.3-.9 1.9-2.4 1.9-4.7V66.5H113.1zM143 66.5v16.7h6.2V66.5H143zM133.8 66.5c0 0-6.7 5.8-6.7 5.8.0.0-.1.0-.1.0.0.0.0.0.0-.1v-5.7h-6.2v16.7h6.2v-5.9c0 0 0-.1.0-.1.0.0.1.0.1.0.0.0 6.2 5.9 6.2 5.9h8.3l-9.1-8.5c0 0 0 0 0-.1v0c0 0 0 0 0-.1l9.4-8.1L133.8 66.5zM36.7 71.6c0 1.8.7 3 2.2 3.9 1.4.8 3.5 1.2 7 1.6l.7.1c1.5.1 3.2.3 3.2 1.5.0.8-.9 1.3-2.6 1.3-.8.0-2-.2-3-2h-7.8c0 1.9.7 3.3 2.3 4.2 1.7 1 4.5 1.5 8.5 1.5 9 0 9.7-4.2 9.7-5.5.0-3-2.7-4.8-8.1-5.5l-.9-.1c-2.5-.3-4.5-.6-4.5-1.4.0-.3.1-.6.3-.8.6-.6 1.8-.6 2.3-.6h0c.5.0 2.1.1 3.2 1.9h7.1c-.1-3.5-3.8-5.5-10.2-5.5C37.6 66.1 36.7 69.9 36.7 71.6v0z"/></g></svg>