<svg id="Layer_1" xmlns="http://www.w3.org/2000/svg" xmlns:xlink="http://www.w3.org/1999/xlink" viewBox="0 0 150 150" style="enable-background:new 0 0 150 150"><style>.st0{fill:#cc2229}</style><path class="st0" d="M18.5 86.7c-2-1.2-3.4-5.5-3.4-10.5.0-.2.0-.4.0-.6v0c-5.5-.9-9.4-3.2-9.5-6v0c-1.3 1.7-2.1 3.6-2.1 5.6C3.4 81.3 10 86.3 18.5 86.7v0zM.9 75.7c0-6.7 8.4-12.2 18.7-12.2 10.4.0 18.7 5.5 18.7 12.2C38.4 82.5 30 88 19.6 88 9.3 88 .9 82.5.9 75.7v0zM19.6 65.3c2 0 3.7 3 4.3 7.3v0c3.9-.6 6.6-2 6.6-3.6.0-2.2-4.9-3.9-10.9-3.9-6 0-10.9 1.8-10.9 3.9.0 1.6 2.7 3 6.6 3.6v0C15.9 68.3 17.6 65.3 19.6 65.3v0zM20.9 86.7c8.4-.4 15-5.4 15-11.4.0-2-.8-4-2.1-5.6v0c-.1 2.8-4.1 5.1-9.5 6v0c0 .2.0.4.0.6C24.2 81.2 22.8 85.5 20.9 86.7v0zM19.6 72.9c.9.0 1.7.0 2.6-.1v0c-.4-2.7-1.4-4.6-2.6-4.6-1.2.0-2.2 1.9-2.6 4.6v0C17.9 72.8 18.8 72.9 19.6 72.9v0zm0 10c1.5.0 2.7-3.1 2.8-7.1v0c-1.9.2-3.7.2-5.6.0v0C16.9 79.8 18.1 82.9 19.6 82.9zM96.5 75.7c0-5.2 4.2-9.3 9.3-9.3 5.2.0 9.3 4.2 9.3 9.3.0 5.2-4.2 9.3-9.3 9.3C100.7 85.1 96.5 80.9 96.5 75.7v0zM105.9 81.7c2.9.0 5.2-2.6 5.2-5.9.0-3.3-2.3-5.9-5.2-5.9-2.9.0-5.2 2.6-5.2 5.9C100.7 79 103 81.7 105.9 81.7zM125.8 70.3v14.4h-3.9V70.3h0-5.5v-3.2h14.9v3.2H125.8zM136 80.7v0l-1.5 4h-4.6l7.3-17.6h4.9l7.3 17.6h-4.6l-1.5-4v0H136zM139.6 77.7h2.5v0l-2.5-6.4h0l-2.5 6.4v0h2.5zM53.3 70.3v14.4h-3.9V70.3h0-5.5v-3.2h14.9v3.2H53.3v0zM59.8 75.7c0-5.2 4.2-9.3 9.3-9.3 5.2.0 9.3 4.2 9.3 9.3.0 5.2-4.2 9.3-9.3 9.3C64 85.1 59.8 80.9 59.8 75.7zM69.1 81.7c2.9.0 5.2-2.6 5.2-5.9.0-3.3-2.3-5.9-5.2-5.9-2.9.0-5.2 2.6-5.2 5.9C63.9 79 66.3 81.7 69.1 81.7zM87.5 84.6h2V78l6.9-10.9h-4.6l-4.3 7.4-4.3-7.4h-4.6L85.5 78v6.7L87.5 84.6v0z"/></svg>