<?xml version="1.0" encoding="UTF-8" standalone="no"?>
<svg
   xmlns:dc="http://purl.org/dc/elements/1.1/"
   xmlns:cc="http://creativecommons.org/ns#"
   xmlns:rdf="http://www.w3.org/1999/02/22-rdf-syntax-ns#"
   xmlns:svg="http://www.w3.org/2000/svg"
   xmlns="http://www.w3.org/2000/svg"
   viewBox="0 0 920.98669 239.16"
   height="239.16"
   width="920.98669"
   xml:space="preserve"
   id="svg2"
   version="1.1"><metadata
     id="metadata8"><rdf:RDF><cc:Work
         rdf:about=""><dc:format>image/svg+xml</dc:format><dc:type
           rdf:resource="http://purl.org/dc/dcmitype/StillImage" /></cc:Work></rdf:RDF></metadata><defs
     id="defs6" /><g
     transform="matrix(1.3333333,0,0,-1.3333333,0,239.16)"
     id="g10"><g
       transform="scale(0.1)"
       id="g12"><path
         id="path14"
         style="fill:#d3d2d2;fill-opacity:1;fill-rule:evenodd;stroke:none"
         d="M 6084.07,1791.78 6906,1792.28 6316.69,573.672 C 6253.02,459.691 6171.61,354.738 6063.7,279.582 5846.11,116.941 5570.13,66.1641 5306.43,34.2734 5139.63,22.082 4972.73,7.31641 4805.62,1.44141 L 15.5859,15.5 1.44141,15.5156 26.7852,62.2344 c 0.0546,0.0976 0.1054,0.1953 0.1601,0.2929 22.5352,41.3787 45.3203,54.8247 89.4567,54.4137 1512.578,-1.714 3025.168,5.399 4537.988,1.719 257.82,-1.719 519.81,94.934 698.15,284.067 66.57,80.75 119.09,170.027 166.63,262.332 l 564.31,1125.571 0.59,1.15" /><path
         id="path16"
         style="fill:#ff0000;fill-opacity:1;fill-rule:evenodd;stroke:none"
         d="m 332.273,691 c -47.574,-112.707 -44.168,-199.387 10.215,-260.043 54.383,-60.652 157.961,-91.309 310.735,-91.973 153.336,0.664 283.109,31.321 389.317,91.973 106.21,60.656 183.69,147.336 232.42,260.043 l 311.31,728.65 c 47.57,112.71 44.17,199.39 -10.22,260.05 -54.38,60.65 -157.96,91.3 -310.73,91.97 C 1111.99,1771 982.211,1740.35 876,1679.7 769.789,1619.04 692.316,1532.36 643.586,1419.65 Z m 627.528,742.66 c 21.695,49.55 51.359,85.08 88.999,106.6 37.64,21.52 81.34,32.03 131.13,31.53 50.2,0.5 84.93,-10.01 104.18,-31.53 19.25,-21.52 18.55,-57.05 -2.08,-106.6 L 958.746,676.988 c -21.699,-49.543 -51.367,-85.074 -89.004,-106.593 -37.633,-21.52 -81.344,-32.032 -131.125,-31.532 -50.207,-0.5 -84.937,10.012 -104.183,31.532 -19.25,21.519 -18.555,57.05 2.082,106.593 l 323.285,756.672" /><path
         id="path18"
         style="fill:#ff0000;fill-opacity:1;fill-rule:evenodd;stroke:none"
         d="M 2396.7,1737.84 H 1941.57 L 1340.84,372.809 h 285.37 l 424.81,965.271 -180.61,-965.271 h 309.71 l 657.14,978.921 -430.81,-978.921 h 309.19 L 3316.38,1737.84 H 2861.26 L 2211.39,768.668 2396.7,1737.84" /><path
         id="path20"
         style="fill:#ff0000;fill-opacity:1;fill-rule:evenodd;stroke:none"
         d="M 3992.64,1737.84 H 3551.5 L 2949.69,372.809 h 459.77 c 146.56,0.32 269.24,27.925 368.05,82.816 98.81,54.895 171.6,135.152 218.38,240.781 l 49.04,111.235 c 32.72,72.57 43,133.777 30.84,183.617 -12.16,49.842 -52.04,86.142 -119.61,108.902 74.58,22.29 137.2,56.16 187.83,101.63 50.64,45.47 91.28,103.27 121.92,173.41 l 21.51,48.79 c 47.28,105.22 47.64,183.85 1.07,235.9 -46.57,52.06 -145.19,78.04 -295.85,77.95 z M 3643.05,987.184 c 66.53,1.015 109.46,-10.774 128.77,-35.371 19.32,-24.598 15,-68.102 -12.96,-130.508 l -52.48,-119.043 c -22.22,-50.008 -50.67,-85.137 -85.38,-105.383 -34.71,-20.25 -76.6,-30.008 -125.68,-29.274 h -167.65 l 184.98,419.579 z m 255.72,555.866 c 51.73,0.24 84.6,-10.98 98.61,-33.67 14,-22.69 10.16,-58.31 -11.52,-106.86 l -33.56,-76.11 c -24.23,-53.84 -56.5,-91.57 -96.81,-113.2 -40.31,-21.64 -87.82,-32.04 -142.52,-31.23 h -114.44 l 159.18,361.07 h 141.06" /><path
         id="path22"
         style="fill:#ff0000;fill-opacity:1;fill-rule:evenodd;stroke:none"
         d="M 4617.84,1744.68 4164.59,708.035 c -47.65,-109.515 -45.66,-193.742 5.97,-252.683 51.63,-58.942 153.24,-88.735 304.81,-89.379 152.16,0.644 279.82,30.437 382.99,89.379 103.18,58.941 178.82,143.168 226.93,252.683 L 5538.54,1744.68 H 5246.85 L 4787.65,694.422 c -21.54,-48.059 -50.9,-82.254 -88.08,-102.598 -37.18,-20.34 -80.51,-30.226 -129.98,-29.66 -49.97,-0.566 -84.66,9.32 -104.05,29.66 -19.39,20.344 -18.85,54.539 1.64,102.598 l 459.2,1050.258 h -308.54" /></g></g></svg>