<?xml version="1.0" encoding="UTF-8" standalone="no"?>
<svg
   xmlns:dc="http://purl.org/dc/elements/1.1/"
   xmlns:cc="http://creativecommons.org/ns#"
   xmlns:rdf="http://www.w3.org/1999/02/22-rdf-syntax-ns#"
   xmlns:svg="http://www.w3.org/2000/svg"
   xmlns="http://www.w3.org/2000/svg"
   viewBox="0 0 258.66666 258.66666"
   height="258.66666"
   width="258.66666"
   xml:space="preserve"
   id="svg2"
   version="1.1"><metadata
     id="metadata8"><rdf:RDF><cc:Work
         rdf:about=""><dc:format>image/svg+xml</dc:format><dc:type
           rdf:resource="http://purl.org/dc/dcmitype/StillImage" /></cc:Work></rdf:RDF></metadata><defs
     id="defs6" /><g
     transform="matrix(1.3333333,0,0,-1.3333333,0,258.66667)"
     id="g10"><g
       transform="scale(0.1)"
       id="g12"><path
         id="path14"
         style="fill:#ffffff;fill-opacity:1;fill-rule:evenodd;stroke:none"
         d="M 2.59766,1933.23 H 1930.16 V 5.66797 H 2.59766 V 1933.23" /><path
         id="path16"
         style="fill:#231f20;fill-opacity:1;fill-rule:evenodd;stroke:none"
         d="m 87.6367,969.449 c 0,241.531 393.4223,437.331 878.7423,437.331 485.321,0 878.741,-195.8 878.741,-437.331 0,-241.535 -393.42,-437.328 -878.741,-437.328 -485.32,0 -878.7423,195.793 -878.7423,437.328 v 0" /><path
         id="path18"
         style="fill:#ffffff;fill-opacity:1;fill-rule:evenodd;stroke:none"
         d="m 140.773,969.449 c 0,187.351 369.629,339.231 825.606,339.231 455.981,0 825.611,-151.88 825.611,-339.231 0,-187.359 -369.63,-339.234 -825.611,-339.234 -455.977,0 -825.606,151.875 -825.606,339.234 v 0" /><path
         id="path20"
         style="fill:#231f20;fill-opacity:1;fill-rule:evenodd;stroke:none"
         d="M 344.832,778.695 483.559,1171.75 H 587.602 L 726.324,778.695 h -98.265 l -31.606,72.262 H 460.621 l -31.976,-72.262 h -83.813 v 0" /><path
         id="path22"
         style="fill:#ffffff;fill-opacity:1;fill-rule:evenodd;stroke:none"
         d="m 483.738,908.754 h 83.813 L 524.203,1033.03 483.738,908.754 v 0" /><path
         id="path24"
         style="fill:#231f20;fill-opacity:1;fill-rule:evenodd;stroke:none"
         d="m 735.176,844.133 8.672,-45.195 c 0,0 73.609,-36.622 142.57,-32.442 74.891,4.539 134.342,43.41 137.762,122.027 3.55,81.645 -101.153,121.387 -101.153,121.387 0,0 -109.82,26.01 -89.589,78.03 12.007,30.89 38.285,44.45 70.96,44.94 22.356,0.32 47.711,-5.47 73.543,-16.04 l 2.711,54.91 c -26.105,9.91 -72.386,19.84 -106.863,17.41 -44.293,-3.12 -152.66,-31.78 -153.062,-138.79 -0.301,-80.917 121.378,-115.604 121.378,-115.604 0,0 83.817,-26.012 80.922,-69.364 C 920.137,822.055 868.113,795 735.176,844.133 v 0" /><path
         id="path26"
         style="fill:#231f20;fill-opacity:1;fill-rule:evenodd;stroke:none"
         d="m 1064.35,778.695 h 104.16 v 398.835 h -106.77 l 2.61,-398.835 v 0" /><path
         id="path28"
         style="fill:#231f20;fill-opacity:1;fill-rule:evenodd;stroke:none"
         d="m 1197.41,778.695 138.72,393.055 h 104.04 l 138.72,-393.055 h -98.26 l -31.61,72.262 h -135.84 l -31.96,-72.262 h -83.81 v 0" /><path
         id="path30"
         style="fill:#ffffff;fill-opacity:1;fill-rule:evenodd;stroke:none"
         d="m 1336.31,908.754 h 83.81 l -43.35,124.276 -40.46,-124.276 v 0" /></g></g></svg>