<svg id="Layer_1" xmlns="http://www.w3.org/2000/svg" xmlns:xlink="http://www.w3.org/1999/xlink" viewBox="0 0 150 150" style="enable-background:new 0 0 150 150"><style>.st0{fill:#c7d6ee}.st1{fill:url(#SVGID_1_)}.st2{fill:#e9cf98}.st3{fill:#fff}.st4{fill:url(#SVGID_2_)}.st5{fill:url(#SVGID_3_)}.st6{fill:url(#SVGID_4_)}.st7{fill:url(#SVGID_5_)}.st8{fill:url(#SVGID_6_)}.st9{fill:url(#SVGID_7_)}.st10{fill:url(#SVGID_8_)}.st11{fill:url(#SVGID_9_)}.st12{fill:url(#SVGID_10_)}.st13{fill:url(#SVGID_11_)}.st14{fill:url(#SVGID_12_)}.st15{fill:url(#SVGID_13_)}.st16{fill:url(#SVGID_14_)}.st17{fill:url(#SVGID_15_)}.st18{fill:url(#SVGID_16_)}.st19{fill:url(#SVGID_17_)}.st20{fill:url(#SVGID_18_)}.st21{fill:url(#SVGID_19_)}.st22{fill:url(#SVGID_20_)}.st23{fill:url(#SVGID_21_)}.st24{fill:url(#SVGID_22_)}.st25{fill:url(#SVGID_23_)}.st26{fill:url(#SVGID_24_)}.st27{fill:url(#SVGID_25_)}.st28{fill:url(#SVGID_26_)}.st29{fill:url(#SVGID_27_)}.st30{fill:url(#SVGID_28_)}.st31{fill:url(#SVGID_29_)}.st32{fill:url(#SVGID_30_)}.st33{fill:url(#SVGID_31_)}</style><g><path class="st0" d="M16.1 52.2c.7-1.5 1.2-2.7 5.4-2.7h24c1.3.0 2.6-.6 2.6-2.5v-6.6c0-.7.8-1.8 2.7-1.8h49.7c1.4.0 2.5.7 2.5 2.5v5.2c0 1.4.7 2.9 2.7 2.9h39.8c1.4.0 3.3.4 2.5 2.1-.9 1.8-13.8 27.5-14.7 29.2-.3.7-.6 1.5-3.2 1.5h-24.5c-1.2.0-3.1.0-3.1 2.2v6.1c0 .9-.7 2.2-2.8 2.2H50.7c-1.5.0-2.7-.8-2.7-2.3V85c0-1.2-.6-2.9-2.4-2.9H4.4c-1.3.0-2.5-1-1.8-2.9C3.5 77.3 16.1 52.2 16.1 52.2"/></g><g transform="matrix(1.32585 0 0 -1.30221 -194.163 651.935)"><linearGradient id="SVGID_1_" gradientUnits="userSpaceOnUse" x1="-1137.0795" y1="316.7799" x2="-1136.9174" y2="316.7799" gradientTransform="matrix(-90.9818 -181.0239 -187.8949 0.5075 -43772.5664 -205540.7188)"><stop offset="0" style="stop-color:#c7d6ee"/><stop offset=".185" style="stop-color:#91afc8"/><stop offset="1" style="stop-color:#002334"/></linearGradient><path class="st1" d="M150.8 442h.9l8.5 16.9h-.9L150.8 442v0z"/></g><g><path class="st2" d="M45.8 79.5H7.2c-1.3.0-1.8-.6-1.3-1.6 2.9-5.7 12.5-24.5 12.8-25 .3-.6 1-1.3 2.3-1.3h25.9c2.7.0 3.1-1.2 3.1-3.2v-6.2c0-.8.6-1.4 1.6-1.4H99c1.3.0 1.8.4 1.8 1.2v4.6c0 1.8-.3 4.7 3.7 4.7h39.2c1.8.0 2.2 1.2 1.3 3-3.5 6.9-12 23.2-12.3 23.7-.3.7-1.4 1.3-3 1.3H104c-2.1.0-4.2 1.4-4.2 3.5v5.3c0 1-.6 1.6-1.6 1.6h-46c-1.4.0-2-.8-2-1.8v-4.8C50.1 81.4 49 79.5 45.8 79.5"/><path class="st3" d="M97.2 78.3l5.4 5.5c0 0 .4-1.2 1.9-1.5l-6.1-5.5C98.4 76.7 97.4 77.3 97.2 78.3M45.9 82.2c0 0 2.2.1 2.2 2.9l5-7.3-1.4-1L45.9 82.2v0zM99.2 54.6l5.7-5.5c0 0-.8-.1-1.5-1.3l-5.6 5.6L99.2 54.6zM96.7 43.5l5.3-4.4c0 0 .6.3.8.9l-5.5 5L96.7 43.5v0zM48.2 40.7c0-.9.9-2 2.3-2l4 4.8c0 0-1.2.0-1.4.4-.2.4-.4 1.4-.4 1.4L48.2 40.7v0zM46.5 49.4c0 0 1.7-.3 1.7-2.1l4 4.6-2.5 1.8L46.5 49.4z"/></g><g transform="matrix(1.32585 0 0 -1.30221 -194.163 651.935)"><linearGradient id="SVGID_2_" gradientUnits="userSpaceOnUse" x1="-1134.7875" y1="315.8416" x2="-1134.6254" y2="315.8416" gradientTransform="matrix(37.0972 34.5935 33.3709 -35.786 31739.2188 51023.4531)"><stop offset="0" style="stop-color:#e1e8f5"/><stop offset=".157" style="stop-color:#c7d6ee"/><stop offset="1" style="stop-color:#e1e8f5"/></linearGradient><path class="st4" d="M182.8 469.4v-4.9c0-.8-.2-1-.2-1l1.4-1.4c0 0 .2.5.2.8v4.8c0 .3.0.8.0.8l-1.3 1.6C182.9 470.1 182.8 469.8 182.8 469.4"/></g><g transform="matrix(1.32585 0 0 -1.30221 -194.163 651.935)"><linearGradient id="SVGID_3_" gradientUnits="userSpaceOnUse" x1="-1132.2233" y1="318.4561" x2="-1132.0612" y2="318.4561" gradientTransform="matrix(-39.2792 36.6285 -35.334 -37.8911 -32995.1563 54002.707)"><stop offset="0" style="stop-color:#e1e8f5"/><stop offset=".157" style="stop-color:#c7d6ee"/><stop offset="1" style="stop-color:#e1e8f5"/></linearGradient><path class="st5" d="M222.5 468.7c0 0 0-.6.0-.9.0-.3.0-4.4.0-4.7.0-.3.4-.9.4-.9l1.6 1.4c0 0-.4.1-.4.9v4.9c0 .4-.3.7-.3.7L222.5 468.7v0z"/></g><g transform="matrix(1.32585 0 0 -1.30221 -194.163 651.935)"><linearGradient id="SVGID_4_" gradientUnits="userSpaceOnUse" x1="-1135.4012" y1="316.9322" x2="-1135.2391" y2="316.9322" gradientTransform="matrix(127.7863 127.7863 123.2706 -123.2703 106185.875 184612.8125)"><stop offset="0" style="stop-color:#476886"/><stop offset=".129" style="stop-color:#92a5c1"/><stop offset=".129" style="stop-color:#92a5c1"/><stop offset="1" style="stop-color:#e1e8f5"/></linearGradient><path class="st6" d="M180.9 462.6c-.5.0-18.1.0-19 0-1.4.0-2.2-.6-2.2-.6l1.1-1.5c0 0 .4.6 1.4.6h19.8c.7.0 1.2.3 1.2.3l-1.3 1.6C182 462.9 181.3 462.6 180.9 462.6"/></g><g transform="matrix(1.32585 0 0 -1.30221 -194.163 651.935)"><linearGradient id="SVGID_5_" gradientUnits="userSpaceOnUse" x1="-1132.9401" y1="328.0971" x2="-1132.7778" y2="328.0971" gradientTransform="matrix(-14.9749 21.3864 20.6306 14.4457 -23583.6953 19928.918)"><stop offset="0" style="stop-color:#002334"/><stop offset=".107" style="stop-color:#fff"/><stop offset=".107" style="stop-color:#fff"/><stop offset=".185" style="stop-color:#91afc8"/><stop offset=".242" style="stop-color:#002334"/><stop offset=".534" style="stop-color:#5e738f"/><stop offset=".758" style="stop-color:#002334"/><stop offset="1" style="stop-color:#002334"/></linearGradient><path class="st7" d="M150.3 440.7l-2-1.4c0 0-.2-.6.1-1.1.3-.5.8-.5.8-.5l2.6 1.9c0 0-1.5.1-.9 1.2.6 1.1.6 1.5.6 1.5C151.5 442.3 150.8 442.2 150.3 440.7"/></g><g transform="matrix(1.32585 0 0 -1.30221 -194.163 651.935)"><linearGradient id="SVGID_6_" gradientUnits="userSpaceOnUse" x1="-1137.7728" y1="317.8089" x2="-1137.6107" y2="317.8089" gradientTransform="matrix(-115.3178 -58.6873 -56.6135 111.2424 -113052.4922 -101673.6406)"><stop offset="0" style="stop-color:#91afc8"/><stop offset="1" style="stop-color:#002334"/></linearGradient><path class="st8" d="M155.9 454.6c-1.6-3.3-7-14-7.2-14.4-.2-.4-.4-1-.4-1l2.1 1.5 9.8 19.5C160.1 460.2 157.5 457.9 155.9 454.6"/></g><g transform="matrix(1.32585 0 0 -1.30221 -194.163 651.935)"><linearGradient id="SVGID_7_" gradientUnits="userSpaceOnUse" x1="-1131.9159" y1="319.8873" x2="-1131.7539" y2="319.8873" gradientTransform="matrix(-8.8407 50.1386 48.3669 8.5284 -25312.4629 54460.8164)"><stop offset="0" style="stop-color:#a5b9cc"/><stop offset="1" style="stop-color:#002334"/></linearGradient><path class="st9" d="M151.9 439.5l-2.7-1.9c0 0 30.6-.1 31.3-.1.8.0 1.1-.1 1.1-.1l1.4 1.6c0 0-1.3.6-2 .6H151.9V439.5z"/></g><g transform="matrix(1.32585 0 0 -1.30221 -194.163 651.935)"><linearGradient id="SVGID_8_" gradientUnits="userSpaceOnUse" x1="-1135.6667" y1="299.0467" x2="-1135.5046" y2="299.0467" gradientTransform="matrix(14.6907 0 0 -14.1716 16866.5332 4672.2993)"><stop offset="0" style="stop-color:#5e738f"/><stop offset=".489" style="stop-color:#91afc8"/><stop offset=".489" style="stop-color:#91afc8"/><stop offset="1" style="stop-color:#91afc8"/></linearGradient><path class="st10" d="M182.4 436.5c0 0 .3-.6.3-1v-4c0-.6.2-1.1.2-1.1l1.3 1.6v4.8c0 .8-.4 1.4-.4 1.4L182.4 436.5v0z"/></g><g transform="matrix(1.32585 0 0 -1.30221 -194.163 651.935)"><linearGradient id="SVGID_9_" gradientUnits="userSpaceOnUse" x1="-1125.3214" y1="302.5695" x2="-1125.1593" y2="302.5695" gradientTransform="matrix(-18.1888 0 0 -17.5459 -20244.6875 5743.3247)"><stop offset="0" style="stop-color:#5e738f"/><stop offset=".32" style="stop-color:#91afc8"/><stop offset=".32" style="stop-color:#91afc8"/><stop offset="1" style="stop-color:#91afc8"/></linearGradient><path class="st11" d="M221.7 437.3v-4.8l2.1-1.8c0 0 .1.5.1 1.1v4c0 .5.1.7.1.7l-1.8 1.8C222.1 438.3 221.7 438.1 221.7 437.3"/></g><g transform="matrix(1.32585 0 0 -1.30221 -194.163 651.935)"><linearGradient id="SVGID_10_" gradientUnits="userSpaceOnUse" x1="-1134.4579" y1="314.3533" x2="-1134.2958" y2="314.3533" gradientTransform="matrix(49.7534 86.1755 83.1302 -47.9951 30521.8926 113276.3906)"><stop offset="0" style="stop-color:#a5b9cc"/><stop offset="1" style="stop-color:#002334"/></linearGradient><path class="st12" d="M220.1 431.7h-16.6v-2.2h18.3c.6.0 1.4.4 1.5.5l-2.1 2C221.3 431.9 221.1 431.7 220.1 431.7"/></g><g transform="matrix(1.32585 0 0 -1.30221 -194.163 651.935)"><linearGradient id="SVGID_11_" gradientUnits="userSpaceOnUse" x1="-1138.7618" y1="316.1082" x2="-1138.5999" y2="316.1082" gradientTransform="matrix(50.1395 -86.8443 -83.7755 -48.3678 83770.7188 -83171.5)"><stop offset="0" style="stop-color:#002334"/><stop offset=".775" style="stop-color:#a5b9cc"/><stop offset="1" style="stop-color:#a5b9cc"/></linearGradient><path class="st13" d="M183.6 429.7c0 0 .4-.3 1.6-.3 1.2.0 18.3.0 18.3.0v2.2h-17.7c-.3.0-.5.1-.5.1L183.6 429.7z"/></g><g transform="matrix(1.32585 0 0 -1.30221 -194.163 651.935)"><linearGradient id="SVGID_12_" gradientUnits="userSpaceOnUse" x1="-1136.486" y1="316.8862" x2="-1136.3239" y2="316.8862" gradientTransform="matrix(223.9121 -387.8269 -374.1219 -215.9991 373200.2813 -371848.2813)"><stop offset="0" style="stop-color:#ffefcf"/><stop offset=".461" style="stop-color:#ffe4a6"/><stop offset="1" style="stop-color:#bc956e"/></linearGradient><path class="st14" d="M188.3 467.2c-1 0-1.9-.5-1.9-1.6v-5.2c0-1.1-.6-1.5-1.4-1.5h-21.2c-.9.0-1.5-.4-1.9-1.1-.3-.6-5.6-11.2-7.3-14.7-.4-.7.0-1.2.9-1.2h29.7c1.3.0 1.5-1.2 1.5-2.3v-4.1c0-.7.7-1.6 1.6-1.6h14.9v33.3H188.3V467.2z"/></g><g transform="matrix(1.32585 0 0 -1.30221 -194.163 651.935)"><linearGradient id="SVGID_13_" gradientUnits="userSpaceOnUse" x1="-1136.0063" y1="313.2735" x2="-1135.8442" y2="313.2735" gradientTransform="matrix(62.8061 70.009 67.535 -60.5864 50421.9297 98944.8438)"><stop offset="0" style="stop-color:#5e738f"/><stop offset=".607" style="stop-color:#91afc8"/><stop offset=".607" style="stop-color:#91afc8"/><stop offset="1" style="stop-color:#c7dff4"/></linearGradient><path class="st15" d="M223.1 439.1l1.7-1.8c0 0 .4.2 2.4.2h18.2c.4.0.9.2.9.2l-9.6 1.9c0 0-11.2.0-11.7.0.0.0.0.0-.1.0C223.8 439.7 223.1 439.1 223.1 439.1"/></g><g transform="matrix(1.32585 0 0 -1.30221 -194.163 651.935)"><linearGradient id="SVGID_14_" gradientUnits="userSpaceOnUse" x1="-1137.5535" y1="318.327" x2="-1137.3914" y2="318.327" gradientTransform="matrix(83.3831 -144.4235 -139.3199 -80.4362 139438.5156 -138215.1875)"><stop offset="0" style="stop-color:#e1e8f5"/><stop offset=".815" style="stop-color:#7f97b4"/><stop offset=".815" style="stop-color:#7f97b4"/><stop offset=".904" style="stop-color:#476886"/><stop offset="1" style="stop-color:#002334"/></linearGradient><path class="st16" d="M223.7 461.5c0 0 .8-.3 1.5-.3h28.7c.9.0 1.4-.1 1.4-.1l2.3 1.4c0 0-.7.2-1.5.2h-29.8c-.7.0-1.1.2-1.1.2L223.7 461.5v0z"/></g><g transform="matrix(1.32585 0 0 -1.30221 -194.163 651.935)"><linearGradient id="SVGID_15_" gradientUnits="userSpaceOnUse" x1="-1136.1927" y1="315.6395" x2="-1136.0308" y2="315.6395" gradientTransform="matrix(135.8872 235.3636 227.0463 -131.0849 82974.7578 309232.7813)"><stop offset="0" style="stop-color:#8ca0b5"/><stop offset=".14" style="stop-color:#e1e8f5"/><stop offset=".14" style="stop-color:#e1e8f5"/><stop offset=".815" style="stop-color:#7f97b4"/><stop offset=".904" style="stop-color:#476886"/><stop offset="1" style="stop-color:#002334"/></linearGradient><path class="st17" d="M256.1 460.5c0 0 .1-.7-.1-1.2-.2-.5-8.9-17.6-9.3-18.3-.4-.8-1.3-1.1-1.3-1.1l1-2c0 0 .4.3.6.5.2.3 10.9 22 11.2 22.7.3.8.0 1 0 1L256.1 460.5v0z"/></g><g transform="matrix(1.32585 0 0 -1.30221 -194.163 651.935)"><linearGradient id="SVGID_16_" gradientUnits="userSpaceOnUse" x1="-1138.7891" y1="310.6092" x2="-1138.627" y2="310.6092" gradientTransform="matrix(48.1299 27.7878 26.8059 -46.429 46724.7305 46504.1758)"><stop offset="0" style="stop-color:#002334"/><stop offset=".815" style="stop-color:#a5b9cc"/><stop offset=".815" style="stop-color:#a5b9cc"/><stop offset=".888" style="stop-color:#002334"/><stop offset="1" style="stop-color:#002334"/></linearGradient><path class="st18" d="M244.5 439.7c-1.1.0-7.5.0-7.5.0l9.1-1.9c0 0 .6.2.9.7.3.5.0.6-.3.3-.3-.3-.9.2-.6.5.3.3.6 1.4.6 1.4C246.6 440.7 245.7 439.7 244.5 439.7"/></g><g transform="matrix(1.32585 0 0 -1.30221 -194.163 651.935)"><linearGradient id="SVGID_17_" gradientUnits="userSpaceOnUse" x1="-1136.556" y1="316.1116" x2="-1136.3939" y2="316.1116" gradientTransform="matrix(157.4217 -157.4214 -151.8586 -151.8583 227083.9688 -130465.8906)"><stop offset="0" style="stop-color:#d4bc7b"/><stop offset=".332" style="stop-color:#7f5f39"/><stop offset="1" style="stop-color:#d4bc7b"/></linearGradient><path class="st19" d="M159.7 441.1c-6-.4-7.9-1.5-7.9-1.5h28.5c3.2.0 2.9-.4 2.9-.5l2.3 2.5c0 0-5.6.0-9.2.1-.5.0-1 0-1.5.0C171 441.7 165 441.5 159.7 441.1m23.5-2v0 0z"/></g><g transform="matrix(1.32585 0 0 -1.30221 -194.163 651.935)"><linearGradient id="SVGID_18_" gradientUnits="userSpaceOnUse" x1="-1135.9978" y1="314.9474" x2="-1135.8357" y2="314.9474" gradientTransform="matrix(-112.4434 -112.4431 108.4698 -108.4695 -161659.625 -93126.8672)"><stop offset="0" style="stop-color:#d4bc7b"/><stop offset=".332" style="stop-color:#7f5f39"/><stop offset="1" style="stop-color:#d4bc7b"/></linearGradient><path class="st20" d="M227 441.7c-2.5-.1-6.5-.1-6.5-.1l2.7-2.5c0 0 .3.6 2.6.6 2.3.0 19.3.1 19.3.1s.3.9-4.7 1.3c-3.9.3-9.9.7-12.7.7C227.4 441.7 227.2 441.7 227 441.7"/></g><g transform="matrix(1.32585 0 0 -1.30221 -194.163 651.935)"><linearGradient id="SVGID_19_" gradientUnits="userSpaceOnUse" x1="-1135.6903" y1="315.9816" x2="-1135.5283" y2="315.9816" gradientTransform="matrix(-181.7465 -181.7462 175.3239 -175.3235 -261560.0781 -150539.7344)"><stop offset="0" style="stop-color:#d4bc7b"/><stop offset=".332" style="stop-color:#7f5f39"/><stop offset="1" style="stop-color:#d4bc7b"/></linearGradient><path class="st21" d="M220.9 458.7c0 0 4 0 6.5-.1 2.5-.1 17.9.6 22.1 1 4.2.4 5.6 1.5 5.6 1.5S228.3 461 226 461c-2.3.0-2 .5-2 .5L220.9 458.7z"/></g><g transform="matrix(1.32585 0 0 -1.30221 -194.163 651.935)"><linearGradient id="SVGID_20_" gradientUnits="userSpaceOnUse" x1="-1136.313" y1="306.4444" x2="-1136.151" y2="306.4444" gradientTransform="matrix(23.7398 0 0 -22.9008 27160.3418 7454.3823)"><stop offset="0" style="stop-color:#d3bd8b"/><stop offset="1" style="stop-color:#7f5f39"/></linearGradient><path class="st22" d="M184 438.2c0 0 .3-.9.3-1.6v-3.2c0-.9.3-1.3.3-1.3l2.4 2.4c0 0-.4.9-.4 1.5v3.6c0 .8-.2 1.5-.2 1.5L184 438.2v0z"/></g><g transform="matrix(1.32585 0 0 -1.30221 -194.163 651.935)"><linearGradient id="SVGID_21_" gradientUnits="userSpaceOnUse" x1="-1128.2921" y1="306.4537" x2="-1128.13" y2="306.4537" gradientTransform="matrix(-23.7443 0 0 -22.9049 -26568.7383 7455.9038)"><stop offset="0" style="stop-color:#d3bd8b"/><stop offset="1" style="stop-color:#7f5f39"/></linearGradient><path class="st23" d="M219.5 439.6c0-.8-.1-3.1-.1-3.7.0-.6-.1-1.4-.1-1.4l2.4-2.4c0 0 .3.4.3 1.3v3.2c0 .7.3 1.6.3 1.6l-2.6 3C219.6 440.7 219.5 440.1 219.5 439.6"/></g><g transform="matrix(1.32585 0 0 -1.30221 -194.163 651.935)"><linearGradient id="SVGID_22_" gradientUnits="userSpaceOnUse" x1="-1139.0333" y1="316.0719" x2="-1138.8712" y2="316.0719" gradientTransform="matrix(44.1245 -76.4259 -73.7252 -42.5651 73754.2969 -73162.3906)"><stop offset="0" style="stop-color:#7f5f39"/><stop offset=".646" style="stop-color:#d3bd8b"/><stop offset=".888" style="stop-color:#ffe4a6"/><stop offset="1" style="stop-color:#ffe4a6"/></linearGradient><path class="st24" d="M185.3 431.8l17.7-.1h.1v2.4l-15.4.1L185.3 431.8v0z"/></g><g transform="matrix(1.32585 0 0 -1.30221 -194.163 651.935)"><linearGradient id="SVGID_23_" gradientUnits="userSpaceOnUse" x1="-1137.8198" y1="319.856" x2="-1137.6577" y2="319.856" gradientTransform="matrix(-48.2034 -83.4907 -80.5402 46.4999 -28871.7539 -109435.0156)"><stop offset="0" style="stop-color:#7f5f39"/><stop offset=".455" style="stop-color:#d3bd8b"/><stop offset=".888" style="stop-color:#ffe4a6"/><stop offset="1" style="stop-color:#ffe4a6"/></linearGradient><path class="st25" d="M203.1 434v0l-.1-2.4 18.2.2-2.9 2.2H203.1v0z"/></g><g transform="matrix(1.32585 0 0 -1.30221 -194.163 651.935)"><linearGradient id="SVGID_24_" gradientUnits="userSpaceOnUse" x1="-1134.8076" y1="315.5911" x2="-1134.6455" y2="315.5911" gradientTransform="matrix(37.8896 35.3324 34.0839 -36.5506 32424.3242 52092.9844)"><stop offset="0" style="stop-color:#ffe292"/><stop offset=".157" style="stop-color:#d1ac75"/><stop offset="1" style="stop-color:#ffe292"/></linearGradient><path class="st26" d="M184.2 467.3v-4.2c0-.5-.2-1.1-.2-1.1l2.3-2.6c0 0 .2.2.2 1.3.0 1.1.1 5.3.1 5.3l-2.3 2.6C184.2 468.7 184.2 468 184.2 467.3"/></g><g transform="matrix(1.32585 0 0 -1.30221 -194.163 651.935)"><linearGradient id="SVGID_25_" gradientUnits="userSpaceOnUse" x1="-1132.2817" y1="318.1614" x2="-1132.1196" y2="318.1614" gradientTransform="matrix(-39.4987 36.8329 -35.5315 -38.1028 -33195.8516 54290.5664)"><stop offset="0" style="stop-color:#ffe292"/><stop offset=".157" style="stop-color:#d1ac75"/><stop offset="1" style="stop-color:#ffe292"/></linearGradient><path class="st27" d="M219.5 466v-5.2c0-1.1.5-1.4.5-1.4l2.8 2.8c0 0-.4.6-.4 1.1.0.5.0 3.5.0 4.2.0.7.0 1.3.0 1.3L219.5 466v0z"/></g><g transform="matrix(1.32585 0 0 -1.30221 -194.163 651.935)"><linearGradient id="SVGID_26_" gradientUnits="userSpaceOnUse" x1="-1135.3341" y1="316.8332" x2="-1135.1722" y2="316.8332" gradientTransform="matrix(118.3645 118.3645 114.1816 -114.1813 98374.3438 171013.75)"><stop offset="0" style="stop-color:#7f5f39"/><stop offset="1" style="stop-color:#bd9b6a"/></linearGradient><path class="st28" d="M182.3 461h-19.7c-.6.0-1.5-.2-1.8-.5l1.8-1.9c0 0 .5.4 1.7.4h20.4c.6.0 1.1.2 1.1.2l-2.3 2.3C183.6 461.5 183.1 461 182.3 461"/></g><g transform="matrix(1.32585 0 0 -1.30221 -194.163 651.935)"><linearGradient id="SVGID_27_" gradientUnits="userSpaceOnUse" x1="-1141.1526" y1="318.7067" x2="-1140.9907" y2="318.7067" gradientTransform="matrix(50.359 -50.3587 -48.5792 -48.5792 73196.2344 -41532.3945)"><stop offset="0" style="stop-color:#7f5f39"/><stop offset="1" style="stop-color:#d4bc7b"/></linearGradient><path class="st29" d="M243.5 441.9c0 0 1.1.4 1.4-.9.0.0.3-.4 1 .7.8 1.1 7.9 15.8 7.8 16-.1.2-1.5.5-1.5.5L243.5 441.9z"/></g><g transform="matrix(1.32585 0 0 -1.30221 -194.163 651.935)"><linearGradient id="SVGID_28_" gradientUnits="userSpaceOnUse" x1="-1136.1241" y1="315.4904" x2="-1135.962" y2="315.4904" gradientTransform="matrix(111.1204 214.0362 206.4727 -107.1935 61351.2578 277430.5313)"><stop offset="0" style="stop-color:#a78a5e"/><stop offset=".764" style="stop-color:#7f5f39"/><stop offset=".916" style="stop-color:#674c2b"/><stop offset="1" style="stop-color:#674c2b"/></linearGradient><path class="st30" d="M252.5 458.1c.3-.2.7-.5.2-1.5-.5-1-6-11.8-7.2-13.8-1.2-2.1-.1-2.9-.1-2.9s.9.4 1.2.9c.3.4 8.7 17.1 9.2 18.2.6 1.1.2 1.6.2 1.6L252.5 458.1v0z"/></g><g transform="matrix(1.32585 0 0 -1.30221 -194.163 651.935)"><linearGradient id="SVGID_29_" gradientUnits="userSpaceOnUse" x1="-1135.6224" y1="317.0278" x2="-1135.4603" y2="317.0278" gradientTransform="matrix(-315.8481 376.413 363.111 304.6861 -473564.25 331304.875)"><stop offset="0" style="stop-color:#ffefcf"/><stop offset=".461" style="stop-color:#ffe4a6"/><stop offset="1" style="stop-color:#bc956e"/></linearGradient><path class="st31" d="M203.1 467.2V434h14.7c.9.0 1.6.3 1.6 1.3v5c0 1 .6 1.7 1.4 1.7H243c.8.0 1.5.5 1.9 1.2 1.8 3.4 6.8 13.1 7.2 13.9.5 1 .2 1.5-.9 1.5h-29.4c-1.3.0-2.2 1-2.2 2.1v5.4c0 .7-.4 1.2-1.4 1.2L203.1 467.2v0 0z"/></g><g transform="matrix(1.32585 0 0 -1.30221 -194.163 651.935)"><linearGradient id="SVGID_30_" gradientUnits="userSpaceOnUse" x1="-1134.5599" y1="316.9378" x2="-1134.3978" y2="316.9378" gradientTransform="matrix(109.1833 109.1833 105.3251 -105.3248 90643.9844 157698.5781)"><stop offset="0" style="stop-color:#7f5f39"/><stop offset="1" style="stop-color:#e9cf98"/></linearGradient><path class="st32" d="M151.6 440.5l2.8 1.7c0 0-.3.1.2 1.2.5 1 5.3 10.8 5.3 10.8l-1.1.2L151.6 440.5v0z"/></g><g transform="matrix(1.32585 0 0 -1.30221 -194.163 651.935)"><linearGradient id="SVGID_31_" gradientUnits="userSpaceOnUse" x1="-1135.002" y1="317.0297" x2="-1134.8401" y2="317.0297" gradientTransform="matrix(147.0312 147.0309 141.8351 -141.8351 122063.4922 212289.0625)"><stop offset="0" style="stop-color:#7f5f39"/><stop offset="1" style="stop-color:#e4cb90"/></linearGradient><path class="st33" d="M151.4 441.8c-.7-1.3-.6-1.8-.6-1.8l1.7 1.1c0 0 7.6 14.7 8.4 16.4.8 1.7-.4 2.4-.4 2.4S152.1 443.1 151.4 441.8"/></g><path class="st3" d="M8.1 79.5c-.1.1-1.5.3-1.8.0-.3-.3-.7-.5-.4-.8.4-.3 4.8-2.9 4.8-2.9s-.5.3 4 .3h36.5c1 0 1.9.6 2 1.1.1.4-.1.6-.4.5-.3-.1-1.1-.3-1.3-.6-.2-.3.2-.5-2.4-.5-2.6.0-22.8.3-27.4.7C17.2 77.8 11.2 77.5 8.1 79.5M142.8 51.5c.1-.1 1.5-.3 1.8.0.3.3.7.5.4.8-.4.3-4.8 2.9-4.8 2.9s.5-.3-4-.3H99.7c-1 0-1.9-.6-2-1.1-.1-.4.1-.6.4-.5.3.1 1.1.3 1.3.6.2.3-.2.5 2.4.5s22.8-.3 27.4-.7C133.7 53.3 139.7 53.5 142.8 51.5M19.8 54.9c0-.4.2-1.2.0-1.4-.2-.2.4-.5.8-.3.4.2 1.2.4 1.3.6.1.2.0.6-.6.8-.5.2-1 .6-1.8 2.3-.8 1.7-5.4 10.4-5.4 10.4s.7-1.4.4-1.4c-.3.0-.9 1.1-.9 1.1L19.8 54.9v0zM51.4 54.1c-.4.0-.5-.4-.2-.4.3-.1.8-.1 1.2-1.6.4-1.5.1-6.1.1-6.9-.1-.8-.4-1.8.1-2.2.6-.4.9.5 2.4.5 1.4.0 4.7-.1 4.7-.1s-4.6.3-5.4.4c-.8.1-1.4.7-1.3 1.8.1 1.1-.2 6.7-.4 7.3C52.3 53.5 52 54 51.4 54.1M82.5 43.4c-.6.0 11.7.1 12.5.1.8.0 1.7.2 1.8 1 .2.8.0 3.3.0 3.3s.4-3.2.9-3.8c.6-.6.4-1.5-.3-1.3C96.8 42.8 91.1 43 82.5 43.4M99 76.8c-.4-.1-.8-.1-.9.2-.1.3.5.5-.1.9-.6.3-1.1.5-1.1.3.0-.3.3-1.7 1.5-1.7 1.2.0 29.9-.1 30.4-.1.4.0 1 .1 1.2.5.2.4.5 1.5.7 1.9.2.3-.1.3-.6-.3-.5-.7-1.8-.9-2.8-.9C126.2 77.6 99 76.8 99 76.8M130.7 77.8c0 0-.3-.6-.4-1-.2-.4-.7-.5-.7-.5s.6-.7 1.3-2.1c.8-1.4 4.4-8.2 4.8-9.1.0.0-.8 2.5.8.4.0.0-5.2 9.7-5.5 10.3C130.7 76.5 130.7 77.8 130.7 77.8M53.6 85.4c0 0 .1.8-.4 1.1-.5.3-.7.9-.3 1.2.4.3.7.1.9-.3.3-.4 1.2-.7 1.8-.6C55.7 86.8 53.6 87.1 53.6 85.4M82.2 86.8c0 0 11.2.6 11.9.6l1.1.1c0 0-1.2-.2-.8-.6L82.2 86.8v0zM95.4 86.7c0 0-.3.5.2.8.5.3 1.1.5 1.4.1.3-.4-.3-1.4-.2-2.1C96.8 85.4 97.1 86.6 95.4 86.7"/><path d="M109.1 87.6h-.6v1h.6c.3.0.4-.1.4-.3V88C109.5 87.7 109.4 87.6 109.1 87.6M109.1 89h-.6v.8h-.4v-2.6h1c.6.0.8.2.8.7v.4c0 .3-.1.5-.4.6l.7.9h-.4L109.1 89v0zM109 90.6c1.3.0 2-.9 2-2 0-1.1-.7-2-2-2-1.3.0-2 .9-2 2C106.9 89.7 107.6 90.6 109 90.6M109 86.3c1.5.0 2.4 1 2.4 2.3.0 1.3-.9 2.3-2.4 2.3-1.5.0-2.4-1.1-2.4-2.3C106.6 87.3 107.5 86.3 109 86.3M33.1 103.1H29V98h-4v12.8h4v-5.5h4.1v5.5h4V98h-4V103.1v0zm73.1 5.5V98h-4v12.8h9.7v-2.1H106.2zM128.8 98v2.1h3.6v10.7h4v-10.7h3.6V98H128.8v0zM10.7 100.6c0-1.6 1-2.7 2.5-2.7h8v2.1h-5.7c-.4.0-.7.3-.7.8v6.9c0 .5.3.8.7.8h5.7v2.1h-8c-1.5.0-2.5-1.1-2.5-2.7V100.6zm69.1 5 3.4 5.2H79l-3-5.3v-1.7h1.6c.4.0.7-.3.7-.8v-2.1c0-.5-.3-.8-.7-.8h-2.8v10.7h-4V98h9c1.5.0 2.5 1.1 2.5 2.7v2.6c0 1.4-.9 2.4-2.2 2.4L79.8 105.6v0zM93.6 108.6c.4.0.7-.3.7-.8v-6.9c0-.5-.3-.8-.7-.8h-2.8c-.4.0-.7.3-.7.8v6.9c0 .5.3.8.7.8H93.6zm-7.5-8c0-1.6 1-2.7 2.5-2.7h7.3c1.5.0 2.5 1.1 2.5 2.7v7.5c0 1.6-1 2.7-2.5 2.7h-7.3c-1.5.0-2.5-1.1-2.5-2.7v-7.5.0zM54.8 98H59l2.5 9.9c0 .1.1.1.2.1.1.0.2-.1.2-.1l2.5-9.9h3.3l-3.1 11c-.4 1.3-1 1.8-2.5 1.8h-2c-.9.0-1.7-.5-2.1-1.8L54.8 98v0zM45.1 108.2c0 .2.1.4.4.4H52v2.1h-8.4c-1.5.0-2.5-1.1-2.5-2.7v-7.5c0-1.6 1-2.7 2.5-2.7H52v2.1h-6.5c-.2.0-.4.2-.4.4v2.6h6.2v2.1h-6.2V108.2v0zm73.6.0c0 .2.1.4.4.4h6.5v2.1h-8.4c-1.5.0-2.5-1.1-2.5-2.7v-7.5c0-1.6 1-2.7 2.5-2.7h8.4v2.1H119c-.2.0-.4.2-.4.4v2.6h6.2v2.1h-6.2L118.7 108.2v0z"/></svg>