<?xml version="1.0" encoding="UTF-8" standalone="no"?>
<svg
   xmlns:dc="http://purl.org/dc/elements/1.1/"
   xmlns:cc="http://creativecommons.org/ns#"
   xmlns:rdf="http://www.w3.org/1999/02/22-rdf-syntax-ns#"
   xmlns:svg="http://www.w3.org/2000/svg"
   xmlns="http://www.w3.org/2000/svg"
   viewBox="0 0 595.27557 841.88977"
   id="svg2"
   height="841.88977"
   width="595.27557"
   version="1.1">
  <metadata
     id="metadata22">
    <rdf:RDF>
      <cc:Work
         rdf:about="">
        <dc:format>image/svg+xml</dc:format>
        <dc:type
           rdf:resource="http://purl.org/dc/dcmitype/StillImage" />
      </cc:Work>
    </rdf:RDF>
  </metadata>
  <defs
     id="defs20" />
  <g
     id="g4">
    <path
       id="path6"
       style="fill:#ffec00;fill-rule:evenodd"
       d="m 741.1119,850.5266 0,-9.875 17.1711,0 0,0.008 c 1.9321,-0.6029 3.9532,-0.8875 6.0205,-0.8875 3.5637,0 7.0883,0.733 10.0979,2.6988 0.468,0.3034 0.9139,0.6271 1.3377,0.9703 3.192,-2.3581 6.9871,-3.6691 11.3371,-3.6691 4.8396,0 9.4493,1.3637 12.8849,4.9031 3.5711,3.6788 4.6848,8.7429 4.6848,13.7191 l 0,32.1199 -17.8273,0 0,-29.9404 c 0,-0.8506 -0.009,-2.7099 -0.2574,-3.6017 -0.01,-0.007 -0.0202,-0.0147 -0.0304,-0.0215 -0.2605,-0.1497 -0.6131,-0.1808 -0.9034,-0.1808 -1.099,0 -1.9425,0.2488 -2.726,1.0377 -0.8992,0.9054 -1.0406,3.4897 -1.0406,4.6486 l 0,28.0581 -17.8645,0 0,-30.6958 c 0,-0.5987 -0.0706,-2.2637 -0.3909,-2.9905 -0.2435,-0.0479 -0.5882,-0.0581 -0.7631,-0.0581 -0.7705,0 -1.4244,0.1856 -2.0778,0.5952 l -0.0275,0.017 c -0.5437,0.3368 -0.8453,0.8065 -1.0712,1.4123 -0.6149,1.6287 -0.6891,4.3452 -0.6891,6.0641 l 0,25.6558 -17.8648,0 0,-9.7478 c -1.9639,3.1791 -4.6508,5.713 -7.971,7.5544 -3.7336,2.0613 -7.7899,3.0603 -12.0549,3.0603 -6.6034,0 -12.557,-2.1337 -17.1596,-6.9245 -0.748,-0.7761 -1.4207,-1.5919 -2.0233,-2.4423 -1.0182,1.5446 -2.2508,2.965 -3.7171,4.2307 -4.0717,3.5302 -9.0097,5.1361 -14.3612,5.1361 -6.5202,0 -12.3922,-2.1617 -16.8551,-6.9704 -1.9423,-2.0849 -3.3553,-4.4499 -4.3472,-6.982 l 0,13.0855 -18.7806,0 0,-18.7809 17.251,0 c -0.3203,-1.9718 -0.4597,-3.9889 -0.4597,-6.0081 0,-4.5263 0.718,-9.0501 2.5548,-13.2205 1.8477,-4.1567 4.7546,-7.4806 8.7364,-9.6808 3.6896,-2.0484 7.7176,-3.0518 11.9376,-3.0518 5.0116,0 9.8384,1.2535 13.7973,4.4166 1.7609,1.4006 3.1859,3.0362 4.309,4.8535 0.932,-1.2965 2.0273,-2.5075 3.306,-3.611 4.4881,-3.8659 9.9045,-5.6591 15.8117,-5.6591 6.5803,0 12.4761,2.1829 17.06,6.9361 1.1568,1.1905 2.1396,2.469 2.9659,3.8182 z m -43.7188,13.1352 -6.544,1.0077 6.5004,0.8533 c 8e-4,-0.6219 0.015,-1.2425 0.0436,-1.861 z m -8.8494,1.2059 -1.1617,-4.9567 c -0.2143,-0.9133 -0.6208,-2.1875 -1.3561,-2.8162 -0.5635,-0.4771 -1.171,-0.6094 -1.9037,-0.6094 -1.5554,0 -2.7213,0.4127 -3.7528,1.5995 -1.4573,1.668 -1.6858,5.3816 -1.6858,7.4549 0,2.0667 0.2152,5.9465 1.6416,7.6297 0.9422,1.1129 1.9854,1.5112 3.4378,1.5112 1.0035,0 1.8428,-0.1982 2.5906,-0.8813 0.9184,-0.8394 1.3161,-2.6978 1.4788,-3.8583 l 0.7113,-5.0734 z m -63.2027,-38.878 17.8645,0 0,64.5247 -46.9565,0 -0.8011,-1.6171 c -0.6332,0.3101 -1.2784,0.5933 -1.936,0.8453 l -0.0349,0.0133 c -2.9526,1.1095 -6.0511,1.6254 -9.2013,1.6254 -4.9441,0 -9.8265,-1.1713 -13.5768,-4.5749 -0.5014,-0.4575 -0.9669,-0.9357 -1.3966,-1.4332 l 0,5.1412 -17.8274,0 0,-29.9404 c 0,-0.8506 -0.009,-2.7099 -0.2574,-3.6017 -0.01,-0.007 -0.0201,-0.0147 -0.0303,-0.0215 -0.2605,-0.1497 -0.6131,-0.1808 -0.9034,-0.1808 -1.099,0 -1.9426,0.2488 -2.7261,1.0377 -0.8991,0.9054 -1.0406,3.4897 -1.0406,4.6486 l 0,28.0581 -17.8645,0 0,-30.6958 c 0,-0.5987 -0.0706,-2.2637 -0.3909,-2.9905 -0.2435,-0.0479 -0.5882,-0.0581 -0.7631,-0.0581 -0.7704,0 -1.4244,0.1856 -2.0777,0.5952 l -0.0275,0.017 c -0.5437,0.3368 -0.8453,0.8065 -1.0713,1.4123 -0.6148,1.6287 -0.6891,4.3452 -0.6891,6.0641 l 0,25.6558 -17.4707,0 c -1.6813,0.309 -3.3968,0.5077 -5.1015,0.5077 -2.8701,0 -5.8255,-0.4292 -8.3396,-1.876 -2.2878,-1.307 -4.0785,-3.1938 -5.1261,-5.6063 -0.6506,-1.4823 -0.9718,-3.3869 -1.1297,-5.2954 -0.1683,0.3773 -0.348,0.7489 -0.5394,1.1143 -2.0063,3.8455 -4.9748,6.8567 -8.7715,8.9623 -3.7335,2.0613 -7.7899,3.0603 -12.0549,3.0603 -6.6033,0 -12.5569,-2.1337 -17.1595,-6.9245 -1.0605,-1.1001 -1.9693,-2.2808 -2.7426,-3.5255 l 0,9.5831 -17.8769,0 0,-30.0889 c 0,-0.6256 -0.1004,-2.7074 -0.5585,-3.2159 -0.4056,-0.4269 -1.3663,-0.4768 -1.8955,-0.4768 -0.9453,0 -1.7787,0.254 -2.5911,0.7308 -0.5885,0.3455 -1.0148,0.7483 -1.2787,1.3807 l -0.0193,0.0454 c -0.5511,1.2892 -0.633,3.5019 -0.633,4.8793 l 0,26.7454 -17.0728,0 c -1.5503,2.0852 -3.3945,3.9691 -5.3226,5.6591 -3.6658,3.2264 -7.8996,5.6268 -12.4693,7.3233 -5.3626,1.9908 -11.2278,2.6578 -16.9197,2.6578 -5.586,0 -11.151,-0.6928 -16.5147,-2.3151 -5.0184,-1.5358 -9.6752,-3.9166 -13.6454,-7.3641 -3.7063,-3.2029 -6.6702,-7.0554 -8.6882,-11.5384 -0.4711,-1.0602 -0.8935,-2.1337 -1.2676,-3.2185 -0.2027,0.36 -0.4187,0.7152 -0.6478,1.0653 l -0.0229,0.0348 c -1.959,2.9484 -4.7086,5.0882 -7.935,6.5092 -3.2891,1.4483 -6.8276,2.0535 -10.4086,2.0535 -2.8817,0 -5.8266,-0.2982 -8.5955,-1.1166 l 0.1673,0.2497 -21.7653,0 -8.5805,-13.2797 0,13.2797 -17.8769,0 0,-29.9843 -3.42,-2.0574 c -0.5559,-0.3345 -1.1977,-0.6128 -1.8576,-0.6128 -0.1925,0 -0.2815,0.0306 -0.4306,0.14 -0.233,0.1845 -0.356,0.4949 -0.4416,0.7651 -0.6009,1.9043 -0.8266,3.9166 -0.8266,5.9079 l 0,25.8415 -17.8645,0 0,-9.6284 c -1.957,3.1232 -4.6179,5.6168 -7.8967,7.435 -3.7336,2.0613 -7.7899,3.0603 -12.0549,3.0603 -6.6034,0 -12.557,-2.1337 -17.1596,-6.9245 -3.3865,-3.5124 -5.2251,-7.8472 -6.0434,-12.462 l -5.7924,18.5196 -15.3002,0 -3.3616,-12.6513 -3.3239,12.6513 -15.3891,0 -3.6008,-11.7669 1.7059,10.461 -5.3056,1.1112 c -1.9942,0.4178 -4.0502,0.7024 -6.0905,0.7024 -2.8701,0 -5.8255,-0.4292 -8.3396,-1.876 -2.2878,-1.307 -4.0785,-3.1938 -5.1261,-5.6063 -1.2119,-2.761 -1.2807,-6.986 -1.2807,-9.9757 l 0,-16.4968 -2.4438,0 0,33.4471 -32.1213,0 -0.8011,-1.6171 c -0.6333,0.3101 -1.2784,0.5933 -1.9361,0.8453 l -0.0348,0.0133 c -2.9526,1.1095 -6.0512,1.6254 -9.2013,1.6254 -4.9442,0 -9.8266,-1.1713 -13.5768,-4.5749 -3.4974,-3.1918 -5.2557,-7.3899 -5.2557,-12.1155 0,-2.7924 0.6383,-5.47 1.9927,-7.9138 0.8167,-1.4885 1.8321,-2.8304 3.0388,-3.9926 l -5.0545,-0.6968 0.5528,-2.5871 -1.7085,-1.0279 c -0.5559,-0.3345 -1.1976,-0.6128 -1.8575,-0.6128 -0.1925,0 -0.2815,0.0306 -0.4306,0.14 -0.233,0.1845 -0.356,0.4949 -0.4416,0.7651 -0.601,1.9043 -0.8266,3.9166 -0.8266,5.9079 l 0,25.8415 -28.4576,0 -8.5805,-13.2797 0,13.2797 -33.3805,0 c -1.8535,0.5774 -3.8489,0.8669 -5.959,0.8669 -4.1845,0 -8.0895,-1.1688 -11.5767,-3.4657 -2.9412,-1.9233 -5.2543,-4.4603 -6.9879,-7.4528 l 0,10.0516 -17.877,0 0,-29.1107 c 0,-0.9671 -0.0292,-3.0245 -0.3753,-3.9279 -0.0621,-0.1605 -0.2081,-0.2526 -0.3577,-0.3433 -0.4765,-0.2905 -1.0619,-0.3625 -1.6096,-0.3625 -1.3623,0 -2.4468,0.3651 -3.4772,1.2506 -0.9128,0.8249 -1.082,4.7041 -1.082,5.7855 l 0,26.7083 -30.5983,0 -0.8011,-1.6171 c -0.6332,0.3101 -1.2784,0.5933 -1.936,0.8453 l -0.0349,0.0133 c -2.9526,1.1095 -6.0511,1.6254 -9.2013,1.6254 -4.9441,0 -9.8265,-1.1713 -13.5768,-4.5749 -0.5992,-0.5468 -1.1474,-1.1233 -1.6444,-1.7268 l 0,5.4348 -17.8769,0 0,-30.0889 c 0,-0.6256 -0.1004,-2.7074 -0.5585,-3.2159 -0.4056,-0.4269 -1.3663,-0.4768 -1.8955,-0.4768 -0.9453,0 -1.7787,0.254 -2.5911,0.7308 -0.5885,0.3455 -1.0148,0.7483 -1.2787,1.3807 l -0.0193,0.0454 c -0.5511,1.2892 -0.633,3.5019 -0.633,4.8793 l 0,26.7454 -17.8648,0 0,-64.5247 17.8648,0 0,14.572 c 1.8533,-0.5235 3.8152,-0.7894 5.8717,-0.7894 3.5254,0 6.9749,0.6919 10.0882,2.3584 3.1142,1.6486 5.5542,4.0986 7.0194,7.3103 0.3354,0.7341 0.6137,1.504 0.8442,2.2963 0.6659,-1.6271 1.5242,-3.1691 2.6226,-4.555 2.1433,-2.7235 5.0706,-4.5504 8.3044,-5.7132 3.4115,-1.2268 7.0481,-1.6968 10.6611,-1.6968 3.3364,0 6.8516,0.3481 9.9958,1.5228 l 0.0275,0.0102 c 2.6133,0.9918 5.0845,2.4244 6.8919,4.5972 l 0.0238,0.0286 c 1.0584,1.2898 1.8527,2.7278 2.4304,4.2613 l 0,-9.5408 17.2083,0 0,0.0791 c 2.0509,-0.6392 4.2568,-0.9584 6.5903,-0.9584 2.9749,0 5.8895,0.5377 8.6394,1.7107 2.6668,1.148 5.0428,2.8156 6.7411,5.1996 1.1676,1.6171 2.0015,3.4101 2.565,5.3033 1.664,-3.5869 4.1287,-6.6124 7.4801,-8.782 3.5286,-2.3009 7.4869,-3.4316 11.6992,-3.4316 1.6891,0 3.3508,0.1961 4.9555,0.6126 l 0,-14.3952 34.6688,0 0,22.1771 7.414,-7.5152 26.9371,0 c 1.4857,-0.5805 3.0665,-0.8793 4.7078,-0.8793 3.4838,0 6.7331,1.1344 9.6786,2.9438 l 1.8335,1.1259 c 1.4439,-0.9904 3.0364,-1.7708 4.7109,-2.3729 3.4115,-1.2268 7.048,-1.6968 10.6611,-1.6968 3.3363,0 6.8516,0.3481 9.9958,1.5228 l 0.0275,0.0102 c 1.8439,0.6996 3.6167,1.6188 5.1358,2.8627 l 0,-3.5164 5.7841,0 c 0.0731,-2.0778 0.3226,-4.2636 1.0134,-6.1501 l 0.0104,-0.0277 c 1.0647,-2.8608 2.9532,-5.1804 5.4956,-6.8689 2.8913,-1.9197 6.3844,-2.5192 9.7985,-2.5192 2.416,0 4.8376,0.2931 7.2045,0.7668 l 5.4091,1.082 -0.2707,1.5763 9.4368,-5.6801 0,17.8209 13.6698,0 3.9677,14.3963 3.9112,-14.3963 15.4369,0 3.6709,14.2106 4.2128,-14.2106 18.298,0 -1.1863,3.793 c 4.2352,-3.1853 9.2074,-4.6723 14.5868,-4.6723 6.5803,0 12.4761,2.1829 17.06,6.9361 1.1222,1.1551 2.0809,2.393 2.8916,3.6978 l 0,-9.7546 15.1776,0 c 1.4856,-0.5805 3.0665,-0.8793 4.7077,-0.8793 1.711,0 3.3656,0.2738 4.9556,0.7665 l 0,-14.5491 17.8769,0 0,22.1771 7.4141,-7.5152 23.3742,0 c 2.2107,-0.6035 4.4923,-0.8793 6.7847,-0.8793 3.3905,0 6.787,0.4756 9.9686,1.6795 2.9942,1.133 5.7192,2.8735 7.6402,5.4927 1.3181,1.8125 2.1909,3.8769 2.7558,6.029 0.4938,-1.4638 1.0633,-2.9095 1.7085,-4.335 3.2272,-7.1867 8.024,-13.235 14.6812,-17.5059 6.8669,-4.3954 14.7396,-6.1212 22.8214,-6.1212 6.5466,0 12.9059,1.3062 18.7591,4.309 5.8417,3.0192 10.3967,7.5087 13.6324,13.2369 0.9088,1.6118 1.6691,3.2709 2.2836,4.9711 l 0,-21.5387 17.8648,0 0,14.572 c 1.8533,-0.5235 3.8152,-0.7894 5.8717,-0.7894 3.5254,0 6.9749,0.6919 10.0882,2.3584 3.1142,1.6486 5.5542,4.0986 7.0194,7.3103 0.3646,0.7985 0.6619,1.6387 0.9037,2.505 1.2141,-2.4149 2.8681,-4.6228 5.0604,-6.5146 4.4881,-3.8659 9.9046,-5.6591 15.8117,-5.6591 6.2793,0 11.935,1.9876 16.4225,6.2997 l 0,-5.4204 4.7923,0 0,-7.0827 17.8398,-10.7382 0,17.8209 18.7852,0 0,0.008 c 1.9321,-0.6029 3.9532,-0.8875 6.0205,-0.8875 3.5637,0 7.0883,0.733 10.0979,2.6988 0.468,0.3034 0.9139,0.6271 1.3376,0.9703 3.1921,-2.3581 6.9872,-3.6691 11.3372,-3.6691 4.8396,0 9.4493,1.3637 12.8849,4.9031 1.7929,1.847 2.9664,4.043 3.6904,6.402 0.6211,-1.3844 1.3907,-2.698 2.3397,-3.8951 2.1433,-2.7235 5.0706,-4.5504 8.3044,-5.7132 3.4115,-1.2268 7.0481,-1.6968 10.6611,-1.6968 3.3364,0 6.8516,0.3481 9.9958,1.5228 l 0.0275,0.0102 c 2.6133,0.9918 5.0845,2.4244 6.8919,4.5972 l 0.0238,0.0286 c 1.0738,1.3085 1.8757,2.7695 2.4554,4.328 l 0,-24.2694 16.3335,0 z m -56.0387,36.6332 0,1.4179 c 0.3682,-0.4391 0.7591,-0.8583 1.1724,-1.2563 l -1.1724,-0.1616 z m -63.534,-5.5556 -1.6141,0 0,16.3341 c 0.0255,-0.004 0.051,-0.007 0.0765,-0.0111 l 1.5376,-0.2239 0,-16.0991 z M 402.4797,870.258 c -1.0678,2.9073 -2.5605,5.6509 -4.4529,8.2245 l 4.4529,0 0,-8.2245 z m -75.8888,-8.7091 -1.2717,0.1752 c 0.3918,0.3257 0.7671,0.6712 1.1251,1.0366 0.0437,-0.4051 0.0924,-0.809 0.1466,-1.2118 z m -38.1082,-6.9358 -6.9791,6.7734 4.8809,7.2915 -0.007,-0.04 6.6187,-1.0417 c -0.8992,-0.8606 -1.6926,-1.8357 -2.3596,-2.9268 -1.5106,-2.4723 -2.2683,-5.2248 -2.2683,-8.1201 0,-0.6528 0.038,-1.2988 0.1145,-1.9363 z m -157.064,2.5775 0,16.2108 c 0.0255,-0.004 0.051,-0.007 0.0765,-0.0111 l 4.6727,-0.6809 -4.7492,-15.5188 z m -38.4933,-0.1233 c 0.0303,1.0032 0.0311,1.9979 0.0311,2.9248 l 0,8.7052 c 0,2.4086 0.0125,4.8265 0.0998,7.2337 0.0369,1.0094 0.0561,2.2952 0.233,3.2876 l 0.006,0.0335 0,-22.1848 -0.3699,0 z m -67.3169,-3.7616 -8.3259,8.0808 8.3259,12.4378 0,-20.5186 z m -159.6493,9.2832 0,1.7544 c 0.4391,-0.5497 0.9128,-1.0701 1.4202,-1.5588 l -1.4202,-0.1956 z m 16.1283,-5.5261 c 0.1381,-0.017 0.2758,-0.0335 0.413,-0.0499 1.1362,-0.1361 2.3973,-0.2883 3.6876,-0.476 -0.2316,-0.0107 -0.4405,-0.0144 -0.6114,-0.0144 -0.7203,0 -2.8358,0.0822 -3.4501,0.5063 -0.013,0.0104 -0.026,0.0218 -0.0391,0.034 z m 185.8601,0 c 0.138,-0.017 0.2758,-0.0335 0.413,-0.0499 1.1361,-0.1361 2.3973,-0.2883 3.6876,-0.476 -0.2316,-0.0107 -0.4405,-0.0144 -0.6114,-0.0144 -0.7203,0 -2.8358,0.0822 -3.4501,0.5063 -0.013,0.0104 -0.0261,0.0218 -0.0391,0.034 z m 242.6638,17.5558 c -0.8804,-0.2387 -1.7518,-0.4456 -2.3618,-0.5984 -0.8527,-0.2166 -1.7521,-0.4445 -2.6722,-0.688 0.134,0.2245 0.2987,0.4283 0.502,0.5978 0.769,0.6421 2.3751,0.7507 3.3134,0.7507 0.252,0 0.7191,-0.0153 1.2186,-0.0621 z m 57.5141,13.2196 c -0.2228,0.135 -0.4484,0.2665 -0.6763,0.3943 -0.7266,0.4119 -1.4715,0.777 -2.2329,1.0905 1.0726,0.0802 2.1512,0.1185 3.2324,0.1185 0.6964,0 1.4028,-0.0142 2.1146,-0.0456 -0.0601,-0.0284 -0.1202,-0.0573 -0.18,-0.0868 -0.8218,-0.4059 -1.578,-0.8974 -2.2578,-1.4709 z m 19.1035,-33.0984 -3.1294,14.58 c 0.7004,-0.8867 1.3022,-1.8584 1.8195,-2.9052 1.1829,-2.384 1.8247,-4.8878 1.8247,-7.5496 0,-1.4281 -0.1721,-2.8003 -0.5148,-4.1252 z m 197.9538,2.323 c 0.1381,-0.017 0.2758,-0.0335 0.413,-0.0499 1.1362,-0.1361 2.3973,-0.2883 3.6876,-0.476 -0.2316,-0.0107 -0.4405,-0.0144 -0.6114,-0.0144 -0.7203,0 -2.8358,0.0822 -3.45,0.5063 -0.0131,0.0104 -0.0261,0.0218 -0.0392,0.034 z m -704.537,17.454 c 0,0.0114 3e-4,0.0241 9e-4,0.0366 0.0153,0.0164 0.0326,0.0326 0.0484,0.0473 0.3714,0.267 1.626,0.3277 2.0458,0.3277 1.3723,0 2.7233,-0.2378 3.9291,-0.917 0.4414,-0.2486 0.832,-0.5312 1.167,-0.866 -0.9751,0.1656 -1.9374,0.3118 -2.8689,0.4459 -1.0763,0.1539 -3.2338,0.4467 -4.2352,0.8856 -0.0281,0.0124 -0.059,0.0257 -0.0871,0.0399 z m 82.2495,-8.9028 c 0,2.1955 0.2574,5.624 1.7652,7.392 0.8339,0.9776 1.7362,1.6747 3.054,1.6747 1.2844,0 2.1373,-0.5585 2.9631,-1.5228 1.3997,-1.6348 1.6336,-4.9725 1.6336,-6.999 0,-2.2454 -0.2395,-6.1623 -1.7589,-8.0056 -0.8688,-1.0599 -1.753,-1.6308 -3.1349,-1.6308 -1.2736,0 -2.0863,0.5077 -2.8893,1.4845 -1.4111,1.7167 -1.6328,5.5154 -1.6328,7.607 z m 103.6106,8.9028 c 0,0.0114 3e-4,0.0241 8e-4,0.0366 0.0153,0.0164 0.0326,0.0326 0.0485,0.0473 0.3714,0.267 1.626,0.3277 2.0458,0.3277 1.3722,0 2.7232,-0.2378 3.9291,-0.917 0.4413,-0.2486 0.8319,-0.5312 1.167,-0.866 -0.9751,0.1656 -1.9375,0.3118 -2.8689,0.4459 -1.0764,0.1539 -3.2338,0.4467 -4.2353,0.8856 -0.028,0.0124 -0.0589,0.0257 -0.087,0.0399 z m 137.6229,-1.5914 c 1.074,1.2283 2.23,1.7553 3.8577,1.7553 1.6217,0 2.7618,-0.5426 3.8228,-1.7561 1.5616,-1.796 1.8263,-5.3133 1.8263,-7.5583 0,-2.2039 -0.2829,-5.3382 -1.8229,-7.0809 -1.0707,-1.211 -2.2071,-1.7629 -3.8262,-1.7629 -1.6285,0 -2.7964,0.5289 -3.8742,1.7492 -1.544,1.7479 -1.8119,5.1052 -1.8119,7.3052 0,2.2204 0.269,5.5741 1.8284,7.3485 z m 153.9156,-3.8194 c 0,1.2467 0.1536,3.0445 1.0015,4.0389 0.2412,0.2811 0.6726,0.7681 1.0936,0.7681 0.5031,0 1.1729,-0.3084 1.6015,-0.5385 1.0148,-0.5451 1.9364,-1.4389 2.6822,-2.3066 1.044,-1.2132 1.781,-2.7805 2.3148,-4.2905 0.6326,-1.764 0.9822,-3.5969 0.9822,-5.4729 0,-1.2019 -0.146,-2.9253 -0.9913,-3.8667 -0.5199,-0.5749 -0.9836,-0.841 -1.76,-0.841 -0.5588,0 -1.0361,0.1255 -1.52,0.407 l -0.0337,0.0196 c -0.8374,0.4796 -1.6637,1.4669 -2.2187,2.2195 -1.0222,1.3986 -1.73,3.047 -2.2419,4.6797 -0.5077,1.6464 -0.9102,3.4526 -0.9102,5.1834 z m 103.1975,3.8194 c 1.0741,1.2283 2.23,1.7553 3.8577,1.7553 1.6217,0 2.7618,-0.5426 3.8228,-1.7561 1.5616,-1.796 1.8264,-5.3133 1.8264,-7.5583 0,-2.2039 -0.2829,-5.3382 -1.823,-7.0809 -1.0707,-1.211 -2.2071,-1.7629 -3.8262,-1.7629 -1.6285,0 -2.7964,0.5289 -3.8741,1.7492 -1.5441,1.7479 -1.8119,5.1052 -1.8119,7.3052 0,2.2204 0.269,5.5741 1.8283,7.3485 z m 122.4992,1.5914 c 0,0.0114 3e-4,0.0241 9e-4,0.0366 0.0153,0.0164 0.0326,0.0326 0.0485,0.0473 0.3713,0.267 1.6259,0.3277 2.0457,0.3277 1.3723,0 2.7233,-0.2378 3.9291,-0.917 0.4414,-0.2486 0.832,-0.5312 1.167,-0.866 -0.9751,0.1656 -1.9374,0.3118 -2.8689,0.4459 -1.0763,0.1539 -3.2338,0.4467 -4.2352,0.8856 -0.0281,0.0124 -0.059,0.0257 -0.0871,0.0399 z m 133.4872,-1.5914 c 1.074,1.2283 2.23,1.7553 3.8577,1.7553 1.6217,0 2.7617,-0.5426 3.8228,-1.7561 1.5616,-1.796 1.8263,-5.3133 1.8263,-7.5583 0,-2.2039 -0.2829,-5.3382 -1.8229,-7.0809 -1.0707,-1.211 -2.2071,-1.7629 -3.8262,-1.7629 -1.6286,0 -2.7964,0.5289 -3.8742,1.7492 -1.544,1.7479 -1.8119,5.1052 -1.8119,7.3052 0,2.2204 0.269,5.5741 1.8284,7.3485 z" />
    <path
       id="path8"
       style="fill:#1b1918;fill-rule:evenodd"
       d="m -171.0893,884.8451 0,-53.1861 6.5262,0 0,19.0828 c 3.0461,-3.5294 6.8973,-5.3002 11.541,-5.3002 2.8482,0 5.3249,0.5697 7.4299,1.6965 2.1053,1.1146 3.6161,2.6748 4.5201,4.6562 0.904,1.9811 1.3621,4.8665 1.3621,8.6312 l 0,24.4196 -6.5384,0 0,-24.4196 c 0,-3.257 -0.7059,-5.6344 -2.1175,-7.1206 -1.4117,-1.4859 -3.4178,-2.2414 -6.0058,-2.2414 -1.9318,0 -3.7522,0.508 -5.4612,1.5109 -1.7087,1.0032 -2.9222,2.3652 -3.6405,4.0864 -0.7308,1.709 -1.0897,4.0864 -1.0897,7.1082 l 0,21.0761 -6.5262,0 z m 66.4611,-4.7551 c -2.4273,2.0557 -4.7554,3.5045 -6.9843,4.3589 -2.2413,0.8421 -4.6437,1.2631 -7.2071,1.2631 -4.2349,0 -7.4795,-1.0279 -9.7579,-3.0957 -2.2661,-2.0682 -3.4053,-4.718 -3.4053,-7.9254 0,-1.8947 0.4209,-3.6159 1.2878,-5.1761 0.8543,-1.5605 1.9814,-2.8111 3.3681,-3.7522 1.3995,-0.9411 2.9597,-1.6594 4.7058,-2.1424 1.2753,-0.3342 3.2071,-0.6687 5.7954,-0.9783 5.2753,-0.6315 9.1636,-1.3745 11.6524,-2.2538 0.025,-0.8915 0.0374,-1.461 0.0374,-1.6963 0,-2.6625 -0.6193,-4.5447 -1.8575,-5.6222 -1.6594,-1.4859 -4.1485,-2.2164 -7.4299,-2.2164 -3.0711,0 -5.3374,0.5323 -6.8108,1.6098 -1.4613,1.0772 -2.5387,2.9843 -3.2445,5.7209 l -6.3774,-0.879 c 0.5819,-2.7244 1.5355,-4.9411 2.8604,-6.6127 1.3252,-1.6841 3.257,-2.9843 5.7708,-3.8883 2.5137,-0.904 5.4238,-1.3623 8.7426,-1.3623 3.2939,0 5.9562,0.3963 8.0118,1.1642 2.0557,0.7801 3.5663,1.7458 4.5448,2.9222 0.9658,1.1767 1.6345,2.6501 2.0308,4.4456 0.2106,1.1146 0.322,3.1206 0.322,6.0185 l 0,8.7052 c 0,6.0803 0.136,9.919 0.4209,11.5166 0.2724,1.6098 0.8297,3.1575 1.647,4.6312 l -6.823,0 c -0.6687,-1.3498 -1.1146,-2.9347 -1.3003,-4.7551 z m -0.5451,-14.5874 c -2.3774,0.9783 -5.9315,1.7955 -10.6619,2.4767 -2.687,0.3838 -4.5942,0.8172 -5.6963,1.3002 -1.1145,0.4828 -1.9814,1.1886 -2.5755,2.1297 -0.6069,0.9289 -0.9165,1.9568 -0.9165,3.096 0,1.7459 0.6687,3.1949 1.9815,4.3588 1.3124,1.1517 3.2442,1.7337 5.7829,1.7337 2.5138,0 4.7551,-0.5448 6.7116,-1.6469 1.9565,-1.1021 3.4053,-2.613 4.3217,-4.5199 0.7058,-1.4737 1.0525,-3.6533 1.0525,-6.5262 l 0,-2.4021 z m 16.7298,19.3425 0,-38.5242 5.8697,0 0,5.4734 c 2.8358,-4.2352 6.9222,-6.3527 12.2596,-6.3527 2.3281,0 4.4577,0.4212 6.402,1.2506 1.9565,0.8422 3.4056,1.9318 4.3713,3.2942 0.9783,1.3495 1.6469,2.9596 2.0432,4.8169 0.2353,1.2138 0.3592,3.3313 0.3592,6.3527 l 0,23.6891 -6.5384,0 0,-23.4414 c 0,-2.6501 -0.2478,-4.6437 -0.7554,-5.9689 -0.5077,-1.3124 -1.4117,-2.3652 -2.6995,-3.1453 -1.3002,-0.7926 -2.8111,-1.1888 -4.557,-1.1888 -2.7864,0 -5.1763,0.8917 -7.207,2.6501 -2.0186,1.7708 -3.0215,5.1142 -3.0215,10.0553 l 0,21.039 -6.5262,0 z m 66.3123,0 0,-4.8665 c -2.4395,3.8262 -6.0304,5.7334 -10.7734,5.7334 -3.071,0 -5.8943,-0.8422 -8.4702,-2.5387 -2.5755,-1.6841 -4.5694,-4.0493 -5.9933,-7.0954 -1.4116,-3.034 -2.1177,-6.5138 -2.1177,-10.4639 0,-3.8389 0.644,-7.3309 1.9196,-10.4638 1.2878,-3.1331 3.2071,-5.5355 5.7705,-7.1949 2.5634,-1.6716 5.4363,-2.5137 8.6063,-2.5137 2.3159,0 4.3837,0.4955 6.1917,1.4737 1.8204,0.9782 3.2938,2.2538 4.4331,3.8265 l 0,-19.0828 6.489,0 0,53.1861 -6.0556,0 z M -42.774,865.614 c 0,4.9408 1.0404,8.631 3.1207,11.0705 2.0804,2.4395 4.532,3.6655 7.3678,3.6655 2.8483,0 5.2753,-1.1764 7.2692,-3.5045 1.9936,-2.3281 2.9968,-5.8944 2.9968,-10.6866 0,-5.2753 -1.0157,-9.1389 -3.0464,-11.6031 -2.0308,-2.4766 -4.5323,-3.7026 -7.5167,-3.7026 -2.8975,0 -5.3248,1.1888 -7.2688,3.5538 -1.9443,2.3652 -2.9226,6.105 -2.9226,11.207 z m 37.0012,19.2311 0,-53.1861 6.5384,0 0,30.3267 15.4542,-15.6648 8.4453,0 -14.7237,14.2903 16.2221,24.2339 -8.0615,0 -12.7298,-19.7016 -4.6066,4.4331 0,15.2685 -6.5384,0 z m 37.0506,0 0,-38.5242 5.8697,0 0,5.8325 c 1.4984,-2.7243 2.8854,-4.5323 4.1607,-5.3991 1.2631,-0.8668 2.6625,-1.3127 4.1856,-1.3127 2.2042,0 4.4331,0.7058 6.7116,2.1053 l -2.2536,6.0678 c -1.5851,-0.9536 -3.1824,-1.4241 -4.78,-1.4241 -1.4363,0 -2.7119,0.4334 -3.8512,1.2878 -1.1392,0.8668 -1.9443,2.0556 -2.427,3.5787 -0.7308,2.3156 -1.0899,4.8543 -1.0899,7.6158 l 0,20.1722 -6.5259,0 z M 81.2319,880.09 c -2.4273,2.0557 -4.7554,3.5045 -6.9843,4.3589 -2.2414,0.8421 -4.6437,1.2631 -7.2071,1.2631 -4.235,0 -7.4795,-1.0279 -9.758,-3.0957 -2.266,-2.0682 -3.4052,-4.718 -3.4052,-7.9254 0,-1.8947 0.4209,-3.6159 1.2877,-5.1761 0.8544,-1.5605 1.9815,-2.8111 3.3682,-3.7522 1.3994,-0.9411 2.9596,-1.6594 4.7058,-2.1424 1.2753,-0.3342 3.2071,-0.6687 5.7954,-0.9783 5.2753,-0.6315 9.1636,-1.3745 11.6524,-2.2538 0.0249,-0.8915 0.0374,-1.461 0.0374,-1.6963 0,-2.6625 -0.6194,-4.5447 -1.8576,-5.6222 -1.6594,-1.4859 -4.1485,-2.2164 -7.4298,-2.2164 -3.0711,0 -5.3374,0.5323 -6.8108,1.6098 -1.4613,1.0772 -2.5388,2.9843 -3.2446,5.7209 l -6.3774,-0.879 c 0.582,-2.7244 1.5356,-4.9411 2.8605,-6.6127 1.3252,-1.6841 3.257,-2.9843 5.7707,-3.8883 2.5138,-0.904 5.4239,-1.3623 8.7427,-1.3623 3.2938,0 5.9561,0.3963 8.0118,1.1642 2.0557,0.7801 3.5663,1.7458 4.5448,2.9222 0.9658,1.1767 1.6344,2.6501 2.0307,4.4456 0.2106,1.1146 0.322,3.1206 0.322,6.0185 l 0,8.7052 c 0,6.0803 0.1361,9.919 0.421,11.5166 0.2724,1.6098 0.8297,3.1575 1.6469,4.6312 l -6.823,0 c -0.6687,-1.3498 -1.1146,-2.9347 -1.3002,-4.7551 z m -0.5451,-14.5874 c -2.3774,0.9783 -5.9315,1.7955 -10.662,2.4767 -2.6869,0.3838 -4.5941,0.8172 -5.6962,1.3002 -1.1146,0.4828 -1.9814,1.1886 -2.5756,2.1297 -0.6069,0.9289 -0.9164,1.9568 -0.9164,3.096 0,1.7459 0.6687,3.1949 1.9814,4.3588 1.3125,1.1517 3.2443,1.7337 5.783,1.7337 2.5137,0 4.7551,-0.5448 6.7116,-1.6469 1.9564,-1.1021 3.4052,-2.613 4.3217,-4.5199 0.7058,-1.4737 1.0525,-3.6533 1.0525,-6.5262 l 0,-2.4021 z m 18.2778,19.3425 0,-33.4471 -5.7583,0 0,-5.0771 5.7583,0 0,-4.0989 c 0,-2.588 0.2352,-4.5199 0.6933,-5.7705 0.6316,-1.6965 1.7337,-3.0711 3.3188,-4.1238 1.5852,-1.0526 3.8019,-1.5727 6.6623,-1.5727 1.8326,0 3.8636,0.2106 6.0925,0.6565 l -0.9782,5.6962 c -1.3499,-0.2477 -2.6377,-0.3716 -3.8512,-0.3716 -1.9814,0 -3.3806,0.4212 -4.1981,1.2756 -0.8297,0.8422 -1.2382,2.427 -1.2382,4.7551 l 0,3.5541 7.5042,0 0,5.0771 -7.5042,0 0,33.4471 -6.5012,0 z m 33.3479,-5.8447 0.9411,5.7705 c -1.8326,0.3838 -3.4796,0.5819 -4.9283,0.5819 -2.3777,0 -4.2103,-0.3713 -5.5231,-1.1268 -1.3002,-0.7429 -2.2167,-1.7336 -2.749,-2.9596 -0.5326,-1.2135 -0.805,-3.7894 -0.805,-7.7023 l 0,-22.1661 -4.7923,0 0,-5.0771 4.7923,0 0,-9.5474 6.5012,-3.9132 0,13.4606 6.5631,0 0,5.0771 -6.5631,0 0,22.5252 c 0,1.8698 0.1114,3.0586 0.3342,3.591 0.2356,0.5326 0.6069,0.9535 1.1271,1.2756 0.5201,0.3095 1.2631,0.4705 2.2289,0.4705 0.7307,0 1.684,-0.0867 2.8729,-0.2599 z m 13.4977,5.8447 -11.789,-38.5242 6.749,0 6.1296,22.2403 2.2785,8.2721 c 0.0992,-0.4212 0.7679,-3.0711 1.9939,-7.9501 l 6.1297,-22.5623 6.7115,0 5.7708,22.3393 1.9315,7.3681 2.2043,-7.4424 6.6004,-22.265 6.3525,0 -12.0487,38.5242 -6.7736,0 -6.13,-23.07 -1.4984,-6.5755 -7.789,29.6455 -6.823,0 z m 44.1091,-19.2682 c 0,-7.1328 1.9814,-12.4206 5.9564,-15.8508 3.3063,-2.8479 7.3432,-4.2845 12.1108,-4.2845 5.3002,0 9.6341,1.7336 12.99,5.2135 3.3684,3.4673 5.04,8.2595 5.04,14.3767 0,4.9657 -0.743,8.8665 -2.2289,11.7023 -1.4859,2.8482 -3.653,5.0525 -6.4888,6.6251 -2.8482,1.5727 -5.9439,2.3528 -9.3123,2.3528 -5.3867,0 -9.7456,-1.7212 -13.0765,-5.1886 -3.3313,-3.4548 -4.9907,-8.433 -4.9907,-14.9465 z m 6.7118,0 c 0,4.9408 1.0772,8.6309 3.2321,11.0829 2.1546,2.4642 4.8665,3.6902 8.1233,3.6902 3.2445,0 5.9439,-1.2382 8.0985,-3.7027 2.1425,-2.4641 3.2199,-6.2285 3.2199,-11.281 0,-4.7676 -1.0774,-8.3835 -3.2445,-10.8354 -2.1671,-2.4517 -4.8544,-3.6777 -8.0739,-3.6777 -3.2568,0 -5.9687,1.226 -8.1233,3.6655 -2.1549,2.4395 -3.2321,6.1296 -3.2321,11.0582 z m 36.9763,19.2682 0,-38.5242 5.8697,0 0,5.8325 c 1.4984,-2.7243 2.8854,-4.5323 4.1607,-5.3991 1.2631,-0.8668 2.6626,-1.3127 4.1856,-1.3127 2.2043,0 4.4331,0.7058 6.7116,2.1053 l -2.2535,6.0678 c -1.5852,-0.9536 -3.1825,-1.4241 -4.7801,-1.4241 -1.4363,0 -2.7119,0.4334 -3.8511,1.2878 -1.1393,0.8668 -1.9443,2.0556 -2.4271,3.5787 -0.7307,2.3156 -1.0899,4.8543 -1.0899,7.6158 l 0,20.1722 -6.5259,0 z m 24.8409,0 0,-53.1861 6.5383,0 0,30.3267 15.4543,-15.6648 8.4452,0 -14.7237,14.2903 16.2221,24.2339 -8.0614,0 -12.7299,-19.7016 -4.6066,4.4331 0,15.2685 -6.5383,0 z m 34.512,-11.5041 6.4517,-1.0154 c 0.3591,2.5881 1.3745,4.5695 3.0339,5.9565 1.647,1.3745 3.9626,2.0679 6.9469,2.0679 2.9968,0 5.2257,-0.6191 6.6747,-1.8326 1.4488,-1.226 2.1793,-2.6626 2.1793,-4.2971 0,-1.4859 -0.6437,-2.6376 -1.9318,-3.492 -0.8915,-0.5819 -3.1204,-1.3127 -6.6745,-2.2042 -4.78,-1.2135 -8.111,-2.2538 -9.9561,-3.1453 -1.8451,-0.8793 -3.2567,-2.1053 -4.2103,-3.6655 -0.9536,-1.5605 -1.4366,-3.2817 -1.4366,-5.1639 0,-1.7212 0.3963,-3.3063 1.1889,-4.7676 0.7801,-1.4734 1.8575,-2.6872 3.2074,-3.653 1.0153,-0.7429 2.4023,-1.387 4.1482,-1.9071 1.7586,-0.5199 3.6408,-0.7801 5.6469,-0.7801 3.0214,0 5.6715,0.4459 7.9622,1.3127 2.291,0.8668 3.975,2.0432 5.065,3.5291 1.0896,1.4984 1.8326,3.4798 2.2413,5.9689 l -6.3774,0.8791 c -0.2973,-1.9812 -1.1392,-3.5292 -2.5262,-4.6437 -1.387,-1.1143 -3.3559,-1.6716 -5.8944,-1.6716 -2.9968,0 -5.1392,0.4952 -6.4145,1.4859 -1.2878,0.9907 -1.9318,2.1546 -1.9318,3.4798 0,0.8544 0.2724,1.6098 0.8048,2.2907 0.5326,0.7058 1.3623,1.2756 2.5015,1.7461 0.6563,0.2353 2.5756,0.7926 5.7705,1.6594 4.6191,1.2382 7.8387,2.2414 9.6591,3.0339 1.8326,0.7801 3.2692,1.9318 4.3092,3.4302 1.0403,1.4982 1.5605,3.3557 1.5605,5.5849 0,2.1792 -0.6441,4.2224 -1.9072,6.1543 -1.2753,1.9193 -3.1082,3.4055 -5.4981,4.458 -2.3898,1.0525 -5.1017,1.5727 -8.1235,1.5727 -5.015,0 -8.829,-1.0403 -11.4545,-3.1207 -2.6252,-2.0803 -4.2968,-5.1639 -5.0151,-9.2503 z m 76.9743,5.5848 c -1.5727,1.8204 -3.3313,3.2817 -5.2753,4.3713 -1.9443,1.1021 -3.9007,1.6594 -5.8572,1.6594 -2.1549,0 -4.2475,-0.6315 -6.2785,-1.8946 -2.0307,-1.2507 -3.6776,-3.1825 -4.9532,-5.7952 -1.2632,-2.613 -1.9069,-5.4859 -1.9069,-8.6065 0,-3.8387 0.9904,-7.6899 2.9594,-11.5535 1.9689,-3.8511 4.4209,-6.749 7.3434,-8.6808 2.9347,-1.944 5.7705,-2.9101 8.532,-2.9101 2.105,0 4.1111,0.5573 6.0182,1.6594 1.9194,1.09 3.5541,2.774 4.9408,5.0154 l 1.226,-5.622 6.5013,0 -5.2257,24.3454 c -0.7308,3.3806 -1.0896,5.2628 -1.0896,5.6219 0,0.6563 0.2474,1.2135 0.7429,1.6841 0.4952,0.4706 1.0897,0.7058 1.7955,0.7058 1.2878,0 2.9596,-0.7305 5.04,-2.2042 2.7615,-1.944 4.9408,-4.532 6.5509,-7.789 1.6097,-3.2443 2.4145,-6.6002 2.4145,-10.0676 0,-4.0368 -1.04,-7.8137 -3.1082,-11.3181 -2.0679,-3.5045 -5.1514,-6.3032 -9.2503,-8.4084 -4.0989,-2.1051 -8.6187,-3.1576 -13.5845,-3.1576 -5.659,0 -10.8229,1.325 -15.5038,3.9751 -4.6808,2.6376 -8.3089,6.4391 -10.8847,11.3799 -2.5759,4.9536 -3.8636,10.2535 -3.8636,15.9126 0,5.9315 1.2877,11.0336 3.8636,15.3057 2.5758,4.2845 6.3031,7.4548 11.1696,9.498 4.879,2.0432 10.2782,3.0586 16.1975,3.0586 6.3399,0 11.6523,-1.065 15.9247,-3.1949 4.2846,-2.13 7.492,-4.718 9.6217,-7.7641 l 6.5633,0 c -1.2385,2.5384 -3.3435,5.1264 -6.3527,7.7641 -2.9968,2.6376 -6.5631,4.7304 -10.6991,6.266 -4.136,1.5355 -9.114,2.3034 -14.9465,2.3034 -5.3745,0 -10.3153,-0.6936 -14.8601,-2.0682 -4.532,-1.387 -8.3957,-3.4548 -11.5906,-6.2288 -3.1949,-2.7612 -5.5973,-5.9562 -7.2195,-9.5599 -2.0308,-4.5694 -3.0462,-9.4977 -3.0462,-14.7979 0,-5.9069 1.2136,-11.5288 3.6284,-16.8659 2.9472,-6.5631 7.145,-11.5784 12.5688,-15.0579 5.4363,-3.4798 12.0243,-5.226 19.7637,-5.226 5.9936,0 11.3803,1.226 16.1601,3.678 4.7676,2.4641 8.5444,6.1171 11.2935,10.9839 2.353,4.1732 3.5169,8.7302 3.5169,13.6338 0,7.0215 -2.4641,13.2378 -7.3927,18.6866 -4.4085,4.879 -9.2132,7.3307 -14.4389,7.3307 -1.6718,0 -3.0217,-0.26 -4.0493,-0.7677 -1.0278,-0.5076 -1.7832,-1.2259 -2.2663,-2.1795 -0.3095,-0.5944 -0.5448,-1.6345 -0.6933,-3.1207 z m -17.5595,-9.8198 c 0,3.3064 0.7926,5.8819 2.3652,7.7273 1.5727,1.8326 3.3681,2.749 5.3992,2.749 1.362,0 2.7861,-0.4087 4.2845,-1.2135 1.4984,-0.805 2.9347,-2.0185 4.2971,-3.6037 1.3745,-1.5973 2.4888,-3.6283 3.3556,-6.08 0.8793,-2.452 1.3127,-4.9161 1.3127,-7.3806 0,-3.2938 -0.8172,-5.8447 -2.4519,-7.6651 -1.6345,-1.808 -3.6281,-2.7119 -5.9686,-2.7119 -1.548,0 -3.0093,0.3838 -4.3714,1.1763 -1.362,0.7801 -2.6872,2.0433 -3.975,3.7894 -1.2756,1.7459 -2.3031,3.8636 -3.0835,6.3524 -0.7676,2.4891 -1.1639,4.7801 -1.1639,6.8604 z m 55.7739,15.7391 0,-53.1861 6.5262,0 0,19.0828 c 3.0461,-3.5294 6.8973,-5.3002 11.541,-5.3002 2.8482,0 5.3249,0.5697 7.4299,1.6965 2.1053,1.1146 3.6161,2.6748 4.5201,4.6562 0.904,1.9811 1.3621,4.8665 1.3621,8.6312 l 0,24.4196 -6.5384,0 0,-24.4196 c 0,-3.257 -0.7059,-5.6344 -2.1175,-7.1206 -1.4117,-1.4859 -3.4178,-2.2414 -6.0058,-2.2414 -1.9318,0 -3.7522,0.508 -5.4612,1.5109 -1.7087,1.0032 -2.9223,2.3652 -3.6405,4.0864 -0.7308,1.709 -1.0897,4.0864 -1.0897,7.1082 l 0,21.0761 -6.5262,0 z m 38.8834,-19.2682 c 0,-7.1328 1.9814,-12.4206 5.9565,-15.8508 3.3063,-2.8479 7.3431,-4.2845 12.1107,-4.2845 5.3002,0 9.6341,1.7336 12.99,5.2135 3.3684,3.4673 5.04,8.2595 5.04,14.3767 0,4.9657 -0.7429,8.8665 -2.2288,11.7023 -1.486,2.8482 -3.6531,5.0525 -6.4888,6.6251 -2.8483,1.5727 -5.944,2.3528 -9.3124,2.3528 -5.3867,0 -9.7455,-1.7212 -13.0765,-5.1886 -3.3313,-3.4548 -4.9907,-8.433 -4.9907,-14.9465 z m 6.7119,0 c 0,4.9408 1.0771,8.6309 3.232,11.0829 2.1547,2.4642 4.8666,3.6902 8.1233,3.6902 3.2445,0 5.944,-1.2382 8.0986,-3.7027 2.1424,-2.4641 3.2198,-6.2285 3.2198,-11.281 0,-4.7676 -1.0774,-8.3835 -3.2445,-10.8354 -2.1671,-2.4517 -4.8543,-3.6777 -8.0739,-3.6777 -3.2567,0 -5.9686,1.226 -8.1233,3.6655 -2.1549,2.4395 -3.232,6.1296 -3.232,11.0582 z m 51.3037,13.4235 0.9411,5.7705 c -1.8326,0.3838 -3.4796,0.5819 -4.9283,0.5819 -2.3777,0 -4.2103,-0.3713 -5.5231,-1.1268 -1.3002,-0.7429 -2.2167,-1.7336 -2.749,-2.9596 -0.5326,-1.2135 -0.805,-3.7894 -0.805,-7.7023 l 0,-22.1661 -4.7923,0 0,-5.0771 4.7923,0 0,-9.5474 6.5012,-3.9132 0,13.4606 6.5631,0 0,5.0771 -6.5631,0 0,22.5252 c 0,1.8698 0.1114,3.0586 0.3342,3.591 0.2356,0.5326 0.6069,0.9535 1.1271,1.2756 0.5201,0.3095 1.2631,0.4705 2.2289,0.4705 0.7307,0 1.684,-0.0867 2.8729,-0.2599 z m 6.3895,5.8447 0,-38.5242 5.8326,0 0,5.3991 c 1.2135,-1.8822 2.8233,-3.4055 4.8294,-4.5448 2.0061,-1.1517 4.297,-1.7336 6.8604,-1.7336 2.8483,0 5.1885,0.5944 7.009,1.7833 1.8325,1.1888 3.1206,2.8357 3.8636,4.9657 3.0586,-4.4952 7.0211,-6.749 11.9001,-6.749 3.8265,0 6.7615,1.065 8.8169,3.1824 2.0557,2.1178 3.0835,5.3745 3.0835,9.7705 l 0,26.4506 -6.4888,0 0,-24.2711 c 0,-2.6129 -0.2106,-4.4951 -0.6315,-5.6469 -0.4335,-1.1392 -1.2011,-2.0678 -2.3032,-2.7737 -1.1146,-0.6936 -2.4273,-1.0527 -3.9257,-1.0527 -2.7119,0 -4.9532,0.9039 -6.7487,2.7122 -1.7833,1.7954 -2.6873,4.6808 -2.6873,8.6434 l 0,22.3888 -6.5259,0 0,-25.0265 c 0,-2.91 -0.5326,-5.0896 -1.5976,-6.5384 -1.0647,-1.4488 -2.7983,-2.1795 -5.2257,-2.1795 -1.8326,0 -3.5291,0.483 -5.0893,1.4612 -1.5604,0.9661 -2.6997,2.3777 -3.393,4.2353 -0.7059,1.8697 -1.0526,4.5569 -1.0526,8.0614 l 0,19.9865 -6.5262,0 z m 87.0296,-4.7551 c -2.4273,2.0557 -4.7554,3.5045 -6.9843,4.3589 -2.2413,0.8421 -4.6437,1.2631 -7.2071,1.2631 -4.2349,0 -7.4794,-1.0279 -9.7579,-3.0957 -2.2661,-2.0682 -3.4053,-4.718 -3.4053,-7.9254 0,-1.8947 0.4209,-3.6159 1.2878,-5.1761 0.8543,-1.5605 1.9814,-2.8111 3.3681,-3.7522 1.3995,-0.9411 2.9597,-1.6594 4.7058,-2.1424 1.2753,-0.3342 3.2071,-0.6687 5.7954,-0.9783 5.2753,-0.6315 9.1636,-1.3745 11.6524,-2.2538 0.025,-0.8915 0.0374,-1.461 0.0374,-1.6963 0,-2.6625 -0.6193,-4.5447 -1.8575,-5.6222 -1.6594,-1.4859 -4.1485,-2.2164 -7.4299,-2.2164 -3.0711,0 -5.3374,0.5323 -6.8108,1.6098 -1.4613,1.0772 -2.5387,2.9843 -3.2445,5.7209 l -6.3774,-0.879 c 0.5819,-2.7244 1.5355,-4.9411 2.8604,-6.6127 1.3252,-1.6841 3.257,-2.9843 5.7708,-3.8883 2.5138,-0.904 5.4238,-1.3623 8.7426,-1.3623 3.2939,0 5.9562,0.3963 8.0118,1.1642 2.0557,0.7801 3.5663,1.7458 4.5448,2.9222 0.9658,1.1767 1.6345,2.6501 2.0308,4.4456 0.2106,1.1146 0.322,3.1206 0.322,6.0185 l 0,8.7052 c 0,6.0803 0.1361,9.919 0.4209,11.5166 0.2724,1.6098 0.8297,3.1575 1.647,4.6312 l -6.823,0 c -0.6687,-1.3498 -1.1146,-2.9347 -1.3003,-4.7551 z m -0.5451,-14.5874 c -2.3774,0.9783 -5.9315,1.7955 -10.6619,2.4767 -2.687,0.3838 -4.5941,0.8172 -5.6963,1.3002 -1.1145,0.4828 -1.9814,1.1886 -2.5755,2.1297 -0.6069,0.9289 -0.9165,1.9568 -0.9165,3.096 0,1.7459 0.6687,3.1949 1.9815,4.3588 1.3124,1.1517 3.2442,1.7337 5.7829,1.7337 2.5138,0 4.7551,-0.5448 6.7116,-1.6469 1.9565,-1.1021 3.4053,-2.613 4.3217,-4.5199 0.7058,-1.4737 1.0525,-3.6533 1.0525,-6.5262 l 0,-2.4021 z m 16.7548,-26.327 0,-7.5166 6.5383,0 0,7.5166 -6.5383,0 z m 0,45.6695 0,-38.5242 6.5383,0 0,38.5242 -6.5383,0 z m 16.3335,0 0,-53.1861 6.5259,0 0,53.1861 -6.5259,0 z m 18.5008,0 0,-7.4423 7.4421,0 0,7.4423 -7.4421,0 z m 43.9356,-14.1168 6.4146,0.8419 c -0.6937,4.4209 -2.4891,7.8883 -5.3867,10.3895 -2.8854,2.5016 -6.4395,3.7523 -10.6498,3.7523 -5.2628,0 -9.5102,-1.7212 -12.7051,-5.1639 -3.2074,-3.4424 -4.8172,-8.3835 -4.8172,-14.8227 0,-4.1606 0.6936,-7.8015 2.0681,-10.9221 1.387,-3.1204 3.4795,-5.461 6.3031,-7.0212 2.8109,-1.5604 5.8819,-2.3405 9.1883,-2.3405 4.1856,0 7.6158,1.065 10.2656,3.1824 2.6626,2.1178 4.3713,5.1143 5.1268,9.0151 l -6.3528,0.9782 c -0.6066,-2.588 -1.6716,-4.532 -3.2071,-5.8448 -1.5355,-1.3002 -3.3931,-1.9564 -5.5723,-1.9564 -3.2942,0 -5.9689,1.1763 -8.0246,3.5416 -2.0554,2.3527 -3.0833,6.08 -3.0833,11.1821 0,5.176 0.9907,8.9405 2.9843,11.2935 1.9815,2.3403 4.5695,3.5167 7.7644,3.5167 2.5634,0 4.6931,-0.7926 6.4145,-2.3653 1.7212,-1.5726 2.8109,-3.9872 3.2692,-7.2564 z m 9.5721,-5.1514 c 0,-7.1328 1.9814,-12.4206 5.9564,-15.8508 3.3063,-2.8479 7.3432,-4.2845 12.1108,-4.2845 5.3002,0 9.6341,1.7336 12.99,5.2135 3.3684,3.4673 5.04,8.2595 5.04,14.3767 0,4.9657 -0.743,8.8665 -2.2289,11.7023 -1.4859,2.8482 -3.653,5.0525 -6.4888,6.6251 -2.8482,1.5727 -5.9439,2.3528 -9.3123,2.3528 -5.3867,0 -9.7456,-1.7212 -13.0766,-5.1886 -3.3312,-3.4548 -4.9906,-8.433 -4.9906,-14.9465 z m 6.7118,0 c 0,4.9408 1.0772,8.6309 3.2321,11.0829 2.1546,2.4642 4.8665,3.6902 8.1233,3.6902 3.2445,0 5.9439,-1.2382 8.0985,-3.7027 2.1425,-2.4641 3.2199,-6.2285 3.2199,-11.281 0,-4.7676 -1.0774,-8.3835 -3.2445,-10.8354 -2.1671,-2.4517 -4.8544,-3.6777 -8.0739,-3.6777 -3.2568,0 -5.9687,1.226 -8.1233,3.6655 -2.1549,2.4395 -3.2321,6.1296 -3.2321,11.0582 z m 37.0506,19.2682 0,-38.5242 5.8325,0 0,5.3991 c 1.2135,-1.8822 2.8233,-3.4055 4.8294,-4.5448 2.0061,-1.1517 4.2971,-1.7336 6.8604,-1.7336 2.8483,0 5.1886,0.5944 7.009,1.7833 1.8326,1.1888 3.1206,2.8357 3.8636,4.9657 3.0586,-4.4952 7.0211,-6.749 11.9001,-6.749 3.8265,0 6.7615,1.065 8.8169,3.1824 2.0557,2.1178 3.0835,5.3745 3.0835,9.7705 l 0,26.4506 -6.4888,0 0,-24.2711 c 0,-2.6129 -0.2106,-4.4951 -0.6315,-5.6469 -0.4334,-1.1392 -1.2011,-2.0678 -2.3032,-2.7737 -1.1145,-0.6936 -2.4273,-1.0527 -3.9257,-1.0527 -2.7119,0 -4.9532,0.9039 -6.7487,2.7122 -1.7833,1.7954 -2.6872,4.6808 -2.6872,8.6434 l 0,22.3888 -6.526,0 0,-25.0265 c 0,-2.91 -0.5326,-5.0896 -1.5976,-6.5384 -1.0647,-1.4488 -2.7983,-2.1795 -5.2256,-2.1795 -1.8326,0 -3.5292,0.483 -5.0894,1.4612 -1.5604,0.9661 -2.6997,2.3777 -3.393,4.2353 -0.7059,1.8697 -1.0525,4.5569 -1.0525,8.0614 l 0,19.9865 -6.5262,0 z" />
  </g>
  <g
     id="g10">
    <path
       id="path12"
       style="fill:#eceded;fill-rule:evenodd"
       d="m 313.9435,37.5945 161.1995,-49.423 675.0209,0 0,790.8085 -750.4984,0 -0.1363,-18.1613 -50.0755,18.1613 -71.0203,0 -50.0756,-18.1613 -0.1362,18.1613 -750.4986,0 0,-790.8085 675.0211,0 161.1994,49.423 z" />
    <path
       id="path14"
       style="fill:#1b1918;fill-rule:evenodd"
       d="m 313.9435,114.8248 172.2646,-52.8157 590.1182,0 0,643.1333 -603.375,0 -0.3703,-49.3615 -136.1033,49.3615 -45.0683,0 -136.1034,-49.3615 -0.3703,49.3615 -603.3751,0 0,-643.1333 590.1183,0 172.2646,52.8157 z m 0,-57.9227 163.9658,-50.2712 653.7952,0 0,753.8897 -713.7175,0 -0.1948,-25.9613 -71.5826,25.9613 -64.5322,0 -71.5826,-25.9613 -0.1947,25.9613 -713.7177,0 0,-753.8897 653.7953,0 163.9658,50.2712 z m 540.5503,329.0017 c 0,-7.1628 -0.3854,-11.818 -1.2523,-13.9649 -0.8668,-2.1466 -2.6932,-3.4685 -5.4909,-3.911 -2.308,-0.3649 -4.0225,0.2744 -5.2019,1.7005 -1.229,1.486 -1.8302,6.1642 -1.8302,14.2625 0,12.1795 0,24.3801 0,36.5171 0,12.1581 0,24.3591 0,36.517 0,9.1185 0.338,14.711 1.1559,16.8558 0.8198,2.1498 2.6009,3.2972 5.4909,3.3796 3.0824,0.0876 5.0555,-1.0465 5.8762,-3.4435 0.817,-2.3864 1.2523,-8.0985 1.2523,-17.1956 0,-11.7755 0,-23.5727 0,-35.3481 0,-11.7755 0,-23.5727 0,-35.3694 z m 44.2164,54.3294 c 0,14.6237 -0.5319,24.9047 -1.3487,30.9481 -0.8207,6.0724 -3.2808,11.5375 -7.5139,16.5369 -4.2438,5.0119 -9.9328,8.8784 -17.1471,11.6268 -7.2353,2.7565 -15.5094,4.1659 -25.1424,4.1659 -9.0553,0 -17.24,-1.3697 -24.4683,-4.1873 -7.2212,-2.8149 -13.015,-7.1126 -17.4361,-12.8596 -4.4413,-5.7735 -7.0808,-12.0885 -7.8991,-18.8749 -0.8194,-6.796 -1.2523,-18.6412 -1.2523,-35.5393 0,-9.3737 0,-18.7049 0,-28.0574 0,-16.5156 0.4292,-28.1061 1.2523,-34.9017 0.8144,-6.7231 3.2992,-12.5415 7.6103,-17.5572 4.1659,-4.8468 9.8161,-8.267 16.9542,-9.9475 7.2154,-1.6989 15.7145,-1.6815 25.239,0.1275 9.1641,1.7406 17.2412,4.8502 24.5644,8.9486 7.2226,4.0422 12.9584,9.0678 17.3397,15.0066 4.3848,5.9433 7.0801,11.952 7.8993,18.0883 0.8181,6.1284 1.3487,16.6434 1.3487,31.6284 0,8.2895 0,16.558 0,24.8478 z m -172.3374,-85.086 c 0,12.9446 0,25.9105 0,38.8337 4.8167,0.4039 8.2863,-0.0186 10.3076,-1.2114 2.1208,-1.2514 2.9863,-5.6752 2.9863,-13.2847 0,-3.1246 0,-6.313 0,-9.48 0,-5.5052 -0.9722,-9.1315 -2.89,-11.0954 -1.8389,-1.8831 -5.3945,-3.1883 -10.4039,-3.7622 z m -44.2161,-35.8584 c 10.3075,1.3393 20.8061,2.7749 31.2115,4.2088 20.9023,2.8808 34.8676,5.6873 42.2896,8.4596 7.3165,2.7327 13.3611,7.7983 18.0139,14.9427 4.6913,7.2032 7.0321,17.8334 7.0321,32.0747 0,12.9234 -1.6984,21.5166 -4.9127,25.6768 -3.2399,4.1932 -9.7296,6.3127 -19.3627,6.3978 8.6699,2.8908 14.5497,6.2463 17.6286,10.1176 2.9898,3.7593 4.7782,7.2147 5.4909,10.2027 0.7323,3.07 1.1559,11.2869 1.1559,24.7415 0,7.3332 0,14.6664 0,21.9784 0,7.3119 0,14.6451 0,21.9356 -13.6789,-0.0424 -27.3581,-0.0849 -41.0371,-0.1275 0,-9.5649 0,-19.13 0,-28.695 0,-9.5863 0,-19.1725 0,-28.7376 0,-9.2249 -0.7289,-14.929 -2.2156,-17.302 -1.4039,-2.2406 -5.1057,-3.6558 -11.0783,-4.0385 0,13.1359 0,26.272 0,39.3866 0,13.1147 0,26.2294 0,39.344 -14.7387,-0.0212 -29.4774,-0.0637 -44.2161,-0.1063 0,-15.0276 0,-30.0979 0,-45.1255 0,-15.0278 0,-30.0554 0,-45.1044 0,-15.0276 0,-30.0981 0,-45.1255 0,-15.0062 0,-30.0554 0,-45.1045 z m -17.147,65.1484 c -14.7387,-1.1053 -29.4774,-2.2105 -44.0236,-3.2307 0,-5.6966 0,-11.3717 0,-17.0471 0,-10.7127 -0.4255,-17.4585 -1.3485,-20.2566 -0.9072,-2.7501 -2.8905,-4.2667 -5.9727,-4.5274 -2.6976,-0.2281 -4.5517,0.7331 -5.5871,3.0396 -0.9876,2.1998 -1.3486,8.1834 -1.3486,17.8122 0,15.1127 0,30.2254 0,45.3169 0,15.0701 0,30.2042 0,45.253 0,8.481 0.3887,14.0914 1.3486,16.792 0.9665,2.7194 2.89,4.0714 5.9726,4.1236 3.1788,0.0539 5.384,-1.3647 6.5505,-4.3999 1.1452,-2.9799 1.6377,-8.8637 1.6377,-17.5784 0,-7.397 0,-14.8151 0,-22.2122 -2.9864,-0.1061 -5.8764,-0.2124 -8.8626,-0.34 0,-9.5225 0,-19.0449 0,-28.5888 17.2433,0.9566 34.3904,2.0619 51.6337,3.1671 0,8.1622 0,16.3668 0,24.529 0,8.1408 0,16.303 0,24.4652 0,8.1408 0,16.3242 0,24.4864 0,8.1409 0,16.303 0,24.4651 -9.2478,-0.0212 -18.4957,-0.0424 -27.7435,-0.0636 -1.3487,-4.4425 -2.6973,-8.8849 -4.0459,-13.3698 -2.9862,5.739 -6.8389,10.0125 -11.4635,12.9234 -4.5266,2.8492 -9.9221,4.3147 -16.0874,4.3147 -7.4175,0 -14.3764,-1.9609 -20.904,-6.0364 -6.4772,-4.0441 -11.3996,-9.1433 -14.7387,-15.219 -3.3077,-6.0187 -5.4392,-12.3865 -6.2614,-19.0452 -0.8156,-6.6047 -1.2523,-16.6007 -1.2523,-29.8427 0,-9.5648 0,-19.1088 0,-28.6525 0,-9.5437 0,-19.1302 0,-28.6737 0,-18.4284 0.9108,-31.7251 2.6973,-39.9606 1.7776,-8.1952 6.6251,-15.4616 14.9312,-21.532 8.359,-6.1089 18.9778,-8.4833 32.2711,-7.1629 12.8123,1.2725 23.5755,5.5164 32.0784,12.2856 8.4515,6.7281 14.117,14.1486 16.6655,22.2759 2.557,8.1546 3.8532,19.6401 3.8532,34.5828 0,2.6356 0,5.2714 0,7.907 z m -190.4474,-84.087 c 24.3717,1.3603 49.0327,3.1883 73.5972,5.1013 0,12.9447 0,25.8893 0,38.8127 -9.8257,-0.5951 -19.748,-1.2329 -29.4774,-1.8492 0,12.392 0,24.7839 0,37.1973 9.1514,0.4464 18.303,0.8715 27.6472,1.3391 0,12.3283 0,24.6564 0,36.9635 -9.3442,-0.2976 -18.4958,-0.6166 -27.6472,-0.9354 0,14.4113 0,28.7801 0,43.1701 10.7891,0.17 21.5783,0.3614 32.4638,0.5527 0,12.9234 0,25.8468 0,38.7701 -25.6242,-0.0425 -51.1521,-0.0849 -76.5836,-0.1274 0,-16.5583 0,-33.18 0,-49.7381 0,-16.5793 0,-33.1586 0,-49.7594 0,-16.5793 0,-33.1798 0,-49.7593 0,-16.5581 0,-33.1586 0,-49.738 z M 456.9335,299.33 c 0,16.6642 0,33.35 0,49.993 0,16.6643 0,33.3501 0,49.9931 0,16.6856 0,33.3502 0,50.0144 0,16.643 0,33.3501 0,49.9931 -13.0048,0 -25.9131,-0.0212 -38.7252,-0.0212 -3.8532,-15.304 -7.752,-30.5967 -11.5598,-45.9545 -3.8021,-15.3354 -7.6103,-30.7143 -11.4635,-46.1247 0,15.3466 0,30.6933 0,46.0396 0,15.3251 0,30.6717 0,46.0183 -12.2341,0 -24.5645,-0.0212 -36.895,-0.0212 0,-16.9407 0,-33.9029 0,-50.8433 0,-16.9405 0,-33.9029 0,-50.8647 0,-16.9191 0,-33.9025 0,-50.8433 0,-16.9407 0,-33.8815 0,-50.8433 12.3305,0.1701 24.6609,0.4676 36.895,0.914 4.0459,15.3466 8.2794,30.652 12.3305,45.9545 4.0406,15.2628 8.1882,30.5017 12.4267,45.7208 0,-15.134 0,-30.2681 0,-45.3806 0,-15.134 0,-30.2681 0,-45.4233 12.2341,0.4464 24.5647,0.9778 36.9913,1.6793 z M 269.087,295.8015 c 24.4683,-0.3188 49.0328,-0.4251 73.5973,-0.1276 0,13.6037 0,27.1859 0,40.7257 -9.8258,-0.0849 -19.7479,-0.17 -29.4775,-0.2763 0,12.8809 0,25.7617 0,38.6427 9.1516,0.0637 18.3031,0.1276 27.6472,0.1912 0,12.9447 0,25.8681 0,38.7915 -9.3441,-0.0426 -18.4956,-0.1063 -27.6472,-0.1487 0,14.9639 0,29.9066 0,44.8491 10.7892,0.0214 21.5783,0.0639 32.3675,0.0851 0,13.6035 0,27.1647 0,40.7257 -25.5279,0 -51.0558,0 -76.4873,0 0,-16.9407 0,-33.9241 0,-50.8645 0,-16.9406 0,-33.9027 0,-50.8647 0,-16.9408 0,-33.9241 0,-50.8645 0,-16.9406 0,-33.9027 0,-50.8647 z m -116.6575,4.8039 c 0,16.5793 0,33.1375 0,49.6954 0,16.5367 0,33.1376 0,49.6743 0,16.5791 0,33.1588 0,49.6955 0,16.5579 0,33.1375 0,49.6956 -13.0048,0 -25.9131,0.0213 -38.7252,0.0425 -3.8534,-14.8152 -7.6513,-29.5808 -11.4635,-44.2754 -3.7977,-14.6382 -7.7066,-29.2265 -11.5598,-43.744 0,14.6876 0,29.3539 0,44.0415 0,14.6664 0,29.354 0,44.0416 -12.2342,0.0214 -24.5645,0.0426 -36.7987,0.0638 0,-15.8141 0,-31.692 0,-47.5062 0,-15.8354 0,-31.6709 0,-47.5274 0,-15.814 0,-31.6711 0,-47.5064 0,-15.8138 0,-31.6708 0,-47.5062 12.2342,-1.2965 24.5645,-2.5505 36.7987,-3.7834 4.1423,14.1776 8.2958,28.3943 12.3305,42.6599 4.057,14.3442 8.3807,28.7376 12.523,43.1915 0,-14.709 0,-29.4391 0,-44.1691 0,-14.709 0,-29.4391 0,-44.1691 12.3305,-0.9354 24.5645,-1.7856 36.895,-2.6144 z M -6.7103,364.5633 c 0,-8.481 -0.4674,-13.8004 -1.3486,-16.0693 -0.8527,-2.1948 -2.6964,-3.1181 -5.2982,-2.7207 -2.4071,0.3675 -4.1377,1.5759 -5.3946,3.6561 -1.2475,2.0645 -1.8303,7.6734 -1.8303,16.9407 0,13.986 0,27.9723 0,41.916 0,13.9436 0,27.951 0,41.8734 0,10.4577 0.4817,16.8771 1.2523,19.2789 0.7705,2.4017 2.6973,3.6117 5.5873,3.5283 2.986,-0.0864 4.9128,-1.5517 5.7798,-4.4424 0.8671,-2.8908 1.2523,-9.6713 1.2523,-20.4053 0,-13.9224 0,-27.8449 0,-41.7673 0,-13.901 0,-27.8659 0,-41.7884 z m 44.1198,57.1562 c 0,18.8962 -0.3387,32.2495 -1.1559,40.1093 -0.8203,7.8907 -3.3766,15.1308 -7.6102,21.6382 -4.2433,6.5222 -9.9229,11.4765 -17.147,14.9427 -7.129,3.4205 -15.6057,5.1012 -25.1424,5.1012 -9.0553,0 -17.2326,-1.5991 -24.4683,-4.6337 -7.3101,-3.0657 -13.1173,-7.5338 -17.5324,-13.561 -4.3509,-5.9395 -6.8885,-12.4617 -7.8028,-19.5127 -0.9157,-7.0631 -1.1559,-19.4276 -1.1559,-37.1335 0,-9.7988 0,-19.5763 0,-29.3751 0,-17.2808 0.3354,-29.5401 1.1559,-36.8784 0.817,-7.3068 3.2132,-14.1981 7.5139,-20.9155 4.2728,-6.6736 9.9271,-12.2995 17.147,-16.8344 7.2296,-4.541 15.5092,-7.7387 25.1426,-9.4588 9.0547,-1.6168 17.2494,-1.1245 24.4681,1.1266 7.2307,2.255 13.1115,6.3266 17.5324,12.2857 4.4413,5.9865 6.7971,12.9073 7.7064,20.4905 0.9208,7.6783 1.3486,21.1066 1.3486,40.4918 0,10.7127 0,21.4044 0,32.1171 z M -89.1869,266.3277 c 0,19.1576 0,42.5216 0,61.6559 0,19.1345 0,38.2922 0,57.4266 0,19.1343 0,38.2693 0,57.4036 0,19.1345 0,38.2691 0,57.4036 -8.1171,0 -16.2513,0 -24.3511,0 -8.0998,0 -16.1824,0 -24.2478,0 0,-12.7027 0,-25.4515 0,-38.1541 0,-12.7257 0,-25.4515 0,-38.2003 0,-12.7026 0,-25.4514 0,-38.1541 0,-12.7257 0,-25.4514 0,-38.2002 -1.6304,12.8865 -3.2592,25.7274 -4.8737,38.5447 -1.6115,12.7949 -3.2335,25.5675 -4.8565,38.315 -1.6202,12.7269 -3.2577,25.429 -4.8736,38.0853 -1.6102,12.6111 -3.2605,25.2218 -4.8737,37.7637 -11.4804,0 -22.9609,0 -34.4242,0 -1.7505,-11.7839 -3.4958,-23.5228 -5.2168,-35.2139 -1.711,-11.6239 -3.4273,-23.2241 -5.114,-34.7546 -1.6766,-11.463 -3.3928,-22.8566 -5.0966,-34.2262 -1.6939,-11.3023 -3.415,-22.5343 -5.0968,-33.698 0,11.4853 0,23.0167 0,34.5019 0,11.5084 0,22.9707 0,34.456 0,11.5083 0,23.0167 0,34.5019 0,11.4624 0,22.9707 0,34.4329 -8.117,0 -16.2511,0 -24.3509,0 -8.0998,0 -16.1825,0 -24.2308,0 0,-15.8496 0,-31.7223 0,-47.5721 0,-15.8727 0,-31.7225 0,-47.5952 0,-15.8498 0,-31.7453 0,-47.5951 0,-15.8727 0,-31.7685 0,-47.6641 11.9953,-5.1684 23.9356,-10.0993 35.9859,-14.3568 11.9419,-4.2192 24.0077,-7.7869 36.003,-11.1637 2.0935,12.4961 4.2896,27.3353 6.727,44.5861 1.2691,8.9815 2.5533,18.0096 3.8268,27.0364 1.2833,9.0968 2.5568,18.2158 3.8268,27.3581 2.0935,-17.3658 4.1842,-34.8009 6.2637,-52.3041 2.0903,-17.5957 4.1699,-35.191 6.3838,-52.9473 20.0792,-4.5661 48.2715,-8.9225 72.5895,-11.6719 z m 986.3961,24.5617 0,40.4064 C 652.3652,285.1205 420.8063,258.4677 231.5146,268.4542 l 1.2554,230.8269 -44.1198,0.0213 -1.8052,-230.2266 c -72.6456,3.7201 -185.0518,16.3415 -256.4863,34.261 l 0,-39.8967 c 49.8651,-11.2434 131.8246,-23.4205 238.5414,-29.5293 11.7575,-0.6729 23.8156,-1.2724 36.1645,-1.7887 59.4989,-2.4878 125.7471,-3.0482 197.6456,-0.6343 144.8804,4.8646 312.7072,21.8089 494.499,59.4016 z" />
    <path
       id="path16"
       style="fill:#e30016;fill-rule:evenodd"
       d="m -365.3722,145.0764 0,476.9987 437.8616,0 0.4637,-61.8122 62.6213,0 170.4331,61.8122 15.8721,0 170.433,-61.8122 62.6213,0 0.4637,61.8122 437.8614,0 0,-476.9987 -494.6028,0 -184.7127,56.6323 -184.7127,-56.6323 -494.603,0 z m -55.3781,-55.3782 558.2799,0 176.4139,54.0879 176.4139,-54.0879 558.2798,0 0,587.7551 -548.2037,0 -0.4582,-61.0617 -168.3637,61.0617 -35.3361,0 -168.3638,-61.0617 -0.4581,61.0617 -548.2039,0 0,-587.7551 z" />
  </g>
</svg>
