<?xml version="1.0" encoding="UTF-8" standalone="no"?>
<svg
   xmlns:dc="http://purl.org/dc/elements/1.1/"
   xmlns:cc="http://creativecommons.org/ns#"
   xmlns:rdf="http://www.w3.org/1999/02/22-rdf-syntax-ns#"
   xmlns:svg="http://www.w3.org/2000/svg"
   xmlns="http://www.w3.org/2000/svg"
   viewBox="0 0 258.66666 258.66666"
   height="258.66666"
   width="258.66666"
   xml:space="preserve"
   id="svg2"
   version="1.1"><metadata
     id="metadata8"><rdf:RDF><cc:Work
         rdf:about=""><dc:format>image/svg+xml</dc:format><dc:type
           rdf:resource="http://purl.org/dc/dcmitype/StillImage" /></cc:Work></rdf:RDF></metadata><defs
     id="defs6" /><g
     transform="matrix(1.3333333,0,0,-1.3333333,0,258.66667)"
     id="g10"><g
       transform="scale(0.1)"
       id="g12"><path
         id="path14"
         style="fill:#ffffff;fill-opacity:1;fill-rule:evenodd;stroke:none"
         d="M 2.59766,1933.23 H 1930.16 V 5.66797 H 2.59766 V 1933.23" /><path
         id="path16"
         style="fill:#d42c38;fill-opacity:1;fill-rule:evenodd;stroke:none"
         d="m 1817.95,1430.35 c -156.02,212.75 -385.32,314.4 -631.16,345.13 -44.91,2.36 -104.01,14.18 -132.38,-26.01 -7.09,-14.18 4.73,-28.36 16.55,-37.82 146.56,-44.92 290.76,-94.56 408.95,-203.29 42.55,-52.01 92.19,-106.38 70.91,-174.93 -44.91,-68.55 -134.74,-52 -210.38,-63.82 l -425.495,-11.82 -416.043,7.09 c -44.918,4.73 -92.195,14.18 -120.562,52 -18.906,37.83 0,80.37 16.547,111.1 108.742,160.75 286.031,224.57 451.504,278.94 11.82,7.1 23.636,21.28 18.914,35.46 -9.457,26.01 -37.825,33.1 -63.828,33.1 C 657.281,1768.39 527.262,1730.56 406.707,1669.1 208.141,1565.09 7.21484,1366.52 33.2188,1123.05 82.8594,820.469 401.98,636.09 673.824,586.445 c 61.461,-4.726 134.742,-28.367 191.481,4.727 7.086,7.094 14.179,18.914 9.453,30.73 -4.731,9.457 -14.188,16.547 -23.641,21.278 -141.832,42.55 -278.937,94.554 -394.769,198.566 -44.91,49.641 -89.825,101.649 -78.008,170.204 7.094,18.91 23.64,35.45 40.187,44.91 85.102,30.73 184.383,21.27 276.575,28.36 l 338.038,9.46 290.75,-4.73 c 80.38,-11.82 182.02,16.55 229.3,-59.09 16.55,-37.825 -2.37,-78.012 -21.28,-111.106 -108.73,-158.383 -281.3,-219.844 -444.41,-274.211 -16.54,-4.73 -26,-21.273 -23.63,-37.824 30.73,-49.641 104.01,-23.633 153.65,-21.274 267.12,40.188 553.15,193.836 661.88,465.685 47.28,125.28 16.55,276.57 -61.45,378.22 z m -1349.778,-189.11 231.66,-9.45 510.598,4.72 c 120.56,7.1 250.57,4.73 364.03,40.19 11.82,7.09 28.37,21.27 42.56,7.09 9.45,-4.73 18.91,-11.82 28.36,-18.91 -7.09,-14.18 -26,-11.82 -40.18,-16.55 l -163.11,-16.54 -326.22,-7.1 -470.409,-4.73 c -111.102,0 -217.477,2.37 -326.219,14.19 -11.816,4.73 -28.363,2.36 -33.09,16.55 11.817,9.45 28.364,21.27 44.914,23.63 40.188,-23.63 89.829,-26 137.106,-33.09 z m 1389.958,-85.1 v -2.36 l -7.09,7.09 c -9.46,113.46 -52.01,217.47 -139.47,297.85 -2.36,0 -9.46,2.36 -9.46,-4.73 59.1,-87.47 101.65,-184.38 96.92,-297.85 -14.18,-257.663 -283.66,-442.046 -505.87,-508.234 -47.27,-11.816 -96.92,-28.367 -148.92,-30.73 44.91,16.551 89.83,26.004 134.74,44.914 184.38,59.094 401.86,198.562 458.59,404.22 4.73,23.64 9.46,54.37 -9.45,73.28 -33.1,35.46 -82.74,35.46 -132.38,35.46 h -375.86 l -446.771,-7.09 -364.035,-2.37 C 338.156,1151.41 231.781,1184.5 193.961,1104.13 186.867,1004.85 248.328,931.574 309.793,858.293 446.891,721.184 619.457,662.09 794.383,614.816 l -4.727,-4.73 c -269.48,42.551 -583.875,191.477 -650.066,484.594 -23.637,125.28 16.547,243.48 85.101,340.4 0,2.36 -2.363,4.73 -4.73,7.09 -23.637,-9.46 -37.82,-35.46 -54.367,-54.37 -47.278,-78.01 -82.7346,-160.75 -87.4651,-252.94 H 73.4023 C 54.4922,1340.52 212.871,1508.36 378.34,1610 c 122.926,73.29 257.664,122.93 404.226,130.02 2.364,0 2.364,-2.36 2.364,-2.36 -118.196,-33.1 -231.66,-70.93 -335.672,-137.11 -120.559,-70.92 -231.66,-191.47 -260.028,-326.22 0,-18.91 4.731,-35.45 18.911,-47.28 42.554,-35.45 106.375,-30.73 160.746,-33.09 l 262.39,-2.36 739.893,7.09 c 99.28,4.73 203.29,4.73 300.21,18.91 26.01,7.09 59.1,23.64 66.19,54.37 2.37,63.82 -35.46,115.83 -66.19,165.47 -137.1,182.02 -335.67,255.3 -536.59,302.58 -2.37,7.09 2.35,2.36 4.72,4.73 174.93,-7.09 328.58,-66.19 468.05,-160.75 146.56,-101.64 262.39,-250.57 250.57,-427.86" /><path
         id="path18"
         style="fill:#231f20;fill-opacity:1;fill-rule:evenodd;stroke:none"
         d="m 770.664,181.348 c 0,-2.914 -1.941,-4.856 -4.855,-4.856 H 658.965 c -2.914,0 -5.828,1.942 -5.828,4.856 V 393.09 c 0,2.914 2.914,4.859 5.828,4.859 h 106.844 c 2.914,0 4.855,-1.945 4.855,-4.859 z M 550.18,397.949 H 442.367 c -2.914,0 -4.855,-1.945 -4.855,-4.859 v -40.793 c 0,-11.656 -9.715,-21.367 -21.367,-21.367 H 308.328 c -11.656,0 -21.367,9.711 -21.367,21.367 v 0 40.793 c 0,2.914 -1.945,4.859 -4.859,4.859 H 175.266 c -2.914,0 -5.832,-1.945 -5.832,-4.859 V 181.348 c 0,-2.914 2.918,-4.856 5.832,-4.856 h 106.836 c 2.914,0 4.859,1.942 4.859,4.856 v 48.566 0 c 0,11.656 9.711,21.367 21.367,21.367 h 107.817 c 11.652,0 21.367,-9.711 21.367,-21.367 v -48.566 c 0,-2.914 1.941,-4.856 4.855,-4.856 H 550.18 c 2.914,0 4.859,1.942 4.859,4.856 V 393.09 c 0,2.914 -1.945,4.859 -4.859,4.859 z m 712.93,0 h -106.84 c -2.92,0 -5.83,-1.945 -5.83,-4.859 v -68.961 c -9.71,-10.684 -33.03,1.941 -33.03,1.941 0,0 -22.34,14.571 -73.82,42.739 -44.672,26.226 -58.27,29.14 -61.184,29.14 v 0 H 875.563 c -2.915,0 -5.829,-1.945 -5.829,-4.859 V 181.348 c 0,-2.914 2.914,-4.856 5.829,-4.856 h 106.843 c 2.914,0 5.828,1.942 5.828,4.856 v 89.359 c 13.596,18.457 33.016,8.742 33.016,8.742 0,0 23.32,-11.656 72.86,-42.734 42.73,-27.199 53.41,-36.91 56.33,-46.625 v -8.742 c 0,-2.914 2.91,-4.856 5.83,-4.856 h 106.84 c 2.91,0 4.85,1.942 4.85,4.856 V 393.09 c 0,2.914 -1.94,4.859 -4.85,4.859 z m 394.34,5.828 h -197.17 c -58.28,0 -105.87,-36.91 -105.87,-94.218 v -55.364 c 0,-58.273 47.59,-94.215 105.87,-94.215 h 197.17 c 58.28,0 105.87,35.942 105.87,94.215 v 55.364 c 0,57.308 -47.59,94.218 -105.87,94.218 z m -5.83,-135.984 c 0,-29.137 -21.37,-47.594 -47.59,-47.594 h -89.36 c -27.2,0 -48.56,18.457 -48.56,47.594 v 28.168 c 0,29.141 21.36,47.594 48.56,47.594 h 89.36 c 26.22,0 47.59,-18.453 47.59,-47.594 v -28.168" /></g></g></svg>