<?xml version="1.0" encoding="UTF-8" standalone="no"?>
<svg
   xmlns:dc="http://purl.org/dc/elements/1.1/"
   xmlns:cc="http://creativecommons.org/ns#"
   xmlns:rdf="http://www.w3.org/1999/02/22-rdf-syntax-ns#"
   xmlns:svg="http://www.w3.org/2000/svg"
   xmlns="http://www.w3.org/2000/svg"
   viewBox="0 0 258.66666 258.66666"
   height="258.66666"
   width="258.66666"
   xml:space="preserve"
   id="svg2"
   version="1.1"><metadata
     id="metadata8"><rdf:RDF><cc:Work
         rdf:about=""><dc:format>image/svg+xml</dc:format><dc:type
           rdf:resource="http://purl.org/dc/dcmitype/StillImage" /></cc:Work></rdf:RDF></metadata><defs
     id="defs6" /><g
     transform="matrix(1.3333333,0,0,-1.3333333,0,258.66667)"
     id="g10"><g
       transform="scale(0.1)"
       id="g12"><path
         id="path14"
         style="fill:#ffffff;fill-opacity:1;fill-rule:evenodd;stroke:none"
         d="M 2.59766,1933.23 H 1930.16 V 5.66797 H 2.59766 V 1933.23" /><path
         id="path16"
         style="fill:#ed1c24;fill-opacity:1;fill-rule:evenodd;stroke:none"
         d="M 1540.86,34.0156 1645.1,134.215 v 148.422 h -0.87 v 89.226 l -104.24,100.2 c -381.16,0 -766.939,-0.864 -1148.099,-0.864 L 287.652,371.863 v -149.285 0 -88.363 L 391.891,34.0156 c 381.16,0 768.099,0 1148.969,0 z m 54.29,189.4254 v -64.968 l -76.24,-76.2347 c -367.01,0 -740.082,0 -1105.074,0 l -75.941,76.2347 v 124.164 0 65.258 l 75.074,75.082 c 364.992,0 738.931,1.152 1104.791,1.152 l 76.23,-76.234 V 223.441 Z m -54.29,1681.439 104.24,-100.2 v -148.42 h -0.87 V 614.422 L 1539.99,514.223 c -381.16,0 -766.939,1.152 -1148.099,1.152 l -104.239,99.047 v 1109.988 0 80.27 l 104.239,100.2 c 381.16,0 768.099,0 1148.969,0 z m -412.06,-159.39 -10.1,-12.13 c -5.78,2.02 -11.84,12.13 -21.95,6.06 l -2.02,-12.13 c 30.03,-13.85 28.01,4.05 40.14,4.05 16.17,-11.84 23.96,-23.97 23.96,-36.1 0,-7.79 -7.79,-23.96 -23.96,-13.86 -60.07,7.8 -70.17,-16.17 -50.25,-24.25 h 50.25 l -4.05,-13.86 c -6.06,-26.28 -21.94,-34.07 -46.2,-26.28 l -58.04,-1.73 c -36.092,-26.28 -70.166,-42.16 -106.26,-38.12 v -158.53 c 50.246,14.15 92.11,12.13 126.19,-4.04 48.22,40.14 112.32,60.06 206.75,58.33 l 260.46,3.75 c 2.02,-11.83 -9.82,-21.94 -30.03,-32.05 -11.84,-7.8 -106.26,-15.88 -34.08,-25.99 -2.02,-25.98 -56.02,-25.98 -84.03,-40.14 -32.34,-8.08 -34.36,-15.88 -4.04,-23.96 -44.18,-25.99 -92.4,-32.05 -148.42,-12.13 -25.99,14.15 -56.31,14.15 -82.3,2.02 25.99,-48.22 42.16,-96.15 36.1,-152.46 -4.04,-38.12 8.08,-72.19 28.01,-102.22 14.15,-25.99 22.23,-72.19 28.3,-108.286 -2.02,-36.098 5.77,-66.125 28.01,-72.192 23.96,-10.105 23.96,-72.187 36.09,-108.285 30.03,-42.156 56.02,-82.293 66.13,-120.125 l 42.15,-60.348 c -2.02,-36.093 -82.29,-68.148 -108.28,-44.179 l -10.1,50.242 c -34.08,-8.082 -60.07,-4.043 -66.13,23.969 -22.24,-17.907 -46.2,-25.989 -68.15,-17.907 -10.11,6.067 -26.27,78.258 -56.31,86.055 -11.84,12.125 -17.9,26.274 -23.96,44.18 -28.01,12.125 -50.25,34.07 -66.125,66.125 -44.184,8.086 -90.383,22.234 -136.297,40.136 19.926,-30.031 39.847,-47.933 58.043,-43.89 23.965,-36.094 40.133,-86.34 70.164,-112.328 l -6.063,43.894 c 74.208,10.106 84.318,-96.16 24.258,-110.308 -32.344,-5.774 -54.289,10.105 -68.437,44.179 -36.094,14.149 -75.946,36.094 -118.102,60.352 -12.129,41.871 -36.094,77.965 -90.383,98.176 -4.043,0 -8.082,6.062 -10.105,8.086 -15.883,72.187 -47.934,118.101 -98.176,148.134 -32.055,20.21 -44.184,168.64 -28.012,246.89 21.946,58.04 36.094,126.18 36.094,196.35 6.063,20.22 6.063,42.16 0,64.11 34.074,38.11 36.098,62.37 2.024,68.43 17.902,34.08 80.273,70.17 53.996,106.27 32.343,9.82 70.168,45.91 98.468,86.05 0,23.96 15.879,46.2 49.953,66.13 l 2.02,-56.02 c 18.195,10.1 38.117,15.87 54.289,17.89 l -4.043,-30.02 c 23.965,0 49.953,-2.03 70.168,-10.11 h 144.376 c 12.13,2.02 28.01,4.04 28.01,-15.88 z m -180.472,-2.03 c 8.086,-8.08 8.086,-14.14 0,-23.96 l -40.137,5.77 c 2.02,10.11 16.172,16.18 40.137,18.19 z m -60.062,-172.38 -34.071,10.1 c -10.105,-96.44 0,-170.65 17.903,-234.76 -4.043,70.17 0,144.38 16.168,224.66 z m 28.011,-180.47 2.024,-64.11 c 2.019,-40.14 14.148,-64.39 42.156,-76.23 23.965,-12.13 53.993,-72.2 72.183,-112.33 10.11,-22.23 6.07,-36.1 -12.12,-38.12 -28.008,-16.17 -13.86,-25.98 2.02,-14.14 14.15,8.08 48.23,-2.03 60.06,-21.95 24.26,-6.07 34.08,0 32.34,19.92 -8.08,20.22 -22.23,32.06 -42.15,32.06 -14.16,16.17 6.06,26.27 32.05,32.34 40.14,90.09 13.86,222.34 -86.34,242.56 0,-28.02 -13.86,-30.04 -38.117,-10.11 -21.949,4.04 -66.129,23.96 -64.106,10.11 z M 733.781,1123.79 c 23.969,-2.02 40.137,-47.93 62.086,-44.18 4.039,-25.99 22.235,-36.09 52.266,-32.05 64.101,8.08 58.039,-30.03 17.902,-36.1 -108.285,-13.858 -190.293,30.04 -168.347,90.38 10.105,17.91 21.945,21.95 36.093,21.95 z m 222.633,58.33 c -84.316,21.94 -96.156,-30.32 -52.266,-48.22 38.118,-14.15 34.075,-38.12 10.106,-70.17 -8.082,-18.19 28.012,-28.01 32.055,-6.07 4.043,19.93 14.148,38.12 34.074,56.02 24.257,28.3 14.148,54.29 -23.969,68.44 z M 755.727,915.309 c -19.926,40.132 34.363,46.199 58.328,6.062 C 836,845.137 858.234,813.086 886.246,811.066 876.141,796.914 864.012,790.852 850.152,790.852 836,830.992 803.949,873.148 755.727,915.309 Z m 308.973,53.996 c -30.03,26.277 -88.36,-49.953 -48.22,-60.063 32.05,-10.105 58.32,-42.156 78.25,-96.156 l 54.29,-62.082 45.91,-28.301 c 12.12,-11.836 30.03,-25.988 6.06,36.098 -28.01,4.043 -30.03,70.168 -44.18,104.242 -9.81,44.18 -94.13,62.371 -92.11,106.262 z m 58.04,-3.754 c -17.9,66.129 34.07,51.979 60.35,3.754 21.95,-70.168 43.89,-122.145 62.09,-140.336 32.05,-38.117 -21.95,-60.063 -23.97,-19.922 -2.03,72.183 -72.19,100.195 -98.47,156.504 z M 1275.2,736.855 c -6.06,12.125 -32.05,8.083 -19.92,-19.925 17.9,-4.043 23.97,-16.172 23.97,-38.117 0,-54.286 34.07,-42.157 25.98,0 -13.85,13.863 -25.98,32.054 -30.03,58.042 z m 319.95,986.685 v 56.89 l -76.24,76.23 c -367.01,0 -740.082,0 -1105.074,0 l -75.941,-76.23 v -124.17 0 -1017.584 l 75.074,-75.367 c 364.992,0 738.931,-0.864 1104.791,-0.864 l 76.23,76.231 V 1723.54 Z M 397.957,375.039 V 129.305 h 89.223 v 85.183 l 41.008,-85.183 h 87.203 l -60.063,145.246 89.227,100.488 H 587.379 L 487.18,269.645 v 105.394 z m 963.583,0 h 186.25 L 1467.8,173.484 h 66.13 v -44.179 h -172.39 l 77.97,210.508 h -77.97 z M 623.477,129.305 703.75,375.039 h 57.176 l 91.246,-217.726 v 217.726 h 89.226 l 41.004,-117.523 45.048,117.523 h 73.34 V 129.305 h -71.32 l -2.02,111.172 -45.911,-111.172 H 941.398 L 896.355,240.477 V 129.305 H 757.75 l -12.996,30.898 h -73.055 l -8.953,-30.898 z m 60.062,66.996 24.254,67.277 23.102,-67.277 z m 434.291,-66.996 80.28,245.734 h 57.17 l 98.18,-245.734 H 1252.1 l -12.99,30.898 h -73.06 l -9.24,-30.898 z m 60.06,66.996 24.26,67.277 22.81,-67.277 z" /></g></g></svg>