<?xml version="1.0" encoding="UTF-8" standalone="no"?>
<svg
   xmlns:dc="http://purl.org/dc/elements/1.1/"
   xmlns:cc="http://creativecommons.org/ns#"
   xmlns:rdf="http://www.w3.org/1999/02/22-rdf-syntax-ns#"
   xmlns:svg="http://www.w3.org/2000/svg"
   xmlns="http://www.w3.org/2000/svg"
   viewBox="0 0 130.22667 251.14667"
   height="251.14667"
   width="130.22667"
   xml:space="preserve"
   id="svg2"
   version="1.1"><metadata
     id="metadata8"><rdf:RDF><cc:Work
         rdf:about=""><dc:format>image/svg+xml</dc:format><dc:type
           rdf:resource="http://purl.org/dc/dcmitype/StillImage" /></cc:Work></rdf:RDF></metadata><defs
     id="defs6"><clipPath
       id="clipPath24"
       clipPathUnits="userSpaceOnUse"><path
         id="path22"
         d="m 779.359,889.398 c 112.696,87.118 185.352,223.542 185.352,377.012 0,153.47 -72.656,289.9 -185.352,377.02 v 153.71 c -86.347,47.45 -185.527,74.47 -291.007,74.47 -100.985,0 -196.172,-24.77 -279.883,-68.52 v -151.3 C 89.4375,1565.18 11.9961,1424.88 11.9961,1266.41 c 0,-158.46 77.4414,-298.769 196.4729,-385.371 V 80.5117 c 83.711,-43.75 178.898,-68.5234 279.883,-68.5234 105.48,0 204.66,27.0234 291.007,74.4726 z" /></clipPath><linearGradient
       id="linearGradient32"
       spreadMethod="pad"
       gradientTransform="matrix(1517.8,-443.955,-443.955,-1517.8,-27.4107,1092.66)"
       gradientUnits="userSpaceOnUse"
       y2="0"
       x2="1"
       y1="0"
       x1="0"><stop
         id="stop26"
         offset="0"
         style="stop-opacity:1;stop-color:#ffffff" /><stop
         id="stop28"
         offset="0.62293036"
         style="stop-opacity:1;stop-color:#ffffff" /><stop
         id="stop30"
         offset="1"
         style="stop-opacity:1;stop-color:#d91920" /></linearGradient><clipPath
       id="clipPath42"
       clipPathUnits="userSpaceOnUse"><path
         id="path40"
         d="m 939.223,1266.41 c 0,150.37 -73.672,283.45 -186.828,365.37 v 155.68 c -19.063,9.69 -38.719,18.33 -58.915,25.91 v -145.49 c -23.332,11.94 -47.785,21.98 -73.242,29.76 v 137.85 c -28.574,6.6 -57.949,11.08 -87.968,13.32 v -133.69 c -14.454,1.4 -29.094,2.16 -43.918,2.16 -14.942,0 -29.715,-0.76 -44.286,-2.19 v 133.69 c -30.011,-2.24 -59.394,-6.76 -87.968,-13.38 v -137.87 c -22.422,-6.87 -44.094,-15.44 -64.883,-25.57 v 144.34 c -20.176,-7.23 -39.836,-15.55 -58.918,-24.87 V 1637.45 C 114.633,1556.1 37.4844,1420.29 37.4844,1266.41 c 0,-153.88 77.1486,-289.683 194.8126,-371.035 V 92.6602 c 19.082,-9.3204 38.742,-17.6289 58.918,-24.8594 V 860.859 c 20.789,-10.121 42.461,-18.687 64.883,-25.558 V 48.6992 c 28.574,-6.6289 57.957,-11.1406 87.968,-13.3789 V 817.738 c 14.571,-1.429 29.344,-2.199 44.286,-2.199 14.824,0 29.464,0.77 43.918,2.16 V 35.3008 c 30.019,2.2187 59.394,6.7187 87.968,13.3086 V 835.191 c 25.457,7.778 49.91,17.821 73.242,29.75 V 70.7305 c 20.196,7.5703 39.852,16.2304 58.915,25.8984 V 901.047 c 113.156,81.914 186.828,215.003 186.828,365.363 z" /></clipPath><radialGradient
       id="radialGradient48"
       spreadMethod="pad"
       gradientTransform="matrix(789.959,0,0,-789.959,426.403,1580.23)"
       gradientUnits="userSpaceOnUse"
       r="1"
       cy="0"
       cx="0"
       fy="0"
       fx="0"><stop
         id="stop44"
         offset="0"
         style="stop-opacity:1;stop-color:#f1a18b" /><stop
         id="stop46"
         offset="1"
         style="stop-opacity:1;stop-color:#d91920" /></radialGradient><clipPath
       id="clipPath60"
       clipPathUnits="userSpaceOnUse"><path
         id="path58"
         d="m 488.352,1614.16 c -192.051,0 -347.743,-155.7 -347.743,-347.75 0,-192.05 155.692,-347.754 347.743,-347.754 192.062,0 347.746,155.704 347.746,347.754 0,192.05 -155.684,347.75 -347.746,347.75 z" /></clipPath><radialGradient
       id="radialGradient66"
       spreadMethod="pad"
       gradientTransform="matrix(509.517,0,0,-509.517,486.335,1516.51)"
       gradientUnits="userSpaceOnUse"
       r="1"
       cy="0"
       cx="0"
       fy="0"
       fx="0"><stop
         id="stop62"
         offset="0"
         style="stop-opacity:1;stop-color:#f1a18b" /><stop
         id="stop64"
         offset="1"
         style="stop-opacity:1;stop-color:#d91920" /></radialGradient></defs><g
     transform="matrix(1.3333333,0,0,-1.3333333,0,251.14667)"
     id="g10"><g
       transform="scale(0.1)"
       id="g12"><path
         id="path14"
         style="fill:#ffffff;fill-opacity:1;fill-rule:nonzero;stroke:none"
         d="m 779.359,889.398 c 112.696,87.118 185.352,223.542 185.352,377.012 0,153.47 -72.656,289.9 -185.352,377.02 v 153.71 c -86.347,47.45 -185.527,74.47 -291.007,74.47 -100.985,0 -196.172,-24.77 -279.883,-68.52 v -151.3 C 89.4375,1565.18 11.9961,1424.88 11.9961,1266.41 c 0,-158.46 77.4414,-298.769 196.4729,-385.371 V 80.5117 c 83.711,-43.75 178.898,-68.5234 279.883,-68.5234 105.48,0 204.66,27.0234 291.007,74.4726 V 889.398" /><path
         id="path16"
         style="fill:none;stroke:#d91920;stroke-width:23.98999977;stroke-linecap:butt;stroke-linejoin:miter;stroke-miterlimit:4;stroke-dasharray:none;stroke-opacity:1"
         d="m 779.359,889.398 c 112.696,87.118 185.352,223.542 185.352,377.012 0,153.47 -72.656,289.9 -185.352,377.02 v 153.71 c -86.347,47.45 -185.527,74.47 -291.007,74.47 -100.985,0 -196.172,-24.77 -279.883,-68.52 v -151.3 C 89.4375,1565.18 11.9961,1424.88 11.9961,1266.41 c 0,-158.46 77.4414,-298.769 196.4729,-385.371 V 80.5117 c 83.711,-43.75 178.898,-68.5234 279.883,-68.5234 105.48,0 204.66,27.0234 291.007,74.4726 z" /><g
         id="g18"><g
           clip-path="url(#clipPath24)"
           id="g20"><path
             id="path34"
             style="fill:url(#linearGradient32);fill-opacity:1;fill-rule:nonzero;stroke:none"
             d="m 779.359,889.398 c 112.696,87.118 185.352,223.542 185.352,377.012 0,153.47 -72.656,289.9 -185.352,377.02 v 153.71 c -86.347,47.45 -185.527,74.47 -291.007,74.47 -100.985,0 -196.172,-24.77 -279.883,-68.52 v -151.3 C 89.4375,1565.18 11.9961,1424.88 11.9961,1266.41 c 0,-158.46 77.4414,-298.769 196.4729,-385.371 V 80.5117 c 83.711,-43.75 178.898,-68.5234 279.883,-68.5234 105.48,0 204.66,27.0234 291.007,74.4726 V 889.398" /></g></g><g
         id="g36"><g
           clip-path="url(#clipPath42)"
           id="g38"><path
             id="path50"
             style="fill:url(#radialGradient48);fill-opacity:1;fill-rule:nonzero;stroke:none"
             d="m 939.223,1266.41 c 0,150.37 -73.672,283.45 -186.828,365.37 v 155.68 c -19.063,9.69 -38.719,18.33 -58.915,25.91 v -145.49 c -23.332,11.94 -47.785,21.98 -73.242,29.76 v 137.85 c -28.574,6.6 -57.949,11.08 -87.968,13.32 v -133.69 c -14.454,1.4 -29.094,2.16 -43.918,2.16 -14.942,0 -29.715,-0.76 -44.286,-2.19 v 133.69 c -30.011,-2.24 -59.394,-6.76 -87.968,-13.38 v -137.87 c -22.422,-6.87 -44.094,-15.44 -64.883,-25.57 v 144.34 c -20.176,-7.23 -39.836,-15.55 -58.918,-24.87 V 1637.45 C 114.633,1556.1 37.4844,1420.29 37.4844,1266.41 c 0,-153.88 77.1486,-289.683 194.8126,-371.035 V 92.6602 c 19.082,-9.3204 38.742,-17.6289 58.918,-24.8594 V 860.859 c 20.789,-10.121 42.461,-18.687 64.883,-25.558 V 48.6992 c 28.574,-6.6289 57.957,-11.1406 87.968,-13.3789 V 817.738 c 14.571,-1.429 29.344,-2.199 44.286,-2.199 14.824,0 29.464,0.77 43.918,2.16 V 35.3008 c 30.019,2.2187 59.394,6.7187 87.968,13.3086 V 835.191 c 25.457,7.778 49.91,17.821 73.242,29.75 V 70.7305 c 20.196,7.5703 39.852,16.2304 58.915,25.8984 V 901.047 c 113.156,81.914 186.828,215.003 186.828,365.363" /></g></g><path
         id="path52"
         style="fill:#ffffff;fill-opacity:1;fill-rule:nonzero;stroke:none"
         d="m 488.383,1647.37 c -210.391,0 -380.949,-170.56 -380.949,-380.94 0,-210.39 170.558,-380.95 380.949,-380.95 210.379,0 380.937,170.56 380.937,380.95 0,210.38 -170.558,380.94 -380.937,380.94" /><g
         id="g54"><g
           clip-path="url(#clipPath60)"
           id="g56"><path
             id="path68"
             style="fill:url(#radialGradient66);fill-opacity:1;fill-rule:nonzero;stroke:none"
             d="m 488.352,1614.16 c -192.051,0 -347.743,-155.7 -347.743,-347.75 0,-192.05 155.692,-347.754 347.743,-347.754 192.062,0 347.746,155.704 347.746,347.754 0,192.05 -155.684,347.75 -347.746,347.75" /></g></g><path
         id="path70"
         style="fill:#ffffff;fill-opacity:1;fill-rule:nonzero;stroke:none"
         d="m 530.121,1543.68 h 84.531 L 510.297,1419.5 624.047,1281.4 h -88.359 l -88,113.75 h -0.692 V 1281.4 h -68.183 v 262.28 h 68.183 V 1435.5 h 0.692 l 82.433,108.18" /><path
         id="path72"
         style="fill:#ffffff;fill-opacity:1;fill-rule:nonzero;stroke:none"
         d="m 405.402,1083.4 h 0.696 l 54.961,169.4 h 54.257 l 51.485,-169.4 h 0.691 l 49.395,169.4 h 70.957 L 604.016,990.531 h -69.571 l -45.906,152.009 h -0.703 L 436.359,990.531 H 367.133 L 288.871,1252.8 h 70.957 l 45.574,-169.4" /></g></g></svg>