<svg id="Layer_1" xmlns="http://www.w3.org/2000/svg" xmlns:xlink="http://www.w3.org/1999/xlink" viewBox="0 0 150 150" style="enable-background:new 0 0 150 150"><style>.st0{fill:#cc2229}</style><g><path class="st0" d="M74 80.2H29.6l-22 38.6h44.5L74 80.2v0zM96.5 40.6l-22.2-39-22.2 39 22.2 39.1L96.5 40.6zM96.5 118.9H141l-22-38.6H74.6L96.5 118.9v0z"/><path d="M94.5 149.1h3.3v-17.8h-3.3V149.1zM131.8 149.1h3.3v-17.8h-3.3V149.1zM32.1 149.1h3.3v-17.8h-3.3V149.1zM48.1 131.4H37.8v3h3.4v14.7h3.4v-14.7h3.4L48.1 131.4v0zM125.1 138.1h-7.5v-6.7h-3.3v17.8h3.3v-8h7.5v8h3.3v-17.8h-3.3V138.1zM21.4 139.3l-3.1-7.9h-3.8v17.8h3.3v-11l3.6 8.8 3.5-8.9v11.1h3.3v-17.8h-3.7L21.4 139.3v0zM76.3 131.4H73V144c0 1.4-1.5 2.5-2.9 2.5-1.4.0-2.9-1.1-2.9-2.5v-12.7h-3.4v12.5c0 3.2 3 5.8 6.2 5.8 3.2.0 6.2-2.6 6.2-5.8L76.3 131.4v0zM89.1 139.5c.5-.3 2.2-1.3 2.2-3.6.0-3.1-2.5-4.5-4.2-4.6h-7.7v17.8h6.8c2.7.0 5.6-1.3 5.6-4.7C91.9 141.4 90.5 140.3 89.1 139.5v0zM86.4 146.1h-3.6v-11.7h3.5c.9.0 1.7.8 1.7 1.7s-.4 2-1.6 2h-1.5v3h1.6c.9.0 2.2.9 2.2 2.7C88.6 145.4 87.3 146.1 86.4 146.1v0zM49.4 143.3c0 .2.0.4.0.7.0 3.1 2.5 5.4 5.5 5.4 3.1.0 5.5-2.1 5.5-5.1.0-1.6-.6-2.9-1.7-3.9-.9-.8-3.4-2.1-4.4-2.7-.9-.6-1.4-1-1.4-1.8.0-1.2.8-2.1 2-2.1 1.2.0 2.2 1 2.2 2.2v0c0 .3.0.6.0.8H60v-.8c0-2.9-1.8-5.1-5.2-5.1-2.9.0-5.2 2-5.2 5.1.0 1.4.7 2.8 2.3 3.8 1.7 1.1 3.9 2 4.6 2.7.4.4.7 1 .7 1.7.0 1.3-1.1 2.3-2.4 2.3s-2.4-1.2-2.6-2.3c0-.3-.1-.8-.1-1L49.4 143.3v0 0zm56.1-5.5c-.9-.6-1.4-1-1.4-1.8.0-1.2.8-2.1 2-2.1 1.2.0 2.2 1 2.2 2.2.0.3.0.6.0.8h2.9v-.8c0-2.9-1.8-5.1-5.2-5.1-2.9.0-5.2 2-5.2 5.1.0 1.4.7 2.8 2.3 3.8 1.7 1.1 3.9 2 4.6 2.7.4.4.7 1 .7 1.7.0 1.3-1.1 2.3-2.4 2.3-1.3.0-2.4-1.2-2.6-2.3.0-.3-.1-.8-.1-1h-2.9c0 .2.0.4.0.7.0 3.1 2.5 5.4 5.5 5.4 3.1.0 5.5-2.1 5.5-5.1.0-1.6-.6-2.9-1.7-3.9C109.1 139.6 106.5 138.4 105.5 137.8v0z"/></g></svg>