<svg id="Layer_1" xmlns="http://www.w3.org/2000/svg" xmlns:xlink="http://www.w3.org/1999/xlink" viewBox="0 0 150 150" style="enable-background:new 0 0 150 150"><style>.st0{fill:#374e8e}.st1{fill:#ca3132}</style><path class="st0" d="M6.3 56.2c-1.3.0-2.3.4-3 1.2-1.1 1.1-1.6 2.1-1.6 3.3v30.5c0 1.2.5 2.3 1.3 3 1 1 2 1.5 3.3 1.5h138.5c1.1.0 1.9-.4 3-1.5.8-.4 1.3-1.5 1.3-3V60.7c0-1.4-.5-2.6-1.3-3.3-.8-.8-1.8-1.2-3-1.2H6.3zM37.6 64.6H44v22.6h-6.3V64.6H37.6zm-27.8.0h10.3L27 81.8V64.6h6.3v22.6h-10l-7.2-17.8v17.8H9.8V64.6v0zm43.8.0h13v5.1H53.9v3.6h6.6c5.5.0 8.2 2.3 8.2 7 0 1.9-.6 3.6-1.8 5.1-1.5 1.3-3 1.8-4.5 1.8H47.9v-5.1H62v-3.6h-6.9c-2.6.0-4.5-.6-5.8-1.8-1.2-1.2-1.8-3.1-1.8-5.7.0-2.4.4-4.1 1.4-4.8C50.1 65.1 51.6 64.6 53.6 64.6v0zm35.9.0v5.1H76.8v3.6h6.6c5.5.0 8.2 2.3 8.2 7 0 1.9-.7 3.8-2.1 5.1-1.2 1.3-2.7 1.8-4.5 1.8H71.1v-5.1H85v-3.6h-7c-2.8.0-5-.8-6.3-2.4-1.1-1.3-1.5-3-1.5-5.1.0-2.3.6-4 1.8-4.8 1.1-1.1 2.6-1.5 4.5-1.5L89.5 64.6v0zM98.9 64.6h9.3l8.2 22.6h-6.7l-1.2-4.2h-9.7l-1.2 4.2H91L98.9 64.6v0zM117.6 64.6h10.6l6.6 17.2V64.6h6.7v22.6h-9.9l-7.6-17.8v17.8h-6.3L117.6 64.6v0 0z"/><path class="st0" d="M100.7 78.2h6l-3-8.5-3 8.5v0z"/><path class="st1" d="M48.7 32.9c-8.3 5.3-14.3 12.1-18.4 20.2h90.2c-4.3-8.6-10.4-15.6-18.4-20.5-8.2-5-17.1-7.5-26.5-7.5C66.1 25.1 57.1 27.6 48.7 32.9v0zM30.4 98.7c4.1 8.2 10.1 14.9 18.4 20.2 8 5 16.9 7.6 26.9 7.6s18.8-2.6 26.9-7.6c8.3-5.4 14.3-12.2 18.1-20.2H30.4v0z"/></svg>