<?xml version="1.0" encoding="UTF-8" standalone="no"?>
<svg
   xmlns:dc="http://purl.org/dc/elements/1.1/"
   xmlns:cc="http://creativecommons.org/ns#"
   xmlns:rdf="http://www.w3.org/1999/02/22-rdf-syntax-ns#"
   xmlns:svg="http://www.w3.org/2000/svg"
   xmlns="http://www.w3.org/2000/svg"
   viewBox="0 0 258.66666 258.66666"
   height="258.66666"
   width="258.66666"
   xml:space="preserve"
   id="svg2"
   version="1.1"><metadata
     id="metadata8"><rdf:RDF><cc:Work
         rdf:about=""><dc:format>image/svg+xml</dc:format><dc:type
           rdf:resource="http://purl.org/dc/dcmitype/StillImage" /></cc:Work></rdf:RDF></metadata><defs
     id="defs6" /><g
     transform="matrix(1.3333333,0,0,-1.3333333,0,258.66667)"
     id="g10"><g
       transform="scale(0.1)"
       id="g12"><path
         id="path14"
         style="fill:#ffffff;fill-opacity:1;fill-rule:evenodd;stroke:none"
         d="M 2.59766,1933.23 H 1930.16 V 5.66797 H 2.59766 V 1933.23" /><path
         id="path16"
         style="fill:#231f20;fill-opacity:1;fill-rule:evenodd;stroke:none"
         d="m 1491.68,130.758 c 0,47.586 20.8,72.164 55.78,72.164 33.09,0 51.36,-24.578 51.36,-72.164 0,-47.2697 -18.27,-72.1642 -51.36,-72.1642 -34.98,0 -55.78,24.8945 -55.78,72.1642 v 0 0 z m -57.66,0 c 0,-57.6682 45.37,-96.7424 113.44,-96.7424 65.86,0 111.24,39.0742 111.24,96.7424 0,57.668 -45.38,92.961 -111.24,92.961 -68.07,0 -113.44,-35.293 -113.44,-92.961 v 0 0 z m -18.6,88.547 h -100.84 v -20.481 c 20.49,0 22.69,-9.457 22.69,-34.98 v 0 -68.0627 0 c 0,-23.3204 -2.2,-32.7774 -22.69,-32.7774 v 0 -22.6875 h 100.84 v 22.6875 0 c -22.37,0 -24.58,8.1953 -24.58,32.7774 v 0 68.0627 0 c 0,26.785 2.21,34.98 24.58,34.98 v 0 20.481 0 z M 1240.53,36.2227 h 28.68 v 51.3632 c 0,16.3871 6.3,22.6871 24.89,26.7851 v 0 20.484 h -97.06 v -20.484 0 c 16.71,-2.207 26.79,-6.305 26.79,-18.5897 0,-18.5938 -18.28,-30.8829 -45.06,-30.8829 -33.09,0 -51.68,22.6875 -51.68,65.8596 0,45.375 18.59,70.273 53.57,70.273 26.79,0 47.27,-14.496 65.86,-47.586 v 0 l 22.69,8.196 -20.49,59.871 h -18.59 l -4.09,-6.301 v 0 c -16.39,6.301 -30.89,10.398 -47.27,10.398 -57.67,0 -107.14,-33.089 -107.14,-94.851 0,-57.6682 36.87,-96.7424 94.53,-96.7424 24.9,0 47.59,8.1914 63.97,20.4844 v 0 l 10.4,-18.2773 v 0 z m -245.163,0 h 30.883 v 51.3632 c 0,16.3871 4.1,22.6871 22.69,26.7851 v 0 20.484 h -97.057 v -20.484 0 c 18.59,-2.207 26.785,-6.305 26.785,-18.5897 0,-18.5938 -16.387,-30.8829 -45.379,-30.8829 -32.769,0 -51.363,22.6875 -51.363,65.8596 0,45.375 18.594,70.273 53.57,70.273 26.785,0 47.266,-14.496 65.864,-47.586 v 0 l 24.89,8.196 -20.8,59.871 h -18.591 l -5.988,-6.301 v 0 c -16.383,6.301 -30.879,10.398 -47.582,10.398 -56.723,0 -104.937,-34.664 -104.937,-94.851 0,-58.2971 36.558,-96.7424 94.855,-96.7424 22.688,0 45.375,8.1914 63.652,20.4844 v 0 l 8.508,-18.2773 v 0 z m -317.324,4.0937 v 22.6875 c -18.594,0 -24.895,4.1016 -24.895,10.0859 0,4.0977 0,6.3047 2.207,8.1954 v 0 l 8.192,24.8908 h 65.859 l 10.399,-24.8908 v 0 c 1.261,-2.836 1.89,-5.9883 1.89,-10.086 0,-6.3008 -7.246,-8.1953 -20.48,-8.1953 v 0 h -2.203 V 40.3164 h 103.043 v 22.6875 0 c -18.282,1.8945 -21.746,9.1406 -28.68,24.582 v 0 L 731.613,219.305 H 686.234 L 626.363,93.8906 v 0 C 617.855,75.9258 611.867,64.8984 587.289,63.0039 v 0 -22.6875 h 90.754 v 0 z m -2.207,86.3436 22.687,53.574 20.489,-53.574 h -43.176 v 0 z m -92.645,92.645 H 482.039 v -20.481 c 22.688,0 24.895,-9.457 24.895,-34.98 v 0 -68.0627 0 c 0,-23.3204 -2.207,-32.7774 -24.895,-32.7774 v 0 -22.6875 h 101.152 v 22.6875 0 c -22.687,0 -22.687,8.1953 -22.687,32.7774 v 0 68.0627 0 c 0,26.785 0,34.98 22.687,34.98 v 0 20.481 0 z M 352.523,137.063 v 39.07 c 0,14.496 1.891,22.691 20.485,22.691 24.578,0 39.07,-10.398 39.07,-30.883 0,-20.484 -16.383,-30.878 -51.363,-30.878 -2.203,0 -4.094,0 -8.192,0 v 0 0 z m 32.774,82.242 H 274.059 v -20.481 c 20.484,0 22.687,-9.457 22.687,-34.98 v 0 -68.0627 0 c 0,-23.3204 -2.203,-32.7774 -22.687,-32.7774 v 0 -22.6875 h 100.839 v 22.6875 0 c -20.484,0 -22.375,8.1953 -22.375,32.7774 v 0 18.5897 h 36.872 v 0 c 53.57,0 78.464,16.387 78.464,51.363 0,37.188 -28.046,53.571 -82.562,53.571 v 0 0" /><path
         id="path18"
         style="fill:#6e87cd;fill-opacity:1;fill-rule:evenodd;stroke:none"
         d="M 274.059,1507.2 958.188,1904.88 1642.31,1507.2 V 722.238 L 958.188,318.254 274.059,722.238 v 784.962 0" /><path
         id="path20"
         style="fill:#ffffff;fill-opacity:1;fill-rule:evenodd;stroke:none"
         d="M 1013.64,957.004 V 604.699 H 898.313 V 963.305 C 824.262,915.723 743.902,841.668 649.051,841.668 c -127.621,0 -230.668,107.141 -230.668,239.172 0,74.06 28.676,139.92 78.152,181.2 v 0 0 0 c 152.516,123.52 428.563,197.89 453.457,370.89 4.098,-162.91 313.228,-247.37 469.838,-370.89 v 0 l -2.2,-4.1 v 0 c 45.38,-43.17 76.26,-107.14 76.26,-177.1 0,-132.031 -92.65,-206.086 -191.59,-228.774 -101.16,0 -210.19,53.571 -288.66,104.938 v 0 0 z m 6.31,138.016 c 45.37,-22.68 191.59,-117.219 241.07,-117.219 55.77,0 103.04,47.269 103.04,103.039 0,24.58 -2.2,69.96 -41.28,96.75 v 0 l -302.83,177.09 v -259.66 0 z m -325.52,-107.137 4.093,-1.891 189.707,111.238 v 257.45 L 603.676,1173.49 v 0 c 0,-2.21 -1.891,-4.1 -4.098,-4.1 v 0 l -16.387,-10.4 v -4.09 0 c -18.589,-18.6 -30.882,-43.17 -30.882,-72.17 0,-57.66 45.379,-103.039 103.046,-103.039 14.497,0 26.786,4.094 39.075,8.192 v 0 0" /></g></g></svg>