<?xml version="1.0" encoding="UTF-8" standalone="no"?>
<svg
   xmlns:dc="http://purl.org/dc/elements/1.1/"
   xmlns:cc="http://creativecommons.org/ns#"
   xmlns:rdf="http://www.w3.org/1999/02/22-rdf-syntax-ns#"
   xmlns:svg="http://www.w3.org/2000/svg"
   xmlns="http://www.w3.org/2000/svg"
   viewBox="0 0 258.66666 258.66666"
   height="258.66666"
   width="258.66666"
   xml:space="preserve"
   id="svg2"
   version="1.1"><metadata
     id="metadata8"><rdf:RDF><cc:Work
         rdf:about=""><dc:format>image/svg+xml</dc:format><dc:type
           rdf:resource="http://purl.org/dc/dcmitype/StillImage" /></cc:Work></rdf:RDF></metadata><defs
     id="defs6" /><g
     transform="matrix(1.3333333,0,0,-1.3333333,0,258.66667)"
     id="g10"><g
       transform="scale(0.1)"
       id="g12"><path
         id="path14"
         style="fill:#ffffff;fill-opacity:1;fill-rule:evenodd;stroke:none"
         d="M 2.59766,1933.23 H 1930.16 V 5.66797 H 2.59766 V 1933.23" /><path
         id="path16"
         style="fill:#ed1c24;fill-opacity:1;fill-rule:evenodd;stroke:none"
         d="M 87.6367,950.801 V 879.898 H 249.609 v 80.985 h 31.586 c 20.164,0 53.766,-3.363 84.344,-10.082 35.621,-7.727 67.211,-20.5 67.211,-38.645 0,-15.121 -23.523,-32.258 -24.195,-32.258 h 231.531 c 0,0 -5.715,25.536 -17.813,42.34 -7.73,11.09 -17.472,20.836 -32.257,28.563 -12.77,6.719 -29.235,12.097 -51.75,15.793 v 3.699 c 10.418,0 38.308,10.078 62.504,26.207 32.593,21.84 38.644,62.5 38.644,62.5 h -229.18 c 0,0 19.153,-15.79 19.153,-30.24 0,-30.24 -108.203,-53.092 -147.52,-53.092 H 249.609 V 1059 H 87.6367 Z m 592.7733,0 V 1058 h 58.133 v -57.8 l 51.414,57.8 h 68.219 l -64.86,-67.211 25.875,-39.988 46.039,-70.903 h -69.894 l -43.012,70.903 -13.781,-14.449 V 879.898 H 680.41 Z m 199.27,0 c 27.554,11.09 67.879,4.703 67.879,20.832 0,9.41 -11.422,10.418 -16.801,10.418 -7.395,0 -16.801,-1.344 -18.145,-12.434 h -49.398 c 0,27.559 19.488,43.343 70.566,43.343 61.496,0 65.192,-22.507 65.192,-53.425 v -8.734 -52.086 c 0,-7.391 0.34,-11.09 7.057,-16.465 v -2.352 h -53.428 l -2.352,13.774 c -14.453,-13.774 -29.57,-17.473 -48.73,-17.473 -24.528,0 -46.372,12.102 -46.372,38.981 0,19.828 10.754,29.91 24.532,35.621 z m 133.07,0 -19.488,58.469 h 50.068 l 14.45,-58.469 5.38,-21.508 5.71,21.508 14.79,58.469 h 43.68 l 14.45,-58.469 5.38,-21.508 5.37,21.508 15.13,58.469 h 48.72 l -18.82,-58.469 -22.51,-70.903 h -50.07 l -18.82,70.903 -1.35,5.039 -1.34,-5.039 -17.14,-70.903 h -50.4 z m 213.05,0 c 27.22,11.09 67.54,4.703 67.54,20.832 0,9.41 -11.09,10.418 -16.8,10.418 -7.06,0 -16.8,-1.344 -17.81,-12.434 H 1209 c 0,27.559 19.82,43.343 70.9,43.343 61.16,0 64.86,-22.507 64.86,-53.425 v -8.734 -52.086 c 0,-7.391 0.33,-11.09 7.05,-16.465 v -2.352 h -53.09 l -2.69,13.774 c -14.45,-13.774 -29.23,-17.473 -48.73,-17.473 -24.19,0 -46.03,12.102 -46.03,38.981 0,19.828 10.42,29.91 24.53,35.621 z m 133.41,0 c -3.7,5.039 -5.71,11.426 -5.71,19.492 0,33.267 34.27,42.667 61.49,42.667 28.22,0 61.16,-6.38 64.18,-40.655 h -46.71 c -0.67,4.371 -2.35,7.058 -5.04,9.41 -2.69,2.351 -6.38,3.363 -10.42,3.363 -8.73,0 -14.45,-3.027 -14.45,-9.41 0,-12.77 40.66,-10.418 64.52,-24.867 10.09,-6.051 17.14,-15.121 17.14,-29.571 0,-26.886 -22.17,-45.031 -69.56,-45.031 -29.57,0 -62.5,9.074 -65.19,44.024 h 49.06 c 0,-5.379 2.02,-9.41 5.38,-12.098 3.36,-2.355 7.73,-3.695 12.77,-3.695 7.73,0 16.13,2.351 16.13,11.422 0,17.476 -55.78,8.738 -73.59,34.949 z m 151.55,0 c 27.22,11.09 67.54,4.703 67.54,20.832 0,9.41 -11.42,10.418 -16.8,10.418 -7.05,0 -16.8,-1.344 -18.14,-12.434 h -49.4 c 0,27.559 19.49,43.343 70.9,43.343 61.16,0 64.85,-22.507 64.85,-53.425 v -8.734 -52.086 c 0,-7.391 0.34,-11.09 7.06,-16.465 v -2.352 h -53.43 l -2.35,13.774 c -14.45,-13.774 -29.23,-17.473 -48.72,-17.473 -24.54,0 -46.38,12.102 -46.38,38.981 0,19.828 10.76,29.91 24.87,35.621 z m 129.04,0 V 1058 h 51.41 v -88.047 l 32.93,39.317 h 60.16 l -48.06,-50.067 5.71,-8.402 48.73,-70.903 h -61.83 l -27.89,46.036 -9.75,-9.746 v -36.29 h -51.41 z m 153.9,58.469 V 879.898 h 51.42 v 129.372 z m 0,53.43 v -36.63 h 51.42 v 36.63 z M 1578.3,937.023 c -16.8,-8.062 -38.98,-4.035 -38.98,-20.835 0,-6.383 6.05,-10.754 16.13,-10.754 18.15,0 24.2,14.113 22.85,31.589 z m -284.96,0 c -16.8,-8.062 -38.98,-4.035 -38.98,-20.835 0,-6.383 6.05,-10.754 16.47,-10.754 17.81,0 23.86,14.113 22.51,31.589 z m -345.781,0 c -16.801,-8.062 -38.981,-4.035 -38.981,-20.835 0,-6.383 6.051,-10.754 16.129,-10.754 18.148,0 24.199,14.113 22.852,31.589" /></g></g></svg>