<?xml version="1.0" encoding="UTF-8" standalone="no"?>
<svg
   xmlns:dc="http://purl.org/dc/elements/1.1/"
   xmlns:cc="http://creativecommons.org/ns#"
   xmlns:rdf="http://www.w3.org/1999/02/22-rdf-syntax-ns#"
   xmlns:svg="http://www.w3.org/2000/svg"
   xmlns="http://www.w3.org/2000/svg"
   viewBox="0 0 795.59998 538.28003"
   height="538.28003"
   width="795.59998"
   xml:space="preserve"
   id="svg2"
   version="1.1"><metadata
     id="metadata8"><rdf:RDF><cc:Work
         rdf:about=""><dc:format>image/svg+xml</dc:format><dc:type
           rdf:resource="http://purl.org/dc/dcmitype/StillImage" /></cc:Work></rdf:RDF></metadata><defs
     id="defs6" /><g
     transform="matrix(1.3333333,0,0,-1.3333333,0,538.28)"
     id="g10"><g
       transform="scale(0.1)"
       id="g12"><path
         id="path14"
         style="fill:#231f20;fill-opacity:1;fill-rule:nonzero;stroke:none"
         d="m 1810.5,3651.6 c 0,0 326.4,188.69 448.81,249.9 L 2346,3784.19 c 0,0 265.21,96.91 423.3,112.21 l 10.21,127.5 c 0,0 290.68,35.69 632.39,-10.21 l 10.19,-127.49 c 0,0 249.89,-30.62 413.1,-102.01 l 71.42,96.91 c 0,0 331.46,-127.51 464.08,-249.91 L 4039.2,3044.7 c 0,0 -423.32,295.8 -887.4,300.9 0,0 -555.89,15.29 -994.5,-295.81 l -346.8,601.81" /><path
         id="path16"
         style="fill:#f9ab27;fill-opacity:1;fill-rule:nonzero;stroke:none"
         d="m 2167.5,3105.89 -300.9,530.41 c 0,0 234.6,153 387.59,203.99 l 76.51,-91.8 c 0,0 346.8,107.09 469.2,112.2 l 10.2,112.21 c 0,0 270.32,51 561.01,5.1 l 20.38,-122.4 c 0,0 290.7,-40.81 459,-117.31 L 3927,3825 c 0,0 209.11,-71.41 392.71,-198.9 l -300.92,-530.41 c 0,0 -851.69,627.31 -1851.29,10.2" /><path
         id="path18"
         style="fill:#231f20;fill-opacity:1;fill-rule:nonzero;stroke:none"
         d="m 1660.86,2361.99 c 47.54,106.75 106.66,207.2 175.76,299.79 l 209.16,-92.07 c 59.2,72.96 125.87,139.63 198.81,198.84 l -75.37,222.82 c 89.97,65.88 187.19,122.4 290.26,168.15 l 148.23,-180.15 c 88.86,34.43 182.24,59.72 279.02,74.75 l 40.65,230.74 c 55.32,5.9 111.47,8.94 168.37,8.94 60.11,0 119.47,-3.38 177.85,-9.95 l 35.96,-230.47 c 50.13,-7.97 99.35,-18.69 147.5,-32.02 l 118.03,53.93 v -96.89 l 158.8,180.27 c 102.01,-45.45 198.3,-101.45 287.44,-166.64 l -81.61,-217.73 c 15.57,-12.44 30.84,-25.24 45.84,-38.35 l 313.74,614.75 433.52,178.51 -443.71,-902.71 76.56,20.59 c 67.57,-92.79 125.21,-193.25 171.39,-299.84 L 4360.49,2198.1 5967,2187.9 4660.14,1856.68 c 3.67,-43.81 5.55,-88.16 5.55,-132.92 0,-56.99 -5.47,-126.07 -11.39,-181.5 l -223.9,-37.52 c -15.57,-97.87 -41.66,-192.22 -77.04,-281.91 l 176.37,-139.14 C 4483.46,980.18 4426.33,882.609 4359.79,792.402 L 4143.75,865.25 C 4082.68,790.34 4013.72,722.09 3938.17,661.77 l 81.82,-207.34 c -91.77,-66.942 -191.08,-124.168 -296.38,-170.2 l -139.74,173.719 c -85.85,-33.289 -175.92,-58.027 -269.18,-73.25 l -56.27,-222.707 c -53.49,-5.5 -107.75,-8.301 -162.67,-8.301 -55.16,0 -120.48,6.008 -174.18,11.579 l -34.26,217.761 c -95.48,14.801 -187.65,39.559 -275.43,73.219 L 2455.59,289.699 c -103.3,46.172 -200.71,103.199 -290.76,169.621 l 82.11,207.512 c -58.7,47.418 -113.34,99.66 -163.33,156.117 L 1887,168.301 1504.51,0 l 265.4,882.441 c -41.94,65.938 -79.09,135.249 -110.98,207.379 l 176.71,139.14 c -36.59,94.12 -62.12,179.7 -76.87,282.71 l -222.47,28.64 c -7,60.17 -10.6,121.39 -10.6,183.45 0,37.77 1.33,75.24 3.94,112.36 L 0,2213.4 l 1820.7,5.09 -159.84,143.5" /><path
         id="path20"
         style="fill:#34409d;fill-opacity:1;fill-rule:nonzero;stroke:none"
         d="m 3285.8,2787.72 c -61.74,10.9 -125.25,16.6 -190.09,16.6 -359.58,0 -678.31,-174.81 -875.87,-444.09 l 75.16,-151.94 306,-137.7 464.11,719.1 71.39,-800.69 193.79,122.4 -44.49,676.32" /><path
         id="path22"
         style="fill:#34409d;fill-opacity:1;fill-rule:nonzero;stroke:none"
         d="m 2170.15,1151.05 c 160.46,-261.081 428.31,-449.081 742.02,-502.499 l -35.77,463.229 -336.6,249.92 -71.41,-117.29 -178.48,311.07 -119.76,-404.43" /><path
         id="path24"
         style="fill:#34409d;fill-opacity:1;fill-rule:nonzero;stroke:none"
         d="m 2947.85,643.07 c 48.34,-6.57 97.68,-9.98 147.86,-9.98 599.57,0 1085.61,486.05 1085.61,1085.62 0,11.98 -0.2,23.9 -0.59,35.8 L 3825,1667.69 3427.2,836.379 3396.61,1178.1 3187.5,1351.5 3243.6,775.191 2947.85,643.07" /><path
         id="path26"
         style="fill:#34409d;fill-opacity:1;fill-rule:nonzero;stroke:none"
         d="m 3873.62,2475.95 c -80.15,82.31 -173.26,151.96 -276.03,205.63 l 33.63,-478.38 91.79,-5.1 150.61,277.85" /><path
         id="path28"
         style="fill:#ffffff;fill-opacity:1;fill-rule:nonzero;stroke:none"
         d="M 1846.21,214.199 1586.1,96.9102 2213.41,2254.19 2478.6,1779.91 3029.4,2651.99 3187.5,816.012 2952.9,703.789 2856.01,1963.51 2468.39,1346.4 2284.79,1667.69 1846.21,214.199" /><path
         id="path30"
         style="fill:#ffffff;fill-opacity:1;fill-rule:nonzero;stroke:none"
         d="m 3452.69,1019.99 -132.59,1897.21 214.2,81.59 91.8,-1106.7 708.9,1417.8 280.49,112.21 -1162.8,-2402.11" /><path
         id="path32"
         style="fill:#66b6e8;fill-opacity:1;fill-rule:nonzero;stroke:none"
         d="m 3330.29,2065.49 -183.61,-132.58 40.82,-510.01 198.91,-173.41 -56.12,816" /><path
         id="path34"
         style="fill:#66b6e8;fill-opacity:1;fill-rule:nonzero;stroke:none"
         d="m 3646.51,2162.39 61.2,-5.09 -40.81,-91.81 h -20.39 v 96.9" /><path
         id="path36"
         style="fill:#66b6e8;fill-opacity:1;fill-rule:nonzero;stroke:none"
         d="m 2815.2,1810.5 56.11,-637.52 -306,239.73 z" /><path
         id="path38"
         style="fill:#66b6e8;fill-opacity:1;fill-rule:nonzero;stroke:none"
         d="m 2585.7,2029.8 -107.1,-163.2 -132.6,239.7 -15.3,40.79 255,-117.29" /><path
         id="path40"
         style="fill:#66b6e8;fill-opacity:1;fill-rule:nonzero;stroke:none"
         d="m 4064.69,2157.3 -214.2,-443.7 1779.91,438.6 z" /><path
         id="path42"
         style="fill:#66b6e8;fill-opacity:1;fill-rule:nonzero;stroke:none"
         d="M 2142,2167.5 336.602,2172.6 2029.8,1769.68 Z" /><path
         id="path44"
         style="fill:#f9ab27;fill-opacity:1;fill-rule:nonzero;stroke:none"
         d="m 2159.17,1087.22 c 202.96,-300.439 546.69,-497.97 936.54,-497.97 623.78,0 1129.48,505.69 1129.48,1129.46 0,15.42 -0.3,30.75 -0.93,46.01 l 382.95,81.47 c 3.23,-40.4 4.87,-81.22 4.87,-122.43 0,-51.62 -2.47,-85.34 -7.5,-135.6 l -222.14,-48.18 c -15.54,-112.95 -48.88,-236.39 -91.52,-338.15 l 170.47,-137.95 C 4424.24,987.141 4380.83,913.992 4331.78,845.141 L 4121.86,922.18 C 4052.25,832.621 3971.22,752.422 3880.91,683.781 l 78.63,-206.562 c -71.31,-49.508 -147.09,-93.078 -226.61,-129.957 l -137.07,172.25 C 3491.39,475.871 3380.02,445.52 3263.77,430.52 l -45.89,-218.411 c -40.3,-3.211 -81.02,-4.847 -122.13,-4.847 -44.71,0 -88.99,1.937 -132.72,5.738 l -35.51,217.52 c -115.49,14.941 -226.22,45.031 -330.12,88.25 L 2448.12,352.129 c -76.04,35.992 -221.71,128.922 -224.03,130.531 l 74.01,202.801 c 0,0 -156.11,156.059 -196.9,207.051 l 57.97,194.708" /><path
         id="path46"
         style="fill:#f9ab27;fill-opacity:1;fill-rule:nonzero;stroke:none"
         d="m 3886.68,2524.93 c -84.72,83.15 -182.5,153.04 -289.96,206.33 l -6.32,175.73 148.78,190.3 c 80.08,-37.6 156.34,-81.98 228.03,-132.41 l -83.9,-213.21 c 30.84,-23.57 60.6,-48.48 89.16,-74.64 l -85.79,-152.1" /><path
         id="path48"
         style="fill:#f9ab27;fill-opacity:1;fill-rule:nonzero;stroke:none"
         d="m 3273.99,2834.19 c -58.06,9.21 -117.62,13.99 -178.28,13.99 -447.07,0 -833.51,-259.76 -1016.55,-636.63 l -187.06,-3.26 5.1,15.3 -169.08,156.05 c 35.51,73.86 76.8,144.39 123.32,211.02 l 216.17,-78.03 c 68.59,88.69 148.43,168.27 237.36,236.6 l -82.03,214.71 c 70.85,49.98 146.17,94.02 225.26,131.44 l 147.35,-177.58 c 102.81,42.94 212.31,73.05 326.5,88.3 l 41.08,228.36 c 43.71,3.78 87.93,5.73 132.62,5.73 39.5,0 78.65,-1.52 117.4,-4.49 l 50.57,-228.83 c 46.73,-6.04 92.66,-14.56 137.69,-25.42 l -122.1,-43.85 -5.32,-103.41" /><path
         id="path50"
         style="fill:#f9ab27;fill-opacity:1;fill-rule:nonzero;stroke:none"
         d="m 1585,1591.65 c -3.75,43.53 -5.66,87.58 -5.66,132.11 0,34.19 1.12,68.1 3.35,101.72 l 380.81,-96.58 v -147.89 l -83.11,-321.81 c -34.95,92.4 -66.44,201.07 -79.54,302.18 L 1585,1591.65" /><path
         id="path52"
         style="fill:#f9ab27;fill-opacity:1;fill-rule:nonzero;stroke:none"
         d="m 1782.33,965.332 c -20.86,36.068 -40.28,73.058 -58.18,110.928 l 126.42,117.93 15.3,-20.4 -83.54,-208.458" /><path
         id="path54"
         style="fill:#f9ab27;fill-opacity:1;fill-rule:nonzero;stroke:none"
         d="m 4100.4,2223.59 10.19,-25.49 178.52,5.1 186.91,149.24 c -36.03,78.99 -78.64,154.35 -127.15,225.38 l -90.36,-22.72 -158.11,-331.51" /><path
         id="path56"
         style="fill:#34409d;fill-opacity:1;fill-rule:nonzero;stroke:none"
         d="m 1922.71,3621 c 0,0 96.9,91.8 321.29,173.39 l 76.5,-102 c 0,0 147.91,91.82 520.21,127.51 v 127.49 c 0,0 270.3,35.7 494.69,5.1 l 5.11,-127.49 c 0,0 306,-30.62 530.39,-132.61 l 76.51,96.91 c 0,0 147.91,-45.9 326.4,-168.3 L 4008.6,3156.89 c 0,0 -912.91,601.8 -1830.9,0 L 1922.71,3621" /><path
         id="path58"
         style="fill:#f9ab27;fill-opacity:1;fill-rule:nonzero;stroke:none"
         d="m 3620.99,3416.99 -40.79,10.21 51.02,214.2 -71.43,20.39 10.21,51.01 203.99,-61.2 -15.29,-51.01 -76.51,30.6 -61.2,-214.2" /><path
         id="path60"
         style="fill:#f9ab27;fill-opacity:1;fill-rule:nonzero;stroke:none"
         d="m 3784.2,3355.79 -50.99,20.41 183.59,219.3 107.1,-56.11 -40.79,-285.59 -45.9,20.4 v 40.8 l -127.51,66.3 -25.5,-25.51" /><path
         id="path62"
         style="fill:#f9ab27;fill-opacity:1;fill-rule:nonzero;stroke:none"
         d="m 2458.21,3386.39 -40.81,-25.49 -35.69,35.7 -122.4,-71.41 5.09,-35.7 -45.9,-20.39 -51,275.4 96.9,51 193.81,-209.11" /><path
         id="path64"
         style="fill:#f9ab27;fill-opacity:1;fill-rule:nonzero;stroke:none"
         d="m 2850.89,3758.7 51.01,5.1 10.19,-193.81 c 0,0 10.2,-30.6 30.61,-30.6 l 76.49,5.11 c 0,0 15.31,5.08 15.31,40.79 l -15.31,173.41 51,5.1 15.3,-198.91 c 0,0 0,-71.4 -50.99,-71.4 l -102,-10.19 c 0,0 -66.3,10.21 -71.4,61.2 l -10.21,214.2" /><path
         id="path66"
         style="fill:#f9ab27;fill-opacity:1;fill-rule:nonzero;stroke:none"
         d="m 2636.69,3539.39 v 51.01 l 76.51,15.3 20.4,-91.8 c 0,0 0,-66.31 -51,-76.5 l -91.8,-10.2 c 0,0 -45.91,-5.1 -66.3,40.8 l -40.8,137.7 c 0,0 -20.38,66.29 35.7,81.6 l 96.9,25.5 c 0,0 76.51,20.41 86.7,-61.2 l -51,-20.41 c 0,0 -15.29,35.7 -40.79,30.6 L 2550,3641.4 c 0,0 -20.41,-10.21 -10.2,-40.81 l 25.51,-101.99 c 0,0 10.2,-20.41 30.6,-20.41 l 71.38,15.3 c 0,0 20.4,5.11 15.31,25.51 l -10.19,25.5 -35.72,-5.11" /><path
         id="path68"
         style="fill:#f9ab27;fill-opacity:1;fill-rule:nonzero;stroke:none"
         d="m 3258.9,3580.2 -51,5.09 c 0,0 5.09,-86.69 51,-96.9 l 107.1,-10.2 c 0,0 56.12,0 66.31,40.81 0,0 -5.14,61.2 -25.53,76.5 l -117.28,91.8 c 0,0 -20.41,20.39 15.3,20.39 l 71.4,-5.09 c 0,0 20.41,-0.02 20.41,-25.51 l 51,-5.1 c 0,0 -5.09,66.3 -61.2,76.5 l -96.91,10.21 c 0,0 -35.69,5.11 -56.09,-30.6 0,0 -20.42,-45.92 25.49,-81.6 l 91.81,-76.51 c 0,0 56.07,-40.78 0,-40.78 l -61.21,5.09 c 0,0 -25.49,5.09 -30.6,45.9" /><path
         id="path70"
         style="fill:#34409d;fill-opacity:1;fill-rule:nonzero;stroke:none"
         d="m 2346,3427.2 -102,-45.9 -20.4,132.6 35.71,15.31 86.69,-102.01" /><path
         id="path72"
         style="fill:#34409d;fill-opacity:1;fill-rule:nonzero;stroke:none"
         d="m 3947.41,3376.2 -96.92,51 86.72,102.01 30.61,-20.42 -20.41,-132.59" /></g></g></svg>