<?xml version="1.0" encoding="UTF-8"?>
<!DOCTYPE svg PUBLIC "-//W3C//DTD SVG 1.1//EN" "http://www.w3.org/Graphics/SVG/1.1/DTD/svg11.dtd">
<!-- Creator: CorelDRAW X6 -->
<svg xmlns="http://www.w3.org/2000/svg" xml:space="preserve" width="6.29166in" height="6.88889in" version="1.1" style="shape-rendering:geometricPrecision; text-rendering:geometricPrecision; image-rendering:optimizeQuality; fill-rule:evenodd; clip-rule:evenodd"
viewBox="0 0 6292 6889"
 xmlns:xlink="http://www.w3.org/1999/xlink">
 <defs>
  <style type="text/css">
   <![CDATA[
    .fil3 {fill:#282828;fill-rule:nonzero}
    .fil0 {fill:#65BC50;fill-rule:nonzero}
    .fil1 {fill:#E2E3E3;fill-rule:nonzero}
    .fil2 {fill:#FEFEFE;fill-rule:nonzero}
   ]]>
  </style>
 </defs>
 <g id="Layer_x0020_1">
  <metadata id="CorelCorpID_0Corel-Layer"/>
  <path class="fil0" d="M2015 6813c-56,0 -85,-21 -88,-64l36 0c0,24 17,37 51,37 15,0 27,-3 34,-9 8,-6 12,-14 12,-23 0,-9 -4,-15 -12,-19 -8,-4 -24,-9 -48,-14 -24,-6 -42,-13 -53,-20 -11,-7 -17,-20 -17,-38 0,-17 7,-30 21,-41 14,-11 32,-16 55,-16 54,0 81,19 82,56l-36 0c-1,-19 -16,-28 -43,-28 -12,0 -22,2 -30,7 -8,5 -12,11 -12,20 0,8 3,13 9,17 6,3 22,8 46,14 25,6 43,13 55,20 12,8 18,21 18,40 0,18 -7,33 -22,45 -15,12 -35,18 -60,18z"/>
  <path class="fil0" d="M2300 6689c-3,-19 -10,-34 -20,-43 -10,-10 -23,-14 -38,-14 -15,0 -27,5 -37,14 -10,9 -17,24 -20,43l115 0zm-54 124c-30,0 -54,-9 -73,-28 -18,-18 -27,-44 -27,-77 0,-33 9,-58 27,-77 18,-19 41,-28 69,-28 29,0 53,9 70,27 17,18 26,44 26,77l0 8 -154 0c2,23 8,40 20,51 12,11 26,17 43,17 13,0 24,-3 34,-10 10,-6 16,-15 16,-27l38 0c-3,21 -12,37 -29,48 -16,11 -36,17 -60,17z"/>
  <path class="fil0" d="M2540 6689c-3,-19 -10,-34 -20,-43 -10,-10 -23,-14 -38,-14 -15,0 -27,5 -37,14 -10,9 -17,24 -20,43l115 0zm-54 124c-30,0 -54,-9 -73,-28 -18,-18 -27,-44 -27,-77 0,-33 9,-58 27,-77 18,-19 41,-28 69,-28 29,0 53,9 70,27 17,18 26,44 26,77l0 8 -154 0c2,23 8,40 20,51 12,11 26,17 43,17 13,0 24,-3 34,-10 10,-6 16,-15 16,-27l38 0c-3,21 -12,37 -29,48 -16,11 -36,17 -60,17z"/>
  <polygon class="fil0" points="2808,6808 2764,6808 2698,6706 2675,6728 2675,6808 2639,6808 2639,6532 2675,6532 2675,6688 2754,6608 2800,6608 2722,6682 "/>
  <polygon class="fil0" points="2856,6808 2892,6808 2892,6532 2856,6532 "/>
  <path class="fil0" d="M3049 6785c17,0 31,-6 42,-19 11,-13 16,-32 16,-57 0,-26 -5,-45 -16,-58 -11,-13 -25,-19 -42,-19 -17,0 -31,6 -42,19 -11,13 -16,32 -16,58 0,25 5,45 16,57 11,13 25,19 42,19zm0 -181c29,0 53,9 70,27 17,18 26,44 26,77 0,33 -9,59 -26,77 -17,18 -41,27 -70,27 -29,0 -52,-9 -70,-27 -17,-18 -26,-44 -26,-77 0,-33 9,-59 26,-77 17,-18 41,-27 70,-27z"/>
  <path class="fil0" d="M3335 6750l0 -95c-16,-16 -34,-24 -54,-24 -16,0 -28,7 -37,20 -9,13 -14,33 -14,59 0,25 4,43 13,56 9,13 21,19 37,19 20,0 39,-11 55,-34zm36 42c0,64 -30,97 -89,97 -26,0 -46,-5 -61,-16 -15,-11 -22,-26 -22,-44l38 0c0,22 15,33 45,33 17,0 30,-5 39,-14 9,-9 14,-27 14,-54l0 -10c-16,19 -36,29 -58,29 -27,0 -47,-9 -62,-28 -15,-19 -22,-44 -22,-75 0,-33 8,-59 25,-78 16,-19 37,-29 62,-29 22,0 41,7 56,20l0 -15 36 0 0 185z"/>
  <path class="fil0" d="M3528 6785c17,0 31,-6 42,-19 11,-13 16,-32 16,-57 0,-26 -5,-45 -16,-58 -11,-13 -25,-19 -42,-19 -17,0 -31,6 -42,19 -11,13 -16,32 -16,58 0,25 5,45 16,57 11,13 25,19 42,19zm0 -181c29,0 53,9 70,27 17,18 26,44 26,77 0,33 -9,59 -26,77 -17,18 -41,27 -70,27 -29,0 -52,-9 -70,-27 -17,-18 -26,-44 -26,-77 0,-33 9,-59 26,-77 17,-18 41,-27 70,-27z"/>
  <polygon class="fil1" points="3693,6808 3732,6808 3732,6769 3693,6769 "/>
  <path class="fil1" d="M3851 6633c18,-20 39,-30 61,-30 46,0 69,25 69,74l0 131 -36 0 0 -129c0,-16 -3,-28 -9,-35 -6,-7 -16,-11 -29,-11 -19,0 -37,11 -56,32l0 143 -36 0 0 -200 36 0 0 25z"/>
  <path class="fil1" d="M4194 6689c-3,-19 -10,-34 -20,-43 -10,-10 -23,-14 -38,-14 -15,0 -27,5 -37,14 -10,9 -17,24 -20,43l115 0zm-54 124c-30,0 -54,-9 -73,-28 -18,-18 -27,-44 -27,-77 0,-33 9,-58 27,-77 18,-19 41,-28 69,-28 29,0 53,9 70,27 17,18 26,44 26,77l0 8 -154 0c2,23 8,40 20,51 12,11 26,17 43,17 13,0 24,-3 34,-10 10,-6 16,-15 16,-27l38 0c-3,21 -12,37 -29,48 -16,11 -36,17 -60,17z"/>
  <path class="fil1" d="M4373 6808c-8,2 -17,2 -26,2 -15,0 -26,-3 -33,-8 -7,-5 -11,-12 -13,-20 -2,-8 -3,-19 -3,-33l0 -113 -25 0 0 -28 25 0 0 -50 36 0 0 50 33 0 0 28 -33 0 0 115c0,14 2,22 5,26 4,4 8,6 15,6 6,0 12,-1 18,-2l0 27z"/>
  <path class="fil2" d="M3150 5618c49,0 95,-6 138,-19 45,-13 87,-34 126,-61 37,-26 72,-58 105,-98 31,-36 59,-78 88,-128 0,0 2583,-4504 2605,-4544 22,-40 40,-81 54,-122 14,-42 24,-83 29,-125 3,-23 5,-45 5,-67l0 -20c0,-12 -1,-25 -2,-37 -2,-21 -11,-87 -38,-145 -27,-58 -58,-94 -97,-131 -39,-37 -109,-77 -168,-96 -33,-11 -71,-20 -110,-25 -36,-5 -76,-7 -122,-7l-2 0 -5220 0 -2 0c-46,0 -85,2 -122,7 -39,5 -77,14 -110,25 -59,19 -129,59 -168,96 -39,36 -70,73 -97,131 -28,59 -37,124 -38,145 -1,15 -2,31 -2,47l0 2c0,24 2,49 5,75 6,41 16,83 30,125 14,41 32,82 54,122 22,40 2605,4544 2605,4544 28,50 57,92 88,128 33,40 67,72 105,98 39,27 81,48 126,61 43,13 89,19 138,19z"/>
  <path class="fil3" d="M540 116c-81,0 -142,8 -195,26 -101,34 -168,95 -201,181 -42,107 -22,251 53,387l2604 4541c98,172 202,245 349,245 147,0 252,-73 350,-245l2604 -4541c74,-136 94,-280 52,-387 -33,-86 -101,-146 -201,-181 -53,-18 -114,-26 -195,-26l-5220 0z"/>
  <polygon class="fil2" points="5361,1573 5184,1883 4188,1883 4954,2284 4837,2487 4188,2129 4188,3619 3878,4161 3878,1573 "/>
  <polygon class="fil2" points="939,1573 1117,1883 2112,1883 1346,2284 1463,2487 2112,2129 2112,3619 2422,4161 2422,1573 "/>
  <path class="fil2" d="M3839 1037l0 -566 -100 0c-37,0 -50,19 -74,52l-155 219 -171 -271 -108 0c-36,0 -41,33 -41,52l0 514 124 0 0 -372 167 251 53 0 175 -249 0 371 131 0z"/>
  <path class="fil2" d="M4103 768l0 -203 51 0c95,0 109,56 109,89 0,109 -127,115 -152,115 -3,0 -4,0 -4,0l-4 0zm9 94c20,0 90,-2 156,-31 84,-37 127,-102 127,-193 0,-50 -20,-166 -207,-166l-194 0c-36,0 -41,33 -41,52l0 514 150 0 0 -174 9 0z"/>
  <path class="fil2" d="M3075 471l-109 0c-36,0 -41,33 -41,52l0 305c0,102 -55,123 -101,123 -46,0 -101,-21 -101,-123l0 -356 -109 0c-36,0 -41,33 -41,52l0 316c0,99 44,218 252,218 208,0 252,-119 252,-218l0 -368z"/>
  <path class="fil2" d="M2307 1037l150 0 0 -566 -109 0c-36,0 -41,32 -41,52l0 514z"/>
  <path class="fil2" d="M1911 768c-3,0 -4,0 -4,0l-4 0 0 -203 50 0c95,0 109,56 109,89 0,109 -125,114 -150,114zm3103 268l0 -565 -109 0c-36,0 -41,33 -41,52l0 94 -3 1c-69,13 -139,40 -215,82l-6 3 0 -232 -109 0c-36,0 -41,33 -41,52l0 280 -2 1c-23,18 -45,35 -64,50l-5 4c-389,306 -777,444 -1258,447 -5,0 -10,0 -15,0 -221,0 -434,-37 -615,-106 -210,-81 -369,-202 -472,-360l-2 -4 4 -2c87,-37 131,-103 131,-195 0,-50 -20,-166 -207,-166l-194 0c-36,0 -41,33 -41,52l0 514 152 0 0 -174 4 0c0,0 3,0 9,0l2 0 1 1c198,237 574,520 1243,520 500,0 908,-140 1322,-453l6 -5 0 111 150 0 0 -220 2 -1c80,-52 149,-81 217,-91l4 -1 0 313 151 0z"/>
  <path class="fil2" d="M1683 471l-470 0c-33,0 -40,28 -40,52l0 83 179 0 0 431 151 0 0 -431 139 0c36,0 41,-33 41,-52l0 -83z"/>
 </g>
</svg>
