<svg id="Layer_1" xmlns="http://www.w3.org/2000/svg" xmlns:xlink="http://www.w3.org/1999/xlink" viewBox="0 0 150 150" style="enable-background:new 0 0 150 150"><style>.st0{fill:#a6a8aa}.st1{fill:#caccce}</style><path class="st0" d="M1.7 72.1c0-19.1 33.1-34.5 73.9-34.5s73.9 15.5 73.9 34.5c0 18.9-33.1 34.3-73.9 34.3S1.7 90.9 1.7 72.1zm54 10c0-3.6 2.8-6.4 6.4-6.4 3.6.0 6.4 2.8 6.4 6.4.0 3.6-2.8 6.4-6.4 6.4C58.5 88.5 55.7 85.7 55.7 82.1zM89.5 85.3c-1.4 2.2-3.4 3.2-5.6 3.2-3.4.0-6.4-3-6.4-6.4.0-3.6 3-6.4 6.4-6.4 1.6.0 3.2.4 4.2 1.4l-1.8 1.8c-.6-.4-1.6-.8-2.4-.8-2 0-3.8 1.8-3.8 4 0 2 1.8 3.8 3.8 3.8 1.8.0 3.2-1 3.8-2.6h-3.8v-2.2h5.6C89.5 81.1 89.7 84.7 89.5 85.3v0zM95.3 84.9c0 .2.2.8.6.8.4.2 2.4.2 3.6.0.0.0.4-.4.4-.8v-9h2.8v9.6c-.2 1-1.8 2.6-2.4 2.6-1.4.2-3.4.4-5.2.0-1.2-.4-2.2-1.4-2.4-2.6v-9.6h2.6L95.3 84.9v0zM114.8 78.1l-5.4 7.4h5.4v2.8H106v-2.8l5.4-7.2H106v-2.4h8.8V78.1zm12 0-5.4 7.4h5.4v2.8H118v-2.8l5.4-7.2H118v-2.4h8.8V78.1zM132.4 75.9v12.4h-2.6V75.9H132.4zM53.5 78.5h-3.2v9.8h-2.8v-9.8h-3.2v-2.6h9.2V78.5v0zM30.4 82.1c0-3.6 2.8-6.4 6.4-6.4 3.6.0 6.4 2.8 6.4 6.4.0 3.6-2.8 6.4-6.4 6.4C33.2 88.5 30.4 85.7 30.4 82.1zM22.2 79.9l2.8-4h2.6v12.4H25v-7.8l-2.8 4-2.6-4v7.8H17V75.9h2.6L22.2 79.9v0zM22.6 51.8C26 53.6 34 53 40.9 52.4c5.6-.6 21.1-2.6 27.3 3 .4.2.4.6 1.4.4 1.2-.4 3.2-.4 4-.2.6.2.8.2 1 0 .2.0.6.0 1 .2.2.0.6.2.4-.2-.2-.4.0-.6.6-.4.6.4 1.8.8 3 .6 1.2-.2 1.2.2 1.2.2s.2.0.6-.4c.4-.2 1-.6 5.6-1 2.6-.4 4.4-1.6 4.4-1.6 1.2-.8 5.4-2 21.1-1 9.4.8 11.8.2 14.9-1.2 1.2-.4.4.2.4.4-.4.2-1.2.6-1.4 1-.2.2-.8.6-.8.6s-2 .8-4 1c2 1.4-1.6 2-8.2 2.6.8 1-3.4 1-6.6.6 1.8 1.4-2.8.8-2.8.8.0.4 1 1.4-2.8 1 .4 1.6-3 .8-3.4.8.8 1.4-1.2 1.6-1.8 1.4 1.2.4.4 2.2-1.6 1.6.2 1.2-1.2 1.2-1.8 1 0 .2-.6 1.6-2.4.4.4 1.4-2 1-2.2.6.0.4-1.2 1-2 0-.6 1-1.6.4-2.6-.4.2 1.6-1.6.2-2-.2.2 1-1.4 1-2-.2-.2 1.4-1.4-.2-1.4-.2s-.4-.2-.8.0c-.6.2.2.4.2.4 1.2.0 2.4 3.4-1.6 3.8-1.4.0-1.4.6-1 .6.6.0 4-1 4 1-.2.0-.2.4-.2.4.0.2.0.8-.8 1.2.0-1.6-.4-1.2-.4-1 0 .4.2 1.2-.6 1.2-.2-1.2-.4-1-.4-.6.0.4-.4.6-.8.6-.2-.2.0-.8.0-.8-.4.0-.6.0-.6-.6.0-.6-.4-.4-.4.0.2.6-.4.4-.4.4s.4.6-1 .6c.6-1-.4-1-.6-.4.0.0.0.6-.8.6.4-1.4-.4-1.4-.4-.6.0.6-.4.6-.6.2-.2-.2-.2-.2-.6-.2-.2.2-.6.0-.6-.4.2-.2-.4-.4-.4.2-.2.8-.8.4-.8.4.0-.2-.6.0-1.2.8.6.6-1 .8-.8-.2.2-.6.0-.8.0-.8s-3 2.2-2.4.4c0 0-4.2 2.6-4.2.6-.4.2-.8.2-1.2-.4-.6.4-.8.2-.8-.2-.4.2-.6.0-.6-.2-1.8.2-2.4.0-2.6-.6-2.4.0.4-2 2.6-3.2.4-.2 1-.4 1.2-.8 1-1 1.6-1.6 2.2-1.8 1-.4.8-1.2.8-1.2s-4.6 2-4.2-.2c-2.2.4-3 .2-2-1-4.2.8-3.4-.4-2.8-1.4-.8.2-5.4 1.2-3.4-.6-4.8.4-4-.4-2.8-1.4-.4-.2-3.6.6-2.4-1-6.6 1-7.2-.4-6.2-.8.4-.4-.2-.2-.4-.4-.4-.2-.8-.2-2.4.0-2.6.2-7.6.0-7.4-1.4-1.8.0-3.6-1.4-3.6-1.4-.2.0.0-.2-.2-.6C22.8 52.8 22 51.4 22.6 51.8v0z"/><path d="M90.7 87.3c-1.4 2.2-5.4 4.4-9.8 1-2.2-1.2-4-3.6-4-6.4.0-3.8 3.2-7 7.2-7 1.8.0 3.4.6 4.4 1.8l.8.6-.2.4 1 1-1.6 1.4h1.6v1.8h1C91.1 81.9 91.5 86.9 90.7 87.3zM89.5 85.3c-1.4 2.2-3.4 3.2-5.6 3.2-3.4.0-6.4-3-6.4-6.4.0-3.6 3-6.4 6.4-6.4 1.6.0 3.2.4 4.2 1.4l-1.8 1.8c-.6-.4-1.6-.8-2.4-.8-2 0-3.8 1.8-3.8 4 0 2 1.8 3.8 3.8 3.8 1.8.0 3.2-1 3.8-2.6h-3.8v-2.2h5.6C89.5 81.1 89.7 84.7 89.5 85.3v0zM64.6 57c0 0 .2.4 1 0C66 56.8 64.6 57 64.6 57zM65.2 57.4c0 0 1.2 1 2.6.4.4-.2-1.2-.2-1.2-.2C66.8 57.2 65.2 57.4 65.2 57.4zM66.6 58.8c0 0 0 .6 1 .2C68.4 58.8 66.6 58.8 66.6 58.8zM66.8 59.4c.2.0.8.4 1.8.4.4-.2-.8-.2-.8-.2C68.4 59.2 66.8 59.4 66.8 59.4zM68.2 70.1c.2.0.2-.2.0-.2V70.1zM68.8 68.5c0 0-.4.0-.2.2C69 68.7 68.8 68.5 68.8 68.5zM70.4 66.4c-.2.0-.2.0-.2.2C70.6 66.6 70.6 66.2 70.4 66.4zM70.8 66.2H71c0 .2-.2.2-.2.2V66.2zM74.4 65.2c0 0 0-.2.2-.2l.2.2c0 .2-.2.2-.2.2C74.4 65.4 74.4 65.4 74.4 65.2zM73.2 64.6c0 0 1-.8 1.4.2C74.2 64.4 73.2 64.6 73.2 64.6zM72.8 65.2c0 0 .6-.8 1-.2C73.6 65.2 72.8 65.4 72.8 65.2zm0 1L73 66c.2.0.2.2.2.2.0.2.0.2-.2.2C73 66.4 72.8 66.4 72.8 66.2zM69.2 68.5c0 0 1.4-1.4 3.4-1.6.2-.4-.4-.4-.4-.4s-1.4.4-3 1.8C68.8 68.9 69.2 68.5 69.2 68.5zM69.4 67.7c0 0 1.6-.8 1.6-1C69.2 67.2 69.4 67.7 69.4 67.7zM73.4 69.5c0-.2.0-.2.2-.2v.2H73.4zM38.3 53.8h.4c0 .2-.2.2-.2.2C38.3 54 38.3 54 38.3 53.8v0zM22.6 51.8C26 53.6 34 53 40.9 52.4c5.6-.6 21.1-2.6 27.3 3 .4.2.4.6 1.4.4 1.2-.4 3.2-.4 4-.2.6.2.8.2 1 0 .2.0.6.0 1 .2.2.0.6.2.4-.2-.2-.4.0-.6.6-.4.6.4 1.8.8 3 .6 1.2-.2 1.2.2 1.2.2s.2.0.6-.4c.4-.2 1-.6 5.6-1 2.6-.4 4.4-1.6 4.4-1.6 1.2-.8 5.4-2 21.1-1 9.4.8 11.8.2 14.9-1.2 1.2-.4.4.2.4.4-.4.2-1.2.6-1.4 1-.2.2-.8.6-.8.6s-2 .8-4 1c2 1.4-1.6 2-8.2 2.6.8 1-3.4 1-6.6.6 1.8 1.4-2.8.8-2.8.8.0.4 1 1.4-2.8 1 .4 1.6-3 .8-3.4.8.8 1.4-1.2 1.6-1.8 1.4 1.2.4.4 2.2-1.6 1.6.2 1.2-1.2 1.2-1.8 1 0 .2-.6 1.6-2.4.4.4 1.4-2 1-2.2.6.0.4-1.2 1-2 0-.6 1-1.6.4-2.6-.4.2 1.6-1.6.2-2-.2.2 1-1.4 1-2-.2-.2 1.4-1.4-.2-1.4-.2s-.4-.2-.8.0c-.6.2.2.4.2.4 1.2.0 2.4 3.4-1.6 3.8-1.4.0-1.4.6-1 .6.6.0 4-1 4 1-.2.0-.2.4-.2.4.0.2.0.8-.8 1.2.0-1.6-.4-1.2-.4-1 0 .4.2 1.2-.6 1.2-.2-1.2-.4-1-.4-.6.0.4-.4.6-.8.6-.2-.2.0-.8.0-.8-.4.0-.6.0-.6-.6.0-.6-.4-.4-.4.0.2.6-.4.4-.4.4s.4.6-1 .6c.6-1-.4-1-.6-.4.0.0.0.6-.8.6.4-1.4-.4-1.4-.4-.6.0.6-.4.6-.6.2-.2-.2-.2-.2-.6-.2-.2.2-.6.0-.6-.4.2-.2-.4-.4-.4.2-.2.8-.8.4-.8.4.0-.2-.6.0-1.2.8.6.6-1 .8-.8-.2.2-.6.0-.8.0-.8s-3 2.2-2.4.4c0 0-4.2 2.6-4.2.6-.4.2-.8.2-1.2-.4-.6.4-.8.2-.8-.2-.4.2-.6.0-.6-.2-1.8.2-2.4.0-2.6-.6-2.4.0.4-2 2.6-3.2.4-.2 1-.4 1.2-.8 1-1 1.6-1.6 2.2-1.8 1-.4.8-1.2.8-1.2s-4.6 2-4.2-.2c-2.2.4-3 .2-2-1-4.2.8-3.4-.4-2.8-1.4-.8.2-5.4 1.2-3.4-.6-4.8.4-4-.4-2.8-1.4-.4-.2-3.6.6-2.4-1-6.6 1-7.2-.4-6.2-.8.4-.4-.2-.2-.4-.4-.4-.2-.8-.2-2.4.0-2.6.2-7.6.0-7.4-1.4-1.8.0-3.6-1.4-3.6-1.4-.2.0.0-.2-.2-.6C22.8 52.8 22 51.4 22.6 51.8v0zM76.8 55.8c0 0 1.4.4 2.4.4 1-.2 3 0 2.6 1.2-.2-.4-.4-.6-.4-.6l.2.8c0 0 4-.6 3.4 1.8-.6-.8-1.6-.2-1.6-.2s-1.4-.6-2.8 1c1.2-.4 1.6-.2 1.6-.2.2.2 1.6.2 1.8.0.2-.2-.2 1-2.8.8-.6-.2-2.4.2-2.6.6.2.2-.4.4-.8.4-.8.0-.6.4-.6.4s-.4.2-.8.6c-.2.2-.2.0-.2.0s.6-.8.6-.6c.2.0.0-.2.0-.2s-1.2.4-1.4.6c-.2.2-.2.0-.2.0s1.2-.8 1.4-1c.2-.2-1 .2-2 1C74 63 75.8 61.4 77.2 61c.2.0-1.4.0-2.2.8-1 1-1 .6-1 .6s.8-1 1-1c.2.0.8-.2.8-.6.2-.2-.8.6-1.2.4-.6.8-2.8 2.8-4 1C73 63 74.2 61 74.2 61s-2 1.8-3.4 1c2.8.0 3.2-1.2 3.2-1.2s-.8 1-3 1c.8-.4 1.6-.2 1.6-.8C72 61.2 71 61.4 71 61.4s0-.6-.8-.4c-.6.2-.8.0-.8.0l.2-.4h-1l.6.4c.2.4 2 .2 1.6.4-.4.2-1.6.0-1.6.0s-1.2-.6-1-1c0-.2 1.2.0 1.6-.4-1.6.4-3.6-.2-3.8-1.6 1.6.2 2 0 2 0s-3.6-.2-3.8-1.8c.8.0 1.2-.2 1.2-.2s-2 0-2.6-.4c0-.2.4-.4.4-.4s-1.6.4-2 0c-.2-.4.4-.4.4-.4-.2-.2-2 .4-.8-.6-1.8.2-3.4.2-2-.4-2 .4-2.6.2-1.6-.4-1.2.6-2.2.6-1.8.0-.6.4-1.4.4-1.6.2-.2-.2.0-.4.0-.4s-.8.8-1.4.6c-.2-.4.2-.6.2-.6s-1.4.8-1.8.4c0-.2.4-.4.4-.4s-1.2.6-1.8.2l.6-.4c0 0-1.8.6-2.2.4-.4.0.2-.4.2-.4s-1.4 1-1.8.8c-.2-.2.4-.6.4-.6s-1.2 1-2 .8c-.2.0.4-.6.4-.6s-1.6 1.2-2.2.8l.6-.6c0 0-1.4 1-2 .8.0-.4.8-.8.8-.8s-1.6 1-2 .6c0-.2.8-.6.8-.6s-1.6.8-2 .6c-.4-.2 1.2-.8 1.2-.8s-1.6.8-4 .6v-.2c0 0-.6.6-1.2.4l.6-.6c0 0-1.2.8-2 .8.4-.4 1.2-1 1.2-1s-2.2 1.4-3 .8c2-.6 1.8-1 1.8-1s-2.4 1.2-3 1.2C30 54.6 31 54.4 31 54.2c0-.2-1.6.6-1.6.6-.2-.2.6-.8 1-.8.2-.2-2 .8-2.4.4-.2-.2.6-.2.4-.4.0.0-.8.4-1.4.4-.2-.2.4-.6.4-.6S26.2 54.4 26 54c0-.2.6-.4.6-.4s-1.2.2-1.4.0c-.4.0.4-.2.4-.2h-1.4c0-.2.2-.4.2-.4S23 53 23 52.4c6 1.6 14.7.6 19.3.2 1.6-.2 12.6-1.6 20.1.2L62.2 53h.6c0 0 .4.0.2.4-.2.0.6-.2.6-.2s.4.0.2.4c.2-.2 1-.2.4.4 1-.6.8.0.6.2 1-.4 1 0 .6.2 1-.4.6.2.4.4 1-.6 1 0 .6.2 1-.6.6.4.4.4 1.2-.4.8.2.4.4 1.2-.4.6.2.4.4 1-.4.6.2.2.4 1.4-.2.4.4.2.4 1.2-.2.6.4.4.4.6-.2.4.2.4.2.2.2.0.4.0.4.4.0.4.4.2.6.4.0.6.2.4.4.4.0.4.2.4.4.4.0.4.4.4.4.2-.2.4.2.4.2s.4-.2 1.8.4c.4.0-.6-.4-1-.4-.2-.2-.8-.6.2-.4.2-.4-.8-.4-.8-.4S70.2 59 72.2 59c.4-.2.0-.2.0-.2h-1.6c-.4.0-.4-.4.2-.4.8.0 2 .2 2.6.0.4-.2 1-.2 1.4-.2.2.0-.2-.2-.4-.2.0-.2-1.6.2-1.8.2-.2.2-.2.2-.4.0-.2.0-1.2.2-1.4-.4h-.4c0 0-.2-.4 1.2-.2 1.2.0 1.6-.2 1-.2-.6.0-1.4-.2-.4-.2s2.8.0 1.4-.2c-.8-.4.6-.2.6-.2s1 .2.0-.2c-1-.4.6-.2.6-.2s1.4.4.4-.2c.4.0 2 .2 2.4.2C76.8 56 76.8 55.8 76.8 55.8v0zM37.7 55.4c.4.0.8-.2 1.2-.4-.2.0-.6-.2-1-.2L37.7 55.4v0zM37.3 54.8h-.6c-.2.2-.4.8-.4.8h.6L37.3 54.8zM36.3 55h-.8l-1 .8h.8L36.3 55zM34.7 55.2h-.8L33 56h.8L34.7 55.2zm-1.5.0h-.6c-.2.2-1 .8-1 .8h.8L33.2 55.2v0zM31.8 55.2h-.6c-.2.2-.8.6-.8.6.2.0.4.2.6.2L31.8 55.2zM30.4 55.2h-.8c.2.2-.6.4-.6.4.4.2.6.2.8.2L30.4 55.2v0zM29.2 55h-.6c0 .2-.4.4-.4.4.2.0.2.2.4.2L29.2 55v0zM28 54.8h-.2L27.6 55c0 .2.2.2.2.2L28 54.8zM38.1 56.8c-.2-.2-.2-.2-.4-.2C37.7 56.8 37.9 56.8 38.1 56.8zM43.7 57c.4.0.6-.2 1-.2-.2-.2-.4-.2-.8-.2L43.7 57zM44.7 57.2h-.2c-.4.2-.8.6-.8.6l.2.2L44.7 57.2zM51.7 56.4c0 0 .2.0.4-.2.0.0-.2.0-.4-.2V56.4zM46.7 58.2h-.2l-.8 1c0 .2.0.2.2.2L46.7 58.2zM52.5 58c.2-.2.4-.2.6-.4.2-.2.2-.2.2-.4L52.5 58v0zM49.7 59.6h-.2c-.4.2-.6.8-.6.8h.2L49.7 59.6zM53.7 59.4c.4-.2 1-.4 1.4-.8.0.0-.2-.2-.6-.2C54.5 58.6 53.7 59.4 53.7 59.4v0zM53.3 60c-.2.0-.2.2-.2.2-.8.4-1 1.4-1 1.4h.4L53.3 60v0zM55.7 61.4h-.2c-.4.2-.4 1.2-.4 1.2L55.7 61.4v0zM58.5 61.6c.4-.2.8-.4 1.2-.8.2.0.0-.2-.4-.2L58.5 61.6zM57.9 62.4c0 0-1 0-.2.8L57.9 62.4zM61.8 62.2c.2-.2.4-.2.6-.4H62L61.8 62.2v0zM38.5 55.6c-.6.2-.8.4-.8.4h.4L38.5 55.6zM43.7 55.8c.4-.2.8-.4 1-.6h-.6C44.1 55.2 43.5 55.6 43.7 55.8zM50.5 55c.2.0.4-.2.6-.2-.2.0-.2-.2-.4-.2L50.5 55v0zM55.5 55.8c.4.0.8-.2 1-.4.0.0-1 0-1 .3999999999999986zM57.1 56.4v-.2c0-.6.2-.8.8-.8C57.5 55.6 57.1 56.4 57.1 56.4zM62.2 56.6l.4.4c0 0-.6.2-1.2.2L62.2 56.6v0zM41.1 55.2c-.2.0-.8.2-.8.2l-1.4.8h.6C40.7 55.8 41.1 55.4 41.1 55.2v0zM42.3 55.2h-.6c0 0-1.2.8-1.2 1h.8C41.3 56.2 42.3 55.6 42.3 55.2v0zM43.5 55.2h-.4c-1 .6-.8 1-.8 1 .2.0.4-.2.8-.2L43.5 55.2zM39.5 56.6h-.8L38.3 57c.2.2.2.2.4.2L39.5 56.6v0zM40.7 56.6h-.6l-.8.8h.4L40.7 56.6zM42.1 56.6h-.6l-1 1c.2.0.6-.2.8-.2L42.1 56.6v0zM43.5 56.6h-.6c-1 .8-.6.8-.6.8.2.0.4.0.6-.2L43.5 56.6zM46.3 54.8c-.2.0-.4.2-.6.2-1.8.6-1.2 1.2-1.2 1.2h1.6c0 0 2.4-1.4 2.2-1.6h-.8c0 0-3 2-2.2 1.2C45.9 55 46.3 54.8 46.3 54.8v0zM49.7 54.6h-.6c-.2.2-2.4 1.4-2.2 1.6.4.0.6-.2 1-.2L49.7 54.6v0zM50.5 54.6h-.4l-1.2 1.2c.2-.2.6-.2 1-.4L50.5 54.6v0zM55.3 61c.2-.2 1-1.2 1.8-.6L55.3 61zM56.3 56.4v-.2c-.2.0-1.4.2-2.2.4v.2C54.1 56.8 55.9 56.4 56.3 56.4zM56.3 58.2c2.2.2 3.4-.6 3.4-.6h-1C58.9 58 55.5 57.8 56.3 58.2v0zM59.5 58.4v-.2c0 0-1 .4-3.2.4-.4.2-.4.4-.4.6L59.5 58.4zM57.3 60c1.2.2 2.6.2 3.8-.8h-.6C60.4 59.6 56.7 59.6 57.3 60zM61.4 57.4H61l-.2.2L61.4 57.4v0zM64.8 58.8c.2-.2.6-.2.8-.4H65L64.8 58.8zM64.2 58.4h-.4c.2.4-1.2.2-1 .6.4.0.8.0 1.4-.2V58.4v0 0zM61.4 59.8l-.2-.2L60.8 60 61.4 59.8v0zM61.8 61.4c.4.0 1 0 1.6-.2-.2.0-.2-.2-.4-.4C63 61 61.8 61 61.8 61.4v0zM64.2 59.2c-.4.0-.4-.2-.4-.2-.2.2-.6.4-.6.8C63.2 59.8 64 59.6 64.2 59.2zM63.8 60.8c.4.0 1-.2 1.8-.4-.2-.2-.2-.4-.4-.4C65.2 60.4 63.2 60.2 63.8 60.8v0zM63.8 61.4h-.4C63 61.6 62.8 62 63 62.2L63.8 61.4v0zM64.2 62.4c.4.0.8-.2 1-.8h-.4L64.2 62.4zM66.2 60.2c0 0-2 1.2 1 .2C67.6 60 66.2 60.2 66.2 60.2zM66.4 61.4c-.2.0-.2-.2-.2-.2-.4.2-.4.4-.4.6L66.4 61.4v0zM67.2 62.6c.6.0 1-.2 1.4-.6H68C68 62 67.2 62.4 67.2 62.6v0zM63.4 63.8c-1.6.6-2.2 1-2.2 1h1L63.4 63.8zM68.4 63h-.6L67 64C67 64 68.2 63.4 68.4 63v0zM69.2 64c.4-.2.8-.6.8-.6.0-.2-.2-.2-.2-.2L69.2 64zm0-1c0 .2-2.6 1.8-2.6 1.8s.6.0 1-.2C67.6 64.6 69.6 63.2 69.2 63v0zM65.8 63.6l-1.8 1c.2.2.2.2.6.2C64.4 64.6 65.8 63.6 65.8 63.6zM60.4 67.4l.2-.2.2.2c0 .2-.2.2-.4.2L60.4 67.4zM61.2 67.2V67c.2.0.2.0.2.2s0 .2-.2.2V67.2zM62 67h.2c0 .2.0.2-.2.2V67zM59.7 67.7h.2c0 .2.0.2-.2.2V67.7zM58.9 68.1c0-.2.0-.2.2-.2v.2H58.9zM59.3 65.2c0 0-1.2 1.8-2.8 2-1.6.4-4.8 4-1 1-2.8 3.2.6-.2.6-.2s-1.4 3 .6-.4c-1 2.8.6.0.6.0-.2 1.8.8-.4.8-.4-.4 1.6.4-.4.4-.4.0 1.8.6-.6.6-.6.0 2.2.8-.2.8-.2-.4 2 .6-.2.6-.2-.4 1.8.4.0.4.0 1.2-.4.8-.8.4-.4.4-.6-.6.0-.6.0-.2-.4-.4.0-.4.0-.2-.6-.6.2-.6.2C59.9 64.6 59.3 65.2 59.3 65.2v0zM63.6 64.8C63.4 64.6 60.4 66 62 66 62.8 65.4 64.2 65.4 63.6 64.8zM64.8 65.2c-1.2.2-5.8 3.2 1.4.2C60.4 67.2 64.8 65.2 64.8 65.2zM55.5 69.7c-.4.2-.6.4-.6.4.2.0.2.2.2.2L55.5 69.7v0zM62.4 68.1c.2.0.6-.2 1-.4l-1 .2V68.1zM59.9 68.5c-.8.4-1 1.4-1 1.4.2-.2.2-.4.4-.4C59.3 69.5 59.7 68.9 59.9 68.5zM59.1 68.7c-1 .8-1 1.2-.8 1.4.2.0.2-.2.2-.2S58.9 68.9 59.1 68.7zM58.3 68.9c0 0-1 1-1 1.4h.6C57.7 70.1 58.3 68.9 58.3 68.9zM56.7 69.3c0 0-.8.8-.6 1.2h.2L56.7 69.3v0zM58.3 70.7c-.2.0-.2.2-.4.2.2.0.2.0.4.2V70.7zM63 68.1c0 0-1.2 1.6-1 2 .2-.2.4-.2.6-.4L63 68.1zM60.1 71.5c-.2.0-.4.2-.4.2h.4V71.5zM66.4 68.7l.4-.4c-.2.0.0-.2-.4-.2V68.7v0zM64.2 70.7 64 70.9c0 0 0 .2.2.2V70.7zM66.8 69.9c.2-.2.2-.4.4-.4-.2.0-.2-.2-.2-.2L66.8 69.9v0zM68.8 61.6c0 0 0 1.4 2.2 1.6-.8-.4-1.4-1.6-1.4-1.6H68.8zM69 66c0 0-.8.4-.2.6C69.8 66.4 69 66 69 66zM66.4 67.2c0 0 1 1 1.8-.8C67.4 67 66.4 67.2 66.4 67.2zM70.8 70.1c0 0-.4.0.0.4C71.4 70.1 70.8 70.1 70.8 70.1zM72.2 69.9c0 0-.6.2.0.6C72.6 70.1 72.2 69.9 72.2 69.9zM73.6 70.1c0 0-.4.0.0.4C74.2 70.3 73.6 70.1 73.6 70.1zM71.2 68.5c0 0 2 .2 2.2 1.2.4.0.8.2.8.2C73.8 68.1 71.2 68.5 71.2 68.5zM70.6 68.7c0 0 1.2.2 1 1 .2-.2.6-.2.8-.2C72 68.5 70.6 68.7 70.6 68.7zM70.2 69.9c0 0 .4-.4.8-.2.4.4-.4-1-1.2-.6C70.4 69.3 70.2 69.9 70.2 69.9zM65.2 66.2C64.2 66.4 64 67 64 67s.2.2.6.2C64.6 67.2 65.6 66.4 65.2 66.2v0zM68 66.2c0 0 .2-.2.4-.2l-.2-.2L68 66.2zM68.8 64.6l-.2-.2L67.8 65c0 0 0 .2.2.2L68.8 64.6zM70.8 65.2c.2-.2.6-.6.8-1-.2.0-.4.2-.4.2L70.8 65.2v0zM78.4 64c-.2-.2-.2-.2.0-.4C78.8 63.4 78.8 64.2 78.4 64zM77.6 63.2l.2-.2v.2H77.6zM77.8 63.4c0-.2.2-.2.2-.2l.2.2L78 63.6 77.8 63.4zM78.6 63h.2v.2C78.6 63.2 78.6 63.2 78.6 63zM78.6 62.6c0-.2.0-.2.2-.2v.2H78.6zM81.6 62.8l.2-.2c0 0 .2-.2.2.0.0.0.0.2-.2.2C81.8 63 81.6 63 81.6 62.8zM91.7 60.8v-.4c.2.0.2.2.2.4V61C91.7 61 91.7 60.8 91.7 60.8zM91.7 59.6h.2v.2C91.9 59.8 91.7 59.8 91.7 59.6zM82.2 56.4c0 0-1-.2-.6-.4C82 55.8 82.2 56.4 82.2 56.4zM83.4 56c0 0-.8-.2-.6-.2C83.2 55.4 83.4 56 83.4 56zM83.8 55.8c0 0-.6.0-.4-.4C83.6 55 83.8 55.8 83.8 55.8zM84.2 55.6v-.2.4V55.6zM85 55.8c0 0-.4-.2-.6-.6C84.8 55 85 55.8 85 55.8zM75.8 70.3c0 0-.4.2.0.6C76.2 70.3 75.8 70.3 75.8 70.3zM78 69.7c0 0-.6.4.0.8C78.4 70.1 78 69.7 78 69.7zM76.8 70.3c0 0-.2.2.0.6C77.2 70.5 76.8 70.3 76.8 70.3zm1-1c0 0 .4.2.6.0C78 68.9 77.8 69.3 77.8 69.3zm-3 0c-.2-.8 2.4 1 .6.6L74.8 69.3zM76.4 69.5c0 0 .4.0.2.4 1.6-.2.0-1.2-1.4-1C76.4 69.3 76.4 69.5 76.4 69.5zM76.4 66.2c0 0-.4 1 .6.2 1 .6.4-.2.4-.2s.8-.8.2-.4c.2-.2.2-.8-.8.0C78.2 65 77 65 77 65c.8-.8-.4.0-.4.0.2-1-.6-.2-.6-.2-.6.0.0.6.0.6C75.2 66 76 66 76 66 75.4 66.6 76.4 66.2 76.4 66.2v0zM72.2 68.3v-.4l-.4.2L72.2 68.3zM72 67.7h.4c0 0 .4-.4.2-.4.0-.2-.4.0-.4.0C72 67.2 72 67.7 72 67.7zM68.4 70.3c0 0 .6-3 4.8-3.4.4-.4.4-.6.4-.6l.6-.2c0-.2-.2.2.0.4.0.0-.4-.2-.4.0-1 .6-.8.8-.8.8s2.4-.4 1.8-2c0-1.8-2.2-1.2-3-.6-.2.4-.6.8-.6.8s1-.4 1.4-.8c.4-.2-.2.8-2.6 1.6-.2.0-.2.6-.2.6s-.4.2-.2-.6c-.4 1.2-1 1.4-1.4 1.4-.4.0-.8.8-.6.8.2.2.8-.4.8-.4s-1.4 1.6-.2.8C67.8 70.9 68.4 70.3 68.4 70.3zM125.8 51.8c0 0-2.4 1.6-16.5.4-14.3-1-17.5 1.2-18.3 1.4-.6.2-2.2 1.4-5.6 1.6.0.0-.2.2.0.2.6.0.4.4.4.4-.6-.2-1.4.8.0.4 1 .2 5 .8 6.6-.8-1.2-.2-2.6-.2-2.4-.4.0-.2.2-.2.2-.2s4.6 1.2 7.2-.8c.6.0 2.8.2 4.4-.6 3.8.8 5.6.0 5.6.0s1.2.6 2.8.4c-.4-.2-1-.6-1-.6h.2c0 0 .8.4 1 .6.4.2.6.0.6.0l-1.2-.6.4-.2c0 0 1.2.6 1.2.8.2.0.4-.2.4-.2s-1.2-.6-1-.6c0-.2.4.0.4.0s2.2 1 3.8.6c-.2.0-.2-.2-.2-.2h.2l.2.2h.4v-.2l.4.4C123.6 53.6 125.8 51.8 125.8 51.8v0zM114.2 53.4v-.2c.2.0.2.0.2.2H114.2zM118 53.2h.2v.2C118 53.4 118 53.4 118 53.2zM111.8 52.8c0 0 0 .4.6.2C113 52.8 111.8 52.8 111.8 52.8zM108.1 53.4v-.2c.2.0.2.0.2.2H108.1zM108.9 53.2c0 0-.2.4.2.4C109.7 53.4 108.9 53.2 108.9 53.2zM116.2 53.2c0 0 .2.2.6.4C117.4 53.4 116.2 53.2 116.2 53.2zM117 53c0 0-.2.4.4.4C118.2 53.2 117 53 117 53zM86.1 55.4l.2.2h.2l-.2-.2H86.1zM86.7 55.4l.2.2.2-.2H86.7zM89.7 55.2c0 0 .4.4.6.4l.2-.2L89.7 55.2zM95.1 52.8h.4c.2.0.0-.2.0-.2L95.1 52.8zM94.9 53.2c0 0 .4-.2 1 .2.6.2 1.2.0 1.2.0v-.2c0 0-.6.2-1 0-.2.0-1-.4-1.2-.4V53.2zM104.3 53h-.4c0 0 .4.2.6.2L104.3 53v0zm3 0h.2c0-.2-1.4-.8-1.4-.8h-.2C105.5 52.4 107.3 53 107.3 53zM97.9 53.2h-.4c0 0 .2.4.8.6L97.9 53.2v0zM101.9 52.6c-.2-.4-.8-.4-.8-.4l-.2.2L101.9 52.6zM92.3 54.4c-.2.0-.4.2-.4.2h.6L92.3 54.4zM95.9 54c0-.2.2-.2.2-.2-.8-.4-1.2-.4-1.2-.4h-.2L95.9 54v0zM88.1 55.6c-.2.2-.4.0-.4.0s.6.8 1.8.8L88.1 55.6v0zM90.7 56c.2.0.4-.2.6-.2-1.2.0-2-.6-2-.6s-.2.0-.2.2C89.1 55.6 90.7 56 90.7 56v0zM84.4 57H84c.2.2.2.4 1 .4C85.2 57.2 84.4 57 84.4 57zM86.7 57.2c.2-.2.2-.2.6-.2.6-.2-.4-.4-1.4-.2C85.7 57 86.7 57.2 86.7 57.2v0zM80.6 62v-.4c0 0-.8.6-.8 1.4L80.6 62zM79.8 63.8c0 0 0 .2.2.2.0.0.2-.2.2-.6L79.8 63.8v0zM82.2 63.8v.4c0 0-.2.0-.2-.2L82.2 63.8zM81.8 63.4c0-.4.0-.6.6-.8v.2L81.8 63.4zM84.2 62c-.6-.8-1 1.4-1 1.4C83.4 63.4 83.8 62 84.2 62zM84.4 64.6c0 .2.2.2.2.2.2.2.4-.2.4-.6C85 64.2 83.8 64.2 84.4 64.6v0zM85.9 62c0-.2-.2-.4-.2-.4s-.2.4-.2.8L85.9 62v0zM86.5 64.6c0 0 .2.0.4.2v-.6C86.9 64.2 86.5 64.2 86.5 64.6v0zM86.7 60.6h-.4c0 0 .2.2.4.4V60.6zM88.9 64.6h.4v-.4L88.9 64.6zM89.3 60.6c-.2-.2-.4.2-.4.2l.4.4V60.6v0zM91.5 64c.2.0.2.0.4-.2-.2-.2-.2-.4-.2-.4S91.3 63.6 91.5 64v0zM90.3 60.2h-.2l.2.2V60.2zm3 3c.2.0.4.0.4-.2l-.2-.2L93.3 63.2zM93.1 60.2c0 .2.2 1.8 1.4 2.2C94.5 62.4 93.3 60.8 93.1 60.2zM95.7 62c0 0 .2.0.2-.2-.2.0-.2-.2-.4-.4L95.7 62v0zM93.9 58.8c-.2.0-.4.2-.4.2l.2.2L93.9 58.8zM97.1 60.4c.4.0.4-.2.4-.2-.4-.6-.8-.8-1-1.2C96.3 59.6 97.1 60.4 97.1 60.4v0zM96.3 58c-.2.0-.4.0-.4.2.2.0.2.0.6.2L96.3 58v0zM100.5 59.4c.2-.2.4-.4.4-.6-.4.0-.6-.2-1-.2C99.9 58.6 99.7 59.2 100.5 59.4zM97.9 57.2c-.4.0-.4.2-.6.2.2.0.4.2.6.2V57.2zM102.9 58.6c.2-.2.4-.2.6-.2.0-.4-.4-.6-1-.8C102.5 57.6 102.3 58 102.9 58.6v0zM100.7 56.6c-.4.0-.6.2-.4.2.0.0.2.0.6.2L100.7 56.6v0zM106.5 57.6h.2c-.2-.4-.6-.8-1-.8L106.5 57.6v0zM104.3 55.8l-.4.2.4.2V55.8zM112 56.8c.4.0.6-.2.6-.2-.6-.2-1.2-.4-1.8-.4L112 56.8v0zM110.3 55.2c-.4.2-.4.2-.4.4.0.0.2.0.6.2L110.3 55.2v0zM121.6 54.6l.2-.2-.4-.2c0 0-.2.0-.2.2L121.6 54.6zM106.3 54.8l-.4.2c0 0 .2.0.6.2L106.3 54.8v0zM120.8 54c.2-.2.4-.2.4-.2h-.6L120.8 54v0zM88.5 59.4c0 0 3.6.8 1.4-1.8h-.4l.4.6c0 0-1.4-.4-1.8-.2 1.4.2 2.2.8 2.2.8s-2-.6-2.4-.4c-.4.2 2 .4 2 .8C88.9 59 88.5 59.4 88.5 59.4v0zM86.9 59.4c0 0 .6.6 1 0C88.1 59 86.9 59.4 86.9 59.4zM86.5 58.8l1 .4c.2-.2.0-.4.0-.4h-1zM86.9 58.4l.4.2-.2-.4h-.2V58.4v0zM91.5 57.2c0 0 .6-.4.8.2C92.5 57.4 91.5 57.4 91.5 57.2zM91.3 58.4c0 0 1.6.0 1.8.2.2.4.6-1.2-2.4-1.2-.2.4 1.6.4 2 .8C90.7 57.8 91.3 58.4 91.3 58.4v0zM94.3 58c1.4.2 2.6-1.2-1-1.6-.2.4 2 .8 2 .8s-.4.2-2.8-.4c-.8.2 2.2 1 2.6.8.0.2-.4.2-1 .2L94.3 58zM94.5 56.2c.2.2 1.8.6 3 .4v-.2C96.7 56.6 94.5 55.8 94.5 56.2zM95.9 56c0 0 1 .4 1.8.4.2.0-1.4-.8-1.4-.8L95.9 56v0zM96.9 55.6c0 0 1.6.8 3.4.4-.8.0-3-.6-3-.6L96.9 55.6v0zM97.7 55.2c.2.2 1.8.6 3.2.6v-.2C100.3 55.6 97.7 54.8 97.7 55.2v0zM99.1 55c2 .8 7.4.8 3.8-1-.6-.4-.2.4.6.6-.2.2-2.4-.2-2.4-.2s-.6.4 2.6.8C101.3 55.2 98.9 54.6 99.1 55v0zM82.6 58.6c0 0 1.6-.6 1.8.0.4.0.2-.4.2-.4C83.8 57.6 82.6 58.6 82.6 58.6zM82.6 58.4c0 0 .4-.2.4-.4.2.0.0.0.0.0l-.6.2L82.6 58.4v0zM82.2 58.2l.2-.2H82L82.2 58.2zM81 57.4c-.2.4.2.6.2.0.2-.2-.4-.2-.4-.2L81 57.4zM81.2 59.4l.4-.8c0 0-.2.0-.2.2-.2.0-.4.4-.4.4C81 59.4 81.2 59.4 81.2 59.4v0zM79.6 60.4c0 0 1-.8 1.2-1.2.0-.2-.2.0-.2.0s-.8 1.2-1.2 1.2H79.6zM80 59.6c0 0-1 1.2-1.2 1.2-.2.2-.2.2-.2.0.0.0 1.2-1 1.2-1.2C79.8 59.4 80 59.6 80 59.6zM79.2 60c0 0-.6 1-1.4.8.0.0-1 .2-.4-.4.4.4.6.0.6.0s.2.4 1-.4H79.2v0zM77.4 59.4v-.2c.2.0.2.2.2.2H77.4zM76.2 59h.4c0 .2.0.2-.2.2C76.4 59.2 76.2 59.2 76.2 59zM77 58.6h.4c0 .2-.2.2-.2.2S77 58.8 77 58.6zM76.2 59.6c0 0 0-.2.2-.2v.4C76.2 59.8 76.2 59.6 76.2 59.6zM72.2 59.8c0 0 0-.2.2-.2l.2.2H72.2zM78.2 57.4v0zM77 57.4h.4c0 0 0-.2-.2-.4-.2.0-.4.2-.4.2L77 57.4zM76 57.2h.6l.2-.4L76.2 57 76 57.2zM75.2 57H76v-.2h-.8V57v0zm-4 1c0 0 .6-.2 1.2.0.4.0.2-.2.2-.2s-1.2-.2-1.2.0L71.2 58zM73 57.8c0 0 .4.2 1-.2.2-.2.8.2.8.2.2.0.2-.2.2-.2s-.6-.6-1.4.0c-.2.2-.6.0-.6.0V57.8zM72.6 60.6c0 0 .4.4 1-.2C73.2 60.4 72.6 60.6 72.6 60.6zM72.6 60c0 0 .6.2 1 0 .6-.2.2-.2.2-.2C73.4 59.8 72.6 60 72.6 60zM72.8 59.6c0 0 .6-.2 1 0 .2.0.4-.2.4-.2.2-.2-.8.0-.6.0C73.6 59.2 72.8 59.6 72.8 59.6v0zM72.8 59c0 0 .4.2 1-.2.4-.2.8.0.8.0s.2-.4-1-.2C73.2 59 72.8 58.6 72.8 59zM74.4 60.4l.6-.6h-.2c-.2.0-.6.4-.6.4L74.4 60.4v0zM74.6 60.6h.2c0 0 .4-.4.8-.4.2-.2-.2-.2-.2-.2C75 60 74.6 60.6 74.6 60.6v0zM74.8 61c0 0 .6-.4 1-.4.0-.2.4-.4.6-.4.0.2-.2-.4-.8.2C74.6 60.8 74.8 61 74.8 61v0zM74.8 59.2h.6l-.2.2C75 59.4 74.8 59.2 74.8 59.2v0zM74.8 59c0 0 .6-.2 1-.2.4.2.4-.4.4-.4l.2-.2h-.8c0 0-.6.0-.6.2.0.2.2.2.2.2s.4-.2.8-.2c.2.2-.4.2-.4.2C74.8 58.6 74.8 59 74.8 59v0zM79.6 59c0 0 .8-.4 1-.8h.2c0 0 .4-.4-.2-.8-.6.0-1.8.2-2.2.2.0.2 1 .2.8.4H79l.2.2c0 0-.2.2-.6-.2h-.2c0 0 .4.4.2.6-.4.4.4.0.4.0l.2.2h.2L79.6 59v0zM45.5 57h-.2l-1 1h.2l1-1zM46.5 56.8 45.9 57c0 .2-1 1-1 1h.4L46.5 56.8zM47.3 56.6l-.4.2c0 0-1.4 1-1.2 1.2h.4L47.3 56.6zM48.1 56.6h-.2c0 0-1.4 1-1.2 1.4h.4L48.1 56.6v0zM49.3 56.4h-.4c0 0-1.4 1-1.2 1.4h.6L49.3 56.4v0zM50.5 56.2h-.6c0 .4-1.4 1.2-1 1.4.2-.2.4-.2.6-.2L50.5 56.2zM51.5 56c-.2.0-.4.0-.6.2.0.2-1.2.8-.8 1 .2-.2.6-.2 1-.4L51.5 56v0zM48.3 57.8 47.7 58c-.2.4-1.6 1.4-1.6 1.4.0.2.4.2.8.2L48.3 57.8v0zM49.7 57.6h-.4c-.4 1-2.4 1.8-2.2 2h1C49.3 58.8 49.7 57.6 49.7 57.6v0zM51.3 57.2c-.2.2-.4.2-.6.2-.6 1.2-2.4 1.8-2 2 .4.0.6.0 1-.2C49.7 59.2 51.5 57.8 51.3 57.2zM52.7 57.2h-.4c-.4.8-2.4 1.6-2 1.8.6-.2 1-.4 1.4-.6C51.7 58.4 52.9 57.4 52.7 57.2zM50.7 59.4h-.6c.2.2-.8.8-.6 1h.6L50.7 59.4zM51.5 59.2h-.4c.2.2-1 1-.8 1.2h.6L51.5 59.2v0zM52.9 58.6c-.2.2-.4.2-.8.4l-.8 1.4c.2-.2.4-.2.8-.2L52.9 58.6v0zM54.3 58.2c-.2.0-.6.0-.8.2.2.2-1.2 1.2-1 1.6.2-.2.4-.2.8-.4C53.1 59.4 54.3 58.2 54.3 58.2v0zM53.1 54.8h-.6c-1.6 1.2-.8.0-.8.0-.8.0-.6.6-.6.6s.4.2.8.2L53.1 54.8v0zM56.7 57c0-.2.0-.2-.2-.2-.2.2-3 0-3 .6.2.0.2.2.4.2C54.1 57.2 57.1 57.4 56.7 57zM57.9 57.4c-.2.0-.4.0-.6-.2.0.4-3.2.2-3 .6.2.0.4.2.8.2C54.9 57.8 58.3 58 57.9 57.4zM54.5 54.8h-.6c.6.4-1.8.6-1.4 1h.8C53.1 55.6 54.9 55.2 54.5 54.8zM55.7 55c-.2-.2-.4-.2-.4-.2.2.6-1.8.8-1.4 1.2h1C54.7 55.8 55.9 55.2 55.7 55v0zM57.9 56.8c-.2.0-.4.0-.4-.2-.4-.2 1.2-1 1.2-1.2h.4C59.3 55.8 57.9 56.8 57.9 56.8zM59.1 56.8h-.6c-.4-.2 1.4-.8 1.6-1h.2C60.4 56 59.1 56.8 59.1 56.8zM61 57h-1.2c-.4-.4.8-.2 1.4-.6h.2L61 57zM62.4 57.8l-.2-.2c0 .4-1.6.6-1.6.6.0.2.2.2.4.4C61 58.4 62.8 58 62.4 57.8v0zM63.6 58h-.4c0 .2-2.6.6-1.6.8H62C62 58.8 63.8 58.4 63.6 58zM60.1 58.8l-.4-.2-3.6.8c0 0 .4.2.6.4C56.7 59.4 60.4 59 60.1 58.8v0zM62 60c.2-.2-.2-.2-.2-.2l-1.4.6c0 .2.0.4.2.4C60.6 60.8 61.8 60.2 62 60zM62.6 60.4c0-.2-.2.0-.2.0-.2.2-2 .4-1.8.8H61L62.6 60.4zM56.7 61.2h-.2c0 0-1.2 1.4-1 1.4h.6C56.1 62.4 57.3 61.4 56.7 61.2v0zM58.5 60.8h-.6c0 .2-1.6 1.6-1.2 1.6.2.0.4.0.8-.2C57.5 62.2 58.5 61 58.5 60.8v0zM55.7 59.8h-.4c-.6 1-1.8 1.6-1.4 1.6.4.0.6.0 1-.2L55.7 59.8v0zM54.5 59.8h-.4c0 .2-1.4 1.8-1.4 1.8.2.0.4.0.8-.2C53.5 61.4 54.7 60 54.5 59.8v0zM64.8 59.6h-.4l-1.2.6c-.2.2-.2.2.0.4L64.8 59.6v0zM98.5 53.2h-.2l.4.6h.4L98.5 53.2v0zM99.3 53c-.2.0-.2.2-.2.2-.2.2.6.6.6.6.2.0.2-.2.4-.2L99.3 53zM99.9 52.8 99.7 53c-.2.2.8.6.8.6s.2.0.2-.2L99.9 52.8v0zM100.5 52.6c-.2.0-.2.2-.2.2-.2.2.8.6.8.6l.4-.2L100.5 52.6zM100.9 52.4c-.2.0-.4.2-.4.2.2.2 1.4.6 1.4.6l.2-.2L100.9 52.4zM104.9 52.6l-.2.2c-.2.2.4.6.4.6h.8C105.9 53.4 104.9 52.8 104.9 52.6zM105.7 52.4h-.4c-.2.4 1 .8 1 .8h.6C106.9 53.2 105.5 52.6 105.7 52.4v0zM85.4 56.8h-.6l1 .6c0 0 .2.0.2-.2L85.4 56.8v0zM92.9 54.2l-.2.2.2.2h.4L92.9 54.2zM93.5 54l-.2.2.4.4h.4L93.5 54v0zM94.1 53.8c-.2.0-.2.0-.4.2v-.2l.8.6h.4L94.1 53.8zM94.5 53.6h-.2H94.5l.8.6c0 0 .2.0.4-.2L94.5 53.6v0zM88.9 55.4h-.6c0 .2 1.6.8 1.6.8h.4L88.9 55.4zM110.9 55.2h-.2l.6.6h.6L110.9 55.2v0zM112.4 55c-.2.0-.6.2-.6.2l1 .6h1L112.4 55zM114 55h-1l1.4.8h.8L114 55zM115.4 55h-.6l.8.8h.8L115.4 55v0zM116.6 55H116l1 .8c.2.0.2.0.6-.2L116.6 55zM117.6 54.8h-.4l.8.8h.4L117.6 54.8zM118.8 54.8h-.4l.6.6h.6L118.8 54.8v0zM119.8 54.6c-.2.0-.4.2-.4.2l.8.4h.2L119.8 54.6v0zM120.8 54.4h-.4l.4.6c.2.0.4-.2.4-.2L120.8 54.4v0zM120.2 53.8l-.4.2v.2h.4V53.8zM119 54h-.4l.2.4h.4L119 54zM118 54.2h-.6l.2.2h.6L118 54.2zm-1 0h-.6l.2.4h.8L117 54.2v0zM115.6 54.2H115l.2.6.8-.2L115.6 54.2v0zM114.2 54.2h-.6l.6.6h.4L114.2 54.2zM112.8 54h-.6l.6.8h.6L112.8 54zM111.6 54l-.4.2.6.6h.6L111.6 54v0zM110.7 54.2l-.4.2.4.4h.4L110.7 54.2v0zM109.7 54.4h-.4l.4.6c.2.0.2-.2.2-.2h.2L109.7 54.4v0zm-1 0h-.4l.8.8h.4L108.7 54.4zm-1 0h-.4l.8 1h.6L107.7 54.4zM106.9 54.6c-.2.0-.4.2-.4.2l.6.4c.2.0.2.0.4.2L106.9 54.6v0zM101.5 56.4h-.4l.4.8c.2.0.4.0.8.2L101.5 56.4v0zM102.7 56.4h-.4l.6 1c.4.0.6.2.8.2L102.7 56.4zM103.9 56.4h-.4l.8 1c.2.2.4.2.6.2L103.9 56.4zM105.3 56.6c-.2.0-.4.0-.4-.2l.6 1.2c0 0 .4-.2.4.0L105.3 56.6zM110.1 56c-.4-.2-.8-.2-1-.2l1.4 1.2h.6l-1-1zM108.5 55.8c-.4.0-.6-.2-.6-.2l1 1.2c.2.0.6.2.8.2L108.5 55.8v0zM106.9 55.6h-.4l.8 1.2h.8L106.9 55.6zm-1 0h-.6l.8 1h.8l-1-1v0zm-1 0c-.2.0-.4.2-.4.2l.4.4c.2.2.4.2.6.2L104.9 55.6v0zM79.8 57.8h-.4c0 0 0 .8.8.6C79.8 58.2 79.8 57.8 79.8 57.8v0zM68 67.4c0 0 .8.0 1-.4C68.2 66.8 68 67.4 68 67.4zM80.4 63v-.4l-.8.8c.2.0.2.2.2.2L80.4 63zM81.8 63.8v-.2l.6-.6v.6L81.8 63.8zM98.7 57.2h-.4l.4.8c.2.0.4.0.6.2L98.7 57.2zm1 0h-.6l.8 1c0 .2.2.2.4.2C100.3 58.2 99.7 57.2 99.7 57.2zM100.5 57.2h-.4c0 0 .6 1.2.8 1.2.2.2.4.2.4.2C101.5 58.2 100.5 57.2 100.5 57.2zM101.7 57.4h-.4c0 0 0 1 .6 1.2h.6L101.7 57.4zM97.1 58h-.4c0 .2.4.8.4.8.2.0.4.2.6.2L97.1 58zM97.9 58h-.4c-.2.4 1 1.4 1 1.4.2.0.4.0.6.2L97.9 58v0zM99.1 58.4c-.2-.2-.4-.2-.4-.2-.2.4 1 1.4 1 1.4h.4L99.1 58.4zM94.5 58.6c0 .2-.2.2-.2.2-.2.0.0.6.0.6.0.2.2.2.2.2V58.6zM94.9 58.6c0 0-.4.8.2 1.4.4.4.6.6.6.8h.6C96.3 60.8 94.9 59.2 94.9 58.6zM95.7 58.8c0-.2-.2-.2-.2-.2.2 1.4 1.2 2.2 1.2 2.2l.2-.2C96.9 60.6 95.5 59.4 95.7 58.8zM93.9 59.8h-.4c-.2.8 1.4 2.6 1.4 2.6h.2C95.1 62.4 93.9 60.8 93.9 59.8v0zM95.1 60.8c-.2.0-.2-.2-.4-.4-.2.6.4 1.6.6 1.8.2.0.2.0.2-.2C95.5 62 95.1 61.4 95.1 60.8v0zM90.9 60h-.2l-.2.6c.2.0.2.2.4.2V60v0zM91.5 60.2 91.3 60c-.2.4-.2 1.2-.2 1.2.2.0.4.2.4.4V60.2v0zM92.3 60.8l-.2-.2L91.7 62c.2.4.4.6.6 1C92.3 63 92.1 61.2 92.3 60.8v0zM93.1 62c0-.4-.2-.4-.4-.6-.2.4.0 1.8.0 1.8h.4C93.1 63.2 92.9 62 93.1 62zM90.1 60.8h-.2c-.4.0-.4.6-.4.6.0.2.0.2.2.2L90.1 60.8zM90.7 61.4c-.2.0-.2-.2-.2-.2-.6.2-.6 1-.6 1 0 .4.2 1.2.2 1.2C90.1 63.2 90.3 61.6 90.7 61.4zM91.1 62c0 0 0-.2-.2-.2-.6.8-.6 2-.6 2 .2.0.2.2.4.2C90.7 64 90.7 62.6 91.1 62zM91.5 63v-.2c-.6.2-.6 1.4-.6 1.4.2.0.2.0.4-.2C91.3 64 91.3 63.2 91.5 63v0zM87.1 60.8c0 0 0-.2-.2-.2v.6c0 .2.0.4.2.4V60.8zM87.5 61v-.2c0 0-.4 1-.2 1.2v.2C87.5 62 87.5 61 87.5 61zM88.3 61.4c0-.2-.2-.2-.2-.2-.6.6-.8 2-.4 3C87.7 62 88.3 61.4 88.3 61.4v0zM88.9 62.2c0-.2-.2-.4-.2-.4-.6.0-.6 2.6-.6 2.6h.2C88.3 63.4 88.9 62.2 88.9 62.2v0zM89.3 63.4V63c-.6.0-.8 1.6-.8 1.6h.4C88.9 64.6 88.9 63.8 89.3 63.4v0zM86.5 62.8c0 0 0-.2-.2-.4.0.0-.4.4-.6 1 .2.0.2.2.2.4C85.9 63.8 86.3 63 86.5 62.8v0zM86.7 63.8v-.4c-.4-.4-.8.6-.6.8v.2L86.7 63.8zM84.8 62.8c0 0 0-.2-.2-.2-.6-.2-1.2 1-1.2 1 0 .2.2.2.4.2C83.8 63.8 84.4 62.6 84.8 62.8zM85 63.6c0-.2-.2-.2-.2-.4-.2-.2-1 .8-1 .8v.2C84 64.2 84.4 63.6 85 63.6zM58.7 62.2l-.2.2c0 0-.6.6-.6.8.2.0.2.2.4.2L58.7 62.2v0zM59.7 62l-.4.2-.6 1h.4C58.9 63 59.7 62 59.7 62zM60.8 61.8c-.2.0-.6.2-.6.2s-.8.8-.6 1.2C59.7 63 60 63 60.2 63 59.9 62.8 60.8 61.8 60.8 61.8zM61.6 61.8h-.4c0 0-1 .8-.6 1 .2.0.4-.2.6-.2L61.6 61.8zM64.4 61.6l-.2-.2c0 0-1.2.8-1 1h.4C63.6 62.2 64.4 61.6 64.4 61.6zM66.8 61.6C66.4 61.6 66 62 66 62c.2.0.2.2.4.2L66.8 61.6v0zM67.6 61.8h-.4c0 0-.8.2-.6.6H67L67.6 61.8zM65.8 63c0-.2-.6.0-.6.0l-1.8 1.2h.4L65.8 63v0zM66.8 63.4c-.4.0-.6.4-1 .6l-.6.8c.2-.2.4-.4.8-.2C65.8 64.4 66.8 63.4 66.8 63.4v0zM69.2 64.6H69c0 0-1 .6-.8.8.0.0.2.2.4.2C68.4 65.4 69.2 64.6 69.2 64.6zM70 64.6h-.2l-1 1c.2.0.4.0.4.2L70 64.6zM70.6 64.6h-.2c0 0-.8 1-.6 1h.4L70.6 64.6v0zM66.4 65.6c-.2.0-.2.2-.2.2.0.2-1.2 1.6-1.2 1.6.2.0.2.0.4-.2L66.4 65.6zM67.2 65.4H67c0 .4-1 1.8-1 1.8.2.0.4-.2.6-.2L67.2 65.4v0zM68 65.6h-.2L67 66.8c.2.0.2-.2.6-.4C67.6 66.4 67.8 66 68 65.6zM61.8 67.9c0-.2-.4.2-.4.2l-.2.6c.2-.2.4-.2.6-.2V67.9v0zM61 68.1l-.4.2c0 .2-.6 1-.6 1 .2.0.4-.2.6-.2L61 68.1zm-3.5 1h-.2c0 0-.8 1.2-.6 1.4h.4L57.5 69.1v0zM56.1 69.5l-.2.2-.4.8h.2L56.1 69.5zM59.1 70.1l-.4.4-.2.6h.4L59.1 70.1zM60.4 69.5c-.2.0-.4.2-.4.2l-.8 1.4h.4C59.3 70.9 60.6 69.7 60.4 69.5v0zM61.2 68.9v.2l-1.4 2c.4.0.6-.2.8-.2C60.6 70.9 61.4 69.3 61.2 68.9zM62.2 68.5 62 68.7l-1 1.8c.2.0.4.0.6-.2C61.4 70.3 62.2 68.5 62.2 68.5v0zM64.2 67.9c-.2.0-.4.0-.6.2.0.0-.6 1.2-.4 1.2.2.0.4-.2.4-.2C63.4 68.9 64.2 67.9 64.2 67.9zM64.8 67.7c0 0-.6.8-.6 1 .2-.2.4-.2.6-.2V67.7zm1 0h-.6v.4c.2.0.4.0.6-.2V67.7zM61.2 70.7c-.2.2-.4.4-.6.4l-.2.8h.4L61.2 70.7v0zM62.2 70.3c-.2.0-.4.2-.4.2L61 71.9c.2-.2.4-.2.6-.2C61.4 71.7 62.4 70.5 62.2 70.3v0zM62.8 69.9h-.2L62 71.5c.2.0.2.0.4-.2C62.2 71.1 62.8 69.9 62.8 69.9v0zM63.6 69.5h-.4l-.4 1.6c.2.0.4.0.6-.2C63.2 70.7 63.6 69.5 63.6 69.5v0zM64.4 68.9l-.2.2c0 0-.6 1.4-.4 1.6.2-.2.2-.2.4-.2C63.8 70.3 64.4 68.9 64.4 68.9zM65.2 68.5c0 0-.2.2-.4.2l-.2 1.4c.2-.2.4-.2.6-.4C65 69.5 65.2 68.5 65.2 68.5v0zM66.2 68.1c-.2.2-.4.2-.4.2l-.2 1c.2.0.4-.2.6-.4C65.8 68.9 66.2 68.1 66.2 68.1v0zm-1 2c-.2.0-.4.2-.4.2l-.4.8H65C64.8 70.9 65.2 70.1 65.2 70.1v0zM66 69.5c-.2.0-.4.2-.4.2l-.2 1.2c.2.0.2-.2.4-.2C65.8 70.7 65.8 69.9 66 69.5zM66.8 69.3h-.4l-.2 1.2c0-.2.0-.2.2-.4C66.4 70.1 66.4 69.7 66.8 69.3zM33 82.1c0-2.2 1.8-4 4-4 2 0 3.8 1.8 3.8 4 0 2-1.8 3.8-3.8 3.8C34.9 85.9 33 84.1 33 82.1z"/><path class="st0" d="M34.4 82.9c0-1.6 1.2-2.8 2.8-3.2 1.4-.2 2.6.8 2.8 2.4.0 1.4-1.4 3-2.8 3.2C35.7 85.5 34.4 84.5 34.4 82.9z"/><path d="M58.3 82.1c0-2.2 1.8-4 3.8-4 2.2.0 4 1.8 4 4 0 2-1.8 3.8-4 3.8C60.1 85.9 58.3 84.1 58.3 82.1z"/><path class="st0" d="M59.7 82.9c0-1.6 1.4-2.8 2.8-3.2 1.4-.2 2.6.8 2.6 2.4.0 1.4-1 3-2.6 3.2C61.2 85.5 59.7 84.5 59.7 82.9v0z"/><path class="st1" d="M86.5 80.1h-3C84.2 79.5 86.1 79.7 86.5 80.1z"/><path class="st0" d="M83.4 80.3v3.6H85v.8c-1 .4-2.6.2-3-.6C81.6 82.5 82.2 81.1 83.4 80.3v0z"/><path d="M20 75.1l2.2 3.4 2.4-3.4h3.6v1.8h1v13.1h-3.8v-.8h-1.2v-3.6l-.8.8-.8-1.2-.4.6-1-1.4v5.6H18v-.8h-1.6V75.1H20v0 0zM22.2 79.9l2.8-4h2.6v12.4H25v-7.8l-2.8 4-2.6-4v7.8H17V75.9h2.6L22.2 79.9v0zM44.1 85.9c-.6 2-2.6 3.6-4.6 4-3 .4-5-.4-7.4-2.2-.8-1-2.4-3-2.4-5.6-.2-4 3.2-7.2 7.2-7.2 2.4.0 4.4 1.2 5.8 3C43.1 78.7 45.7 81.5 44.1 85.9v0zM30.4 82.1c0-3.6 2.8-6.4 6.4-6.4 3.6.0 6.4 2.8 6.4 6.4.0 3.6-2.8 6.4-6.4 6.4C33.2 88.5 30.4 85.7 30.4 82.1z"/><path d="M45.3 79.9v-.8h-1.6v-4h10.4v1.8h1v3h-3v10h-3.4v-.8h-1.6v-9.2H45.3v0zM53.5 78.5h-3.2v9.8h-2.8v-9.8h-3.2v-2.6h9.2V78.5v0 0z"/><path d="M69.6 85.9c-.8 2-2.8 3.6-4.8 4-3 .4-5-.4-7.2-2.2-1-1-2.6-3-2.6-5.6.0-4 3.2-7.2 7.2-7.2.0.0.0.0.1.0 2.4.0 4.4 1.2 5.8 3C68.6 78.7 71 81.5 69.6 85.9v0zM55.7 82.1c0-3.6 2.8-6.4 6.4-6.4 3.6.0 6.4 2.8 6.4 6.4.0 3.6-2.8 6.4-6.4 6.4C58.5 88.5 55.7 85.7 55.7 82.1zm40.2-7v1.8h1v7.6c0 .6 2.6.6 2.6.0v-9.4h3.8v1.8h1v10.4c-.4 1.2-1.8 2.6-3.2 2.6.0-.2-3.6.0-4.2.0-1.8.0-4.8-2.2-4.8-4.8v-10L95.9 75.1v0 0zM95.3 84.9c0 .2.2.8.6.8.4.2 2.4.2 3.6.0.0.0.4-.4.4-.8v-9h2.8v9.6c-.2 1-1.8 2.6-2.4 2.6-1.4.2-3.4.4-5.2.0-1.2-.4-2.2-1.4-2.4-2.6v-9.6h2.6L95.3 84.9v0 0zM116.4 76.9v3l-3.8 4.8h2.8v1.8h1v3.4H107v-.8h-1.6v-4.2l3.8-5H107v-1.2h-1.6v-3.6h10v1.8h1v0 0zM114.8 78.1l-5.4 7.4h5.4v2.8H106v-2.8l5.4-7.2H106v-2.4h8.8V78.1zM128.4 76.9v3l-3.8 4.8h2.8v1.8h1v3.4H119v-.8h-1.6v-4.2l3.8-5H119v-1.2h-1.6v-3.6h10v1.8h1v0 0zM126.8 78.1l-5.4 7.4h5.4v2.8H118v-2.8l5.4-7.2H118v-2.4h8.8V78.1zM133.2 75.1v1.8h.8v13.1h-3.2v-.8h-1.6V75.1H133.2v0 0zM132.4 75.9v12.4h-2.6V75.9H132.4z"/></svg>