<svg id="Layer_1" xmlns="http://www.w3.org/2000/svg" xmlns:xlink="http://www.w3.org/1999/xlink" viewBox="0 0 150 150" style="enable-background:new 0 0 150 150"><style>.st0{stroke:#000;stroke-width:3.2016;stroke-linecap:round}.st1{fill:#951b1e}.st2{fill:#fee2d2}.st3{fill:none}.st4{font-family:arialmt}.st5{font-size:5.902px}</style><g><path d="M8.3 97.7h2.1l.8-5.2c0-.4.1-.9.1-1.5v-.2c.2.8.4 1.3.4 1.4l2.2 5.5H15l2.2-5.5c.1-.2.2-.7.4-1.4.0.1.0.2.0.3.0.5.1 1 .2 1.4l.8 5.2h2.1L19 89.1h-2.3l-2 5c-.1.2-.2.6-.2 1.2-.1-.6-.2-1-.3-1.2l-2-5H9.9L8.3 97.7v0zM31.1 96.3c-2 0-3.2-1.3-3.2-2.9s1.3-2.9 3.2-2.9c1.9.0 3.2 1.3 3.2 2.9S33 96.3 31.1 96.3v0zM36.6 93.4c0-1.2-.6-2.3-1.6-3.2-1-.8-2.4-1.3-3.9-1.3-1.4.0-2.9.5-3.9 1.3-1 .8-1.6 2-1.6 3.2.0 1.4.7 2.6 2 3.5 1 .7 2.2 1 3.5 1 1.4.0 2.8-.5 3.9-1.3C36 95.7 36.6 94.6 36.6 93.4v0zM46.1 90.7h2.5v-1.6h-7.3v1.6h2.5v7h2.2L46.1 90.7v0zM59 96.3c-2 0-3.2-1.3-3.2-2.9s1.3-2.9 3.2-2.9c1.9.0 3.2 1.3 3.2 2.9S60.9 96.3 59 96.3v0zM64.5 93.4c0-1.2-.6-2.3-1.6-3.2-1-.8-2.4-1.3-3.9-1.3-1.4.0-2.9.5-3.9 1.3-1 .8-1.6 2-1.6 3.2.0 1.4.7 2.6 2 3.5 1 .7 2.2 1 3.5 1 1.4.0 2.8-.5 3.9-1.3C63.9 95.7 64.5 94.6 64.5 93.4v0zM72.6 92.7v-2.2h.3c1.4.0 2.2.2 2.2 1.2s-.8 1.1-2.2 1.1L72.6 92.7v0zM77.9 97.7 75 93.8c1.3-.2 2.3-1 2.3-2.2.0-1.6-1.2-2.4-3.8-2.4h-3.2v8.6h2.2v-4l2.7 4H77.9V97.7zM91.6 91.3l.1-1.8c-.8-.3-1.9-.6-3.2-.6-3.4.0-5.7 2-5.7 4.5.0 2.6 2.3 4.5 5.6 4.5 1.1.0 2.2-.2 3.1-.7v-1.9c-.9.7-1.9 1-3.1 1-2.1.0-3.4-1.2-3.4-2.9.0-1.8 1.4-3 3.6-3C89.9 90.4 90.8 90.8 91.6 91.3v0zM100.9 97.7h2.2v-3.9l3.5-4.7H104l-1.5 2.3c-.2.4-.4.7-.5 1.1-.2-.5-.3-.8-.5-1.1L1e2 89h-2.6l3.5 4.7v4 0zM120.5 91.3l.1-1.8c-.8-.3-1.9-.6-3.2-.6-3.4.0-5.7 2-5.7 4.5.0 2.6 2.3 4.5 5.6 4.5 1.1.0 2.2-.2 3.1-.7v-1.9c-.9.7-1.9 1-3.1 1-2.1.0-3.4-1.2-3.4-2.9.0-1.8 1.4-3 3.6-3C118.8 90.4 119.7 90.8 120.5 91.3v0zM127.7 97.7h5.7v-1.6h-3.5v-7h-2.2V97.7v0zM140 97.7h6.1v-1.6h-3.9v-2.2h3.9v-1.6h-3.9v-1.8h3.9v-1.6H140V97.7v0z"/><g><g><g><path class="st0" d="M56.3 41.6c0 0-3.8-5-13.9-2.1.0.0-5 1.5-7.5 5.8.0.0-9.1-1.4-15.3 4.9.0.0-5.2 5.8.0 10.8.0.0 4.4 3.5 9-.4.0.0.8-.6 1.4-3.1.0.0-3.8 1.2-6-1.2-1.9-2-.4-4.1 1-5.6 2-2.1 4.2-2.9 8.1-2.7.0.0-3.7 11.6 2.6 14.6.0.0-1.7 6.3-5.9 11-4.2 4.7-7.7 8.5-14.9 7.1-7.1-1.4-9.4-6.1-8-11 0 0 2-4.8 7.9-2.9.0.0 1.5.4 1.3 3.2.0.0-1.3 3.7-4.4 1.5.0.0.3 4.9 5.8 4.6 5.5-.3 6.6-7.1 4.3-10.1-2.3-3-9.6-5.9-16.5.0C-2.2 72.1 6.1 89 24.6 84.2c0 0 6.7-1.1 13.1-11.8.0.0 2.7-4.3 3.6-7.7.0.0 7.9 1.3 9.4-6.8.0.0 1-2.8-2.4-7C48.3 50.9 48 50 56.3 41.6zM52.1 41.9c-3.1 1.9-7.6 6.4-7.6 6.4-1.9-1.5-6-2.5-6-2.5C43.8 39.1 52.1 41.9 52.1 41.9zM37.8 58.8c-4.4-2.3-1.3-10.5-1.3-10.5 3.6.1 6.3 2.6 6.3 2.6C39 55.4 37.8 58.8 37.8 58.8zM46.6 58.6C45 61.8 42.5 61 42.5 61c.9-1.3 3.6-6.9 3.6-6.9S48 55.8 46.6 58.6z"/><path class="st0" d="M144.2 64c1.4-2.7 1.2-5.8-1.4-5.8-2.2.0-3.6.8-4.6 1.6-.6.4-1.4.7-1.6-.2s-.8-1.6-2.7-1.7c-3.3-.3-6.9 4.5-6.9 4.5-3.8 5.2-6.4 8.6-7.3 10-2.2 3.1-3 3.8-3.6 3.6-.9-.4.1-2.2.1-2.2l8-15.4-5.1.1-.6 1.7c-1.8-3.4-8.5-2.5-13.9 3.5S98 75.3 98 75.3s-2 3.2-4.3 3.2c-2.3.0-.1-4-.1-4l7.9-15.8L96 58.8c-1.3 3.6-7.5 15-8.5 16.7s-1.7 2.3-3.1 2.5C83 78.3 84.6 75 84.6 75l13.8-27.3h-5.5c-.9 1.9-6.2 11.8-6.2 11.8-2.8-3.8-10.8.2-15.4 6.4-4.6 6.2-4.4 9.2-4.8 9.8s-1.7 1.6-1.7 1.6c-3.7 2.6-1.6-2-1.2-2.8.4-.8 4.6-9 4.6-9 3.3-6 .6-6.8-1.7-7-2.3-.2-3.5.4-4.5 1.2-1.1.8-1.5.0-1.5.0-1.4-3-5.3-1.3-6.6.3-1.3 1.6-5.2 6.6-7.4 9.2s-3.3 2.2-3.7 2.1c-.8-.2-.4-.9-.4-.9-.9.9-1.6 3.4 1.3 3.2 3.3-.2 5.5-4 7.6-7.1 1.9-2.8 2.3-2.2 2.3-2.2 1.1.4-.4 2.5-.4 2.5l-8.4 16.3 5.6-.1 5.9-11.8c2.5.0 3.1-2.1 3.1-2.1-3.6-1.3 1.1-6.7 3.1-6.6 1.9.1.9 2.5.9 2.5-2.6 5.7-6.1 12.7-6.1 12.7-2.9 4.9.5 5.9.5 5.9 4.1 1.5 8.4-4.3 8.4-4.3.3.9.9 3.5 4.9 4.1 4 .7 6.5-2.9 6.5-2.9.6 1.5 1.1 2.7 3.7 2.9 2.6.3 4.9-3.2 4.9-3.2.8.5 1.3 3 4.7 3.2 3.4.2 7.5-5 7.5-5 .4 1.5.9 4.3 4.8 5 3.9.7 5.7-2.7 5.7-2.7.4 1.7 1.3 2.5 1.3 2.5 2.1 1.4 4.9-1.2 4.9-1.2 4.7-4.4 8.3-10.7 10.4-13.7 2.2-3.2 3.6-3.4 2.8-1.5-.8 1.9-8.1 16.2-8.1 16.2l5.5-.1 6.1-11.9c3.9-.2 3.6-2.2 3.6-2.2-3.3-.5.3-4.7 1.6-5.9 1.3-1.2 2.9-.7 2.8.3-.1.9-.9 2.6-.9 2.6-6.1 12-6.7 13.8-7.2 15.3-.5 1.5 1.8 4.2 6.4 1.7 4.6-2.5 3.9-7.1 3.9-7.1-1.9 3.9-3.7 3.8-4.3 3.3-.7-.5.5-2.5.5-2.5S142.8 66.7 144.2 64zM81.8 69.5c-.3 1-.2 1.1-2.6 5.4-2.4 4.4-5 3.6-5 3.6s-3.4-.5-1.8-4.6 6.2-9.8 6.2-9.8c3-3.5 4.8-2.9 5.4-2.7.6.2 2.2 2.2.4 4.4S80.9 66 80.9 66C79.1 68.6 81.8 69.5 81.8 69.5zM111.9 66c-1.8 2.6.9 3.4.9 3.4-.3 1 .2 1-2.4 5.3-2.9 5-5.4 3.7-5.4 3.7s-2.2-.1-1.2-3.9c1.5-5.8 5.7-10.5 5.7-10.5 3-3.5 4.8-2.9 5.4-2.7.6.2 2.2 2.2.4 4.4C113.5 67.9 111.9 66 111.9 66z"/><path class="st0" d="M105.3 51.4c0 1.1-1.4 2.8-2.8 3.2-1.6.4-3-.5-2.8-1.9.2-1.6 1.8-3.4 3.5-3.4C104 49.3 105.3 49.6 105.3 51.4z"/></g><g><g><path class="st1" d="M18.3 85.3c-8.8.0-13.8-5.2-15.4-9.6-1.5-4-.7-7.9 2.1-10.2 2.6-2.2 5.6-3.4 8.7-3.4 3.8.0 6.8 1.8 8.2 3.6 1.4 1.8 1.6 4.8.5 7.2-1 2.1-2.8 3.3-5 3.4-.2.0-.3.0-.4.0-5.3.0-5.7-4.8-5.7-4.9v-.6l.5.4c.6.4 1.2.7 1.7.7 1.4.0 2.1-1.7 2.2-2 .2-2.4-1-2.8-1-2.8-.9-.3-1.8-.4-2.6-.4-3.6.0-4.9 3-5 3.2C6.4 72 6.7 74.2 7.8 76c1.3 2.1 3.8 3.6 7.1 4.3 1 .2 2 .3 2.9.3 5.3.0 8.4-3.5 11.8-7.3 3.6-4 5.4-9.4 5.7-10.6-5.6-3-3.2-12.4-2.6-14.4-.2.0-.5.0-.7.0-3.1.0-5 .8-6.8 2.7-1.5 1.6-2.7 3.4-1 5.2.8.9 2.1 1.4 3.6 1.4 1.2.0 2.1-.3 2.1-.3l.5-.2-.1.5c-.6 2.5-1.4 3.2-1.5 3.3-1.5 1.3-3.1 1.9-4.9 1.9-2.6.0-4.4-1.4-4.5-1.5C14 56.1 19.3 50 19.3 50c4.4-4.4 10.2-5.1 13.2-5.1 1 0 1.8.1 2.1.1 2.6-4.2 7.4-5.7 7.6-5.8 2.2-.6 4.2-1 6-1 5.8.0 8.1 3 8.2 3.1l.2.2-.2.2c-6.7 6.8-7.7 8.7-7.9 9 3.2 4 2.5 6.8 2.4 7.2-1.2 6.4-6.3 7.1-8.4 7.1v0c-.4.0-.8.0-1 0-.9 3.3-3.4 7.3-3.6 7.5-6.4 10.6-13 11.9-13.3 11.9C22.4 85.1 20.3 85.3 18.3 85.3v0zM43 60.8c.1.0.2.0.2.0.9.0 2.1-.4 3.1-2.3 1-1.9.3-3.3-.2-3.9C45.6 55.8 43.9 59.3 43 60.8v0zM36.8 48.6c-.4 1.2-2.4 7.6.9 9.8.4-1 1.7-3.8 4.7-7.5C41.7 50.4 39.6 48.7 36.8 48.6v0zM39.1 45.6c1.1.3 3.8 1.1 5.4 2.3.8-.8 4.2-4.1 6.9-5.9-.7-.2-1.9-.4-3.4-.4C45.5 41.6 41.9 42.3 39.1 45.6v0z"/><path class="st2" d="M48.3 38.6c5.7.0 8 3 8 3-8.3 8.4-8 9.3-8 9.3 3.4 4.2 2.4 7 2.4 7-1.1 6.1-5.9 6.9-8.2 6.9-.8.0-1.2-.1-1.2-.1-.9 3.3-3.6 7.7-3.6 7.7-6.4 10.7-13.1 11.8-13.1 11.8-2.2.6-4.3.8-6.2.8C4.3 85.1-1.3 71.3 5.2 65.8c2.8-2.5 5.8-3.4 8.4-3.4 3.6.0 6.6 1.7 8 3.4 2.3 3 1.2 9.9-4.3 10.1-.2.0-.3.0-.4.0-5 0-5.4-4.6-5.4-4.6.7.5 1.3.7 1.9.7 1.8.0 2.5-2.2 2.5-2.2.3-2.8-1.3-3.2-1.3-3.2-1-.3-1.8-.4-2.6-.4-3.8.0-5.2 3.3-5.2 3.3-1.4 4.9.9 9.6 8 11 1 .2 2 .3 2.9.3 5.4.0 8.5-3.4 12-7.4 4.1-4.7 5.9-11 5.9-11C29.3 59.5 33 48 33 48c-.4.0-.8.0-1.1.0-3.2.0-5.2.8-7 2.8-1.5 1.6-2.9 3.6-1 5.6 1.1 1.2 2.6 1.4 3.8 1.4 1.2.0 2.2-.3 2.2-.3-.6 2.5-1.4 3.1-1.4 3.1-1.6 1.4-3.3 1.9-4.7 1.9-2.5.0-4.3-1.4-4.3-1.4-5.2-5 0-10.8.0-10.8 4.3-4.3 10-5 13-5 1.4.0 2.2.1 2.2.1 2.5-4.3 7.5-5.8 7.5-5.8C44.6 38.8 46.6 38.6 48.3 38.6M44.6 48.3c0 0 4.4-4.5 7.6-6.4.0.0-1.7-.6-4.1-.6-2.8.0-6.6.8-9.5 4.4C38.6 45.7 42.7 46.7 44.6 48.3M37.8 58.8c0 0 1.2-3.4 5-7.9.0.0-2.6-2.5-6.3-2.6C36.6 48.3 33.4 56.5 37.8 58.8M43.2 61.1c.8.0 2.3-.4 3.4-2.5 1.4-2.8-.5-4.6-.5-4.6s-2.7 5.7-3.6 6.9C42.5 61 42.8 61.1 43.2 61.1M48.3 38c-1.9.0-4 .3-6.1 1-.2.1-5 1.6-7.7 5.7-.4.0-1.1-.1-1.9-.1-3.1.0-9 .7-13.5 5.2v0 0c0 .1-5.5 6.3.0 11.6v0h0c.1.1 2 1.6 4.6 1.6 1.8.0 3.5-.7 5.1-2 .1-.1 1-.8 1.6-3.4l.2-1-1 .3c0 0-.9.3-2 .3-1.4.0-2.6-.4-3.4-1.3-1.2-1.3-1-2.7 1-4.8 1.7-1.8 3.6-2.6 6.6-2.6.1.0.2.0.3.0-.7 2.6-2.5 11.3 2.7 14.3-.5 1.5-2.2 6.5-5.6 10.3-3.3 3.7-6.4 7.2-11.6 7.2-.9.0-1.8-.1-2.8-.3-3.3-.6-5.6-2.1-6.9-4.1-1-1.7-1.3-3.8-.6-6.1.2-.3 1.4-2.9 4.7-2.9.8.0 1.6.2 2.4.4v0 0c0 0 1 .4.8 2.5-.1.3-.8 1.7-2 1.7-.4.0-1-.2-1.5-.6l-1-.8.1 1.3c0 0 .4 5.2 6 5.2.2.0.3.0.4.0 2.4-.1 4.2-1.4 5.3-3.6 1.1-2.5.9-5.6-.6-7.5-1.4-1.8-4.6-3.7-8.4-3.7-3.1.0-6.2 1.2-8.9 3.5C1.9 67.6 1 71.7 2.6 75.8c1.7 4.5 6.8 9.8 15.7 9.8 2 0 4.2-.3 6.4-.8.6-.1 7.2-1.5 13.5-12.1.1-.2 2.5-4 3.5-7.3.2.0.5.0.8.0 2.2.0 7.5-.7 8.8-7.3.1-.4.8-3.3-2.3-7.3.3-.6 1.7-2.6 7.8-8.8l.4-.4-.3-.4C56.7 41.1 54.2 38 48.3 38v0zM39.6 45.4c2.7-2.9 6-3.5 8.4-3.5 1 0 2 .1 2.6.2-2.4 1.7-5.2 4.4-6.2 5.4C43 46.5 40.9 45.8 39.6 45.4v0zM37.5 57.9c-2.6-2.1-1.1-7.5-.6-9 2.3.2 4.2 1.4 5 2C39.4 54.2 38 56.7 37.5 57.9v0zM43.5 60.5c.8-1.4 2-3.9 2.7-5.2.3.6.6 1.7-.2 3.1C45.2 59.9 44.3 60.4 43.5 60.5v0z"/></g><g><path class="st1" d="M58.9 84.1c-.5.0-1-.1-1.5-.2.0.0-1.2-.3-1.7-1.6-.5-1.2-.2-2.8 1-4.8.0.0 3.6-7 6.1-12.6.1-.3.4-1.2.1-1.8-.1-.2-.4-.3-.8-.4h0c-1.2.0-3.7 2.4-4 4.2-.2.9.2 1.4 1.1 1.8l.3.1-.1.3c0 0-.7 2.2-3.2 2.3l-5.8 11.8-6.3.1 8.6-16.8v0c.4-.5.8-1.4.7-1.8.0-.1.0-.2-.2-.2v0c-.1.0-.6.3-1.8 2.1-.2.3-.4.6-.6.9-1.9 2.9-4.1 6.1-7.2 6.3-.1.0-.2.0-.3.0-1.3.0-1.8-.6-2-1.1-.4-.9.1-2.1.8-2.7l.4.4c0 0-.1.2.0.2.0.1.1.2.3.2.1.0.2.1.4.1.6.0 1.5-.4 3-2.1 1.2-1.4 3-3.6 4.5-5.6 1.2-1.6 2.3-2.9 2.9-3.6.8-1 2.6-2.1 4.3-2.1 1.3.0 2.2.6 2.8 1.8v0c0 0 .1.2.4.2.2.0.4-.1.6-.3.9-.6 2-1.4 3.8-1.4.3.0.6.0.9.0 1.2.1 2.6.4 3.2 1.6.6 1.2.2 3.2-1.3 5.9-.2.3-4.2 8.3-4.6 9-.4.8-1.1 2.6-.8 3.1.0.0.0.1.2.1.2.0.6-.1 1.5-.7.4-.2 1.4-1 1.6-1.4.0-.1.1-.3.2-.6.3-1.3 1-4.3 4.6-9.3 3.4-4.6 8.6-7.9 12.4-7.9 1.3.0 2.4.4 3.2 1.2 1-1.8 5.2-9.8 6-11.4l.1-.2h6.2L84.6 75.2c-.5 1-.8 2.3-.6 2.6.0.0.0.0.1.0.0.0.0.0.1.0 1.3-.2 2-.8 2.9-2.4l.4-.8c1.7-3.2 6.9-12.7 8-15.9l.1-.2 6.1-.1-8.1 16.2c-.5.9-1.2 2.6-.8 3.3.0.1.2.3.6.3 2 0 3.8-2.6 4-3 .1-.7 1.3-6 6.4-11.8 3.1-3.5 7-5.6 10.2-5.6 1.7.0 3 .6 3.8 1.6l.5-1.3 5.8-.1L116.1 74c-.2.4-.5 1.2-.4 1.6.0.1.1.2.2.2.0.0.0.0.1.0.6.0 2-1.9 3.1-3.5 1-1.4 3.7-5 7.3-10 .2-.2 3.5-4.6 6.9-4.6.1.0.2.0.3.0 1.8.2 2.7.7 3 2 .1.4.3.4.4.4.2.0.5-.1.8-.4 1.1-.8 2.5-1.6 4.8-1.6 1 0 1.7.4 2.2 1.1.7 1.2.6 3.2-.5 5.1-1.4 2.6-6 12.2-6.1 12.3-.5.9-.9 2-.6 2.2.1.1.3.2.6.2.6.0 1.8-.4 3.3-3.4l.4-.9.1 1c0 0 .6 4.8-4.1 7.4-1.3.7-2.5 1.1-3.6 1.1-1.2.0-2.2-.4-2.8-1.2-.4-.6-.6-1.3-.4-1.8.4-1.5.9-3 7.2-15.4.0.0.7-1.6.8-2.5.0-.1.0-.2-.1-.4-.2-.2-.4-.3-.8-.3-.5.0-1 .2-1.4.6-1.2 1.1-3.2 3.6-2.8 4.8.1.4.4.6 1 .6h.2v.2c0 0 .1.6-.4 1.3-.6.7-1.7 1.2-3.3 1.3l-6 11.8-6.2.1.2-.4c.1-.2 7.3-14.3 8.1-16.2.2-.4.2-.7.2-.8-.2.1-1.1.6-2.4 2.6-.4.6-.9 1.4-1.5 2.2-2.2 3.4-5.2 8-9 11.5-.1.1-1.8 1.7-3.7 1.7-.6.0-1.1-.2-1.6-.5-.1.0-.8-.7-1.3-2.1-.6.9-2.1 2.4-4.6 2.4-.3.0-.7.0-1-.1-3.6-.6-4.5-3.1-4.9-4.6-1.1 1.2-4.3 4.7-7.2 4.7-.1.0-.2.0-.2.0-2.6-.2-3.6-1.6-4.3-2.6-.1-.2-.2-.4-.4-.5-.6.8-2.5 3.1-4.7 3.1-.1.0-.2.0-.3.0-2.5-.2-3.2-1.3-3.7-2.6-.8.8-2.7 2.7-5.5 2.7-.4.0-.7.0-1-.1-3.6-.6-4.6-2.6-5-3.8C64.9 81.1 62.1 84.1 58.9 84.1v0zM105.2 78.2c0 0 .2.1.6.1.8.0 2.4-.5 4.3-3.7 2-3.4 2.1-4.1 2.2-4.7.0-.1.0-.2.1-.3-.4-.2-1.1-.6-1.4-1.4-.2-.7.0-1.5.6-2.4l.2-.3.2.3c0 0 .6.7 1.4.7.6.0 1.1-.3 1.6-1 .9-1.1.9-2 .7-2.6-.2-.7-.7-1.2-.9-1.2-.2-.1-.5-.2-.8-.2-1.2.0-2.7.9-4.3 2.8.0.0-4.2 4.7-5.6 10.4-.3 1.4-.3 2.4.1 3C104.6 78.1 105.1 78.2 105.2 78.2v0 0zm-31 0c0 0 .2.0.4.0.9.0 2.6-.4 4.3-3.4 2.2-3.9 2.3-4.4 2.6-5.1v0c-.4-.2-1.1-.6-1.4-1.4-.2-.7.0-1.5.6-2.4l.2-.3.2.3c0 0 .6.7 1.4.7.6.0 1.1-.3 1.6-1 .9-1.1.9-2 .7-2.6-.2-.7-.7-1.2-.9-1.2s-.5-.2-.8-.2c-1.2.0-2.7.9-4.3 2.8.0.0-4.6 5.8-6.2 9.8-.5 1.3-.6 2.3-.1 3C73.1 78 74.2 78.2 74.2 78.2v0 0z"/><path class="st2" d="M98.3 47.7 84.5 74.9c0 0-1.4 3.1-.2 3.1.0.0.1.0.1.0 1.4-.2 2.2-.8 3.1-2.5.9-1.7 7.2-13.1 8.5-16.7l5.4-.1-7.9 15.8c0 0-2.2 4 .1 4 2.3.0 4.3-3.2 4.3-3.2s1-5.7 6.4-11.7c3.3-3.8 7.2-5.5 10-5.5 1.8.0 3.2.7 3.8 2l.6-1.7 5.1-.1-8 15.4c0 0-1 1.8-.1 2.2.1.0.1.0.2.0.5.0 1.4-.9 3.4-3.6 1-1.4 3.5-4.8 7.3-10 0 0 3.4-4.5 6.6-4.5.1.0.2.0.3.0 2 .2 2.5.8 2.7 1.7.1.4.4.6.6.6.3.0.7-.2 1-.4 1-.7 2.3-1.6 4.6-1.6 2.7.0 2.8 3.2 1.4 5.8-1.4 2.7-6.1 12.3-6.1 12.3s-1.2 2.1-.5 2.5c.2.1.4.2.8.2.9.0 2.2-.7 3.6-3.6.0.0.7 4.6-3.9 7.1-1.4.8-2.5 1-3.5 1-2.2.0-3.2-1.6-2.9-2.7.5-1.5 1.1-3.3 7.2-15.3.0.0.7-1.6.9-2.6.1-.6-.4-1-1.2-1-.5.0-1.1.2-1.6.7-1.3 1.2-4.9 5.5-1.6 5.9.0.0.3 2-3.6 2.2l-6.1 11.9-5.5.1c0 0 7.3-14.3 8.1-16.2.3-.8.3-1.2.0-1.2-.4.0-1.4.8-2.7 2.7-2.1 3-5.8 9.3-10.4 13.7.0.0-1.7 1.6-3.5 1.6-.5.0-1-.1-1.4-.4.0.0-.9-.8-1.3-2.5.0.0-1.5 2.8-4.7 2.8-.3.0-.6.0-1-.1-3.9-.7-4.4-3.5-4.8-5 0 0-4 5-7.3 5-.1.0-.1.0-.2.0-3.4-.2-3.9-2.7-4.7-3.2.0.0-2.2 3.2-4.6 3.2-.1.0-.2.0-.3.0-2.6-.3-3.1-1.4-3.7-2.9.0.0-2.1 3-5.6 3-.3.0-.6.0-1-.1-4-.7-4.7-3.2-4.9-4.1.0.0-3.4 4.5-7 4.5-.5.0-.9-.1-1.4-.2.0.0-3.4-1-.5-5.9.0.0 3.5-7 6.1-12.7.0.0 1.1-2.4-.9-2.5.0.0.0.0-.1.0-2 0-6.6 5.4-3 6.6.0.0-.6 2.1-3.1 2.1L50 82.9l-5.6.1 8.4-16.3c0 0 1.5-2 .4-2.5.0.0.0.0-.1.0-.2.0-.8.3-2.2 2.2-2.1 3-4.3 6.9-7.6 7.1-.1.0-.2.0-.3.0-2.6.0-2-2.4-1-3.2.0.0-.4.6.4.9.1.0.2.1.5.1.6.0 1.6-.3 3.2-2.2 2.2-2.6 6.1-7.6 7.4-9.2.8-1 2.5-2 4-2 1 0 2 .4 2.6 1.7.0.0.2.4.7.4.2.0.5-.1.8-.4.9-.7 2-1.3 3.6-1.3.3.0.6.0.9.0 2.2.2 5 1 1.7 7 0 0-4.2 8.3-4.6 9-.3.6-1.6 3.6-.4 3.6.3.0.9-.2 1.7-.8.0.0 1.4-1 1.7-1.6.4-.6.2-3.7 4.8-9.8 3.3-4.5 8.5-7.8 12.2-7.8 1.4.0 2.5.4 3.2 1.5.0.0 5.4-9.9 6.2-11.8h5.6M105.8 78.6c1 0 2.6-.6 4.6-3.8 2.5-4.3 2-4.3 2.4-5.3.0.0-2.7-.8-.9-3.4.0.0.6.8 1.6.8.6.0 1.2-.2 1.9-1.1 1.8-2.2.3-4.2-.4-4.4-.2-.1-.5-.2-1-.2-.9.0-2.4.5-4.5 2.9.0.0-4.2 4.7-5.7 10.5-.9 3.7 1.2 3.9 1.2 3.9S105.3 78.6 105.8 78.6M74.6 78.5c.9.0 2.8-.4 4.5-3.6 2.4-4.4 2.4-4.4 2.6-5.4.0.0-2.7-.8-.9-3.4.0.0.6.8 1.6.8.6.0 1.2-.2 1.9-1.1 1.8-2.2.3-4.2-.4-4.4-.2-.1-.5-.2-1-.2-.9.0-2.4.5-4.5 2.9.0.0-4.6 5.8-6.2 9.8-1.6 4 1.8 4.6 1.8 4.6S74.3 78.5 74.6 78.5M99.3 47.1h-1-5.5-.4l-.2.4c-.7 1.5-4.6 8.7-5.8 11-.8-.7-1.9-1-3.1-1-3.9.0-9.2 3.4-12.6 8-3.7 5-4.4 8.1-4.7 9.4.0.2-.1.5-.2.5-.2.3-1 1-1.5 1.4-.7.5-1.1.6-1.2.7.0-.5.4-1.8.8-2.7.4-.8 4.4-8.6 4.6-9 1.6-2.8 2-4.8 1.3-6.2-.7-1.3-2.2-1.6-3.4-1.8-.3.0-.6.0-1 0-1.8.0-3 .7-4 1.4-.3.2-.4.2-.5.2-.1.0-.1.0-.2-.1-.6-1.3-1.7-2-3.1-2-1.8.0-3.6 1.1-4.5 2.2-.6.7-1.6 2-2.9 3.6-1.6 2-3.3 4.2-4.5 5.6-1.4 1.7-2.3 2-2.7 2-.1.0-.2.0-.3.0-.1.0-.1.0-.1.0.0.0.0.1.0.1l-.9-.8c-.7.7-1.2 2-.8 3 .2.5.7 1.2 2.3 1.2.1.0.2.0.3.0 3.2-.2 5.5-3.5 7.4-6.4.2-.3.4-.6.6-.9.9-1.3 1.4-1.8 1.6-1.9.0.2-.3.9-.7 1.5v0 0l-8.4 16.3-.4.9h1l5.6-.1h.4l.2-.3 5.7-11.4c2.1-.2 3.1-1.7 3.3-2.5l.2-.6-.5-.2c-.7-.2-1-.7-.9-1.4.3-1.8 2.7-4 3.7-4 0 0 0 0 0 0 .4.0.5.2.5.2.2.4.0 1.2-.2 1.5-2.5 5.4-5.9 12.2-6.1 12.6-1.2 2-1.6 3.7-1 5 .5 1.3 1.7 1.7 1.9 1.7.5.2 1 .3 1.6.3 2.9.0 5.6-2.5 6.8-3.9.5 1.2 1.8 3 5 3.5.4.1.7.1 1.1.1 2.6.0 4.4-1.5 5.4-2.5.6 1.2 1.4 2.2 3.8 2.4.1.0.2.0.4.0 2.1.0 3.9-1.9 4.7-2.9.0.0.1.1.1.2.6 1 1.7 2.5 4.5 2.7.1.0.2.0.2.0 2.7.0 5.7-2.9 7.1-4.4.5 1.6 1.6 3.8 5 4.4.4.1.7.1 1.1.1 2.2.0 3.7-1.2 4.5-2.1.5 1.1 1.1 1.6 1.2 1.7v0 0c.5.4 1.1.5 1.7.5 2 0 3.8-1.7 3.9-1.8 3.8-3.6 6.8-8.2 9-11.6.6-.9 1-1.6 1.5-2.2.8-1.1 1.3-1.7 1.7-2.1v0c-.8 1.9-8 16-8.1 16.2l-.4.9h1l5.5-.1h.4l.2-.3 6-11.6c1.6-.2 2.7-.6 3.3-1.4.6-.7.5-1.4.5-1.5l-.1-.4-.4-.1c-.7-.1-.8-.4-.8-.4-.3-1 1.4-3.3 2.7-4.4.5-.5 1-.5 1.2-.5.3.0.5.1.5.2.0.0.0.1.0.1-.1.7-.6 1.9-.8 2.4-6.3 12.4-6.8 13.9-7.2 15.4-.2.7.0 1.4.4 2.1.6.9 1.8 1.4 3 1.4 1.2.0 2.4-.4 3.8-1.1 4.9-2.7 4.2-7.7 4.2-7.8l-.3-1.9-.8 1.7c-1.4 2.9-2.6 3.2-3 3.2-.2.0-.3.0-.4-.1.0-.3.3-1.1.6-1.8v0 0c0-.1 4.7-9.7 6-12.3 1-2 1.2-4.1.4-5.4-.4-.6-1-1.3-2.4-1.3-2.4.0-3.8.9-4.9 1.7-.3.2-.6.3-.6.3v0c0 0 0-.1.0-.2-.3-1.4-1.3-2-3.3-2.2-.1.0-.2.0-.3.0-3.5.0-7 4.5-7.1 4.7-3.6 5-6.3 8.6-7.3 10-1.8 2.6-2.6 3.3-2.8 3.4-.1-.2.1-.8.4-1.4l8-15.4.5-.9h-1l-5.1.1h-.4l-.2.4-.2.6c-.9-.9-2.1-1.3-3.7-1.3v0c-3.4.0-7.3 2.1-10.4 5.7-5.1 5.7-6.3 11-6.5 11.9C97 76 95.3 78 93.8 78c-.3.0-.4-.1-.4-.1-.3-.5.3-2 .8-3v0 0l7.9-15.8.4-.9h-1l-5.4.1h-.4l-.1.4c-1.1 3.2-6.3 12.8-8 15.9-.2.3-.3.6-.4.8-.9 1.6-1.6 2-2.6 2.2.0-.4.3-1.4.7-2.2L99 48.1 99.3 47.1v0zM105.1 77.9c0 0-.4.0-.6-.4-.2-.4-.5-1.1-.1-2.7 1.4-5.6 5.5-10.2 5.6-10.3 1.5-1.8 2.9-2.7 4.1-2.7.3.0.6.1.8.1.2.0.6.5.8 1.1.2.8.0 1.6-.7 2.3-.5.6-1 .8-1.4.8-.6.0-1.1-.6-1.1-.6l-.5-.6-.4.6c-.7 1-.9 1.9-.6 2.7.2.8.9 1.2 1.3 1.4.0.0.0.1.0.1-.1.6-.2 1.3-2.2 4.6-1.8 3.1-3.3 3.5-4 3.5-.3.0-.5-.1-.5-.1l-.1-.1L105.1 77.9v0zM79 64.4c1.5-1.7 2.9-2.6 4-2.6.3.0.6.1.8.1.2.0.6.5.8 1.1.2.8.0 1.6-.7 2.3-.5.6-1 .8-1.4.8-.6.0-1.1-.6-1.1-.6L80.9 65l-.4.6c-.7 1-.9 1.9-.6 2.7.2.7.8 1.2 1.3 1.4-.2.6-.5 1.4-2.4 4.8-1.7 3-3.4 3.3-4 3.3-.2.0-.4.0-.4.0h0 0c0 0-1-.2-1.5-1-.4-.6-.3-1.6.1-2.8C74.4 70.3 78.8 64.7 79 64.4v0z"/></g><g><path class="st1" d="M101.8 55c-.8.0-1.6-.3-2-.8-.4-.4-.5-.9-.4-1.5.3-1.7 1.9-3.7 3.8-3.7 2 0 2.5 1.3 2.5 2.4.0 1.2-1.5 3.1-3 3.4C102.3 55 102 55 101.8 55v0z"/><path class="st2" d="M103.1 49.3c.9.0 2.2.2 2.2 2.1.0 1.1-1.4 2.8-2.8 3.2-.2.0-.5.1-.7.1-1.3.0-2.3-.8-2.1-2C99.9 51.2 101.4 49.3 103.1 49.3M103.1 48.7c-2 0-3.8 2.1-4.1 3.9-.1.6.1 1.2.5 1.7.5.6 1.3.9 2.2.9.3.0.6.0.9-.1 1.7-.4 3.3-2.4 3.3-3.7C105.9 49.7 104.9 48.7 103.1 48.7v0z"/></g></g></g><path class="st3" d="M143.6 81.5h5.4v4.6H143.6z"/><text transform="matrix(1.0005 0 0 1 143.5977 85.7109)" class="st4 st5">®</text></g></g></svg>